<svg version="1.0" preserveAspectRatio="xMidYMid meet" viewBox="28.86811359007443 35.405023373999406 173.208535987055 70.567498254" zoomAndPan="magnify" xmlns:xlink="http://www.w3.org/1999/xlink" xmlns="http://www.w3.org/2000/svg" style="max-height: 500px" width="173.208535987055" height="70.567498254"><defs><g/></defs><g fill-opacity="0.3294" fill="#000000"><g transform="translate(44.128692, 102.692097)"><g><path d="M 5.390625 -24.234375 C 6.734375 -23.203125 8.019531 -22.101562 9.25 -20.9375 C 10.488281 -19.78125 11.71875 -18.625 12.9375 -17.46875 C 13.34375 -17.082031 13.582031 -16.648438 13.65625 -16.171875 C 13.726562 -15.691406 13.664062 -15.234375 13.46875 -14.796875 C 13.269531 -14.367188 12.988281 -14.015625 12.625 -13.734375 C 12.269531 -13.460938 11.875 -13.328125 11.4375 -13.328125 C 11 -13.328125 10.578125 -13.523438 10.171875 -13.921875 C 9.210938 -14.847656 8.234375 -15.804688 7.234375 -16.796875 C 6.234375 -17.785156 5.195312 -18.726562 4.125 -19.625 C 3.0625 -20.53125 1.9375 -21.300781 0.75 -21.9375 C 0.53125 -22.050781 0.296875 -22.144531 0.046875 -22.21875 C -0.203125 -22.289062 -0.421875 -22.394531 -0.609375 -22.53125 C -0.546875 -22.195312 -0.492188 -21.847656 -0.453125 -21.484375 C -0.421875 -21.117188 -0.367188 -20.8125 -0.296875 -20.5625 C -0.0234375 -19.769531 0.320312 -19.039062 0.75 -18.375 C 1.1875 -17.71875 1.679688 -17.09375 2.234375 -16.5 C 2.578125 -16.125 2.742188 -15.722656 2.734375 -15.296875 C 2.734375 -14.867188 2.613281 -14.46875 2.375 -14.09375 C 2.132812 -13.71875 1.820312 -13.414062 1.4375 -13.1875 C 1.050781 -12.957031 0.644531 -12.84375 0.21875 -12.84375 C -0.207031 -12.851562 -0.597656 -13.035156 -0.953125 -13.390625 C -1.347656 -13.753906 -1.753906 -14.117188 -2.171875 -14.484375 C -2.585938 -14.847656 -3.015625 -15.1875 -3.453125 -15.5 C -3.609375 -15.613281 -3.804688 -15.773438 -4.046875 -15.984375 C -4.296875 -16.191406 -4.550781 -16.382812 -4.8125 -16.5625 C -5.082031 -16.738281 -5.332031 -16.820312 -5.5625 -16.8125 C -5.613281 -16.789062 -5.644531 -16.804688 -5.65625 -16.859375 C -5.675781 -16.835938 -5.6875 -16.828125 -5.6875 -16.828125 C -5.6875 -16.828125 -5.691406 -16.820312 -5.703125 -16.8125 C -5.773438 -16.632812 -5.742188 -16.382812 -5.609375 -16.0625 C -5.472656 -15.75 -5.382812 -15.523438 -5.34375 -15.390625 C -5.195312 -14.992188 -5.019531 -14.601562 -4.8125 -14.21875 C -4.613281 -13.84375 -4.40625 -13.488281 -4.1875 -13.15625 C -3.1875 -11.519531 -2.003906 -10.039062 -0.640625 -8.71875 C 0.722656 -7.40625 2.117188 -6.113281 3.546875 -4.84375 C 3.972656 -4.457031 4.21875 -4.03125 4.28125 -3.5625 C 4.34375 -3.101562 4.28125 -2.660156 4.09375 -2.234375 C 3.914062 -1.816406 3.644531 -1.46875 3.28125 -1.1875 C 2.914062 -0.914062 2.507812 -0.769531 2.0625 -0.75 C 1.625 -0.726562 1.191406 -0.914062 0.765625 -1.3125 C -0.421875 -2.363281 -1.585938 -3.425781 -2.734375 -4.5 C -3.890625 -5.582031 -4.960938 -6.734375 -5.953125 -7.953125 C -6.566406 -8.679688 -7.175781 -9.488281 -7.78125 -10.375 C -8.394531 -11.269531 -8.921875 -12.203125 -9.359375 -13.171875 C -9.796875 -14.140625 -10.070312 -15.117188 -10.1875 -16.109375 C -10.28125 -17.015625 -10.140625 -17.890625 -9.765625 -18.734375 C -9.398438 -19.578125 -8.851562 -20.25 -8.125 -20.75 C -7.394531 -21.25 -6.53125 -21.46875 -5.53125 -21.40625 C -5.476562 -21.375 -5.414062 -21.359375 -5.34375 -21.359375 C -5.269531 -21.359375 -5.207031 -21.351562 -5.15625 -21.34375 C -5.34375 -22.21875 -5.378906 -23.050781 -5.265625 -23.84375 C -5.160156 -24.644531 -4.863281 -25.320312 -4.375 -25.875 C -3.894531 -26.4375 -3.148438 -26.8125 -2.140625 -27 C -1.210938 -27.164062 -0.304688 -27.117188 0.578125 -26.859375 C 1.460938 -26.597656 2.3125 -26.222656 3.125 -25.734375 C 3.9375 -25.253906 4.691406 -24.753906 5.390625 -24.234375 Z M 5.390625 -24.234375"/></g></g></g><g fill-opacity="0.3294" fill="#000000"><g transform="translate(57.546644, 85.780115)"><g><path d="M 4.15625 -19.921875 C 5.425781 -18.378906 6.691406 -16.832031 7.953125 -15.28125 C 9.210938 -13.738281 10.484375 -12.195312 11.765625 -10.65625 C 12.128906 -10.207031 12.300781 -9.753906 12.28125 -9.296875 C 12.269531 -8.835938 12.117188 -8.429688 11.828125 -8.078125 C 11.546875 -7.722656 11.191406 -7.453125 10.765625 -7.265625 C 10.335938 -7.078125 9.894531 -7.019531 9.4375 -7.09375 C 8.988281 -7.175781 8.582031 -7.441406 8.21875 -7.890625 C 7.832031 -8.347656 7.453125 -8.804688 7.078125 -9.265625 C 6.703125 -9.734375 6.316406 -10.203125 5.921875 -10.671875 L 2.296875 -8.03125 C 2.617188 -7.34375 2.957031 -6.65625 3.3125 -5.96875 C 3.675781 -5.28125 4.035156 -4.597656 4.390625 -3.921875 C 4.660156 -3.410156 4.738281 -2.945312 4.625 -2.53125 C 4.507812 -2.113281 4.269531 -1.765625 3.90625 -1.484375 C 3.539062 -1.203125 3.117188 -1.023438 2.640625 -0.953125 C 2.171875 -0.890625 1.710938 -0.953125 1.265625 -1.140625 C 0.828125 -1.335938 0.476562 -1.6875 0.21875 -2.1875 C -0.695312 -3.957031 -1.566406 -5.738281 -2.390625 -7.53125 C -3.210938 -9.320312 -3.863281 -11.179688 -4.34375 -13.109375 C -4.570312 -14.078125 -4.757812 -15.160156 -4.90625 -16.359375 C -5.0625 -17.554688 -5.09375 -18.738281 -5 -19.90625 C -4.914062 -21.070312 -4.628906 -22.113281 -4.140625 -23.03125 C -3.671875 -23.882812 -3.140625 -24.390625 -2.546875 -24.546875 C -1.953125 -24.710938 -1.335938 -24.640625 -0.703125 -24.328125 C -0.0664062 -24.023438 0.554688 -23.601562 1.171875 -23.0625 C 1.785156 -22.53125 2.347656 -21.972656 2.859375 -21.390625 C 3.378906 -20.804688 3.8125 -20.316406 4.15625 -19.921875 Z M 0.375 -12.796875 C 0.40625 -12.710938 0.429688 -12.628906 0.453125 -12.546875 C 0.472656 -12.460938 0.492188 -12.378906 0.515625 -12.296875 C 0.953125 -12.617188 1.378906 -12.929688 1.796875 -13.234375 C 2.222656 -13.535156 2.644531 -13.84375 3.0625 -14.15625 C 2.664062 -14.644531 2.257812 -15.140625 1.84375 -15.640625 C 1.4375 -16.140625 1.023438 -16.644531 0.609375 -17.15625 C 0.429688 -17.351562 0.25 -17.566406 0.0625 -17.796875 C -0.113281 -18.023438 -0.289062 -18.253906 -0.46875 -18.484375 C -0.488281 -17.960938 -0.476562 -17.476562 -0.4375 -17.03125 C -0.382812 -16.3125 -0.289062 -15.597656 -0.15625 -14.890625 C -0.0195312 -14.179688 0.15625 -13.484375 0.375 -12.796875 Z M 0.375 -12.796875"/></g></g></g><g fill-opacity="0.3294" fill="#000000"><g transform="translate(69.571972, 76.151841)"><g><path d="M 3.140625 -24.546875 C 3.660156 -24.734375 4.15625 -24.742188 4.625 -24.578125 C 5.09375 -24.421875 5.476562 -24.160156 5.78125 -23.796875 C 6.09375 -23.441406 6.289062 -23.039062 6.375 -22.59375 C 6.457031 -22.15625 6.398438 -21.742188 6.203125 -21.359375 C 6.003906 -20.972656 5.644531 -20.695312 5.125 -20.53125 C 4.21875 -20.21875 3.3125 -19.875 2.40625 -19.5 C 3.257812 -17.457031 4.109375 -15.429688 4.953125 -13.421875 C 5.796875 -11.421875 6.640625 -9.410156 7.484375 -7.390625 C 7.722656 -6.867188 7.769531 -6.375 7.625 -5.90625 C 7.476562 -5.445312 7.226562 -5.066406 6.875 -4.765625 C 6.519531 -4.472656 6.117188 -4.28125 5.671875 -4.1875 C 5.234375 -4.09375 4.8125 -4.140625 4.40625 -4.328125 C 4.007812 -4.515625 3.691406 -4.875 3.453125 -5.40625 C 2.597656 -7.425781 1.742188 -9.445312 0.890625 -11.46875 C 0.046875 -13.5 -0.789062 -15.523438 -1.625 -17.546875 C -2.4375 -17.128906 -3.195312 -16.679688 -3.90625 -16.203125 C -4.414062 -15.921875 -4.882812 -15.816406 -5.3125 -15.890625 C -5.738281 -15.972656 -6.097656 -16.1875 -6.390625 -16.53125 C -6.679688 -16.875 -6.875 -17.273438 -6.96875 -17.734375 C -7.070312 -18.203125 -7.039062 -18.660156 -6.875 -19.109375 C -6.71875 -19.554688 -6.394531 -19.929688 -5.90625 -20.234375 C -3.0625 -22.023438 -0.046875 -23.460938 3.140625 -24.546875 Z M 3.140625 -24.546875"/></g></g></g><g fill-opacity="0.3294" fill="#000000"><g transform="translate(83.1768, 69.124992)"><g><path d="M 7.375 -23.484375 C 7.332031 -24.054688 7.453125 -24.515625 7.734375 -24.859375 C 8.023438 -25.203125 8.390625 -25.421875 8.828125 -25.515625 C 9.265625 -25.617188 9.707031 -25.609375 10.15625 -25.484375 C 10.613281 -25.359375 11.003906 -25.117188 11.328125 -24.765625 C 11.660156 -24.421875 11.835938 -23.953125 11.859375 -23.359375 C 12.140625 -17.753906 12.765625 -12.191406 13.734375 -6.671875 C 13.835938 -6.109375 13.769531 -5.617188 13.53125 -5.203125 C 13.300781 -4.785156 12.976562 -4.46875 12.5625 -4.25 C 12.144531 -4.03125 11.710938 -3.921875 11.265625 -3.921875 C 10.816406 -3.921875 10.414062 -4.054688 10.0625 -4.328125 C 9.71875 -4.609375 9.488281 -5.023438 9.375 -5.578125 C 9.207031 -6.515625 9.050781 -7.441406 8.90625 -8.359375 C 8.769531 -9.285156 8.640625 -10.210938 8.515625 -11.140625 L 4.53125 -10.15625 C 4.6875 -8.976562 4.835938 -7.796875 4.984375 -6.609375 C 5.140625 -5.421875 5.296875 -4.234375 5.453125 -3.046875 C 5.515625 -2.484375 5.421875 -1.992188 5.171875 -1.578125 C 4.929688 -1.160156 4.597656 -0.835938 4.171875 -0.609375 C 3.742188 -0.378906 3.304688 -0.265625 2.859375 -0.265625 C 2.410156 -0.273438 2.015625 -0.414062 1.671875 -0.6875 C 1.335938 -0.96875 1.144531 -1.390625 1.09375 -1.953125 C 0.863281 -3.597656 0.640625 -5.242188 0.421875 -6.890625 C 0.210938 -8.535156 0.00390625 -10.179688 -0.203125 -11.828125 C -0.296875 -12.617188 -0.390625 -13.40625 -0.484375 -14.1875 C -0.585938 -14.976562 -0.695312 -15.769531 -0.8125 -16.5625 C -0.894531 -17.269531 -1.007812 -18.003906 -1.15625 -18.765625 C -1.300781 -19.523438 -1.328125 -20.265625 -1.234375 -20.984375 C -1.171875 -21.566406 -0.96875 -22.023438 -0.625 -22.359375 C -0.289062 -22.691406 0.101562 -22.910156 0.5625 -23.015625 C 1.019531 -23.117188 1.46875 -23.109375 1.90625 -22.984375 C 2.351562 -22.859375 2.707031 -22.617188 2.96875 -22.265625 C 3.238281 -21.921875 3.328125 -21.46875 3.234375 -20.90625 C 3.171875 -20.195312 3.210938 -19.460938 3.359375 -18.703125 C 3.503906 -17.953125 3.613281 -17.238281 3.6875 -16.5625 C 3.738281 -16.238281 3.785156 -15.914062 3.828125 -15.59375 C 3.867188 -15.28125 3.90625 -14.96875 3.9375 -14.65625 L 7.96875 -15.65625 C 7.832031 -16.945312 7.710938 -18.25 7.609375 -19.5625 C 7.515625 -20.875 7.4375 -22.179688 7.375 -23.484375 Z M 7.375 -23.484375"/></g></g></g><g fill-opacity="0.3294" fill="#000000"><g transform="translate(99.862435, 65.222727)"><g/></g></g><g fill-opacity="0.3294" fill="#000000"><g transform="translate(107.111673, 63.738498)"><g><path d="M 23.46875 -8.09375 C 23.300781 -6.425781 23.046875 -4.757812 22.703125 -3.09375 C 22.359375 -1.425781 22.007812 0.226562 21.65625 1.875 C 21.53125 2.425781 21.285156 2.851562 20.921875 3.15625 C 20.554688 3.46875 20.132812 3.648438 19.65625 3.703125 C 19.1875 3.765625 18.742188 3.710938 18.328125 3.546875 C 17.910156 3.390625 17.582031 3.128906 17.34375 2.765625 C 17.113281 2.398438 17.0625 1.9375 17.1875 1.375 C 17.476562 0.0703125 17.78125 -1.257812 18.09375 -2.625 C 18.414062 -3.988281 18.679688 -5.363281 18.890625 -6.75 C 19.097656 -8.132812 19.160156 -9.503906 19.078125 -10.859375 C 19.066406 -11.085938 19.023438 -11.328125 18.953125 -11.578125 C 18.890625 -11.828125 18.867188 -12.070312 18.890625 -12.3125 C 18.628906 -12.082031 18.351562 -11.859375 18.0625 -11.640625 C 17.769531 -11.421875 17.535156 -11.210938 17.359375 -11.015625 C 16.835938 -10.367188 16.40625 -9.6875 16.0625 -8.96875 C 15.726562 -8.257812 15.445312 -7.507812 15.21875 -6.71875 C 15.082031 -6.238281 14.828125 -5.890625 14.453125 -5.671875 C 14.085938 -5.453125 13.679688 -5.34375 13.234375 -5.34375 C 12.796875 -5.351562 12.378906 -5.460938 11.984375 -5.671875 C 11.597656 -5.878906 11.289062 -6.164062 11.0625 -6.53125 C 10.84375 -6.90625 10.796875 -7.332031 10.921875 -7.8125 C 11.023438 -8.351562 11.117188 -8.894531 11.203125 -9.4375 C 11.296875 -9.976562 11.363281 -10.519531 11.40625 -11.0625 C 11.425781 -11.25 11.457031 -11.5 11.5 -11.8125 C 11.550781 -12.132812 11.582031 -12.457031 11.59375 -12.78125 C 11.601562 -13.101562 11.546875 -13.359375 11.421875 -13.546875 C 11.378906 -13.578125 11.367188 -13.613281 11.390625 -13.65625 C 11.367188 -13.65625 11.359375 -13.65625 11.359375 -13.65625 C 11.359375 -13.65625 11.347656 -13.65625 11.328125 -13.65625 C 11.148438 -13.632812 10.957031 -13.476562 10.75 -13.1875 C 10.550781 -12.90625 10.40625 -12.710938 10.3125 -12.609375 C 10.050781 -12.273438 9.8125 -11.921875 9.59375 -11.546875 C 9.382812 -11.179688 9.191406 -10.816406 9.015625 -10.453125 C 8.148438 -8.742188 7.507812 -6.960938 7.09375 -5.109375 C 6.675781 -3.265625 6.300781 -1.398438 5.96875 0.484375 C 5.875 1.046875 5.644531 1.472656 5.28125 1.765625 C 4.925781 2.066406 4.515625 2.25 4.046875 2.3125 C 3.585938 2.382812 3.148438 2.335938 2.734375 2.171875 C 2.316406 2.003906 1.976562 1.734375 1.71875 1.359375 C 1.46875 0.992188 1.394531 0.53125 1.5 -0.03125 C 1.78125 -1.59375 2.078125 -3.144531 2.390625 -4.6875 C 2.710938 -6.226562 3.132812 -7.742188 3.65625 -9.234375 C 3.957031 -10.140625 4.328125 -11.082031 4.765625 -12.0625 C 5.210938 -13.050781 5.734375 -13.984375 6.328125 -14.859375 C 6.921875 -15.742188 7.609375 -16.492188 8.390625 -17.109375 C 9.117188 -17.660156 9.9375 -18 10.84375 -18.125 C 11.757812 -18.257812 12.625 -18.144531 13.4375 -17.78125 C 14.25 -17.414062 14.878906 -16.796875 15.328125 -15.921875 C 15.335938 -15.859375 15.359375 -15.796875 15.390625 -15.734375 C 15.429688 -15.671875 15.460938 -15.617188 15.484375 -15.578125 C 16.128906 -16.179688 16.816406 -16.644531 17.546875 -16.96875 C 18.285156 -17.300781 19.019531 -17.40625 19.75 -17.28125 C 20.476562 -17.15625 21.191406 -16.710938 21.890625 -15.953125 C 22.515625 -15.253906 22.945312 -14.457031 23.1875 -13.5625 C 23.425781 -12.675781 23.550781 -11.757812 23.5625 -10.8125 C 23.582031 -9.863281 23.550781 -8.957031 23.46875 -8.09375 Z M 23.46875 -8.09375"/></g></g></g><g fill-opacity="0.3294" fill="#000000"><g transform="translate(128.54651, 66.316105)"><g><path d="M 19.15625 -6.890625 C 18.5 -4.992188 17.835938 -3.101562 17.171875 -1.21875 C 16.515625 0.65625 15.867188 2.546875 15.234375 4.453125 C 15.054688 4.992188 14.757812 5.375 14.34375 5.59375 C 13.9375 5.820312 13.507812 5.910156 13.0625 5.859375 C 12.625 5.816406 12.210938 5.65625 11.828125 5.375 C 11.441406 5.101562 11.164062 4.753906 11 4.328125 C 10.832031 3.898438 10.835938 3.414062 11.015625 2.875 C 11.203125 2.300781 11.394531 1.734375 11.59375 1.171875 C 11.789062 0.609375 11.992188 0.0390625 12.203125 -0.53125 L 8.046875 -2.25 C 7.628906 -1.613281 7.21875 -0.960938 6.8125 -0.296875 C 6.414062 0.359375 6.023438 1.023438 5.640625 1.703125 C 5.347656 2.179688 4.988281 2.484375 4.5625 2.609375 C 4.144531 2.734375 3.722656 2.710938 3.296875 2.546875 C 2.867188 2.390625 2.503906 2.125 2.203125 1.75 C 1.898438 1.382812 1.710938 0.960938 1.640625 0.484375 C 1.578125 0.015625 1.695312 -0.46875 2 -0.96875 C 3.007812 -2.675781 4.0625 -4.34375 5.15625 -5.96875 C 6.25 -7.601562 7.492188 -9.128906 8.890625 -10.546875 C 9.597656 -11.253906 10.421875 -11.984375 11.359375 -12.734375 C 12.296875 -13.492188 13.285156 -14.144531 14.328125 -14.6875 C 15.378906 -15.226562 16.425781 -15.523438 17.46875 -15.578125 C 18.4375 -15.628906 19.144531 -15.441406 19.59375 -15.015625 C 20.039062 -14.597656 20.300781 -14.035156 20.375 -13.328125 C 20.445312 -12.617188 20.410156 -11.863281 20.265625 -11.0625 C 20.128906 -10.257812 19.945312 -9.488281 19.71875 -8.75 C 19.5 -8.007812 19.3125 -7.390625 19.15625 -6.890625 Z M 11.09375 -6.375 C 11.039062 -6.3125 10.984375 -6.25 10.921875 -6.1875 C 10.867188 -6.125 10.8125 -6.0625 10.75 -6 C 11.238281 -5.78125 11.722656 -5.570312 12.203125 -5.375 C 12.691406 -5.175781 13.179688 -4.976562 13.671875 -4.78125 C 13.867188 -5.394531 14.078125 -6.003906 14.296875 -6.609375 C 14.515625 -7.222656 14.726562 -7.84375 14.9375 -8.46875 C 15 -8.71875 15.082031 -8.976562 15.1875 -9.25 C 15.289062 -9.53125 15.394531 -9.804688 15.5 -10.078125 C 15.050781 -9.816406 14.644531 -9.554688 14.28125 -9.296875 C 13.695312 -8.867188 13.140625 -8.410156 12.609375 -7.921875 C 12.078125 -7.441406 11.570312 -6.925781 11.09375 -6.375 Z M 11.09375 -6.375"/></g></g></g><g fill-opacity="0.3294" fill="#000000"><g transform="translate(143.043907, 71.524275)"><g><path d="M 22.546875 -10.171875 C 22.984375 -9.828125 23.253906 -9.410156 23.359375 -8.921875 C 23.460938 -8.441406 23.441406 -7.972656 23.296875 -7.515625 C 23.160156 -7.066406 22.925781 -6.691406 22.59375 -6.390625 C 22.257812 -6.097656 21.878906 -5.929688 21.453125 -5.890625 C 21.023438 -5.859375 20.597656 -6.023438 20.171875 -6.390625 C 19.429688 -6.984375 18.664062 -7.566406 17.875 -8.140625 C 16.59375 -6.359375 15.316406 -4.582031 14.046875 -2.8125 C 12.773438 -1.039062 11.5 0.726562 10.21875 2.5 C 9.894531 2.976562 9.5 3.273438 9.03125 3.390625 C 8.5625 3.515625 8.109375 3.503906 7.671875 3.359375 C 7.234375 3.210938 6.859375 2.976562 6.546875 2.65625 C 6.234375 2.332031 6.050781 1.945312 6 1.5 C 5.945312 1.050781 6.082031 0.585938 6.40625 0.109375 C 7.6875 -1.660156 8.96875 -3.441406 10.25 -5.234375 C 11.53125 -7.023438 12.8125 -8.800781 14.09375 -10.5625 C 13.3125 -11.03125 12.535156 -11.445312 11.765625 -11.8125 C 11.253906 -12.09375 10.921875 -12.4375 10.765625 -12.84375 C 10.609375 -13.257812 10.597656 -13.679688 10.734375 -14.109375 C 10.878906 -14.535156 11.125 -14.910156 11.46875 -15.234375 C 11.8125 -15.554688 12.210938 -15.765625 12.671875 -15.859375 C 13.140625 -15.960938 13.632812 -15.882812 14.15625 -15.625 C 17.164062 -14.144531 19.960938 -12.328125 22.546875 -10.171875 Z M 22.546875 -10.171875"/></g></g></g><g fill-opacity="0.3294" fill="#000000"><g transform="translate(156.166569, 79.627241)"><g><path d="M 13.4375 4 C 13.84375 4.414062 14.066406 4.859375 14.109375 5.328125 C 14.148438 5.796875 14.050781 6.226562 13.8125 6.625 C 13.582031 7.019531 13.273438 7.34375 12.890625 7.59375 C 12.503906 7.851562 12.082031 7.960938 11.625 7.921875 C 11.175781 7.890625 10.753906 7.660156 10.359375 7.234375 C 9.398438 6.265625 8.40625 5.335938 7.375 4.453125 C 6.351562 3.566406 5.269531 2.734375 4.125 1.953125 C 3.769531 1.722656 3.476562 1.394531 3.25 0.96875 C 3.03125 0.539062 2.921875 0.0976562 2.921875 -0.359375 C 2.929688 -0.816406 3.148438 -1.210938 3.578125 -1.546875 C 5.734375 -3.328125 7.910156 -5.078125 10.109375 -6.796875 C 12.304688 -8.515625 14.523438 -10.195312 16.765625 -11.84375 C 17.046875 -12.050781 17.332031 -12.179688 17.625 -12.234375 C 17.9375 -12.335938 18.265625 -12.347656 18.609375 -12.265625 C 18.953125 -12.191406 19.296875 -12.015625 19.640625 -11.734375 C 21.242188 -10.304688 22.773438 -8.789062 24.234375 -7.1875 C 24.617188 -6.75 24.828125 -6.289062 24.859375 -5.8125 C 24.890625 -5.332031 24.789062 -4.894531 24.5625 -4.5 C 24.332031 -4.101562 24.023438 -3.78125 23.640625 -3.53125 C 23.253906 -3.289062 22.835938 -3.1875 22.390625 -3.21875 C 21.953125 -3.257812 21.535156 -3.492188 21.140625 -3.921875 C 20.148438 -5.015625 19.09375 -6.09375 17.96875 -7.15625 C 17.488281 -6.800781 17.007812 -6.445312 16.53125 -6.09375 C 16.0625 -5.75 15.601562 -5.394531 15.15625 -5.03125 C 15.738281 -4.445312 16.285156 -3.875 16.796875 -3.3125 C 17.171875 -2.84375 17.390625 -2.3125 17.453125 -1.71875 C 17.515625 -1.132812 17.320312 -0.609375 16.875 -0.140625 C 16.601562 0.140625 16.269531 0.335938 15.875 0.453125 C 15.476562 0.578125 15.078125 0.597656 14.671875 0.515625 C 14.273438 0.441406 13.953125 0.253906 13.703125 -0.046875 C 13.023438 -0.816406 12.3125 -1.550781 11.5625 -2.25 C 11.125 -1.894531 10.675781 -1.539062 10.21875 -1.1875 C 9.769531 -0.832031 9.316406 -0.46875 8.859375 -0.09375 C 9.660156 0.53125 10.441406 1.175781 11.203125 1.84375 C 11.972656 2.519531 12.71875 3.238281 13.4375 4 Z M 13.4375 4"/></g></g></g><g fill-opacity="0.3294" fill="#000000"><g transform="translate(166.765619, 89.477223)"><g><path d="M 17.078125 1.546875 C 17.117188 2.898438 16.828125 4.195312 16.203125 5.4375 C 15.578125 6.675781 14.664062 7.640625 13.46875 8.328125 C 12.414062 8.910156 11.335938 9.175781 10.234375 9.125 C 9.128906 9.070312 8.097656 8.78125 7.140625 8.25 C 6.179688 7.71875 5.363281 7.007812 4.6875 6.125 C 4.007812 5.25 3.539062 4.273438 3.28125 3.203125 C 3.03125 2.140625 3.082031 1.0625 3.4375 -0.03125 C 3.601562 -0.613281 3.875 -1 4.25 -1.1875 C 4.632812 -1.382812 5.046875 -1.453125 5.484375 -1.390625 C 5.921875 -1.328125 6.328125 -1.144531 6.703125 -0.84375 C 7.078125 -0.539062 7.347656 -0.164062 7.515625 0.28125 C 7.691406 0.726562 7.691406 1.226562 7.515625 1.78125 C 7.429688 2.03125 7.503906 2.34375 7.734375 2.71875 C 7.960938 3.09375 8.234375 3.4375 8.546875 3.75 C 8.867188 4.070312 9.113281 4.285156 9.28125 4.390625 C 9.675781 4.617188 10.09375 4.707031 10.53125 4.65625 C 10.976562 4.601562 11.367188 4.414062 11.703125 4.09375 C 12.128906 3.726562 12.394531 3.296875 12.5 2.796875 C 12.601562 2.304688 12.625 1.796875 12.5625 1.265625 C 12.5 0.734375 12.429688 0.203125 12.359375 -0.328125 C 12.285156 -0.867188 12.269531 -1.375 12.3125 -1.84375 C 12.445312 -3.164062 12.867188 -4.21875 13.578125 -5 C 14.296875 -5.789062 15.175781 -6.328125 16.21875 -6.609375 C 17.257812 -6.898438 18.347656 -6.972656 19.484375 -6.828125 C 20.617188 -6.679688 21.675781 -6.335938 22.65625 -5.796875 C 23.164062 -5.503906 23.503906 -5.132812 23.671875 -4.6875 C 23.847656 -4.25 23.894531 -3.800781 23.8125 -3.34375 C 23.726562 -2.882812 23.539062 -2.476562 23.25 -2.125 C 22.96875 -1.769531 22.617188 -1.535156 22.203125 -1.421875 C 21.785156 -1.316406 21.320312 -1.40625 20.8125 -1.6875 C 20.476562 -1.875 20.066406 -2.066406 19.578125 -2.265625 C 19.097656 -2.472656 18.613281 -2.582031 18.125 -2.59375 C 17.632812 -2.601562 17.242188 -2.394531 16.953125 -1.96875 C 16.753906 -1.695312 16.664062 -1.34375 16.6875 -0.90625 C 16.71875 -0.476562 16.785156 -0.0390625 16.890625 0.40625 C 16.992188 0.851562 17.054688 1.234375 17.078125 1.546875 Z M 17.078125 1.546875"/></g></g></g><g fill-opacity="1" fill="#ffbd59"><g transform="translate(44.627334, 100.346195)"><g><path d="M 5.390625 -24.234375 C 6.734375 -23.203125 8.019531 -22.101562 9.25 -20.9375 C 10.488281 -19.78125 11.71875 -18.625 12.9375 -17.46875 C 13.34375 -17.082031 13.582031 -16.648438 13.65625 -16.171875 C 13.726562 -15.691406 13.664062 -15.234375 13.46875 -14.796875 C 13.269531 -14.367188 12.988281 -14.015625 12.625 -13.734375 C 12.269531 -13.460938 11.875 -13.328125 11.4375 -13.328125 C 11 -13.328125 10.578125 -13.523438 10.171875 -13.921875 C 9.210938 -14.847656 8.234375 -15.804688 7.234375 -16.796875 C 6.234375 -17.785156 5.195312 -18.726562 4.125 -19.625 C 3.0625 -20.53125 1.9375 -21.300781 0.75 -21.9375 C 0.53125 -22.050781 0.296875 -22.144531 0.046875 -22.21875 C -0.203125 -22.289062 -0.421875 -22.394531 -0.609375 -22.53125 C -0.546875 -22.195312 -0.492188 -21.847656 -0.453125 -21.484375 C -0.421875 -21.117188 -0.367188 -20.8125 -0.296875 -20.5625 C -0.0234375 -19.769531 0.320312 -19.039062 0.75 -18.375 C 1.1875 -17.71875 1.679688 -17.09375 2.234375 -16.5 C 2.578125 -16.125 2.742188 -15.722656 2.734375 -15.296875 C 2.734375 -14.867188 2.613281 -14.46875 2.375 -14.09375 C 2.132812 -13.71875 1.820312 -13.414062 1.4375 -13.1875 C 1.050781 -12.957031 0.644531 -12.84375 0.21875 -12.84375 C -0.207031 -12.851562 -0.597656 -13.035156 -0.953125 -13.390625 C -1.347656 -13.753906 -1.753906 -14.117188 -2.171875 -14.484375 C -2.585938 -14.847656 -3.015625 -15.1875 -3.453125 -15.5 C -3.609375 -15.613281 -3.804688 -15.773438 -4.046875 -15.984375 C -4.296875 -16.191406 -4.550781 -16.382812 -4.8125 -16.5625 C -5.082031 -16.738281 -5.332031 -16.820312 -5.5625 -16.8125 C -5.613281 -16.789062 -5.644531 -16.804688 -5.65625 -16.859375 C -5.675781 -16.835938 -5.6875 -16.828125 -5.6875 -16.828125 C -5.6875 -16.828125 -5.691406 -16.820312 -5.703125 -16.8125 C -5.773438 -16.632812 -5.742188 -16.382812 -5.609375 -16.0625 C -5.472656 -15.75 -5.382812 -15.523438 -5.34375 -15.390625 C -5.195312 -14.992188 -5.019531 -14.601562 -4.8125 -14.21875 C -4.613281 -13.84375 -4.40625 -13.488281 -4.1875 -13.15625 C -3.1875 -11.519531 -2.003906 -10.039062 -0.640625 -8.71875 C 0.722656 -7.40625 2.117188 -6.113281 3.546875 -4.84375 C 3.972656 -4.457031 4.21875 -4.03125 4.28125 -3.5625 C 4.34375 -3.101562 4.28125 -2.660156 4.09375 -2.234375 C 3.914062 -1.816406 3.644531 -1.46875 3.28125 -1.1875 C 2.914062 -0.914062 2.507812 -0.769531 2.0625 -0.75 C 1.625 -0.726562 1.191406 -0.914062 0.765625 -1.3125 C -0.421875 -2.363281 -1.585938 -3.425781 -2.734375 -4.5 C -3.890625 -5.582031 -4.960938 -6.734375 -5.953125 -7.953125 C -6.566406 -8.679688 -7.175781 -9.488281 -7.78125 -10.375 C -8.394531 -11.269531 -8.921875 -12.203125 -9.359375 -13.171875 C -9.796875 -14.140625 -10.070312 -15.117188 -10.1875 -16.109375 C -10.28125 -17.015625 -10.140625 -17.890625 -9.765625 -18.734375 C -9.398438 -19.578125 -8.851562 -20.25 -8.125 -20.75 C -7.394531 -21.25 -6.53125 -21.46875 -5.53125 -21.40625 C -5.476562 -21.375 -5.414062 -21.359375 -5.34375 -21.359375 C -5.269531 -21.359375 -5.207031 -21.351562 -5.15625 -21.34375 C -5.34375 -22.21875 -5.378906 -23.050781 -5.265625 -23.84375 C -5.160156 -24.644531 -4.863281 -25.320312 -4.375 -25.875 C -3.894531 -26.4375 -3.148438 -26.8125 -2.140625 -27 C -1.210938 -27.164062 -0.304688 -27.117188 0.578125 -26.859375 C 1.460938 -26.597656 2.3125 -26.222656 3.125 -25.734375 C 3.9375 -25.253906 4.691406 -24.753906 5.390625 -24.234375 Z M 5.390625 -24.234375"/></g></g></g><g fill-opacity="1" fill="#5170ff"><g transform="translate(58.045285, 83.434213)"><g><path d="M 4.15625 -19.921875 C 5.425781 -18.378906 6.691406 -16.832031 7.953125 -15.28125 C 9.210938 -13.738281 10.484375 -12.195312 11.765625 -10.65625 C 12.128906 -10.207031 12.300781 -9.753906 12.28125 -9.296875 C 12.269531 -8.835938 12.117188 -8.429688 11.828125 -8.078125 C 11.546875 -7.722656 11.191406 -7.453125 10.765625 -7.265625 C 10.335938 -7.078125 9.894531 -7.019531 9.4375 -7.09375 C 8.988281 -7.175781 8.582031 -7.441406 8.21875 -7.890625 C 7.832031 -8.347656 7.453125 -8.804688 7.078125 -9.265625 C 6.703125 -9.734375 6.316406 -10.203125 5.921875 -10.671875 L 2.296875 -8.03125 C 2.617188 -7.34375 2.957031 -6.65625 3.3125 -5.96875 C 3.675781 -5.28125 4.035156 -4.597656 4.390625 -3.921875 C 4.660156 -3.410156 4.738281 -2.945312 4.625 -2.53125 C 4.507812 -2.113281 4.269531 -1.765625 3.90625 -1.484375 C 3.539062 -1.203125 3.117188 -1.023438 2.640625 -0.953125 C 2.171875 -0.890625 1.710938 -0.953125 1.265625 -1.140625 C 0.828125 -1.335938 0.476562 -1.6875 0.21875 -2.1875 C -0.695312 -3.957031 -1.566406 -5.738281 -2.390625 -7.53125 C -3.210938 -9.320312 -3.863281 -11.179688 -4.34375 -13.109375 C -4.570312 -14.078125 -4.757812 -15.160156 -4.90625 -16.359375 C -5.0625 -17.554688 -5.09375 -18.738281 -5 -19.90625 C -4.914062 -21.070312 -4.628906 -22.113281 -4.140625 -23.03125 C -3.671875 -23.882812 -3.140625 -24.390625 -2.546875 -24.546875 C -1.953125 -24.710938 -1.335938 -24.640625 -0.703125 -24.328125 C -0.0664062 -24.023438 0.554688 -23.601562 1.171875 -23.0625 C 1.785156 -22.53125 2.347656 -21.972656 2.859375 -21.390625 C 3.378906 -20.804688 3.8125 -20.316406 4.15625 -19.921875 Z M 0.375 -12.796875 C 0.40625 -12.710938 0.429688 -12.628906 0.453125 -12.546875 C 0.472656 -12.460938 0.492188 -12.378906 0.515625 -12.296875 C 0.953125 -12.617188 1.378906 -12.929688 1.796875 -13.234375 C 2.222656 -13.535156 2.644531 -13.84375 3.0625 -14.15625 C 2.664062 -14.644531 2.257812 -15.140625 1.84375 -15.640625 C 1.4375 -16.140625 1.023438 -16.644531 0.609375 -17.15625 C 0.429688 -17.351562 0.25 -17.566406 0.0625 -17.796875 C -0.113281 -18.023438 -0.289062 -18.253906 -0.46875 -18.484375 C -0.488281 -17.960938 -0.476562 -17.476562 -0.4375 -17.03125 C -0.382812 -16.3125 -0.289062 -15.597656 -0.15625 -14.890625 C -0.0195312 -14.179688 0.15625 -13.484375 0.375 -12.796875 Z M 0.375 -12.796875"/></g></g></g><g fill-opacity="1" fill="#ff5757"><g transform="translate(70.070616, 73.805947)"><g><path d="M 3.140625 -24.546875 C 3.660156 -24.734375 4.15625 -24.742188 4.625 -24.578125 C 5.09375 -24.421875 5.476562 -24.160156 5.78125 -23.796875 C 6.09375 -23.441406 6.289062 -23.039062 6.375 -22.59375 C 6.457031 -22.15625 6.398438 -21.742188 6.203125 -21.359375 C 6.003906 -20.972656 5.644531 -20.695312 5.125 -20.53125 C 4.21875 -20.21875 3.3125 -19.875 2.40625 -19.5 C 3.257812 -17.457031 4.109375 -15.429688 4.953125 -13.421875 C 5.796875 -11.421875 6.640625 -9.410156 7.484375 -7.390625 C 7.722656 -6.867188 7.769531 -6.375 7.625 -5.90625 C 7.476562 -5.445312 7.226562 -5.066406 6.875 -4.765625 C 6.519531 -4.472656 6.117188 -4.28125 5.671875 -4.1875 C 5.234375 -4.09375 4.8125 -4.140625 4.40625 -4.328125 C 4.007812 -4.515625 3.691406 -4.875 3.453125 -5.40625 C 2.597656 -7.425781 1.742188 -9.445312 0.890625 -11.46875 C 0.046875 -13.5 -0.789062 -15.523438 -1.625 -17.546875 C -2.4375 -17.128906 -3.195312 -16.679688 -3.90625 -16.203125 C -4.414062 -15.921875 -4.882812 -15.816406 -5.3125 -15.890625 C -5.738281 -15.972656 -6.097656 -16.1875 -6.390625 -16.53125 C -6.679688 -16.875 -6.875 -17.273438 -6.96875 -17.734375 C -7.070312 -18.203125 -7.039062 -18.660156 -6.875 -19.109375 C -6.71875 -19.554688 -6.394531 -19.929688 -5.90625 -20.234375 C -3.0625 -22.023438 -0.046875 -23.460938 3.140625 -24.546875 Z M 3.140625 -24.546875"/></g></g></g><g fill-opacity="1" fill="#f995c2"><g transform="translate(83.675441, 66.779094)"><g><path d="M 7.375 -23.484375 C 7.332031 -24.054688 7.453125 -24.515625 7.734375 -24.859375 C 8.023438 -25.203125 8.390625 -25.421875 8.828125 -25.515625 C 9.265625 -25.617188 9.707031 -25.609375 10.15625 -25.484375 C 10.613281 -25.359375 11.003906 -25.117188 11.328125 -24.765625 C 11.660156 -24.421875 11.835938 -23.953125 11.859375 -23.359375 C 12.140625 -17.753906 12.765625 -12.191406 13.734375 -6.671875 C 13.835938 -6.109375 13.769531 -5.617188 13.53125 -5.203125 C 13.300781 -4.785156 12.976562 -4.46875 12.5625 -4.25 C 12.144531 -4.03125 11.710938 -3.921875 11.265625 -3.921875 C 10.816406 -3.921875 10.414062 -4.054688 10.0625 -4.328125 C 9.71875 -4.609375 9.488281 -5.023438 9.375 -5.578125 C 9.207031 -6.515625 9.050781 -7.441406 8.90625 -8.359375 C 8.769531 -9.285156 8.640625 -10.210938 8.515625 -11.140625 L 4.53125 -10.15625 C 4.6875 -8.976562 4.835938 -7.796875 4.984375 -6.609375 C 5.140625 -5.421875 5.296875 -4.234375 5.453125 -3.046875 C 5.515625 -2.484375 5.421875 -1.992188 5.171875 -1.578125 C 4.929688 -1.160156 4.597656 -0.835938 4.171875 -0.609375 C 3.742188 -0.378906 3.304688 -0.265625 2.859375 -0.265625 C 2.410156 -0.273438 2.015625 -0.414062 1.671875 -0.6875 C 1.335938 -0.96875 1.144531 -1.390625 1.09375 -1.953125 C 0.863281 -3.597656 0.640625 -5.242188 0.421875 -6.890625 C 0.210938 -8.535156 0.00390625 -10.179688 -0.203125 -11.828125 C -0.296875 -12.617188 -0.390625 -13.40625 -0.484375 -14.1875 C -0.585938 -14.976562 -0.695312 -15.769531 -0.8125 -16.5625 C -0.894531 -17.269531 -1.007812 -18.003906 -1.15625 -18.765625 C -1.300781 -19.523438 -1.328125 -20.265625 -1.234375 -20.984375 C -1.171875 -21.566406 -0.96875 -22.023438 -0.625 -22.359375 C -0.289062 -22.691406 0.101562 -22.910156 0.5625 -23.015625 C 1.019531 -23.117188 1.46875 -23.109375 1.90625 -22.984375 C 2.351562 -22.859375 2.707031 -22.617188 2.96875 -22.265625 C 3.238281 -21.921875 3.328125 -21.46875 3.234375 -20.90625 C 3.171875 -20.195312 3.210938 -19.460938 3.359375 -18.703125 C 3.503906 -17.953125 3.613281 -17.238281 3.6875 -16.5625 C 3.738281 -16.238281 3.785156 -15.914062 3.828125 -15.59375 C 3.867188 -15.28125 3.90625 -14.96875 3.9375 -14.65625 L 7.96875 -15.65625 C 7.832031 -16.945312 7.710938 -18.25 7.609375 -19.5625 C 7.515625 -20.875 7.4375 -22.179688 7.375 -23.484375 Z M 7.375 -23.484375"/></g></g></g><g fill-opacity="1" fill="#ff5757"><g transform="translate(100.361076, 62.876828)"><g/></g></g><g fill-opacity="1" fill="#13bdab"><g transform="translate(107.610314, 61.392596)"><g><path d="M 23.46875 -8.09375 C 23.300781 -6.425781 23.046875 -4.757812 22.703125 -3.09375 C 22.359375 -1.425781 22.007812 0.226562 21.65625 1.875 C 21.53125 2.425781 21.285156 2.851562 20.921875 3.15625 C 20.554688 3.46875 20.132812 3.648438 19.65625 3.703125 C 19.1875 3.765625 18.742188 3.710938 18.328125 3.546875 C 17.910156 3.390625 17.582031 3.128906 17.34375 2.765625 C 17.113281 2.398438 17.0625 1.9375 17.1875 1.375 C 17.476562 0.0703125 17.78125 -1.257812 18.09375 -2.625 C 18.414062 -3.988281 18.679688 -5.363281 18.890625 -6.75 C 19.097656 -8.132812 19.160156 -9.503906 19.078125 -10.859375 C 19.066406 -11.085938 19.023438 -11.328125 18.953125 -11.578125 C 18.890625 -11.828125 18.867188 -12.070312 18.890625 -12.3125 C 18.628906 -12.082031 18.351562 -11.859375 18.0625 -11.640625 C 17.769531 -11.421875 17.535156 -11.210938 17.359375 -11.015625 C 16.835938 -10.367188 16.40625 -9.6875 16.0625 -8.96875 C 15.726562 -8.257812 15.445312 -7.507812 15.21875 -6.71875 C 15.082031 -6.238281 14.828125 -5.890625 14.453125 -5.671875 C 14.085938 -5.453125 13.679688 -5.34375 13.234375 -5.34375 C 12.796875 -5.351562 12.378906 -5.460938 11.984375 -5.671875 C 11.597656 -5.878906 11.289062 -6.164062 11.0625 -6.53125 C 10.84375 -6.90625 10.796875 -7.332031 10.921875 -7.8125 C 11.023438 -8.351562 11.117188 -8.894531 11.203125 -9.4375 C 11.296875 -9.976562 11.363281 -10.519531 11.40625 -11.0625 C 11.425781 -11.25 11.457031 -11.5 11.5 -11.8125 C 11.550781 -12.132812 11.582031 -12.457031 11.59375 -12.78125 C 11.601562 -13.101562 11.546875 -13.359375 11.421875 -13.546875 C 11.378906 -13.578125 11.367188 -13.613281 11.390625 -13.65625 C 11.367188 -13.65625 11.359375 -13.65625 11.359375 -13.65625 C 11.359375 -13.65625 11.347656 -13.65625 11.328125 -13.65625 C 11.148438 -13.632812 10.957031 -13.476562 10.75 -13.1875 C 10.550781 -12.90625 10.40625 -12.710938 10.3125 -12.609375 C 10.050781 -12.273438 9.8125 -11.921875 9.59375 -11.546875 C 9.382812 -11.179688 9.191406 -10.816406 9.015625 -10.453125 C 8.148438 -8.742188 7.507812 -6.960938 7.09375 -5.109375 C 6.675781 -3.265625 6.300781 -1.398438 5.96875 0.484375 C 5.875 1.046875 5.644531 1.472656 5.28125 1.765625 C 4.925781 2.066406 4.515625 2.25 4.046875 2.3125 C 3.585938 2.382812 3.148438 2.335938 2.734375 2.171875 C 2.316406 2.003906 1.976562 1.734375 1.71875 1.359375 C 1.46875 0.992188 1.394531 0.53125 1.5 -0.03125 C 1.78125 -1.59375 2.078125 -3.144531 2.390625 -4.6875 C 2.710938 -6.226562 3.132812 -7.742188 3.65625 -9.234375 C 3.957031 -10.140625 4.328125 -11.082031 4.765625 -12.0625 C 5.210938 -13.050781 5.734375 -13.984375 6.328125 -14.859375 C 6.921875 -15.742188 7.609375 -16.492188 8.390625 -17.109375 C 9.117188 -17.660156 9.9375 -18 10.84375 -18.125 C 11.757812 -18.257812 12.625 -18.144531 13.4375 -17.78125 C 14.25 -17.414062 14.878906 -16.796875 15.328125 -15.921875 C 15.335938 -15.859375 15.359375 -15.796875 15.390625 -15.734375 C 15.429688 -15.671875 15.460938 -15.617188 15.484375 -15.578125 C 16.128906 -16.179688 16.816406 -16.644531 17.546875 -16.96875 C 18.285156 -17.300781 19.019531 -17.40625 19.75 -17.28125 C 20.476562 -17.15625 21.191406 -16.710938 21.890625 -15.953125 C 22.515625 -15.253906 22.945312 -14.457031 23.1875 -13.5625 C 23.425781 -12.675781 23.550781 -11.757812 23.5625 -10.8125 C 23.582031 -9.863281 23.550781 -8.957031 23.46875 -8.09375 Z M 23.46875 -8.09375"/></g></g></g><g fill-opacity="1" fill="#004aad"><g transform="translate(129.045151, 63.970207)"><g><path d="M 19.15625 -6.890625 C 18.5 -4.992188 17.835938 -3.101562 17.171875 -1.21875 C 16.515625 0.65625 15.867188 2.546875 15.234375 4.453125 C 15.054688 4.992188 14.757812 5.375 14.34375 5.59375 C 13.9375 5.820312 13.507812 5.910156 13.0625 5.859375 C 12.625 5.816406 12.210938 5.65625 11.828125 5.375 C 11.441406 5.101562 11.164062 4.753906 11 4.328125 C 10.832031 3.898438 10.835938 3.414062 11.015625 2.875 C 11.203125 2.300781 11.394531 1.734375 11.59375 1.171875 C 11.789062 0.609375 11.992188 0.0390625 12.203125 -0.53125 L 8.046875 -2.25 C 7.628906 -1.613281 7.21875 -0.960938 6.8125 -0.296875 C 6.414062 0.359375 6.023438 1.023438 5.640625 1.703125 C 5.347656 2.179688 4.988281 2.484375 4.5625 2.609375 C 4.144531 2.734375 3.722656 2.710938 3.296875 2.546875 C 2.867188 2.390625 2.503906 2.125 2.203125 1.75 C 1.898438 1.382812 1.710938 0.960938 1.640625 0.484375 C 1.578125 0.015625 1.695312 -0.46875 2 -0.96875 C 3.007812 -2.675781 4.0625 -4.34375 5.15625 -5.96875 C 6.25 -7.601562 7.492188 -9.128906 8.890625 -10.546875 C 9.597656 -11.253906 10.421875 -11.984375 11.359375 -12.734375 C 12.296875 -13.492188 13.285156 -14.144531 14.328125 -14.6875 C 15.378906 -15.226562 16.425781 -15.523438 17.46875 -15.578125 C 18.4375 -15.628906 19.144531 -15.441406 19.59375 -15.015625 C 20.039062 -14.597656 20.300781 -14.035156 20.375 -13.328125 C 20.445312 -12.617188 20.410156 -11.863281 20.265625 -11.0625 C 20.128906 -10.257812 19.945312 -9.488281 19.71875 -8.75 C 19.5 -8.007812 19.3125 -7.390625 19.15625 -6.890625 Z M 11.09375 -6.375 C 11.039062 -6.3125 10.984375 -6.25 10.921875 -6.1875 C 10.867188 -6.125 10.8125 -6.0625 10.75 -6 C 11.238281 -5.78125 11.722656 -5.570312 12.203125 -5.375 C 12.691406 -5.175781 13.179688 -4.976562 13.671875 -4.78125 C 13.867188 -5.394531 14.078125 -6.003906 14.296875 -6.609375 C 14.515625 -7.222656 14.726562 -7.84375 14.9375 -8.46875 C 15 -8.71875 15.082031 -8.976562 15.1875 -9.25 C 15.289062 -9.53125 15.394531 -9.804688 15.5 -10.078125 C 15.050781 -9.816406 14.644531 -9.554688 14.28125 -9.296875 C 13.695312 -8.867188 13.140625 -8.410156 12.609375 -7.921875 C 12.078125 -7.441406 11.570312 -6.925781 11.09375 -6.375 Z M 11.09375 -6.375"/></g></g></g><g fill-opacity="1" fill="#c2dcff"><g transform="translate(143.542548, 69.178376)"><g><path d="M 22.546875 -10.171875 C 22.984375 -9.828125 23.253906 -9.410156 23.359375 -8.921875 C 23.460938 -8.441406 23.441406 -7.972656 23.296875 -7.515625 C 23.160156 -7.066406 22.925781 -6.691406 22.59375 -6.390625 C 22.257812 -6.097656 21.878906 -5.929688 21.453125 -5.890625 C 21.023438 -5.859375 20.597656 -6.023438 20.171875 -6.390625 C 19.429688 -6.984375 18.664062 -7.566406 17.875 -8.140625 C 16.59375 -6.359375 15.316406 -4.582031 14.046875 -2.8125 C 12.773438 -1.039062 11.5 0.726562 10.21875 2.5 C 9.894531 2.976562 9.5 3.273438 9.03125 3.390625 C 8.5625 3.515625 8.109375 3.503906 7.671875 3.359375 C 7.234375 3.210938 6.859375 2.976562 6.546875 2.65625 C 6.234375 2.332031 6.050781 1.945312 6 1.5 C 5.945312 1.050781 6.082031 0.585938 6.40625 0.109375 C 7.6875 -1.660156 8.96875 -3.441406 10.25 -5.234375 C 11.53125 -7.023438 12.8125 -8.800781 14.09375 -10.5625 C 13.3125 -11.03125 12.535156 -11.445312 11.765625 -11.8125 C 11.253906 -12.09375 10.921875 -12.4375 10.765625 -12.84375 C 10.609375 -13.257812 10.597656 -13.679688 10.734375 -14.109375 C 10.878906 -14.535156 11.125 -14.910156 11.46875 -15.234375 C 11.8125 -15.554688 12.210938 -15.765625 12.671875 -15.859375 C 13.140625 -15.960938 13.632812 -15.882812 14.15625 -15.625 C 17.164062 -14.144531 19.960938 -12.328125 22.546875 -10.171875 Z M 22.546875 -10.171875"/></g></g></g><g fill-opacity="1" fill="#5fa19f"><g transform="translate(156.665211, 77.281341)"><g><path d="M 13.4375 4 C 13.84375 4.414062 14.066406 4.859375 14.109375 5.328125 C 14.148438 5.796875 14.050781 6.226562 13.8125 6.625 C 13.582031 7.019531 13.273438 7.34375 12.890625 7.59375 C 12.503906 7.851562 12.082031 7.960938 11.625 7.921875 C 11.175781 7.890625 10.753906 7.660156 10.359375 7.234375 C 9.398438 6.265625 8.40625 5.335938 7.375 4.453125 C 6.351562 3.566406 5.269531 2.734375 4.125 1.953125 C 3.769531 1.722656 3.476562 1.394531 3.25 0.96875 C 3.03125 0.539062 2.921875 0.0976562 2.921875 -0.359375 C 2.929688 -0.816406 3.148438 -1.210938 3.578125 -1.546875 C 5.734375 -3.328125 7.910156 -5.078125 10.109375 -6.796875 C 12.304688 -8.515625 14.523438 -10.195312 16.765625 -11.84375 C 17.046875 -12.050781 17.332031 -12.179688 17.625 -12.234375 C 17.9375 -12.335938 18.265625 -12.347656 18.609375 -12.265625 C 18.953125 -12.191406 19.296875 -12.015625 19.640625 -11.734375 C 21.242188 -10.304688 22.773438 -8.789062 24.234375 -7.1875 C 24.617188 -6.75 24.828125 -6.289062 24.859375 -5.8125 C 24.890625 -5.332031 24.789062 -4.894531 24.5625 -4.5 C 24.332031 -4.101562 24.023438 -3.78125 23.640625 -3.53125 C 23.253906 -3.289062 22.835938 -3.1875 22.390625 -3.21875 C 21.953125 -3.257812 21.535156 -3.492188 21.140625 -3.921875 C 20.148438 -5.015625 19.09375 -6.09375 17.96875 -7.15625 C 17.488281 -6.800781 17.007812 -6.445312 16.53125 -6.09375 C 16.0625 -5.75 15.601562 -5.394531 15.15625 -5.03125 C 15.738281 -4.445312 16.285156 -3.875 16.796875 -3.3125 C 17.171875 -2.84375 17.390625 -2.3125 17.453125 -1.71875 C 17.515625 -1.132812 17.320312 -0.609375 16.875 -0.140625 C 16.601562 0.140625 16.269531 0.335938 15.875 0.453125 C 15.476562 0.578125 15.078125 0.597656 14.671875 0.515625 C 14.273438 0.441406 13.953125 0.253906 13.703125 -0.046875 C 13.023438 -0.816406 12.3125 -1.550781 11.5625 -2.25 C 11.125 -1.894531 10.675781 -1.539062 10.21875 -1.1875 C 9.769531 -0.832031 9.316406 -0.46875 8.859375 -0.09375 C 9.660156 0.53125 10.441406 1.175781 11.203125 1.84375 C 11.972656 2.519531 12.71875 3.238281 13.4375 4 Z M 13.4375 4"/></g></g></g><g fill-opacity="1" fill="#cc0000"><g transform="translate(167.264274, 87.131321)"><g><path d="M 17.078125 1.546875 C 17.117188 2.898438 16.828125 4.195312 16.203125 5.4375 C 15.578125 6.675781 14.664062 7.640625 13.46875 8.328125 C 12.414062 8.910156 11.335938 9.175781 10.234375 9.125 C 9.128906 9.070312 8.097656 8.78125 7.140625 8.25 C 6.179688 7.71875 5.363281 7.007812 4.6875 6.125 C 4.007812 5.25 3.539062 4.273438 3.28125 3.203125 C 3.03125 2.140625 3.082031 1.0625 3.4375 -0.03125 C 3.601562 -0.613281 3.875 -1 4.25 -1.1875 C 4.632812 -1.382812 5.046875 -1.453125 5.484375 -1.390625 C 5.921875 -1.328125 6.328125 -1.144531 6.703125 -0.84375 C 7.078125 -0.539062 7.347656 -0.164062 7.515625 0.28125 C 7.691406 0.726562 7.691406 1.226562 7.515625 1.78125 C 7.429688 2.03125 7.503906 2.34375 7.734375 2.71875 C 7.960938 3.09375 8.234375 3.4375 8.546875 3.75 C 8.867188 4.070312 9.113281 4.285156 9.28125 4.390625 C 9.675781 4.617188 10.09375 4.707031 10.53125 4.65625 C 10.976562 4.601562 11.367188 4.414062 11.703125 4.09375 C 12.128906 3.726562 12.394531 3.296875 12.5 2.796875 C 12.601562 2.304688 12.625 1.796875 12.5625 1.265625 C 12.5 0.734375 12.429688 0.203125 12.359375 -0.328125 C 12.285156 -0.867188 12.269531 -1.375 12.3125 -1.84375 C 12.445312 -3.164062 12.867188 -4.21875 13.578125 -5 C 14.296875 -5.789062 15.175781 -6.328125 16.21875 -6.609375 C 17.257812 -6.898438 18.347656 -6.972656 19.484375 -6.828125 C 20.617188 -6.679688 21.675781 -6.335938 22.65625 -5.796875 C 23.164062 -5.503906 23.503906 -5.132812 23.671875 -4.6875 C 23.847656 -4.25 23.894531 -3.800781 23.8125 -3.34375 C 23.726562 -2.882812 23.539062 -2.476562 23.25 -2.125 C 22.96875 -1.769531 22.617188 -1.535156 22.203125 -1.421875 C 21.785156 -1.316406 21.320312 -1.40625 20.8125 -1.6875 C 20.476562 -1.875 20.066406 -2.066406 19.578125 -2.265625 C 19.097656 -2.472656 18.613281 -2.582031 18.125 -2.59375 C 17.632812 -2.601562 17.242188 -2.394531 16.953125 -1.96875 C 16.753906 -1.695312 16.664062 -1.34375 16.6875 -0.90625 C 16.71875 -0.476562 16.785156 -0.0390625 16.890625 0.40625 C 16.992188 0.851562 17.054688 1.234375 17.078125 1.546875 Z M 17.078125 1.546875"/></g></g></g></svg>