<svg xmlns="http://www.w3.org/2000/svg" xmlns:xlink="http://www.w3.org/1999/xlink" width="600" zoomAndPan="magnify" viewBox="0 0 450 449.999984" height="600" preserveAspectRatio="xMidYMid meet" version="1.0"><defs><clipPath id="346f2586f5"><path d="M 169.378906 143.734375 L 284.285156 143.734375 L 284.285156 258.636719 L 169.378906 258.636719 Z M 169.378906 143.734375 " clip-rule="nonzero"/></clipPath><clipPath id="d05ad29a49"><path d="M 226.832031 143.734375 C 195.101562 143.734375 169.378906 169.453125 169.378906 201.183594 C 169.378906 232.914062 195.101562 258.636719 226.832031 258.636719 C 258.5625 258.636719 284.285156 232.914062 284.285156 201.183594 C 284.285156 169.453125 258.5625 143.734375 226.832031 143.734375 Z M 226.832031 143.734375 " clip-rule="nonzero"/></clipPath><clipPath id="73f49ef110"><path d="M 226.832031 143.734375 C 195.101562 143.734375 169.378906 169.453125 169.378906 201.183594 C 169.378906 232.914062 195.101562 258.636719 226.832031 258.636719 C 258.5625 258.636719 284.285156 232.914062 284.285156 201.183594 C 284.285156 169.453125 258.5625 143.734375 226.832031 143.734375 Z M 226.832031 143.734375 " clip-rule="nonzero"/></clipPath><clipPath id="6232658456"><path d="M 200.691406 193.867188 L 254.214844 193.867188 L 254.214844 210.367188 L 200.691406 210.367188 Z M 200.691406 193.867188 " clip-rule="nonzero"/></clipPath><clipPath id="76859793b1"><path d="M 219 202.015625 L 239.132812 202.015625 L 239.132812 216.453125 L 219 216.453125 Z M 219 202.015625 " clip-rule="nonzero"/></clipPath><clipPath id="b8943bc5c4"><path d="M 196.058594 205.976562 L 204.09375 205.976562 L 204.09375 213.675781 L 196.058594 213.675781 Z M 196.058594 205.976562 " clip-rule="nonzero"/></clipPath><clipPath id="8227fcc993"><path d="M 200.074219 205.976562 C 197.855469 205.976562 196.058594 207.699219 196.058594 209.828125 C 196.058594 211.949219 197.855469 213.675781 200.074219 213.675781 C 202.289062 213.675781 204.085938 211.949219 204.085938 209.828125 C 204.085938 207.699219 202.289062 205.976562 200.074219 205.976562 Z M 200.074219 205.976562 " clip-rule="nonzero"/></clipPath><clipPath id="d0170066a4"><path d="M 200.074219 205.976562 C 197.855469 205.976562 196.058594 207.699219 196.058594 209.828125 C 196.058594 211.949219 197.855469 213.675781 200.074219 213.675781 C 202.289062 213.675781 204.085938 211.949219 204.085938 209.828125 C 204.085938 207.699219 202.289062 205.976562 200.074219 205.976562 Z M 200.074219 205.976562 " clip-rule="nonzero"/></clipPath><clipPath id="bbcb7217e6"><path d="M 249.628906 205.976562 L 257.660156 205.976562 L 257.660156 213.675781 L 249.628906 213.675781 Z M 249.628906 205.976562 " clip-rule="nonzero"/></clipPath><clipPath id="86a4b12bcc"><path d="M 253.640625 205.976562 C 251.425781 205.976562 249.628906 207.699219 249.628906 209.828125 C 249.628906 211.949219 251.425781 213.675781 253.640625 213.675781 C 255.859375 213.675781 257.65625 211.949219 257.65625 209.828125 C 257.65625 207.699219 255.859375 205.976562 253.640625 205.976562 Z M 253.640625 205.976562 " clip-rule="nonzero"/></clipPath><clipPath id="bec5b6957d"><path d="M 253.640625 205.976562 C 251.425781 205.976562 249.628906 207.699219 249.628906 209.828125 C 249.628906 211.949219 251.425781 213.675781 253.640625 213.675781 C 255.859375 213.675781 257.65625 211.949219 257.65625 209.828125 C 257.65625 207.699219 255.859375 205.976562 253.640625 205.976562 Z M 253.640625 205.976562 " clip-rule="nonzero"/></clipPath><clipPath id="037bef7c18"><path d="M 110.066406 158 L 213 158 L 213 262 L 110.066406 262 Z M 110.066406 158 " clip-rule="nonzero"/></clipPath><clipPath id="b83fd26684"><path d="M 236 156 L 339.566406 156 L 339.566406 259 L 236 259 Z M 236 156 " clip-rule="nonzero"/></clipPath><clipPath id="fa9a3d1927"><path d="M 308.269531 220.105469 L 314.691406 220.105469 L 314.691406 226.527344 L 308.269531 226.527344 Z M 308.269531 220.105469 " clip-rule="nonzero"/></clipPath><clipPath id="81733f2a6e"><path d="M 311.484375 220.105469 C 309.710938 220.105469 308.269531 221.542969 308.269531 223.320312 C 308.269531 225.089844 309.710938 226.527344 311.484375 226.527344 C 313.253906 226.527344 314.691406 225.089844 314.691406 223.320312 C 314.691406 221.542969 313.253906 220.105469 311.484375 220.105469 Z M 311.484375 220.105469 " clip-rule="nonzero"/></clipPath><clipPath id="967ccc5ce7"><path d="M 311.484375 220.105469 C 309.710938 220.105469 308.269531 221.542969 308.269531 223.320312 C 308.269531 225.089844 309.710938 226.527344 311.484375 226.527344 C 313.253906 226.527344 314.691406 225.089844 314.691406 223.320312 C 314.691406 221.542969 313.253906 220.105469 311.484375 220.105469 Z M 311.484375 220.105469 " clip-rule="nonzero"/></clipPath><clipPath id="449feb50f6"><path d="M 281.851562 294.441406 L 288.105469 294.441406 L 288.105469 300.691406 L 281.851562 300.691406 Z M 281.851562 294.441406 " clip-rule="nonzero"/></clipPath><clipPath id="9a5674e67a"><path d="M 284.980469 294.441406 C 283.253906 294.441406 281.851562 295.839844 281.851562 297.566406 C 281.851562 299.292969 283.253906 300.691406 284.980469 300.691406 C 286.707031 300.691406 288.105469 299.292969 288.105469 297.566406 C 288.105469 295.839844 286.707031 294.441406 284.980469 294.441406 Z M 284.980469 294.441406 " clip-rule="nonzero"/></clipPath><clipPath id="62edb0014f"><path d="M 284.980469 294.441406 C 283.253906 294.441406 281.851562 295.839844 281.851562 297.566406 C 281.851562 299.292969 283.253906 300.691406 284.980469 300.691406 C 286.707031 300.691406 288.105469 299.292969 288.105469 297.566406 C 288.105469 295.839844 286.707031 294.441406 284.980469 294.441406 Z M 284.980469 294.441406 " clip-rule="nonzero"/></clipPath><clipPath id="22f4143ce5"><path d="M 164.023438 291.386719 L 170.269531 291.386719 L 170.269531 297.636719 L 164.023438 297.636719 Z M 164.023438 291.386719 " clip-rule="nonzero"/></clipPath><clipPath id="8b35ffc995"><path d="M 167.144531 291.386719 C 165.421875 291.386719 164.023438 292.785156 164.023438 294.511719 C 164.023438 296.238281 165.421875 297.636719 167.144531 297.636719 C 168.871094 297.636719 170.269531 296.238281 170.269531 294.511719 C 170.269531 292.785156 168.871094 291.386719 167.144531 291.386719 Z M 167.144531 291.386719 " clip-rule="nonzero"/></clipPath><clipPath id="13bfd290c1"><path d="M 167.144531 291.386719 C 165.421875 291.386719 164.023438 292.785156 164.023438 294.511719 C 164.023438 296.238281 165.421875 297.636719 167.144531 297.636719 C 168.871094 297.636719 170.269531 296.238281 170.269531 294.511719 C 170.269531 292.785156 168.871094 291.386719 167.144531 291.386719 Z M 167.144531 291.386719 " clip-rule="nonzero"/></clipPath><clipPath id="9b73459962"><path d="M 135.042969 223.007812 L 141.25 223.007812 L 141.25 229.214844 L 135.042969 229.214844 Z M 135.042969 223.007812 " clip-rule="nonzero"/></clipPath><clipPath id="c5f7803cde"><path d="M 138.148438 223.007812 C 136.429688 223.007812 135.042969 224.398438 135.042969 226.113281 C 135.042969 227.828125 136.429688 229.214844 138.148438 229.214844 C 139.859375 229.214844 141.25 227.828125 141.25 226.113281 C 141.25 224.398438 139.859375 223.007812 138.148438 223.007812 Z M 138.148438 223.007812 " clip-rule="nonzero"/></clipPath><clipPath id="dbe27309f8"><path d="M 138.148438 223.007812 C 136.429688 223.007812 135.042969 224.398438 135.042969 226.113281 C 135.042969 227.828125 136.429688 229.214844 138.148438 229.214844 C 139.859375 229.214844 141.25 227.828125 141.25 226.113281 C 141.25 224.398438 139.859375 223.007812 138.148438 223.007812 Z M 138.148438 223.007812 " clip-rule="nonzero"/></clipPath><clipPath id="f581e54464"><path d="M 237.066406 227.589844 L 238.996094 227.589844 L 238.996094 229.265625 L 237.066406 229.265625 Z M 237.066406 227.589844 " clip-rule="nonzero"/></clipPath><clipPath id="3eb3504d7c"><path d="M 238.984375 228.191406 C 238.109375 229.585938 237.335938 229.328125 237.128906 229.015625 C 236.976562 228.757812 237.128906 227.882812 237.386719 227.675781 C 237.644531 227.46875 238.726562 227.78125 238.726562 227.78125 " clip-rule="nonzero"/></clipPath><clipPath id="5f760669c9"><path d="M 238.984375 228.191406 C 238.109375 229.585938 237.335938 229.328125 237.128906 229.015625 C 236.976562 228.757812 237.128906 227.882812 237.386719 227.675781 C 237.644531 227.46875 238.726562 227.78125 238.726562 227.78125 " clip-rule="nonzero"/></clipPath><clipPath id="c5925de809"><path d="M 269.445312 229.1875 L 271.375 229.1875 L 271.375 230.886719 L 269.445312 230.886719 Z M 269.445312 229.1875 " clip-rule="nonzero"/></clipPath><clipPath id="028956af95"><path d="M 271.367188 229.789062 C 270.492188 231.183594 269.71875 230.925781 269.511719 230.667969 C 269.355469 230.359375 269.511719 229.53125 269.769531 229.273438 C 270.027344 229.070312 271.109375 229.378906 271.109375 229.378906 " clip-rule="nonzero"/></clipPath><clipPath id="ea0aeed0e6"><path d="M 271.367188 229.789062 C 270.492188 231.183594 269.71875 230.925781 269.511719 230.667969 C 269.355469 230.359375 269.511719 229.53125 269.769531 229.273438 C 270.027344 229.070312 271.109375 229.378906 271.109375 229.378906 " clip-rule="nonzero"/></clipPath></defs><g clip-path="url(#346f2586f5)"><g clip-path="url(#d05ad29a49)"><g clip-path="url(#73f49ef110)"><path fill="#fde444" d="M 169.378906 143.734375 L 284.285156 143.734375 L 284.285156 258.636719 L 169.378906 258.636719 Z M 169.378906 143.734375 " fill-opacity="1" fill-rule="nonzero"/></g></g></g><g clip-path="url(#6232658456)"><path fill="#000000" d="M 219.898438 201.542969 C 217.71875 204.4375 214.398438 206.292969 210.789062 206.40625 C 207.234375 206.523438 203.742188 204.902344 201.449219 202.179688 C 200.53125 201.019531 202.136719 199.394531 203.054688 200.554688 C 204.886719 202.757812 207.636719 204.148438 210.558594 204.089844 C 213.367188 204.03125 216.171875 202.640625 217.890625 200.382812 C 218.292969 199.859375 218.867188 199.628906 219.4375 199.976562 C 219.953125 200.265625 220.242188 201.019531 219.898438 201.542969 Z M 252.726562 199.976562 C 252.152344 199.628906 251.523438 199.917969 251.179688 200.382812 C 249.460938 202.640625 246.652344 204.089844 243.84375 204.089844 C 240.921875 204.148438 238.230469 202.757812 236.339844 200.554688 C 235.367188 199.394531 233.761719 201.078125 234.734375 202.179688 C 237.027344 204.902344 240.523438 206.523438 244.074219 206.40625 C 247.683594 206.292969 251.007812 204.4375 253.183594 201.542969 C 253.527344 201.019531 253.242188 200.265625 252.726562 199.976562 Z M 253.8125 186.941406 C 250.433594 182.769531 245.164062 180.394531 239.777344 180.914062 C 238.289062 181.089844 238.402344 183.40625 239.890625 183.230469 C 244.359375 182.769531 249.058594 184.5625 251.867188 188.15625 C 252.265625 188.621094 252.898438 188.910156 253.46875 188.503906 C 253.929688 188.273438 254.214844 187.460938 253.8125 186.941406 Z M 232.730469 212.199219 L 222.074219 212.199219 C 220.585938 212.199219 220.585938 214.519531 222.074219 214.519531 L 232.730469 214.519531 C 234.21875 214.519531 234.21875 212.199219 232.730469 212.199219 Z M 214.742188 183.058594 C 215.371094 183.175781 215.945312 182.886719 216.171875 182.25 C 216.34375 181.726562 216 180.914062 215.371094 180.796875 C 210.101562 179.988281 204.601562 181.898438 201.046875 186.015625 C 200.074219 187.113281 201.679688 188.792969 202.652344 187.636719 C 205.574219 184.21875 210.214844 182.363281 214.742188 183.058594 Z M 214.742188 183.058594 " fill-opacity="1" fill-rule="nonzero"/></g><g clip-path="url(#76859793b1)"><path fill="#000000" d="M 236.820312 208.601562 C 234.808594 211.238281 231.742188 212.929688 228.40625 213.03125 C 225.125 213.136719 221.894531 211.660156 219.777344 209.183594 C 218.929688 208.125 220.414062 206.648438 221.261719 207.703125 C 222.953125 209.707031 225.492188 210.976562 228.191406 210.921875 C 230.789062 210.871094 233.382812 209.605469 234.96875 207.546875 C 235.339844 207.070312 235.867188 206.859375 236.398438 207.175781 C 236.871094 207.441406 237.136719 208.125 236.820312 208.601562 Z M 267.148438 207.175781 C 266.617188 206.859375 266.035156 207.125 265.71875 207.546875 C 264.132812 209.605469 261.535156 210.921875 258.945312 210.921875 C 256.246094 210.976562 253.757812 209.707031 252.011719 207.703125 C 251.113281 206.648438 249.628906 208.179688 250.527344 209.183594 C 252.644531 211.660156 255.875 213.136719 259.15625 213.03125 C 262.488281 212.929688 265.558594 211.238281 267.570312 208.601562 C 267.886719 208.125 267.625 207.441406 267.148438 207.175781 Z M 268.152344 195.304688 C 265.03125 191.503906 260.160156 189.34375 255.183594 189.816406 C 253.808594 189.976562 253.914062 192.085938 255.292969 191.925781 C 259.421875 191.503906 263.761719 193.140625 266.355469 196.414062 C 266.726562 196.835938 267.304688 197.101562 267.835938 196.730469 C 268.257812 196.519531 268.523438 195.78125 268.152344 195.304688 Z M 248.675781 218.308594 L 238.832031 218.308594 C 237.457031 218.308594 237.457031 220.421875 238.832031 220.421875 L 248.675781 220.421875 C 250.054688 220.421875 250.054688 218.308594 248.675781 218.308594 Z M 232.058594 191.769531 C 232.640625 191.875 233.167969 191.609375 233.382812 191.03125 C 233.539062 190.558594 233.222656 189.816406 232.640625 189.710938 C 227.769531 188.972656 222.691406 190.714844 219.410156 194.460938 C 218.507812 195.464844 219.992188 196.992188 220.890625 195.941406 C 223.589844 192.824219 227.875 191.136719 232.058594 191.769531 Z M 232.058594 191.769531 " fill-opacity="1" fill-rule="nonzero"/></g><g clip-path="url(#b8943bc5c4)"><g clip-path="url(#8227fcc993)"><g clip-path="url(#d0170066a4)"><path fill="#fe89a4" d="M 196.058594 205.976562 L 204.09375 205.976562 L 204.09375 213.675781 L 196.058594 213.675781 Z M 196.058594 205.976562 " fill-opacity="1" fill-rule="nonzero"/></g></g></g><g clip-path="url(#bbcb7217e6)"><g clip-path="url(#86a4b12bcc)"><g clip-path="url(#bec5b6957d)"><path fill="#fe89a4" d="M 249.628906 205.976562 L 257.660156 205.976562 L 257.660156 213.675781 L 249.628906 213.675781 Z M 249.628906 205.976562 " fill-opacity="1" fill-rule="nonzero"/></g></g></g><g clip-path="url(#037bef7c18)"><path stroke-linecap="butt" transform="matrix(0.395552, -0.330768, 0.330768, 0.395552, 132.353698, 220.839036)" fill="none" stroke-linejoin="miter" d="M 2.059555 15.05611 C 35.14468 2.983746 68.247114 2.983756 101.333891 15.048324 " stroke="#fde444" stroke-width="12" stroke-opacity="1" stroke-miterlimit="4"/></g><g clip-path="url(#b83fd26684)"><path stroke-linecap="butt" transform="matrix(0.402685, 0.322046, -0.322046, 0.402685, 275.522799, 184.485353)" fill="none" stroke-linejoin="miter" d="M 2.054917 15.048731 C 35.150274 2.976424 68.243755 2.982746 101.342461 15.052318 " stroke="#fde444" stroke-width="12" stroke-opacity="1" stroke-miterlimit="4"/></g><path stroke-linecap="butt" transform="matrix(0.343181, -0.384832, 0.384832, 0.343181, 160.80691, 289.957713)" fill="none" stroke-linejoin="miter" d="M 1.593889 15.057301 C 45.365295 2.983121 89.132818 2.981382 132.896458 15.052082 " stroke="#fde444" stroke-width="12" stroke-opacity="1" stroke-miterlimit="4"/><path stroke-linecap="butt" transform="matrix(0.328272, 0.397626, -0.397626, 0.328272, 247.332351, 239.781428)" fill="none" stroke-linejoin="miter" d="M 1.593279 15.050043 C 45.362811 2.979289 89.134454 2.983891 132.907188 15.053183 " stroke="#fde444" stroke-width="12" stroke-opacity="1" stroke-miterlimit="4"/><g clip-path="url(#fa9a3d1927)"><g clip-path="url(#81733f2a6e)"><g clip-path="url(#967ccc5ce7)"><path fill="#fde444" d="M 308.269531 220.105469 L 314.691406 220.105469 L 314.691406 226.527344 L 308.269531 226.527344 Z M 308.269531 220.105469 " fill-opacity="1" fill-rule="nonzero"/></g></g></g><g clip-path="url(#449feb50f6)"><g clip-path="url(#9a5674e67a)"><g clip-path="url(#62edb0014f)"><path fill="#fde444" d="M 281.851562 294.441406 L 288.105469 294.441406 L 288.105469 300.691406 L 281.851562 300.691406 Z M 281.851562 294.441406 " fill-opacity="1" fill-rule="nonzero"/></g></g></g><g clip-path="url(#22f4143ce5)"><g clip-path="url(#8b35ffc995)"><g clip-path="url(#13bfd290c1)"><path fill="#fde444" d="M 164.023438 291.386719 L 170.269531 291.386719 L 170.269531 297.636719 L 164.023438 297.636719 Z M 164.023438 291.386719 " fill-opacity="1" fill-rule="nonzero"/></g></g></g><g clip-path="url(#9b73459962)"><g clip-path="url(#c5f7803cde)"><g clip-path="url(#dbe27309f8)"><path fill="#fde444" d="M 135.042969 223.007812 L 141.25 223.007812 L 141.25 229.214844 L 135.042969 229.214844 Z M 135.042969 223.007812 " fill-opacity="1" fill-rule="nonzero"/></g></g></g><g clip-path="url(#f581e54464)"><g clip-path="url(#3eb3504d7c)"><g clip-path="url(#5f760669c9)"><rect x="-45" width="540" fill="#fde444" y="-44.999998" height="539.99998" fill-opacity="1"/></g></g></g><g clip-path="url(#c5925de809)"><g clip-path="url(#028956af95)"><g clip-path="url(#ea0aeed0e6)"><rect x="-45" width="540" fill="#fde444" y="-44.999998" height="539.99998" fill-opacity="1"/></g></g></g></svg>