<svg xmlns="http://www.w3.org/2000/svg" xmlns:xlink="http://www.w3.org/1999/xlink" width="600" zoomAndPan="magnify" viewBox="0 0 450 449.999984" height="600" preserveAspectRatio="xMidYMid meet" version="1.0"><defs><clipPath id="3ecafb29bc"><path d="M 172.082031 159 L 284 159 L 284 273.550781 L 172.082031 273.550781 Z M 172.082031 159 " clip-rule="nonzero"/></clipPath><clipPath id="9c07e48e9a"><path d="M 235.441406 163.511719 L 282.917969 258.996094 C 284.46875 262.113281 284.300781 265.8125 282.464844 268.773438 C 280.636719 271.734375 277.402344 273.535156 273.925781 273.535156 L 182.5 273.535156 C 179.019531 273.535156 175.789062 271.734375 173.957031 268.773438 C 172.125 265.8125 171.953125 262.113281 173.503906 258.996094 L 220.980469 163.511719 C 222.347656 160.765625 225.148438 159.03125 228.210938 159.03125 C 231.277344 159.03125 234.078125 160.765625 235.441406 163.511719 Z M 235.441406 163.511719 " clip-rule="nonzero"/></clipPath><clipPath id="32ba9cefb2"><path d="M 235.441406 163.511719 L 282.917969 258.996094 C 284.46875 262.113281 284.300781 265.8125 282.464844 268.773438 C 280.636719 271.734375 277.402344 273.535156 273.925781 273.535156 L 182.5 273.535156 C 179.019531 273.535156 175.789062 271.734375 173.957031 268.773438 C 172.125 265.8125 171.953125 262.113281 173.503906 258.996094 L 220.980469 163.511719 C 222.347656 160.765625 225.148438 159.03125 228.210938 159.03125 C 231.277344 159.03125 234.078125 160.765625 235.441406 163.511719 Z M 235.441406 163.511719 " clip-rule="nonzero"/></clipPath><clipPath id="22f2557dea"><path d="M 213.625 235.996094 L 242.816406 235.996094 L 242.816406 256.890625 L 213.625 256.890625 Z M 213.625 235.996094 " clip-rule="nonzero"/></clipPath><clipPath id="1b6f7b168f"><path d="M 228.210938 235.996094 C 220.15625 235.996094 213.625 240.671875 213.625 246.445312 C 213.625 252.214844 220.15625 256.890625 228.210938 256.890625 C 236.265625 256.890625 242.796875 252.214844 242.796875 246.445312 C 242.796875 240.671875 236.265625 235.996094 228.210938 235.996094 Z M 228.210938 235.996094 " clip-rule="nonzero"/></clipPath><clipPath id="6f1557fe2f"><path d="M 228.210938 235.996094 C 220.15625 235.996094 213.625 240.671875 213.625 246.445312 C 213.625 252.214844 220.15625 256.890625 228.210938 256.890625 C 236.265625 256.890625 242.796875 252.214844 242.796875 246.445312 C 242.796875 240.671875 236.265625 235.996094 228.210938 235.996094 Z M 228.210938 235.996094 " clip-rule="nonzero"/></clipPath><clipPath id="a8038738ee"><path d="M 204.015625 235.585938 L 254.878906 235.585938 L 254.878906 244.289062 L 204.015625 244.289062 Z M 204.015625 235.585938 " clip-rule="nonzero"/></clipPath><clipPath id="c3d040d161"><path d="M 208.363281 235.585938 L 250.523438 235.585938 C 252.921875 235.585938 254.867188 237.535156 254.867188 239.9375 C 254.867188 242.339844 252.921875 244.289062 250.523438 244.289062 L 208.363281 244.289062 C 205.960938 244.289062 204.015625 242.339844 204.015625 239.9375 C 204.015625 237.535156 205.960938 235.585938 208.363281 235.585938 Z M 208.363281 235.585938 " clip-rule="nonzero"/></clipPath><clipPath id="6b2601865d"><path d="M 208.363281 235.585938 L 250.519531 235.585938 C 252.921875 235.585938 254.867188 237.535156 254.867188 239.9375 C 254.867188 242.339844 252.921875 244.289062 250.519531 244.289062 L 208.363281 244.289062 C 205.960938 244.289062 204.015625 242.339844 204.015625 239.9375 C 204.015625 237.535156 205.960938 235.585938 208.363281 235.585938 Z M 208.363281 235.585938 " clip-rule="nonzero"/></clipPath><clipPath id="2842c6dc6c"><path d="M 242.796875 233.808594 L 250.0625 233.808594 L 250.0625 241.082031 L 242.796875 241.082031 Z M 242.796875 233.808594 " clip-rule="nonzero"/></clipPath><clipPath id="04b425d534"><path d="M 246.429688 233.808594 C 244.421875 233.808594 242.796875 235.4375 242.796875 237.445312 C 242.796875 239.453125 244.421875 241.082031 246.429688 241.082031 C 248.433594 241.082031 250.0625 239.453125 250.0625 237.445312 C 250.0625 235.4375 248.433594 233.808594 246.429688 233.808594 Z M 246.429688 233.808594 " clip-rule="nonzero"/></clipPath><clipPath id="bcff426bef"><path d="M 246.429688 233.808594 C 244.421875 233.808594 242.796875 235.4375 242.796875 237.445312 C 242.796875 239.453125 244.421875 241.082031 246.429688 241.082031 C 248.433594 241.082031 250.0625 239.453125 250.0625 237.445312 C 250.0625 235.4375 248.433594 233.808594 246.429688 233.808594 Z M 246.429688 233.808594 " clip-rule="nonzero"/></clipPath><clipPath id="471cf4519d"><path d="M 189.480469 239.9375 L 206.417969 239.9375 L 206.417969 256.890625 L 189.480469 256.890625 Z M 189.480469 239.9375 " clip-rule="nonzero"/></clipPath><clipPath id="781fb39eb6"><path d="M 197.949219 239.9375 C 193.273438 239.9375 189.480469 243.734375 189.480469 248.414062 C 189.480469 253.09375 193.273438 256.890625 197.949219 256.890625 C 202.625 256.890625 206.417969 253.09375 206.417969 248.414062 C 206.417969 243.734375 202.625 239.9375 197.949219 239.9375 Z M 197.949219 239.9375 " clip-rule="nonzero"/></clipPath><clipPath id="dfdeae1b7f"><path d="M 197.949219 239.9375 C 193.273438 239.9375 189.480469 243.734375 189.480469 248.414062 C 189.480469 253.09375 193.273438 256.890625 197.949219 256.890625 C 202.625 256.890625 206.417969 253.09375 206.417969 248.414062 C 206.417969 243.734375 202.625 239.9375 197.949219 239.9375 Z M 197.949219 239.9375 " clip-rule="nonzero"/></clipPath><clipPath id="f3c3e8d30d"><path d="M 206.363281 233.808594 L 213.628906 233.808594 L 213.628906 241.082031 L 206.363281 241.082031 Z M 206.363281 233.808594 " clip-rule="nonzero"/></clipPath><clipPath id="02371d3dc7"><path d="M 209.996094 233.808594 C 207.988281 233.808594 206.363281 235.4375 206.363281 237.445312 C 206.363281 239.453125 207.988281 241.082031 209.996094 241.082031 C 212.003906 241.082031 213.628906 239.453125 213.628906 237.445312 C 213.628906 235.4375 212.003906 233.808594 209.996094 233.808594 Z M 209.996094 233.808594 " clip-rule="nonzero"/></clipPath><clipPath id="c85380fbe7"><path d="M 209.996094 233.808594 C 207.988281 233.808594 206.363281 235.4375 206.363281 237.445312 C 206.363281 239.453125 207.988281 241.082031 209.996094 241.082031 C 212.003906 241.082031 213.628906 239.453125 213.628906 237.445312 C 213.628906 235.4375 212.003906 233.808594 209.996094 233.808594 Z M 209.996094 233.808594 " clip-rule="nonzero"/></clipPath><clipPath id="569dee2cec"><path d="M 250.0625 239.9375 L 266.996094 239.9375 L 266.996094 256.890625 L 250.0625 256.890625 Z M 250.0625 239.9375 " clip-rule="nonzero"/></clipPath><clipPath id="6d084d41fc"><path d="M 258.527344 239.9375 C 253.851562 239.9375 250.0625 243.734375 250.0625 248.414062 C 250.0625 253.09375 253.851562 256.890625 258.527344 256.890625 C 263.203125 256.890625 266.996094 253.09375 266.996094 248.414062 C 266.996094 243.734375 263.203125 239.9375 258.527344 239.9375 Z M 258.527344 239.9375 " clip-rule="nonzero"/></clipPath><clipPath id="31b1054d8d"><path d="M 258.527344 239.9375 C 253.851562 239.9375 250.0625 243.734375 250.0625 248.414062 C 250.0625 253.09375 253.851562 256.890625 258.527344 256.890625 C 263.203125 256.890625 266.996094 253.09375 266.996094 248.414062 C 266.996094 243.734375 263.203125 239.9375 258.527344 239.9375 Z M 258.527344 239.9375 " clip-rule="nonzero"/></clipPath><clipPath id="56c73ce0d1"><path d="M 194.382812 299.929688 L 201.515625 299.929688 L 201.515625 307.070312 L 194.382812 307.070312 Z M 194.382812 299.929688 " clip-rule="nonzero"/></clipPath><clipPath id="04f5270fb5"><path d="M 197.949219 299.929688 C 195.980469 299.929688 194.382812 301.527344 194.382812 303.5 C 194.382812 305.472656 195.980469 307.070312 197.949219 307.070312 C 199.917969 307.070312 201.515625 305.472656 201.515625 303.5 C 201.515625 301.527344 199.917969 299.929688 197.949219 299.929688 Z M 197.949219 299.929688 " clip-rule="nonzero"/></clipPath><clipPath id="1da5b207e9"><path d="M 197.949219 299.929688 C 195.980469 299.929688 194.382812 301.527344 194.382812 303.5 C 194.382812 305.472656 195.980469 307.070312 197.949219 307.070312 C 199.917969 307.070312 201.515625 305.472656 201.515625 303.5 C 201.515625 301.527344 199.917969 299.929688 197.949219 299.929688 Z M 197.949219 299.929688 " clip-rule="nonzero"/></clipPath><clipPath id="88dbf897fc"><path d="M 252.058594 299.929688 L 259.191406 299.929688 L 259.191406 307.070312 L 252.058594 307.070312 Z M 252.058594 299.929688 " clip-rule="nonzero"/></clipPath><clipPath id="2cefa6c8ac"><path d="M 255.625 299.929688 C 253.65625 299.929688 252.058594 301.527344 252.058594 303.5 C 252.058594 305.472656 253.65625 307.070312 255.625 307.070312 C 257.59375 307.070312 259.191406 305.472656 259.191406 303.5 C 259.191406 301.527344 257.59375 299.929688 255.625 299.929688 Z M 255.625 299.929688 " clip-rule="nonzero"/></clipPath><clipPath id="ad3d4d0b96"><path d="M 255.625 299.929688 C 253.65625 299.929688 252.058594 301.527344 252.058594 303.5 C 252.058594 305.472656 253.65625 307.070312 255.625 307.070312 C 257.59375 307.070312 259.191406 305.472656 259.191406 303.5 C 259.191406 301.527344 257.59375 299.929688 255.625 299.929688 Z M 255.625 299.929688 " clip-rule="nonzero"/></clipPath><clipPath id="8476c17159"><path d="M 291.820312 212.425781 L 298.957031 212.425781 L 298.957031 219.566406 L 291.820312 219.566406 Z M 291.820312 212.425781 " clip-rule="nonzero"/></clipPath><clipPath id="e0bdc03db9"><path d="M 295.390625 212.425781 C 293.417969 212.425781 291.820312 214.023438 291.820312 215.996094 C 291.820312 217.96875 293.417969 219.566406 295.390625 219.566406 C 297.359375 219.566406 298.957031 217.96875 298.957031 215.996094 C 298.957031 214.023438 297.359375 212.425781 295.390625 212.425781 Z M 295.390625 212.425781 " clip-rule="nonzero"/></clipPath><clipPath id="30538c87cd"><path d="M 295.390625 212.425781 C 293.417969 212.425781 291.820312 214.023438 291.820312 215.996094 C 291.820312 217.96875 293.417969 219.566406 295.390625 219.566406 C 297.359375 219.566406 298.957031 217.96875 298.957031 215.996094 C 298.957031 214.023438 297.359375 212.425781 295.390625 212.425781 Z M 295.390625 212.425781 " clip-rule="nonzero"/></clipPath><clipPath id="1c5804dd37"><path d="M 150.902344 212.425781 L 158.035156 212.425781 L 158.035156 219.566406 L 150.902344 219.566406 Z M 150.902344 212.425781 " clip-rule="nonzero"/></clipPath><clipPath id="65ac2174d7"><path d="M 154.46875 212.425781 C 152.5 212.425781 150.902344 214.023438 150.902344 215.996094 C 150.902344 217.96875 152.5 219.566406 154.46875 219.566406 C 156.441406 219.566406 158.035156 217.96875 158.035156 215.996094 C 158.035156 214.023438 156.441406 212.425781 154.46875 212.425781 Z M 154.46875 212.425781 " clip-rule="nonzero"/></clipPath><clipPath id="da26dd4acd"><path d="M 154.46875 212.425781 C 152.5 212.425781 150.902344 214.023438 150.902344 215.996094 C 150.902344 217.96875 152.5 219.566406 154.46875 219.566406 C 156.441406 219.566406 158.035156 217.96875 158.035156 215.996094 C 158.035156 214.023438 156.441406 212.425781 154.46875 212.425781 Z M 154.46875 212.425781 " clip-rule="nonzero"/></clipPath></defs><g clip-path="url(#3ecafb29bc)"><g clip-path="url(#9c07e48e9a)"><g clip-path="url(#32ba9cefb2)"><rect x="-45" width="540" fill="#ff5757" y="-44.999998" height="539.99998" fill-opacity="1"/></g></g></g><g clip-path="url(#22f2557dea)"><g clip-path="url(#1b6f7b168f)"><g clip-path="url(#6f1557fe2f)"><path fill="#000000" d="M 213.625 235.996094 L 242.816406 235.996094 L 242.816406 256.890625 L 213.625 256.890625 Z M 213.625 235.996094 " fill-opacity="1" fill-rule="nonzero"/></g></g></g><g clip-path="url(#a8038738ee)"><g clip-path="url(#c3d040d161)"><g clip-path="url(#6b2601865d)"><path fill="#ff5757" d="M 204.015625 235.585938 L 254.886719 235.585938 L 254.886719 244.289062 L 204.015625 244.289062 Z M 204.015625 235.585938 " fill-opacity="1" fill-rule="nonzero"/></g></g></g><g clip-path="url(#2842c6dc6c)"><g clip-path="url(#04b425d534)"><g clip-path="url(#bcff426bef)"><path fill="#000000" d="M 242.796875 233.808594 L 250.0625 233.808594 L 250.0625 241.082031 L 242.796875 241.082031 Z M 242.796875 233.808594 " fill-opacity="1" fill-rule="nonzero"/></g></g></g><g clip-path="url(#471cf4519d)"><g clip-path="url(#781fb39eb6)"><g clip-path="url(#dfdeae1b7f)"><path fill="#cc0000" d="M 189.480469 239.9375 L 206.417969 239.9375 L 206.417969 256.890625 L 189.480469 256.890625 Z M 189.480469 239.9375 " fill-opacity="1" fill-rule="nonzero"/></g></g></g><g clip-path="url(#f3c3e8d30d)"><g clip-path="url(#02371d3dc7)"><g clip-path="url(#c85380fbe7)"><path fill="#000000" d="M 206.363281 233.808594 L 213.628906 233.808594 L 213.628906 241.082031 L 206.363281 241.082031 Z M 206.363281 233.808594 " fill-opacity="1" fill-rule="nonzero"/></g></g></g><g clip-path="url(#569dee2cec)"><g clip-path="url(#6d084d41fc)"><g clip-path="url(#31b1054d8d)"><path fill="#cc0000" d="M 250.0625 239.9375 L 266.996094 239.9375 L 266.996094 256.890625 L 250.0625 256.890625 Z M 250.0625 239.9375 " fill-opacity="1" fill-rule="nonzero"/></g></g></g><path stroke-linecap="butt" transform="matrix(0.351491, 0.282382, -0.282074, 0.351875, 155.123317, 212.906835)" fill="none" stroke-linejoin="miter" d="M 3.152823 6.249258 C 48.930704 29.336756 78.448953 29.338182 91.695391 6.25221 " stroke="#ff5757" stroke-width="14" stroke-opacity="1" stroke-miterlimit="4"/><path stroke-linecap="butt" transform="matrix(0.296782, -0.339535, 0.339165, 0.297106, 267.023395, 244.334335)" fill="none" stroke-linejoin="miter" d="M 3.603271 6.003349 C 31.974937 23.030782 60.348434 23.034099 88.724569 6.001077 " stroke="#ff5757" stroke-width="14" stroke-opacity="1" stroke-miterlimit="4"/><path stroke-linecap="butt" transform="matrix(-0.162704, 0.420744, -0.420285, -0.162881, 216.714894, 264.259285)" fill="none" stroke-linejoin="miter" d="M 0.00365679 6.997296 C 32.425849 7.002364 64.852987 6.996223 97.283253 6.998165 " stroke="#ff5757" stroke-width="14" stroke-opacity="1" stroke-miterlimit="4"/><path stroke-linecap="butt" transform="matrix(0.176246, 0.415242, -0.414789, 0.176438, 241.909413, 263.119784)" fill="none" stroke-linejoin="miter" d="M -0.000464133 7.004587 C 31.424114 6.993694 62.85785 7.005528 94.279038 7.002613 " stroke="#ff5757" stroke-width="14" stroke-opacity="1" stroke-miterlimit="4"/><g clip-path="url(#56c73ce0d1)"><g clip-path="url(#04f5270fb5)"><g clip-path="url(#1da5b207e9)"><path fill="#ff5757" d="M 194.382812 299.929688 L 201.515625 299.929688 L 201.515625 307.070312 L 194.382812 307.070312 Z M 194.382812 299.929688 " fill-opacity="1" fill-rule="nonzero"/></g></g></g><g clip-path="url(#88dbf897fc)"><g clip-path="url(#2cefa6c8ac)"><g clip-path="url(#ad3d4d0b96)"><path fill="#ff5757" d="M 252.058594 299.929688 L 259.191406 299.929688 L 259.191406 307.070312 L 252.058594 307.070312 Z M 252.058594 299.929688 " fill-opacity="1" fill-rule="nonzero"/></g></g></g><g clip-path="url(#8476c17159)"><g clip-path="url(#e0bdc03db9)"><g clip-path="url(#30538c87cd)"><path fill="#ff5757" d="M 291.820312 212.425781 L 298.957031 212.425781 L 298.957031 219.566406 L 291.820312 219.566406 Z M 291.820312 212.425781 " fill-opacity="1" fill-rule="nonzero"/></g></g></g><g clip-path="url(#1c5804dd37)"><g clip-path="url(#65ac2174d7)"><g clip-path="url(#da26dd4acd)"><path fill="#ff5757" d="M 150.902344 212.425781 L 158.035156 212.425781 L 158.035156 219.566406 L 150.902344 219.566406 Z M 150.902344 212.425781 " fill-opacity="1" fill-rule="nonzero"/></g></g></g></svg>