<svg xmlns="http://www.w3.org/2000/svg" xmlns:xlink="http://www.w3.org/1999/xlink" width="600" zoomAndPan="magnify" viewBox="0 0 450 449.999984" height="600" preserveAspectRatio="xMidYMid meet" version="1.0"><defs><clipPath id="a8ae1f6819"><path d="M 175.875 145.234375 L 287.679688 145.234375 L 287.679688 258.621094 L 175.875 258.621094 Z M 175.875 145.234375 " clip-rule="nonzero"/></clipPath><clipPath id="87398ea179"><path d="M 198.964844 145.234375 L 264.589844 145.234375 C 270.714844 145.234375 276.589844 147.667969 280.917969 152.003906 C 285.246094 156.339844 287.679688 162.214844 287.679688 168.347656 L 287.679688 235.5 C 287.679688 241.628906 285.246094 247.507812 280.917969 251.839844 C 276.589844 256.175781 270.714844 258.609375 264.589844 258.609375 L 198.964844 258.609375 C 192.839844 258.609375 186.96875 256.175781 182.640625 251.839844 C 178.308594 247.507812 175.875 241.628906 175.875 235.5 L 175.875 168.347656 C 175.875 162.214844 178.308594 156.339844 182.640625 152.003906 C 186.96875 147.667969 192.839844 145.234375 198.964844 145.234375 Z M 198.964844 145.234375 " clip-rule="nonzero"/></clipPath><clipPath id="8fe195f766"><path d="M 198.964844 145.234375 L 264.589844 145.234375 C 270.714844 145.234375 276.589844 147.667969 280.917969 152.003906 C 285.246094 156.339844 287.679688 162.214844 287.679688 168.347656 L 287.679688 235.5 C 287.679688 241.628906 285.246094 247.507812 280.917969 251.839844 C 276.589844 256.175781 270.714844 258.609375 264.589844 258.609375 L 198.964844 258.609375 C 192.839844 258.609375 186.96875 256.175781 182.640625 251.839844 C 178.308594 247.507812 175.875 241.628906 175.875 235.5 L 175.875 168.347656 C 175.875 162.214844 178.308594 156.339844 182.640625 152.003906 C 186.96875 147.667969 192.839844 145.234375 198.964844 145.234375 Z M 198.964844 145.234375 " clip-rule="nonzero"/></clipPath><clipPath id="781b26f9ae"><path d="M 216.976562 162.335938 L 246.578125 162.335938 L 246.578125 203.890625 L 216.976562 203.890625 Z M 216.976562 162.335938 " clip-rule="nonzero"/></clipPath><clipPath id="f88d789d4e"><path d="M 231.777344 162.335938 C 223.601562 162.335938 216.976562 171.617188 216.976562 183.070312 C 216.976562 194.519531 223.601562 203.804688 231.777344 203.804688 C 239.953125 203.804688 246.578125 194.519531 246.578125 183.070312 C 246.578125 171.617188 239.953125 162.335938 231.777344 162.335938 Z M 231.777344 162.335938 " clip-rule="nonzero"/></clipPath><clipPath id="5f8b1888f7"><path d="M 231.777344 162.335938 C 223.601562 162.335938 216.976562 171.617188 216.976562 183.070312 C 216.976562 194.519531 223.601562 203.804688 231.777344 203.804688 C 239.953125 203.804688 246.578125 194.519531 246.578125 183.070312 C 246.578125 171.617188 239.953125 162.335938 231.777344 162.335938 Z M 231.777344 162.335938 " clip-rule="nonzero"/></clipPath><clipPath id="1ee7d5c250"><path d="M 222.785156 167.824219 L 240.773438 167.824219 L 240.773438 198.328125 L 222.785156 198.328125 Z M 222.785156 167.824219 " clip-rule="nonzero"/></clipPath><clipPath id="3f2acb090f"><path d="M 231.777344 167.824219 C 226.8125 167.824219 222.785156 174.648438 222.785156 183.070312 C 222.785156 191.492188 226.8125 198.316406 231.777344 198.316406 C 236.742188 198.316406 240.773438 191.492188 240.773438 183.070312 C 240.773438 174.648438 236.742188 167.824219 231.777344 167.824219 Z M 231.777344 167.824219 " clip-rule="nonzero"/></clipPath><clipPath id="81e1fbd081"><path d="M 231.777344 167.824219 C 226.8125 167.824219 222.785156 174.648438 222.785156 183.070312 C 222.785156 191.492188 226.8125 198.316406 231.777344 198.316406 C 236.742188 198.316406 240.773438 191.492188 240.773438 183.070312 C 240.773438 174.648438 236.742188 167.824219 231.777344 167.824219 Z M 231.777344 167.824219 " clip-rule="nonzero"/></clipPath><clipPath id="ccb448f9c9"><path d="M 248.585938 159.476562 L 256.925781 159.476562 L 256.925781 167.824219 L 248.585938 167.824219 Z M 248.585938 159.476562 " clip-rule="nonzero"/></clipPath><clipPath id="232fe76577"><path d="M 252.753906 159.476562 C 250.457031 159.476562 248.585938 161.34375 248.585938 163.648438 C 248.585938 165.957031 250.457031 167.824219 252.753906 167.824219 C 255.058594 167.824219 256.925781 165.957031 256.925781 163.648438 C 256.925781 161.34375 255.058594 159.476562 252.753906 159.476562 Z M 252.753906 159.476562 " clip-rule="nonzero"/></clipPath><clipPath id="62acd1d389"><path d="M 252.757812 159.476562 C 250.457031 159.476562 248.585938 161.34375 248.585938 163.648438 C 248.585938 165.957031 250.457031 167.824219 252.757812 167.824219 C 255.058594 167.824219 256.925781 165.957031 256.925781 163.648438 C 256.925781 161.34375 255.058594 159.476562 252.757812 159.476562 Z M 252.757812 159.476562 " clip-rule="nonzero"/></clipPath><clipPath id="62f32f4f3a"><path d="M 206.789062 159.636719 L 214.96875 159.636719 L 214.96875 167.824219 L 206.789062 167.824219 Z M 206.789062 159.636719 " clip-rule="nonzero"/></clipPath><clipPath id="2cdd4e434c"><path d="M 210.878906 159.636719 C 208.621094 159.636719 206.789062 161.46875 206.789062 163.726562 C 206.789062 165.988281 208.621094 167.824219 210.878906 167.824219 C 213.136719 167.824219 214.96875 165.988281 214.96875 163.726562 C 214.96875 161.46875 213.136719 159.636719 210.878906 159.636719 Z M 210.878906 159.636719 " clip-rule="nonzero"/></clipPath><clipPath id="01ee732e52"><path d="M 210.878906 159.636719 C 208.621094 159.636719 206.789062 161.46875 206.789062 163.726562 C 206.789062 165.988281 208.621094 167.824219 210.878906 167.824219 C 213.136719 167.824219 214.96875 165.988281 214.96875 163.726562 C 214.96875 161.46875 213.136719 159.636719 210.878906 159.636719 Z M 210.878906 159.636719 " clip-rule="nonzero"/></clipPath><clipPath id="839a7f363d"><path d="M 180.8125 166.164062 L 204.78125 166.164062 L 204.78125 190.15625 L 180.8125 190.15625 Z M 180.8125 166.164062 " clip-rule="nonzero"/></clipPath><clipPath id="cbefbe0805"><path d="M 192.796875 166.164062 C 186.179688 166.164062 180.8125 171.535156 180.8125 178.160156 C 180.8125 184.785156 186.179688 190.15625 192.796875 190.15625 C 199.414062 190.15625 204.78125 184.785156 204.78125 178.160156 C 204.78125 171.535156 199.414062 166.164062 192.796875 166.164062 Z M 192.796875 166.164062 " clip-rule="nonzero"/></clipPath><clipPath id="0d5a601564"><path d="M 192.796875 166.164062 C 186.179688 166.164062 180.8125 171.535156 180.8125 178.160156 C 180.8125 184.785156 186.179688 190.15625 192.796875 190.15625 C 199.414062 190.15625 204.78125 184.785156 204.78125 178.160156 C 204.78125 171.535156 199.414062 166.164062 192.796875 166.164062 Z M 192.796875 166.164062 " clip-rule="nonzero"/></clipPath><clipPath id="d0d33cfd4c"><path d="M 256.925781 166.164062 L 280.894531 166.164062 L 280.894531 190.15625 L 256.925781 190.15625 Z M 256.925781 166.164062 " clip-rule="nonzero"/></clipPath><clipPath id="beb714dcbe"><path d="M 268.910156 166.164062 C 262.292969 166.164062 256.925781 171.535156 256.925781 178.160156 C 256.925781 184.785156 262.292969 190.15625 268.910156 190.15625 C 275.53125 190.15625 280.894531 184.785156 280.894531 178.160156 C 280.894531 171.535156 275.53125 166.164062 268.910156 166.164062 Z M 268.910156 166.164062 " clip-rule="nonzero"/></clipPath><clipPath id="a749080539"><path d="M 268.910156 166.164062 C 262.292969 166.164062 256.925781 171.535156 256.925781 178.160156 C 256.925781 184.785156 262.292969 190.15625 268.910156 190.15625 C 275.53125 190.15625 280.894531 184.785156 280.894531 178.160156 C 280.894531 171.535156 275.53125 166.164062 268.910156 166.164062 Z M 268.910156 166.164062 " clip-rule="nonzero"/></clipPath><clipPath id="74f1a67a6b"><path d="M 317.945312 224.996094 L 325.976562 224.996094 L 325.976562 233.035156 L 317.945312 233.035156 Z M 317.945312 224.996094 " clip-rule="nonzero"/></clipPath><clipPath id="a84b5b2d98"><path d="M 321.960938 224.996094 C 319.746094 224.996094 317.945312 226.796875 317.945312 229.015625 C 317.945312 231.238281 319.746094 233.035156 321.960938 233.035156 C 324.179688 233.035156 325.976562 231.238281 325.976562 229.015625 C 325.976562 226.796875 324.179688 224.996094 321.960938 224.996094 Z M 321.960938 224.996094 " clip-rule="nonzero"/></clipPath><clipPath id="ffe70c6634"><path d="M 321.960938 224.996094 C 319.746094 224.996094 317.945312 226.796875 317.945312 229.015625 C 317.945312 231.238281 319.746094 233.035156 321.960938 233.035156 C 324.179688 233.035156 325.976562 231.238281 325.976562 229.015625 C 325.976562 226.796875 324.179688 224.996094 321.960938 224.996094 Z M 321.960938 224.996094 " clip-rule="nonzero"/></clipPath><clipPath id="c104595e74"><path d="M 249.101562 296.144531 L 256.992188 296.144531 L 256.992188 304.042969 L 249.101562 304.042969 Z M 249.101562 296.144531 " clip-rule="nonzero"/></clipPath><clipPath id="272bdaff8f"><path d="M 253.046875 296.144531 C 250.867188 296.144531 249.101562 297.914062 249.101562 300.09375 C 249.101562 302.277344 250.867188 304.042969 253.046875 304.042969 C 255.226562 304.042969 256.992188 302.277344 256.992188 300.09375 C 256.992188 297.914062 255.226562 296.144531 253.046875 296.144531 Z M 253.046875 296.144531 " clip-rule="nonzero"/></clipPath><clipPath id="83d8d3772f"><path d="M 253.046875 296.144531 C 250.867188 296.144531 249.101562 297.914062 249.101562 300.09375 C 249.101562 302.277344 250.867188 304.042969 253.046875 304.042969 C 255.226562 304.042969 256.992188 302.277344 256.992188 300.09375 C 256.992188 297.914062 255.226562 296.144531 253.046875 296.144531 Z M 253.046875 296.144531 " clip-rule="nonzero"/></clipPath><clipPath id="bc5874cb2c"><path d="M 218.835938 297.21875 L 226.734375 297.21875 L 226.734375 305.121094 L 218.835938 305.121094 Z M 218.835938 297.21875 " clip-rule="nonzero"/></clipPath><clipPath id="7e1a7a91a2"><path d="M 222.785156 297.21875 C 220.605469 297.21875 218.835938 298.988281 218.835938 301.167969 C 218.835938 303.351562 220.605469 305.121094 222.785156 305.121094 C 224.964844 305.121094 226.734375 303.351562 226.734375 301.167969 C 226.734375 298.988281 224.964844 297.21875 222.785156 297.21875 Z M 222.785156 297.21875 " clip-rule="nonzero"/></clipPath><clipPath id="33c8248853"><path d="M 222.785156 297.21875 C 220.605469 297.21875 218.835938 298.988281 218.835938 301.167969 C 218.835938 303.351562 220.605469 305.121094 222.785156 305.121094 C 224.964844 305.121094 226.734375 303.351562 226.734375 301.167969 C 226.734375 298.988281 224.964844 297.21875 222.785156 297.21875 Z M 222.785156 297.21875 " clip-rule="nonzero"/></clipPath><clipPath id="4c26c99dda"><path d="M 128.296875 230.953125 L 136.1875 230.953125 L 136.1875 238.855469 L 128.296875 238.855469 Z M 128.296875 230.953125 " clip-rule="nonzero"/></clipPath><clipPath id="6638afc07b"><path d="M 132.242188 230.953125 C 130.0625 230.953125 128.296875 232.722656 128.296875 234.90625 C 128.296875 237.085938 130.0625 238.855469 132.242188 238.855469 C 134.421875 238.855469 136.1875 237.085938 136.1875 234.90625 C 136.1875 232.722656 134.421875 230.953125 132.242188 230.953125 Z M 132.242188 230.953125 " clip-rule="nonzero"/></clipPath><clipPath id="5f7409903a"><path d="M 132.242188 230.953125 C 130.0625 230.953125 128.296875 232.722656 128.296875 234.90625 C 128.296875 237.085938 130.0625 238.855469 132.242188 238.855469 C 134.421875 238.855469 136.1875 237.085938 136.1875 234.90625 C 136.1875 232.722656 134.421875 230.953125 132.242188 230.953125 Z M 132.242188 230.953125 " clip-rule="nonzero"/></clipPath></defs><g clip-path="url(#a8ae1f6819)"><g clip-path="url(#87398ea179)"><g clip-path="url(#8fe195f766)"><path fill="#437bf5" d="M 175.875 145.234375 L 287.679688 145.234375 L 287.679688 258.457031 L 175.875 258.457031 Z M 175.875 145.234375 " fill-opacity="1" fill-rule="nonzero"/></g></g></g><g clip-path="url(#781b26f9ae)"><g clip-path="url(#f88d789d4e)"><g clip-path="url(#5f8b1888f7)"><path fill="#ff5757" d="M 216.976562 162.335938 L 246.578125 162.335938 L 246.578125 203.777344 L 216.976562 203.777344 Z M 216.976562 162.335938 " fill-opacity="1" fill-rule="nonzero"/></g></g></g><g clip-path="url(#1ee7d5c250)"><g clip-path="url(#3f2acb090f)"><g clip-path="url(#81e1fbd081)"><path fill="#000000" d="M 222.785156 167.824219 L 240.773438 167.824219 L 240.773438 198.34375 L 222.785156 198.34375 Z M 222.785156 167.824219 " fill-opacity="1" fill-rule="nonzero"/></g></g></g><g clip-path="url(#ccb448f9c9)"><g clip-path="url(#232fe76577)"><g clip-path="url(#62acd1d389)"><path fill="#000000" d="M 248.585938 159.476562 L 256.925781 159.476562 L 256.925781 167.824219 L 248.585938 167.824219 Z M 248.585938 159.476562 " fill-opacity="1" fill-rule="nonzero"/></g></g></g><g clip-path="url(#62f32f4f3a)"><g clip-path="url(#2cdd4e434c)"><g clip-path="url(#01ee732e52)"><path fill="#000000" d="M 206.789062 159.636719 L 214.96875 159.636719 L 214.96875 167.824219 L 206.789062 167.824219 Z M 206.789062 159.636719 " fill-opacity="1" fill-rule="nonzero"/></g></g></g><g clip-path="url(#839a7f363d)"><g clip-path="url(#cbefbe0805)"><g clip-path="url(#0d5a601564)"><path fill="#f995c2" d="M 180.8125 166.164062 L 204.78125 166.164062 L 204.78125 190.15625 L 180.8125 190.15625 Z M 180.8125 166.164062 " fill-opacity="1" fill-rule="nonzero"/></g></g></g><g clip-path="url(#d0d33cfd4c)"><g clip-path="url(#beb714dcbe)"><g clip-path="url(#a749080539)"><path fill="#f995c2" d="M 256.925781 166.164062 L 280.894531 166.164062 L 280.894531 190.15625 L 256.925781 190.15625 Z M 256.925781 166.164062 " fill-opacity="1" fill-rule="nonzero"/></g></g></g><path stroke-linecap="butt" transform="matrix(0.401186, -0.301964, 0.301672, 0.401574, 123.633719, 226.469354)" fill="none" stroke-linejoin="miter" d="M 3.619878 23.721836 C 40.494624 1.422032 77.382993 1.427579 114.249215 23.721306 " stroke="#437bf5" stroke-width="14" stroke-opacity="1" stroke-miterlimit="4"/><path stroke-linecap="butt" transform="matrix(0.425596, 0.266386, -0.266129, 0.426007, 284.62027, 201.497651)" fill="none" stroke-linejoin="miter" d="M 0.00157162 7.000827 C 30.70432 7.002923 61.413668 7.000893 92.116416 7.002989 " stroke="#437bf5" stroke-width="14" stroke-opacity="1" stroke-miterlimit="4"/><path stroke-linecap="butt" transform="matrix(-0.00501205, 0.502413, -0.501928, -0.00501689, 226.894913, 248.747237)" fill="none" stroke-linejoin="miter" d="M 2.07046 6.68859 C 36.183859 17.266777 70.292721 17.26861 104.412518 6.68615 " stroke="#437bf5" stroke-width="14" stroke-opacity="1" stroke-miterlimit="4"/><path stroke-linecap="butt" transform="matrix(-0.00501205, 0.502413, -0.501928, -0.00501689, 256.920077, 247.671866)" fill="none" stroke-linejoin="miter" d="M 2.072708 6.684225 C 36.186107 17.262412 70.294969 17.264245 104.407069 6.689644 " stroke="#437bf5" stroke-width="14" stroke-opacity="1" stroke-miterlimit="4"/><g clip-path="url(#74f1a67a6b)"><g clip-path="url(#a84b5b2d98)"><g clip-path="url(#ffe70c6634)"><path fill="#437bf5" d="M 317.945312 224.996094 L 325.976562 224.996094 L 325.976562 233.035156 L 317.945312 233.035156 Z M 317.945312 224.996094 " fill-opacity="1" fill-rule="nonzero"/></g></g></g><g clip-path="url(#c104595e74)"><g clip-path="url(#272bdaff8f)"><g clip-path="url(#83d8d3772f)"><path fill="#437bf5" d="M 249.101562 296.144531 L 256.992188 296.144531 L 256.992188 304.042969 L 249.101562 304.042969 Z M 249.101562 296.144531 " fill-opacity="1" fill-rule="nonzero"/></g></g></g><g clip-path="url(#bc5874cb2c)"><g clip-path="url(#7e1a7a91a2)"><g clip-path="url(#33c8248853)"><path fill="#437bf5" d="M 218.835938 297.21875 L 226.734375 297.21875 L 226.734375 305.121094 L 218.835938 305.121094 Z M 218.835938 297.21875 " fill-opacity="1" fill-rule="nonzero"/></g></g></g><g clip-path="url(#4c26c99dda)"><g clip-path="url(#6638afc07b)"><g clip-path="url(#5f7409903a)"><path fill="#437bf5" d="M 128.296875 230.953125 L 136.1875 230.953125 L 136.1875 238.855469 L 128.296875 238.855469 Z M 128.296875 230.953125 " fill-opacity="1" fill-rule="nonzero"/></g></g></g></svg>