<svg xmlns="http://www.w3.org/2000/svg" xmlns:xlink="http://www.w3.org/1999/xlink" width="600" zoomAndPan="magnify" viewBox="0 0 450 449.999984" height="600" preserveAspectRatio="xMidYMid meet" version="1.0"><defs><clipPath id="e148aed53f"><path d="M 43 166 L 180 166 L 180 298 L 43 298 Z M 43 166 " clip-rule="nonzero"/></clipPath><clipPath id="a5139d9011"><path d="M 23.984375 215.738281 C 23.984375 240.785156 33.933594 264.804688 51.640625 282.511719 C 69.351562 300.222656 93.371094 310.171875 118.414062 310.171875 L 331.585938 310.171875 C 356.628906 310.171875 380.648438 300.222656 398.359375 282.511719 C 416.066406 264.804688 426.015625 240.785156 426.015625 215.738281 C 426.015625 190.695312 416.066406 166.675781 398.359375 148.964844 C 380.648438 131.257812 356.628906 121.308594 331.585938 121.308594 L 118.414062 121.308594 C 93.371094 121.308594 69.351562 131.257812 51.640625 148.964844 C 33.933594 166.675781 23.984375 190.695312 23.984375 215.738281 Z M 23.984375 215.738281 " clip-rule="nonzero"/></clipPath><clipPath id="670bbf431e"><path d="M 50 159 L 184 159 L 184 294 L 50 294 Z M 50 159 " clip-rule="nonzero"/></clipPath><clipPath id="0fab8dadf7"><path d="M 23.984375 215.738281 C 23.984375 240.785156 33.933594 264.804688 51.640625 282.511719 C 69.351562 300.222656 93.371094 310.171875 118.414062 310.171875 L 331.585938 310.171875 C 356.628906 310.171875 380.648438 300.222656 398.359375 282.511719 C 416.066406 264.804688 426.015625 240.785156 426.015625 215.738281 C 426.015625 190.695312 416.066406 166.675781 398.359375 148.964844 C 380.648438 131.257812 356.628906 121.308594 331.585938 121.308594 L 118.414062 121.308594 C 93.371094 121.308594 69.351562 131.257812 51.640625 148.964844 C 33.933594 166.675781 23.984375 190.695312 23.984375 215.738281 Z M 23.984375 215.738281 " clip-rule="nonzero"/></clipPath><clipPath id="7a5caa81c0"><path d="M 251 208 L 425.984375 208 L 425.984375 249 L 251 249 Z M 251 208 " clip-rule="nonzero"/></clipPath><clipPath id="c834a86450"><path d="M 23.984375 215.738281 C 23.984375 240.785156 33.933594 264.804688 51.640625 282.511719 C 69.351562 300.222656 93.371094 310.171875 118.414062 310.171875 L 331.585938 310.171875 C 356.628906 310.171875 380.648438 300.222656 398.359375 282.511719 C 416.066406 264.804688 426.015625 240.785156 426.015625 215.738281 C 426.015625 190.695312 416.066406 166.675781 398.359375 148.964844 C 380.648438 131.257812 356.628906 121.308594 331.585938 121.308594 L 118.414062 121.308594 C 93.371094 121.308594 69.351562 131.257812 51.640625 148.964844 C 33.933594 166.675781 23.984375 190.695312 23.984375 215.738281 Z M 23.984375 215.738281 " clip-rule="nonzero"/></clipPath><clipPath id="0fb1a9ce1e"><path d="M 319 147 L 364 147 L 364 190 L 319 190 Z M 319 147 " clip-rule="nonzero"/></clipPath><clipPath id="3fb4638ebe"><path d="M 23.984375 215.738281 C 23.984375 240.785156 33.933594 264.804688 51.640625 282.511719 C 69.351562 300.222656 93.371094 310.171875 118.414062 310.171875 L 331.585938 310.171875 C 356.628906 310.171875 380.648438 300.222656 398.359375 282.511719 C 416.066406 264.804688 426.015625 240.785156 426.015625 215.738281 C 426.015625 190.695312 416.066406 166.675781 398.359375 148.964844 C 380.648438 131.257812 356.628906 121.308594 331.585938 121.308594 L 118.414062 121.308594 C 93.371094 121.308594 69.351562 131.257812 51.640625 148.964844 C 33.933594 166.675781 23.984375 190.695312 23.984375 215.738281 Z M 23.984375 215.738281 " clip-rule="nonzero"/></clipPath><clipPath id="67aeecebca"><path d="M 317 267 L 361 267 L 361 309.976562 L 317 309.976562 Z M 317 267 " clip-rule="nonzero"/></clipPath><clipPath id="aee32971d4"><path d="M 23.984375 215.738281 C 23.984375 240.785156 33.933594 264.804688 51.640625 282.511719 C 69.351562 300.222656 93.371094 310.171875 118.414062 310.171875 L 331.585938 310.171875 C 356.628906 310.171875 380.648438 300.222656 398.359375 282.511719 C 416.066406 264.804688 426.015625 240.785156 426.015625 215.738281 C 426.015625 190.695312 416.066406 166.675781 398.359375 148.964844 C 380.648438 131.257812 356.628906 121.308594 331.585938 121.308594 L 118.414062 121.308594 C 93.371094 121.308594 69.351562 131.257812 51.640625 148.964844 C 33.933594 166.675781 23.984375 190.695312 23.984375 215.738281 Z M 23.984375 215.738281 " clip-rule="nonzero"/></clipPath><clipPath id="d8bba4c035"><path d="M 77.871094 45 L 384.621094 45 L 384.621094 357.75 L 77.871094 357.75 Z M 77.871094 45 " clip-rule="nonzero"/></clipPath><clipPath id="3f2a9bb78d"><path d="M 77.871094 198.347656 L 77.871094 204.082031 C 77.871094 244.753906 94.027344 283.757812 122.785156 312.515625 C 151.542969 341.273438 190.546875 357.429688 231.21875 357.429688 C 271.890625 357.429688 310.894531 341.273438 339.652344 312.515625 C 368.410156 283.757812 384.566406 244.753906 384.566406 204.082031 L 384.566406 198.347656 C 384.566406 157.679688 368.410156 118.671875 339.652344 89.914062 C 310.894531 61.15625 271.890625 45 231.21875 45 C 190.546875 45 151.542969 61.15625 122.785156 89.914062 C 94.027344 118.671875 77.871094 157.679688 77.871094 198.347656 Z M 77.871094 198.347656 " clip-rule="nonzero"/></clipPath><clipPath id="91369d87f8"><path d="M 91 109 L 210 109 L 210 142 L 91 142 Z M 91 109 " clip-rule="nonzero"/></clipPath><clipPath id="1f292c2f12"><path d="M 77.871094 198.347656 L 77.871094 204.082031 C 77.871094 244.753906 94.027344 283.757812 122.785156 312.515625 C 151.542969 341.273438 190.546875 357.429688 231.21875 357.429688 C 271.890625 357.429688 310.894531 341.273438 339.652344 312.515625 C 368.410156 283.757812 384.566406 244.753906 384.566406 204.082031 L 384.566406 198.347656 C 384.566406 157.679688 368.410156 118.671875 339.652344 89.914062 C 310.894531 61.15625 271.890625 45 231.21875 45 C 190.546875 45 151.542969 61.15625 122.785156 89.914062 C 94.027344 118.671875 77.871094 157.679688 77.871094 198.347656 Z M 77.871094 198.347656 " clip-rule="nonzero"/></clipPath><clipPath id="018e1ea3c2"><path d="M 245 66 L 364 66 L 364 185 L 245 185 Z M 245 66 " clip-rule="nonzero"/></clipPath><clipPath id="db8e7fa6b1"><path d="M 77.871094 198.347656 L 77.871094 204.082031 C 77.871094 244.753906 94.027344 283.757812 122.785156 312.515625 C 151.542969 341.273438 190.546875 357.429688 231.21875 357.429688 C 271.890625 357.429688 310.894531 341.273438 339.652344 312.515625 C 368.410156 283.757812 384.566406 244.753906 384.566406 204.082031 L 384.566406 198.347656 C 384.566406 157.679688 368.410156 118.671875 339.652344 89.914062 C 310.894531 61.15625 271.890625 45 231.21875 45 C 190.546875 45 151.542969 61.15625 122.785156 89.914062 C 94.027344 118.671875 77.871094 157.679688 77.871094 198.347656 Z M 77.871094 198.347656 " clip-rule="nonzero"/></clipPath><clipPath id="5d37686103"><path d="M 103 234 L 197 234 L 197 327 L 103 327 Z M 103 234 " clip-rule="nonzero"/></clipPath><clipPath id="751d75b622"><path d="M 77.871094 198.347656 L 77.871094 204.082031 C 77.871094 244.753906 94.027344 283.757812 122.785156 312.515625 C 151.542969 341.273438 190.546875 357.429688 231.21875 357.429688 C 271.890625 357.429688 310.894531 341.273438 339.652344 312.515625 C 368.410156 283.757812 384.566406 244.753906 384.566406 204.082031 L 384.566406 198.347656 C 384.566406 157.679688 368.410156 118.671875 339.652344 89.914062 C 310.894531 61.15625 271.890625 45 231.21875 45 C 190.546875 45 151.542969 61.15625 122.785156 89.914062 C 94.027344 118.671875 77.871094 157.679688 77.871094 198.347656 Z M 77.871094 198.347656 " clip-rule="nonzero"/></clipPath><clipPath id="afe2538851"><path d="M 245 233 L 364 233 L 364 266 L 245 266 Z M 245 233 " clip-rule="nonzero"/></clipPath><clipPath id="3f297909fb"><path d="M 77.871094 198.347656 L 77.871094 204.082031 C 77.871094 244.753906 94.027344 283.757812 122.785156 312.515625 C 151.542969 341.273438 190.546875 357.429688 231.21875 357.429688 C 271.890625 357.429688 310.894531 341.273438 339.652344 312.515625 C 368.410156 283.757812 384.566406 244.753906 384.566406 204.082031 L 384.566406 198.347656 C 384.566406 157.679688 368.410156 118.671875 339.652344 89.914062 C 310.894531 61.15625 271.890625 45 231.21875 45 C 190.546875 45 151.542969 61.15625 122.785156 89.914062 C 94.027344 118.671875 77.871094 157.679688 77.871094 198.347656 Z M 77.871094 198.347656 " clip-rule="nonzero"/></clipPath><clipPath id="00840da983"><path d="M 245 289 L 364 289 L 364 322 L 245 322 Z M 245 289 " clip-rule="nonzero"/></clipPath><clipPath id="67e8ebfc12"><path d="M 77.871094 198.347656 L 77.871094 204.082031 C 77.871094 244.753906 94.027344 283.757812 122.785156 312.515625 C 151.542969 341.273438 190.546875 357.429688 231.21875 357.429688 C 271.890625 357.429688 310.894531 341.273438 339.652344 312.515625 C 368.410156 283.757812 384.566406 244.753906 384.566406 204.082031 L 384.566406 198.347656 C 384.566406 157.679688 368.410156 118.671875 339.652344 89.914062 C 310.894531 61.15625 271.890625 45 231.21875 45 C 190.546875 45 151.542969 61.15625 122.785156 89.914062 C 94.027344 118.671875 77.871094 157.679688 77.871094 198.347656 Z M 77.871094 198.347656 " clip-rule="nonzero"/></clipPath><clipPath id="9cdd792cf7"><path d="M 0.800781 0.589844 L 450 0.589844 L 450 437.410156 L 0.800781 437.410156 Z M 0.800781 0.589844 " clip-rule="nonzero"/></clipPath><clipPath id="7bda523b14"><path d="M 449.933594 56.082031 L 449.933594 381.917969 C 449.933594 396.636719 444.085938 410.75 433.679688 421.15625 C 423.273438 431.5625 409.15625 437.410156 394.441406 437.410156 L 56.292969 437.410156 C 41.574219 437.410156 27.460938 431.5625 17.054688 421.15625 C 6.648438 410.75 0.800781 396.636719 0.800781 381.917969 L 0.800781 56.082031 C 0.800781 41.363281 6.648438 27.25 17.054688 16.84375 C 27.460938 6.4375 41.574219 0.589844 56.292969 0.589844 L 394.441406 0.589844 C 409.15625 0.589844 423.273438 6.4375 433.679688 16.84375 C 444.085938 27.25 449.933594 41.363281 449.933594 56.082031 Z M 449.933594 56.082031 " clip-rule="nonzero"/></clipPath><clipPath id="60460098ae"><path d="M 0.800781 0.589844 L 450 0.589844 L 450 437.410156 L 0.800781 437.410156 Z M 0.800781 0.589844 " clip-rule="nonzero"/></clipPath><clipPath id="5f41b8f389"><path d="M 449.933594 56.082031 L 449.933594 381.917969 C 449.933594 396.636719 444.085938 410.75 433.679688 421.15625 C 423.273438 431.5625 409.15625 437.410156 394.441406 437.410156 L 56.292969 437.410156 C 41.574219 437.410156 27.460938 431.5625 17.054688 421.15625 C 6.648438 410.75 0.800781 396.636719 0.800781 381.917969 L 0.800781 56.082031 C 0.800781 41.363281 6.648438 27.25 17.054688 16.84375 C 27.460938 6.4375 41.574219 0.589844 56.292969 0.589844 L 394.441406 0.589844 C 409.15625 0.589844 423.273438 6.4375 433.679688 16.84375 C 444.085938 27.25 449.933594 41.363281 449.933594 56.082031 Z M 449.933594 56.082031 " clip-rule="nonzero"/></clipPath><clipPath id="5cd2eb7790"><rect x="0" width="450" y="0" height="438"/></clipPath><clipPath id="e577e9150a"><path d="M 57.382812 192 L 392.746094 192 L 392.746094 313.550781 L 57.382812 313.550781 Z M 57.382812 192 " clip-rule="nonzero"/></clipPath><clipPath id="5c780ff80b"><path d="M 57.382812 180.410156 L 57.382812 257.589844 C 57.382812 272.308594 63.230469 286.425781 73.636719 296.835938 C 84.046875 307.242188 98.160156 313.089844 112.882812 313.089844 L 337.917969 313.089844 C 352.640625 313.089844 366.753906 307.242188 377.164062 296.835938 C 387.570312 286.425781 393.417969 272.308594 393.417969 257.589844 L 393.417969 180.410156 C 393.417969 165.691406 387.570312 151.574219 377.164062 141.164062 C 366.753906 130.757812 352.640625 124.910156 337.917969 124.910156 L 112.882812 124.910156 C 98.160156 124.910156 84.046875 130.757812 73.636719 141.164062 C 63.230469 151.574219 57.382812 165.691406 57.382812 180.410156 Z M 57.382812 180.410156 " clip-rule="nonzero"/></clipPath><clipPath id="beef85eeaa"><path d="M 332 198 L 346 198 L 346 220 L 332 220 Z M 332 198 " clip-rule="nonzero"/></clipPath><clipPath id="dd0298a3ca"><path d="M 57.382812 180.410156 L 57.382812 257.589844 C 57.382812 272.308594 63.230469 286.425781 73.636719 296.835938 C 84.046875 307.242188 98.160156 313.089844 112.882812 313.089844 L 337.917969 313.089844 C 352.640625 313.089844 366.753906 307.242188 377.164062 296.835938 C 387.570312 286.425781 393.417969 272.308594 393.417969 257.589844 L 393.417969 180.410156 C 393.417969 165.691406 387.570312 151.574219 377.164062 141.164062 C 366.753906 130.757812 352.640625 124.910156 337.917969 124.910156 L 112.882812 124.910156 C 98.160156 124.910156 84.046875 130.757812 73.636719 141.164062 C 63.230469 151.574219 57.382812 165.691406 57.382812 180.410156 Z M 57.382812 180.410156 " clip-rule="nonzero"/></clipPath><clipPath id="5275faa11e"><path d="M 281 198 L 295 198 L 295 220 L 281 220 Z M 281 198 " clip-rule="nonzero"/></clipPath><clipPath id="b3b790fb93"><path d="M 57.382812 180.410156 L 57.382812 257.589844 C 57.382812 272.308594 63.230469 286.425781 73.636719 296.835938 C 84.046875 307.242188 98.160156 313.089844 112.882812 313.089844 L 337.917969 313.089844 C 352.640625 313.089844 366.753906 307.242188 377.164062 296.835938 C 387.570312 286.425781 393.417969 272.308594 393.417969 257.589844 L 393.417969 180.410156 C 393.417969 165.691406 387.570312 151.574219 377.164062 141.164062 C 366.753906 130.757812 352.640625 124.910156 337.917969 124.910156 L 112.882812 124.910156 C 98.160156 124.910156 84.046875 130.757812 73.636719 141.164062 C 63.230469 151.574219 57.382812 165.691406 57.382812 180.410156 Z M 57.382812 180.410156 " clip-rule="nonzero"/></clipPath><clipPath id="21d6d25290"><path d="M 230 198 L 244 198 L 244 220 L 230 220 Z M 230 198 " clip-rule="nonzero"/></clipPath><clipPath id="a994e27368"><path d="M 57.382812 180.410156 L 57.382812 257.589844 C 57.382812 272.308594 63.230469 286.425781 73.636719 296.835938 C 84.046875 307.242188 98.160156 313.089844 112.882812 313.089844 L 337.917969 313.089844 C 352.640625 313.089844 366.753906 307.242188 377.164062 296.835938 C 387.570312 286.425781 393.417969 272.308594 393.417969 257.589844 L 393.417969 180.410156 C 393.417969 165.691406 387.570312 151.574219 377.164062 141.164062 C 366.753906 130.757812 352.640625 124.910156 337.917969 124.910156 L 112.882812 124.910156 C 98.160156 124.910156 84.046875 130.757812 73.636719 141.164062 C 63.230469 151.574219 57.382812 165.691406 57.382812 180.410156 Z M 57.382812 180.410156 " clip-rule="nonzero"/></clipPath><clipPath id="f3810db99d"><path d="M 179 198 L 193 198 L 193 220 L 179 220 Z M 179 198 " clip-rule="nonzero"/></clipPath><clipPath id="7deb47bc3e"><path d="M 57.382812 180.410156 L 57.382812 257.589844 C 57.382812 272.308594 63.230469 286.425781 73.636719 296.835938 C 84.046875 307.242188 98.160156 313.089844 112.882812 313.089844 L 337.917969 313.089844 C 352.640625 313.089844 366.753906 307.242188 377.164062 296.835938 C 387.570312 286.425781 393.417969 272.308594 393.417969 257.589844 L 393.417969 180.410156 C 393.417969 165.691406 387.570312 151.574219 377.164062 141.164062 C 366.753906 130.757812 352.640625 124.910156 337.917969 124.910156 L 112.882812 124.910156 C 98.160156 124.910156 84.046875 130.757812 73.636719 141.164062 C 63.230469 151.574219 57.382812 165.691406 57.382812 180.410156 Z M 57.382812 180.410156 " clip-rule="nonzero"/></clipPath><clipPath id="84a6239802"><path d="M 128 198 L 142 198 L 142 220 L 128 220 Z M 128 198 " clip-rule="nonzero"/></clipPath><clipPath id="c2621d125c"><path d="M 57.382812 180.410156 L 57.382812 257.589844 C 57.382812 272.308594 63.230469 286.425781 73.636719 296.835938 C 84.046875 307.242188 98.160156 313.089844 112.882812 313.089844 L 337.917969 313.089844 C 352.640625 313.089844 366.753906 307.242188 377.164062 296.835938 C 387.570312 286.425781 393.417969 272.308594 393.417969 257.589844 L 393.417969 180.410156 C 393.417969 165.691406 387.570312 151.574219 377.164062 141.164062 C 366.753906 130.757812 352.640625 124.910156 337.917969 124.910156 L 112.882812 124.910156 C 98.160156 124.910156 84.046875 130.757812 73.636719 141.164062 C 63.230469 151.574219 57.382812 165.691406 57.382812 180.410156 Z M 57.382812 180.410156 " clip-rule="nonzero"/></clipPath><clipPath id="139b9af340"><path d="M 77 198 L 92 198 L 92 220 L 77 220 Z M 77 198 " clip-rule="nonzero"/></clipPath><clipPath id="d4e23de7d6"><path d="M 57.382812 180.410156 L 57.382812 257.589844 C 57.382812 272.308594 63.230469 286.425781 73.636719 296.835938 C 84.046875 307.242188 98.160156 313.089844 112.882812 313.089844 L 337.917969 313.089844 C 352.640625 313.089844 366.753906 307.242188 377.164062 296.835938 C 387.570312 286.425781 393.417969 272.308594 393.417969 257.589844 L 393.417969 180.410156 C 393.417969 165.691406 387.570312 151.574219 377.164062 141.164062 C 366.753906 130.757812 352.640625 124.910156 337.917969 124.910156 L 112.882812 124.910156 C 98.160156 124.910156 84.046875 130.757812 73.636719 141.164062 C 63.230469 151.574219 57.382812 165.691406 57.382812 180.410156 Z M 57.382812 180.410156 " clip-rule="nonzero"/></clipPath><clipPath id="0544ffd0ec"><path d="M 58 264 L 392.746094 264 L 392.746094 310 L 58 310 Z M 58 264 " clip-rule="nonzero"/></clipPath><clipPath id="014977f361"><path d="M 57.382812 180.410156 L 57.382812 257.589844 C 57.382812 272.308594 63.230469 286.425781 73.636719 296.835938 C 84.046875 307.242188 98.160156 313.089844 112.882812 313.089844 L 337.917969 313.089844 C 352.640625 313.089844 366.753906 307.242188 377.164062 296.835938 C 387.570312 286.425781 393.417969 272.308594 393.417969 257.589844 L 393.417969 180.410156 C 393.417969 165.691406 387.570312 151.574219 377.164062 141.164062 C 366.753906 130.757812 352.640625 124.910156 337.917969 124.910156 L 112.882812 124.910156 C 98.160156 124.910156 84.046875 130.757812 73.636719 141.164062 C 63.230469 151.574219 57.382812 165.691406 57.382812 180.410156 Z M 57.382812 180.410156 " clip-rule="nonzero"/></clipPath><clipPath id="e0253bd4fd"><path d="M 379 124.910156 L 392.746094 124.910156 L 392.746094 166 L 379 166 Z M 379 124.910156 " clip-rule="nonzero"/></clipPath><clipPath id="fe1a95137d"><path d="M 57.382812 180.410156 L 57.382812 257.589844 C 57.382812 272.308594 63.230469 286.425781 73.636719 296.835938 C 84.046875 307.242188 98.160156 313.089844 112.882812 313.089844 L 337.917969 313.089844 C 352.640625 313.089844 366.753906 307.242188 377.164062 296.835938 C 387.570312 286.425781 393.417969 272.308594 393.417969 257.589844 L 393.417969 180.410156 C 393.417969 165.691406 387.570312 151.574219 377.164062 141.164062 C 366.753906 130.757812 352.640625 124.910156 337.917969 124.910156 L 112.882812 124.910156 C 98.160156 124.910156 84.046875 130.757812 73.636719 141.164062 C 63.230469 151.574219 57.382812 165.691406 57.382812 180.410156 Z M 57.382812 180.410156 " clip-rule="nonzero"/></clipPath><clipPath id="be54e7e596"><path d="M 58 124.910156 L 73 124.910156 L 73 166 L 58 166 Z M 58 124.910156 " clip-rule="nonzero"/></clipPath><clipPath id="99430f172d"><path d="M 57.382812 180.410156 L 57.382812 257.589844 C 57.382812 272.308594 63.230469 286.425781 73.636719 296.835938 C 84.046875 307.242188 98.160156 313.089844 112.882812 313.089844 L 337.917969 313.089844 C 352.640625 313.089844 366.753906 307.242188 377.164062 296.835938 C 387.570312 286.425781 393.417969 272.308594 393.417969 257.589844 L 393.417969 180.410156 C 393.417969 165.691406 387.570312 151.574219 377.164062 141.164062 C 366.753906 130.757812 352.640625 124.910156 337.917969 124.910156 L 112.882812 124.910156 C 98.160156 124.910156 84.046875 130.757812 73.636719 141.164062 C 63.230469 151.574219 57.382812 165.691406 57.382812 180.410156 Z M 57.382812 180.410156 " clip-rule="nonzero"/></clipPath><clipPath id="b374b8fa04"><path d="M 65 138 L 388 138 L 388 152 L 65 152 Z M 65 138 " clip-rule="nonzero"/></clipPath><clipPath id="22b1d6272a"><path d="M 57.382812 180.410156 L 57.382812 257.589844 C 57.382812 272.308594 63.230469 286.425781 73.636719 296.835938 C 84.046875 307.242188 98.160156 313.089844 112.882812 313.089844 L 337.917969 313.089844 C 352.640625 313.089844 366.753906 307.242188 377.164062 296.835938 C 387.570312 286.425781 393.417969 272.308594 393.417969 257.589844 L 393.417969 180.410156 C 393.417969 165.691406 387.570312 151.574219 377.164062 141.164062 C 366.753906 130.757812 352.640625 124.910156 337.917969 124.910156 L 112.882812 124.910156 C 98.160156 124.910156 84.046875 130.757812 73.636719 141.164062 C 63.230469 151.574219 57.382812 165.691406 57.382812 180.410156 Z M 57.382812 180.410156 " clip-rule="nonzero"/></clipPath><clipPath id="d622ab59bd"><path d="M 358 198 L 373 198 L 373 240 L 358 240 Z M 358 198 " clip-rule="nonzero"/></clipPath><clipPath id="1738994812"><path d="M 57.382812 180.410156 L 57.382812 257.589844 C 57.382812 272.308594 63.230469 286.425781 73.636719 296.835938 C 84.046875 307.242188 98.160156 313.089844 112.882812 313.089844 L 337.917969 313.089844 C 352.640625 313.089844 366.753906 307.242188 377.164062 296.835938 C 387.570312 286.425781 393.417969 272.308594 393.417969 257.589844 L 393.417969 180.410156 C 393.417969 165.691406 387.570312 151.574219 377.164062 141.164062 C 366.753906 130.757812 352.640625 124.910156 337.917969 124.910156 L 112.882812 124.910156 C 98.160156 124.910156 84.046875 130.757812 73.636719 141.164062 C 63.230469 151.574219 57.382812 165.691406 57.382812 180.410156 Z M 57.382812 180.410156 " clip-rule="nonzero"/></clipPath><clipPath id="454cfbf1bd"><path d="M 308 198 L 322 198 L 322 240 L 308 240 Z M 308 198 " clip-rule="nonzero"/></clipPath><clipPath id="c1454ff5ac"><path d="M 57.382812 180.410156 L 57.382812 257.589844 C 57.382812 272.308594 63.230469 286.425781 73.636719 296.835938 C 84.046875 307.242188 98.160156 313.089844 112.882812 313.089844 L 337.917969 313.089844 C 352.640625 313.089844 366.753906 307.242188 377.164062 296.835938 C 387.570312 286.425781 393.417969 272.308594 393.417969 257.589844 L 393.417969 180.410156 C 393.417969 165.691406 387.570312 151.574219 377.164062 141.164062 C 366.753906 130.757812 352.640625 124.910156 337.917969 124.910156 L 112.882812 124.910156 C 98.160156 124.910156 84.046875 130.757812 73.636719 141.164062 C 63.230469 151.574219 57.382812 165.691406 57.382812 180.410156 Z M 57.382812 180.410156 " clip-rule="nonzero"/></clipPath><clipPath id="9816b17cb4"><path d="M 257 198 L 271 198 L 271 240 L 257 240 Z M 257 198 " clip-rule="nonzero"/></clipPath><clipPath id="807cf34e52"><path d="M 57.382812 180.410156 L 57.382812 257.589844 C 57.382812 272.308594 63.230469 286.425781 73.636719 296.835938 C 84.046875 307.242188 98.160156 313.089844 112.882812 313.089844 L 337.917969 313.089844 C 352.640625 313.089844 366.753906 307.242188 377.164062 296.835938 C 387.570312 286.425781 393.417969 272.308594 393.417969 257.589844 L 393.417969 180.410156 C 393.417969 165.691406 387.570312 151.574219 377.164062 141.164062 C 366.753906 130.757812 352.640625 124.910156 337.917969 124.910156 L 112.882812 124.910156 C 98.160156 124.910156 84.046875 130.757812 73.636719 141.164062 C 63.230469 151.574219 57.382812 165.691406 57.382812 180.410156 Z M 57.382812 180.410156 " clip-rule="nonzero"/></clipPath><clipPath id="c27152f56e"><path d="M 206 198 L 220 198 L 220 240 L 206 240 Z M 206 198 " clip-rule="nonzero"/></clipPath><clipPath id="038a50685f"><path d="M 57.382812 180.410156 L 57.382812 257.589844 C 57.382812 272.308594 63.230469 286.425781 73.636719 296.835938 C 84.046875 307.242188 98.160156 313.089844 112.882812 313.089844 L 337.917969 313.089844 C 352.640625 313.089844 366.753906 307.242188 377.164062 296.835938 C 387.570312 286.425781 393.417969 272.308594 393.417969 257.589844 L 393.417969 180.410156 C 393.417969 165.691406 387.570312 151.574219 377.164062 141.164062 C 366.753906 130.757812 352.640625 124.910156 337.917969 124.910156 L 112.882812 124.910156 C 98.160156 124.910156 84.046875 130.757812 73.636719 141.164062 C 63.230469 151.574219 57.382812 165.691406 57.382812 180.410156 Z M 57.382812 180.410156 " clip-rule="nonzero"/></clipPath><clipPath id="d684b69653"><path d="M 155 198 L 169 198 L 169 240 L 155 240 Z M 155 198 " clip-rule="nonzero"/></clipPath><clipPath id="c2a5f8b844"><path d="M 57.382812 180.410156 L 57.382812 257.589844 C 57.382812 272.308594 63.230469 286.425781 73.636719 296.835938 C 84.046875 307.242188 98.160156 313.089844 112.882812 313.089844 L 337.917969 313.089844 C 352.640625 313.089844 366.753906 307.242188 377.164062 296.835938 C 387.570312 286.425781 393.417969 272.308594 393.417969 257.589844 L 393.417969 180.410156 C 393.417969 165.691406 387.570312 151.574219 377.164062 141.164062 C 366.753906 130.757812 352.640625 124.910156 337.917969 124.910156 L 112.882812 124.910156 C 98.160156 124.910156 84.046875 130.757812 73.636719 141.164062 C 63.230469 151.574219 57.382812 165.691406 57.382812 180.410156 Z M 57.382812 180.410156 " clip-rule="nonzero"/></clipPath><clipPath id="269c74ef79"><path d="M 104 198 L 118 198 L 118 240 L 104 240 Z M 104 198 " clip-rule="nonzero"/></clipPath><clipPath id="4dddd1b184"><path d="M 57.382812 180.410156 L 57.382812 257.589844 C 57.382812 272.308594 63.230469 286.425781 73.636719 296.835938 C 84.046875 307.242188 98.160156 313.089844 112.882812 313.089844 L 337.917969 313.089844 C 352.640625 313.089844 366.753906 307.242188 377.164062 296.835938 C 387.570312 286.425781 393.417969 272.308594 393.417969 257.589844 L 393.417969 180.410156 C 393.417969 165.691406 387.570312 151.574219 377.164062 141.164062 C 366.753906 130.757812 352.640625 124.910156 337.917969 124.910156 L 112.882812 124.910156 C 98.160156 124.910156 84.046875 130.757812 73.636719 141.164062 C 63.230469 151.574219 57.382812 165.691406 57.382812 180.410156 Z M 57.382812 180.410156 " clip-rule="nonzero"/></clipPath><clipPath id="532a136daa"><rect x="0" width="450" y="0" height="438"/></clipPath></defs><path fill="#ff914d" d="M 380.058594 200.023438 C 347.386719 202.175781 258.429688 188.113281 250.457031 208.632812 C 246.789062 218.121094 250.515625 228.121094 259.703125 230.941406 C 264.609375 232.457031 278.402344 232.089844 283.980469 232.152344 C 314.804688 232.484375 344.75 233.726562 371.332031 233.304688 C 395.457031 232.910156 407.335938 229.820312 407.761719 211.816406 C 408.246094 202.207031 393.789062 199.023438 380.058594 200.023438 " fill-opacity="1" fill-rule="nonzero"/><path fill="#ff914d" d="M 138.191406 267.160156 C 136.34375 234.457031 151.285156 145.648438 130.828125 137.464844 C 121.371094 133.707031 111.335938 137.34375 108.425781 146.46875 C 106.882812 151.378906 107.09375 165.167969 106.972656 170.746094 C 106.367188 201.570312 104.820312 231.484375 104.972656 258.066406 C 105.125 282.191406 108.09375 294.136719 126.097656 294.679688 C 135.765625 295.285156 139.070312 280.890625 138.191406 267.160156 " fill-opacity="1" fill-rule="nonzero"/><path fill="#ff914d" d="M 175.015625 193.082031 C 142.34375 195.234375 53.386719 181.171875 45.414062 201.691406 C 41.746094 211.179688 45.476562 221.179688 54.660156 224 C 59.570312 225.515625 73.359375 225.152344 78.9375 225.210938 C 109.761719 225.546875 139.707031 226.789062 166.289062 226.363281 C 190.414062 225.96875 202.296875 222.878906 202.71875 204.875 C 203.203125 195.234375 188.746094 192.082031 175.015625 193.082031 " fill-opacity="1" fill-rule="nonzero"/><g clip-path="url(#e148aed53f)"><g clip-path="url(#a5139d9011)"><path fill="#ffe7c2" d="M 81.671875 283.007812 C 106.199219 256.78125 187.933594 201.304688 178.894531 178.902344 C 174.707031 168.566406 164.203125 163.347656 154.796875 167.96875 C 149.742188 170.460938 138.972656 181.097656 134.453125 185.183594 C 109.558594 208.054688 84.660156 229.492188 63.722656 249.769531 C 44.707031 268.183594 37.53125 279.582031 50.691406 294.273438 C 57.539062 302.417969 71.464844 294.109375 81.671875 283.007812 " fill-opacity="1" fill-rule="nonzero"/></g></g><g clip-path="url(#670bbf431e)"><g clip-path="url(#0fab8dadf7)"><path fill="#ffe7c2" d="M 168.324219 256.117188 C 141.867188 231.851562 85.625 150.648438 63.289062 159.890625 C 52.984375 164.179688 47.867188 174.714844 52.585938 184.121094 C 55.113281 189.175781 65.847656 199.84375 70.003906 204.296875 C 93.105469 228.960938 114.777344 253.65625 135.285156 274.429688 C 153.898438 293.277344 165.332031 300.355469 179.890625 287.027344 C 187.96875 280.082031 179.492188 266.222656 168.324219 256.117188 " fill-opacity="1" fill-rule="nonzero"/></g></g><g clip-path="url(#7a5caa81c0)"><g clip-path="url(#c834a86450)"><path fill="#ffe7c2" d="M 395.046875 211.542969 C 359.214844 213.902344 261.65625 198.480469 252.917969 220.984375 C 248.894531 231.386719 252.984375 242.355469 263.054688 245.445312 C 268.4375 247.109375 283.5625 246.710938 289.679688 246.777344 C 323.480469 247.140625 356.320312 248.503906 385.472656 248.039062 C 411.929688 247.609375 424.960938 244.21875 425.425781 224.472656 C 425.957031 213.902344 410.101562 210.445312 395.046875 211.542969 " fill-opacity="1" fill-rule="nonzero"/></g></g><g clip-path="url(#0fb1a9ce1e)"><g clip-path="url(#3fb4638ebe)"><path fill="#ffe7c2" d="M 359.113281 156 C 342.195312 133.996094 310.917969 157.230469 322.417969 180.53125 C 326.207031 188.210938 337.640625 189.90625 344.390625 189.109375 C 359.28125 187.414062 368.917969 169.265625 359.113281 156 Z M 359.113281 156 " fill-opacity="1" fill-rule="nonzero"/></g></g><g clip-path="url(#67aeecebca)"><g clip-path="url(#aee32971d4)"><path fill="#ffe7c2" d="M 357.019531 276.257812 C 340.101562 254.253906 308.824219 277.488281 320.324219 300.789062 C 324.113281 308.46875 335.546875 310.164062 342.296875 309.363281 C 357.1875 307.667969 366.824219 289.523438 357.019531 276.257812 Z M 357.019531 276.257812 " fill-opacity="1" fill-rule="nonzero"/></g></g><g clip-path="url(#d8bba4c035)"><g clip-path="url(#3f2a9bb78d)"><path fill="#ffbd59" d="M 368.433594 -22.671875 L 86.347656 -22.671875 C 85.066406 -22.671875 83.785156 -22.640625 82.503906 -22.574219 C 81.222656 -22.511719 79.945312 -22.417969 78.667969 -22.292969 C 77.390625 -22.167969 76.121094 -22.011719 74.851562 -21.824219 C 73.582031 -21.632812 72.320312 -21.414062 71.0625 -21.164062 C 69.804688 -20.914062 68.554688 -20.632812 67.308594 -20.320312 C 66.066406 -20.011719 64.832031 -19.667969 63.601562 -19.296875 C 62.375 -18.925781 61.160156 -18.523438 59.949219 -18.089844 C 58.742188 -17.65625 57.546875 -17.195312 56.363281 -16.707031 C 55.179688 -16.214844 54.007812 -15.695312 52.847656 -15.148438 C 51.6875 -14.597656 50.542969 -14.023438 49.410156 -13.417969 C 48.28125 -12.8125 47.164062 -12.183594 46.066406 -11.523438 C 44.964844 -10.863281 43.882812 -10.175781 42.816406 -9.464844 C 41.75 -8.753906 40.703125 -8.015625 39.671875 -7.25 C 38.640625 -6.488281 37.632812 -5.699219 36.640625 -4.882812 C 35.648438 -4.070312 34.679688 -3.234375 33.726562 -2.371094 C 32.777344 -1.511719 31.847656 -0.628906 30.941406 0.28125 C 30.035156 1.1875 29.152344 2.113281 28.289062 3.066406 C 27.429688 4.015625 26.589844 4.984375 25.777344 5.976562 C 24.964844 6.96875 24.175781 7.980469 23.410156 9.007812 C 22.648438 10.039062 21.910156 11.085938 21.199219 12.152344 C 20.484375 13.21875 19.800781 14.304688 19.140625 15.402344 C 18.480469 16.503906 17.847656 17.617188 17.246094 18.75 C 16.640625 19.878906 16.0625 21.023438 15.515625 22.183594 C 14.96875 23.34375 14.449219 24.515625 13.957031 25.699219 C 13.464844 26.886719 13.003906 28.082031 12.574219 29.289062 C 12.140625 30.496094 11.738281 31.714844 11.367188 32.941406 C 10.992188 34.167969 10.652344 35.402344 10.339844 36.648438 C 10.027344 37.890625 9.746094 39.140625 9.496094 40.398438 C 9.246094 41.65625 9.027344 42.921875 8.839844 44.1875 C 8.652344 45.457031 8.496094 46.730469 8.371094 48.007812 C 8.242188 49.28125 8.148438 50.5625 8.085938 51.839844 C 8.023438 53.121094 7.992188 54.402344 7.992188 55.6875 L 7.992188 337.769531 C 7.992188 339.050781 8.023438 340.332031 8.085938 341.613281 C 8.148438 342.894531 8.242188 344.175781 8.371094 345.449219 C 8.496094 346.726562 8.652344 348 8.839844 349.265625 C 9.027344 350.535156 9.246094 351.796875 9.496094 353.054688 C 9.746094 354.3125 10.027344 355.566406 10.339844 356.808594 C 10.652344 358.054688 10.992188 359.289062 11.367188 360.515625 C 11.738281 361.742188 12.140625 362.960938 12.574219 364.167969 C 13.003906 365.375 13.464844 366.570312 13.957031 367.753906 C 14.449219 368.941406 14.96875 370.113281 15.515625 371.273438 C 16.0625 372.429688 16.640625 373.574219 17.246094 374.707031 C 17.847656 375.835938 18.480469 376.953125 19.140625 378.054688 C 19.800781 379.152344 20.484375 380.234375 21.199219 381.300781 C 21.910156 382.367188 22.648438 383.417969 23.410156 384.445312 C 24.175781 385.476562 24.964844 386.488281 25.777344 387.480469 C 26.589844 388.46875 27.429688 389.441406 28.289062 390.390625 C 29.152344 391.339844 30.035156 392.269531 30.941406 393.175781 C 31.847656 394.082031 32.777344 394.96875 33.726562 395.828125 C 34.679688 396.6875 35.648438 397.527344 36.640625 398.339844 C 37.632812 399.152344 38.640625 399.941406 39.671875 400.707031 C 40.703125 401.46875 41.75 402.207031 42.816406 402.921875 C 43.882812 403.632812 44.964844 404.320312 46.066406 404.976562 C 47.164062 405.636719 48.28125 406.269531 49.410156 406.875 C 50.542969 407.480469 51.6875 408.054688 52.847656 408.601562 C 54.007812 409.152344 55.179688 409.671875 56.363281 410.160156 C 57.546875 410.652344 58.742188 411.113281 59.949219 411.546875 C 61.160156 411.976562 62.375 412.378906 63.601562 412.753906 C 64.832031 413.125 66.066406 413.464844 67.308594 413.777344 C 68.554688 414.089844 69.804688 414.371094 71.0625 414.621094 C 72.320312 414.871094 73.582031 415.089844 74.851562 415.277344 C 76.121094 415.464844 77.390625 415.625 78.667969 415.75 C 79.945312 415.875 81.222656 415.96875 82.503906 416.03125 C 83.785156 416.09375 85.066406 416.125 86.347656 416.125 L 368.433594 416.125 C 369.714844 416.125 370.996094 416.09375 372.277344 416.03125 C 373.558594 415.96875 374.835938 415.875 376.113281 415.75 C 377.390625 415.625 378.660156 415.464844 379.929688 415.277344 C 381.199219 415.089844 382.460938 414.871094 383.71875 414.621094 C 384.976562 414.371094 386.226562 414.089844 387.472656 413.777344 C 388.714844 413.464844 389.949219 413.125 391.179688 412.753906 C 392.40625 412.378906 393.621094 411.976562 394.828125 411.546875 C 396.039062 411.113281 397.234375 410.652344 398.417969 410.160156 C 399.601562 409.671875 400.773438 409.152344 401.933594 408.601562 C 403.09375 408.054688 404.238281 407.480469 405.371094 406.875 C 406.5 406.269531 407.617188 405.636719 408.714844 404.976562 C 409.816406 404.320312 410.898438 403.632812 411.964844 402.921875 C 413.03125 402.207031 414.078125 401.46875 415.109375 400.707031 C 416.140625 399.941406 417.148438 399.152344 418.140625 398.339844 C 419.132812 397.527344 420.101562 396.6875 421.054688 395.828125 C 422.003906 394.96875 422.933594 394.082031 423.839844 393.175781 C 424.746094 392.269531 425.628906 391.339844 426.492188 390.390625 C 427.351562 389.441406 428.1875 388.46875 429.003906 387.480469 C 429.816406 386.488281 430.605469 385.476562 431.367188 384.445312 C 432.132812 383.417969 432.871094 382.367188 433.582031 381.300781 C 434.296875 380.234375 434.980469 379.152344 435.640625 378.054688 C 436.300781 376.953125 436.933594 375.835938 437.535156 374.707031 C 438.140625 373.574219 438.71875 372.429688 439.265625 371.273438 C 439.8125 370.113281 440.332031 368.941406 440.824219 367.753906 C 441.316406 366.570312 441.777344 365.375 442.207031 364.167969 C 442.640625 362.960938 443.042969 361.742188 443.414062 360.515625 C 443.789062 359.289062 444.128906 358.054688 444.441406 356.808594 C 444.753906 355.566406 445.03125 354.3125 445.285156 353.054688 C 445.535156 351.796875 445.753906 350.535156 445.941406 349.265625 C 446.128906 348 446.285156 346.726562 446.410156 345.449219 C 446.539062 344.175781 446.632812 342.894531 446.695312 341.613281 C 446.757812 340.332031 446.789062 339.050781 446.789062 337.769531 L 446.789062 55.6875 C 446.789062 54.402344 446.757812 53.121094 446.695312 51.839844 C 446.632812 50.5625 446.539062 49.28125 446.410156 48.007812 C 446.285156 46.730469 446.128906 45.457031 445.941406 44.1875 C 445.753906 42.921875 445.535156 41.65625 445.285156 40.398438 C 445.03125 39.140625 444.753906 37.890625 444.441406 36.648438 C 444.128906 35.402344 443.785156 34.167969 443.414062 32.941406 C 443.042969 31.714844 442.640625 30.496094 442.207031 29.289062 C 441.777344 28.082031 441.316406 26.886719 440.824219 25.699219 C 440.332031 24.515625 439.8125 23.34375 439.265625 22.183594 C 438.71875 21.023438 438.140625 19.878906 437.535156 18.75 C 436.933594 17.617188 436.300781 16.503906 435.640625 15.402344 C 434.980469 14.304688 434.296875 13.21875 433.582031 12.152344 C 432.871094 11.085938 432.132812 10.039062 431.367188 9.007812 C 430.605469 7.980469 429.816406 6.96875 429.003906 5.976562 C 428.1875 4.984375 427.351562 4.015625 426.492188 3.066406 C 425.628906 2.113281 424.746094 1.1875 423.839844 0.28125 C 422.933594 -0.628906 422.003906 -1.511719 421.054688 -2.371094 C 420.101562 -3.234375 419.132812 -4.070312 418.140625 -4.882812 C 417.148438 -5.699219 416.140625 -6.488281 415.109375 -7.25 C 414.078125 -8.015625 413.03125 -8.753906 411.964844 -9.464844 C 410.898438 -10.175781 409.816406 -10.863281 408.714844 -11.523438 C 407.617188 -12.183594 406.5 -12.8125 405.371094 -13.417969 C 404.238281 -14.023438 403.09375 -14.597656 401.933594 -15.148438 C 400.773438 -15.695312 399.601562 -16.214844 398.417969 -16.707031 C 397.234375 -17.195312 396.039062 -17.65625 394.828125 -18.089844 C 393.621094 -18.523438 392.40625 -18.925781 391.179688 -19.296875 C 389.949219 -19.667969 388.714844 -20.011719 387.472656 -20.320312 C 386.226562 -20.632812 384.976562 -20.914062 383.71875 -21.164062 C 382.460938 -21.414062 381.199219 -21.632812 379.929688 -21.824219 C 378.660156 -22.011719 377.390625 -22.167969 376.113281 -22.292969 C 374.835938 -22.417969 373.558594 -22.511719 372.277344 -22.574219 C 370.996094 -22.640625 369.714844 -22.671875 368.433594 -22.671875 Z M 415.445312 337.769531 C 415.445312 339.308594 415.371094 340.84375 415.21875 342.378906 C 415.070312 343.910156 414.84375 345.433594 414.542969 346.941406 C 414.242188 348.453125 413.867188 349.945312 413.421875 351.417969 C 412.976562 352.890625 412.457031 354.339844 411.867188 355.761719 C 411.277344 357.183594 410.621094 358.574219 409.894531 359.933594 C 409.167969 361.289062 408.378906 362.609375 407.523438 363.890625 C 406.667969 365.167969 405.75 366.40625 404.773438 367.59375 C 403.796875 368.785156 402.765625 369.925781 401.675781 371.015625 C 400.585938 372.101562 399.449219 373.136719 398.257812 374.113281 C 397.066406 375.089844 395.832031 376.003906 394.550781 376.859375 C 393.273438 377.714844 391.953125 378.507812 390.59375 379.234375 C 389.238281 379.957031 387.847656 380.617188 386.421875 381.203125 C 385 381.792969 383.554688 382.3125 382.078125 382.757812 C 380.605469 383.207031 379.113281 383.578125 377.605469 383.878906 C 376.09375 384.179688 374.574219 384.40625 373.039062 384.558594 C 371.507812 384.707031 369.972656 384.785156 368.433594 384.785156 L 86.347656 384.785156 C 84.808594 384.785156 83.273438 384.707031 81.742188 384.558594 C 80.207031 384.40625 78.6875 384.179688 77.175781 383.878906 C 75.667969 383.578125 74.175781 383.207031 72.703125 382.757812 C 71.226562 382.3125 69.78125 381.792969 68.355469 381.203125 C 66.933594 380.617188 65.542969 379.957031 64.1875 379.234375 C 62.828125 378.507812 61.507812 377.714844 60.230469 376.859375 C 58.949219 376.003906 57.714844 375.089844 56.523438 374.113281 C 55.332031 373.136719 54.195312 372.101562 53.105469 371.015625 C 52.015625 369.925781 50.984375 368.785156 50.007812 367.59375 C 49.03125 366.40625 48.113281 365.167969 47.257812 363.890625 C 46.402344 362.609375 45.613281 361.289062 44.886719 359.933594 C 44.160156 358.574219 43.503906 357.183594 42.914062 355.761719 C 42.324219 354.339844 41.804688 352.890625 41.359375 351.417969 C 40.914062 349.945312 40.539062 348.453125 40.238281 346.941406 C 39.9375 345.429688 39.710938 343.910156 39.5625 342.378906 C 39.410156 340.84375 39.335938 339.308594 39.335938 337.769531 L 39.335938 55.6875 C 39.335938 54.144531 39.410156 52.609375 39.5625 51.078125 C 39.710938 49.546875 39.9375 48.023438 40.238281 46.515625 C 40.539062 45.003906 40.914062 43.511719 41.359375 42.039062 C 41.804688 40.566406 42.324219 39.117188 42.914062 37.695312 C 43.503906 36.273438 44.160156 34.882812 44.886719 33.523438 C 45.613281 32.164062 46.402344 30.847656 47.257812 29.566406 C 48.113281 28.285156 49.03125 27.050781 50.007812 25.859375 C 50.984375 24.671875 52.015625 23.53125 53.105469 22.441406 C 54.195312 21.351562 55.332031 20.320312 56.523438 19.34375 C 57.714844 18.367188 58.949219 17.449219 60.230469 16.59375 C 61.507812 15.738281 62.828125 14.949219 64.1875 14.222656 C 65.542969 13.496094 66.933594 12.839844 68.355469 12.25 C 69.78125 11.660156 71.226562 11.144531 72.703125 10.695312 C 74.175781 10.25 75.667969 9.875 77.175781 9.574219 C 78.6875 9.273438 80.207031 9.050781 81.742188 8.898438 C 83.273438 8.746094 84.808594 8.671875 86.347656 8.671875 L 368.433594 8.671875 C 369.972656 8.671875 371.507812 8.746094 373.039062 8.898438 C 374.574219 9.050781 376.09375 9.273438 377.605469 9.574219 C 379.113281 9.875 380.605469 10.25 382.078125 10.695312 C 383.554688 11.144531 385 11.660156 386.421875 12.25 C 387.847656 12.839844 389.238281 13.496094 390.59375 14.222656 C 391.953125 14.949219 393.273438 15.738281 394.550781 16.59375 C 395.832031 17.449219 397.066406 18.367188 398.257812 19.34375 C 399.449219 20.320312 400.585938 21.351562 401.675781 22.441406 C 402.765625 23.53125 403.796875 24.671875 404.773438 25.859375 C 405.75 27.050781 406.667969 28.285156 407.523438 29.566406 C 408.378906 30.847656 409.167969 32.164062 409.894531 33.523438 C 410.621094 34.882812 411.277344 36.273438 411.867188 37.695312 C 412.457031 39.117188 412.976562 40.566406 413.421875 42.039062 C 413.867188 43.511719 414.242188 45.003906 414.542969 46.515625 C 414.84375 48.023438 415.070312 49.546875 415.21875 51.078125 C 415.371094 52.609375 415.445312 54.144531 415.445312 55.6875 Z M 415.445312 337.769531 " fill-opacity="1" fill-rule="nonzero"/></g></g><g clip-path="url(#91369d87f8)"><g clip-path="url(#1f292c2f12)"><path fill="#ffbd59" d="M 193.539062 109.910156 L 107.035156 109.910156 C 106.003906 109.910156 104.988281 110.007812 103.976562 110.210938 C 102.96875 110.410156 101.988281 110.707031 101.039062 111.101562 C 100.085938 111.496094 99.183594 111.976562 98.328125 112.550781 C 97.472656 113.121094 96.679688 113.769531 95.953125 114.5 C 95.226562 115.226562 94.578125 116.019531 94.003906 116.875 C 93.433594 117.730469 92.949219 118.632812 92.554688 119.582031 C 92.164062 120.535156 91.867188 121.515625 91.664062 122.523438 C 91.464844 123.53125 91.363281 124.550781 91.363281 125.582031 C 91.363281 126.609375 91.464844 127.628906 91.664062 128.636719 C 91.867188 129.648438 92.164062 130.625 92.554688 131.578125 C 92.949219 132.527344 93.433594 133.429688 94.003906 134.285156 C 94.578125 135.140625 95.226562 135.933594 95.953125 136.660156 C 96.679688 137.390625 97.472656 138.039062 98.328125 138.609375 C 99.183594 139.183594 100.085938 139.664062 101.039062 140.058594 C 101.988281 140.453125 102.96875 140.75 103.976562 140.949219 C 104.988281 141.152344 106.003906 141.25 107.035156 141.25 L 193.539062 141.25 C 194.570312 141.25 195.589844 141.152344 196.597656 140.949219 C 197.605469 140.75 198.585938 140.453125 199.539062 140.058594 C 200.488281 139.664062 201.390625 139.183594 202.246094 138.609375 C 203.101562 138.039062 203.894531 137.390625 204.621094 136.660156 C 205.347656 135.933594 206 135.140625 206.570312 134.285156 C 207.140625 133.429688 207.625 132.527344 208.019531 131.578125 C 208.414062 130.625 208.710938 129.648438 208.910156 128.636719 C 209.113281 127.628906 209.210938 126.609375 209.210938 125.582031 C 209.210938 124.550781 209.113281 123.53125 208.910156 122.523438 C 208.710938 121.515625 208.414062 120.535156 208.019531 119.582031 C 207.625 118.632812 207.140625 117.730469 206.570312 116.875 C 206 116.019531 205.347656 115.226562 204.621094 114.5 C 203.894531 113.769531 203.101562 113.121094 202.246094 112.550781 C 201.390625 111.976562 200.488281 111.496094 199.539062 111.101562 C 198.585938 110.707031 197.605469 110.410156 196.597656 110.210938 C 195.589844 110.007812 194.570312 109.910156 193.539062 109.910156 Z M 193.539062 109.910156 " fill-opacity="1" fill-rule="nonzero"/></g></g><g clip-path="url(#018e1ea3c2)"><g clip-path="url(#db8e7fa6b1)"><path fill="#ffbd59" d="M 347.746094 109.910156 L 320.164062 109.910156 L 320.164062 82.328125 C 320.164062 81.296875 320.0625 80.28125 319.863281 79.269531 C 319.664062 78.261719 319.367188 77.28125 318.972656 76.332031 C 318.578125 75.378906 318.09375 74.476562 317.523438 73.621094 C 316.953125 72.765625 316.300781 71.972656 315.574219 71.246094 C 314.847656 70.519531 314.054688 69.867188 313.199219 69.296875 C 312.34375 68.726562 311.441406 68.242188 310.492188 67.847656 C 309.539062 67.457031 308.558594 67.15625 307.550781 66.957031 C 306.542969 66.757812 305.523438 66.65625 304.492188 66.65625 C 303.464844 66.65625 302.445312 66.757812 301.4375 66.957031 C 300.425781 67.15625 299.445312 67.457031 298.496094 67.847656 C 297.546875 68.242188 296.640625 68.726562 295.785156 69.296875 C 294.929688 69.867188 294.140625 70.519531 293.410156 71.246094 C 292.683594 71.972656 292.035156 72.765625 291.464844 73.621094 C 290.890625 74.476562 290.410156 75.378906 290.015625 76.332031 C 289.621094 77.28125 289.324219 78.261719 289.125 79.269531 C 288.921875 80.28125 288.820312 81.296875 288.820312 82.328125 L 288.820312 109.910156 L 261.242188 109.910156 C 260.210938 109.910156 259.191406 110.007812 258.183594 110.210938 C 257.175781 110.410156 256.195312 110.707031 255.242188 111.101562 C 254.292969 111.496094 253.390625 111.976562 252.535156 112.550781 C 251.679688 113.121094 250.886719 113.769531 250.160156 114.5 C 249.429688 115.226562 248.78125 116.019531 248.210938 116.875 C 247.636719 117.730469 247.15625 118.632812 246.761719 119.582031 C 246.367188 120.535156 246.070312 121.515625 245.871094 122.523438 C 245.667969 123.53125 245.570312 124.550781 245.570312 125.582031 C 245.570312 126.609375 245.667969 127.628906 245.871094 128.636719 C 246.070312 129.648438 246.367188 130.625 246.761719 131.578125 C 247.15625 132.527344 247.636719 133.429688 248.210938 134.285156 C 248.78125 135.140625 249.429688 135.933594 250.160156 136.660156 C 250.886719 137.390625 251.679688 138.039062 252.535156 138.609375 C 253.390625 139.183594 254.292969 139.664062 255.242188 140.058594 C 256.195312 140.453125 257.175781 140.75 258.183594 140.949219 C 259.191406 141.152344 260.210938 141.25 261.242188 141.25 L 288.820312 141.25 L 288.820312 168.675781 C 288.820312 169.707031 288.921875 170.722656 289.125 171.734375 C 289.324219 172.742188 289.621094 173.722656 290.015625 174.671875 C 290.410156 175.625 290.890625 176.527344 291.464844 177.382812 C 292.035156 178.238281 292.683594 179.03125 293.410156 179.757812 C 294.140625 180.484375 294.929688 181.136719 295.785156 181.707031 C 296.640625 182.277344 297.546875 182.761719 298.496094 183.15625 C 299.445312 183.546875 300.425781 183.847656 301.4375 184.046875 C 302.445312 184.246094 303.464844 184.347656 304.492188 184.347656 C 305.523438 184.347656 306.542969 184.246094 307.550781 184.046875 C 308.558594 183.847656 309.539062 183.546875 310.492188 183.15625 C 311.441406 182.761719 312.34375 182.277344 313.199219 181.707031 C 314.054688 181.136719 314.847656 180.484375 315.574219 179.757812 C 316.300781 179.03125 316.953125 178.238281 317.523438 177.382812 C 318.09375 176.527344 318.578125 175.625 318.972656 174.671875 C 319.367188 173.722656 319.664062 172.742188 319.863281 171.734375 C 320.0625 170.722656 320.164062 169.707031 320.164062 168.675781 L 320.164062 141.25 L 347.746094 141.25 C 348.773438 141.25 349.792969 141.152344 350.804688 140.949219 C 351.8125 140.75 352.792969 140.453125 353.742188 140.058594 C 354.695312 139.664062 355.597656 139.183594 356.453125 138.609375 C 357.308594 138.039062 358.101562 137.390625 358.828125 136.660156 C 359.554688 135.933594 360.203125 135.140625 360.777344 134.285156 C 361.347656 133.429688 361.832031 132.527344 362.222656 131.578125 C 362.617188 130.625 362.914062 129.648438 363.117188 128.636719 C 363.316406 127.628906 363.417969 126.609375 363.417969 125.582031 C 363.417969 124.550781 363.316406 123.53125 363.117188 122.523438 C 362.914062 121.515625 362.617188 120.535156 362.222656 119.582031 C 361.832031 118.632812 361.347656 117.730469 360.777344 116.875 C 360.203125 116.019531 359.554688 115.226562 358.828125 114.5 C 358.101562 113.769531 357.308594 113.121094 356.453125 112.550781 C 355.597656 111.976562 354.695312 111.496094 353.742188 111.101562 C 352.792969 110.707031 351.8125 110.410156 350.804688 110.210938 C 349.792969 110.007812 348.773438 109.910156 347.746094 109.910156 Z M 347.746094 109.910156 " fill-opacity="1" fill-rule="nonzero"/></g></g><g clip-path="url(#5d37686103)"><g clip-path="url(#751d75b622)"><path fill="#ffbd59" d="M 191.972656 238.882812 C 191.609375 238.515625 191.230469 238.171875 190.832031 237.839844 C 190.433594 237.511719 190.019531 237.203125 189.59375 236.917969 C 189.164062 236.628906 188.722656 236.363281 188.269531 236.117188 C 187.816406 235.875 187.351562 235.652344 186.875 235.453125 C 186.398438 235.253906 185.914062 235.082031 185.417969 234.929688 C 184.925781 234.78125 184.425781 234.652344 183.917969 234.550781 C 183.414062 234.453125 182.902344 234.375 182.390625 234.324219 C 181.878906 234.273438 181.363281 234.25 180.847656 234.25 C 180.332031 234.25 179.816406 234.273438 179.300781 234.324219 C 178.789062 234.375 178.28125 234.453125 177.773438 234.550781 C 177.269531 234.652344 176.769531 234.78125 176.273438 234.929688 C 175.78125 235.082031 175.296875 235.253906 174.820312 235.453125 C 174.34375 235.652344 173.878906 235.875 173.425781 236.117188 C 172.96875 236.363281 172.527344 236.628906 172.101562 236.917969 C 171.671875 237.203125 171.257812 237.511719 170.863281 237.839844 C 170.464844 238.171875 170.082031 238.515625 169.71875 238.882812 L 150.289062 258.472656 L 130.699219 238.882812 C 129.972656 238.160156 129.179688 237.515625 128.328125 236.949219 C 127.472656 236.382812 126.574219 235.902344 125.625 235.511719 C 124.679688 235.121094 123.703125 234.824219 122.695312 234.625 C 121.691406 234.425781 120.675781 234.328125 119.648438 234.328125 C 118.625 234.328125 117.609375 234.425781 116.605469 234.625 C 115.597656 234.824219 114.621094 235.121094 113.675781 235.511719 C 112.726562 235.902344 111.828125 236.382812 110.972656 236.949219 C 110.121094 237.515625 109.328125 238.160156 108.601562 238.882812 C 108.234375 239.246094 107.886719 239.628906 107.558594 240.023438 C 107.230469 240.421875 106.921875 240.835938 106.632812 241.265625 C 106.347656 241.691406 106.082031 242.132812 105.835938 242.585938 C 105.589844 243.042969 105.371094 243.507812 105.171875 243.984375 C 104.972656 244.460938 104.796875 244.945312 104.648438 245.4375 C 104.496094 245.933594 104.371094 246.429688 104.269531 246.9375 C 104.167969 247.441406 104.09375 247.953125 104.042969 248.464844 C 103.992188 248.980469 103.964844 249.496094 103.964844 250.011719 C 103.964844 250.527344 103.992188 251.042969 104.042969 251.554688 C 104.09375 252.066406 104.167969 252.578125 104.269531 253.082031 C 104.371094 253.589844 104.496094 254.089844 104.648438 254.582031 C 104.796875 255.074219 104.972656 255.5625 105.171875 256.039062 C 105.371094 256.511719 105.589844 256.980469 105.835938 257.433594 C 106.082031 257.886719 106.347656 258.328125 106.632812 258.757812 C 106.921875 259.183594 107.230469 259.597656 107.558594 259.996094 C 107.886719 260.394531 108.234375 260.773438 108.601562 261.136719 L 128.035156 280.570312 L 108.601562 300.003906 C 108.234375 300.367188 107.886719 300.746094 107.558594 301.144531 C 107.230469 301.542969 106.921875 301.953125 106.632812 302.382812 C 106.347656 302.808594 106.082031 303.25 105.835938 303.707031 C 105.589844 304.160156 105.371094 304.625 105.171875 305.101562 C 104.972656 305.578125 104.796875 306.0625 104.648438 306.554688 C 104.496094 307.050781 104.371094 307.550781 104.269531 308.054688 C 104.167969 308.5625 104.09375 309.070312 104.042969 309.585938 C 103.992188 310.097656 103.964844 310.613281 103.964844 311.128906 C 103.964844 311.644531 103.992188 312.160156 104.042969 312.671875 C 104.09375 313.1875 104.167969 313.695312 104.269531 314.203125 C 104.371094 314.707031 104.496094 315.207031 104.648438 315.699219 C 104.796875 316.195312 104.972656 316.679688 105.171875 317.15625 C 105.371094 317.632812 105.589844 318.097656 105.835938 318.550781 C 106.082031 319.003906 106.347656 319.445312 106.632812 319.875 C 106.921875 320.304688 107.230469 320.714844 107.558594 321.113281 C 107.886719 321.511719 108.234375 321.890625 108.601562 322.253906 C 110.082031 323.722656 111.785156 324.847656 113.710938 325.636719 C 115.640625 326.425781 117.644531 326.8125 119.730469 326.800781 C 121.785156 326.792969 123.761719 326.394531 125.660156 325.605469 C 127.558594 324.820312 129.238281 323.703125 130.699219 322.253906 L 150.289062 302.824219 L 169.71875 322.097656 C 171.199219 323.566406 172.902344 324.691406 174.832031 325.480469 C 176.757812 326.265625 178.765625 326.65625 180.847656 326.644531 C 182.929688 326.65625 184.933594 326.265625 186.863281 325.480469 C 188.792969 324.691406 190.496094 323.566406 191.972656 322.097656 C 192.339844 321.734375 192.6875 321.355469 193.015625 320.957031 C 193.34375 320.558594 193.652344 320.148438 193.941406 319.71875 C 194.230469 319.289062 194.496094 318.847656 194.738281 318.394531 C 194.984375 317.941406 195.207031 317.476562 195.402344 317 C 195.601562 316.523438 195.777344 316.039062 195.925781 315.542969 C 196.078125 315.050781 196.203125 314.550781 196.304688 314.046875 C 196.40625 313.539062 196.480469 313.03125 196.53125 312.515625 C 196.582031 312.003906 196.609375 311.488281 196.609375 310.972656 C 196.609375 310.457031 196.582031 309.941406 196.53125 309.429688 C 196.480469 308.914062 196.40625 308.40625 196.304688 307.898438 C 196.203125 307.394531 196.078125 306.894531 195.925781 306.398438 C 195.777344 305.90625 195.601562 305.421875 195.402344 304.945312 C 195.207031 304.46875 194.984375 304.003906 194.738281 303.550781 C 194.496094 303.09375 194.230469 302.652344 193.941406 302.226562 C 193.652344 301.796875 193.34375 301.382812 193.015625 300.988281 C 192.6875 300.589844 192.339844 300.207031 191.972656 299.84375 L 172.382812 280.414062 L 191.972656 260.980469 C 192.695312 260.253906 193.339844 259.464844 193.910156 258.609375 C 194.476562 257.757812 194.957031 256.855469 195.347656 255.90625 C 195.738281 254.960938 196.03125 253.984375 196.230469 252.976562 C 196.429688 251.972656 196.53125 250.957031 196.53125 249.933594 C 196.53125 248.90625 196.429688 247.890625 196.230469 246.886719 C 196.03125 245.878906 195.738281 244.902344 195.347656 243.957031 C 194.957031 243.007812 194.476562 242.109375 193.910156 241.253906 C 193.339844 240.402344 192.695312 239.609375 191.972656 238.882812 Z M 191.972656 238.882812 " fill-opacity="1" fill-rule="nonzero"/></g></g><g clip-path="url(#afe2538851)"><g clip-path="url(#3f297909fb)"><path fill="#ffbd59" d="M 347.746094 233.867188 L 261.242188 233.867188 C 260.210938 233.867188 259.191406 233.96875 258.183594 234.171875 C 257.175781 234.371094 256.195312 234.667969 255.242188 235.0625 C 254.292969 235.457031 253.390625 235.9375 252.535156 236.511719 C 251.679688 237.082031 250.886719 237.730469 250.160156 238.460938 C 249.429688 239.1875 248.78125 239.976562 248.210938 240.832031 C 247.636719 241.6875 247.15625 242.59375 246.761719 243.542969 C 246.367188 244.492188 246.070312 245.472656 245.871094 246.484375 C 245.667969 247.492188 245.570312 248.511719 245.570312 249.539062 C 245.570312 250.570312 245.667969 251.589844 245.871094 252.597656 C 246.070312 253.605469 246.367188 254.585938 246.761719 255.539062 C 247.15625 256.488281 247.636719 257.390625 248.210938 258.246094 C 248.78125 259.101562 249.429688 259.894531 250.160156 260.621094 C 250.886719 261.347656 251.679688 262 252.535156 262.570312 C 253.390625 263.140625 254.292969 263.625 255.242188 264.019531 C 256.195312 264.414062 257.175781 264.710938 258.183594 264.910156 C 259.191406 265.109375 260.210938 265.210938 261.242188 265.210938 L 347.746094 265.210938 C 348.773438 265.210938 349.792969 265.109375 350.804688 264.910156 C 351.8125 264.710938 352.792969 264.414062 353.742188 264.019531 C 354.695312 263.625 355.597656 263.140625 356.453125 262.570312 C 357.308594 262 358.101562 261.347656 358.828125 260.621094 C 359.554688 259.894531 360.203125 259.101562 360.777344 258.246094 C 361.347656 257.390625 361.832031 256.488281 362.222656 255.539062 C 362.617188 254.585938 362.914062 253.605469 363.117188 252.597656 C 363.316406 251.589844 363.417969 250.570312 363.417969 249.539062 C 363.417969 248.511719 363.316406 247.492188 363.117188 246.484375 C 362.914062 245.472656 362.617188 244.492188 362.222656 243.542969 C 361.832031 242.59375 361.347656 241.6875 360.777344 240.832031 C 360.203125 239.976562 359.554688 239.1875 358.828125 238.460938 C 358.101562 237.730469 357.308594 237.082031 356.453125 236.511719 C 355.597656 235.9375 354.695312 235.457031 353.742188 235.0625 C 352.792969 234.667969 351.8125 234.371094 350.804688 234.171875 C 349.792969 233.96875 348.773438 233.867188 347.746094 233.867188 Z M 347.746094 233.867188 " fill-opacity="1" fill-rule="nonzero"/></g></g><g clip-path="url(#00840da983)"><g clip-path="url(#67e8ebfc12)"><path fill="#ffbd59" d="M 347.746094 289.816406 L 261.242188 289.816406 C 260.210938 289.816406 259.191406 289.914062 258.183594 290.117188 C 257.175781 290.316406 256.195312 290.613281 255.242188 291.007812 C 254.292969 291.402344 253.390625 291.886719 252.535156 292.457031 C 251.679688 293.027344 250.886719 293.679688 250.160156 294.40625 C 249.429688 295.132812 248.78125 295.925781 248.210938 296.78125 C 247.636719 297.636719 247.15625 298.539062 246.761719 299.488281 C 246.367188 300.441406 246.070312 301.421875 245.871094 302.429688 C 245.667969 303.4375 245.570312 304.457031 245.570312 305.488281 C 245.570312 306.515625 245.667969 307.535156 245.871094 308.542969 C 246.070312 309.554688 246.367188 310.535156 246.761719 311.484375 C 247.15625 312.433594 247.636719 313.335938 248.210938 314.195312 C 248.78125 315.050781 249.429688 315.839844 250.160156 316.566406 C 250.886719 317.296875 251.679688 317.945312 252.535156 318.515625 C 253.390625 319.089844 254.292969 319.570312 255.242188 319.964844 C 256.195312 320.359375 257.175781 320.65625 258.183594 320.855469 C 259.191406 321.058594 260.210938 321.160156 261.242188 321.160156 L 347.746094 321.160156 C 348.773438 321.160156 349.792969 321.058594 350.804688 320.855469 C 351.8125 320.65625 352.792969 320.359375 353.742188 319.964844 C 354.695312 319.570312 355.597656 319.089844 356.453125 318.515625 C 357.308594 317.945312 358.101562 317.296875 358.828125 316.566406 C 359.554688 315.839844 360.203125 315.050781 360.777344 314.195312 C 361.347656 313.335938 361.832031 312.433594 362.222656 311.484375 C 362.617188 310.535156 362.914062 309.554688 363.117188 308.542969 C 363.316406 307.535156 363.417969 306.515625 363.417969 305.488281 C 363.417969 304.457031 363.316406 303.4375 363.117188 302.429688 C 362.914062 301.421875 362.617188 300.441406 362.222656 299.488281 C 361.832031 298.539062 361.347656 297.636719 360.777344 296.78125 C 360.203125 295.925781 359.554688 295.132812 358.828125 294.40625 C 358.101562 293.679688 357.308594 293.027344 356.453125 292.457031 C 355.597656 291.886719 354.695312 291.402344 353.742188 291.007812 C 352.792969 290.613281 351.8125 290.316406 350.804688 290.117188 C 349.792969 289.914062 348.773438 289.816406 347.746094 289.816406 Z M 347.746094 289.816406 " fill-opacity="1" fill-rule="nonzero"/></g></g><g transform="matrix(1, 0, 0, 1, 0, 6)"><g clip-path="url(#532a136daa)"><g clip-path="url(#9cdd792cf7)"><g clip-path="url(#7bda523b14)"><g transform="matrix(1, 0, 0, 1, 0, -0.000000000000001776)"><g clip-path="url(#5cd2eb7790)"><g clip-path="url(#60460098ae)"><g clip-path="url(#5f41b8f389)"><path fill="#437bf5" d="M 0.800781 0.589844 L 449.566406 0.589844 L 449.566406 437.410156 L 0.800781 437.410156 Z M 0.800781 0.589844 " fill-opacity="1" fill-rule="nonzero"/></g></g></g></g></g></g><g clip-path="url(#e577e9150a)"><g clip-path="url(#5c780ff80b)"><path fill="#c2dcff" d="M 386.617188 192.113281 L 64.164062 192.113281 L 57.449219 198.832031 L 57.449219 306.4375 L 64.164062 313.15625 L 386.617188 313.15625 L 393.335938 306.4375 L 393.335938 198.832031 Z M 70.882812 205.550781 L 70.882812 299.71875 L 379.898438 299.71875 L 379.898438 205.550781 Z M 70.882812 205.550781 " fill-opacity="1" fill-rule="evenodd"/></g></g><g clip-path="url(#beef85eeaa)"><g clip-path="url(#dd0298a3ca)"><path fill="#c2dcff" d="M 332.042969 198.832031 L 345.476562 198.832031 L 345.476562 219.066406 L 332.042969 219.066406 Z M 332.042969 198.832031 " fill-opacity="1" fill-rule="evenodd"/></g></g><g clip-path="url(#5275faa11e)"><g clip-path="url(#b3b790fb93)"><path fill="#c2dcff" d="M 281.148438 198.832031 L 294.585938 198.832031 L 294.585938 219.066406 L 281.148438 219.066406 Z M 281.148438 198.832031 " fill-opacity="1" fill-rule="evenodd"/></g></g><g clip-path="url(#21d6d25290)"><g clip-path="url(#a994e27368)"><path fill="#c2dcff" d="M 230.269531 198.832031 L 243.703125 198.832031 L 243.703125 219.066406 L 230.269531 219.066406 Z M 230.269531 198.832031 " fill-opacity="1" fill-rule="evenodd"/></g></g><g clip-path="url(#f3810db99d)"><g clip-path="url(#7deb47bc3e)"><path fill="#c2dcff" d="M 179.375 198.832031 L 192.808594 198.832031 L 192.808594 219.066406 L 179.375 219.066406 Z M 179.375 198.832031 " fill-opacity="1" fill-rule="evenodd"/></g></g><g clip-path="url(#84a6239802)"><g clip-path="url(#c2621d125c)"><path fill="#c2dcff" d="M 128.480469 198.832031 L 141.917969 198.832031 L 141.917969 219.066406 L 128.480469 219.066406 Z M 128.480469 198.832031 " fill-opacity="1" fill-rule="evenodd"/></g></g><g clip-path="url(#139b9af340)"><g clip-path="url(#d4e23de7d6)"><path fill="#c2dcff" d="M 77.601562 198.832031 L 91.035156 198.832031 L 91.035156 219.066406 L 77.601562 219.066406 Z M 77.601562 198.832031 " fill-opacity="1" fill-rule="evenodd"/></g></g><g clip-path="url(#0544ffd0ec)"><g clip-path="url(#014977f361)"><path fill="#c2dcff" d="M 386.617188 264.839844 L 65.589844 264.839844 L 58.871094 271.558594 L 58.871094 303.078125 L 65.589844 309.796875 L 386.617188 309.796875 L 393.335938 303.078125 L 393.335938 271.558594 Z M 72.308594 278.277344 L 72.308594 296.359375 L 379.898438 296.359375 L 379.898438 278.277344 Z M 72.308594 278.277344 " fill-opacity="1" fill-rule="evenodd"/></g></g><g clip-path="url(#e0253bd4fd)"><g clip-path="url(#fe1a95137d)"><path fill="#c2dcff" d="M 379.898438 124.9375 L 393.335938 124.9375 L 393.335938 165.242188 L 379.898438 165.242188 Z M 379.898438 124.9375 " fill-opacity="1" fill-rule="evenodd"/></g></g><g clip-path="url(#be54e7e596)"><g clip-path="url(#99430f172d)"><path fill="#c2dcff" d="M 58.871094 124.9375 L 72.308594 124.9375 L 72.308594 165.242188 L 58.871094 165.242188 Z M 58.871094 124.9375 " fill-opacity="1" fill-rule="evenodd"/></g></g><g clip-path="url(#b374b8fa04)"><g clip-path="url(#22b1d6272a)"><path fill="#c2dcff" d="M 65.589844 138.371094 L 387.398438 138.371094 L 387.398438 151.808594 L 65.589844 151.808594 Z M 65.589844 138.371094 " fill-opacity="1" fill-rule="evenodd"/></g></g><g clip-path="url(#d622ab59bd)"><g clip-path="url(#1738994812)"><path fill="#c2dcff" d="M 358.914062 198.832031 L 372.347656 198.832031 L 372.347656 239.136719 L 358.914062 239.136719 Z M 358.914062 198.832031 " fill-opacity="1" fill-rule="evenodd"/></g></g><g clip-path="url(#454cfbf1bd)"><g clip-path="url(#c1454ff5ac)"><path fill="#c2dcff" d="M 308.019531 198.832031 L 321.457031 198.832031 L 321.457031 239.136719 L 308.019531 239.136719 Z M 308.019531 198.832031 " fill-opacity="1" fill-rule="evenodd"/></g></g><g clip-path="url(#9816b17cb4)"><g clip-path="url(#807cf34e52)"><path fill="#c2dcff" d="M 257.140625 198.832031 L 270.574219 198.832031 L 270.574219 239.136719 L 257.140625 239.136719 Z M 257.140625 198.832031 " fill-opacity="1" fill-rule="evenodd"/></g></g><g clip-path="url(#c27152f56e)"><g clip-path="url(#038a50685f)"><path fill="#c2dcff" d="M 206.246094 198.832031 L 219.679688 198.832031 L 219.679688 239.136719 L 206.246094 239.136719 Z M 206.246094 198.832031 " fill-opacity="1" fill-rule="evenodd"/></g></g><g clip-path="url(#d684b69653)"><g clip-path="url(#c2a5f8b844)"><path fill="#c2dcff" d="M 155.351562 198.832031 L 168.789062 198.832031 L 168.789062 239.136719 L 155.351562 239.136719 Z M 155.351562 198.832031 " fill-opacity="1" fill-rule="evenodd"/></g></g><g clip-path="url(#269c74ef79)"><g clip-path="url(#4dddd1b184)"><path fill="#c2dcff" d="M 104.472656 198.832031 L 117.90625 198.832031 L 117.90625 239.136719 L 104.472656 239.136719 Z M 104.472656 198.832031 " fill-opacity="1" fill-rule="evenodd"/></g></g></g></g></svg>