<svg xmlns="http://www.w3.org/2000/svg" xmlns:xlink="http://www.w3.org/1999/xlink" width="600" zoomAndPan="magnify" viewBox="0 0 450 449.999984" height="600" preserveAspectRatio="xMidYMid meet" version="1.0"><defs><clipPath id="7b253300ed"><path d="M 43 166 L 180 166 L 180 298 L 43 298 Z M 43 166 " clip-rule="nonzero"/></clipPath><clipPath id="b01248d226"><path d="M 23.984375 215.738281 C 23.984375 240.785156 33.933594 264.804688 51.640625 282.511719 C 69.351562 300.222656 93.371094 310.171875 118.414062 310.171875 L 331.585938 310.171875 C 356.628906 310.171875 380.648438 300.222656 398.359375 282.511719 C 416.066406 264.804688 426.015625 240.785156 426.015625 215.738281 C 426.015625 190.695312 416.066406 166.675781 398.359375 148.964844 C 380.648438 131.257812 356.628906 121.308594 331.585938 121.308594 L 118.414062 121.308594 C 93.371094 121.308594 69.351562 131.257812 51.640625 148.964844 C 33.933594 166.675781 23.984375 190.695312 23.984375 215.738281 Z M 23.984375 215.738281 " clip-rule="nonzero"/></clipPath><clipPath id="de3edbc16e"><path d="M 50 159 L 184 159 L 184 294 L 50 294 Z M 50 159 " clip-rule="nonzero"/></clipPath><clipPath id="febf5d9d8b"><path d="M 23.984375 215.738281 C 23.984375 240.785156 33.933594 264.804688 51.640625 282.511719 C 69.351562 300.222656 93.371094 310.171875 118.414062 310.171875 L 331.585938 310.171875 C 356.628906 310.171875 380.648438 300.222656 398.359375 282.511719 C 416.066406 264.804688 426.015625 240.785156 426.015625 215.738281 C 426.015625 190.695312 416.066406 166.675781 398.359375 148.964844 C 380.648438 131.257812 356.628906 121.308594 331.585938 121.308594 L 118.414062 121.308594 C 93.371094 121.308594 69.351562 131.257812 51.640625 148.964844 C 33.933594 166.675781 23.984375 190.695312 23.984375 215.738281 Z M 23.984375 215.738281 " clip-rule="nonzero"/></clipPath><clipPath id="df4788e6c9"><path d="M 251 208 L 425.984375 208 L 425.984375 249 L 251 249 Z M 251 208 " clip-rule="nonzero"/></clipPath><clipPath id="672c175c3f"><path d="M 23.984375 215.738281 C 23.984375 240.785156 33.933594 264.804688 51.640625 282.511719 C 69.351562 300.222656 93.371094 310.171875 118.414062 310.171875 L 331.585938 310.171875 C 356.628906 310.171875 380.648438 300.222656 398.359375 282.511719 C 416.066406 264.804688 426.015625 240.785156 426.015625 215.738281 C 426.015625 190.695312 416.066406 166.675781 398.359375 148.964844 C 380.648438 131.257812 356.628906 121.308594 331.585938 121.308594 L 118.414062 121.308594 C 93.371094 121.308594 69.351562 131.257812 51.640625 148.964844 C 33.933594 166.675781 23.984375 190.695312 23.984375 215.738281 Z M 23.984375 215.738281 " clip-rule="nonzero"/></clipPath><clipPath id="d4a57cd185"><path d="M 319 147 L 364 147 L 364 190 L 319 190 Z M 319 147 " clip-rule="nonzero"/></clipPath><clipPath id="d570acec50"><path d="M 23.984375 215.738281 C 23.984375 240.785156 33.933594 264.804688 51.640625 282.511719 C 69.351562 300.222656 93.371094 310.171875 118.414062 310.171875 L 331.585938 310.171875 C 356.628906 310.171875 380.648438 300.222656 398.359375 282.511719 C 416.066406 264.804688 426.015625 240.785156 426.015625 215.738281 C 426.015625 190.695312 416.066406 166.675781 398.359375 148.964844 C 380.648438 131.257812 356.628906 121.308594 331.585938 121.308594 L 118.414062 121.308594 C 93.371094 121.308594 69.351562 131.257812 51.640625 148.964844 C 33.933594 166.675781 23.984375 190.695312 23.984375 215.738281 Z M 23.984375 215.738281 " clip-rule="nonzero"/></clipPath><clipPath id="b459a394da"><path d="M 317 267 L 361 267 L 361 309.976562 L 317 309.976562 Z M 317 267 " clip-rule="nonzero"/></clipPath><clipPath id="7463d97cf0"><path d="M 23.984375 215.738281 C 23.984375 240.785156 33.933594 264.804688 51.640625 282.511719 C 69.351562 300.222656 93.371094 310.171875 118.414062 310.171875 L 331.585938 310.171875 C 356.628906 310.171875 380.648438 300.222656 398.359375 282.511719 C 416.066406 264.804688 426.015625 240.785156 426.015625 215.738281 C 426.015625 190.695312 416.066406 166.675781 398.359375 148.964844 C 380.648438 131.257812 356.628906 121.308594 331.585938 121.308594 L 118.414062 121.308594 C 93.371094 121.308594 69.351562 131.257812 51.640625 148.964844 C 33.933594 166.675781 23.984375 190.695312 23.984375 215.738281 Z M 23.984375 215.738281 " clip-rule="nonzero"/></clipPath><clipPath id="84bed88bb7"><path d="M 77.871094 45 L 384.621094 45 L 384.621094 357.75 L 77.871094 357.75 Z M 77.871094 45 " clip-rule="nonzero"/></clipPath><clipPath id="66e1c59945"><path d="M 77.871094 198.347656 L 77.871094 204.082031 C 77.871094 244.753906 94.027344 283.757812 122.785156 312.515625 C 151.542969 341.273438 190.546875 357.429688 231.21875 357.429688 C 271.890625 357.429688 310.894531 341.273438 339.652344 312.515625 C 368.410156 283.757812 384.566406 244.753906 384.566406 204.082031 L 384.566406 198.347656 C 384.566406 157.679688 368.410156 118.671875 339.652344 89.914062 C 310.894531 61.15625 271.890625 45 231.21875 45 C 190.546875 45 151.542969 61.15625 122.785156 89.914062 C 94.027344 118.671875 77.871094 157.679688 77.871094 198.347656 Z M 77.871094 198.347656 " clip-rule="nonzero"/></clipPath><clipPath id="c598698860"><path d="M 91 109 L 210 109 L 210 142 L 91 142 Z M 91 109 " clip-rule="nonzero"/></clipPath><clipPath id="0342cce764"><path d="M 77.871094 198.347656 L 77.871094 204.082031 C 77.871094 244.753906 94.027344 283.757812 122.785156 312.515625 C 151.542969 341.273438 190.546875 357.429688 231.21875 357.429688 C 271.890625 357.429688 310.894531 341.273438 339.652344 312.515625 C 368.410156 283.757812 384.566406 244.753906 384.566406 204.082031 L 384.566406 198.347656 C 384.566406 157.679688 368.410156 118.671875 339.652344 89.914062 C 310.894531 61.15625 271.890625 45 231.21875 45 C 190.546875 45 151.542969 61.15625 122.785156 89.914062 C 94.027344 118.671875 77.871094 157.679688 77.871094 198.347656 Z M 77.871094 198.347656 " clip-rule="nonzero"/></clipPath><clipPath id="38bcf729e5"><path d="M 245 66 L 364 66 L 364 185 L 245 185 Z M 245 66 " clip-rule="nonzero"/></clipPath><clipPath id="f8048e3430"><path d="M 77.871094 198.347656 L 77.871094 204.082031 C 77.871094 244.753906 94.027344 283.757812 122.785156 312.515625 C 151.542969 341.273438 190.546875 357.429688 231.21875 357.429688 C 271.890625 357.429688 310.894531 341.273438 339.652344 312.515625 C 368.410156 283.757812 384.566406 244.753906 384.566406 204.082031 L 384.566406 198.347656 C 384.566406 157.679688 368.410156 118.671875 339.652344 89.914062 C 310.894531 61.15625 271.890625 45 231.21875 45 C 190.546875 45 151.542969 61.15625 122.785156 89.914062 C 94.027344 118.671875 77.871094 157.679688 77.871094 198.347656 Z M 77.871094 198.347656 " clip-rule="nonzero"/></clipPath><clipPath id="914c9390c8"><path d="M 103 234 L 197 234 L 197 327 L 103 327 Z M 103 234 " clip-rule="nonzero"/></clipPath><clipPath id="8d6ef66a91"><path d="M 77.871094 198.347656 L 77.871094 204.082031 C 77.871094 244.753906 94.027344 283.757812 122.785156 312.515625 C 151.542969 341.273438 190.546875 357.429688 231.21875 357.429688 C 271.890625 357.429688 310.894531 341.273438 339.652344 312.515625 C 368.410156 283.757812 384.566406 244.753906 384.566406 204.082031 L 384.566406 198.347656 C 384.566406 157.679688 368.410156 118.671875 339.652344 89.914062 C 310.894531 61.15625 271.890625 45 231.21875 45 C 190.546875 45 151.542969 61.15625 122.785156 89.914062 C 94.027344 118.671875 77.871094 157.679688 77.871094 198.347656 Z M 77.871094 198.347656 " clip-rule="nonzero"/></clipPath><clipPath id="c34e68f463"><path d="M 245 233 L 364 233 L 364 266 L 245 266 Z M 245 233 " clip-rule="nonzero"/></clipPath><clipPath id="87594212db"><path d="M 77.871094 198.347656 L 77.871094 204.082031 C 77.871094 244.753906 94.027344 283.757812 122.785156 312.515625 C 151.542969 341.273438 190.546875 357.429688 231.21875 357.429688 C 271.890625 357.429688 310.894531 341.273438 339.652344 312.515625 C 368.410156 283.757812 384.566406 244.753906 384.566406 204.082031 L 384.566406 198.347656 C 384.566406 157.679688 368.410156 118.671875 339.652344 89.914062 C 310.894531 61.15625 271.890625 45 231.21875 45 C 190.546875 45 151.542969 61.15625 122.785156 89.914062 C 94.027344 118.671875 77.871094 157.679688 77.871094 198.347656 Z M 77.871094 198.347656 " clip-rule="nonzero"/></clipPath><clipPath id="fa417a3750"><path d="M 245 289 L 364 289 L 364 322 L 245 322 Z M 245 289 " clip-rule="nonzero"/></clipPath><clipPath id="b24e80bc9b"><path d="M 77.871094 198.347656 L 77.871094 204.082031 C 77.871094 244.753906 94.027344 283.757812 122.785156 312.515625 C 151.542969 341.273438 190.546875 357.429688 231.21875 357.429688 C 271.890625 357.429688 310.894531 341.273438 339.652344 312.515625 C 368.410156 283.757812 384.566406 244.753906 384.566406 204.082031 L 384.566406 198.347656 C 384.566406 157.679688 368.410156 118.671875 339.652344 89.914062 C 310.894531 61.15625 271.890625 45 231.21875 45 C 190.546875 45 151.542969 61.15625 122.785156 89.914062 C 94.027344 118.671875 77.871094 157.679688 77.871094 198.347656 Z M 77.871094 198.347656 " clip-rule="nonzero"/></clipPath><clipPath id="9e4a7e498f"><path d="M 57.382812 198 L 393.382812 198 L 393.382812 319.160156 L 57.382812 319.160156 Z M 57.382812 198 " clip-rule="nonzero"/></clipPath><clipPath id="7117ae6e91"><path d="M 57.382812 225 C 57.382812 276.964844 99.507812 319.089844 151.472656 319.089844 L 299.328125 319.089844 C 351.292969 319.089844 393.417969 276.964844 393.417969 225 C 393.417969 173.035156 351.292969 130.910156 299.328125 130.910156 L 151.472656 130.910156 C 99.507812 130.910156 57.382812 173.035156 57.382812 225 Z M 57.382812 225 " clip-rule="nonzero"/></clipPath><clipPath id="07efd63efd"><path d="M 332 204 L 346 204 L 346 226 L 332 226 Z M 332 204 " clip-rule="nonzero"/></clipPath><clipPath id="ba637b908e"><path d="M 57.382812 225 C 57.382812 276.964844 99.507812 319.089844 151.472656 319.089844 L 299.328125 319.089844 C 351.292969 319.089844 393.417969 276.964844 393.417969 225 C 393.417969 173.035156 351.292969 130.910156 299.328125 130.910156 L 151.472656 130.910156 C 99.507812 130.910156 57.382812 173.035156 57.382812 225 Z M 57.382812 225 " clip-rule="nonzero"/></clipPath><clipPath id="e5cf6a9437"><path d="M 281 204 L 295 204 L 295 226 L 281 226 Z M 281 204 " clip-rule="nonzero"/></clipPath><clipPath id="557ec432c2"><path d="M 57.382812 225 C 57.382812 276.964844 99.507812 319.089844 151.472656 319.089844 L 299.328125 319.089844 C 351.292969 319.089844 393.417969 276.964844 393.417969 225 C 393.417969 173.035156 351.292969 130.910156 299.328125 130.910156 L 151.472656 130.910156 C 99.507812 130.910156 57.382812 173.035156 57.382812 225 Z M 57.382812 225 " clip-rule="nonzero"/></clipPath><clipPath id="471d29deec"><path d="M 230 204 L 244 204 L 244 226 L 230 226 Z M 230 204 " clip-rule="nonzero"/></clipPath><clipPath id="a7bb0f386a"><path d="M 57.382812 225 C 57.382812 276.964844 99.507812 319.089844 151.472656 319.089844 L 299.328125 319.089844 C 351.292969 319.089844 393.417969 276.964844 393.417969 225 C 393.417969 173.035156 351.292969 130.910156 299.328125 130.910156 L 151.472656 130.910156 C 99.507812 130.910156 57.382812 173.035156 57.382812 225 Z M 57.382812 225 " clip-rule="nonzero"/></clipPath><clipPath id="8be08853d9"><path d="M 179 204 L 193 204 L 193 226 L 179 226 Z M 179 204 " clip-rule="nonzero"/></clipPath><clipPath id="aaa1cec6bd"><path d="M 57.382812 225 C 57.382812 276.964844 99.507812 319.089844 151.472656 319.089844 L 299.328125 319.089844 C 351.292969 319.089844 393.417969 276.964844 393.417969 225 C 393.417969 173.035156 351.292969 130.910156 299.328125 130.910156 L 151.472656 130.910156 C 99.507812 130.910156 57.382812 173.035156 57.382812 225 Z M 57.382812 225 " clip-rule="nonzero"/></clipPath><clipPath id="4d6a0b67af"><path d="M 128 204 L 142 204 L 142 226 L 128 226 Z M 128 204 " clip-rule="nonzero"/></clipPath><clipPath id="e340b76929"><path d="M 57.382812 225 C 57.382812 276.964844 99.507812 319.089844 151.472656 319.089844 L 299.328125 319.089844 C 351.292969 319.089844 393.417969 276.964844 393.417969 225 C 393.417969 173.035156 351.292969 130.910156 299.328125 130.910156 L 151.472656 130.910156 C 99.507812 130.910156 57.382812 173.035156 57.382812 225 Z M 57.382812 225 " clip-rule="nonzero"/></clipPath><clipPath id="a934fae0a2"><path d="M 77 204 L 91 204 L 91 226 L 77 226 Z M 77 204 " clip-rule="nonzero"/></clipPath><clipPath id="093baa51fd"><path d="M 57.382812 225 C 57.382812 276.964844 99.507812 319.089844 151.472656 319.089844 L 299.328125 319.089844 C 351.292969 319.089844 393.417969 276.964844 393.417969 225 C 393.417969 173.035156 351.292969 130.910156 299.328125 130.910156 L 151.472656 130.910156 C 99.507812 130.910156 57.382812 173.035156 57.382812 225 Z M 57.382812 225 " clip-rule="nonzero"/></clipPath><clipPath id="20d3453e9d"><path d="M 58 270 L 393.382812 270 L 393.382812 316 L 58 316 Z M 58 270 " clip-rule="nonzero"/></clipPath><clipPath id="3734cb005d"><path d="M 57.382812 225 C 57.382812 276.964844 99.507812 319.089844 151.472656 319.089844 L 299.328125 319.089844 C 351.292969 319.089844 393.417969 276.964844 393.417969 225 C 393.417969 173.035156 351.292969 130.910156 299.328125 130.910156 L 151.472656 130.910156 C 99.507812 130.910156 57.382812 173.035156 57.382812 225 Z M 57.382812 225 " clip-rule="nonzero"/></clipPath><clipPath id="6e75d5cc4c"><path d="M 379 130.910156 L 393.382812 130.910156 L 393.382812 172 L 379 172 Z M 379 130.910156 " clip-rule="nonzero"/></clipPath><clipPath id="e5eadc1434"><path d="M 57.382812 225 C 57.382812 276.964844 99.507812 319.089844 151.472656 319.089844 L 299.328125 319.089844 C 351.292969 319.089844 393.417969 276.964844 393.417969 225 C 393.417969 173.035156 351.292969 130.910156 299.328125 130.910156 L 151.472656 130.910156 C 99.507812 130.910156 57.382812 173.035156 57.382812 225 Z M 57.382812 225 " clip-rule="nonzero"/></clipPath><clipPath id="26e650f097"><path d="M 58 130.910156 L 73 130.910156 L 73 172 L 58 172 Z M 58 130.910156 " clip-rule="nonzero"/></clipPath><clipPath id="d87d79d8ec"><path d="M 57.382812 225 C 57.382812 276.964844 99.507812 319.089844 151.472656 319.089844 L 299.328125 319.089844 C 351.292969 319.089844 393.417969 276.964844 393.417969 225 C 393.417969 173.035156 351.292969 130.910156 299.328125 130.910156 L 151.472656 130.910156 C 99.507812 130.910156 57.382812 173.035156 57.382812 225 Z M 57.382812 225 " clip-rule="nonzero"/></clipPath><clipPath id="94b43975b9"><path d="M 65 144 L 388 144 L 388 158 L 65 158 Z M 65 144 " clip-rule="nonzero"/></clipPath><clipPath id="25f2e4801d"><path d="M 57.382812 225 C 57.382812 276.964844 99.507812 319.089844 151.472656 319.089844 L 299.328125 319.089844 C 351.292969 319.089844 393.417969 276.964844 393.417969 225 C 393.417969 173.035156 351.292969 130.910156 299.328125 130.910156 L 151.472656 130.910156 C 99.507812 130.910156 57.382812 173.035156 57.382812 225 Z M 57.382812 225 " clip-rule="nonzero"/></clipPath><clipPath id="6bd860c1d0"><path d="M 358 204 L 373 204 L 373 246 L 358 246 Z M 358 204 " clip-rule="nonzero"/></clipPath><clipPath id="9ffc644671"><path d="M 57.382812 225 C 57.382812 276.964844 99.507812 319.089844 151.472656 319.089844 L 299.328125 319.089844 C 351.292969 319.089844 393.417969 276.964844 393.417969 225 C 393.417969 173.035156 351.292969 130.910156 299.328125 130.910156 L 151.472656 130.910156 C 99.507812 130.910156 57.382812 173.035156 57.382812 225 Z M 57.382812 225 " clip-rule="nonzero"/></clipPath><clipPath id="ab370bc1e3"><path d="M 308 204 L 322 204 L 322 246 L 308 246 Z M 308 204 " clip-rule="nonzero"/></clipPath><clipPath id="a51a1c9469"><path d="M 57.382812 225 C 57.382812 276.964844 99.507812 319.089844 151.472656 319.089844 L 299.328125 319.089844 C 351.292969 319.089844 393.417969 276.964844 393.417969 225 C 393.417969 173.035156 351.292969 130.910156 299.328125 130.910156 L 151.472656 130.910156 C 99.507812 130.910156 57.382812 173.035156 57.382812 225 Z M 57.382812 225 " clip-rule="nonzero"/></clipPath><clipPath id="d9a81fb41c"><path d="M 257 204 L 271 204 L 271 246 L 257 246 Z M 257 204 " clip-rule="nonzero"/></clipPath><clipPath id="b3ad48c89b"><path d="M 57.382812 225 C 57.382812 276.964844 99.507812 319.089844 151.472656 319.089844 L 299.328125 319.089844 C 351.292969 319.089844 393.417969 276.964844 393.417969 225 C 393.417969 173.035156 351.292969 130.910156 299.328125 130.910156 L 151.472656 130.910156 C 99.507812 130.910156 57.382812 173.035156 57.382812 225 Z M 57.382812 225 " clip-rule="nonzero"/></clipPath><clipPath id="e54ecf707e"><path d="M 206 204 L 220 204 L 220 246 L 206 246 Z M 206 204 " clip-rule="nonzero"/></clipPath><clipPath id="193af6d821"><path d="M 57.382812 225 C 57.382812 276.964844 99.507812 319.089844 151.472656 319.089844 L 299.328125 319.089844 C 351.292969 319.089844 393.417969 276.964844 393.417969 225 C 393.417969 173.035156 351.292969 130.910156 299.328125 130.910156 L 151.472656 130.910156 C 99.507812 130.910156 57.382812 173.035156 57.382812 225 Z M 57.382812 225 " clip-rule="nonzero"/></clipPath><clipPath id="f46d00f864"><path d="M 155 204 L 169 204 L 169 246 L 155 246 Z M 155 204 " clip-rule="nonzero"/></clipPath><clipPath id="f929972f2d"><path d="M 57.382812 225 C 57.382812 276.964844 99.507812 319.089844 151.472656 319.089844 L 299.328125 319.089844 C 351.292969 319.089844 393.417969 276.964844 393.417969 225 C 393.417969 173.035156 351.292969 130.910156 299.328125 130.910156 L 151.472656 130.910156 C 99.507812 130.910156 57.382812 173.035156 57.382812 225 Z M 57.382812 225 " clip-rule="nonzero"/></clipPath><clipPath id="099641fde7"><path d="M 104 204 L 118 204 L 118 246 L 104 246 Z M 104 204 " clip-rule="nonzero"/></clipPath><clipPath id="cfea9c832f"><path d="M 57.382812 225 C 57.382812 276.964844 99.507812 319.089844 151.472656 319.089844 L 299.328125 319.089844 C 351.292969 319.089844 393.417969 276.964844 393.417969 225 C 393.417969 173.035156 351.292969 130.910156 299.328125 130.910156 L 151.472656 130.910156 C 99.507812 130.910156 57.382812 173.035156 57.382812 225 Z M 57.382812 225 " clip-rule="nonzero"/></clipPath><clipPath id="faf39de701"><path d="M 0 0.199219 L 450 0.199219 L 450 437.800781 L 0 437.800781 Z M 0 0.199219 " clip-rule="nonzero"/></clipPath><clipPath id="450df3a0ae"><path d="M 449.933594 54.941406 L 449.933594 383.058594 C 449.933594 397.578125 444.164062 411.5 433.898438 421.765625 C 423.632812 432.03125 409.707031 437.800781 395.191406 437.800781 L 54.742188 437.800781 C 40.222656 437.800781 26.300781 432.03125 16.035156 421.765625 C 5.765625 411.5 0 397.578125 0 383.058594 L 0 54.941406 C 0 40.421875 5.765625 26.5 16.035156 16.234375 C 26.300781 5.96875 40.222656 0.199219 54.742188 0.199219 L 395.191406 0.199219 C 409.707031 0.199219 423.632812 5.96875 433.898438 16.234375 C 444.164062 26.5 449.933594 40.421875 449.933594 54.941406 Z M 449.933594 54.941406 " clip-rule="nonzero"/></clipPath><clipPath id="2c70517a05"><path d="M 0 0.199219 L 450 0.199219 L 450 437.800781 L 0 437.800781 Z M 0 0.199219 " clip-rule="nonzero"/></clipPath><clipPath id="a25c2a06e6"><path d="M 449.933594 54.941406 L 449.933594 383.058594 C 449.933594 397.578125 444.164062 411.5 433.898438 421.765625 C 423.632812 432.03125 409.707031 437.800781 395.191406 437.800781 L 54.742188 437.800781 C 40.222656 437.800781 26.300781 432.03125 16.035156 421.765625 C 5.765625 411.5 0 397.578125 0 383.058594 L 0 54.941406 C 0 40.421875 5.765625 26.5 16.035156 16.234375 C 26.300781 5.96875 40.222656 0.199219 54.742188 0.199219 L 395.191406 0.199219 C 409.707031 0.199219 423.632812 5.96875 433.898438 16.234375 C 444.164062 26.5 449.933594 40.421875 449.933594 54.941406 Z M 449.933594 54.941406 " clip-rule="nonzero"/></clipPath><clipPath id="510426fe5f"><rect x="0" width="450" y="0" height="438"/></clipPath><clipPath id="ffec6753ef"><path d="M 102 68.238281 L 348 68.238281 L 348 361 L 102 361 Z M 102 68.238281 " clip-rule="nonzero"/></clipPath><clipPath id="b1be2c942c"><path d="M 99.867188 122.988281 L 99.867188 305.496094 C 99.867188 320.015625 105.636719 333.941406 115.902344 344.207031 C 126.171875 354.476562 140.097656 360.246094 154.617188 360.246094 L 295.382812 360.246094 C 309.902344 360.246094 323.828125 354.476562 334.097656 344.207031 C 344.363281 333.941406 350.132812 320.015625 350.132812 305.496094 L 350.132812 122.988281 C 350.132812 108.464844 344.363281 94.539062 334.097656 84.273438 C 323.828125 74.003906 309.902344 68.238281 295.382812 68.238281 L 154.617188 68.238281 C 140.097656 68.238281 126.171875 74.003906 115.902344 84.273438 C 105.636719 94.539062 99.867188 108.464844 99.867188 122.988281 Z M 99.867188 122.988281 " clip-rule="nonzero"/></clipPath><clipPath id="9358b3b0dc"><path d="M 172 230 L 223 230 L 223 298 L 172 298 Z M 172 230 " clip-rule="nonzero"/></clipPath><clipPath id="87049cfdae"><path d="M 99.867188 122.988281 L 99.867188 305.496094 C 99.867188 320.015625 105.636719 333.941406 115.902344 344.207031 C 126.171875 354.476562 140.097656 360.246094 154.617188 360.246094 L 295.382812 360.246094 C 309.902344 360.246094 323.828125 354.476562 334.097656 344.207031 C 344.363281 333.941406 350.132812 320.015625 350.132812 305.496094 L 350.132812 122.988281 C 350.132812 108.464844 344.363281 94.539062 334.097656 84.273438 C 323.828125 74.003906 309.902344 68.238281 295.382812 68.238281 L 154.617188 68.238281 C 140.097656 68.238281 126.171875 74.003906 115.902344 84.273438 C 105.636719 94.539062 99.867188 108.464844 99.867188 122.988281 Z M 99.867188 122.988281 " clip-rule="nonzero"/></clipPath><clipPath id="3023f220ef"><path d="M 222 230 L 281 230 L 281 298 L 222 298 Z M 222 230 " clip-rule="nonzero"/></clipPath><clipPath id="ec94839633"><path d="M 99.867188 122.988281 L 99.867188 305.496094 C 99.867188 320.015625 105.636719 333.941406 115.902344 344.207031 C 126.171875 354.476562 140.097656 360.246094 154.617188 360.246094 L 295.382812 360.246094 C 309.902344 360.246094 323.828125 354.476562 334.097656 344.207031 C 344.363281 333.941406 350.132812 320.015625 350.132812 305.496094 L 350.132812 122.988281 C 350.132812 108.464844 344.363281 94.539062 334.097656 84.273438 C 323.828125 74.003906 309.902344 68.238281 295.382812 68.238281 L 154.617188 68.238281 C 140.097656 68.238281 126.171875 74.003906 115.902344 84.273438 C 105.636719 94.539062 99.867188 108.464844 99.867188 122.988281 Z M 99.867188 122.988281 " clip-rule="nonzero"/></clipPath><clipPath id="5580631f8a"><rect x="0" width="450" y="0" height="438"/></clipPath></defs><path fill="#ff914d" d="M 380.058594 200.023438 C 347.386719 202.175781 258.429688 188.113281 250.457031 208.632812 C 246.789062 218.121094 250.515625 228.121094 259.703125 230.941406 C 264.609375 232.457031 278.402344 232.089844 283.980469 232.152344 C 314.804688 232.484375 344.75 233.726562 371.332031 233.304688 C 395.457031 232.910156 407.335938 229.820312 407.761719 211.816406 C 408.246094 202.207031 393.789062 199.023438 380.058594 200.023438 " fill-opacity="1" fill-rule="nonzero"/><path fill="#ff914d" d="M 138.191406 267.160156 C 136.34375 234.457031 151.285156 145.648438 130.828125 137.464844 C 121.371094 133.707031 111.335938 137.34375 108.425781 146.46875 C 106.882812 151.378906 107.09375 165.167969 106.972656 170.746094 C 106.367188 201.570312 104.820312 231.484375 104.972656 258.066406 C 105.125 282.191406 108.09375 294.136719 126.097656 294.679688 C 135.765625 295.285156 139.070312 280.890625 138.191406 267.160156 " fill-opacity="1" fill-rule="nonzero"/><path fill="#ff914d" d="M 175.015625 193.082031 C 142.34375 195.234375 53.386719 181.171875 45.414062 201.691406 C 41.746094 211.179688 45.476562 221.179688 54.660156 224 C 59.570312 225.515625 73.359375 225.152344 78.9375 225.210938 C 109.761719 225.546875 139.707031 226.789062 166.289062 226.363281 C 190.414062 225.96875 202.296875 222.878906 202.71875 204.875 C 203.203125 195.234375 188.746094 192.082031 175.015625 193.082031 " fill-opacity="1" fill-rule="nonzero"/><g clip-path="url(#7b253300ed)"><g clip-path="url(#b01248d226)"><path fill="#ffe7c2" d="M 81.671875 283.007812 C 106.199219 256.78125 187.933594 201.304688 178.894531 178.902344 C 174.707031 168.566406 164.203125 163.347656 154.796875 167.96875 C 149.742188 170.460938 138.972656 181.097656 134.453125 185.183594 C 109.558594 208.054688 84.660156 229.492188 63.722656 249.769531 C 44.707031 268.183594 37.53125 279.582031 50.691406 294.273438 C 57.539062 302.417969 71.464844 294.109375 81.671875 283.007812 " fill-opacity="1" fill-rule="nonzero"/></g></g><g clip-path="url(#de3edbc16e)"><g clip-path="url(#febf5d9d8b)"><path fill="#ffe7c2" d="M 168.324219 256.117188 C 141.867188 231.851562 85.625 150.648438 63.289062 159.890625 C 52.984375 164.179688 47.867188 174.714844 52.585938 184.121094 C 55.113281 189.175781 65.847656 199.84375 70.003906 204.296875 C 93.105469 228.960938 114.777344 253.65625 135.285156 274.429688 C 153.898438 293.277344 165.332031 300.355469 179.890625 287.027344 C 187.96875 280.082031 179.492188 266.222656 168.324219 256.117188 " fill-opacity="1" fill-rule="nonzero"/></g></g><g clip-path="url(#df4788e6c9)"><g clip-path="url(#672c175c3f)"><path fill="#ffe7c2" d="M 395.046875 211.542969 C 359.214844 213.902344 261.65625 198.480469 252.917969 220.984375 C 248.894531 231.386719 252.984375 242.355469 263.054688 245.445312 C 268.4375 247.109375 283.5625 246.710938 289.679688 246.777344 C 323.480469 247.140625 356.320312 248.503906 385.472656 248.039062 C 411.929688 247.609375 424.960938 244.21875 425.425781 224.472656 C 425.957031 213.902344 410.101562 210.445312 395.046875 211.542969 " fill-opacity="1" fill-rule="nonzero"/></g></g><g clip-path="url(#d4a57cd185)"><g clip-path="url(#d570acec50)"><path fill="#ffe7c2" d="M 359.113281 156 C 342.195312 133.996094 310.917969 157.230469 322.417969 180.53125 C 326.207031 188.210938 337.640625 189.90625 344.390625 189.109375 C 359.28125 187.414062 368.917969 169.265625 359.113281 156 Z M 359.113281 156 " fill-opacity="1" fill-rule="nonzero"/></g></g><g clip-path="url(#b459a394da)"><g clip-path="url(#7463d97cf0)"><path fill="#ffe7c2" d="M 357.019531 276.257812 C 340.101562 254.253906 308.824219 277.488281 320.324219 300.789062 C 324.113281 308.46875 335.546875 310.164062 342.296875 309.363281 C 357.1875 307.667969 366.824219 289.523438 357.019531 276.257812 Z M 357.019531 276.257812 " fill-opacity="1" fill-rule="nonzero"/></g></g><g clip-path="url(#84bed88bb7)"><g clip-path="url(#66e1c59945)"><path fill="#ffbd59" d="M 368.433594 -22.671875 L 86.347656 -22.671875 C 85.066406 -22.671875 83.785156 -22.640625 82.503906 -22.574219 C 81.222656 -22.511719 79.945312 -22.417969 78.667969 -22.292969 C 77.390625 -22.167969 76.121094 -22.011719 74.851562 -21.824219 C 73.582031 -21.632812 72.320312 -21.414062 71.0625 -21.164062 C 69.804688 -20.914062 68.554688 -20.632812 67.308594 -20.320312 C 66.066406 -20.011719 64.832031 -19.667969 63.601562 -19.296875 C 62.375 -18.925781 61.160156 -18.523438 59.949219 -18.089844 C 58.742188 -17.65625 57.546875 -17.195312 56.363281 -16.707031 C 55.179688 -16.214844 54.007812 -15.695312 52.847656 -15.148438 C 51.6875 -14.597656 50.542969 -14.023438 49.410156 -13.417969 C 48.28125 -12.8125 47.164062 -12.183594 46.066406 -11.523438 C 44.964844 -10.863281 43.882812 -10.175781 42.816406 -9.464844 C 41.75 -8.753906 40.703125 -8.015625 39.671875 -7.25 C 38.640625 -6.488281 37.632812 -5.699219 36.640625 -4.882812 C 35.648438 -4.070312 34.679688 -3.234375 33.726562 -2.371094 C 32.777344 -1.511719 31.847656 -0.628906 30.941406 0.28125 C 30.035156 1.1875 29.152344 2.113281 28.289062 3.066406 C 27.429688 4.015625 26.589844 4.984375 25.777344 5.976562 C 24.964844 6.96875 24.175781 7.980469 23.410156 9.007812 C 22.648438 10.039062 21.910156 11.085938 21.199219 12.152344 C 20.484375 13.21875 19.800781 14.304688 19.140625 15.402344 C 18.480469 16.503906 17.847656 17.617188 17.246094 18.75 C 16.640625 19.878906 16.0625 21.023438 15.515625 22.183594 C 14.96875 23.34375 14.449219 24.515625 13.957031 25.699219 C 13.464844 26.886719 13.003906 28.082031 12.574219 29.289062 C 12.140625 30.496094 11.738281 31.714844 11.367188 32.941406 C 10.992188 34.167969 10.652344 35.402344 10.339844 36.648438 C 10.027344 37.890625 9.746094 39.140625 9.496094 40.398438 C 9.246094 41.65625 9.027344 42.921875 8.839844 44.1875 C 8.652344 45.457031 8.496094 46.730469 8.371094 48.007812 C 8.242188 49.28125 8.148438 50.5625 8.085938 51.839844 C 8.023438 53.121094 7.992188 54.402344 7.992188 55.6875 L 7.992188 337.769531 C 7.992188 339.050781 8.023438 340.332031 8.085938 341.613281 C 8.148438 342.894531 8.242188 344.175781 8.371094 345.449219 C 8.496094 346.726562 8.652344 348 8.839844 349.265625 C 9.027344 350.535156 9.246094 351.796875 9.496094 353.054688 C 9.746094 354.3125 10.027344 355.566406 10.339844 356.808594 C 10.652344 358.054688 10.992188 359.289062 11.367188 360.515625 C 11.738281 361.742188 12.140625 362.960938 12.574219 364.167969 C 13.003906 365.375 13.464844 366.570312 13.957031 367.753906 C 14.449219 368.941406 14.96875 370.113281 15.515625 371.273438 C 16.0625 372.429688 16.640625 373.574219 17.246094 374.707031 C 17.847656 375.835938 18.480469 376.953125 19.140625 378.054688 C 19.800781 379.152344 20.484375 380.234375 21.199219 381.300781 C 21.910156 382.367188 22.648438 383.417969 23.410156 384.445312 C 24.175781 385.476562 24.964844 386.488281 25.777344 387.480469 C 26.589844 388.46875 27.429688 389.441406 28.289062 390.390625 C 29.152344 391.339844 30.035156 392.269531 30.941406 393.175781 C 31.847656 394.082031 32.777344 394.96875 33.726562 395.828125 C 34.679688 396.6875 35.648438 397.527344 36.640625 398.339844 C 37.632812 399.152344 38.640625 399.941406 39.671875 400.707031 C 40.703125 401.46875 41.75 402.207031 42.816406 402.921875 C 43.882812 403.632812 44.964844 404.320312 46.066406 404.976562 C 47.164062 405.636719 48.28125 406.269531 49.410156 406.875 C 50.542969 407.480469 51.6875 408.054688 52.847656 408.601562 C 54.007812 409.152344 55.179688 409.671875 56.363281 410.160156 C 57.546875 410.652344 58.742188 411.113281 59.949219 411.546875 C 61.160156 411.976562 62.375 412.378906 63.601562 412.753906 C 64.832031 413.125 66.066406 413.464844 67.308594 413.777344 C 68.554688 414.089844 69.804688 414.371094 71.0625 414.621094 C 72.320312 414.871094 73.582031 415.089844 74.851562 415.277344 C 76.121094 415.464844 77.390625 415.625 78.667969 415.75 C 79.945312 415.875 81.222656 415.96875 82.503906 416.03125 C 83.785156 416.09375 85.066406 416.125 86.347656 416.125 L 368.433594 416.125 C 369.714844 416.125 370.996094 416.09375 372.277344 416.03125 C 373.558594 415.96875 374.835938 415.875 376.113281 415.75 C 377.390625 415.625 378.660156 415.464844 379.929688 415.277344 C 381.199219 415.089844 382.460938 414.871094 383.71875 414.621094 C 384.976562 414.371094 386.226562 414.089844 387.472656 413.777344 C 388.714844 413.464844 389.949219 413.125 391.179688 412.753906 C 392.40625 412.378906 393.621094 411.976562 394.828125 411.546875 C 396.039062 411.113281 397.234375 410.652344 398.417969 410.160156 C 399.601562 409.671875 400.773438 409.152344 401.933594 408.601562 C 403.09375 408.054688 404.238281 407.480469 405.371094 406.875 C 406.5 406.269531 407.617188 405.636719 408.714844 404.976562 C 409.816406 404.320312 410.898438 403.632812 411.964844 402.921875 C 413.03125 402.207031 414.078125 401.46875 415.109375 400.707031 C 416.140625 399.941406 417.148438 399.152344 418.140625 398.339844 C 419.132812 397.527344 420.101562 396.6875 421.054688 395.828125 C 422.003906 394.96875 422.933594 394.082031 423.839844 393.175781 C 424.746094 392.269531 425.628906 391.339844 426.492188 390.390625 C 427.351562 389.441406 428.1875 388.46875 429.003906 387.480469 C 429.816406 386.488281 430.605469 385.476562 431.367188 384.445312 C 432.132812 383.417969 432.871094 382.367188 433.582031 381.300781 C 434.296875 380.234375 434.980469 379.152344 435.640625 378.054688 C 436.300781 376.953125 436.933594 375.835938 437.535156 374.707031 C 438.140625 373.574219 438.71875 372.429688 439.265625 371.273438 C 439.8125 370.113281 440.332031 368.941406 440.824219 367.753906 C 441.316406 366.570312 441.777344 365.375 442.207031 364.167969 C 442.640625 362.960938 443.042969 361.742188 443.414062 360.515625 C 443.789062 359.289062 444.128906 358.054688 444.441406 356.808594 C 444.753906 355.566406 445.03125 354.3125 445.285156 353.054688 C 445.535156 351.796875 445.753906 350.535156 445.941406 349.265625 C 446.128906 348 446.285156 346.726562 446.410156 345.449219 C 446.539062 344.175781 446.632812 342.894531 446.695312 341.613281 C 446.757812 340.332031 446.789062 339.050781 446.789062 337.769531 L 446.789062 55.6875 C 446.789062 54.402344 446.757812 53.121094 446.695312 51.839844 C 446.632812 50.5625 446.539062 49.28125 446.410156 48.007812 C 446.285156 46.730469 446.128906 45.457031 445.941406 44.1875 C 445.753906 42.921875 445.535156 41.65625 445.285156 40.398438 C 445.03125 39.140625 444.753906 37.890625 444.441406 36.648438 C 444.128906 35.402344 443.785156 34.167969 443.414062 32.941406 C 443.042969 31.714844 442.640625 30.496094 442.207031 29.289062 C 441.777344 28.082031 441.316406 26.886719 440.824219 25.699219 C 440.332031 24.515625 439.8125 23.34375 439.265625 22.183594 C 438.71875 21.023438 438.140625 19.878906 437.535156 18.75 C 436.933594 17.617188 436.300781 16.503906 435.640625 15.402344 C 434.980469 14.304688 434.296875 13.21875 433.582031 12.152344 C 432.871094 11.085938 432.132812 10.039062 431.367188 9.007812 C 430.605469 7.980469 429.816406 6.96875 429.003906 5.976562 C 428.1875 4.984375 427.351562 4.015625 426.492188 3.066406 C 425.628906 2.113281 424.746094 1.1875 423.839844 0.28125 C 422.933594 -0.628906 422.003906 -1.511719 421.054688 -2.371094 C 420.101562 -3.234375 419.132812 -4.070312 418.140625 -4.882812 C 417.148438 -5.699219 416.140625 -6.488281 415.109375 -7.25 C 414.078125 -8.015625 413.03125 -8.753906 411.964844 -9.464844 C 410.898438 -10.175781 409.816406 -10.863281 408.714844 -11.523438 C 407.617188 -12.183594 406.5 -12.8125 405.371094 -13.417969 C 404.238281 -14.023438 403.09375 -14.597656 401.933594 -15.148438 C 400.773438 -15.695312 399.601562 -16.214844 398.417969 -16.707031 C 397.234375 -17.195312 396.039062 -17.65625 394.828125 -18.089844 C 393.621094 -18.523438 392.40625 -18.925781 391.179688 -19.296875 C 389.949219 -19.667969 388.714844 -20.011719 387.472656 -20.320312 C 386.226562 -20.632812 384.976562 -20.914062 383.71875 -21.164062 C 382.460938 -21.414062 381.199219 -21.632812 379.929688 -21.824219 C 378.660156 -22.011719 377.390625 -22.167969 376.113281 -22.292969 C 374.835938 -22.417969 373.558594 -22.511719 372.277344 -22.574219 C 370.996094 -22.640625 369.714844 -22.671875 368.433594 -22.671875 Z M 415.445312 337.769531 C 415.445312 339.308594 415.371094 340.84375 415.21875 342.378906 C 415.070312 343.910156 414.84375 345.433594 414.542969 346.941406 C 414.242188 348.453125 413.867188 349.945312 413.421875 351.417969 C 412.976562 352.890625 412.457031 354.339844 411.867188 355.761719 C 411.277344 357.183594 410.621094 358.574219 409.894531 359.933594 C 409.167969 361.289062 408.378906 362.609375 407.523438 363.890625 C 406.667969 365.167969 405.75 366.40625 404.773438 367.59375 C 403.796875 368.785156 402.765625 369.925781 401.675781 371.015625 C 400.585938 372.101562 399.449219 373.136719 398.257812 374.113281 C 397.066406 375.089844 395.832031 376.003906 394.550781 376.859375 C 393.273438 377.714844 391.953125 378.507812 390.59375 379.234375 C 389.238281 379.957031 387.847656 380.617188 386.421875 381.203125 C 385 381.792969 383.554688 382.3125 382.078125 382.757812 C 380.605469 383.207031 379.113281 383.578125 377.605469 383.878906 C 376.09375 384.179688 374.574219 384.40625 373.039062 384.558594 C 371.507812 384.707031 369.972656 384.785156 368.433594 384.785156 L 86.347656 384.785156 C 84.808594 384.785156 83.273438 384.707031 81.742188 384.558594 C 80.207031 384.40625 78.6875 384.179688 77.175781 383.878906 C 75.667969 383.578125 74.175781 383.207031 72.703125 382.757812 C 71.226562 382.3125 69.78125 381.792969 68.355469 381.203125 C 66.933594 380.617188 65.542969 379.957031 64.1875 379.234375 C 62.828125 378.507812 61.507812 377.714844 60.230469 376.859375 C 58.949219 376.003906 57.714844 375.089844 56.523438 374.113281 C 55.332031 373.136719 54.195312 372.101562 53.105469 371.015625 C 52.015625 369.925781 50.984375 368.785156 50.007812 367.59375 C 49.03125 366.40625 48.113281 365.167969 47.257812 363.890625 C 46.402344 362.609375 45.613281 361.289062 44.886719 359.933594 C 44.160156 358.574219 43.503906 357.183594 42.914062 355.761719 C 42.324219 354.339844 41.804688 352.890625 41.359375 351.417969 C 40.914062 349.945312 40.539062 348.453125 40.238281 346.941406 C 39.9375 345.429688 39.710938 343.910156 39.5625 342.378906 C 39.410156 340.84375 39.335938 339.308594 39.335938 337.769531 L 39.335938 55.6875 C 39.335938 54.144531 39.410156 52.609375 39.5625 51.078125 C 39.710938 49.546875 39.9375 48.023438 40.238281 46.515625 C 40.539062 45.003906 40.914062 43.511719 41.359375 42.039062 C 41.804688 40.566406 42.324219 39.117188 42.914062 37.695312 C 43.503906 36.273438 44.160156 34.882812 44.886719 33.523438 C 45.613281 32.164062 46.402344 30.847656 47.257812 29.566406 C 48.113281 28.285156 49.03125 27.050781 50.007812 25.859375 C 50.984375 24.671875 52.015625 23.53125 53.105469 22.441406 C 54.195312 21.351562 55.332031 20.320312 56.523438 19.34375 C 57.714844 18.367188 58.949219 17.449219 60.230469 16.59375 C 61.507812 15.738281 62.828125 14.949219 64.1875 14.222656 C 65.542969 13.496094 66.933594 12.839844 68.355469 12.25 C 69.78125 11.660156 71.226562 11.144531 72.703125 10.695312 C 74.175781 10.25 75.667969 9.875 77.175781 9.574219 C 78.6875 9.273438 80.207031 9.050781 81.742188 8.898438 C 83.273438 8.746094 84.808594 8.671875 86.347656 8.671875 L 368.433594 8.671875 C 369.972656 8.671875 371.507812 8.746094 373.039062 8.898438 C 374.574219 9.050781 376.09375 9.273438 377.605469 9.574219 C 379.113281 9.875 380.605469 10.25 382.078125 10.695312 C 383.554688 11.144531 385 11.660156 386.421875 12.25 C 387.847656 12.839844 389.238281 13.496094 390.59375 14.222656 C 391.953125 14.949219 393.273438 15.738281 394.550781 16.59375 C 395.832031 17.449219 397.066406 18.367188 398.257812 19.34375 C 399.449219 20.320312 400.585938 21.351562 401.675781 22.441406 C 402.765625 23.53125 403.796875 24.671875 404.773438 25.859375 C 405.75 27.050781 406.667969 28.285156 407.523438 29.566406 C 408.378906 30.847656 409.167969 32.164062 409.894531 33.523438 C 410.621094 34.882812 411.277344 36.273438 411.867188 37.695312 C 412.457031 39.117188 412.976562 40.566406 413.421875 42.039062 C 413.867188 43.511719 414.242188 45.003906 414.542969 46.515625 C 414.84375 48.023438 415.070312 49.546875 415.21875 51.078125 C 415.371094 52.609375 415.445312 54.144531 415.445312 55.6875 Z M 415.445312 337.769531 " fill-opacity="1" fill-rule="nonzero"/></g></g><g clip-path="url(#c598698860)"><g clip-path="url(#0342cce764)"><path fill="#ffbd59" d="M 193.539062 109.910156 L 107.035156 109.910156 C 106.003906 109.910156 104.988281 110.007812 103.976562 110.210938 C 102.96875 110.410156 101.988281 110.707031 101.039062 111.101562 C 100.085938 111.496094 99.183594 111.976562 98.328125 112.550781 C 97.472656 113.121094 96.679688 113.769531 95.953125 114.5 C 95.226562 115.226562 94.578125 116.019531 94.003906 116.875 C 93.433594 117.730469 92.949219 118.632812 92.554688 119.582031 C 92.164062 120.535156 91.867188 121.515625 91.664062 122.523438 C 91.464844 123.53125 91.363281 124.550781 91.363281 125.582031 C 91.363281 126.609375 91.464844 127.628906 91.664062 128.636719 C 91.867188 129.648438 92.164062 130.625 92.554688 131.578125 C 92.949219 132.527344 93.433594 133.429688 94.003906 134.285156 C 94.578125 135.140625 95.226562 135.933594 95.953125 136.660156 C 96.679688 137.390625 97.472656 138.039062 98.328125 138.609375 C 99.183594 139.183594 100.085938 139.664062 101.039062 140.058594 C 101.988281 140.453125 102.96875 140.75 103.976562 140.949219 C 104.988281 141.152344 106.003906 141.25 107.035156 141.25 L 193.539062 141.25 C 194.570312 141.25 195.589844 141.152344 196.597656 140.949219 C 197.605469 140.75 198.585938 140.453125 199.539062 140.058594 C 200.488281 139.664062 201.390625 139.183594 202.246094 138.609375 C 203.101562 138.039062 203.894531 137.390625 204.621094 136.660156 C 205.347656 135.933594 206 135.140625 206.570312 134.285156 C 207.140625 133.429688 207.625 132.527344 208.019531 131.578125 C 208.414062 130.625 208.710938 129.648438 208.910156 128.636719 C 209.113281 127.628906 209.210938 126.609375 209.210938 125.582031 C 209.210938 124.550781 209.113281 123.53125 208.910156 122.523438 C 208.710938 121.515625 208.414062 120.535156 208.019531 119.582031 C 207.625 118.632812 207.140625 117.730469 206.570312 116.875 C 206 116.019531 205.347656 115.226562 204.621094 114.5 C 203.894531 113.769531 203.101562 113.121094 202.246094 112.550781 C 201.390625 111.976562 200.488281 111.496094 199.539062 111.101562 C 198.585938 110.707031 197.605469 110.410156 196.597656 110.210938 C 195.589844 110.007812 194.570312 109.910156 193.539062 109.910156 Z M 193.539062 109.910156 " fill-opacity="1" fill-rule="nonzero"/></g></g><g clip-path="url(#38bcf729e5)"><g clip-path="url(#f8048e3430)"><path fill="#ffbd59" d="M 347.746094 109.910156 L 320.164062 109.910156 L 320.164062 82.328125 C 320.164062 81.296875 320.0625 80.28125 319.863281 79.269531 C 319.664062 78.261719 319.367188 77.28125 318.972656 76.332031 C 318.578125 75.378906 318.09375 74.476562 317.523438 73.621094 C 316.953125 72.765625 316.300781 71.972656 315.574219 71.246094 C 314.847656 70.519531 314.054688 69.867188 313.199219 69.296875 C 312.34375 68.726562 311.441406 68.242188 310.492188 67.847656 C 309.539062 67.457031 308.558594 67.15625 307.550781 66.957031 C 306.542969 66.757812 305.523438 66.65625 304.492188 66.65625 C 303.464844 66.65625 302.445312 66.757812 301.4375 66.957031 C 300.425781 67.15625 299.445312 67.457031 298.496094 67.847656 C 297.546875 68.242188 296.640625 68.726562 295.785156 69.296875 C 294.929688 69.867188 294.140625 70.519531 293.410156 71.246094 C 292.683594 71.972656 292.035156 72.765625 291.464844 73.621094 C 290.890625 74.476562 290.410156 75.378906 290.015625 76.332031 C 289.621094 77.28125 289.324219 78.261719 289.125 79.269531 C 288.921875 80.28125 288.820312 81.296875 288.820312 82.328125 L 288.820312 109.910156 L 261.242188 109.910156 C 260.210938 109.910156 259.191406 110.007812 258.183594 110.210938 C 257.175781 110.410156 256.195312 110.707031 255.242188 111.101562 C 254.292969 111.496094 253.390625 111.976562 252.535156 112.550781 C 251.679688 113.121094 250.886719 113.769531 250.160156 114.5 C 249.429688 115.226562 248.78125 116.019531 248.210938 116.875 C 247.636719 117.730469 247.15625 118.632812 246.761719 119.582031 C 246.367188 120.535156 246.070312 121.515625 245.871094 122.523438 C 245.667969 123.53125 245.570312 124.550781 245.570312 125.582031 C 245.570312 126.609375 245.667969 127.628906 245.871094 128.636719 C 246.070312 129.648438 246.367188 130.625 246.761719 131.578125 C 247.15625 132.527344 247.636719 133.429688 248.210938 134.285156 C 248.78125 135.140625 249.429688 135.933594 250.160156 136.660156 C 250.886719 137.390625 251.679688 138.039062 252.535156 138.609375 C 253.390625 139.183594 254.292969 139.664062 255.242188 140.058594 C 256.195312 140.453125 257.175781 140.75 258.183594 140.949219 C 259.191406 141.152344 260.210938 141.25 261.242188 141.25 L 288.820312 141.25 L 288.820312 168.675781 C 288.820312 169.707031 288.921875 170.722656 289.125 171.734375 C 289.324219 172.742188 289.621094 173.722656 290.015625 174.671875 C 290.410156 175.625 290.890625 176.527344 291.464844 177.382812 C 292.035156 178.238281 292.683594 179.03125 293.410156 179.757812 C 294.140625 180.484375 294.929688 181.136719 295.785156 181.707031 C 296.640625 182.277344 297.546875 182.761719 298.496094 183.15625 C 299.445312 183.546875 300.425781 183.847656 301.4375 184.046875 C 302.445312 184.246094 303.464844 184.347656 304.492188 184.347656 C 305.523438 184.347656 306.542969 184.246094 307.550781 184.046875 C 308.558594 183.847656 309.539062 183.546875 310.492188 183.15625 C 311.441406 182.761719 312.34375 182.277344 313.199219 181.707031 C 314.054688 181.136719 314.847656 180.484375 315.574219 179.757812 C 316.300781 179.03125 316.953125 178.238281 317.523438 177.382812 C 318.09375 176.527344 318.578125 175.625 318.972656 174.671875 C 319.367188 173.722656 319.664062 172.742188 319.863281 171.734375 C 320.0625 170.722656 320.164062 169.707031 320.164062 168.675781 L 320.164062 141.25 L 347.746094 141.25 C 348.773438 141.25 349.792969 141.152344 350.804688 140.949219 C 351.8125 140.75 352.792969 140.453125 353.742188 140.058594 C 354.695312 139.664062 355.597656 139.183594 356.453125 138.609375 C 357.308594 138.039062 358.101562 137.390625 358.828125 136.660156 C 359.554688 135.933594 360.203125 135.140625 360.777344 134.285156 C 361.347656 133.429688 361.832031 132.527344 362.222656 131.578125 C 362.617188 130.625 362.914062 129.648438 363.117188 128.636719 C 363.316406 127.628906 363.417969 126.609375 363.417969 125.582031 C 363.417969 124.550781 363.316406 123.53125 363.117188 122.523438 C 362.914062 121.515625 362.617188 120.535156 362.222656 119.582031 C 361.832031 118.632812 361.347656 117.730469 360.777344 116.875 C 360.203125 116.019531 359.554688 115.226562 358.828125 114.5 C 358.101562 113.769531 357.308594 113.121094 356.453125 112.550781 C 355.597656 111.976562 354.695312 111.496094 353.742188 111.101562 C 352.792969 110.707031 351.8125 110.410156 350.804688 110.210938 C 349.792969 110.007812 348.773438 109.910156 347.746094 109.910156 Z M 347.746094 109.910156 " fill-opacity="1" fill-rule="nonzero"/></g></g><g clip-path="url(#914c9390c8)"><g clip-path="url(#8d6ef66a91)"><path fill="#ffbd59" d="M 191.972656 238.882812 C 191.609375 238.515625 191.230469 238.171875 190.832031 237.839844 C 190.433594 237.511719 190.019531 237.203125 189.59375 236.917969 C 189.164062 236.628906 188.722656 236.363281 188.269531 236.117188 C 187.816406 235.875 187.351562 235.652344 186.875 235.453125 C 186.398438 235.253906 185.914062 235.082031 185.417969 234.929688 C 184.925781 234.78125 184.425781 234.652344 183.917969 234.550781 C 183.414062 234.453125 182.902344 234.375 182.390625 234.324219 C 181.878906 234.273438 181.363281 234.25 180.847656 234.25 C 180.332031 234.25 179.816406 234.273438 179.300781 234.324219 C 178.789062 234.375 178.28125 234.453125 177.773438 234.550781 C 177.269531 234.652344 176.769531 234.78125 176.273438 234.929688 C 175.78125 235.082031 175.296875 235.253906 174.820312 235.453125 C 174.34375 235.652344 173.878906 235.875 173.425781 236.117188 C 172.96875 236.363281 172.527344 236.628906 172.101562 236.917969 C 171.671875 237.203125 171.257812 237.511719 170.863281 237.839844 C 170.464844 238.171875 170.082031 238.515625 169.71875 238.882812 L 150.289062 258.472656 L 130.699219 238.882812 C 129.972656 238.160156 129.179688 237.515625 128.328125 236.949219 C 127.472656 236.382812 126.574219 235.902344 125.625 235.511719 C 124.679688 235.121094 123.703125 234.824219 122.695312 234.625 C 121.691406 234.425781 120.675781 234.328125 119.648438 234.328125 C 118.625 234.328125 117.609375 234.425781 116.605469 234.625 C 115.597656 234.824219 114.621094 235.121094 113.675781 235.511719 C 112.726562 235.902344 111.828125 236.382812 110.972656 236.949219 C 110.121094 237.515625 109.328125 238.160156 108.601562 238.882812 C 108.234375 239.246094 107.886719 239.628906 107.558594 240.023438 C 107.230469 240.421875 106.921875 240.835938 106.632812 241.265625 C 106.347656 241.691406 106.082031 242.132812 105.835938 242.585938 C 105.589844 243.042969 105.371094 243.507812 105.171875 243.984375 C 104.972656 244.460938 104.796875 244.945312 104.648438 245.4375 C 104.496094 245.933594 104.371094 246.429688 104.269531 246.9375 C 104.167969 247.441406 104.09375 247.953125 104.042969 248.464844 C 103.992188 248.980469 103.964844 249.496094 103.964844 250.011719 C 103.964844 250.527344 103.992188 251.042969 104.042969 251.554688 C 104.09375 252.066406 104.167969 252.578125 104.269531 253.082031 C 104.371094 253.589844 104.496094 254.089844 104.648438 254.582031 C 104.796875 255.074219 104.972656 255.5625 105.171875 256.039062 C 105.371094 256.511719 105.589844 256.980469 105.835938 257.433594 C 106.082031 257.886719 106.347656 258.328125 106.632812 258.757812 C 106.921875 259.183594 107.230469 259.597656 107.558594 259.996094 C 107.886719 260.394531 108.234375 260.773438 108.601562 261.136719 L 128.035156 280.570312 L 108.601562 300.003906 C 108.234375 300.367188 107.886719 300.746094 107.558594 301.144531 C 107.230469 301.542969 106.921875 301.953125 106.632812 302.382812 C 106.347656 302.808594 106.082031 303.25 105.835938 303.707031 C 105.589844 304.160156 105.371094 304.625 105.171875 305.101562 C 104.972656 305.578125 104.796875 306.0625 104.648438 306.554688 C 104.496094 307.050781 104.371094 307.550781 104.269531 308.054688 C 104.167969 308.5625 104.09375 309.070312 104.042969 309.585938 C 103.992188 310.097656 103.964844 310.613281 103.964844 311.128906 C 103.964844 311.644531 103.992188 312.160156 104.042969 312.671875 C 104.09375 313.1875 104.167969 313.695312 104.269531 314.203125 C 104.371094 314.707031 104.496094 315.207031 104.648438 315.699219 C 104.796875 316.195312 104.972656 316.679688 105.171875 317.15625 C 105.371094 317.632812 105.589844 318.097656 105.835938 318.550781 C 106.082031 319.003906 106.347656 319.445312 106.632812 319.875 C 106.921875 320.304688 107.230469 320.714844 107.558594 321.113281 C 107.886719 321.511719 108.234375 321.890625 108.601562 322.253906 C 110.082031 323.722656 111.785156 324.847656 113.710938 325.636719 C 115.640625 326.425781 117.644531 326.8125 119.730469 326.800781 C 121.785156 326.792969 123.761719 326.394531 125.660156 325.605469 C 127.558594 324.820312 129.238281 323.703125 130.699219 322.253906 L 150.289062 302.824219 L 169.71875 322.097656 C 171.199219 323.566406 172.902344 324.691406 174.832031 325.480469 C 176.757812 326.265625 178.765625 326.65625 180.847656 326.644531 C 182.929688 326.65625 184.933594 326.265625 186.863281 325.480469 C 188.792969 324.691406 190.496094 323.566406 191.972656 322.097656 C 192.339844 321.734375 192.6875 321.355469 193.015625 320.957031 C 193.34375 320.558594 193.652344 320.148438 193.941406 319.71875 C 194.230469 319.289062 194.496094 318.847656 194.738281 318.394531 C 194.984375 317.941406 195.207031 317.476562 195.402344 317 C 195.601562 316.523438 195.777344 316.039062 195.925781 315.542969 C 196.078125 315.050781 196.203125 314.550781 196.304688 314.046875 C 196.40625 313.539062 196.480469 313.03125 196.53125 312.515625 C 196.582031 312.003906 196.609375 311.488281 196.609375 310.972656 C 196.609375 310.457031 196.582031 309.941406 196.53125 309.429688 C 196.480469 308.914062 196.40625 308.40625 196.304688 307.898438 C 196.203125 307.394531 196.078125 306.894531 195.925781 306.398438 C 195.777344 305.90625 195.601562 305.421875 195.402344 304.945312 C 195.207031 304.46875 194.984375 304.003906 194.738281 303.550781 C 194.496094 303.09375 194.230469 302.652344 193.941406 302.226562 C 193.652344 301.796875 193.34375 301.382812 193.015625 300.988281 C 192.6875 300.589844 192.339844 300.207031 191.972656 299.84375 L 172.382812 280.414062 L 191.972656 260.980469 C 192.695312 260.253906 193.339844 259.464844 193.910156 258.609375 C 194.476562 257.757812 194.957031 256.855469 195.347656 255.90625 C 195.738281 254.960938 196.03125 253.984375 196.230469 252.976562 C 196.429688 251.972656 196.53125 250.957031 196.53125 249.933594 C 196.53125 248.90625 196.429688 247.890625 196.230469 246.886719 C 196.03125 245.878906 195.738281 244.902344 195.347656 243.957031 C 194.957031 243.007812 194.476562 242.109375 193.910156 241.253906 C 193.339844 240.402344 192.695312 239.609375 191.972656 238.882812 Z M 191.972656 238.882812 " fill-opacity="1" fill-rule="nonzero"/></g></g><g clip-path="url(#c34e68f463)"><g clip-path="url(#87594212db)"><path fill="#ffbd59" d="M 347.746094 233.867188 L 261.242188 233.867188 C 260.210938 233.867188 259.191406 233.96875 258.183594 234.171875 C 257.175781 234.371094 256.195312 234.667969 255.242188 235.0625 C 254.292969 235.457031 253.390625 235.9375 252.535156 236.511719 C 251.679688 237.082031 250.886719 237.730469 250.160156 238.460938 C 249.429688 239.1875 248.78125 239.976562 248.210938 240.832031 C 247.636719 241.6875 247.15625 242.59375 246.761719 243.542969 C 246.367188 244.492188 246.070312 245.472656 245.871094 246.484375 C 245.667969 247.492188 245.570312 248.511719 245.570312 249.539062 C 245.570312 250.570312 245.667969 251.589844 245.871094 252.597656 C 246.070312 253.605469 246.367188 254.585938 246.761719 255.539062 C 247.15625 256.488281 247.636719 257.390625 248.210938 258.246094 C 248.78125 259.101562 249.429688 259.894531 250.160156 260.621094 C 250.886719 261.347656 251.679688 262 252.535156 262.570312 C 253.390625 263.140625 254.292969 263.625 255.242188 264.019531 C 256.195312 264.414062 257.175781 264.710938 258.183594 264.910156 C 259.191406 265.109375 260.210938 265.210938 261.242188 265.210938 L 347.746094 265.210938 C 348.773438 265.210938 349.792969 265.109375 350.804688 264.910156 C 351.8125 264.710938 352.792969 264.414062 353.742188 264.019531 C 354.695312 263.625 355.597656 263.140625 356.453125 262.570312 C 357.308594 262 358.101562 261.347656 358.828125 260.621094 C 359.554688 259.894531 360.203125 259.101562 360.777344 258.246094 C 361.347656 257.390625 361.832031 256.488281 362.222656 255.539062 C 362.617188 254.585938 362.914062 253.605469 363.117188 252.597656 C 363.316406 251.589844 363.417969 250.570312 363.417969 249.539062 C 363.417969 248.511719 363.316406 247.492188 363.117188 246.484375 C 362.914062 245.472656 362.617188 244.492188 362.222656 243.542969 C 361.832031 242.59375 361.347656 241.6875 360.777344 240.832031 C 360.203125 239.976562 359.554688 239.1875 358.828125 238.460938 C 358.101562 237.730469 357.308594 237.082031 356.453125 236.511719 C 355.597656 235.9375 354.695312 235.457031 353.742188 235.0625 C 352.792969 234.667969 351.8125 234.371094 350.804688 234.171875 C 349.792969 233.96875 348.773438 233.867188 347.746094 233.867188 Z M 347.746094 233.867188 " fill-opacity="1" fill-rule="nonzero"/></g></g><g clip-path="url(#fa417a3750)"><g clip-path="url(#b24e80bc9b)"><path fill="#ffbd59" d="M 347.746094 289.816406 L 261.242188 289.816406 C 260.210938 289.816406 259.191406 289.914062 258.183594 290.117188 C 257.175781 290.316406 256.195312 290.613281 255.242188 291.007812 C 254.292969 291.402344 253.390625 291.886719 252.535156 292.457031 C 251.679688 293.027344 250.886719 293.679688 250.160156 294.40625 C 249.429688 295.132812 248.78125 295.925781 248.210938 296.78125 C 247.636719 297.636719 247.15625 298.539062 246.761719 299.488281 C 246.367188 300.441406 246.070312 301.421875 245.871094 302.429688 C 245.667969 303.4375 245.570312 304.457031 245.570312 305.488281 C 245.570312 306.515625 245.667969 307.535156 245.871094 308.542969 C 246.070312 309.554688 246.367188 310.535156 246.761719 311.484375 C 247.15625 312.433594 247.636719 313.335938 248.210938 314.195312 C 248.78125 315.050781 249.429688 315.839844 250.160156 316.566406 C 250.886719 317.296875 251.679688 317.945312 252.535156 318.515625 C 253.390625 319.089844 254.292969 319.570312 255.242188 319.964844 C 256.195312 320.359375 257.175781 320.65625 258.183594 320.855469 C 259.191406 321.058594 260.210938 321.160156 261.242188 321.160156 L 347.746094 321.160156 C 348.773438 321.160156 349.792969 321.058594 350.804688 320.855469 C 351.8125 320.65625 352.792969 320.359375 353.742188 319.964844 C 354.695312 319.570312 355.597656 319.089844 356.453125 318.515625 C 357.308594 317.945312 358.101562 317.296875 358.828125 316.566406 C 359.554688 315.839844 360.203125 315.050781 360.777344 314.195312 C 361.347656 313.335938 361.832031 312.433594 362.222656 311.484375 C 362.617188 310.535156 362.914062 309.554688 363.117188 308.542969 C 363.316406 307.535156 363.417969 306.515625 363.417969 305.488281 C 363.417969 304.457031 363.316406 303.4375 363.117188 302.429688 C 362.914062 301.421875 362.617188 300.441406 362.222656 299.488281 C 361.832031 298.539062 361.347656 297.636719 360.777344 296.78125 C 360.203125 295.925781 359.554688 295.132812 358.828125 294.40625 C 358.101562 293.679688 357.308594 293.027344 356.453125 292.457031 C 355.597656 291.886719 354.695312 291.402344 353.742188 291.007812 C 352.792969 290.613281 351.8125 290.316406 350.804688 290.117188 C 349.792969 289.914062 348.773438 289.816406 347.746094 289.816406 Z M 347.746094 289.816406 " fill-opacity="1" fill-rule="nonzero"/></g></g><g clip-path="url(#9e4a7e498f)"><g clip-path="url(#7117ae6e91)"><path fill="#c2dcff" d="M 386.695312 198.144531 L 64.101562 198.144531 L 57.382812 204.863281 L 57.382812 312.515625 L 64.101562 319.238281 L 386.695312 319.238281 L 393.417969 312.515625 L 393.417969 204.863281 Z M 70.824219 211.585938 L 70.824219 305.796875 L 379.976562 305.796875 L 379.976562 211.585938 Z M 70.824219 211.585938 " fill-opacity="1" fill-rule="evenodd"/></g></g><g clip-path="url(#07efd63efd)"><g clip-path="url(#ba637b908e)"><path fill="#c2dcff" d="M 332.097656 204.863281 L 345.539062 204.863281 L 345.539062 225.105469 L 332.097656 225.105469 Z M 332.097656 204.863281 " fill-opacity="1" fill-rule="evenodd"/></g></g><g clip-path="url(#e5cf6a9437)"><g clip-path="url(#557ec432c2)"><path fill="#c2dcff" d="M 281.179688 204.863281 L 294.621094 204.863281 L 294.621094 225.105469 L 281.179688 225.105469 Z M 281.179688 204.863281 " fill-opacity="1" fill-rule="evenodd"/></g></g><g clip-path="url(#471d29deec)"><g clip-path="url(#a7bb0f386a)"><path fill="#c2dcff" d="M 230.277344 204.863281 L 243.71875 204.863281 L 243.71875 225.105469 L 230.277344 225.105469 Z M 230.277344 204.863281 " fill-opacity="1" fill-rule="evenodd"/></g></g><g clip-path="url(#8be08853d9)"><g clip-path="url(#aaa1cec6bd)"><path fill="#c2dcff" d="M 179.363281 204.863281 L 192.804688 204.863281 L 192.804688 225.105469 L 179.363281 225.105469 Z M 179.363281 204.863281 " fill-opacity="1" fill-rule="evenodd"/></g></g><g clip-path="url(#4d6a0b67af)"><g clip-path="url(#e340b76929)"><path fill="#c2dcff" d="M 128.445312 204.863281 L 141.886719 204.863281 L 141.886719 225.105469 L 128.445312 225.105469 Z M 128.445312 204.863281 " fill-opacity="1" fill-rule="evenodd"/></g></g><g clip-path="url(#a934fae0a2)"><g clip-path="url(#093baa51fd)"><path fill="#c2dcff" d="M 77.542969 204.863281 L 90.984375 204.863281 L 90.984375 225.105469 L 77.542969 225.105469 Z M 77.542969 204.863281 " fill-opacity="1" fill-rule="evenodd"/></g></g><g clip-path="url(#20d3453e9d)"><g clip-path="url(#3734cb005d)"><path fill="#c2dcff" d="M 386.695312 270.902344 L 65.527344 270.902344 L 58.804688 277.621094 L 58.804688 309.15625 L 65.527344 315.875 L 386.695312 315.875 L 393.417969 309.15625 L 393.417969 277.621094 Z M 72.246094 284.34375 L 72.246094 302.433594 L 379.976562 302.433594 L 379.976562 284.34375 Z M 72.246094 284.34375 " fill-opacity="1" fill-rule="evenodd"/></g></g><g clip-path="url(#6e75d5cc4c)"><g clip-path="url(#e5eadc1434)"><path fill="#c2dcff" d="M 379.976562 130.9375 L 393.417969 130.9375 L 393.417969 171.261719 L 379.976562 171.261719 Z M 379.976562 130.9375 " fill-opacity="1" fill-rule="evenodd"/></g></g><g clip-path="url(#26e650f097)"><g clip-path="url(#d87d79d8ec)"><path fill="#c2dcff" d="M 58.804688 130.9375 L 72.246094 130.9375 L 72.246094 171.261719 L 58.804688 171.261719 Z M 58.804688 130.9375 " fill-opacity="1" fill-rule="evenodd"/></g></g><g clip-path="url(#94b43975b9)"><g clip-path="url(#25f2e4801d)"><path fill="#c2dcff" d="M 65.527344 144.378906 L 387.476562 144.378906 L 387.476562 157.820312 L 65.527344 157.820312 Z M 65.527344 144.378906 " fill-opacity="1" fill-rule="evenodd"/></g></g><g clip-path="url(#6bd860c1d0)"><g clip-path="url(#9ffc644671)"><path fill="#c2dcff" d="M 358.980469 204.863281 L 372.421875 204.863281 L 372.421875 245.1875 L 358.980469 245.1875 Z M 358.980469 204.863281 " fill-opacity="1" fill-rule="evenodd"/></g></g><g clip-path="url(#ab370bc1e3)"><g clip-path="url(#a51a1c9469)"><path fill="#c2dcff" d="M 308.0625 204.863281 L 321.503906 204.863281 L 321.503906 245.1875 L 308.0625 245.1875 Z M 308.0625 204.863281 " fill-opacity="1" fill-rule="evenodd"/></g></g><g clip-path="url(#d9a81fb41c)"><g clip-path="url(#b3ad48c89b)"><path fill="#c2dcff" d="M 257.160156 204.863281 L 270.601562 204.863281 L 270.601562 245.1875 L 257.160156 245.1875 Z M 257.160156 204.863281 " fill-opacity="1" fill-rule="evenodd"/></g></g><g clip-path="url(#e54ecf707e)"><g clip-path="url(#193af6d821)"><path fill="#c2dcff" d="M 206.246094 204.863281 L 219.6875 204.863281 L 219.6875 245.1875 L 206.246094 245.1875 Z M 206.246094 204.863281 " fill-opacity="1" fill-rule="evenodd"/></g></g><g clip-path="url(#f46d00f864)"><g clip-path="url(#f929972f2d)"><path fill="#c2dcff" d="M 155.328125 204.863281 L 168.769531 204.863281 L 168.769531 245.1875 L 155.328125 245.1875 Z M 155.328125 204.863281 " fill-opacity="1" fill-rule="evenodd"/></g></g><g clip-path="url(#099641fde7)"><g clip-path="url(#cfea9c832f)"><path fill="#c2dcff" d="M 104.425781 204.863281 L 117.867188 204.863281 L 117.867188 245.1875 L 104.425781 245.1875 Z M 104.425781 204.863281 " fill-opacity="1" fill-rule="evenodd"/></g></g><g transform="matrix(1, 0, 0, 1, 0, 6)"><g clip-path="url(#5580631f8a)"><g clip-path="url(#faf39de701)"><g clip-path="url(#450df3a0ae)"><g transform="matrix(1, 0, 0, 1, 0, -0.000000000000001776)"><g clip-path="url(#510426fe5f)"><g clip-path="url(#2c70517a05)"><g clip-path="url(#a25c2a06e6)"><path fill="#99daff" d="M 0 0.199219 L 449.566406 0.199219 L 449.566406 437.800781 L 0 437.800781 Z M 0 0.199219 " fill-opacity="1" fill-rule="nonzero"/></g></g></g></g></g></g><g clip-path="url(#ffec6753ef)"><g clip-path="url(#b1be2c942c)"><path fill="#1800ad" d="M 345.257812 288.234375 L 320.179688 201.917969 C 318.359375 195.660156 315.488281 189.78125 311.636719 184.453125 C 307.910156 179.308594 303.359375 174.785156 298.121094 171.023438 C 292.914062 167.289062 287.160156 164.390625 281.003906 162.40625 C 279.0625 161.78125 277.097656 161.257812 275.113281 160.820312 C 277.0625 157.847656 278.742188 154.699219 280.132812 151.394531 C 283.257812 144.007812 284.84375 136.164062 284.84375 128.085938 C 284.84375 120.007812 283.257812 112.171875 280.132812 104.777344 C 277.117188 97.648438 272.800781 91.25 267.304688 85.757812 C 261.8125 80.265625 255.414062 75.945312 248.289062 72.929688 C 240.890625 69.824219 233.054688 68.238281 224.976562 68.238281 C 216.898438 68.238281 209.066406 69.824219 201.667969 72.949219 C 194.542969 75.964844 188.144531 80.28125 182.648438 85.773438 C 177.15625 91.269531 172.839844 97.667969 169.824219 104.792969 C 166.699219 112.179688 165.113281 120.023438 165.113281 128.101562 C 165.113281 136.179688 166.699219 144.015625 169.824219 151.414062 C 171.222656 154.714844 172.902344 157.867188 174.839844 160.835938 C 172.859375 161.269531 170.890625 161.796875 168.953125 162.425781 C 162.796875 164.410156 157.035156 167.308594 151.835938 171.042969 C 146.585938 174.8125 142.042969 179.328125 138.320312 184.46875 C 134.46875 189.800781 131.589844 195.671875 129.773438 201.9375 L 104.707031 288.234375 C 99.867188 304.882812 103.136719 322.476562 113.671875 336.503906 C 119.066406 343.695312 126.230469 349.652344 134.378906 353.746094 C 142.960938 358.054688 152.285156 360.234375 162.097656 360.234375 L 287.871094 360.234375 C 297.679688 360.234375 307.003906 358.054688 315.585938 353.746094 C 323.734375 349.652344 330.898438 343.683594 336.300781 336.503906 C 346.820312 322.476562 350.085938 304.882812 345.257812 288.234375 Z M 224.976562 96.878906 C 242.191406 96.878906 256.195312 110.878906 256.195312 128.09375 C 256.195312 145.308594 242.191406 159.3125 224.976562 159.3125 C 207.761719 159.3125 193.761719 145.308594 193.761719 128.09375 C 193.761719 110.878906 207.761719 96.878906 224.976562 96.878906 Z M 313.386719 319.308594 C 307.515625 327.117188 298.21875 331.605469 287.871094 331.605469 L 162.097656 331.605469 C 151.746094 331.605469 142.441406 327.125 136.578125 319.308594 C 131.4375 312.449219 129.882812 304.257812 132.214844 296.230469 L 157.292969 209.914062 C 161.035156 197.015625 173.863281 188.003906 188.464844 188.003906 L 261.507812 188.003906 C 276.113281 188.003906 288.9375 197.015625 292.679688 209.914062 L 317.757812 296.230469 C 320.082031 304.257812 318.53125 312.449219 313.386719 319.308594 Z M 313.386719 319.308594 " fill-opacity="1" fill-rule="nonzero"/></g></g><g clip-path="url(#9358b3b0dc)"><g clip-path="url(#87049cfdae)"><path fill="#1800ad" d="M 200.484375 263.992188 L 204.082031 260.574219 C 211.390625 253.5625 216.785156 248.050781 220.265625 244.03125 C 222.0625 241.929688 222.957031 240.117188 222.957031 238.589844 C 222.957031 237.066406 221.757812 235.261719 219.359375 233.195312 C 216.964844 231.132812 214.988281 230.089844 213.425781 230.089844 C 211.863281 230.089844 210.042969 231.320312 207.941406 233.78125 C 202.90625 239.652344 196.320312 247.171875 188.167969 256.34375 L 188.167969 239.175781 C 188.167969 237.074219 188.015625 235.523438 187.722656 234.5 C 186.941406 232.28125 184.453125 231.167969 180.261719 231.167969 C 176.429688 231.167969 174.085938 231.976562 173.253906 233.59375 C 172.769531 234.488281 172.488281 235.289062 172.398438 235.96875 C 172.308594 236.660156 172.265625 237.695312 172.265625 239.074219 L 172.265625 289.050781 C 172.265625 291.152344 172.445312 292.675781 172.804688 293.636719 C 173.523438 295.917969 175.980469 297.058594 180.171875 297.058594 C 184.003906 297.058594 186.347656 296.25 187.183594 294.632812 C 187.65625 293.738281 187.945312 292.957031 188.035156 292.300781 C 188.125 291.644531 188.167969 290.59375 188.167969 289.148438 L 188.167969 271.621094 L 207.941406 294.1875 C 210.097656 296.699219 211.945312 297.964844 213.472656 297.964844 C 214.996094 297.964844 216.964844 296.933594 219.359375 294.859375 C 221.757812 292.792969 222.957031 290.992188 222.957031 289.464844 C 222.957031 287.9375 221.972656 286.0625 219.996094 283.847656 C 216.15625 279.421875 209.65625 272.796875 200.484375 263.992188 Z M 200.484375 263.992188 " fill-opacity="1" fill-rule="nonzero"/></g></g><g clip-path="url(#3023f220ef)"><g clip-path="url(#ec94839633)"><path fill="#1800ad" d="M 273.5625 257.339844 L 257.738281 257.339844 C 255.945312 257.339844 254.5 257.609375 253.421875 258.148438 C 252.703125 258.507812 252.210938 259.171875 251.941406 260.125 C 251.671875 261.085938 251.535156 262.359375 251.535156 263.945312 C 251.535156 265.535156 251.652344 266.792969 251.894531 267.726562 C 252.136719 268.660156 252.640625 269.359375 253.421875 269.835938 C 254.203125 270.320312 255.523438 270.554688 257.378906 270.554688 L 264.480469 270.554688 L 264.480469 280.355469 C 261.839844 281.429688 258.878906 281.96875 255.585938 281.96875 C 251.035156 281.96875 246.960938 280.15625 243.359375 276.53125 C 239.761719 272.90625 237.964844 268.496094 237.964844 263.320312 C 237.964844 258.140625 239.734375 253.941406 243.269531 250.734375 C 246.804688 247.53125 250.855469 245.925781 255.40625 245.925781 C 258.878906 245.925781 261.875 246.75 264.390625 248.394531 C 266.902344 250.042969 268.734375 250.859375 269.875 250.859375 C 271.792969 250.859375 273.921875 249.273438 276.253906 246.09375 C 277.636719 244.175781 278.320312 242.488281 278.320312 241.015625 C 278.320312 239.542969 277.511719 238.214844 275.894531 237.011719 C 269.605469 232.335938 262.917969 230.003906 255.855469 230.003906 C 246.742188 230.003906 238.835938 233.195312 232.121094 239.578125 C 225.410156 245.960938 222.050781 253.914062 222.050781 263.445312 C 222.050781 272.976562 225.347656 281.109375 231.941406 287.847656 C 238.53125 294.589844 246.292969 297.964844 255.226562 297.964844 C 265.296875 297.964844 272.84375 295.363281 277.878906 290.148438 C 279.558594 288.40625 280.394531 286.582031 280.394531 284.664062 L 280.394531 264.890625 C 280.394531 262.671875 280.097656 260.996094 279.496094 259.855469 C 278.777344 258.300781 276.800781 257.457031 273.5625 257.339844 Z M 273.5625 257.339844 " fill-opacity="1" fill-rule="nonzero"/></g></g></g></g></svg>