<svg xmlns="http://www.w3.org/2000/svg" xmlns:xlink="http://www.w3.org/1999/xlink" width="600" zoomAndPan="magnify" viewBox="0 0 450 449.999984" height="600" preserveAspectRatio="xMidYMid meet" version="1.0"><defs><clipPath id="f049f4eddf"><path d="M 43 166 L 180 166 L 180 298 L 43 298 Z M 43 166 " clip-rule="nonzero"/></clipPath><clipPath id="49c049b4e5"><path d="M 23.984375 215.738281 C 23.984375 240.785156 33.933594 264.804688 51.640625 282.511719 C 69.351562 300.222656 93.371094 310.171875 118.414062 310.171875 L 331.585938 310.171875 C 356.628906 310.171875 380.648438 300.222656 398.359375 282.511719 C 416.066406 264.804688 426.015625 240.785156 426.015625 215.738281 C 426.015625 190.695312 416.066406 166.675781 398.359375 148.964844 C 380.648438 131.257812 356.628906 121.308594 331.585938 121.308594 L 118.414062 121.308594 C 93.371094 121.308594 69.351562 131.257812 51.640625 148.964844 C 33.933594 166.675781 23.984375 190.695312 23.984375 215.738281 Z M 23.984375 215.738281 " clip-rule="nonzero"/></clipPath><clipPath id="8bec5695e0"><path d="M 50 159 L 184 159 L 184 294 L 50 294 Z M 50 159 " clip-rule="nonzero"/></clipPath><clipPath id="a16cad95a2"><path d="M 23.984375 215.738281 C 23.984375 240.785156 33.933594 264.804688 51.640625 282.511719 C 69.351562 300.222656 93.371094 310.171875 118.414062 310.171875 L 331.585938 310.171875 C 356.628906 310.171875 380.648438 300.222656 398.359375 282.511719 C 416.066406 264.804688 426.015625 240.785156 426.015625 215.738281 C 426.015625 190.695312 416.066406 166.675781 398.359375 148.964844 C 380.648438 131.257812 356.628906 121.308594 331.585938 121.308594 L 118.414062 121.308594 C 93.371094 121.308594 69.351562 131.257812 51.640625 148.964844 C 33.933594 166.675781 23.984375 190.695312 23.984375 215.738281 Z M 23.984375 215.738281 " clip-rule="nonzero"/></clipPath><clipPath id="4b2cf85629"><path d="M 251 208 L 425.984375 208 L 425.984375 249 L 251 249 Z M 251 208 " clip-rule="nonzero"/></clipPath><clipPath id="84e35af67d"><path d="M 23.984375 215.738281 C 23.984375 240.785156 33.933594 264.804688 51.640625 282.511719 C 69.351562 300.222656 93.371094 310.171875 118.414062 310.171875 L 331.585938 310.171875 C 356.628906 310.171875 380.648438 300.222656 398.359375 282.511719 C 416.066406 264.804688 426.015625 240.785156 426.015625 215.738281 C 426.015625 190.695312 416.066406 166.675781 398.359375 148.964844 C 380.648438 131.257812 356.628906 121.308594 331.585938 121.308594 L 118.414062 121.308594 C 93.371094 121.308594 69.351562 131.257812 51.640625 148.964844 C 33.933594 166.675781 23.984375 190.695312 23.984375 215.738281 Z M 23.984375 215.738281 " clip-rule="nonzero"/></clipPath><clipPath id="c0fc585915"><path d="M 319 147 L 364 147 L 364 190 L 319 190 Z M 319 147 " clip-rule="nonzero"/></clipPath><clipPath id="18c46e6457"><path d="M 23.984375 215.738281 C 23.984375 240.785156 33.933594 264.804688 51.640625 282.511719 C 69.351562 300.222656 93.371094 310.171875 118.414062 310.171875 L 331.585938 310.171875 C 356.628906 310.171875 380.648438 300.222656 398.359375 282.511719 C 416.066406 264.804688 426.015625 240.785156 426.015625 215.738281 C 426.015625 190.695312 416.066406 166.675781 398.359375 148.964844 C 380.648438 131.257812 356.628906 121.308594 331.585938 121.308594 L 118.414062 121.308594 C 93.371094 121.308594 69.351562 131.257812 51.640625 148.964844 C 33.933594 166.675781 23.984375 190.695312 23.984375 215.738281 Z M 23.984375 215.738281 " clip-rule="nonzero"/></clipPath><clipPath id="eecd816cd0"><path d="M 317 267 L 361 267 L 361 309.976562 L 317 309.976562 Z M 317 267 " clip-rule="nonzero"/></clipPath><clipPath id="02b40932f5"><path d="M 23.984375 215.738281 C 23.984375 240.785156 33.933594 264.804688 51.640625 282.511719 C 69.351562 300.222656 93.371094 310.171875 118.414062 310.171875 L 331.585938 310.171875 C 356.628906 310.171875 380.648438 300.222656 398.359375 282.511719 C 416.066406 264.804688 426.015625 240.785156 426.015625 215.738281 C 426.015625 190.695312 416.066406 166.675781 398.359375 148.964844 C 380.648438 131.257812 356.628906 121.308594 331.585938 121.308594 L 118.414062 121.308594 C 93.371094 121.308594 69.351562 131.257812 51.640625 148.964844 C 33.933594 166.675781 23.984375 190.695312 23.984375 215.738281 Z M 23.984375 215.738281 " clip-rule="nonzero"/></clipPath><clipPath id="2b73d47a0c"><path d="M 57.382812 198 L 393.382812 198 L 393.382812 319.160156 L 57.382812 319.160156 Z M 57.382812 198 " clip-rule="nonzero"/></clipPath><clipPath id="308d064f27"><path d="M 57.382812 225 C 57.382812 276.964844 99.507812 319.089844 151.472656 319.089844 L 299.328125 319.089844 C 351.292969 319.089844 393.417969 276.964844 393.417969 225 C 393.417969 173.035156 351.292969 130.910156 299.328125 130.910156 L 151.472656 130.910156 C 99.507812 130.910156 57.382812 173.035156 57.382812 225 Z M 57.382812 225 " clip-rule="nonzero"/></clipPath><clipPath id="21dbfcc710"><path d="M 332 204 L 346 204 L 346 226 L 332 226 Z M 332 204 " clip-rule="nonzero"/></clipPath><clipPath id="8354ebbdbf"><path d="M 57.382812 225 C 57.382812 276.964844 99.507812 319.089844 151.472656 319.089844 L 299.328125 319.089844 C 351.292969 319.089844 393.417969 276.964844 393.417969 225 C 393.417969 173.035156 351.292969 130.910156 299.328125 130.910156 L 151.472656 130.910156 C 99.507812 130.910156 57.382812 173.035156 57.382812 225 Z M 57.382812 225 " clip-rule="nonzero"/></clipPath><clipPath id="4c20358fa9"><path d="M 281 204 L 295 204 L 295 226 L 281 226 Z M 281 204 " clip-rule="nonzero"/></clipPath><clipPath id="78f1d77f0c"><path d="M 57.382812 225 C 57.382812 276.964844 99.507812 319.089844 151.472656 319.089844 L 299.328125 319.089844 C 351.292969 319.089844 393.417969 276.964844 393.417969 225 C 393.417969 173.035156 351.292969 130.910156 299.328125 130.910156 L 151.472656 130.910156 C 99.507812 130.910156 57.382812 173.035156 57.382812 225 Z M 57.382812 225 " clip-rule="nonzero"/></clipPath><clipPath id="927f0d85f9"><path d="M 230 204 L 244 204 L 244 226 L 230 226 Z M 230 204 " clip-rule="nonzero"/></clipPath><clipPath id="789d818ecd"><path d="M 57.382812 225 C 57.382812 276.964844 99.507812 319.089844 151.472656 319.089844 L 299.328125 319.089844 C 351.292969 319.089844 393.417969 276.964844 393.417969 225 C 393.417969 173.035156 351.292969 130.910156 299.328125 130.910156 L 151.472656 130.910156 C 99.507812 130.910156 57.382812 173.035156 57.382812 225 Z M 57.382812 225 " clip-rule="nonzero"/></clipPath><clipPath id="d23e83a105"><path d="M 179 204 L 193 204 L 193 226 L 179 226 Z M 179 204 " clip-rule="nonzero"/></clipPath><clipPath id="3ec5f2a070"><path d="M 57.382812 225 C 57.382812 276.964844 99.507812 319.089844 151.472656 319.089844 L 299.328125 319.089844 C 351.292969 319.089844 393.417969 276.964844 393.417969 225 C 393.417969 173.035156 351.292969 130.910156 299.328125 130.910156 L 151.472656 130.910156 C 99.507812 130.910156 57.382812 173.035156 57.382812 225 Z M 57.382812 225 " clip-rule="nonzero"/></clipPath><clipPath id="2992735882"><path d="M 128 204 L 142 204 L 142 226 L 128 226 Z M 128 204 " clip-rule="nonzero"/></clipPath><clipPath id="80a83bc5ee"><path d="M 57.382812 225 C 57.382812 276.964844 99.507812 319.089844 151.472656 319.089844 L 299.328125 319.089844 C 351.292969 319.089844 393.417969 276.964844 393.417969 225 C 393.417969 173.035156 351.292969 130.910156 299.328125 130.910156 L 151.472656 130.910156 C 99.507812 130.910156 57.382812 173.035156 57.382812 225 Z M 57.382812 225 " clip-rule="nonzero"/></clipPath><clipPath id="0948accb4d"><path d="M 77 204 L 91 204 L 91 226 L 77 226 Z M 77 204 " clip-rule="nonzero"/></clipPath><clipPath id="bcc28b4dc3"><path d="M 57.382812 225 C 57.382812 276.964844 99.507812 319.089844 151.472656 319.089844 L 299.328125 319.089844 C 351.292969 319.089844 393.417969 276.964844 393.417969 225 C 393.417969 173.035156 351.292969 130.910156 299.328125 130.910156 L 151.472656 130.910156 C 99.507812 130.910156 57.382812 173.035156 57.382812 225 Z M 57.382812 225 " clip-rule="nonzero"/></clipPath><clipPath id="8c46071274"><path d="M 58 270 L 393.382812 270 L 393.382812 316 L 58 316 Z M 58 270 " clip-rule="nonzero"/></clipPath><clipPath id="48dec06714"><path d="M 57.382812 225 C 57.382812 276.964844 99.507812 319.089844 151.472656 319.089844 L 299.328125 319.089844 C 351.292969 319.089844 393.417969 276.964844 393.417969 225 C 393.417969 173.035156 351.292969 130.910156 299.328125 130.910156 L 151.472656 130.910156 C 99.507812 130.910156 57.382812 173.035156 57.382812 225 Z M 57.382812 225 " clip-rule="nonzero"/></clipPath><clipPath id="26984e6548"><path d="M 379 130.910156 L 393.382812 130.910156 L 393.382812 172 L 379 172 Z M 379 130.910156 " clip-rule="nonzero"/></clipPath><clipPath id="6762e7b5e2"><path d="M 57.382812 225 C 57.382812 276.964844 99.507812 319.089844 151.472656 319.089844 L 299.328125 319.089844 C 351.292969 319.089844 393.417969 276.964844 393.417969 225 C 393.417969 173.035156 351.292969 130.910156 299.328125 130.910156 L 151.472656 130.910156 C 99.507812 130.910156 57.382812 173.035156 57.382812 225 Z M 57.382812 225 " clip-rule="nonzero"/></clipPath><clipPath id="2194d49ee1"><path d="M 58 130.910156 L 73 130.910156 L 73 172 L 58 172 Z M 58 130.910156 " clip-rule="nonzero"/></clipPath><clipPath id="0ae3ce6924"><path d="M 57.382812 225 C 57.382812 276.964844 99.507812 319.089844 151.472656 319.089844 L 299.328125 319.089844 C 351.292969 319.089844 393.417969 276.964844 393.417969 225 C 393.417969 173.035156 351.292969 130.910156 299.328125 130.910156 L 151.472656 130.910156 C 99.507812 130.910156 57.382812 173.035156 57.382812 225 Z M 57.382812 225 " clip-rule="nonzero"/></clipPath><clipPath id="2377d361d4"><path d="M 65 144 L 388 144 L 388 158 L 65 158 Z M 65 144 " clip-rule="nonzero"/></clipPath><clipPath id="23d0cd1034"><path d="M 57.382812 225 C 57.382812 276.964844 99.507812 319.089844 151.472656 319.089844 L 299.328125 319.089844 C 351.292969 319.089844 393.417969 276.964844 393.417969 225 C 393.417969 173.035156 351.292969 130.910156 299.328125 130.910156 L 151.472656 130.910156 C 99.507812 130.910156 57.382812 173.035156 57.382812 225 Z M 57.382812 225 " clip-rule="nonzero"/></clipPath><clipPath id="2d8b63f0b8"><path d="M 358 204 L 373 204 L 373 246 L 358 246 Z M 358 204 " clip-rule="nonzero"/></clipPath><clipPath id="dc18dc903b"><path d="M 57.382812 225 C 57.382812 276.964844 99.507812 319.089844 151.472656 319.089844 L 299.328125 319.089844 C 351.292969 319.089844 393.417969 276.964844 393.417969 225 C 393.417969 173.035156 351.292969 130.910156 299.328125 130.910156 L 151.472656 130.910156 C 99.507812 130.910156 57.382812 173.035156 57.382812 225 Z M 57.382812 225 " clip-rule="nonzero"/></clipPath><clipPath id="772e1d33f0"><path d="M 308 204 L 322 204 L 322 246 L 308 246 Z M 308 204 " clip-rule="nonzero"/></clipPath><clipPath id="cb8c9e2251"><path d="M 57.382812 225 C 57.382812 276.964844 99.507812 319.089844 151.472656 319.089844 L 299.328125 319.089844 C 351.292969 319.089844 393.417969 276.964844 393.417969 225 C 393.417969 173.035156 351.292969 130.910156 299.328125 130.910156 L 151.472656 130.910156 C 99.507812 130.910156 57.382812 173.035156 57.382812 225 Z M 57.382812 225 " clip-rule="nonzero"/></clipPath><clipPath id="dd76fa031f"><path d="M 257 204 L 271 204 L 271 246 L 257 246 Z M 257 204 " clip-rule="nonzero"/></clipPath><clipPath id="25c8072e7a"><path d="M 57.382812 225 C 57.382812 276.964844 99.507812 319.089844 151.472656 319.089844 L 299.328125 319.089844 C 351.292969 319.089844 393.417969 276.964844 393.417969 225 C 393.417969 173.035156 351.292969 130.910156 299.328125 130.910156 L 151.472656 130.910156 C 99.507812 130.910156 57.382812 173.035156 57.382812 225 Z M 57.382812 225 " clip-rule="nonzero"/></clipPath><clipPath id="95a2a97d71"><path d="M 206 204 L 220 204 L 220 246 L 206 246 Z M 206 204 " clip-rule="nonzero"/></clipPath><clipPath id="52e75d351e"><path d="M 57.382812 225 C 57.382812 276.964844 99.507812 319.089844 151.472656 319.089844 L 299.328125 319.089844 C 351.292969 319.089844 393.417969 276.964844 393.417969 225 C 393.417969 173.035156 351.292969 130.910156 299.328125 130.910156 L 151.472656 130.910156 C 99.507812 130.910156 57.382812 173.035156 57.382812 225 Z M 57.382812 225 " clip-rule="nonzero"/></clipPath><clipPath id="3928fd4a08"><path d="M 155 204 L 169 204 L 169 246 L 155 246 Z M 155 204 " clip-rule="nonzero"/></clipPath><clipPath id="fd87dffe7a"><path d="M 57.382812 225 C 57.382812 276.964844 99.507812 319.089844 151.472656 319.089844 L 299.328125 319.089844 C 351.292969 319.089844 393.417969 276.964844 393.417969 225 C 393.417969 173.035156 351.292969 130.910156 299.328125 130.910156 L 151.472656 130.910156 C 99.507812 130.910156 57.382812 173.035156 57.382812 225 Z M 57.382812 225 " clip-rule="nonzero"/></clipPath><clipPath id="99007ccda4"><path d="M 104 204 L 118 204 L 118 246 L 104 246 Z M 104 204 " clip-rule="nonzero"/></clipPath><clipPath id="520c80e156"><path d="M 57.382812 225 C 57.382812 276.964844 99.507812 319.089844 151.472656 319.089844 L 299.328125 319.089844 C 351.292969 319.089844 393.417969 276.964844 393.417969 225 C 393.417969 173.035156 351.292969 130.910156 299.328125 130.910156 L 151.472656 130.910156 C 99.507812 130.910156 57.382812 173.035156 57.382812 225 Z M 57.382812 225 " clip-rule="nonzero"/></clipPath><clipPath id="4f1417b276"><path d="M 213 160.347656 L 285 160.347656 L 285 289.347656 L 213 289.347656 Z M 213 160.347656 " clip-rule="nonzero"/></clipPath><clipPath id="6dd43cb38d"><path d="M 361 197 L 421.742188 197 L 421.742188 286 L 361 286 Z M 361 197 " clip-rule="nonzero"/></clipPath><clipPath id="b6f6961b0b"><path d="M 76 87 L 373 87 L 373 363 L 76 363 Z M 76 87 " clip-rule="nonzero"/></clipPath><clipPath id="9a29142313"><path d="M 74.347656 225 C 74.347656 262.03125 89.058594 297.542969 115.242188 323.726562 C 141.425781 349.910156 176.9375 364.621094 213.96875 364.621094 L 234.3125 364.621094 C 271.34375 364.621094 306.855469 349.910156 333.039062 323.726562 C 359.222656 297.542969 373.933594 262.03125 373.933594 225 C 373.933594 187.96875 359.222656 152.457031 333.039062 126.273438 C 306.855469 100.089844 271.34375 85.378906 234.3125 85.378906 L 213.96875 85.378906 C 176.9375 85.378906 141.425781 100.089844 115.242188 126.273438 C 89.058594 152.457031 74.347656 187.96875 74.347656 225 Z M 74.347656 225 " clip-rule="nonzero"/></clipPath><clipPath id="badc0ff9ba"><path d="M 1.066406 0.71875 L 450 0.71875 L 450 437.28125 L 1.066406 437.28125 Z M 1.066406 0.71875 " clip-rule="nonzero"/></clipPath><clipPath id="0dc2574ef2"><path d="M 449.933594 50.210938 L 449.933594 387.789062 C 449.933594 415.121094 427.773438 437.28125 400.441406 437.28125 L 50.558594 437.28125 C 23.226562 437.28125 1.066406 415.121094 1.066406 387.789062 L 1.066406 50.210938 C 1.066406 22.878906 23.226562 0.71875 50.558594 0.71875 L 400.441406 0.71875 C 427.773438 0.71875 449.933594 22.878906 449.933594 50.210938 Z M 449.933594 50.210938 " clip-rule="nonzero"/></clipPath><clipPath id="182495c683"><path d="M 0.0664062 0.71875 L 449 0.71875 L 449 437.28125 L 0.0664062 437.28125 Z M 0.0664062 0.71875 " clip-rule="nonzero"/></clipPath><clipPath id="ae6f9a3d6d"><path d="M 448.933594 50.210938 L 448.933594 387.789062 C 448.933594 415.121094 426.773438 437.28125 399.441406 437.28125 L 49.558594 437.28125 C 22.226562 437.28125 0.0664062 415.121094 0.0664062 387.789062 L 0.0664062 50.210938 C 0.0664062 22.878906 22.226562 0.71875 49.558594 0.71875 L 399.441406 0.71875 C 426.773438 0.71875 448.933594 22.878906 448.933594 50.210938 Z M 448.933594 50.210938 " clip-rule="nonzero"/></clipPath><clipPath id="4ae818ef51"><rect x="0" width="449" y="0" height="438"/></clipPath><clipPath id="1a8d9cbdd3"><path d="M 86.03125 81 L 363 81 L 363 358.511719 L 86.03125 358.511719 Z M 86.03125 81 " clip-rule="nonzero"/></clipPath><clipPath id="099bc6097e"><path d="M 86.03125 128.707031 L 86.03125 309.292969 C 86.03125 336.632812 108.191406 358.792969 135.53125 358.792969 L 315.539062 358.792969 C 342.875 358.792969 365.039062 336.632812 365.039062 309.292969 L 365.039062 128.707031 C 365.039062 101.367188 342.875 79.207031 315.539062 79.207031 L 135.53125 79.207031 C 108.191406 79.207031 86.03125 101.367188 86.03125 128.707031 Z M 86.03125 128.707031 " clip-rule="nonzero"/></clipPath><clipPath id="d38807ea87"><rect x="0" width="450" y="0" height="438"/></clipPath></defs><path fill="#ff914d" d="M 380.058594 200.023438 C 347.386719 202.175781 258.429688 188.113281 250.457031 208.632812 C 246.789062 218.121094 250.515625 228.121094 259.703125 230.941406 C 264.609375 232.457031 278.402344 232.089844 283.980469 232.152344 C 314.804688 232.484375 344.75 233.726562 371.332031 233.304688 C 395.457031 232.910156 407.335938 229.820312 407.761719 211.816406 C 408.246094 202.207031 393.789062 199.023438 380.058594 200.023438 " fill-opacity="1" fill-rule="nonzero"/><path fill="#ff914d" d="M 138.191406 267.160156 C 136.34375 234.457031 151.285156 145.648438 130.828125 137.464844 C 121.371094 133.707031 111.335938 137.34375 108.425781 146.46875 C 106.882812 151.378906 107.09375 165.167969 106.972656 170.746094 C 106.367188 201.570312 104.820312 231.484375 104.972656 258.066406 C 105.125 282.191406 108.09375 294.136719 126.097656 294.679688 C 135.765625 295.285156 139.070312 280.890625 138.191406 267.160156 " fill-opacity="1" fill-rule="nonzero"/><path fill="#ff914d" d="M 175.015625 193.082031 C 142.34375 195.234375 53.386719 181.171875 45.414062 201.691406 C 41.746094 211.179688 45.476562 221.179688 54.660156 224 C 59.570312 225.515625 73.359375 225.152344 78.9375 225.210938 C 109.761719 225.546875 139.707031 226.789062 166.289062 226.363281 C 190.414062 225.96875 202.296875 222.878906 202.71875 204.875 C 203.203125 195.234375 188.746094 192.082031 175.015625 193.082031 " fill-opacity="1" fill-rule="nonzero"/><g clip-path="url(#f049f4eddf)"><g clip-path="url(#49c049b4e5)"><path fill="#ffe7c2" d="M 81.671875 283.007812 C 106.199219 256.78125 187.933594 201.304688 178.894531 178.902344 C 174.707031 168.566406 164.203125 163.347656 154.796875 167.96875 C 149.742188 170.460938 138.972656 181.097656 134.453125 185.183594 C 109.558594 208.054688 84.660156 229.492188 63.722656 249.769531 C 44.707031 268.183594 37.53125 279.582031 50.691406 294.273438 C 57.539062 302.417969 71.464844 294.109375 81.671875 283.007812 " fill-opacity="1" fill-rule="nonzero"/></g></g><g clip-path="url(#8bec5695e0)"><g clip-path="url(#a16cad95a2)"><path fill="#ffe7c2" d="M 168.324219 256.117188 C 141.867188 231.851562 85.625 150.648438 63.289062 159.890625 C 52.984375 164.179688 47.867188 174.714844 52.585938 184.121094 C 55.113281 189.175781 65.847656 199.84375 70.003906 204.296875 C 93.105469 228.960938 114.777344 253.65625 135.285156 274.429688 C 153.898438 293.277344 165.332031 300.355469 179.890625 287.027344 C 187.96875 280.082031 179.492188 266.222656 168.324219 256.117188 " fill-opacity="1" fill-rule="nonzero"/></g></g><g clip-path="url(#4b2cf85629)"><g clip-path="url(#84e35af67d)"><path fill="#ffe7c2" d="M 395.046875 211.542969 C 359.214844 213.902344 261.65625 198.480469 252.917969 220.984375 C 248.894531 231.386719 252.984375 242.355469 263.054688 245.445312 C 268.4375 247.109375 283.5625 246.710938 289.679688 246.777344 C 323.480469 247.140625 356.320312 248.503906 385.472656 248.039062 C 411.929688 247.609375 424.960938 244.21875 425.425781 224.472656 C 425.957031 213.902344 410.101562 210.445312 395.046875 211.542969 " fill-opacity="1" fill-rule="nonzero"/></g></g><g clip-path="url(#c0fc585915)"><g clip-path="url(#18c46e6457)"><path fill="#ffe7c2" d="M 359.113281 156 C 342.195312 133.996094 310.917969 157.230469 322.417969 180.53125 C 326.207031 188.210938 337.640625 189.90625 344.390625 189.109375 C 359.28125 187.414062 368.917969 169.265625 359.113281 156 Z M 359.113281 156 " fill-opacity="1" fill-rule="nonzero"/></g></g><g clip-path="url(#eecd816cd0)"><g clip-path="url(#02b40932f5)"><path fill="#ffe7c2" d="M 357.019531 276.257812 C 340.101562 254.253906 308.824219 277.488281 320.324219 300.789062 C 324.113281 308.46875 335.546875 310.164062 342.296875 309.363281 C 357.1875 307.667969 366.824219 289.523438 357.019531 276.257812 Z M 357.019531 276.257812 " fill-opacity="1" fill-rule="nonzero"/></g></g><g clip-path="url(#2b73d47a0c)"><g clip-path="url(#308d064f27)"><path fill="#c2dcff" d="M 386.695312 198.144531 L 64.101562 198.144531 L 57.382812 204.863281 L 57.382812 312.515625 L 64.101562 319.238281 L 386.695312 319.238281 L 393.417969 312.515625 L 393.417969 204.863281 Z M 70.824219 211.585938 L 70.824219 305.796875 L 379.976562 305.796875 L 379.976562 211.585938 Z M 70.824219 211.585938 " fill-opacity="1" fill-rule="evenodd"/></g></g><g clip-path="url(#21dbfcc710)"><g clip-path="url(#8354ebbdbf)"><path fill="#c2dcff" d="M 332.097656 204.863281 L 345.539062 204.863281 L 345.539062 225.105469 L 332.097656 225.105469 Z M 332.097656 204.863281 " fill-opacity="1" fill-rule="evenodd"/></g></g><g clip-path="url(#4c20358fa9)"><g clip-path="url(#78f1d77f0c)"><path fill="#c2dcff" d="M 281.179688 204.863281 L 294.621094 204.863281 L 294.621094 225.105469 L 281.179688 225.105469 Z M 281.179688 204.863281 " fill-opacity="1" fill-rule="evenodd"/></g></g><g clip-path="url(#927f0d85f9)"><g clip-path="url(#789d818ecd)"><path fill="#c2dcff" d="M 230.277344 204.863281 L 243.71875 204.863281 L 243.71875 225.105469 L 230.277344 225.105469 Z M 230.277344 204.863281 " fill-opacity="1" fill-rule="evenodd"/></g></g><g clip-path="url(#d23e83a105)"><g clip-path="url(#3ec5f2a070)"><path fill="#c2dcff" d="M 179.363281 204.863281 L 192.804688 204.863281 L 192.804688 225.105469 L 179.363281 225.105469 Z M 179.363281 204.863281 " fill-opacity="1" fill-rule="evenodd"/></g></g><g clip-path="url(#2992735882)"><g clip-path="url(#80a83bc5ee)"><path fill="#c2dcff" d="M 128.445312 204.863281 L 141.886719 204.863281 L 141.886719 225.105469 L 128.445312 225.105469 Z M 128.445312 204.863281 " fill-opacity="1" fill-rule="evenodd"/></g></g><g clip-path="url(#0948accb4d)"><g clip-path="url(#bcc28b4dc3)"><path fill="#c2dcff" d="M 77.542969 204.863281 L 90.984375 204.863281 L 90.984375 225.105469 L 77.542969 225.105469 Z M 77.542969 204.863281 " fill-opacity="1" fill-rule="evenodd"/></g></g><g clip-path="url(#8c46071274)"><g clip-path="url(#48dec06714)"><path fill="#c2dcff" d="M 386.695312 270.902344 L 65.527344 270.902344 L 58.804688 277.621094 L 58.804688 309.15625 L 65.527344 315.875 L 386.695312 315.875 L 393.417969 309.15625 L 393.417969 277.621094 Z M 72.246094 284.34375 L 72.246094 302.433594 L 379.976562 302.433594 L 379.976562 284.34375 Z M 72.246094 284.34375 " fill-opacity="1" fill-rule="evenodd"/></g></g><g clip-path="url(#26984e6548)"><g clip-path="url(#6762e7b5e2)"><path fill="#c2dcff" d="M 379.976562 130.9375 L 393.417969 130.9375 L 393.417969 171.261719 L 379.976562 171.261719 Z M 379.976562 130.9375 " fill-opacity="1" fill-rule="evenodd"/></g></g><g clip-path="url(#2194d49ee1)"><g clip-path="url(#0ae3ce6924)"><path fill="#c2dcff" d="M 58.804688 130.9375 L 72.246094 130.9375 L 72.246094 171.261719 L 58.804688 171.261719 Z M 58.804688 130.9375 " fill-opacity="1" fill-rule="evenodd"/></g></g><g clip-path="url(#2377d361d4)"><g clip-path="url(#23d0cd1034)"><path fill="#c2dcff" d="M 65.527344 144.378906 L 387.476562 144.378906 L 387.476562 157.820312 L 65.527344 157.820312 Z M 65.527344 144.378906 " fill-opacity="1" fill-rule="evenodd"/></g></g><g clip-path="url(#2d8b63f0b8)"><g clip-path="url(#dc18dc903b)"><path fill="#c2dcff" d="M 358.980469 204.863281 L 372.421875 204.863281 L 372.421875 245.1875 L 358.980469 245.1875 Z M 358.980469 204.863281 " fill-opacity="1" fill-rule="evenodd"/></g></g><g clip-path="url(#772e1d33f0)"><g clip-path="url(#cb8c9e2251)"><path fill="#c2dcff" d="M 308.0625 204.863281 L 321.503906 204.863281 L 321.503906 245.1875 L 308.0625 245.1875 Z M 308.0625 204.863281 " fill-opacity="1" fill-rule="evenodd"/></g></g><g clip-path="url(#dd76fa031f)"><g clip-path="url(#25c8072e7a)"><path fill="#c2dcff" d="M 257.160156 204.863281 L 270.601562 204.863281 L 270.601562 245.1875 L 257.160156 245.1875 Z M 257.160156 204.863281 " fill-opacity="1" fill-rule="evenodd"/></g></g><g clip-path="url(#95a2a97d71)"><g clip-path="url(#52e75d351e)"><path fill="#c2dcff" d="M 206.246094 204.863281 L 219.6875 204.863281 L 219.6875 245.1875 L 206.246094 245.1875 Z M 206.246094 204.863281 " fill-opacity="1" fill-rule="evenodd"/></g></g><g clip-path="url(#3928fd4a08)"><g clip-path="url(#fd87dffe7a)"><path fill="#c2dcff" d="M 155.328125 204.863281 L 168.769531 204.863281 L 168.769531 245.1875 L 155.328125 245.1875 Z M 155.328125 204.863281 " fill-opacity="1" fill-rule="evenodd"/></g></g><g clip-path="url(#99007ccda4)"><g clip-path="url(#520c80e156)"><path fill="#c2dcff" d="M 104.425781 204.863281 L 117.867188 204.863281 L 117.867188 245.1875 L 104.425781 245.1875 Z M 104.425781 204.863281 " fill-opacity="1" fill-rule="evenodd"/></g></g><path fill="#ffd6d6" d="M 77.601562 195.492188 L 77.878906 195.492188 C 79.9375 195.492188 81.925781 195.867188 83.839844 196.609375 C 85.757812 197.355469 87.476562 198.421875 88.996094 199.808594 C 89.875 200.558594 90.808594 201.234375 91.800781 201.832031 C 92.589844 202.34375 93.429688 202.742188 94.328125 203.027344 C 96.058594 203.570312 97.554688 204.492188 98.824219 205.789062 C 100.0625 206.832031 100.949219 208.117188 101.488281 209.644531 C 101.609375 210.867188 101.671875 212.152344 101.671875 213.503906 C 101.648438 216.554688 101.402344 219.582031 100.933594 222.597656 C 100.164062 227.40625 99.808594 232.246094 99.867188 237.113281 C 99.867188 238.28125 99.914062 240.878906 100.007812 244.917969 C 100.101562 248.953125 101.832031 255.476562 105.199219 264.484375 C 106.234375 266.6875 106.984375 268.386719 107.449219 269.582031 C 107.855469 270.535156 108.085938 271.53125 108.140625 272.566406 C 108.121094 273.417969 107.96875 274.246094 107.683594 275.050781 C 106.261719 278.972656 103.6875 280.933594 99.964844 280.933594 C 96.660156 280.933594 93.628906 279.15625 90.871094 275.601562 C 88.117188 272.050781 85.941406 267.164062 84.347656 260.949219 C 83.796875 258.867188 83.398438 257.394531 83.15625 256.535156 C 82.847656 255.734375 82.601562 255.339844 82.421875 255.339844 C 82.320312 255.355469 82.230469 255.386719 82.144531 255.4375 C 81.800781 255.789062 81.523438 256.1875 81.3125 256.628906 C 80.886719 257.242188 80.226562 258.269531 79.339844 259.710938 C 78.453125 261.152344 77.515625 262.636719 76.535156 264.167969 C 74.007812 268.101562 71.050781 271.679688 67.667969 274.910156 C 64.601562 278.019531 61.1875 280.6875 57.425781 282.90625 C 54.816406 284.269531 52.058594 285.1875 49.152344 285.664062 C 48.027344 285.847656 46.894531 285.9375 45.753906 285.941406 C 44.378906 285.957031 43.03125 285.769531 41.714844 285.386719 C 33.449219 282.632812 29.285156 275.34375 29.222656 263.527344 C 29.199219 259.347656 29.691406 255.230469 30.691406 251.171875 C 32.070312 246.175781 33.847656 241.320312 36.023438 236.613281 C 38.480469 230.785156 41.382812 225.191406 44.730469 219.824219 C 47.5625 215.453125 50.839844 211.441406 54.558594 207.792969 C 62.816406 199.710938 70.496094 195.613281 77.601562 195.492188 Z M 77.144531 214.601562 C 75.851562 214.625 74.65625 214.980469 73.5625 215.667969 C 67.011719 220.082031 61.324219 227.15625 56.507812 236.890625 C 53.390625 243.285156 51.1875 248.230469 49.898438 251.726562 C 48.714844 254.761719 47.949219 257.898438 47.609375 261.140625 C 47.496094 261.992188 47.433594 262.847656 47.425781 263.707031 C 47.425781 265.421875 47.78125 266.308594 48.492188 266.371094 L 48.589844 266.371094 C 49.625 266.371094 51.675781 264.808594 54.738281 261.683594 C 56.496094 259.699219 58.148438 257.632812 59.695312 255.480469 C 61.605469 252.890625 63.382812 250.210938 65.023438 247.441406 C 66.921875 244.257812 69.003906 240.417969 71.269531 235.921875 C 73.539062 231.421875 75.511719 227.257812 77.199219 223.429688 C 78.882812 219.605469 79.722656 217.261719 79.722656 216.402344 C 79.730469 216.136719 79.667969 215.886719 79.535156 215.65625 C 79.402344 215.425781 79.21875 215.242188 78.988281 215.113281 C 78.414062 214.796875 77.800781 214.625 77.144531 214.601562 Z M 77.144531 214.601562 " fill-opacity="1" fill-rule="nonzero"/><path fill="#ffd6d6" d="M 126.378906 244.722656 C 122.214844 243.742188 119.210938 241.78125 117.371094 238.839844 C 116.460938 237.609375 115.972656 236.234375 115.898438 234.703125 C 115.957031 233.675781 116.234375 232.707031 116.734375 231.804688 C 117.234375 230.902344 117.902344 230.152344 118.746094 229.558594 C 119.507812 228.808594 120.382812 228.226562 121.363281 227.808594 C 122.34375 227.386719 123.371094 227.160156 124.4375 227.125 C 125.910156 226.976562 128.144531 226.898438 131.140625 226.890625 C 134.753906 226.890625 139.925781 226.984375 146.660156 227.167969 C 154.476562 227.355469 162.347656 227.445312 170.269531 227.445312 C 174.621094 227.445312 178.445312 227.414062 181.75 227.351562 C 186.101562 227.230469 189.46875 227.167969 191.855469 227.167969 C 193.816406 227.167969 195.300781 227.214844 196.3125 227.308594 C 197.144531 227.359375 197.953125 227.527344 198.742188 227.808594 C 199.390625 228.078125 200.003906 228.414062 200.574219 228.820312 C 201.984375 229.664062 203.070312 230.8125 203.835938 232.265625 C 204.539062 233.597656 204.894531 235.019531 204.902344 236.527344 C 204.90625 238.140625 204.492188 239.640625 203.664062 241.027344 C 202.75 242.519531 201.480469 243.585938 199.851562 244.222656 C 198.378906 244.777344 194.597656 245.222656 188.507812 245.554688 C 182.417969 245.890625 175.054688 246.058594 166.414062 246.058594 C 163.535156 246.058594 160.597656 246.023438 157.597656 245.960938 C 152.757812 245.839844 148.195312 245.746094 143.910156 245.683594 C 140.238281 245.683594 137.574219 245.652344 135.917969 245.585938 C 134.261719 245.523438 132.515625 245.429688 130.683594 245.3125 C 129.234375 245.203125 127.800781 245.007812 126.378906 244.722656 Z M 126.378906 244.722656 " fill-opacity="1" fill-rule="nonzero"/><g clip-path="url(#4f1417b276)"><path fill="#ffd6d6" d="M 224.867188 160.304688 C 228.355469 160.371094 230.789062 161.503906 232.167969 163.707031 C 233.648438 166.230469 234.398438 168.953125 234.417969 171.882812 C 234.472656 172.984375 234.503906 174.046875 234.511719 175.078125 C 234.511719 177.28125 234.421875 179.457031 234.234375 181.601562 C 234.171875 182.519531 234.109375 183.40625 234.054688 184.265625 C 233.871094 191.800781 233.703125 198.089844 233.554688 203.144531 C 233.402344 208.195312 233.324219 210.84375 233.320312 211.085938 L 235.449219 209.15625 C 236.792969 207.933594 238.445312 206.402344 240.40625 204.5625 C 248.367188 197.027344 255.195312 192.804688 260.894531 191.886719 C 262.046875 191.703125 263.210938 191.613281 264.378906 191.609375 C 272.195312 191.609375 278.234375 196.140625 282.5 205.199219 C 283.105469 206.488281 283.597656 207.824219 283.96875 209.199219 C 284.316406 210.742188 284.480469 212.304688 284.472656 213.886719 C 284.472656 215.8125 284.425781 218.65625 284.332031 222.414062 C 283.964844 229.394531 281.789062 237.675781 277.808594 247.261719 C 273.761719 256.972656 268.296875 265.804688 261.414062 273.757812 C 254.464844 281.839844 246.335938 287.105469 237.027344 289.554688 C 235.9375 289.460938 234.871094 289.246094 233.832031 288.917969 C 232.691406 288.582031 231.589844 288.152344 230.527344 287.625 C 228.957031 286.652344 227.246094 286.113281 225.398438 286.015625 C 225.117188 286.023438 224.84375 286.054688 224.566406 286.113281 C 224.234375 286.171875 223.894531 286.203125 223.554688 286.210938 C 221.878906 286.15625 220.335938 285.679688 218.917969 284.78125 C 217.222656 283.773438 215.953125 282.382812 215.101562 280.601562 C 214.613281 279.375 214.320312 278.105469 214.230469 276.785156 C 214.015625 274.980469 213.875 272.140625 213.8125 268.257812 C 213.75 264.378906 213.71875 258.945312 213.71875 251.953125 C 213.71875 244.722656 213.761719 238.554688 213.855469 233.445312 C 213.949219 228.339844 214.027344 225.496094 214.089844 224.921875 C 214.148438 224.246094 214.300781 220.492188 214.546875 213.664062 C 214.796875 206.835938 215.074219 198.492188 215.378906 188.636719 C 215.4375 187.214844 215.496094 185.714844 215.5625 184.140625 C 215.683594 179.789062 215.957031 175.546875 216.390625 171.414062 C 216.824219 167.277344 217.742188 164.382812 219.140625 162.734375 C 219.902344 161.972656 220.777344 161.382812 221.765625 160.960938 C 222.757812 160.539062 223.789062 160.320312 224.867188 160.304688 Z M 263.535156 210.179688 C 262.671875 210.378906 261.875 210.734375 261.148438 211.246094 C 257.414062 213.976562 253.972656 217.042969 250.820312 220.433594 C 247.113281 224.128906 243.699219 228.082031 240.578125 232.285156 C 237.929688 235.886719 235.863281 239.796875 234.375 244.011719 C 233.109375 248.375 232.480469 252.832031 232.488281 257.375 L 232.488281 264.082031 C 232.4375 264.839844 232.542969 265.574219 232.808594 266.289062 C 232.898438 266.496094 233.042969 266.660156 233.238281 266.777344 C 233.433594 266.894531 233.644531 266.945312 233.875 266.925781 C 234.425781 266.957031 234.945312 267.09375 235.441406 267.34375 C 236.027344 267.601562 236.578125 267.921875 237.09375 268.300781 C 237.566406 268.804688 238.152344 269.082031 238.839844 269.132812 L 239.480469 269.132812 C 240.3125 268.898438 241.050781 268.484375 241.6875 267.898438 C 242.789062 267.074219 244.351562 265.742188 246.375 263.898438 C 250.90625 259.527344 254.6875 254.582031 257.71875 249.0625 C 261.042969 243.1875 263.445312 236.957031 264.921875 230.367188 C 265.703125 227.136719 266.101562 223.863281 266.117188 220.539062 C 266.132812 217.492188 265.777344 214.492188 265.050781 211.53125 C 264.828125 211.148438 264.570312 210.796875 264.273438 210.464844 C 264.0625 210.253906 263.8125 210.160156 263.515625 210.179688 Z M 263.535156 210.179688 " fill-opacity="1" fill-rule="nonzero"/></g><path fill="#ffd6d6" d="M 300.160156 239.023438 C 295.75 237.0625 293.546875 234.121094 293.550781 230.207031 C 293.535156 228.546875 294.050781 227.074219 295.109375 225.792969 C 296.15625 224.480469 297.503906 223.652344 299.148438 223.3125 C 299.824219 223.191406 302.058594 223.023438 305.851562 222.808594 C 309.648438 222.597656 314.089844 222.398438 319.175781 222.210938 L 323.441406 222.03125 C 331.703125 221.660156 337.585938 221.476562 341.082031 221.476562 C 342.507812 221.453125 343.929688 221.53125 345.34375 221.710938 C 346.09375 221.792969 346.804688 222.007812 347.476562 222.351562 C 347.980469 222.664062 348.425781 223.050781 348.808594 223.503906 L 349.363281 224.058594 C 350.257812 224.882812 350.960938 225.851562 351.472656 226.960938 C 351.980469 228.070312 352.257812 229.234375 352.304688 230.453125 C 352.269531 231.628906 352.007812 232.75 351.511719 233.820312 C 351.019531 234.886719 350.332031 235.816406 349.457031 236.601562 C 348.109375 238.128906 345.246094 239.195312 340.867188 239.800781 C 336.492188 240.402344 329.003906 240.695312 318.410156 240.675781 C 314.367188 240.675781 311.210938 240.640625 308.945312 240.578125 C 307.15625 240.5625 305.378906 240.410156 303.613281 240.121094 C 302.410156 239.917969 301.261719 239.550781 300.160156 239.023438 Z M 302.089844 267.226562 C 299.738281 266.554688 297.777344 265.285156 296.207031 263.410156 C 295.535156 262.636719 295.019531 261.773438 294.652344 260.820312 C 294.285156 259.867188 294.09375 258.878906 294.074219 257.855469 C 294.113281 256.640625 294.414062 255.496094 294.976562 254.417969 C 295.535156 253.339844 296.300781 252.4375 297.273438 251.707031 C 298.585938 250.792969 300.039062 250.273438 301.632812 250.148438 C 303.6875 249.84375 307.191406 249.539062 312.152344 249.234375 C 315.707031 249.046875 319.285156 248.789062 322.898438 248.453125 C 326.507812 248.121094 329.324219 247.828125 331.347656 247.582031 C 334.941406 247.042969 338.554688 246.738281 342.1875 246.664062 C 346.105469 246.664062 348.738281 247.398438 350.085938 248.871094 C 350.84375 249.5625 351.515625 250.328125 352.113281 251.164062 C 352.628906 251.835938 353.023438 252.570312 353.304688 253.367188 C 353.429688 253.820312 353.492188 254.277344 353.488281 254.742188 C 353.445312 256.503906 352.925781 258.109375 351.929688 259.5625 C 350.953125 261.140625 349.632812 262.347656 347.976562 263.1875 C 344.828125 264.074219 341.632812 264.71875 338.382812 265.113281 C 333.304688 265.910156 327.886719 266.621094 322.128906 267.246094 C 316.375 267.871094 312.175781 268.175781 309.539062 268.164062 L 309.265625 268.164062 C 307.941406 268.15625 306.621094 268.0625 305.308594 267.886719 C 304.21875 267.75 303.144531 267.53125 302.089844 267.226562 Z M 302.089844 267.226562 " fill-opacity="1" fill-rule="nonzero"/><g clip-path="url(#6dd43cb38d)"><path fill="#ffd6d6" d="M 379.347656 284.769531 C 377.457031 284.164062 375.664062 283.339844 373.972656 282.300781 C 372.28125 281.257812 370.738281 280.03125 369.347656 278.613281 C 367.953125 277.199219 366.753906 275.636719 365.738281 273.929688 C 364.726562 272.21875 363.933594 270.417969 363.359375 268.515625 C 362.382812 264.667969 361.921875 260.757812 361.984375 256.789062 C 361.992188 254.089844 362.144531 251.394531 362.441406 248.710938 C 363.078125 241.375 364.792969 234.300781 367.589844 227.488281 C 370.59375 221.386719 374.359375 215.796875 378.886719 210.722656 C 383.863281 204.996094 388.269531 201.152344 392.117188 199.199219 C 394.535156 198.089844 397.074219 197.507812 399.738281 197.453125 C 405.25 197.453125 409.691406 200.648438 413.058594 207.046875 C 413.933594 208.972656 414.394531 210.992188 414.4375 213.109375 C 414.4375 214.703125 414.132812 216.234375 413.519531 217.703125 C 413.273438 218.449219 412.914062 219.140625 412.445312 219.769531 C 411.976562 220.398438 411.417969 220.9375 410.769531 221.386719 C 410.125 221.832031 409.421875 222.164062 408.667969 222.382812 C 407.910156 222.601562 407.140625 222.695312 406.355469 222.660156 C 405.175781 222.679688 404.039062 222.472656 402.941406 222.042969 C 401.84375 221.613281 400.867188 220.992188 400.015625 220.175781 L 397.167969 217.691406 L 394.046875 221.273438 C 391.039062 224.65625 388.417969 228.316406 386.1875 232.253906 C 384.332031 235.726562 382.96875 239.386719 382.105469 243.230469 C 381.058594 247.613281 380.476562 252.054688 380.359375 256.554688 C 380.359375 262.496094 381.984375 266.015625 385.230469 267.117188 C 385.960938 267.242188 386.695312 267.300781 387.4375 267.300781 C 392.027344 267.300781 397.265625 264.726562 403.148438 259.582031 C 407.0625 256.03125 410.066406 254.039062 412.15625 253.613281 C 412.761719 253.5 413.371094 253.4375 413.988281 253.433594 C 414.640625 253.386719 415.285156 253.433594 415.925781 253.570312 C 416.566406 253.707031 417.171875 253.929688 417.75 254.238281 C 418.328125 254.546875 418.851562 254.929688 419.320312 255.382812 C 419.789062 255.839844 420.1875 256.351562 420.511719 256.917969 C 421.261719 258.292969 421.617188 259.765625 421.578125 261.332031 C 421.515625 263.410156 421.054688 265.402344 420.203125 267.300781 C 418.460938 270.324219 416.226562 272.925781 413.496094 275.101562 C 410.367188 277.867188 406.9375 280.191406 403.210938 282.082031 C 401.234375 283.117188 399.167969 283.910156 397.007812 284.472656 C 394.546875 284.980469 392.058594 285.257812 389.546875 285.304688 L 383.300781 285.304688 C 381.960938 285.292969 380.640625 285.113281 379.347656 284.769531 Z M 379.347656 284.769531 " fill-opacity="1" fill-rule="nonzero"/></g><g clip-path="url(#b6f6961b0b)"><g clip-path="url(#9a29142313)"><path fill="#cc0000" d="M 148.054688 272.636719 C 142.144531 285.265625 125.121094 289.460938 112.339844 288.652344 C 99.050781 287.84375 83.59375 281.78125 77.027344 269.453125 C 74.296875 264.300781 80.105469 257.230469 85.5625 260.917969 C 91.371094 264.855469 97.132812 269.503906 103.902344 271.777344 C 110.015625 273.851562 116.835938 274.757812 123.25 273.699219 C 128.300781 272.839844 135.171875 270.820312 137.394531 265.613281 C 139.972656 259.652344 135.425781 252.882812 131.332031 248.894531 C 122.441406 240.152344 109.710938 236.3125 98.699219 231.160156 C 93.191406 228.585938 85.714844 225.554688 83.644531 219.238281 C 80.765625 210.601562 89.050781 206.40625 95.464844 203.375 C 107.84375 197.515625 123.957031 194.9375 132.898438 207.871094 C 135.777344 212.066406 129.210938 217.015625 125.878906 213.277344 C 120.574219 207.316406 112.035156 208.425781 105.417969 211.359375 C 103.597656 212.164062 101.878906 213.125 100.164062 214.085938 C 99.507812 214.4375 97.992188 215.652344 96.726562 216.359375 C 96.828125 216.410156 96.929688 216.511719 96.980469 216.5625 C 98.546875 217.519531 100.164062 218.378906 101.832031 219.1875 C 113.046875 224.945312 125.121094 228.988281 135.070312 236.921875 C 145.328125 245.054688 154.117188 259.453125 147.953125 272.636719 Z M 178.71875 232.375 C 189.984375 230.859375 201.402344 230.300781 212.769531 230.65625 C 215.398438 230.757812 217.621094 228.382812 217.621094 225.804688 C 217.621094 223.230469 215.398438 220.957031 212.769531 220.957031 C 200.949219 220.90625 189.179688 221.914062 177.558594 223.785156 C 175.4375 224.140625 174.125 226.664062 174.425781 228.585938 C 174.730469 230.503906 176.546875 232.675781 178.71875 232.375 Z M 218.53125 252.683594 C 214.941406 252.175781 211.355469 251.570312 207.769531 251.417969 C 204.382812 251.269531 201 251.269531 197.613281 251.316406 C 190.84375 251.316406 184.074219 251.46875 177.304688 251.773438 C 174.476562 251.875 172.050781 254.097656 172.050781 257.027344 C 172.050781 259.957031 174.476562 262.332031 177.304688 262.28125 C 190.59375 262.128906 203.878906 263.089844 217.164062 262.9375 C 219.742188 262.9375 221.964844 260.96875 222.269531 258.441406 C 222.519531 256.167969 221.15625 253.085938 218.53125 252.734375 Z M 247.730469 198.828125 C 244.394531 182.5625 252.425781 164.476562 265.007812 154.167969 C 273.089844 147.550781 284.660156 143.761719 294.054688 147.25 C 295.269531 128.101562 298.347656 109.105469 303.046875 90.464844 C 304.160156 86.019531 311.332031 86.929688 311.082031 91.527344 C 309.714844 116.332031 310.222656 141.136719 306.332031 165.789062 C 306.078125 167.355469 305.777344 168.972656 305.472656 170.589844 C 305.777344 176.601562 306.230469 182.5625 306.835938 188.574219 C 307.949219 198.777344 310.324219 208.984375 310.574219 219.238281 C 310.726562 226.109375 301.378906 226.5625 299.257812 220.753906 C 296.832031 214.085938 295.773438 206.710938 295.066406 199.433594 C 291.933594 204.539062 288.09375 209.183594 283.246094 212.824219 C 268.492188 223.9375 251.367188 216.359375 247.78125 198.777344 Z M 261.570312 200.898438 C 265.867188 210.296875 274.960938 206.710938 280.972656 200.898438 C 287.132812 194.835938 291.074219 187.160156 293.703125 178.875 C 293.398438 171.75 293.296875 164.578125 293.5 157.453125 C 288.042969 154.976562 281.019531 157.101562 276.222656 160.382812 C 269.957031 164.628906 265.007812 171.597656 262.328125 178.621094 C 259.753906 185.441406 258.390625 194.03125 261.519531 200.898438 Z M 367.914062 234.546875 C 357.859375 232.878906 347.402344 233.839844 337.300781 234.140625 C 326.84375 234.445312 316.386719 234.847656 305.875 235.253906 C 284.910156 236.113281 263.996094 237.222656 243.082031 238.890625 C 237.472656 239.34375 237.324219 247.730469 243.082031 247.730469 C 263.996094 247.730469 284.910156 247.527344 305.875 247.429688 C 316.335938 247.378906 326.792969 247.378906 337.300781 247.429688 C 347.402344 247.429688 357.910156 248.285156 367.914062 246.46875 C 373.773438 245.40625 373.875 235.503906 367.914062 234.496094 Z M 329.570312 339.828125 C 325.78125 342 321.839844 343.917969 317.902344 345.839844 C 315.070312 347.203125 310.222656 350.839844 307.898438 347.609375 C 302.695312 340.433594 301.429688 329.570312 300.371094 321.035156 C 299.308594 312.546875 298.90625 303.957031 298.804688 295.371094 C 307.492188 295.371094 316.183594 295.269531 324.921875 294.511719 C 330.882812 294.007812 330.933594 285.671875 324.921875 285.214844 C 316.285156 284.507812 307.542969 284.761719 298.855469 285.417969 C 298.957031 277.285156 299.257812 269.152344 299.460938 261.066406 C 299.613281 254.957031 290.820312 255.257812 290.164062 261.066406 C 289.207031 269.503906 288.296875 277.992188 287.640625 286.53125 C 278.496094 287.589844 269.402344 288.953125 260.410156 290.167969 C 256.167969 290.722656 255.964844 297.441406 260.410156 297.039062 C 269.300781 296.179688 278.191406 295.773438 287.082031 295.625 C 286.476562 309.113281 286.933594 322.652344 289.558594 335.9375 C 291.429688 345.433594 295.367188 359.679688 306.230469 362.460938 C 311.6875 363.824219 316.890625 361.195312 321.589844 358.671875 C 326.84375 355.792969 331.539062 352.203125 335.9375 348.113281 C 340.332031 344.070312 334.671875 337 329.621094 339.929688 Z M 329.570312 339.828125 " fill-opacity="1" fill-rule="nonzero"/></g></g><g transform="matrix(1, 0, 0, 1, 0.000000000000000111, 6)"><g clip-path="url(#d38807ea87)"><g clip-path="url(#badc0ff9ba)"><g clip-path="url(#0dc2574ef2)"><g transform="matrix(1, 0, 0, 1, 1, -0.000000000000001776)"><g clip-path="url(#4ae818ef51)"><g clip-path="url(#182495c683)"><g clip-path="url(#ae6f9a3d6d)"><path fill="#eb77a0" d="M 0.0664062 0.71875 L 448.566406 0.71875 L 448.566406 437.28125 L 0.0664062 437.28125 Z M 0.0664062 0.71875 " fill-opacity="1" fill-rule="nonzero"/></g></g></g></g></g></g><g clip-path="url(#1a8d9cbdd3)"><g clip-path="url(#099bc6097e)"><path fill="#ffc2e8" d="M 360.910156 285.511719 C 357.726562 293.984375 349.691406 299.21875 341.15625 299.21875 C 338.703125 299.21875 336.195312 298.785156 333.757812 297.875 L 99.65625 210.355469 C 99.441406 210.273438 99.261719 210.136719 99.0625 210.058594 C 98.171875 209.695312 97.332031 209.273438 96.507812 208.796875 C 96.179688 208.617188 95.851562 208.441406 95.539062 208.234375 C 94.515625 207.570312 93.527344 206.828125 92.636719 205.988281 C 92.472656 205.847656 92.355469 205.683594 92.210938 205.53125 C 91.484375 204.808594 90.792969 204.027344 90.167969 203.183594 C 89.917969 202.855469 89.722656 202.515625 89.488281 202.171875 C 89.027344 201.480469 88.601562 200.75 88.222656 199.980469 C 88.023438 199.578125 87.84375 199.183594 87.664062 198.769531 C 87.546875 198.5 87.398438 198.261719 87.300781 197.984375 C 87.148438 197.601562 87.101562 197.207031 86.988281 196.820312 C 86.769531 196.101562 86.558594 195.390625 86.425781 194.652344 C 86.292969 193.992188 86.210938 193.34375 86.148438 192.679688 C 86.078125 191.992188 86.03125 191.296875 86.03125 190.597656 C 86.03125 189.898438 86.078125 189.203125 86.148438 188.511719 C 86.210938 187.855469 86.292969 187.203125 86.425781 186.542969 C 86.558594 185.800781 86.769531 185.09375 86.988281 184.378906 C 87.101562 183.988281 87.148438 183.59375 87.300781 183.207031 C 87.382812 182.976562 87.515625 182.789062 87.613281 182.566406 C 87.890625 181.875 88.238281 181.222656 88.601562 180.570312 C 88.914062 179.992188 89.210938 179.417969 89.574219 178.882812 C 89.96875 178.296875 90.414062 177.773438 90.859375 177.230469 C 91.269531 176.714844 91.679688 176.199219 92.160156 175.726562 C 92.65625 175.234375 93.199219 174.800781 93.742188 174.351562 C 94.25 173.933594 94.746094 173.511719 95.308594 173.140625 C 95.867188 172.761719 96.476562 172.441406 97.101562 172.109375 C 97.710938 171.769531 98.324219 171.453125 98.964844 171.179688 C 99.210938 171.082031 99.410156 170.933594 99.65625 170.839844 L 333.757812 83.320312 C 344.679688 79.25 356.824219 84.777344 360.910156 95.6875 C 364.980469 106.601562 359.441406 118.75 348.535156 122.828125 L 167.277344 190.597656 L 348.535156 258.367188 C 359.441406 262.441406 364.980469 274.59375 360.910156 285.511719 Z M 337.300781 316.4375 L 110.960938 316.4375 C 99.308594 316.4375 89.871094 325.878906 89.871094 337.527344 C 89.871094 349.175781 99.308594 358.617188 110.960938 358.617188 L 337.300781 358.617188 C 348.949219 358.617188 358.390625 349.175781 358.390625 337.527344 C 358.390625 325.878906 348.949219 316.4375 337.300781 316.4375 " fill-opacity="1" fill-rule="nonzero"/></g></g></g></g></svg>