<svg xmlns="http://www.w3.org/2000/svg" xmlns:xlink="http://www.w3.org/1999/xlink" width="600" zoomAndPan="magnify" viewBox="0 0 450 449.999984" height="600" preserveAspectRatio="xMidYMid meet" version="1.0"><defs><clipPath id="cdec352793"><path d="M 43 166 L 180 166 L 180 298 L 43 298 Z M 43 166 " clip-rule="nonzero"/></clipPath><clipPath id="f423d3649b"><path d="M 23.984375 215.738281 C 23.984375 240.785156 33.933594 264.804688 51.640625 282.511719 C 69.351562 300.222656 93.371094 310.171875 118.414062 310.171875 L 331.585938 310.171875 C 356.628906 310.171875 380.648438 300.222656 398.359375 282.511719 C 416.066406 264.804688 426.015625 240.785156 426.015625 215.738281 C 426.015625 190.695312 416.066406 166.675781 398.359375 148.964844 C 380.648438 131.257812 356.628906 121.308594 331.585938 121.308594 L 118.414062 121.308594 C 93.371094 121.308594 69.351562 131.257812 51.640625 148.964844 C 33.933594 166.675781 23.984375 190.695312 23.984375 215.738281 Z M 23.984375 215.738281 " clip-rule="nonzero"/></clipPath><clipPath id="920f2c66c1"><path d="M 50 159 L 184 159 L 184 294 L 50 294 Z M 50 159 " clip-rule="nonzero"/></clipPath><clipPath id="6bff1a18f9"><path d="M 23.984375 215.738281 C 23.984375 240.785156 33.933594 264.804688 51.640625 282.511719 C 69.351562 300.222656 93.371094 310.171875 118.414062 310.171875 L 331.585938 310.171875 C 356.628906 310.171875 380.648438 300.222656 398.359375 282.511719 C 416.066406 264.804688 426.015625 240.785156 426.015625 215.738281 C 426.015625 190.695312 416.066406 166.675781 398.359375 148.964844 C 380.648438 131.257812 356.628906 121.308594 331.585938 121.308594 L 118.414062 121.308594 C 93.371094 121.308594 69.351562 131.257812 51.640625 148.964844 C 33.933594 166.675781 23.984375 190.695312 23.984375 215.738281 Z M 23.984375 215.738281 " clip-rule="nonzero"/></clipPath><clipPath id="701b6d54b6"><path d="M 251 208 L 425.984375 208 L 425.984375 249 L 251 249 Z M 251 208 " clip-rule="nonzero"/></clipPath><clipPath id="39c643fba1"><path d="M 23.984375 215.738281 C 23.984375 240.785156 33.933594 264.804688 51.640625 282.511719 C 69.351562 300.222656 93.371094 310.171875 118.414062 310.171875 L 331.585938 310.171875 C 356.628906 310.171875 380.648438 300.222656 398.359375 282.511719 C 416.066406 264.804688 426.015625 240.785156 426.015625 215.738281 C 426.015625 190.695312 416.066406 166.675781 398.359375 148.964844 C 380.648438 131.257812 356.628906 121.308594 331.585938 121.308594 L 118.414062 121.308594 C 93.371094 121.308594 69.351562 131.257812 51.640625 148.964844 C 33.933594 166.675781 23.984375 190.695312 23.984375 215.738281 Z M 23.984375 215.738281 " clip-rule="nonzero"/></clipPath><clipPath id="8453d2918a"><path d="M 319 147 L 364 147 L 364 190 L 319 190 Z M 319 147 " clip-rule="nonzero"/></clipPath><clipPath id="faaf754643"><path d="M 23.984375 215.738281 C 23.984375 240.785156 33.933594 264.804688 51.640625 282.511719 C 69.351562 300.222656 93.371094 310.171875 118.414062 310.171875 L 331.585938 310.171875 C 356.628906 310.171875 380.648438 300.222656 398.359375 282.511719 C 416.066406 264.804688 426.015625 240.785156 426.015625 215.738281 C 426.015625 190.695312 416.066406 166.675781 398.359375 148.964844 C 380.648438 131.257812 356.628906 121.308594 331.585938 121.308594 L 118.414062 121.308594 C 93.371094 121.308594 69.351562 131.257812 51.640625 148.964844 C 33.933594 166.675781 23.984375 190.695312 23.984375 215.738281 Z M 23.984375 215.738281 " clip-rule="nonzero"/></clipPath><clipPath id="004009d29d"><path d="M 317 267 L 361 267 L 361 309.976562 L 317 309.976562 Z M 317 267 " clip-rule="nonzero"/></clipPath><clipPath id="24b46a6123"><path d="M 23.984375 215.738281 C 23.984375 240.785156 33.933594 264.804688 51.640625 282.511719 C 69.351562 300.222656 93.371094 310.171875 118.414062 310.171875 L 331.585938 310.171875 C 356.628906 310.171875 380.648438 300.222656 398.359375 282.511719 C 416.066406 264.804688 426.015625 240.785156 426.015625 215.738281 C 426.015625 190.695312 416.066406 166.675781 398.359375 148.964844 C 380.648438 131.257812 356.628906 121.308594 331.585938 121.308594 L 118.414062 121.308594 C 93.371094 121.308594 69.351562 131.257812 51.640625 148.964844 C 33.933594 166.675781 23.984375 190.695312 23.984375 215.738281 Z M 23.984375 215.738281 " clip-rule="nonzero"/></clipPath><clipPath id="d6e9335120"><path d="M 57.382812 198 L 393.382812 198 L 393.382812 319.160156 L 57.382812 319.160156 Z M 57.382812 198 " clip-rule="nonzero"/></clipPath><clipPath id="f08d3b167c"><path d="M 57.382812 225 C 57.382812 276.964844 99.507812 319.089844 151.472656 319.089844 L 299.328125 319.089844 C 351.292969 319.089844 393.417969 276.964844 393.417969 225 C 393.417969 173.035156 351.292969 130.910156 299.328125 130.910156 L 151.472656 130.910156 C 99.507812 130.910156 57.382812 173.035156 57.382812 225 Z M 57.382812 225 " clip-rule="nonzero"/></clipPath><clipPath id="2d69b43927"><path d="M 332 204 L 346 204 L 346 226 L 332 226 Z M 332 204 " clip-rule="nonzero"/></clipPath><clipPath id="ab32dcf1ae"><path d="M 57.382812 225 C 57.382812 276.964844 99.507812 319.089844 151.472656 319.089844 L 299.328125 319.089844 C 351.292969 319.089844 393.417969 276.964844 393.417969 225 C 393.417969 173.035156 351.292969 130.910156 299.328125 130.910156 L 151.472656 130.910156 C 99.507812 130.910156 57.382812 173.035156 57.382812 225 Z M 57.382812 225 " clip-rule="nonzero"/></clipPath><clipPath id="f529722eba"><path d="M 281 204 L 295 204 L 295 226 L 281 226 Z M 281 204 " clip-rule="nonzero"/></clipPath><clipPath id="56bd81a75c"><path d="M 57.382812 225 C 57.382812 276.964844 99.507812 319.089844 151.472656 319.089844 L 299.328125 319.089844 C 351.292969 319.089844 393.417969 276.964844 393.417969 225 C 393.417969 173.035156 351.292969 130.910156 299.328125 130.910156 L 151.472656 130.910156 C 99.507812 130.910156 57.382812 173.035156 57.382812 225 Z M 57.382812 225 " clip-rule="nonzero"/></clipPath><clipPath id="5148b8cc5f"><path d="M 230 204 L 244 204 L 244 226 L 230 226 Z M 230 204 " clip-rule="nonzero"/></clipPath><clipPath id="c56f5bf0d5"><path d="M 57.382812 225 C 57.382812 276.964844 99.507812 319.089844 151.472656 319.089844 L 299.328125 319.089844 C 351.292969 319.089844 393.417969 276.964844 393.417969 225 C 393.417969 173.035156 351.292969 130.910156 299.328125 130.910156 L 151.472656 130.910156 C 99.507812 130.910156 57.382812 173.035156 57.382812 225 Z M 57.382812 225 " clip-rule="nonzero"/></clipPath><clipPath id="7c5280bbc4"><path d="M 179 204 L 193 204 L 193 226 L 179 226 Z M 179 204 " clip-rule="nonzero"/></clipPath><clipPath id="b62687c3b2"><path d="M 57.382812 225 C 57.382812 276.964844 99.507812 319.089844 151.472656 319.089844 L 299.328125 319.089844 C 351.292969 319.089844 393.417969 276.964844 393.417969 225 C 393.417969 173.035156 351.292969 130.910156 299.328125 130.910156 L 151.472656 130.910156 C 99.507812 130.910156 57.382812 173.035156 57.382812 225 Z M 57.382812 225 " clip-rule="nonzero"/></clipPath><clipPath id="c5105b2542"><path d="M 128 204 L 142 204 L 142 226 L 128 226 Z M 128 204 " clip-rule="nonzero"/></clipPath><clipPath id="0d4726cf70"><path d="M 57.382812 225 C 57.382812 276.964844 99.507812 319.089844 151.472656 319.089844 L 299.328125 319.089844 C 351.292969 319.089844 393.417969 276.964844 393.417969 225 C 393.417969 173.035156 351.292969 130.910156 299.328125 130.910156 L 151.472656 130.910156 C 99.507812 130.910156 57.382812 173.035156 57.382812 225 Z M 57.382812 225 " clip-rule="nonzero"/></clipPath><clipPath id="66f395b837"><path d="M 77 204 L 91 204 L 91 226 L 77 226 Z M 77 204 " clip-rule="nonzero"/></clipPath><clipPath id="498b7e6b50"><path d="M 57.382812 225 C 57.382812 276.964844 99.507812 319.089844 151.472656 319.089844 L 299.328125 319.089844 C 351.292969 319.089844 393.417969 276.964844 393.417969 225 C 393.417969 173.035156 351.292969 130.910156 299.328125 130.910156 L 151.472656 130.910156 C 99.507812 130.910156 57.382812 173.035156 57.382812 225 Z M 57.382812 225 " clip-rule="nonzero"/></clipPath><clipPath id="3071b14585"><path d="M 58 270 L 393.382812 270 L 393.382812 316 L 58 316 Z M 58 270 " clip-rule="nonzero"/></clipPath><clipPath id="8b49760a69"><path d="M 57.382812 225 C 57.382812 276.964844 99.507812 319.089844 151.472656 319.089844 L 299.328125 319.089844 C 351.292969 319.089844 393.417969 276.964844 393.417969 225 C 393.417969 173.035156 351.292969 130.910156 299.328125 130.910156 L 151.472656 130.910156 C 99.507812 130.910156 57.382812 173.035156 57.382812 225 Z M 57.382812 225 " clip-rule="nonzero"/></clipPath><clipPath id="a171968972"><path d="M 379 130.910156 L 393.382812 130.910156 L 393.382812 172 L 379 172 Z M 379 130.910156 " clip-rule="nonzero"/></clipPath><clipPath id="8272a8462a"><path d="M 57.382812 225 C 57.382812 276.964844 99.507812 319.089844 151.472656 319.089844 L 299.328125 319.089844 C 351.292969 319.089844 393.417969 276.964844 393.417969 225 C 393.417969 173.035156 351.292969 130.910156 299.328125 130.910156 L 151.472656 130.910156 C 99.507812 130.910156 57.382812 173.035156 57.382812 225 Z M 57.382812 225 " clip-rule="nonzero"/></clipPath><clipPath id="06195a6419"><path d="M 58 130.910156 L 73 130.910156 L 73 172 L 58 172 Z M 58 130.910156 " clip-rule="nonzero"/></clipPath><clipPath id="55456aab6e"><path d="M 57.382812 225 C 57.382812 276.964844 99.507812 319.089844 151.472656 319.089844 L 299.328125 319.089844 C 351.292969 319.089844 393.417969 276.964844 393.417969 225 C 393.417969 173.035156 351.292969 130.910156 299.328125 130.910156 L 151.472656 130.910156 C 99.507812 130.910156 57.382812 173.035156 57.382812 225 Z M 57.382812 225 " clip-rule="nonzero"/></clipPath><clipPath id="98057d796a"><path d="M 65 144 L 388 144 L 388 158 L 65 158 Z M 65 144 " clip-rule="nonzero"/></clipPath><clipPath id="889cbb9aa6"><path d="M 57.382812 225 C 57.382812 276.964844 99.507812 319.089844 151.472656 319.089844 L 299.328125 319.089844 C 351.292969 319.089844 393.417969 276.964844 393.417969 225 C 393.417969 173.035156 351.292969 130.910156 299.328125 130.910156 L 151.472656 130.910156 C 99.507812 130.910156 57.382812 173.035156 57.382812 225 Z M 57.382812 225 " clip-rule="nonzero"/></clipPath><clipPath id="5a597ef3a8"><path d="M 358 204 L 373 204 L 373 246 L 358 246 Z M 358 204 " clip-rule="nonzero"/></clipPath><clipPath id="cb6f7789e1"><path d="M 57.382812 225 C 57.382812 276.964844 99.507812 319.089844 151.472656 319.089844 L 299.328125 319.089844 C 351.292969 319.089844 393.417969 276.964844 393.417969 225 C 393.417969 173.035156 351.292969 130.910156 299.328125 130.910156 L 151.472656 130.910156 C 99.507812 130.910156 57.382812 173.035156 57.382812 225 Z M 57.382812 225 " clip-rule="nonzero"/></clipPath><clipPath id="6f585eb4bf"><path d="M 308 204 L 322 204 L 322 246 L 308 246 Z M 308 204 " clip-rule="nonzero"/></clipPath><clipPath id="6001ee2915"><path d="M 57.382812 225 C 57.382812 276.964844 99.507812 319.089844 151.472656 319.089844 L 299.328125 319.089844 C 351.292969 319.089844 393.417969 276.964844 393.417969 225 C 393.417969 173.035156 351.292969 130.910156 299.328125 130.910156 L 151.472656 130.910156 C 99.507812 130.910156 57.382812 173.035156 57.382812 225 Z M 57.382812 225 " clip-rule="nonzero"/></clipPath><clipPath id="30fa851b2c"><path d="M 257 204 L 271 204 L 271 246 L 257 246 Z M 257 204 " clip-rule="nonzero"/></clipPath><clipPath id="ec50fa077a"><path d="M 57.382812 225 C 57.382812 276.964844 99.507812 319.089844 151.472656 319.089844 L 299.328125 319.089844 C 351.292969 319.089844 393.417969 276.964844 393.417969 225 C 393.417969 173.035156 351.292969 130.910156 299.328125 130.910156 L 151.472656 130.910156 C 99.507812 130.910156 57.382812 173.035156 57.382812 225 Z M 57.382812 225 " clip-rule="nonzero"/></clipPath><clipPath id="9be05993fe"><path d="M 206 204 L 220 204 L 220 246 L 206 246 Z M 206 204 " clip-rule="nonzero"/></clipPath><clipPath id="499a0ace0c"><path d="M 57.382812 225 C 57.382812 276.964844 99.507812 319.089844 151.472656 319.089844 L 299.328125 319.089844 C 351.292969 319.089844 393.417969 276.964844 393.417969 225 C 393.417969 173.035156 351.292969 130.910156 299.328125 130.910156 L 151.472656 130.910156 C 99.507812 130.910156 57.382812 173.035156 57.382812 225 Z M 57.382812 225 " clip-rule="nonzero"/></clipPath><clipPath id="3464d3d6a5"><path d="M 155 204 L 169 204 L 169 246 L 155 246 Z M 155 204 " clip-rule="nonzero"/></clipPath><clipPath id="1844cbdd04"><path d="M 57.382812 225 C 57.382812 276.964844 99.507812 319.089844 151.472656 319.089844 L 299.328125 319.089844 C 351.292969 319.089844 393.417969 276.964844 393.417969 225 C 393.417969 173.035156 351.292969 130.910156 299.328125 130.910156 L 151.472656 130.910156 C 99.507812 130.910156 57.382812 173.035156 57.382812 225 Z M 57.382812 225 " clip-rule="nonzero"/></clipPath><clipPath id="ee8e2c1cb2"><path d="M 104 204 L 118 204 L 118 246 L 104 246 Z M 104 204 " clip-rule="nonzero"/></clipPath><clipPath id="c79b23caf2"><path d="M 57.382812 225 C 57.382812 276.964844 99.507812 319.089844 151.472656 319.089844 L 299.328125 319.089844 C 351.292969 319.089844 393.417969 276.964844 393.417969 225 C 393.417969 173.035156 351.292969 130.910156 299.328125 130.910156 L 151.472656 130.910156 C 99.507812 130.910156 57.382812 173.035156 57.382812 225 Z M 57.382812 225 " clip-rule="nonzero"/></clipPath><clipPath id="f928fe188f"><path d="M 213 160.347656 L 285 160.347656 L 285 289.347656 L 213 289.347656 Z M 213 160.347656 " clip-rule="nonzero"/></clipPath><clipPath id="bedf2dbc0a"><path d="M 361 197 L 421.742188 197 L 421.742188 286 L 361 286 Z M 361 197 " clip-rule="nonzero"/></clipPath><clipPath id="aff6073f95"><path d="M 0 1.035156 L 449 1.035156 L 449 436.964844 L 0 436.964844 Z M 0 1.035156 " clip-rule="nonzero"/></clipPath><clipPath id="e5d276331e"><path d="M 448.214844 58.027344 L 448.214844 379.972656 C 448.214844 411.449219 422.699219 436.964844 391.222656 436.964844 L 56.992188 436.964844 C 25.515625 436.964844 0 411.449219 0 379.972656 L 0 58.027344 C 0 26.550781 25.515625 1.035156 56.992188 1.035156 L 391.222656 1.035156 C 422.699219 1.035156 448.214844 26.550781 448.214844 58.027344 Z M 448.214844 58.027344 " clip-rule="nonzero"/></clipPath><clipPath id="919f62621a"><path d="M 0 0.0351562 L 448 0.0351562 L 448 435.964844 L 0 435.964844 Z M 0 0.0351562 " clip-rule="nonzero"/></clipPath><clipPath id="4d58e70b6b"><path d="M 448.214844 57.027344 L 448.214844 378.972656 C 448.214844 410.449219 422.699219 435.964844 391.222656 435.964844 L 56.992188 435.964844 C 25.515625 435.964844 0 410.449219 0 378.972656 L 0 57.027344 C 0 25.550781 25.515625 0.0351562 56.992188 0.0351562 L 391.222656 0.0351562 C 422.699219 0.0351562 448.214844 25.550781 448.214844 57.027344 Z M 448.214844 57.027344 " clip-rule="nonzero"/></clipPath><clipPath id="1ad1b0fe2d"><rect x="0" width="449" y="0" height="436"/></clipPath><clipPath id="f60d7e8e7f"><path d="M 29 186 L 116 186 L 116 286 L 29 286 Z M 29 186 " clip-rule="nonzero"/></clipPath><clipPath id="3a647f3762"><path d="M 28.6875 205.636719 L 28.6875 232.363281 C 28.6875 247.480469 34.695312 261.976562 45.382812 272.667969 C 56.074219 283.359375 70.570312 289.363281 85.6875 289.363281 L 362.59375 289.363281 C 377.710938 289.363281 392.207031 283.359375 402.898438 272.667969 C 413.589844 261.976562 419.59375 247.480469 419.59375 232.363281 L 419.59375 205.636719 C 419.59375 190.519531 413.589844 176.023438 402.898438 165.332031 C 392.207031 154.640625 377.710938 148.636719 362.59375 148.636719 L 85.6875 148.636719 C 70.570312 148.636719 56.074219 154.640625 45.382812 165.332031 C 34.695312 176.023438 28.6875 190.519531 28.6875 205.636719 Z M 28.6875 205.636719 " clip-rule="nonzero"/></clipPath><clipPath id="9518e73ce7"><path d="M 123 204 L 186 204 L 186 274 L 123 274 Z M 123 204 " clip-rule="nonzero"/></clipPath><clipPath id="77f79dcb20"><path d="M 28.6875 205.636719 L 28.6875 232.363281 C 28.6875 247.480469 34.695312 261.976562 45.382812 272.667969 C 56.074219 283.359375 70.570312 289.363281 85.6875 289.363281 L 362.59375 289.363281 C 377.710938 289.363281 392.207031 283.359375 402.898438 272.667969 C 413.589844 261.976562 419.59375 247.480469 419.59375 232.363281 L 419.59375 205.636719 C 419.59375 190.519531 413.589844 176.023438 402.898438 165.332031 C 392.207031 154.640625 377.710938 148.636719 362.59375 148.636719 L 85.6875 148.636719 C 70.570312 148.636719 56.074219 154.640625 45.382812 165.332031 C 34.695312 176.023438 28.6875 190.519531 28.6875 205.636719 Z M 28.6875 205.636719 " clip-rule="nonzero"/></clipPath><clipPath id="1b1fb5dd28"><path d="M 193 148.636719 L 270 148.636719 L 270 288.085938 L 193 288.085938 Z M 193 148.636719 " clip-rule="nonzero"/></clipPath><clipPath id="ddb7af0a2a"><path d="M 28.6875 205.636719 L 28.6875 232.363281 C 28.6875 247.480469 34.695312 261.976562 45.382812 272.667969 C 56.074219 283.359375 70.570312 289.363281 85.6875 289.363281 L 362.59375 289.363281 C 377.710938 289.363281 392.207031 283.359375 402.898438 272.667969 C 413.589844 261.976562 419.59375 247.480469 419.59375 232.363281 L 419.59375 205.636719 C 419.59375 190.519531 413.589844 176.023438 402.898438 165.332031 C 392.207031 154.640625 377.710938 148.636719 362.59375 148.636719 L 85.6875 148.636719 C 70.570312 148.636719 56.074219 154.640625 45.382812 165.332031 C 34.695312 176.023438 28.6875 190.519531 28.6875 205.636719 Z M 28.6875 205.636719 " clip-rule="nonzero"/></clipPath><clipPath id="db113b6998"><path d="M 279 215 L 346 215 L 346 266 L 279 266 Z M 279 215 " clip-rule="nonzero"/></clipPath><clipPath id="587192db70"><path d="M 28.6875 205.636719 L 28.6875 232.363281 C 28.6875 247.480469 34.695312 261.976562 45.382812 272.667969 C 56.074219 283.359375 70.570312 289.363281 85.6875 289.363281 L 362.59375 289.363281 C 377.710938 289.363281 392.207031 283.359375 402.898438 272.667969 C 413.589844 261.976562 419.59375 247.480469 419.59375 232.363281 L 419.59375 205.636719 C 419.59375 190.519531 413.589844 176.023438 402.898438 165.332031 C 392.207031 154.640625 377.710938 148.636719 362.59375 148.636719 L 85.6875 148.636719 C 70.570312 148.636719 56.074219 154.640625 45.382812 165.332031 C 34.695312 176.023438 28.6875 190.519531 28.6875 205.636719 Z M 28.6875 205.636719 " clip-rule="nonzero"/></clipPath><clipPath id="c4bf7bae3f"><path d="M 354 189 L 419.148438 189 L 419.148438 285 L 354 285 Z M 354 189 " clip-rule="nonzero"/></clipPath><clipPath id="0b5af1a660"><path d="M 28.6875 205.636719 L 28.6875 232.363281 C 28.6875 247.480469 34.695312 261.976562 45.382812 272.667969 C 56.074219 283.359375 70.570312 289.363281 85.6875 289.363281 L 362.59375 289.363281 C 377.710938 289.363281 392.207031 283.359375 402.898438 272.667969 C 413.589844 261.976562 419.59375 247.480469 419.59375 232.363281 L 419.59375 205.636719 C 419.59375 190.519531 413.589844 176.023438 402.898438 165.332031 C 392.207031 154.640625 377.710938 148.636719 362.59375 148.636719 L 85.6875 148.636719 C 70.570312 148.636719 56.074219 154.640625 45.382812 165.332031 C 34.695312 176.023438 28.6875 190.519531 28.6875 205.636719 Z M 28.6875 205.636719 " clip-rule="nonzero"/></clipPath><clipPath id="ec6724639f"><rect x="0" width="450" y="0" height="438"/></clipPath></defs><path fill="#ff914d" d="M 380.058594 200.023438 C 347.386719 202.175781 258.429688 188.113281 250.457031 208.632812 C 246.789062 218.121094 250.515625 228.121094 259.703125 230.941406 C 264.609375 232.457031 278.402344 232.089844 283.980469 232.152344 C 314.804688 232.484375 344.75 233.726562 371.332031 233.304688 C 395.457031 232.910156 407.335938 229.820312 407.761719 211.816406 C 408.246094 202.207031 393.789062 199.023438 380.058594 200.023438 " fill-opacity="1" fill-rule="nonzero"/><path fill="#ff914d" d="M 138.191406 267.160156 C 136.34375 234.457031 151.285156 145.648438 130.828125 137.464844 C 121.371094 133.707031 111.335938 137.34375 108.425781 146.46875 C 106.882812 151.378906 107.09375 165.167969 106.972656 170.746094 C 106.367188 201.570312 104.820312 231.484375 104.972656 258.066406 C 105.125 282.191406 108.09375 294.136719 126.097656 294.679688 C 135.765625 295.285156 139.070312 280.890625 138.191406 267.160156 " fill-opacity="1" fill-rule="nonzero"/><path fill="#ff914d" d="M 175.015625 193.082031 C 142.34375 195.234375 53.386719 181.171875 45.414062 201.691406 C 41.746094 211.179688 45.476562 221.179688 54.660156 224 C 59.570312 225.515625 73.359375 225.152344 78.9375 225.210938 C 109.761719 225.546875 139.707031 226.789062 166.289062 226.363281 C 190.414062 225.96875 202.296875 222.878906 202.71875 204.875 C 203.203125 195.234375 188.746094 192.082031 175.015625 193.082031 " fill-opacity="1" fill-rule="nonzero"/><g clip-path="url(#cdec352793)"><g clip-path="url(#f423d3649b)"><path fill="#ffe7c2" d="M 81.671875 283.007812 C 106.199219 256.78125 187.933594 201.304688 178.894531 178.902344 C 174.707031 168.566406 164.203125 163.347656 154.796875 167.96875 C 149.742188 170.460938 138.972656 181.097656 134.453125 185.183594 C 109.558594 208.054688 84.660156 229.492188 63.722656 249.769531 C 44.707031 268.183594 37.53125 279.582031 50.691406 294.273438 C 57.539062 302.417969 71.464844 294.109375 81.671875 283.007812 " fill-opacity="1" fill-rule="nonzero"/></g></g><g clip-path="url(#920f2c66c1)"><g clip-path="url(#6bff1a18f9)"><path fill="#ffe7c2" d="M 168.324219 256.117188 C 141.867188 231.851562 85.625 150.648438 63.289062 159.890625 C 52.984375 164.179688 47.867188 174.714844 52.585938 184.121094 C 55.113281 189.175781 65.847656 199.84375 70.003906 204.296875 C 93.105469 228.960938 114.777344 253.65625 135.285156 274.429688 C 153.898438 293.277344 165.332031 300.355469 179.890625 287.027344 C 187.96875 280.082031 179.492188 266.222656 168.324219 256.117188 " fill-opacity="1" fill-rule="nonzero"/></g></g><g clip-path="url(#701b6d54b6)"><g clip-path="url(#39c643fba1)"><path fill="#ffe7c2" d="M 395.046875 211.542969 C 359.214844 213.902344 261.65625 198.480469 252.917969 220.984375 C 248.894531 231.386719 252.984375 242.355469 263.054688 245.445312 C 268.4375 247.109375 283.5625 246.710938 289.679688 246.777344 C 323.480469 247.140625 356.320312 248.503906 385.472656 248.039062 C 411.929688 247.609375 424.960938 244.21875 425.425781 224.472656 C 425.957031 213.902344 410.101562 210.445312 395.046875 211.542969 " fill-opacity="1" fill-rule="nonzero"/></g></g><g clip-path="url(#8453d2918a)"><g clip-path="url(#faaf754643)"><path fill="#ffe7c2" d="M 359.113281 156 C 342.195312 133.996094 310.917969 157.230469 322.417969 180.53125 C 326.207031 188.210938 337.640625 189.90625 344.390625 189.109375 C 359.28125 187.414062 368.917969 169.265625 359.113281 156 Z M 359.113281 156 " fill-opacity="1" fill-rule="nonzero"/></g></g><g clip-path="url(#004009d29d)"><g clip-path="url(#24b46a6123)"><path fill="#ffe7c2" d="M 357.019531 276.257812 C 340.101562 254.253906 308.824219 277.488281 320.324219 300.789062 C 324.113281 308.46875 335.546875 310.164062 342.296875 309.363281 C 357.1875 307.667969 366.824219 289.523438 357.019531 276.257812 Z M 357.019531 276.257812 " fill-opacity="1" fill-rule="nonzero"/></g></g><g clip-path="url(#d6e9335120)"><g clip-path="url(#f08d3b167c)"><path fill="#c2dcff" d="M 386.695312 198.144531 L 64.101562 198.144531 L 57.382812 204.863281 L 57.382812 312.515625 L 64.101562 319.238281 L 386.695312 319.238281 L 393.417969 312.515625 L 393.417969 204.863281 Z M 70.824219 211.585938 L 70.824219 305.796875 L 379.976562 305.796875 L 379.976562 211.585938 Z M 70.824219 211.585938 " fill-opacity="1" fill-rule="evenodd"/></g></g><g clip-path="url(#2d69b43927)"><g clip-path="url(#ab32dcf1ae)"><path fill="#c2dcff" d="M 332.097656 204.863281 L 345.539062 204.863281 L 345.539062 225.105469 L 332.097656 225.105469 Z M 332.097656 204.863281 " fill-opacity="1" fill-rule="evenodd"/></g></g><g clip-path="url(#f529722eba)"><g clip-path="url(#56bd81a75c)"><path fill="#c2dcff" d="M 281.179688 204.863281 L 294.621094 204.863281 L 294.621094 225.105469 L 281.179688 225.105469 Z M 281.179688 204.863281 " fill-opacity="1" fill-rule="evenodd"/></g></g><g clip-path="url(#5148b8cc5f)"><g clip-path="url(#c56f5bf0d5)"><path fill="#c2dcff" d="M 230.277344 204.863281 L 243.71875 204.863281 L 243.71875 225.105469 L 230.277344 225.105469 Z M 230.277344 204.863281 " fill-opacity="1" fill-rule="evenodd"/></g></g><g clip-path="url(#7c5280bbc4)"><g clip-path="url(#b62687c3b2)"><path fill="#c2dcff" d="M 179.363281 204.863281 L 192.804688 204.863281 L 192.804688 225.105469 L 179.363281 225.105469 Z M 179.363281 204.863281 " fill-opacity="1" fill-rule="evenodd"/></g></g><g clip-path="url(#c5105b2542)"><g clip-path="url(#0d4726cf70)"><path fill="#c2dcff" d="M 128.445312 204.863281 L 141.886719 204.863281 L 141.886719 225.105469 L 128.445312 225.105469 Z M 128.445312 204.863281 " fill-opacity="1" fill-rule="evenodd"/></g></g><g clip-path="url(#66f395b837)"><g clip-path="url(#498b7e6b50)"><path fill="#c2dcff" d="M 77.542969 204.863281 L 90.984375 204.863281 L 90.984375 225.105469 L 77.542969 225.105469 Z M 77.542969 204.863281 " fill-opacity="1" fill-rule="evenodd"/></g></g><g clip-path="url(#3071b14585)"><g clip-path="url(#8b49760a69)"><path fill="#c2dcff" d="M 386.695312 270.902344 L 65.527344 270.902344 L 58.804688 277.621094 L 58.804688 309.15625 L 65.527344 315.875 L 386.695312 315.875 L 393.417969 309.15625 L 393.417969 277.621094 Z M 72.246094 284.34375 L 72.246094 302.433594 L 379.976562 302.433594 L 379.976562 284.34375 Z M 72.246094 284.34375 " fill-opacity="1" fill-rule="evenodd"/></g></g><g clip-path="url(#a171968972)"><g clip-path="url(#8272a8462a)"><path fill="#c2dcff" d="M 379.976562 130.9375 L 393.417969 130.9375 L 393.417969 171.261719 L 379.976562 171.261719 Z M 379.976562 130.9375 " fill-opacity="1" fill-rule="evenodd"/></g></g><g clip-path="url(#06195a6419)"><g clip-path="url(#55456aab6e)"><path fill="#c2dcff" d="M 58.804688 130.9375 L 72.246094 130.9375 L 72.246094 171.261719 L 58.804688 171.261719 Z M 58.804688 130.9375 " fill-opacity="1" fill-rule="evenodd"/></g></g><g clip-path="url(#98057d796a)"><g clip-path="url(#889cbb9aa6)"><path fill="#c2dcff" d="M 65.527344 144.378906 L 387.476562 144.378906 L 387.476562 157.820312 L 65.527344 157.820312 Z M 65.527344 144.378906 " fill-opacity="1" fill-rule="evenodd"/></g></g><g clip-path="url(#5a597ef3a8)"><g clip-path="url(#cb6f7789e1)"><path fill="#c2dcff" d="M 358.980469 204.863281 L 372.421875 204.863281 L 372.421875 245.1875 L 358.980469 245.1875 Z M 358.980469 204.863281 " fill-opacity="1" fill-rule="evenodd"/></g></g><g clip-path="url(#6f585eb4bf)"><g clip-path="url(#6001ee2915)"><path fill="#c2dcff" d="M 308.0625 204.863281 L 321.503906 204.863281 L 321.503906 245.1875 L 308.0625 245.1875 Z M 308.0625 204.863281 " fill-opacity="1" fill-rule="evenodd"/></g></g><g clip-path="url(#30fa851b2c)"><g clip-path="url(#ec50fa077a)"><path fill="#c2dcff" d="M 257.160156 204.863281 L 270.601562 204.863281 L 270.601562 245.1875 L 257.160156 245.1875 Z M 257.160156 204.863281 " fill-opacity="1" fill-rule="evenodd"/></g></g><g clip-path="url(#9be05993fe)"><g clip-path="url(#499a0ace0c)"><path fill="#c2dcff" d="M 206.246094 204.863281 L 219.6875 204.863281 L 219.6875 245.1875 L 206.246094 245.1875 Z M 206.246094 204.863281 " fill-opacity="1" fill-rule="evenodd"/></g></g><g clip-path="url(#3464d3d6a5)"><g clip-path="url(#1844cbdd04)"><path fill="#c2dcff" d="M 155.328125 204.863281 L 168.769531 204.863281 L 168.769531 245.1875 L 155.328125 245.1875 Z M 155.328125 204.863281 " fill-opacity="1" fill-rule="evenodd"/></g></g><g clip-path="url(#ee8e2c1cb2)"><g clip-path="url(#c79b23caf2)"><path fill="#c2dcff" d="M 104.425781 204.863281 L 117.867188 204.863281 L 117.867188 245.1875 L 104.425781 245.1875 Z M 104.425781 204.863281 " fill-opacity="1" fill-rule="evenodd"/></g></g><path fill="#ffd6d6" d="M 77.601562 195.492188 L 77.878906 195.492188 C 79.9375 195.492188 81.925781 195.867188 83.839844 196.609375 C 85.757812 197.355469 87.476562 198.421875 88.996094 199.808594 C 89.875 200.558594 90.808594 201.234375 91.800781 201.832031 C 92.589844 202.34375 93.429688 202.742188 94.328125 203.027344 C 96.058594 203.570312 97.554688 204.492188 98.824219 205.789062 C 100.0625 206.832031 100.949219 208.117188 101.488281 209.644531 C 101.609375 210.867188 101.671875 212.152344 101.671875 213.503906 C 101.648438 216.554688 101.402344 219.582031 100.933594 222.597656 C 100.164062 227.40625 99.808594 232.246094 99.867188 237.113281 C 99.867188 238.28125 99.914062 240.878906 100.007812 244.917969 C 100.101562 248.953125 101.832031 255.476562 105.199219 264.484375 C 106.234375 266.6875 106.984375 268.386719 107.449219 269.582031 C 107.855469 270.535156 108.085938 271.53125 108.140625 272.566406 C 108.121094 273.417969 107.96875 274.246094 107.683594 275.050781 C 106.261719 278.972656 103.6875 280.933594 99.964844 280.933594 C 96.660156 280.933594 93.628906 279.15625 90.871094 275.601562 C 88.117188 272.050781 85.941406 267.164062 84.347656 260.949219 C 83.796875 258.867188 83.398438 257.394531 83.15625 256.535156 C 82.847656 255.734375 82.601562 255.339844 82.421875 255.339844 C 82.320312 255.355469 82.230469 255.386719 82.144531 255.4375 C 81.800781 255.789062 81.523438 256.1875 81.3125 256.628906 C 80.886719 257.242188 80.226562 258.269531 79.339844 259.710938 C 78.453125 261.152344 77.515625 262.636719 76.535156 264.167969 C 74.007812 268.101562 71.050781 271.679688 67.667969 274.910156 C 64.601562 278.019531 61.1875 280.6875 57.425781 282.90625 C 54.816406 284.269531 52.058594 285.1875 49.152344 285.664062 C 48.027344 285.847656 46.894531 285.9375 45.753906 285.941406 C 44.378906 285.957031 43.03125 285.769531 41.714844 285.386719 C 33.449219 282.632812 29.285156 275.34375 29.222656 263.527344 C 29.199219 259.347656 29.691406 255.230469 30.691406 251.171875 C 32.070312 246.175781 33.847656 241.320312 36.023438 236.613281 C 38.480469 230.785156 41.382812 225.191406 44.730469 219.824219 C 47.5625 215.453125 50.839844 211.441406 54.558594 207.792969 C 62.816406 199.710938 70.496094 195.613281 77.601562 195.492188 Z M 77.144531 214.601562 C 75.851562 214.625 74.65625 214.980469 73.5625 215.667969 C 67.011719 220.082031 61.324219 227.15625 56.507812 236.890625 C 53.390625 243.285156 51.1875 248.230469 49.898438 251.726562 C 48.714844 254.761719 47.949219 257.898438 47.609375 261.140625 C 47.496094 261.992188 47.433594 262.847656 47.425781 263.707031 C 47.425781 265.421875 47.78125 266.308594 48.492188 266.371094 L 48.589844 266.371094 C 49.625 266.371094 51.675781 264.808594 54.738281 261.683594 C 56.496094 259.699219 58.148438 257.632812 59.695312 255.480469 C 61.605469 252.890625 63.382812 250.210938 65.023438 247.441406 C 66.921875 244.257812 69.003906 240.417969 71.269531 235.921875 C 73.539062 231.421875 75.511719 227.257812 77.199219 223.429688 C 78.882812 219.605469 79.722656 217.261719 79.722656 216.402344 C 79.730469 216.136719 79.667969 215.886719 79.535156 215.65625 C 79.402344 215.425781 79.21875 215.242188 78.988281 215.113281 C 78.414062 214.796875 77.800781 214.625 77.144531 214.601562 Z M 77.144531 214.601562 " fill-opacity="1" fill-rule="nonzero"/><path fill="#ffd6d6" d="M 126.378906 244.722656 C 122.214844 243.742188 119.210938 241.78125 117.371094 238.839844 C 116.460938 237.609375 115.972656 236.234375 115.898438 234.703125 C 115.957031 233.675781 116.234375 232.707031 116.734375 231.804688 C 117.234375 230.902344 117.902344 230.152344 118.746094 229.558594 C 119.507812 228.808594 120.382812 228.226562 121.363281 227.808594 C 122.34375 227.386719 123.371094 227.160156 124.4375 227.125 C 125.910156 226.976562 128.144531 226.898438 131.140625 226.890625 C 134.753906 226.890625 139.925781 226.984375 146.660156 227.167969 C 154.476562 227.355469 162.347656 227.445312 170.269531 227.445312 C 174.621094 227.445312 178.445312 227.414062 181.75 227.351562 C 186.101562 227.230469 189.46875 227.167969 191.855469 227.167969 C 193.816406 227.167969 195.300781 227.214844 196.3125 227.308594 C 197.144531 227.359375 197.953125 227.527344 198.742188 227.808594 C 199.390625 228.078125 200.003906 228.414062 200.574219 228.820312 C 201.984375 229.664062 203.070312 230.8125 203.835938 232.265625 C 204.539062 233.597656 204.894531 235.019531 204.902344 236.527344 C 204.90625 238.140625 204.492188 239.640625 203.664062 241.027344 C 202.75 242.519531 201.480469 243.585938 199.851562 244.222656 C 198.378906 244.777344 194.597656 245.222656 188.507812 245.554688 C 182.417969 245.890625 175.054688 246.058594 166.414062 246.058594 C 163.535156 246.058594 160.597656 246.023438 157.597656 245.960938 C 152.757812 245.839844 148.195312 245.746094 143.910156 245.683594 C 140.238281 245.683594 137.574219 245.652344 135.917969 245.585938 C 134.261719 245.523438 132.515625 245.429688 130.683594 245.3125 C 129.234375 245.203125 127.800781 245.007812 126.378906 244.722656 Z M 126.378906 244.722656 " fill-opacity="1" fill-rule="nonzero"/><g clip-path="url(#f928fe188f)"><path fill="#ffd6d6" d="M 224.867188 160.304688 C 228.355469 160.371094 230.789062 161.503906 232.167969 163.707031 C 233.648438 166.230469 234.398438 168.953125 234.417969 171.882812 C 234.472656 172.984375 234.503906 174.046875 234.511719 175.078125 C 234.511719 177.28125 234.421875 179.457031 234.234375 181.601562 C 234.171875 182.519531 234.109375 183.40625 234.054688 184.265625 C 233.871094 191.800781 233.703125 198.089844 233.554688 203.144531 C 233.402344 208.195312 233.324219 210.84375 233.320312 211.085938 L 235.449219 209.15625 C 236.792969 207.933594 238.445312 206.402344 240.40625 204.5625 C 248.367188 197.027344 255.195312 192.804688 260.894531 191.886719 C 262.046875 191.703125 263.210938 191.613281 264.378906 191.609375 C 272.195312 191.609375 278.234375 196.140625 282.5 205.199219 C 283.105469 206.488281 283.597656 207.824219 283.96875 209.199219 C 284.316406 210.742188 284.480469 212.304688 284.472656 213.886719 C 284.472656 215.8125 284.425781 218.65625 284.332031 222.414062 C 283.964844 229.394531 281.789062 237.675781 277.808594 247.261719 C 273.761719 256.972656 268.296875 265.804688 261.414062 273.757812 C 254.464844 281.839844 246.335938 287.105469 237.027344 289.554688 C 235.9375 289.460938 234.871094 289.246094 233.832031 288.917969 C 232.691406 288.582031 231.589844 288.152344 230.527344 287.625 C 228.957031 286.652344 227.246094 286.113281 225.398438 286.015625 C 225.117188 286.023438 224.84375 286.054688 224.566406 286.113281 C 224.234375 286.171875 223.894531 286.203125 223.554688 286.210938 C 221.878906 286.15625 220.335938 285.679688 218.917969 284.78125 C 217.222656 283.773438 215.953125 282.382812 215.101562 280.601562 C 214.613281 279.375 214.320312 278.105469 214.230469 276.785156 C 214.015625 274.980469 213.875 272.140625 213.8125 268.257812 C 213.75 264.378906 213.71875 258.945312 213.71875 251.953125 C 213.71875 244.722656 213.761719 238.554688 213.855469 233.445312 C 213.949219 228.339844 214.027344 225.496094 214.089844 224.921875 C 214.148438 224.246094 214.300781 220.492188 214.546875 213.664062 C 214.796875 206.835938 215.074219 198.492188 215.378906 188.636719 C 215.4375 187.214844 215.496094 185.714844 215.5625 184.140625 C 215.683594 179.789062 215.957031 175.546875 216.390625 171.414062 C 216.824219 167.277344 217.742188 164.382812 219.140625 162.734375 C 219.902344 161.972656 220.777344 161.382812 221.765625 160.960938 C 222.757812 160.539062 223.789062 160.320312 224.867188 160.304688 Z M 263.535156 210.179688 C 262.671875 210.378906 261.875 210.734375 261.148438 211.246094 C 257.414062 213.976562 253.972656 217.042969 250.820312 220.433594 C 247.113281 224.128906 243.699219 228.082031 240.578125 232.285156 C 237.929688 235.886719 235.863281 239.796875 234.375 244.011719 C 233.109375 248.375 232.480469 252.832031 232.488281 257.375 L 232.488281 264.082031 C 232.4375 264.839844 232.542969 265.574219 232.808594 266.289062 C 232.898438 266.496094 233.042969 266.660156 233.238281 266.777344 C 233.433594 266.894531 233.644531 266.945312 233.875 266.925781 C 234.425781 266.957031 234.945312 267.09375 235.441406 267.34375 C 236.027344 267.601562 236.578125 267.921875 237.09375 268.300781 C 237.566406 268.804688 238.152344 269.082031 238.839844 269.132812 L 239.480469 269.132812 C 240.3125 268.898438 241.050781 268.484375 241.6875 267.898438 C 242.789062 267.074219 244.351562 265.742188 246.375 263.898438 C 250.90625 259.527344 254.6875 254.582031 257.71875 249.0625 C 261.042969 243.1875 263.445312 236.957031 264.921875 230.367188 C 265.703125 227.136719 266.101562 223.863281 266.117188 220.539062 C 266.132812 217.492188 265.777344 214.492188 265.050781 211.53125 C 264.828125 211.148438 264.570312 210.796875 264.273438 210.464844 C 264.0625 210.253906 263.8125 210.160156 263.515625 210.179688 Z M 263.535156 210.179688 " fill-opacity="1" fill-rule="nonzero"/></g><path fill="#ffd6d6" d="M 300.160156 239.023438 C 295.75 237.0625 293.546875 234.121094 293.550781 230.207031 C 293.535156 228.546875 294.050781 227.074219 295.109375 225.792969 C 296.15625 224.480469 297.503906 223.652344 299.148438 223.3125 C 299.824219 223.191406 302.058594 223.023438 305.851562 222.808594 C 309.648438 222.597656 314.089844 222.398438 319.175781 222.210938 L 323.441406 222.03125 C 331.703125 221.660156 337.585938 221.476562 341.082031 221.476562 C 342.507812 221.453125 343.929688 221.53125 345.34375 221.710938 C 346.09375 221.792969 346.804688 222.007812 347.476562 222.351562 C 347.980469 222.664062 348.425781 223.050781 348.808594 223.503906 L 349.363281 224.058594 C 350.257812 224.882812 350.960938 225.851562 351.472656 226.960938 C 351.980469 228.070312 352.257812 229.234375 352.304688 230.453125 C 352.269531 231.628906 352.007812 232.75 351.511719 233.820312 C 351.019531 234.886719 350.332031 235.816406 349.457031 236.601562 C 348.109375 238.128906 345.246094 239.195312 340.867188 239.800781 C 336.492188 240.402344 329.003906 240.695312 318.410156 240.675781 C 314.367188 240.675781 311.210938 240.640625 308.945312 240.578125 C 307.15625 240.5625 305.378906 240.410156 303.613281 240.121094 C 302.410156 239.917969 301.261719 239.550781 300.160156 239.023438 Z M 302.089844 267.226562 C 299.738281 266.554688 297.777344 265.285156 296.207031 263.410156 C 295.535156 262.636719 295.019531 261.773438 294.652344 260.820312 C 294.285156 259.867188 294.09375 258.878906 294.074219 257.855469 C 294.113281 256.640625 294.414062 255.496094 294.976562 254.417969 C 295.535156 253.339844 296.300781 252.4375 297.273438 251.707031 C 298.585938 250.792969 300.039062 250.273438 301.632812 250.148438 C 303.6875 249.84375 307.191406 249.539062 312.152344 249.234375 C 315.707031 249.046875 319.285156 248.789062 322.898438 248.453125 C 326.507812 248.121094 329.324219 247.828125 331.347656 247.582031 C 334.941406 247.042969 338.554688 246.738281 342.1875 246.664062 C 346.105469 246.664062 348.738281 247.398438 350.085938 248.871094 C 350.84375 249.5625 351.515625 250.328125 352.113281 251.164062 C 352.628906 251.835938 353.023438 252.570312 353.304688 253.367188 C 353.429688 253.820312 353.492188 254.277344 353.488281 254.742188 C 353.445312 256.503906 352.925781 258.109375 351.929688 259.5625 C 350.953125 261.140625 349.632812 262.347656 347.976562 263.1875 C 344.828125 264.074219 341.632812 264.71875 338.382812 265.113281 C 333.304688 265.910156 327.886719 266.621094 322.128906 267.246094 C 316.375 267.871094 312.175781 268.175781 309.539062 268.164062 L 309.265625 268.164062 C 307.941406 268.15625 306.621094 268.0625 305.308594 267.886719 C 304.21875 267.75 303.144531 267.53125 302.089844 267.226562 Z M 302.089844 267.226562 " fill-opacity="1" fill-rule="nonzero"/><g clip-path="url(#bedf2dbc0a)"><path fill="#ffd6d6" d="M 379.347656 284.769531 C 377.457031 284.164062 375.664062 283.339844 373.972656 282.300781 C 372.28125 281.257812 370.738281 280.03125 369.347656 278.613281 C 367.953125 277.199219 366.753906 275.636719 365.738281 273.929688 C 364.726562 272.21875 363.933594 270.417969 363.359375 268.515625 C 362.382812 264.667969 361.921875 260.757812 361.984375 256.789062 C 361.992188 254.089844 362.144531 251.394531 362.441406 248.710938 C 363.078125 241.375 364.792969 234.300781 367.589844 227.488281 C 370.59375 221.386719 374.359375 215.796875 378.886719 210.722656 C 383.863281 204.996094 388.269531 201.152344 392.117188 199.199219 C 394.535156 198.089844 397.074219 197.507812 399.738281 197.453125 C 405.25 197.453125 409.691406 200.648438 413.058594 207.046875 C 413.933594 208.972656 414.394531 210.992188 414.4375 213.109375 C 414.4375 214.703125 414.132812 216.234375 413.519531 217.703125 C 413.273438 218.449219 412.914062 219.140625 412.445312 219.769531 C 411.976562 220.398438 411.417969 220.9375 410.769531 221.386719 C 410.125 221.832031 409.421875 222.164062 408.667969 222.382812 C 407.910156 222.601562 407.140625 222.695312 406.355469 222.660156 C 405.175781 222.679688 404.039062 222.472656 402.941406 222.042969 C 401.84375 221.613281 400.867188 220.992188 400.015625 220.175781 L 397.167969 217.691406 L 394.046875 221.273438 C 391.039062 224.65625 388.417969 228.316406 386.1875 232.253906 C 384.332031 235.726562 382.96875 239.386719 382.105469 243.230469 C 381.058594 247.613281 380.476562 252.054688 380.359375 256.554688 C 380.359375 262.496094 381.984375 266.015625 385.230469 267.117188 C 385.960938 267.242188 386.695312 267.300781 387.4375 267.300781 C 392.027344 267.300781 397.265625 264.726562 403.148438 259.582031 C 407.0625 256.03125 410.066406 254.039062 412.15625 253.613281 C 412.761719 253.5 413.371094 253.4375 413.988281 253.433594 C 414.640625 253.386719 415.285156 253.433594 415.925781 253.570312 C 416.566406 253.707031 417.171875 253.929688 417.75 254.238281 C 418.328125 254.546875 418.851562 254.929688 419.320312 255.382812 C 419.789062 255.839844 420.1875 256.351562 420.511719 256.917969 C 421.261719 258.292969 421.617188 259.765625 421.578125 261.332031 C 421.515625 263.410156 421.054688 265.402344 420.203125 267.300781 C 418.460938 270.324219 416.226562 272.925781 413.496094 275.101562 C 410.367188 277.867188 406.9375 280.191406 403.210938 282.082031 C 401.234375 283.117188 399.167969 283.910156 397.007812 284.472656 C 394.546875 284.980469 392.058594 285.257812 389.546875 285.304688 L 383.300781 285.304688 C 381.960938 285.292969 380.640625 285.113281 379.347656 284.769531 Z M 379.347656 284.769531 " fill-opacity="1" fill-rule="nonzero"/></g><g transform="matrix(1, 0, 0, 1, 0, 6)"><g clip-path="url(#ec6724639f)"><g clip-path="url(#aff6073f95)"><g clip-path="url(#e5d276331e)"><g transform="matrix(1, 0, 0, 1, 0, 1)"><g clip-path="url(#1ad1b0fe2d)"><g clip-path="url(#919f62621a)"><g clip-path="url(#4d58e70b6b)"><path fill="#cc0000" d="M 0 0.0351562 L 447.847656 0.0351562 L 447.847656 435.964844 L 0 435.964844 Z M 0 0.0351562 " fill-opacity="1" fill-rule="nonzero"/></g></g></g></g></g></g><g clip-path="url(#f60d7e8e7f)"><g clip-path="url(#3a647f3762)"><path fill="#ffd6d6" d="M 81.796875 186.878906 L 82.097656 186.878906 C 84.335938 186.878906 86.496094 187.285156 88.582031 188.09375 C 90.667969 188.90625 92.539062 190.066406 94.191406 191.574219 C 95.144531 192.390625 96.164062 193.125 97.238281 193.777344 C 98.097656 194.332031 99.015625 194.765625 99.988281 195.074219 C 101.871094 195.667969 103.5 196.667969 104.882812 198.078125 C 106.226562 199.214844 107.191406 200.613281 107.78125 202.277344 C 107.910156 203.605469 107.976562 205.003906 107.976562 206.472656 C 107.953125 209.789062 107.683594 213.085938 107.175781 216.363281 C 106.339844 221.59375 105.953125 226.859375 106.015625 232.15625 C 106.015625 233.425781 106.066406 236.253906 106.167969 240.644531 C 106.269531 245.035156 108.152344 252.132812 111.816406 261.933594 C 112.945312 264.328125 113.757812 266.175781 114.261719 267.476562 C 114.707031 268.511719 114.957031 269.59375 115.015625 270.722656 C 114.992188 271.648438 114.828125 272.550781 114.515625 273.421875 C 112.96875 277.691406 110.171875 279.824219 106.121094 279.824219 C 102.527344 279.824219 99.230469 277.890625 96.230469 274.027344 C 93.230469 270.160156 90.867188 264.847656 89.136719 258.082031 C 88.53125 255.816406 88.097656 254.21875 87.835938 253.28125 C 87.5 252.414062 87.234375 251.984375 87.035156 251.984375 C 86.929688 252 86.828125 252.03125 86.734375 252.089844 C 86.363281 252.472656 86.0625 252.90625 85.832031 253.386719 C 85.367188 254.050781 84.652344 255.167969 83.683594 256.738281 C 82.71875 258.308594 81.703125 259.921875 80.636719 261.585938 C 77.882812 265.863281 74.667969 269.761719 70.988281 273.273438 C 67.652344 276.65625 63.9375 279.554688 59.84375 281.96875 C 57.007812 283.453125 54.007812 284.453125 50.847656 284.972656 C 49.621094 285.167969 48.390625 285.269531 47.148438 285.273438 C 45.65625 285.289062 44.191406 285.085938 42.753906 284.671875 C 33.742188 281.6875 29.199219 273.757812 29.128906 260.878906 C 29.105469 256.332031 29.640625 251.851562 30.730469 247.4375 C 32.230469 242 34.164062 236.722656 36.527344 231.601562 C 39.214844 225.261719 42.382812 219.171875 46.035156 213.335938 C 49.117188 208.582031 52.683594 204.21875 56.726562 200.246094 C 65.707031 191.464844 74.066406 187.007812 81.796875 186.878906 Z M 81.296875 207.65625 C 79.890625 207.679688 78.589844 208.066406 77.402344 208.816406 C 70.265625 213.640625 64.0625 221.332031 58.789062 231.890625 C 55.398438 238.847656 53 244.226562 51.601562 248.03125 C 50.3125 251.332031 49.480469 254.746094 49.109375 258.269531 C 48.984375 259.195312 48.917969 260.128906 48.910156 261.0625 C 48.910156 262.925781 49.296875 263.890625 50.070312 263.960938 L 50.175781 263.960938 C 51.304688 263.960938 53.535156 262.261719 56.867188 258.859375 C 58.78125 256.722656 60.582031 254.492188 62.269531 252.167969 C 64.347656 249.351562 66.28125 246.4375 68.066406 243.425781 C 70.128906 239.964844 72.394531 235.785156 74.859375 230.894531 C 77.328125 226 79.476562 221.46875 81.308594 217.304688 C 83.140625 213.144531 84.054688 210.597656 84.054688 209.664062 C 84.0625 209.371094 83.996094 209.101562 83.851562 208.847656 C 83.707031 208.597656 83.507812 208.402344 83.257812 208.257812 C 82.652344 207.902344 81.996094 207.703125 81.296875 207.65625 Z M 81.296875 207.65625 " fill-opacity="1" fill-rule="nonzero"/></g></g><g clip-path="url(#9518e73ce7)"><g clip-path="url(#77f79dcb20)"><path fill="#ffd6d6" d="M 128.453125 272.601562 C 125.324219 271.332031 123.757812 268.367188 123.757812 263.707031 C 123.757812 259.378906 127.054688 253.816406 133.648438 247.023438 C 135.046875 245.5625 136.207031 244.277344 137.125 243.171875 C 137.652344 242.613281 138.101562 242 138.472656 241.328125 C 138.09375 240.4375 137.609375 239.605469 137.023438 238.835938 C 136.054688 237.375 134.875 235.671875 133.472656 233.734375 C 127.476562 225.671875 124.476562 219.273438 124.476562 214.542969 C 124.433594 212.574219 124.96875 210.777344 126.078125 209.152344 C 126.996094 207.75 128.195312 206.652344 129.671875 205.859375 C 131.042969 205.125 132.507812 204.757812 134.066406 204.757812 C 134.828125 204.761719 135.582031 204.863281 136.320312 205.058594 C 137.058594 205.257812 137.757812 205.542969 138.421875 205.917969 C 139.085938 206.296875 139.695312 206.75 140.242188 207.28125 C 140.792969 207.8125 141.265625 208.40625 141.660156 209.058594 C 147.789062 219.1875 151.269531 224.25 152.097656 224.25 C 152.359375 224.25 153.007812 223.597656 154.042969 222.300781 C 155.078125 221.003906 156.238281 219.421875 157.523438 217.558594 C 159.691406 214.164062 162.335938 211.199219 165.464844 208.664062 C 168.164062 206.601562 170.644531 205.570312 172.910156 205.570312 C 173.808594 205.566406 174.675781 205.742188 175.507812 206.085938 C 176.339844 206.433594 177.074219 206.925781 177.710938 207.5625 C 178.582031 208.335938 179.257812 209.253906 179.726562 210.316406 C 180.199219 211.382812 180.425781 212.496094 180.410156 213.664062 C 180.410156 217.726562 177.707031 223.691406 172.292969 231.554688 C 170.492188 234.28125 168.980469 236.648438 167.75 238.648438 C 167.03125 239.6875 166.414062 240.785156 165.90625 241.941406 C 165.90625 242.207031 166.679688 243.085938 168.226562 244.585938 C 169.769531 246.085938 171.539062 247.71875 173.523438 249.480469 C 175.527344 251.242188 177.394531 252.789062 179.125 254.117188 C 181.015625 255.601562 182.558594 257.382812 183.761719 259.464844 C 184.859375 261.242188 185.445312 263.171875 185.511719 265.261719 C 185.429688 266.085938 185.175781 266.859375 184.757812 267.578125 C 184.242188 268.605469 183.59375 269.535156 182.8125 270.375 C 181.988281 271.378906 181.007812 272.195312 179.867188 272.820312 C 178.667969 273.3125 177.417969 273.53125 176.121094 273.46875 C 173.445312 273.367188 170.980469 272.59375 168.722656 271.152344 C 164.996094 268.765625 161.519531 266.058594 158.289062 263.035156 L 151.933594 257.398438 L 149.035156 260.101562 C 148.167969 260.964844 147.1875 262.046875 146.089844 263.347656 C 144.992188 264.644531 144.011719 265.894531 143.144531 267.09375 C 140.015625 271.621094 136.683594 273.886719 133.148438 273.886719 C 131.472656 273.859375 129.910156 273.429688 128.453125 272.601562 Z M 128.453125 272.601562 " fill-opacity="1" fill-rule="nonzero"/></g></g><g clip-path="url(#1b1fb5dd28)"><g clip-path="url(#ddb7af0a2a)"><path fill="#ffd6d6" d="M 205.097656 148.601562 C 208.894531 148.671875 211.539062 149.90625 213.039062 152.300781 C 214.652344 155.046875 215.46875 158.011719 215.488281 161.195312 C 215.546875 162.394531 215.582031 163.550781 215.589844 164.671875 C 215.589844 167.070312 215.492188 169.433594 215.289062 171.769531 C 215.21875 172.765625 215.152344 173.734375 215.09375 174.667969 C 214.890625 182.863281 214.710938 189.707031 214.546875 195.203125 C 214.386719 200.699219 214.300781 203.578125 214.292969 203.839844 L 216.613281 201.742188 C 218.074219 200.414062 219.871094 198.746094 222.003906 196.746094 C 230.660156 188.550781 238.089844 183.957031 244.289062 182.957031 C 245.542969 182.757812 246.808594 182.660156 248.082031 182.65625 C 256.582031 182.65625 263.152344 187.585938 267.792969 197.441406 C 268.453125 198.84375 268.988281 200.292969 269.390625 201.789062 C 269.765625 203.46875 269.949219 205.167969 269.9375 206.890625 C 269.9375 208.984375 269.886719 212.078125 269.785156 216.167969 C 269.382812 223.757812 267.019531 232.765625 262.691406 243.195312 C 258.289062 253.757812 252.34375 263.367188 244.855469 272.019531 C 237.296875 280.808594 228.453125 286.539062 218.328125 289.203125 C 217.140625 289.101562 215.984375 288.867188 214.847656 288.507812 C 213.609375 288.144531 212.414062 287.675781 211.253906 287.105469 C 209.566406 286.078125 207.734375 285.515625 205.757812 285.414062 C 205.453125 285.417969 205.152344 285.453125 204.855469 285.515625 C 204.488281 285.582031 204.121094 285.617188 203.753906 285.621094 C 201.929688 285.5625 200.25 285.042969 198.707031 284.066406 C 196.863281 282.972656 195.480469 281.457031 194.558594 279.523438 C 194.023438 278.1875 193.707031 276.804688 193.605469 275.371094 C 193.375 273.40625 193.222656 270.316406 193.15625 266.09375 C 193.085938 261.875 193.050781 255.960938 193.050781 248.355469 C 193.050781 240.492188 193.101562 233.785156 193.199219 228.226562 C 193.300781 222.667969 193.386719 219.574219 193.457031 218.949219 C 193.519531 218.214844 193.683594 214.132812 193.953125 206.707031 C 194.226562 199.277344 194.527344 190.203125 194.859375 179.480469 C 194.921875 177.933594 194.988281 176.304688 195.054688 174.585938 C 195.1875 169.855469 195.488281 165.242188 195.960938 160.742188 C 196.433594 156.242188 197.429688 153.097656 198.953125 151.304688 C 199.761719 150.472656 200.699219 149.824219 201.761719 149.355469 C 202.824219 148.890625 203.9375 148.636719 205.097656 148.601562 Z M 247.164062 202.902344 C 246.222656 203.121094 245.359375 203.507812 244.566406 204.0625 C 240.503906 207.035156 236.757812 210.367188 233.332031 214.058594 C 229.296875 218.078125 225.585938 222.378906 222.1875 226.949219 C 219.308594 230.867188 217.058594 235.121094 215.441406 239.703125 C 214.066406 244.453125 213.382812 249.300781 213.386719 254.246094 L 213.386719 261.539062 C 213.332031 262.363281 213.449219 263.164062 213.734375 263.9375 C 213.835938 264.167969 213.992188 264.34375 214.203125 264.472656 C 214.417969 264.601562 214.648438 264.65625 214.894531 264.632812 C 215.496094 264.667969 216.0625 264.816406 216.601562 265.085938 C 217.238281 265.367188 217.835938 265.714844 218.398438 266.128906 C 218.914062 266.675781 219.546875 266.976562 220.296875 267.035156 L 220.996094 267.035156 C 221.902344 266.777344 222.703125 266.328125 223.394531 265.691406 C 224.59375 264.792969 226.292969 263.34375 228.496094 261.339844 C 233.429688 256.578125 237.539062 251.191406 240.832031 245.179688 C 244.453125 238.785156 247.066406 232.007812 248.671875 224.839844 C 249.519531 221.328125 249.953125 217.761719 249.96875 214.148438 C 249.988281 210.835938 249.601562 207.570312 248.8125 204.351562 C 248.570312 203.9375 248.285156 203.550781 247.964844 203.191406 C 247.742188 202.976562 247.472656 202.882812 247.164062 202.902344 Z M 247.164062 202.902344 " fill-opacity="1" fill-rule="nonzero"/></g></g><g clip-path="url(#db113b6998)"><g clip-path="url(#587192db70)"><path fill="#ffd6d6" d="M 287.027344 234.207031 C 282.226562 232.074219 279.832031 228.878906 279.839844 224.621094 C 279.820312 222.8125 280.382812 221.214844 281.53125 219.820312 C 282.671875 218.390625 284.136719 217.492188 285.925781 217.117188 C 286.660156 216.988281 289.09375 216.804688 293.21875 216.574219 C 297.347656 216.339844 302.179688 216.125 307.714844 215.921875 L 312.351562 215.726562 C 321.34375 215.324219 327.738281 215.125 331.542969 215.125 C 333.09375 215.09375 334.640625 215.179688 336.179688 215.378906 C 336.996094 215.46875 337.769531 215.699219 338.5 216.074219 C 339.046875 216.414062 339.53125 216.832031 339.949219 217.328125 L 340.550781 217.929688 C 341.527344 218.828125 342.292969 219.882812 342.847656 221.089844 C 343.402344 222.292969 343.703125 223.558594 343.75 224.886719 C 343.714844 226.167969 343.429688 227.386719 342.890625 228.550781 C 342.351562 229.710938 341.609375 230.71875 340.65625 231.578125 C 339.1875 233.238281 336.070312 234.398438 331.308594 235.054688 C 326.546875 235.710938 318.40625 236.03125 306.878906 236.007812 C 302.480469 236.007812 299.046875 235.972656 296.582031 235.902344 C 294.636719 235.882812 292.703125 235.71875 290.785156 235.402344 C 289.476562 235.183594 288.222656 234.785156 287.027344 234.207031 Z M 289.128906 264.890625 C 286.570312 264.160156 284.433594 262.777344 282.726562 260.738281 C 281.996094 259.898438 281.433594 258.960938 281.035156 257.921875 C 280.636719 256.882812 280.425781 255.808594 280.40625 254.699219 C 280.453125 253.375 280.777344 252.128906 281.386719 250.957031 C 281.996094 249.785156 282.828125 248.800781 283.886719 248.007812 C 285.3125 247.011719 286.894531 246.449219 288.628906 246.3125 C 290.863281 245.980469 294.675781 245.648438 300.074219 245.316406 C 303.9375 245.117188 307.835938 244.835938 311.761719 244.46875 C 315.6875 244.105469 318.753906 243.789062 320.957031 243.519531 C 324.867188 242.9375 328.796875 242.605469 332.746094 242.523438 C 337.007812 242.523438 339.871094 243.324219 341.339844 244.921875 C 342.160156 245.675781 342.894531 246.507812 343.542969 247.414062 C 344.101562 248.148438 344.535156 248.949219 344.839844 249.816406 C 344.976562 250.304688 345.042969 250.804688 345.039062 251.3125 C 344.992188 253.226562 344.429688 254.972656 343.347656 256.554688 C 342.28125 258.269531 340.847656 259.582031 339.042969 260.496094 C 335.621094 261.460938 332.140625 262.160156 328.609375 262.59375 C 323.082031 263.460938 317.1875 264.234375 310.925781 264.914062 C 304.664062 265.59375 300.101562 265.925781 297.230469 265.910156 L 296.929688 265.910156 C 295.492188 265.902344 294.054688 265.800781 292.628906 265.609375 C 291.445312 265.46875 290.277344 265.234375 289.128906 264.914062 Z M 289.128906 264.890625 " fill-opacity="1" fill-rule="nonzero"/></g></g><g clip-path="url(#c4bf7bae3f)"><g clip-path="url(#0b5af1a660)"><path fill="#ffd6d6" d="M 373.167969 284 C 371.109375 283.339844 369.164062 282.445312 367.324219 281.3125 C 365.484375 280.179688 363.804688 278.84375 362.292969 277.300781 C 360.777344 275.761719 359.46875 274.0625 358.367188 272.203125 C 357.265625 270.347656 356.402344 268.382812 355.777344 266.316406 C 354.714844 262.128906 354.214844 257.878906 354.28125 253.5625 C 354.289062 250.621094 354.457031 247.691406 354.777344 244.773438 C 355.46875 236.792969 357.335938 229.097656 360.378906 221.6875 C 363.644531 215.046875 367.742188 208.96875 372.671875 203.445312 C 378.082031 197.214844 382.878906 193.039062 387.058594 190.914062 C 389.691406 189.707031 392.457031 189.074219 395.351562 189.011719 C 401.347656 189.011719 406.179688 192.488281 409.84375 199.445312 C 410.792969 201.542969 411.292969 203.742188 411.339844 206.042969 C 411.34375 207.777344 411.011719 209.441406 410.34375 211.042969 C 410.074219 211.855469 409.6875 212.601562 409.175781 213.289062 C 408.664062 213.972656 408.054688 214.558594 407.351562 215.046875 C 406.648438 215.53125 405.886719 215.894531 405.066406 216.132812 C 404.242188 216.371094 403.40625 216.46875 402.550781 216.433594 C 401.269531 216.453125 400.03125 216.230469 398.835938 215.761719 C 397.640625 215.292969 396.578125 214.617188 395.652344 213.730469 L 392.554688 211.03125 L 389.15625 214.925781 C 385.886719 218.605469 383.039062 222.585938 380.613281 226.871094 C 378.589844 230.648438 377.109375 234.628906 376.171875 238.8125 C 375.03125 243.578125 374.398438 248.410156 374.269531 253.304688 C 374.269531 259.769531 376.035156 263.597656 379.570312 264.796875 C 380.363281 264.929688 381.164062 264.996094 381.96875 264.992188 C 386.960938 264.992188 392.660156 262.195312 399.058594 256.597656 C 403.320312 252.734375 406.585938 250.570312 408.859375 250.105469 C 409.515625 249.980469 410.183594 249.914062 410.851562 249.910156 C 411.5625 249.859375 412.265625 249.910156 412.960938 250.058594 C 413.65625 250.207031 414.316406 250.449219 414.945312 250.785156 C 415.574219 251.121094 416.140625 251.535156 416.652344 252.03125 C 417.164062 252.527344 417.59375 253.082031 417.949219 253.699219 C 418.765625 255.195312 419.152344 256.796875 419.109375 258.5 C 419.039062 260.765625 418.542969 262.929688 417.613281 264.992188 C 415.71875 268.285156 413.285156 271.113281 410.320312 273.480469 C 406.910156 276.488281 403.183594 279.019531 399.128906 281.078125 C 396.980469 282.199219 394.730469 283.0625 392.382812 283.671875 C 389.703125 284.226562 387 284.527344 384.265625 284.578125 L 377.46875 284.578125 C 376.011719 284.566406 374.578125 284.371094 373.167969 284 Z M 373.167969 284 " fill-opacity="1" fill-rule="nonzero"/></g></g></g></g></svg>