<svg xmlns="http://www.w3.org/2000/svg" xmlns:xlink="http://www.w3.org/1999/xlink" width="600" zoomAndPan="magnify" viewBox="0 0 450 449.999984" height="600" preserveAspectRatio="xMidYMid meet" version="1.0"><defs><clipPath id="66c410e207"><path d="M 43 166 L 180 166 L 180 298 L 43 298 Z M 43 166 " clip-rule="nonzero"/></clipPath><clipPath id="8b8d3f2cac"><path d="M 23.984375 215.738281 C 23.984375 240.785156 33.933594 264.804688 51.640625 282.511719 C 69.351562 300.222656 93.371094 310.171875 118.414062 310.171875 L 331.585938 310.171875 C 356.628906 310.171875 380.648438 300.222656 398.359375 282.511719 C 416.066406 264.804688 426.015625 240.785156 426.015625 215.738281 C 426.015625 190.695312 416.066406 166.675781 398.359375 148.964844 C 380.648438 131.257812 356.628906 121.308594 331.585938 121.308594 L 118.414062 121.308594 C 93.371094 121.308594 69.351562 131.257812 51.640625 148.964844 C 33.933594 166.675781 23.984375 190.695312 23.984375 215.738281 Z M 23.984375 215.738281 " clip-rule="nonzero"/></clipPath><clipPath id="fae5884a49"><path d="M 50 159 L 184 159 L 184 294 L 50 294 Z M 50 159 " clip-rule="nonzero"/></clipPath><clipPath id="93e7ff1b12"><path d="M 23.984375 215.738281 C 23.984375 240.785156 33.933594 264.804688 51.640625 282.511719 C 69.351562 300.222656 93.371094 310.171875 118.414062 310.171875 L 331.585938 310.171875 C 356.628906 310.171875 380.648438 300.222656 398.359375 282.511719 C 416.066406 264.804688 426.015625 240.785156 426.015625 215.738281 C 426.015625 190.695312 416.066406 166.675781 398.359375 148.964844 C 380.648438 131.257812 356.628906 121.308594 331.585938 121.308594 L 118.414062 121.308594 C 93.371094 121.308594 69.351562 131.257812 51.640625 148.964844 C 33.933594 166.675781 23.984375 190.695312 23.984375 215.738281 Z M 23.984375 215.738281 " clip-rule="nonzero"/></clipPath><clipPath id="39d5e87ce1"><path d="M 251 208 L 425.984375 208 L 425.984375 249 L 251 249 Z M 251 208 " clip-rule="nonzero"/></clipPath><clipPath id="736294a978"><path d="M 23.984375 215.738281 C 23.984375 240.785156 33.933594 264.804688 51.640625 282.511719 C 69.351562 300.222656 93.371094 310.171875 118.414062 310.171875 L 331.585938 310.171875 C 356.628906 310.171875 380.648438 300.222656 398.359375 282.511719 C 416.066406 264.804688 426.015625 240.785156 426.015625 215.738281 C 426.015625 190.695312 416.066406 166.675781 398.359375 148.964844 C 380.648438 131.257812 356.628906 121.308594 331.585938 121.308594 L 118.414062 121.308594 C 93.371094 121.308594 69.351562 131.257812 51.640625 148.964844 C 33.933594 166.675781 23.984375 190.695312 23.984375 215.738281 Z M 23.984375 215.738281 " clip-rule="nonzero"/></clipPath><clipPath id="96af30c63f"><path d="M 319 147 L 364 147 L 364 190 L 319 190 Z M 319 147 " clip-rule="nonzero"/></clipPath><clipPath id="68f819681d"><path d="M 23.984375 215.738281 C 23.984375 240.785156 33.933594 264.804688 51.640625 282.511719 C 69.351562 300.222656 93.371094 310.171875 118.414062 310.171875 L 331.585938 310.171875 C 356.628906 310.171875 380.648438 300.222656 398.359375 282.511719 C 416.066406 264.804688 426.015625 240.785156 426.015625 215.738281 C 426.015625 190.695312 416.066406 166.675781 398.359375 148.964844 C 380.648438 131.257812 356.628906 121.308594 331.585938 121.308594 L 118.414062 121.308594 C 93.371094 121.308594 69.351562 131.257812 51.640625 148.964844 C 33.933594 166.675781 23.984375 190.695312 23.984375 215.738281 Z M 23.984375 215.738281 " clip-rule="nonzero"/></clipPath><clipPath id="d913d03249"><path d="M 317 267 L 361 267 L 361 309.976562 L 317 309.976562 Z M 317 267 " clip-rule="nonzero"/></clipPath><clipPath id="f4e396b69b"><path d="M 23.984375 215.738281 C 23.984375 240.785156 33.933594 264.804688 51.640625 282.511719 C 69.351562 300.222656 93.371094 310.171875 118.414062 310.171875 L 331.585938 310.171875 C 356.628906 310.171875 380.648438 300.222656 398.359375 282.511719 C 416.066406 264.804688 426.015625 240.785156 426.015625 215.738281 C 426.015625 190.695312 416.066406 166.675781 398.359375 148.964844 C 380.648438 131.257812 356.628906 121.308594 331.585938 121.308594 L 118.414062 121.308594 C 93.371094 121.308594 69.351562 131.257812 51.640625 148.964844 C 33.933594 166.675781 23.984375 190.695312 23.984375 215.738281 Z M 23.984375 215.738281 " clip-rule="nonzero"/></clipPath><clipPath id="27c7f06079"><path d="M 57.382812 198 L 393.382812 198 L 393.382812 319.160156 L 57.382812 319.160156 Z M 57.382812 198 " clip-rule="nonzero"/></clipPath><clipPath id="a881fc7236"><path d="M 57.382812 225 C 57.382812 276.964844 99.507812 319.089844 151.472656 319.089844 L 299.328125 319.089844 C 351.292969 319.089844 393.417969 276.964844 393.417969 225 C 393.417969 173.035156 351.292969 130.910156 299.328125 130.910156 L 151.472656 130.910156 C 99.507812 130.910156 57.382812 173.035156 57.382812 225 Z M 57.382812 225 " clip-rule="nonzero"/></clipPath><clipPath id="849944f17e"><path d="M 332 204 L 346 204 L 346 226 L 332 226 Z M 332 204 " clip-rule="nonzero"/></clipPath><clipPath id="8e87ceaa86"><path d="M 57.382812 225 C 57.382812 276.964844 99.507812 319.089844 151.472656 319.089844 L 299.328125 319.089844 C 351.292969 319.089844 393.417969 276.964844 393.417969 225 C 393.417969 173.035156 351.292969 130.910156 299.328125 130.910156 L 151.472656 130.910156 C 99.507812 130.910156 57.382812 173.035156 57.382812 225 Z M 57.382812 225 " clip-rule="nonzero"/></clipPath><clipPath id="87be691190"><path d="M 281 204 L 295 204 L 295 226 L 281 226 Z M 281 204 " clip-rule="nonzero"/></clipPath><clipPath id="85141e96c3"><path d="M 57.382812 225 C 57.382812 276.964844 99.507812 319.089844 151.472656 319.089844 L 299.328125 319.089844 C 351.292969 319.089844 393.417969 276.964844 393.417969 225 C 393.417969 173.035156 351.292969 130.910156 299.328125 130.910156 L 151.472656 130.910156 C 99.507812 130.910156 57.382812 173.035156 57.382812 225 Z M 57.382812 225 " clip-rule="nonzero"/></clipPath><clipPath id="fe319fd084"><path d="M 230 204 L 244 204 L 244 226 L 230 226 Z M 230 204 " clip-rule="nonzero"/></clipPath><clipPath id="9a3d55145a"><path d="M 57.382812 225 C 57.382812 276.964844 99.507812 319.089844 151.472656 319.089844 L 299.328125 319.089844 C 351.292969 319.089844 393.417969 276.964844 393.417969 225 C 393.417969 173.035156 351.292969 130.910156 299.328125 130.910156 L 151.472656 130.910156 C 99.507812 130.910156 57.382812 173.035156 57.382812 225 Z M 57.382812 225 " clip-rule="nonzero"/></clipPath><clipPath id="925ef21d19"><path d="M 179 204 L 193 204 L 193 226 L 179 226 Z M 179 204 " clip-rule="nonzero"/></clipPath><clipPath id="47c9c833b5"><path d="M 57.382812 225 C 57.382812 276.964844 99.507812 319.089844 151.472656 319.089844 L 299.328125 319.089844 C 351.292969 319.089844 393.417969 276.964844 393.417969 225 C 393.417969 173.035156 351.292969 130.910156 299.328125 130.910156 L 151.472656 130.910156 C 99.507812 130.910156 57.382812 173.035156 57.382812 225 Z M 57.382812 225 " clip-rule="nonzero"/></clipPath><clipPath id="2b1ee575a5"><path d="M 128 204 L 142 204 L 142 226 L 128 226 Z M 128 204 " clip-rule="nonzero"/></clipPath><clipPath id="bdae2b74d0"><path d="M 57.382812 225 C 57.382812 276.964844 99.507812 319.089844 151.472656 319.089844 L 299.328125 319.089844 C 351.292969 319.089844 393.417969 276.964844 393.417969 225 C 393.417969 173.035156 351.292969 130.910156 299.328125 130.910156 L 151.472656 130.910156 C 99.507812 130.910156 57.382812 173.035156 57.382812 225 Z M 57.382812 225 " clip-rule="nonzero"/></clipPath><clipPath id="1308c1f59a"><path d="M 77 204 L 91 204 L 91 226 L 77 226 Z M 77 204 " clip-rule="nonzero"/></clipPath><clipPath id="b861747d90"><path d="M 57.382812 225 C 57.382812 276.964844 99.507812 319.089844 151.472656 319.089844 L 299.328125 319.089844 C 351.292969 319.089844 393.417969 276.964844 393.417969 225 C 393.417969 173.035156 351.292969 130.910156 299.328125 130.910156 L 151.472656 130.910156 C 99.507812 130.910156 57.382812 173.035156 57.382812 225 Z M 57.382812 225 " clip-rule="nonzero"/></clipPath><clipPath id="f00d9115d7"><path d="M 58 270 L 393.382812 270 L 393.382812 316 L 58 316 Z M 58 270 " clip-rule="nonzero"/></clipPath><clipPath id="75393ffd04"><path d="M 57.382812 225 C 57.382812 276.964844 99.507812 319.089844 151.472656 319.089844 L 299.328125 319.089844 C 351.292969 319.089844 393.417969 276.964844 393.417969 225 C 393.417969 173.035156 351.292969 130.910156 299.328125 130.910156 L 151.472656 130.910156 C 99.507812 130.910156 57.382812 173.035156 57.382812 225 Z M 57.382812 225 " clip-rule="nonzero"/></clipPath><clipPath id="b87c866a49"><path d="M 379 130.910156 L 393.382812 130.910156 L 393.382812 172 L 379 172 Z M 379 130.910156 " clip-rule="nonzero"/></clipPath><clipPath id="43d6e836ce"><path d="M 57.382812 225 C 57.382812 276.964844 99.507812 319.089844 151.472656 319.089844 L 299.328125 319.089844 C 351.292969 319.089844 393.417969 276.964844 393.417969 225 C 393.417969 173.035156 351.292969 130.910156 299.328125 130.910156 L 151.472656 130.910156 C 99.507812 130.910156 57.382812 173.035156 57.382812 225 Z M 57.382812 225 " clip-rule="nonzero"/></clipPath><clipPath id="a4fbf42c7c"><path d="M 58 130.910156 L 73 130.910156 L 73 172 L 58 172 Z M 58 130.910156 " clip-rule="nonzero"/></clipPath><clipPath id="9ea51d351b"><path d="M 57.382812 225 C 57.382812 276.964844 99.507812 319.089844 151.472656 319.089844 L 299.328125 319.089844 C 351.292969 319.089844 393.417969 276.964844 393.417969 225 C 393.417969 173.035156 351.292969 130.910156 299.328125 130.910156 L 151.472656 130.910156 C 99.507812 130.910156 57.382812 173.035156 57.382812 225 Z M 57.382812 225 " clip-rule="nonzero"/></clipPath><clipPath id="7e26295c93"><path d="M 65 144 L 388 144 L 388 158 L 65 158 Z M 65 144 " clip-rule="nonzero"/></clipPath><clipPath id="32221aa2fc"><path d="M 57.382812 225 C 57.382812 276.964844 99.507812 319.089844 151.472656 319.089844 L 299.328125 319.089844 C 351.292969 319.089844 393.417969 276.964844 393.417969 225 C 393.417969 173.035156 351.292969 130.910156 299.328125 130.910156 L 151.472656 130.910156 C 99.507812 130.910156 57.382812 173.035156 57.382812 225 Z M 57.382812 225 " clip-rule="nonzero"/></clipPath><clipPath id="fd37dfb4a0"><path d="M 358 204 L 373 204 L 373 246 L 358 246 Z M 358 204 " clip-rule="nonzero"/></clipPath><clipPath id="88760e459b"><path d="M 57.382812 225 C 57.382812 276.964844 99.507812 319.089844 151.472656 319.089844 L 299.328125 319.089844 C 351.292969 319.089844 393.417969 276.964844 393.417969 225 C 393.417969 173.035156 351.292969 130.910156 299.328125 130.910156 L 151.472656 130.910156 C 99.507812 130.910156 57.382812 173.035156 57.382812 225 Z M 57.382812 225 " clip-rule="nonzero"/></clipPath><clipPath id="7d5eaf50c4"><path d="M 308 204 L 322 204 L 322 246 L 308 246 Z M 308 204 " clip-rule="nonzero"/></clipPath><clipPath id="0c5be562be"><path d="M 57.382812 225 C 57.382812 276.964844 99.507812 319.089844 151.472656 319.089844 L 299.328125 319.089844 C 351.292969 319.089844 393.417969 276.964844 393.417969 225 C 393.417969 173.035156 351.292969 130.910156 299.328125 130.910156 L 151.472656 130.910156 C 99.507812 130.910156 57.382812 173.035156 57.382812 225 Z M 57.382812 225 " clip-rule="nonzero"/></clipPath><clipPath id="45d6f58f0c"><path d="M 257 204 L 271 204 L 271 246 L 257 246 Z M 257 204 " clip-rule="nonzero"/></clipPath><clipPath id="8926a667ac"><path d="M 57.382812 225 C 57.382812 276.964844 99.507812 319.089844 151.472656 319.089844 L 299.328125 319.089844 C 351.292969 319.089844 393.417969 276.964844 393.417969 225 C 393.417969 173.035156 351.292969 130.910156 299.328125 130.910156 L 151.472656 130.910156 C 99.507812 130.910156 57.382812 173.035156 57.382812 225 Z M 57.382812 225 " clip-rule="nonzero"/></clipPath><clipPath id="154d78d5b7"><path d="M 206 204 L 220 204 L 220 246 L 206 246 Z M 206 204 " clip-rule="nonzero"/></clipPath><clipPath id="1b382c8953"><path d="M 57.382812 225 C 57.382812 276.964844 99.507812 319.089844 151.472656 319.089844 L 299.328125 319.089844 C 351.292969 319.089844 393.417969 276.964844 393.417969 225 C 393.417969 173.035156 351.292969 130.910156 299.328125 130.910156 L 151.472656 130.910156 C 99.507812 130.910156 57.382812 173.035156 57.382812 225 Z M 57.382812 225 " clip-rule="nonzero"/></clipPath><clipPath id="dddb4740d6"><path d="M 155 204 L 169 204 L 169 246 L 155 246 Z M 155 204 " clip-rule="nonzero"/></clipPath><clipPath id="7caaca5309"><path d="M 57.382812 225 C 57.382812 276.964844 99.507812 319.089844 151.472656 319.089844 L 299.328125 319.089844 C 351.292969 319.089844 393.417969 276.964844 393.417969 225 C 393.417969 173.035156 351.292969 130.910156 299.328125 130.910156 L 151.472656 130.910156 C 99.507812 130.910156 57.382812 173.035156 57.382812 225 Z M 57.382812 225 " clip-rule="nonzero"/></clipPath><clipPath id="1f366b1159"><path d="M 104 204 L 118 204 L 118 246 L 104 246 Z M 104 204 " clip-rule="nonzero"/></clipPath><clipPath id="d3727b9caa"><path d="M 57.382812 225 C 57.382812 276.964844 99.507812 319.089844 151.472656 319.089844 L 299.328125 319.089844 C 351.292969 319.089844 393.417969 276.964844 393.417969 225 C 393.417969 173.035156 351.292969 130.910156 299.328125 130.910156 L 151.472656 130.910156 C 99.507812 130.910156 57.382812 173.035156 57.382812 225 Z M 57.382812 225 " clip-rule="nonzero"/></clipPath><clipPath id="cccc36df80"><path d="M 213 160.347656 L 285 160.347656 L 285 289.347656 L 213 289.347656 Z M 213 160.347656 " clip-rule="nonzero"/></clipPath><clipPath id="673b9abc9f"><path d="M 361 197 L 421.742188 197 L 421.742188 286 L 361 286 Z M 361 197 " clip-rule="nonzero"/></clipPath><clipPath id="a4b87cb67d"><path d="M 0 1.035156 L 449 1.035156 L 449 436.964844 L 0 436.964844 Z M 0 1.035156 " clip-rule="nonzero"/></clipPath><clipPath id="4db613efbe"><path d="M 448.214844 56.527344 L 448.214844 381.472656 C 448.214844 396.191406 442.367188 410.304688 431.960938 420.710938 C 421.554688 431.117188 407.441406 436.964844 392.722656 436.964844 L 55.492188 436.964844 C 40.773438 436.964844 26.660156 431.117188 16.253906 420.710938 C 5.847656 410.304688 0 396.191406 0 381.472656 L 0 56.527344 C 0 41.808594 5.847656 27.695312 16.253906 17.289062 C 26.660156 6.882812 40.773438 1.035156 55.492188 1.035156 L 392.722656 1.035156 C 407.441406 1.035156 421.554688 6.882812 431.960938 17.289062 C 442.367188 27.695312 448.214844 41.808594 448.214844 56.527344 Z M 448.214844 56.527344 " clip-rule="nonzero"/></clipPath><clipPath id="50744a7b8b"><path d="M 0 0.0351562 L 448 0.0351562 L 448 435.964844 L 0 435.964844 Z M 0 0.0351562 " clip-rule="nonzero"/></clipPath><clipPath id="c9651f24b3"><path d="M 448.214844 55.527344 L 448.214844 380.472656 C 448.214844 395.191406 442.367188 409.304688 431.960938 419.710938 C 421.554688 430.117188 407.441406 435.964844 392.722656 435.964844 L 55.492188 435.964844 C 40.773438 435.964844 26.660156 430.117188 16.253906 419.710938 C 5.847656 409.304688 0 395.191406 0 380.472656 L 0 55.527344 C 0 40.808594 5.847656 26.695312 16.253906 16.289062 C 26.660156 5.882812 40.773438 0.0351562 55.492188 0.0351562 L 392.722656 0.0351562 C 407.441406 0.0351562 421.554688 5.882812 431.960938 16.289062 C 442.367188 26.695312 448.214844 40.808594 448.214844 55.527344 Z M 448.214844 55.527344 " clip-rule="nonzero"/></clipPath><clipPath id="3856037968"><rect x="0" width="449" y="0" height="436"/></clipPath><clipPath id="4bb1ad3ec7"><path d="M 76 81 L 373 81 L 373 357 L 76 357 Z M 76 81 " clip-rule="nonzero"/></clipPath><clipPath id="48b756494b"><path d="M 74.347656 134.878906 L 74.347656 303.121094 C 74.347656 317.839844 80.195312 331.957031 90.605469 342.363281 C 101.011719 352.773438 115.128906 358.621094 129.847656 358.621094 L 318.433594 358.621094 C 333.152344 358.621094 347.269531 352.773438 357.679688 342.363281 C 368.085938 331.957031 373.933594 317.839844 373.933594 303.121094 L 373.933594 134.878906 C 373.933594 120.160156 368.085938 106.042969 357.679688 95.636719 C 347.269531 85.226562 333.152344 79.378906 318.433594 79.378906 L 129.847656 79.378906 C 115.128906 79.378906 101.011719 85.226562 90.605469 95.636719 C 80.195312 106.042969 74.347656 120.160156 74.347656 134.878906 Z M 74.347656 134.878906 " clip-rule="nonzero"/></clipPath><clipPath id="a4620e3291"><rect x="0" width="450" y="0" height="438"/></clipPath></defs><path fill="#ff914d" d="M 380.058594 200.023438 C 347.386719 202.175781 258.429688 188.113281 250.457031 208.632812 C 246.789062 218.121094 250.515625 228.121094 259.703125 230.941406 C 264.609375 232.457031 278.402344 232.089844 283.980469 232.152344 C 314.804688 232.484375 344.75 233.726562 371.332031 233.304688 C 395.457031 232.910156 407.335938 229.820312 407.761719 211.816406 C 408.246094 202.207031 393.789062 199.023438 380.058594 200.023438 " fill-opacity="1" fill-rule="nonzero"/><path fill="#ff914d" d="M 138.191406 267.160156 C 136.34375 234.457031 151.285156 145.648438 130.828125 137.464844 C 121.371094 133.707031 111.335938 137.34375 108.425781 146.46875 C 106.882812 151.378906 107.09375 165.167969 106.972656 170.746094 C 106.367188 201.570312 104.820312 231.484375 104.972656 258.066406 C 105.125 282.191406 108.09375 294.136719 126.097656 294.679688 C 135.765625 295.285156 139.070312 280.890625 138.191406 267.160156 " fill-opacity="1" fill-rule="nonzero"/><path fill="#ff914d" d="M 175.015625 193.082031 C 142.34375 195.234375 53.386719 181.171875 45.414062 201.691406 C 41.746094 211.179688 45.476562 221.179688 54.660156 224 C 59.570312 225.515625 73.359375 225.152344 78.9375 225.210938 C 109.761719 225.546875 139.707031 226.789062 166.289062 226.363281 C 190.414062 225.96875 202.296875 222.878906 202.71875 204.875 C 203.203125 195.234375 188.746094 192.082031 175.015625 193.082031 " fill-opacity="1" fill-rule="nonzero"/><g clip-path="url(#66c410e207)"><g clip-path="url(#8b8d3f2cac)"><path fill="#ffe7c2" d="M 81.671875 283.007812 C 106.199219 256.78125 187.933594 201.304688 178.894531 178.902344 C 174.707031 168.566406 164.203125 163.347656 154.796875 167.96875 C 149.742188 170.460938 138.972656 181.097656 134.453125 185.183594 C 109.558594 208.054688 84.660156 229.492188 63.722656 249.769531 C 44.707031 268.183594 37.53125 279.582031 50.691406 294.273438 C 57.539062 302.417969 71.464844 294.109375 81.671875 283.007812 " fill-opacity="1" fill-rule="nonzero"/></g></g><g clip-path="url(#fae5884a49)"><g clip-path="url(#93e7ff1b12)"><path fill="#ffe7c2" d="M 168.324219 256.117188 C 141.867188 231.851562 85.625 150.648438 63.289062 159.890625 C 52.984375 164.179688 47.867188 174.714844 52.585938 184.121094 C 55.113281 189.175781 65.847656 199.84375 70.003906 204.296875 C 93.105469 228.960938 114.777344 253.65625 135.285156 274.429688 C 153.898438 293.277344 165.332031 300.355469 179.890625 287.027344 C 187.96875 280.082031 179.492188 266.222656 168.324219 256.117188 " fill-opacity="1" fill-rule="nonzero"/></g></g><g clip-path="url(#39d5e87ce1)"><g clip-path="url(#736294a978)"><path fill="#ffe7c2" d="M 395.046875 211.542969 C 359.214844 213.902344 261.65625 198.480469 252.917969 220.984375 C 248.894531 231.386719 252.984375 242.355469 263.054688 245.445312 C 268.4375 247.109375 283.5625 246.710938 289.679688 246.777344 C 323.480469 247.140625 356.320312 248.503906 385.472656 248.039062 C 411.929688 247.609375 424.960938 244.21875 425.425781 224.472656 C 425.957031 213.902344 410.101562 210.445312 395.046875 211.542969 " fill-opacity="1" fill-rule="nonzero"/></g></g><g clip-path="url(#96af30c63f)"><g clip-path="url(#68f819681d)"><path fill="#ffe7c2" d="M 359.113281 156 C 342.195312 133.996094 310.917969 157.230469 322.417969 180.53125 C 326.207031 188.210938 337.640625 189.90625 344.390625 189.109375 C 359.28125 187.414062 368.917969 169.265625 359.113281 156 Z M 359.113281 156 " fill-opacity="1" fill-rule="nonzero"/></g></g><g clip-path="url(#d913d03249)"><g clip-path="url(#f4e396b69b)"><path fill="#ffe7c2" d="M 357.019531 276.257812 C 340.101562 254.253906 308.824219 277.488281 320.324219 300.789062 C 324.113281 308.46875 335.546875 310.164062 342.296875 309.363281 C 357.1875 307.667969 366.824219 289.523438 357.019531 276.257812 Z M 357.019531 276.257812 " fill-opacity="1" fill-rule="nonzero"/></g></g><g clip-path="url(#27c7f06079)"><g clip-path="url(#a881fc7236)"><path fill="#c2dcff" d="M 386.695312 198.144531 L 64.101562 198.144531 L 57.382812 204.863281 L 57.382812 312.515625 L 64.101562 319.238281 L 386.695312 319.238281 L 393.417969 312.515625 L 393.417969 204.863281 Z M 70.824219 211.585938 L 70.824219 305.796875 L 379.976562 305.796875 L 379.976562 211.585938 Z M 70.824219 211.585938 " fill-opacity="1" fill-rule="evenodd"/></g></g><g clip-path="url(#849944f17e)"><g clip-path="url(#8e87ceaa86)"><path fill="#c2dcff" d="M 332.097656 204.863281 L 345.539062 204.863281 L 345.539062 225.105469 L 332.097656 225.105469 Z M 332.097656 204.863281 " fill-opacity="1" fill-rule="evenodd"/></g></g><g clip-path="url(#87be691190)"><g clip-path="url(#85141e96c3)"><path fill="#c2dcff" d="M 281.179688 204.863281 L 294.621094 204.863281 L 294.621094 225.105469 L 281.179688 225.105469 Z M 281.179688 204.863281 " fill-opacity="1" fill-rule="evenodd"/></g></g><g clip-path="url(#fe319fd084)"><g clip-path="url(#9a3d55145a)"><path fill="#c2dcff" d="M 230.277344 204.863281 L 243.71875 204.863281 L 243.71875 225.105469 L 230.277344 225.105469 Z M 230.277344 204.863281 " fill-opacity="1" fill-rule="evenodd"/></g></g><g clip-path="url(#925ef21d19)"><g clip-path="url(#47c9c833b5)"><path fill="#c2dcff" d="M 179.363281 204.863281 L 192.804688 204.863281 L 192.804688 225.105469 L 179.363281 225.105469 Z M 179.363281 204.863281 " fill-opacity="1" fill-rule="evenodd"/></g></g><g clip-path="url(#2b1ee575a5)"><g clip-path="url(#bdae2b74d0)"><path fill="#c2dcff" d="M 128.445312 204.863281 L 141.886719 204.863281 L 141.886719 225.105469 L 128.445312 225.105469 Z M 128.445312 204.863281 " fill-opacity="1" fill-rule="evenodd"/></g></g><g clip-path="url(#1308c1f59a)"><g clip-path="url(#b861747d90)"><path fill="#c2dcff" d="M 77.542969 204.863281 L 90.984375 204.863281 L 90.984375 225.105469 L 77.542969 225.105469 Z M 77.542969 204.863281 " fill-opacity="1" fill-rule="evenodd"/></g></g><g clip-path="url(#f00d9115d7)"><g clip-path="url(#75393ffd04)"><path fill="#c2dcff" d="M 386.695312 270.902344 L 65.527344 270.902344 L 58.804688 277.621094 L 58.804688 309.15625 L 65.527344 315.875 L 386.695312 315.875 L 393.417969 309.15625 L 393.417969 277.621094 Z M 72.246094 284.34375 L 72.246094 302.433594 L 379.976562 302.433594 L 379.976562 284.34375 Z M 72.246094 284.34375 " fill-opacity="1" fill-rule="evenodd"/></g></g><g clip-path="url(#b87c866a49)"><g clip-path="url(#43d6e836ce)"><path fill="#c2dcff" d="M 379.976562 130.9375 L 393.417969 130.9375 L 393.417969 171.261719 L 379.976562 171.261719 Z M 379.976562 130.9375 " fill-opacity="1" fill-rule="evenodd"/></g></g><g clip-path="url(#a4fbf42c7c)"><g clip-path="url(#9ea51d351b)"><path fill="#c2dcff" d="M 58.804688 130.9375 L 72.246094 130.9375 L 72.246094 171.261719 L 58.804688 171.261719 Z M 58.804688 130.9375 " fill-opacity="1" fill-rule="evenodd"/></g></g><g clip-path="url(#7e26295c93)"><g clip-path="url(#32221aa2fc)"><path fill="#c2dcff" d="M 65.527344 144.378906 L 387.476562 144.378906 L 387.476562 157.820312 L 65.527344 157.820312 Z M 65.527344 144.378906 " fill-opacity="1" fill-rule="evenodd"/></g></g><g clip-path="url(#fd37dfb4a0)"><g clip-path="url(#88760e459b)"><path fill="#c2dcff" d="M 358.980469 204.863281 L 372.421875 204.863281 L 372.421875 245.1875 L 358.980469 245.1875 Z M 358.980469 204.863281 " fill-opacity="1" fill-rule="evenodd"/></g></g><g clip-path="url(#7d5eaf50c4)"><g clip-path="url(#0c5be562be)"><path fill="#c2dcff" d="M 308.0625 204.863281 L 321.503906 204.863281 L 321.503906 245.1875 L 308.0625 245.1875 Z M 308.0625 204.863281 " fill-opacity="1" fill-rule="evenodd"/></g></g><g clip-path="url(#45d6f58f0c)"><g clip-path="url(#8926a667ac)"><path fill="#c2dcff" d="M 257.160156 204.863281 L 270.601562 204.863281 L 270.601562 245.1875 L 257.160156 245.1875 Z M 257.160156 204.863281 " fill-opacity="1" fill-rule="evenodd"/></g></g><g clip-path="url(#154d78d5b7)"><g clip-path="url(#1b382c8953)"><path fill="#c2dcff" d="M 206.246094 204.863281 L 219.6875 204.863281 L 219.6875 245.1875 L 206.246094 245.1875 Z M 206.246094 204.863281 " fill-opacity="1" fill-rule="evenodd"/></g></g><g clip-path="url(#dddb4740d6)"><g clip-path="url(#7caaca5309)"><path fill="#c2dcff" d="M 155.328125 204.863281 L 168.769531 204.863281 L 168.769531 245.1875 L 155.328125 245.1875 Z M 155.328125 204.863281 " fill-opacity="1" fill-rule="evenodd"/></g></g><g clip-path="url(#1f366b1159)"><g clip-path="url(#d3727b9caa)"><path fill="#c2dcff" d="M 104.425781 204.863281 L 117.867188 204.863281 L 117.867188 245.1875 L 104.425781 245.1875 Z M 104.425781 204.863281 " fill-opacity="1" fill-rule="evenodd"/></g></g><path fill="#ffd6d6" d="M 77.601562 195.492188 L 77.878906 195.492188 C 79.9375 195.492188 81.925781 195.867188 83.839844 196.609375 C 85.757812 197.355469 87.476562 198.421875 88.996094 199.808594 C 89.875 200.558594 90.808594 201.234375 91.800781 201.832031 C 92.589844 202.34375 93.429688 202.742188 94.328125 203.027344 C 96.058594 203.570312 97.554688 204.492188 98.824219 205.789062 C 100.0625 206.832031 100.949219 208.117188 101.488281 209.644531 C 101.609375 210.867188 101.671875 212.152344 101.671875 213.503906 C 101.648438 216.554688 101.402344 219.582031 100.933594 222.597656 C 100.164062 227.40625 99.808594 232.246094 99.867188 237.113281 C 99.867188 238.28125 99.914062 240.878906 100.007812 244.917969 C 100.101562 248.953125 101.832031 255.476562 105.199219 264.484375 C 106.234375 266.6875 106.984375 268.386719 107.449219 269.582031 C 107.855469 270.535156 108.085938 271.53125 108.140625 272.566406 C 108.121094 273.417969 107.96875 274.246094 107.683594 275.050781 C 106.261719 278.972656 103.6875 280.933594 99.964844 280.933594 C 96.660156 280.933594 93.628906 279.15625 90.871094 275.601562 C 88.117188 272.050781 85.941406 267.164062 84.347656 260.949219 C 83.796875 258.867188 83.398438 257.394531 83.15625 256.535156 C 82.847656 255.734375 82.601562 255.339844 82.421875 255.339844 C 82.320312 255.355469 82.230469 255.386719 82.144531 255.4375 C 81.800781 255.789062 81.523438 256.1875 81.3125 256.628906 C 80.886719 257.242188 80.226562 258.269531 79.339844 259.710938 C 78.453125 261.152344 77.515625 262.636719 76.535156 264.167969 C 74.007812 268.101562 71.050781 271.679688 67.667969 274.910156 C 64.601562 278.019531 61.1875 280.6875 57.425781 282.90625 C 54.816406 284.269531 52.058594 285.1875 49.152344 285.664062 C 48.027344 285.847656 46.894531 285.9375 45.753906 285.941406 C 44.378906 285.957031 43.03125 285.769531 41.714844 285.386719 C 33.449219 282.632812 29.285156 275.34375 29.222656 263.527344 C 29.199219 259.347656 29.691406 255.230469 30.691406 251.171875 C 32.070312 246.175781 33.847656 241.320312 36.023438 236.613281 C 38.480469 230.785156 41.382812 225.191406 44.730469 219.824219 C 47.5625 215.453125 50.839844 211.441406 54.558594 207.792969 C 62.816406 199.710938 70.496094 195.613281 77.601562 195.492188 Z M 77.144531 214.601562 C 75.851562 214.625 74.65625 214.980469 73.5625 215.667969 C 67.011719 220.082031 61.324219 227.15625 56.507812 236.890625 C 53.390625 243.285156 51.1875 248.230469 49.898438 251.726562 C 48.714844 254.761719 47.949219 257.898438 47.609375 261.140625 C 47.496094 261.992188 47.433594 262.847656 47.425781 263.707031 C 47.425781 265.421875 47.78125 266.308594 48.492188 266.371094 L 48.589844 266.371094 C 49.625 266.371094 51.675781 264.808594 54.738281 261.683594 C 56.496094 259.699219 58.148438 257.632812 59.695312 255.480469 C 61.605469 252.890625 63.382812 250.210938 65.023438 247.441406 C 66.921875 244.257812 69.003906 240.417969 71.269531 235.921875 C 73.539062 231.421875 75.511719 227.257812 77.199219 223.429688 C 78.882812 219.605469 79.722656 217.261719 79.722656 216.402344 C 79.730469 216.136719 79.667969 215.886719 79.535156 215.65625 C 79.402344 215.425781 79.21875 215.242188 78.988281 215.113281 C 78.414062 214.796875 77.800781 214.625 77.144531 214.601562 Z M 77.144531 214.601562 " fill-opacity="1" fill-rule="nonzero"/><path fill="#ffd6d6" d="M 126.378906 244.722656 C 122.214844 243.742188 119.210938 241.78125 117.371094 238.839844 C 116.460938 237.609375 115.972656 236.234375 115.898438 234.703125 C 115.957031 233.675781 116.234375 232.707031 116.734375 231.804688 C 117.234375 230.902344 117.902344 230.152344 118.746094 229.558594 C 119.507812 228.808594 120.382812 228.226562 121.363281 227.808594 C 122.34375 227.386719 123.371094 227.160156 124.4375 227.125 C 125.910156 226.976562 128.144531 226.898438 131.140625 226.890625 C 134.753906 226.890625 139.925781 226.984375 146.660156 227.167969 C 154.476562 227.355469 162.347656 227.445312 170.269531 227.445312 C 174.621094 227.445312 178.445312 227.414062 181.75 227.351562 C 186.101562 227.230469 189.46875 227.167969 191.855469 227.167969 C 193.816406 227.167969 195.300781 227.214844 196.3125 227.308594 C 197.144531 227.359375 197.953125 227.527344 198.742188 227.808594 C 199.390625 228.078125 200.003906 228.414062 200.574219 228.820312 C 201.984375 229.664062 203.070312 230.8125 203.835938 232.265625 C 204.539062 233.597656 204.894531 235.019531 204.902344 236.527344 C 204.90625 238.140625 204.492188 239.640625 203.664062 241.027344 C 202.75 242.519531 201.480469 243.585938 199.851562 244.222656 C 198.378906 244.777344 194.597656 245.222656 188.507812 245.554688 C 182.417969 245.890625 175.054688 246.058594 166.414062 246.058594 C 163.535156 246.058594 160.597656 246.023438 157.597656 245.960938 C 152.757812 245.839844 148.195312 245.746094 143.910156 245.683594 C 140.238281 245.683594 137.574219 245.652344 135.917969 245.585938 C 134.261719 245.523438 132.515625 245.429688 130.683594 245.3125 C 129.234375 245.203125 127.800781 245.007812 126.378906 244.722656 Z M 126.378906 244.722656 " fill-opacity="1" fill-rule="nonzero"/><g clip-path="url(#cccc36df80)"><path fill="#ffd6d6" d="M 224.867188 160.304688 C 228.355469 160.371094 230.789062 161.503906 232.167969 163.707031 C 233.648438 166.230469 234.398438 168.953125 234.417969 171.882812 C 234.472656 172.984375 234.503906 174.046875 234.511719 175.078125 C 234.511719 177.28125 234.421875 179.457031 234.234375 181.601562 C 234.171875 182.519531 234.109375 183.40625 234.054688 184.265625 C 233.871094 191.800781 233.703125 198.089844 233.554688 203.144531 C 233.402344 208.195312 233.324219 210.84375 233.320312 211.085938 L 235.449219 209.15625 C 236.792969 207.933594 238.445312 206.402344 240.40625 204.5625 C 248.367188 197.027344 255.195312 192.804688 260.894531 191.886719 C 262.046875 191.703125 263.210938 191.613281 264.378906 191.609375 C 272.195312 191.609375 278.234375 196.140625 282.5 205.199219 C 283.105469 206.488281 283.597656 207.824219 283.96875 209.199219 C 284.316406 210.742188 284.480469 212.304688 284.472656 213.886719 C 284.472656 215.8125 284.425781 218.65625 284.332031 222.414062 C 283.964844 229.394531 281.789062 237.675781 277.808594 247.261719 C 273.761719 256.972656 268.296875 265.804688 261.414062 273.757812 C 254.464844 281.839844 246.335938 287.105469 237.027344 289.554688 C 235.9375 289.460938 234.871094 289.246094 233.832031 288.917969 C 232.691406 288.582031 231.589844 288.152344 230.527344 287.625 C 228.957031 286.652344 227.246094 286.113281 225.398438 286.015625 C 225.117188 286.023438 224.84375 286.054688 224.566406 286.113281 C 224.234375 286.171875 223.894531 286.203125 223.554688 286.210938 C 221.878906 286.15625 220.335938 285.679688 218.917969 284.78125 C 217.222656 283.773438 215.953125 282.382812 215.101562 280.601562 C 214.613281 279.375 214.320312 278.105469 214.230469 276.785156 C 214.015625 274.980469 213.875 272.140625 213.8125 268.257812 C 213.75 264.378906 213.71875 258.945312 213.71875 251.953125 C 213.71875 244.722656 213.761719 238.554688 213.855469 233.445312 C 213.949219 228.339844 214.027344 225.496094 214.089844 224.921875 C 214.148438 224.246094 214.300781 220.492188 214.546875 213.664062 C 214.796875 206.835938 215.074219 198.492188 215.378906 188.636719 C 215.4375 187.214844 215.496094 185.714844 215.5625 184.140625 C 215.683594 179.789062 215.957031 175.546875 216.390625 171.414062 C 216.824219 167.277344 217.742188 164.382812 219.140625 162.734375 C 219.902344 161.972656 220.777344 161.382812 221.765625 160.960938 C 222.757812 160.539062 223.789062 160.320312 224.867188 160.304688 Z M 263.535156 210.179688 C 262.671875 210.378906 261.875 210.734375 261.148438 211.246094 C 257.414062 213.976562 253.972656 217.042969 250.820312 220.433594 C 247.113281 224.128906 243.699219 228.082031 240.578125 232.285156 C 237.929688 235.886719 235.863281 239.796875 234.375 244.011719 C 233.109375 248.375 232.480469 252.832031 232.488281 257.375 L 232.488281 264.082031 C 232.4375 264.839844 232.542969 265.574219 232.808594 266.289062 C 232.898438 266.496094 233.042969 266.660156 233.238281 266.777344 C 233.433594 266.894531 233.644531 266.945312 233.875 266.925781 C 234.425781 266.957031 234.945312 267.09375 235.441406 267.34375 C 236.027344 267.601562 236.578125 267.921875 237.09375 268.300781 C 237.566406 268.804688 238.152344 269.082031 238.839844 269.132812 L 239.480469 269.132812 C 240.3125 268.898438 241.050781 268.484375 241.6875 267.898438 C 242.789062 267.074219 244.351562 265.742188 246.375 263.898438 C 250.90625 259.527344 254.6875 254.582031 257.71875 249.0625 C 261.042969 243.1875 263.445312 236.957031 264.921875 230.367188 C 265.703125 227.136719 266.101562 223.863281 266.117188 220.539062 C 266.132812 217.492188 265.777344 214.492188 265.050781 211.53125 C 264.828125 211.148438 264.570312 210.796875 264.273438 210.464844 C 264.0625 210.253906 263.8125 210.160156 263.515625 210.179688 Z M 263.535156 210.179688 " fill-opacity="1" fill-rule="nonzero"/></g><path fill="#ffd6d6" d="M 300.160156 239.023438 C 295.75 237.0625 293.546875 234.121094 293.550781 230.207031 C 293.535156 228.546875 294.050781 227.074219 295.109375 225.792969 C 296.15625 224.480469 297.503906 223.652344 299.148438 223.3125 C 299.824219 223.191406 302.058594 223.023438 305.851562 222.808594 C 309.648438 222.597656 314.089844 222.398438 319.175781 222.210938 L 323.441406 222.03125 C 331.703125 221.660156 337.585938 221.476562 341.082031 221.476562 C 342.507812 221.453125 343.929688 221.53125 345.34375 221.710938 C 346.09375 221.792969 346.804688 222.007812 347.476562 222.351562 C 347.980469 222.664062 348.425781 223.050781 348.808594 223.503906 L 349.363281 224.058594 C 350.257812 224.882812 350.960938 225.851562 351.472656 226.960938 C 351.980469 228.070312 352.257812 229.234375 352.304688 230.453125 C 352.269531 231.628906 352.007812 232.75 351.511719 233.820312 C 351.019531 234.886719 350.332031 235.816406 349.457031 236.601562 C 348.109375 238.128906 345.246094 239.195312 340.867188 239.800781 C 336.492188 240.402344 329.003906 240.695312 318.410156 240.675781 C 314.367188 240.675781 311.210938 240.640625 308.945312 240.578125 C 307.15625 240.5625 305.378906 240.410156 303.613281 240.121094 C 302.410156 239.917969 301.261719 239.550781 300.160156 239.023438 Z M 302.089844 267.226562 C 299.738281 266.554688 297.777344 265.285156 296.207031 263.410156 C 295.535156 262.636719 295.019531 261.773438 294.652344 260.820312 C 294.285156 259.867188 294.09375 258.878906 294.074219 257.855469 C 294.113281 256.640625 294.414062 255.496094 294.976562 254.417969 C 295.535156 253.339844 296.300781 252.4375 297.273438 251.707031 C 298.585938 250.792969 300.039062 250.273438 301.632812 250.148438 C 303.6875 249.84375 307.191406 249.539062 312.152344 249.234375 C 315.707031 249.046875 319.285156 248.789062 322.898438 248.453125 C 326.507812 248.121094 329.324219 247.828125 331.347656 247.582031 C 334.941406 247.042969 338.554688 246.738281 342.1875 246.664062 C 346.105469 246.664062 348.738281 247.398438 350.085938 248.871094 C 350.84375 249.5625 351.515625 250.328125 352.113281 251.164062 C 352.628906 251.835938 353.023438 252.570312 353.304688 253.367188 C 353.429688 253.820312 353.492188 254.277344 353.488281 254.742188 C 353.445312 256.503906 352.925781 258.109375 351.929688 259.5625 C 350.953125 261.140625 349.632812 262.347656 347.976562 263.1875 C 344.828125 264.074219 341.632812 264.71875 338.382812 265.113281 C 333.304688 265.910156 327.886719 266.621094 322.128906 267.246094 C 316.375 267.871094 312.175781 268.175781 309.539062 268.164062 L 309.265625 268.164062 C 307.941406 268.15625 306.621094 268.0625 305.308594 267.886719 C 304.21875 267.75 303.144531 267.53125 302.089844 267.226562 Z M 302.089844 267.226562 " fill-opacity="1" fill-rule="nonzero"/><g clip-path="url(#673b9abc9f)"><path fill="#ffd6d6" d="M 379.347656 284.769531 C 377.457031 284.164062 375.664062 283.339844 373.972656 282.300781 C 372.28125 281.257812 370.738281 280.03125 369.347656 278.613281 C 367.953125 277.199219 366.753906 275.636719 365.738281 273.929688 C 364.726562 272.21875 363.933594 270.417969 363.359375 268.515625 C 362.382812 264.667969 361.921875 260.757812 361.984375 256.789062 C 361.992188 254.089844 362.144531 251.394531 362.441406 248.710938 C 363.078125 241.375 364.792969 234.300781 367.589844 227.488281 C 370.59375 221.386719 374.359375 215.796875 378.886719 210.722656 C 383.863281 204.996094 388.269531 201.152344 392.117188 199.199219 C 394.535156 198.089844 397.074219 197.507812 399.738281 197.453125 C 405.25 197.453125 409.691406 200.648438 413.058594 207.046875 C 413.933594 208.972656 414.394531 210.992188 414.4375 213.109375 C 414.4375 214.703125 414.132812 216.234375 413.519531 217.703125 C 413.273438 218.449219 412.914062 219.140625 412.445312 219.769531 C 411.976562 220.398438 411.417969 220.9375 410.769531 221.386719 C 410.125 221.832031 409.421875 222.164062 408.667969 222.382812 C 407.910156 222.601562 407.140625 222.695312 406.355469 222.660156 C 405.175781 222.679688 404.039062 222.472656 402.941406 222.042969 C 401.84375 221.613281 400.867188 220.992188 400.015625 220.175781 L 397.167969 217.691406 L 394.046875 221.273438 C 391.039062 224.65625 388.417969 228.316406 386.1875 232.253906 C 384.332031 235.726562 382.96875 239.386719 382.105469 243.230469 C 381.058594 247.613281 380.476562 252.054688 380.359375 256.554688 C 380.359375 262.496094 381.984375 266.015625 385.230469 267.117188 C 385.960938 267.242188 386.695312 267.300781 387.4375 267.300781 C 392.027344 267.300781 397.265625 264.726562 403.148438 259.582031 C 407.0625 256.03125 410.066406 254.039062 412.15625 253.613281 C 412.761719 253.5 413.371094 253.4375 413.988281 253.433594 C 414.640625 253.386719 415.285156 253.433594 415.925781 253.570312 C 416.566406 253.707031 417.171875 253.929688 417.75 254.238281 C 418.328125 254.546875 418.851562 254.929688 419.320312 255.382812 C 419.789062 255.839844 420.1875 256.351562 420.511719 256.917969 C 421.261719 258.292969 421.617188 259.765625 421.578125 261.332031 C 421.515625 263.410156 421.054688 265.402344 420.203125 267.300781 C 418.460938 270.324219 416.226562 272.925781 413.496094 275.101562 C 410.367188 277.867188 406.9375 280.191406 403.210938 282.082031 C 401.234375 283.117188 399.167969 283.910156 397.007812 284.472656 C 394.546875 284.980469 392.058594 285.257812 389.546875 285.304688 L 383.300781 285.304688 C 381.960938 285.292969 380.640625 285.113281 379.347656 284.769531 Z M 379.347656 284.769531 " fill-opacity="1" fill-rule="nonzero"/></g><g transform="matrix(1, 0, 0, 1, 0, 6)"><g clip-path="url(#a4620e3291)"><g clip-path="url(#a4b87cb67d)"><g clip-path="url(#4db613efbe)"><g transform="matrix(1, 0, 0, 1, 0, 1)"><g clip-path="url(#3856037968)"><g clip-path="url(#50744a7b8b)"><g clip-path="url(#c9651f24b3)"><path fill="#ffadad" d="M 0 0.0351562 L 447.847656 0.0351562 L 447.847656 435.964844 L 0 435.964844 Z M 0 0.0351562 " fill-opacity="1" fill-rule="nonzero"/></g></g></g></g></g></g><g clip-path="url(#4bb1ad3ec7)"><g clip-path="url(#48b756494b)"><path fill="#cc0000" d="M 148.035156 266.621094 C 142.125 279.246094 125.105469 283.4375 112.328125 282.628906 C 99.042969 281.820312 83.589844 275.761719 77.023438 263.4375 C 74.296875 258.285156 80.105469 251.214844 85.558594 254.902344 C 91.367188 258.84375 97.125 263.488281 103.894531 265.761719 C 110.003906 267.832031 116.820312 268.742188 123.234375 267.679688 C 128.285156 266.820312 135.15625 264.800781 137.378906 259.601562 C 139.953125 253.640625 135.40625 246.871094 131.316406 242.882812 C 122.429688 234.144531 109.699219 230.308594 98.691406 225.15625 C 93.1875 222.578125 85.710938 219.550781 83.640625 213.238281 C 80.761719 204.601562 89.042969 200.410156 95.457031 197.378906 C 107.832031 191.519531 123.941406 188.945312 132.882812 201.875 C 135.761719 206.066406 129.195312 211.015625 125.863281 207.277344 C 120.558594 201.316406 112.023438 202.429688 105.40625 205.359375 C 103.589844 206.167969 101.871094 207.125 100.15625 208.085938 C 99.5 208.4375 97.984375 209.652344 96.722656 210.359375 C 96.824219 210.410156 96.921875 210.507812 96.972656 210.558594 C 98.539062 211.519531 100.15625 212.378906 101.824219 213.1875 C 113.035156 218.945312 125.105469 222.984375 135.054688 230.914062 C 145.308594 239.042969 154.09375 253.4375 147.933594 266.621094 Z M 178.691406 226.367188 C 189.953125 224.851562 201.367188 224.296875 212.730469 224.652344 C 215.355469 224.75 217.578125 222.378906 217.578125 219.800781 C 217.578125 217.226562 215.355469 214.953125 212.730469 214.953125 C 200.910156 214.902344 189.144531 215.914062 177.527344 217.78125 C 175.40625 218.136719 174.09375 220.660156 174.398438 222.578125 C 174.699219 224.5 176.519531 226.671875 178.691406 226.367188 Z M 218.488281 246.671875 C 214.902344 246.164062 211.316406 245.558594 207.730469 245.40625 C 204.347656 245.257812 200.960938 245.257812 197.578125 245.308594 C 190.8125 245.308594 184.042969 245.457031 177.277344 245.761719 C 174.449219 245.863281 172.023438 248.085938 172.023438 251.015625 C 172.023438 253.941406 174.449219 256.316406 177.277344 256.265625 C 190.558594 256.113281 203.839844 257.074219 217.125 256.921875 C 219.699219 256.921875 221.921875 254.953125 222.226562 252.429688 C 222.476562 250.15625 221.113281 247.074219 218.488281 246.722656 Z M 247.679688 192.832031 C 244.347656 176.570312 252.375 158.488281 264.953125 148.1875 C 273.03125 141.570312 284.597656 137.78125 293.992188 141.269531 C 295.203125 122.125 298.285156 103.136719 302.980469 84.5 C 304.09375 80.054688 311.265625 80.964844 311.011719 85.5625 C 309.648438 110.359375 310.152344 135.15625 306.265625 159.804688 C 306.011719 161.367188 305.707031 162.984375 305.40625 164.601562 C 305.707031 170.609375 306.164062 176.570312 306.769531 182.582031 C 307.878906 192.78125 310.253906 202.984375 310.507812 213.238281 C 310.65625 220.105469 301.316406 220.558594 299.195312 214.75 C 296.769531 208.085938 295.707031 200.710938 295 193.4375 C 291.871094 198.539062 288.03125 203.1875 283.183594 206.824219 C 268.4375 217.933594 251.316406 210.359375 247.730469 192.78125 Z M 261.515625 194.902344 C 265.808594 204.296875 274.902344 200.710938 280.910156 194.902344 C 287.074219 188.84375 291.011719 181.167969 293.636719 172.882812 C 293.335938 165.761719 293.234375 158.589844 293.4375 151.46875 C 287.980469 148.996094 280.960938 151.117188 276.164062 154.398438 C 269.902344 158.640625 264.953125 165.609375 262.273438 172.632812 C 259.699219 179.449219 258.335938 188.035156 261.46875 194.902344 Z M 367.828125 228.539062 C 357.777344 226.871094 347.324219 227.832031 337.222656 228.136719 C 326.769531 228.4375 316.316406 228.84375 305.808594 229.246094 C 284.851562 230.105469 263.941406 231.214844 243.03125 232.882812 C 237.425781 233.335938 237.273438 241.722656 243.03125 241.722656 C 263.941406 241.722656 284.851562 241.519531 305.808594 241.417969 C 316.265625 241.367188 326.71875 241.367188 337.222656 241.417969 C 347.324219 241.417969 357.828125 242.277344 367.828125 240.457031 C 373.6875 239.398438 373.789062 229.5 367.828125 228.488281 Z M 329.496094 333.789062 C 325.707031 335.960938 321.769531 337.882812 317.828125 339.800781 C 315 341.164062 310.152344 344.800781 307.828125 341.570312 C 302.628906 334.398438 301.367188 323.539062 300.304688 315.003906 C 299.246094 306.519531 298.839844 297.933594 298.738281 289.347656 C 307.425781 289.347656 316.113281 289.246094 324.851562 288.488281 C 330.808594 287.984375 330.859375 279.648438 324.851562 279.195312 C 316.214844 278.488281 307.476562 278.742188 298.789062 279.398438 C 298.890625 271.265625 299.195312 263.136719 299.394531 255.054688 C 299.546875 248.941406 290.757812 249.246094 290.101562 255.054688 C 289.144531 263.488281 288.234375 271.972656 287.578125 280.507812 C 278.4375 281.570312 269.34375 282.933594 260.355469 284.144531 C 256.113281 284.699219 255.910156 291.417969 260.355469 291.011719 C 269.246094 290.15625 278.132812 289.75 287.023438 289.597656 C 286.414062 303.085938 286.871094 316.621094 289.496094 329.902344 C 291.367188 339.398438 295.304688 353.640625 306.164062 356.417969 C 311.617188 357.78125 316.820312 355.152344 321.515625 352.628906 C 326.769531 349.75 331.464844 346.164062 335.859375 342.074219 C 340.253906 338.03125 334.597656 330.960938 329.546875 333.890625 Z M 329.496094 333.789062 " fill-opacity="1" fill-rule="nonzero"/></g></g></g></g></svg>