<svg xmlns="http://www.w3.org/2000/svg" xmlns:xlink="http://www.w3.org/1999/xlink" width="600" zoomAndPan="magnify" viewBox="0 0 450 449.999984" height="600" preserveAspectRatio="xMidYMid meet" version="1.0"><defs><clipPath id="208ea2d72c"><path d="M 0 0.199219 L 450 0.199219 L 450 437.800781 L 0 437.800781 Z M 0 0.199219 " clip-rule="nonzero"/></clipPath><clipPath id="9753ac6168"><path d="M 449.933594 54.191406 L 449.933594 383.808594 C 449.933594 413.625 425.757812 437.800781 395.941406 437.800781 L 53.992188 437.800781 C 24.171875 437.800781 0 413.625 0 383.808594 L 0 54.191406 C 0 24.375 24.171875 0.199219 53.992188 0.199219 L 395.941406 0.199219 C 425.757812 0.199219 449.933594 24.375 449.933594 54.191406 Z M 449.933594 54.191406 " clip-rule="nonzero"/></clipPath><clipPath id="f2616d4c04"><path d="M 0 0.199219 L 450 0.199219 L 450 437.800781 L 0 437.800781 Z M 0 0.199219 " clip-rule="nonzero"/></clipPath><clipPath id="df9e24c9a1"><path d="M 449.933594 54.191406 L 449.933594 383.808594 C 449.933594 413.625 425.757812 437.800781 395.941406 437.800781 L 53.992188 437.800781 C 24.171875 437.800781 0 413.625 0 383.808594 L 0 54.191406 C 0 24.375 24.171875 0.199219 53.992188 0.199219 L 395.941406 0.199219 C 425.757812 0.199219 449.933594 24.375 449.933594 54.191406 Z M 449.933594 54.191406 " clip-rule="nonzero"/></clipPath><clipPath id="95b54f3792"><rect x="0" width="450" y="0" height="438"/></clipPath><clipPath id="6267c1d99e"><path d="M 43 160 L 180 160 L 180 292 L 43 292 Z M 43 160 " clip-rule="nonzero"/></clipPath><clipPath id="d410f07891"><path d="M 23.984375 169.308594 L 23.984375 250.171875 C 23.984375 279.996094 48.160156 304.171875 77.984375 304.171875 L 372.015625 304.171875 C 401.839844 304.171875 426.015625 279.996094 426.015625 250.171875 L 426.015625 169.308594 C 426.015625 139.484375 401.839844 115.308594 372.015625 115.308594 L 77.984375 115.308594 C 48.160156 115.308594 23.984375 139.484375 23.984375 169.308594 Z M 23.984375 169.308594 " clip-rule="nonzero"/></clipPath><clipPath id="2f9dc6b06d"><path d="M 50 153 L 184 153 L 184 288 L 50 288 Z M 50 153 " clip-rule="nonzero"/></clipPath><clipPath id="b283265e64"><path d="M 23.984375 169.308594 L 23.984375 250.171875 C 23.984375 279.996094 48.160156 304.171875 77.984375 304.171875 L 372.015625 304.171875 C 401.839844 304.171875 426.015625 279.996094 426.015625 250.171875 L 426.015625 169.308594 C 426.015625 139.484375 401.839844 115.308594 372.015625 115.308594 L 77.984375 115.308594 C 48.160156 115.308594 23.984375 139.484375 23.984375 169.308594 Z M 23.984375 169.308594 " clip-rule="nonzero"/></clipPath><clipPath id="6a1469daf5"><path d="M 251 202 L 426 202 L 426 243 L 251 243 Z M 251 202 " clip-rule="nonzero"/></clipPath><clipPath id="5cf49b3ab6"><path d="M 23.984375 169.308594 L 23.984375 250.171875 C 23.984375 279.996094 48.160156 304.171875 77.984375 304.171875 L 372.015625 304.171875 C 401.839844 304.171875 426.015625 279.996094 426.015625 250.171875 L 426.015625 169.308594 C 426.015625 139.484375 401.839844 115.308594 372.015625 115.308594 L 77.984375 115.308594 C 48.160156 115.308594 23.984375 139.484375 23.984375 169.308594 Z M 23.984375 169.308594 " clip-rule="nonzero"/></clipPath><clipPath id="7e1729c31e"><path d="M 319 141 L 364 141 L 364 184 L 319 184 Z M 319 141 " clip-rule="nonzero"/></clipPath><clipPath id="73162a5b2d"><path d="M 23.984375 169.308594 L 23.984375 250.171875 C 23.984375 279.996094 48.160156 304.171875 77.984375 304.171875 L 372.015625 304.171875 C 401.839844 304.171875 426.015625 279.996094 426.015625 250.171875 L 426.015625 169.308594 C 426.015625 139.484375 401.839844 115.308594 372.015625 115.308594 L 77.984375 115.308594 C 48.160156 115.308594 23.984375 139.484375 23.984375 169.308594 Z M 23.984375 169.308594 " clip-rule="nonzero"/></clipPath><clipPath id="a27c59a4a4"><path d="M 317 261 L 361 261 L 361 303.1875 L 317 303.1875 Z M 317 261 " clip-rule="nonzero"/></clipPath><clipPath id="b243d8a544"><path d="M 23.984375 169.308594 L 23.984375 250.171875 C 23.984375 279.996094 48.160156 304.171875 77.984375 304.171875 L 372.015625 304.171875 C 401.839844 304.171875 426.015625 279.996094 426.015625 250.171875 L 426.015625 169.308594 C 426.015625 139.484375 401.839844 115.308594 372.015625 115.308594 L 77.984375 115.308594 C 48.160156 115.308594 23.984375 139.484375 23.984375 169.308594 Z M 23.984375 169.308594 " clip-rule="nonzero"/></clipPath><clipPath id="4c4657630d"><rect x="0" width="450" y="0" height="438"/></clipPath></defs><path fill="#ff914d" d="M 380.058594 200.023438 C 347.386719 202.175781 258.429688 188.113281 250.457031 208.632812 C 246.789062 218.121094 250.515625 228.121094 259.703125 230.941406 C 264.609375 232.457031 278.402344 232.089844 283.980469 232.152344 C 314.804688 232.484375 344.75 233.726562 371.332031 233.304688 C 395.457031 232.910156 407.335938 229.820312 407.761719 211.816406 C 408.246094 202.207031 393.789062 199.023438 380.058594 200.023438 " fill-opacity="1" fill-rule="nonzero"/><path fill="#ff914d" d="M 138.191406 267.160156 C 136.34375 234.457031 151.285156 145.648438 130.828125 137.464844 C 121.371094 133.707031 111.335938 137.34375 108.425781 146.46875 C 106.882812 151.378906 107.09375 165.167969 106.972656 170.746094 C 106.367188 201.570312 104.820312 231.484375 104.972656 258.066406 C 105.125 282.191406 108.09375 294.136719 126.097656 294.679688 C 135.765625 295.285156 139.070312 280.890625 138.191406 267.160156 " fill-opacity="1" fill-rule="nonzero"/><path fill="#ff914d" d="M 175.015625 193.082031 C 142.34375 195.234375 53.386719 181.171875 45.414062 201.691406 C 41.746094 211.179688 45.476562 221.179688 54.660156 224 C 59.570312 225.515625 73.359375 225.152344 78.9375 225.210938 C 109.761719 225.546875 139.707031 226.789062 166.289062 226.363281 C 190.414062 225.96875 202.296875 222.878906 202.71875 204.875 C 203.203125 195.234375 188.746094 192.082031 175.015625 193.082031 " fill-opacity="1" fill-rule="nonzero"/><g transform="matrix(1, 0, 0, 1, 0, 6)"><g clip-path="url(#4c4657630d)"><g clip-path="url(#208ea2d72c)"><g clip-path="url(#9753ac6168)"><g transform="matrix(1, 0, 0, 1, 0, -0.000000000000001776)"><g clip-path="url(#95b54f3792)"><g clip-path="url(#f2616d4c04)"><g clip-path="url(#df9e24c9a1)"><path fill="#ff751f" d="M 0 0.199219 L 449.566406 0.199219 L 449.566406 437.800781 L 0 437.800781 Z M 0 0.199219 " fill-opacity="1" fill-rule="nonzero"/></g></g></g></g></g></g><g clip-path="url(#6267c1d99e)"><g clip-path="url(#d410f07891)"><path fill="#ffe7c2" d="M 81.652344 276.972656 C 106.179688 250.75 187.90625 195.277344 178.867188 172.878906 C 174.679688 162.542969 164.175781 157.324219 154.769531 161.945312 C 149.71875 164.4375 138.949219 175.070312 134.429688 179.160156 C 109.539062 202.027344 84.644531 223.460938 63.707031 243.734375 C 44.695312 262.148438 37.515625 273.546875 50.675781 288.238281 C 57.523438 296.382812 71.449219 288.074219 81.652344 276.972656 " fill-opacity="1" fill-rule="nonzero"/></g></g><g clip-path="url(#2f9dc6b06d)"><g clip-path="url(#b283265e64)"><path fill="#ffe7c2" d="M 168.296875 250.085938 C 141.84375 225.824219 85.609375 144.628906 63.273438 153.867188 C 52.972656 158.15625 47.851562 168.691406 52.570312 178.097656 C 55.097656 183.148438 65.832031 193.816406 69.988281 198.269531 C 93.085938 222.929688 114.753906 247.625 135.261719 268.398438 C 153.875 287.242188 165.308594 294.320312 179.863281 280.992188 C 187.941406 274.046875 179.464844 260.1875 168.296875 250.085938 " fill-opacity="1" fill-rule="nonzero"/></g></g><g clip-path="url(#6a1469daf5)"><g clip-path="url(#5cf49b3ab6)"><path fill="#ffe7c2" d="M 394.996094 205.515625 C 359.167969 207.875 261.621094 192.453125 252.882812 214.953125 C 248.859375 225.355469 252.949219 236.324219 263.019531 239.414062 C 268.402344 241.078125 283.523438 240.679688 289.640625 240.746094 C 323.441406 241.109375 356.277344 242.472656 385.425781 242.007812 C 411.878906 241.574219 424.910156 238.1875 425.375 218.445312 C 425.90625 207.875 410.050781 204.417969 394.996094 205.515625 " fill-opacity="1" fill-rule="nonzero"/></g></g><g clip-path="url(#7e1729c31e)"><g clip-path="url(#73162a5b2d)"><path fill="#ffe7c2" d="M 359.070312 149.980469 C 342.152344 127.976562 310.878906 151.207031 322.378906 174.507812 C 326.167969 182.183594 337.597656 183.878906 344.347656 183.082031 C 359.234375 181.386719 368.875 163.238281 359.070312 149.980469 Z M 359.070312 149.980469 " fill-opacity="1" fill-rule="nonzero"/></g></g><g clip-path="url(#a27c59a4a4)"><g clip-path="url(#b243d8a544)"><path fill="#ffe7c2" d="M 356.976562 270.226562 C 340.058594 248.222656 308.785156 271.453125 320.285156 294.753906 C 324.074219 302.429688 335.503906 304.125 342.253906 303.328125 C 357.140625 301.632812 366.78125 283.484375 356.976562 270.226562 Z M 356.976562 270.226562 " fill-opacity="1" fill-rule="nonzero"/></g></g></g></g></svg>