<svg xmlns="http://www.w3.org/2000/svg" xmlns:xlink="http://www.w3.org/1999/xlink" width="600" zoomAndPan="magnify" viewBox="0 0 450 449.999984" height="600" preserveAspectRatio="xMidYMid meet" version="1.0"><defs><clipPath id="d4bf29d915"><path d="M 43 166 L 180 166 L 180 298 L 43 298 Z M 43 166 " clip-rule="nonzero"/></clipPath><clipPath id="96f76003f6"><path d="M 23.984375 215.738281 C 23.984375 240.785156 33.933594 264.804688 51.640625 282.511719 C 69.351562 300.222656 93.371094 310.171875 118.414062 310.171875 L 331.585938 310.171875 C 356.628906 310.171875 380.648438 300.222656 398.359375 282.511719 C 416.066406 264.804688 426.015625 240.785156 426.015625 215.738281 C 426.015625 190.695312 416.066406 166.675781 398.359375 148.964844 C 380.648438 131.257812 356.628906 121.308594 331.585938 121.308594 L 118.414062 121.308594 C 93.371094 121.308594 69.351562 131.257812 51.640625 148.964844 C 33.933594 166.675781 23.984375 190.695312 23.984375 215.738281 Z M 23.984375 215.738281 " clip-rule="nonzero"/></clipPath><clipPath id="18a7673e70"><path d="M 50 159 L 184 159 L 184 294 L 50 294 Z M 50 159 " clip-rule="nonzero"/></clipPath><clipPath id="a09d1e3232"><path d="M 23.984375 215.738281 C 23.984375 240.785156 33.933594 264.804688 51.640625 282.511719 C 69.351562 300.222656 93.371094 310.171875 118.414062 310.171875 L 331.585938 310.171875 C 356.628906 310.171875 380.648438 300.222656 398.359375 282.511719 C 416.066406 264.804688 426.015625 240.785156 426.015625 215.738281 C 426.015625 190.695312 416.066406 166.675781 398.359375 148.964844 C 380.648438 131.257812 356.628906 121.308594 331.585938 121.308594 L 118.414062 121.308594 C 93.371094 121.308594 69.351562 131.257812 51.640625 148.964844 C 33.933594 166.675781 23.984375 190.695312 23.984375 215.738281 Z M 23.984375 215.738281 " clip-rule="nonzero"/></clipPath><clipPath id="493c785102"><path d="M 251 208 L 425.984375 208 L 425.984375 249 L 251 249 Z M 251 208 " clip-rule="nonzero"/></clipPath><clipPath id="754dddf439"><path d="M 23.984375 215.738281 C 23.984375 240.785156 33.933594 264.804688 51.640625 282.511719 C 69.351562 300.222656 93.371094 310.171875 118.414062 310.171875 L 331.585938 310.171875 C 356.628906 310.171875 380.648438 300.222656 398.359375 282.511719 C 416.066406 264.804688 426.015625 240.785156 426.015625 215.738281 C 426.015625 190.695312 416.066406 166.675781 398.359375 148.964844 C 380.648438 131.257812 356.628906 121.308594 331.585938 121.308594 L 118.414062 121.308594 C 93.371094 121.308594 69.351562 131.257812 51.640625 148.964844 C 33.933594 166.675781 23.984375 190.695312 23.984375 215.738281 Z M 23.984375 215.738281 " clip-rule="nonzero"/></clipPath><clipPath id="6cd0af8815"><path d="M 319 147 L 364 147 L 364 190 L 319 190 Z M 319 147 " clip-rule="nonzero"/></clipPath><clipPath id="39155e4d32"><path d="M 23.984375 215.738281 C 23.984375 240.785156 33.933594 264.804688 51.640625 282.511719 C 69.351562 300.222656 93.371094 310.171875 118.414062 310.171875 L 331.585938 310.171875 C 356.628906 310.171875 380.648438 300.222656 398.359375 282.511719 C 416.066406 264.804688 426.015625 240.785156 426.015625 215.738281 C 426.015625 190.695312 416.066406 166.675781 398.359375 148.964844 C 380.648438 131.257812 356.628906 121.308594 331.585938 121.308594 L 118.414062 121.308594 C 93.371094 121.308594 69.351562 131.257812 51.640625 148.964844 C 33.933594 166.675781 23.984375 190.695312 23.984375 215.738281 Z M 23.984375 215.738281 " clip-rule="nonzero"/></clipPath><clipPath id="b6828a19c2"><path d="M 317 267 L 361 267 L 361 309.976562 L 317 309.976562 Z M 317 267 " clip-rule="nonzero"/></clipPath><clipPath id="7ecaa529f7"><path d="M 23.984375 215.738281 C 23.984375 240.785156 33.933594 264.804688 51.640625 282.511719 C 69.351562 300.222656 93.371094 310.171875 118.414062 310.171875 L 331.585938 310.171875 C 356.628906 310.171875 380.648438 300.222656 398.359375 282.511719 C 416.066406 264.804688 426.015625 240.785156 426.015625 215.738281 C 426.015625 190.695312 416.066406 166.675781 398.359375 148.964844 C 380.648438 131.257812 356.628906 121.308594 331.585938 121.308594 L 118.414062 121.308594 C 93.371094 121.308594 69.351562 131.257812 51.640625 148.964844 C 33.933594 166.675781 23.984375 190.695312 23.984375 215.738281 Z M 23.984375 215.738281 " clip-rule="nonzero"/></clipPath><clipPath id="6faa566dac"><path d="M 0.800781 6.589844 L 450 6.589844 L 450 443.410156 L 0.800781 443.410156 Z M 0.800781 6.589844 " clip-rule="nonzero"/></clipPath><clipPath id="3fa65ddf68"><path d="M 449.933594 58.332031 L 449.933594 391.667969 C 449.933594 420.246094 426.765625 443.410156 398.191406 443.410156 L 52.542969 443.410156 C 23.964844 443.410156 0.800781 420.246094 0.800781 391.667969 L 0.800781 58.332031 C 0.800781 29.753906 23.964844 6.589844 52.542969 6.589844 L 398.191406 6.589844 C 426.765625 6.589844 449.933594 29.753906 449.933594 58.332031 Z M 449.933594 58.332031 " clip-rule="nonzero"/></clipPath><clipPath id="7aec17b158"><path d="M 0.800781 0.589844 L 450 0.589844 L 450 437.410156 L 0.800781 437.410156 Z M 0.800781 0.589844 " clip-rule="nonzero"/></clipPath><clipPath id="61f2358436"><path d="M 449.933594 52.332031 L 449.933594 385.667969 C 449.933594 414.246094 426.765625 437.410156 398.191406 437.410156 L 52.542969 437.410156 C 23.964844 437.410156 0.800781 414.246094 0.800781 385.667969 L 0.800781 52.332031 C 0.800781 23.753906 23.964844 0.589844 52.542969 0.589844 L 398.191406 0.589844 C 426.765625 0.589844 449.933594 23.753906 449.933594 52.332031 Z M 449.933594 52.332031 " clip-rule="nonzero"/></clipPath><clipPath id="919473f4ed"><rect x="0" width="450" y="0" height="438"/></clipPath><clipPath id="0ea450f35f"><path d="M 72.050781 68.785156 L 379 68.785156 L 379 382 L 72.050781 382 Z M 72.050781 68.785156 " clip-rule="nonzero"/></clipPath><clipPath id="15ef0190fc"><path d="M 72.050781 120.535156 L 72.050781 329.464844 C 72.050781 358.046875 95.222656 381.214844 123.800781 381.214844 L 327 381.214844 C 355.578125 381.214844 378.75 358.046875 378.75 329.464844 L 378.75 120.535156 C 378.75 91.953125 355.578125 68.785156 327 68.785156 L 123.800781 68.785156 C 95.222656 68.785156 72.050781 91.953125 72.050781 120.535156 Z M 72.050781 120.535156 " clip-rule="nonzero"/></clipPath><clipPath id="de558f92ae"><path d="M 85 133 L 204 133 L 204 166 L 85 166 Z M 85 133 " clip-rule="nonzero"/></clipPath><clipPath id="22fa15be1e"><path d="M 72.050781 120.535156 L 72.050781 329.464844 C 72.050781 358.046875 95.222656 381.214844 123.800781 381.214844 L 327 381.214844 C 355.578125 381.214844 378.75 358.046875 378.75 329.464844 L 378.75 120.535156 C 378.75 91.953125 355.578125 68.785156 327 68.785156 L 123.800781 68.785156 C 95.222656 68.785156 72.050781 91.953125 72.050781 120.535156 Z M 72.050781 120.535156 " clip-rule="nonzero"/></clipPath><clipPath id="719d30259a"><path d="M 239 90 L 358 90 L 358 209 L 239 209 Z M 239 90 " clip-rule="nonzero"/></clipPath><clipPath id="7c17c33864"><path d="M 72.050781 120.535156 L 72.050781 329.464844 C 72.050781 358.046875 95.222656 381.214844 123.800781 381.214844 L 327 381.214844 C 355.578125 381.214844 378.75 358.046875 378.75 329.464844 L 378.75 120.535156 C 378.75 91.953125 355.578125 68.785156 327 68.785156 L 123.800781 68.785156 C 95.222656 68.785156 72.050781 91.953125 72.050781 120.535156 Z M 72.050781 120.535156 " clip-rule="nonzero"/></clipPath><clipPath id="95e4332710"><path d="M 98 258 L 191 258 L 191 351 L 98 351 Z M 98 258 " clip-rule="nonzero"/></clipPath><clipPath id="7a90432633"><path d="M 72.050781 120.535156 L 72.050781 329.464844 C 72.050781 358.046875 95.222656 381.214844 123.800781 381.214844 L 327 381.214844 C 355.578125 381.214844 378.75 358.046875 378.75 329.464844 L 378.75 120.535156 C 378.75 91.953125 355.578125 68.785156 327 68.785156 L 123.800781 68.785156 C 95.222656 68.785156 72.050781 91.953125 72.050781 120.535156 Z M 72.050781 120.535156 " clip-rule="nonzero"/></clipPath><clipPath id="4136125882"><path d="M 239 257 L 358 257 L 358 289 L 239 289 Z M 239 257 " clip-rule="nonzero"/></clipPath><clipPath id="bd508bd697"><path d="M 72.050781 120.535156 L 72.050781 329.464844 C 72.050781 358.046875 95.222656 381.214844 123.800781 381.214844 L 327 381.214844 C 355.578125 381.214844 378.75 358.046875 378.75 329.464844 L 378.75 120.535156 C 378.75 91.953125 355.578125 68.785156 327 68.785156 L 123.800781 68.785156 C 95.222656 68.785156 72.050781 91.953125 72.050781 120.535156 Z M 72.050781 120.535156 " clip-rule="nonzero"/></clipPath><clipPath id="5a64d28fa2"><path d="M 239 313 L 358 313 L 358 345 L 239 345 Z M 239 313 " clip-rule="nonzero"/></clipPath><clipPath id="ff80fc0066"><path d="M 72.050781 120.535156 L 72.050781 329.464844 C 72.050781 358.046875 95.222656 381.214844 123.800781 381.214844 L 327 381.214844 C 355.578125 381.214844 378.75 358.046875 378.75 329.464844 L 378.75 120.535156 C 378.75 91.953125 355.578125 68.785156 327 68.785156 L 123.800781 68.785156 C 95.222656 68.785156 72.050781 91.953125 72.050781 120.535156 Z M 72.050781 120.535156 " clip-rule="nonzero"/></clipPath><clipPath id="217d61aa5e"><rect x="0" width="450" y="0" height="444"/></clipPath></defs><path fill="#ff914d" d="M 380.058594 200.023438 C 347.386719 202.175781 258.429688 188.113281 250.457031 208.632812 C 246.789062 218.121094 250.515625 228.121094 259.703125 230.941406 C 264.609375 232.457031 278.402344 232.089844 283.980469 232.152344 C 314.804688 232.484375 344.75 233.726562 371.332031 233.304688 C 395.457031 232.910156 407.335938 229.820312 407.761719 211.816406 C 408.246094 202.207031 393.789062 199.023438 380.058594 200.023438 " fill-opacity="1" fill-rule="nonzero"/><path fill="#ff914d" d="M 138.191406 267.160156 C 136.34375 234.457031 151.285156 145.648438 130.828125 137.464844 C 121.371094 133.707031 111.335938 137.34375 108.425781 146.46875 C 106.882812 151.378906 107.09375 165.167969 106.972656 170.746094 C 106.367188 201.570312 104.820312 231.484375 104.972656 258.066406 C 105.125 282.191406 108.09375 294.136719 126.097656 294.679688 C 135.765625 295.285156 139.070312 280.890625 138.191406 267.160156 " fill-opacity="1" fill-rule="nonzero"/><path fill="#ff914d" d="M 175.015625 193.082031 C 142.34375 195.234375 53.386719 181.171875 45.414062 201.691406 C 41.746094 211.179688 45.476562 221.179688 54.660156 224 C 59.570312 225.515625 73.359375 225.152344 78.9375 225.210938 C 109.761719 225.546875 139.707031 226.789062 166.289062 226.363281 C 190.414062 225.96875 202.296875 222.878906 202.71875 204.875 C 203.203125 195.234375 188.746094 192.082031 175.015625 193.082031 " fill-opacity="1" fill-rule="nonzero"/><g clip-path="url(#d4bf29d915)"><g clip-path="url(#96f76003f6)"><path fill="#ffe7c2" d="M 81.671875 283.007812 C 106.199219 256.78125 187.933594 201.304688 178.894531 178.902344 C 174.707031 168.566406 164.203125 163.347656 154.796875 167.96875 C 149.742188 170.460938 138.972656 181.097656 134.453125 185.183594 C 109.558594 208.054688 84.660156 229.492188 63.722656 249.769531 C 44.707031 268.183594 37.53125 279.582031 50.691406 294.273438 C 57.539062 302.417969 71.464844 294.109375 81.671875 283.007812 " fill-opacity="1" fill-rule="nonzero"/></g></g><g clip-path="url(#18a7673e70)"><g clip-path="url(#a09d1e3232)"><path fill="#ffe7c2" d="M 168.324219 256.117188 C 141.867188 231.851562 85.625 150.648438 63.289062 159.890625 C 52.984375 164.179688 47.867188 174.714844 52.585938 184.121094 C 55.113281 189.175781 65.847656 199.84375 70.003906 204.296875 C 93.105469 228.960938 114.777344 253.65625 135.285156 274.429688 C 153.898438 293.277344 165.332031 300.355469 179.890625 287.027344 C 187.96875 280.082031 179.492188 266.222656 168.324219 256.117188 " fill-opacity="1" fill-rule="nonzero"/></g></g><g clip-path="url(#493c785102)"><g clip-path="url(#754dddf439)"><path fill="#ffe7c2" d="M 395.046875 211.542969 C 359.214844 213.902344 261.65625 198.480469 252.917969 220.984375 C 248.894531 231.386719 252.984375 242.355469 263.054688 245.445312 C 268.4375 247.109375 283.5625 246.710938 289.679688 246.777344 C 323.480469 247.140625 356.320312 248.503906 385.472656 248.039062 C 411.929688 247.609375 424.960938 244.21875 425.425781 224.472656 C 425.957031 213.902344 410.101562 210.445312 395.046875 211.542969 " fill-opacity="1" fill-rule="nonzero"/></g></g><g clip-path="url(#6cd0af8815)"><g clip-path="url(#39155e4d32)"><path fill="#ffe7c2" d="M 359.113281 156 C 342.195312 133.996094 310.917969 157.230469 322.417969 180.53125 C 326.207031 188.210938 337.640625 189.90625 344.390625 189.109375 C 359.28125 187.414062 368.917969 169.265625 359.113281 156 Z M 359.113281 156 " fill-opacity="1" fill-rule="nonzero"/></g></g><g clip-path="url(#b6828a19c2)"><g clip-path="url(#7ecaa529f7)"><path fill="#ffe7c2" d="M 357.019531 276.257812 C 340.101562 254.253906 308.824219 277.488281 320.324219 300.789062 C 324.113281 308.46875 335.546875 310.164062 342.296875 309.363281 C 357.1875 307.667969 366.824219 289.523438 357.019531 276.257812 Z M 357.019531 276.257812 " fill-opacity="1" fill-rule="nonzero"/></g></g><g transform="matrix(1, 0, 0, 1, 0, 0)"><g clip-path="url(#217d61aa5e)"><g clip-path="url(#6faa566dac)"><g clip-path="url(#3fa65ddf68)"><g transform="matrix(1, 0, 0, 1, 0, 6)"><g clip-path="url(#919473f4ed)"><g clip-path="url(#7aec17b158)"><g clip-path="url(#61f2358436)"><path fill="#ffe7c2" d="M 0.800781 0.589844 L 449.566406 0.589844 L 449.566406 437.410156 L 0.800781 437.410156 Z M 0.800781 0.589844 " fill-opacity="1" fill-rule="nonzero"/></g></g></g></g></g></g><g clip-path="url(#0ea450f35f)"><g clip-path="url(#15ef0190fc)"><path fill="#ffbd59" d="M 362.574219 1.113281 L 80.519531 1.113281 C 79.238281 1.113281 77.957031 1.144531 76.675781 1.207031 C 75.394531 1.273438 74.117188 1.367188 72.839844 1.492188 C 71.566406 1.617188 70.292969 1.773438 69.023438 1.960938 C 67.757812 2.152344 66.492188 2.371094 65.234375 2.621094 C 63.980469 2.871094 62.726562 3.152344 61.484375 3.460938 C 60.242188 3.773438 59.003906 4.117188 57.777344 4.488281 C 56.550781 4.859375 55.332031 5.261719 54.125 5.695312 C 52.917969 6.125 51.722656 6.585938 50.539062 7.078125 C 49.355469 7.570312 48.183594 8.089844 47.023438 8.636719 C 45.863281 9.183594 44.71875 9.761719 43.589844 10.367188 C 42.457031 10.96875 41.34375 11.601562 40.242188 12.261719 C 39.140625 12.921875 38.058594 13.605469 36.992188 14.316406 C 35.925781 15.03125 34.878906 15.769531 33.847656 16.53125 C 32.820312 17.296875 31.808594 18.085938 30.816406 18.898438 C 29.828125 19.710938 28.855469 20.550781 27.90625 21.410156 C 26.957031 22.269531 26.027344 23.15625 25.121094 24.0625 C 24.214844 24.96875 23.332031 25.898438 22.46875 26.847656 C 21.609375 27.796875 20.769531 28.769531 19.957031 29.757812 C 19.144531 30.75 18.355469 31.761719 17.589844 32.789062 C 16.828125 33.820312 16.089844 34.867188 15.378906 35.933594 C 14.664062 37 13.980469 38.082031 13.320312 39.183594 C 12.660156 40.28125 12.027344 41.398438 11.425781 42.53125 C 10.820312 43.660156 10.242188 44.804688 9.695312 45.964844 C 9.148438 47.125 8.628906 48.296875 8.136719 49.480469 C 7.648438 50.664062 7.183594 51.859375 6.753906 53.066406 C 6.320312 54.273438 5.917969 55.492188 5.546875 56.71875 C 5.175781 57.945312 4.832031 59.179688 4.519531 60.425781 C 4.210938 61.667969 3.929688 62.917969 3.679688 64.175781 C 3.429688 65.433594 3.210938 66.699219 3.019531 67.964844 C 2.832031 69.234375 2.675781 70.507812 2.550781 71.78125 C 2.425781 73.058594 2.332031 74.335938 2.269531 75.617188 C 2.203125 76.898438 2.171875 78.179688 2.171875 79.460938 L 2.171875 361.515625 C 2.171875 362.796875 2.203125 364.078125 2.269531 365.359375 C 2.332031 366.640625 2.425781 367.917969 2.550781 369.195312 C 2.675781 370.46875 2.832031 371.742188 3.019531 373.011719 C 3.210938 374.277344 3.429688 375.542969 3.679688 376.800781 C 3.929688 378.058594 4.210938 379.308594 4.519531 380.550781 C 4.832031 381.796875 5.175781 383.03125 5.546875 384.257812 C 5.917969 385.484375 6.320312 386.703125 6.753906 387.910156 C 7.183594 389.117188 7.648438 390.3125 8.136719 391.496094 C 8.628906 392.683594 9.148438 393.855469 9.695312 395.011719 C 10.242188 396.171875 10.820312 397.316406 11.425781 398.449219 C 12.027344 399.578125 12.660156 400.695312 13.320312 401.792969 C 13.980469 402.894531 14.664062 403.976562 15.378906 405.042969 C 16.089844 406.109375 16.828125 407.15625 17.589844 408.1875 C 18.355469 409.214844 19.144531 410.226562 19.957031 411.21875 C 20.769531 412.210938 21.609375 413.179688 22.46875 414.128906 C 23.332031 415.078125 24.214844 416.007812 25.121094 416.914062 C 26.027344 417.820312 26.957031 418.707031 27.90625 419.566406 C 28.855469 420.425781 29.828125 421.265625 30.816406 422.078125 C 31.808594 422.890625 32.820312 423.679688 33.847656 424.445312 C 34.878906 425.207031 35.925781 425.945312 36.992188 426.660156 C 38.058594 427.371094 39.140625 428.054688 40.242188 428.714844 C 41.34375 429.375 42.457031 430.007812 43.589844 430.609375 C 44.71875 431.214844 45.863281 431.792969 47.023438 432.339844 C 48.183594 432.886719 49.355469 433.40625 50.539062 433.898438 C 51.722656 434.390625 52.917969 434.851562 54.125 435.28125 C 55.332031 435.714844 56.550781 436.117188 57.777344 436.488281 C 59.003906 436.859375 60.242188 437.203125 61.484375 437.515625 C 62.726562 437.824219 63.980469 438.105469 65.234375 438.355469 C 66.492188 438.605469 67.757812 438.828125 69.023438 439.015625 C 70.292969 439.203125 71.566406 439.359375 72.839844 439.484375 C 74.117188 439.609375 75.394531 439.707031 76.675781 439.769531 C 77.957031 439.832031 79.238281 439.863281 80.519531 439.863281 L 362.574219 439.863281 C 363.855469 439.863281 365.136719 439.832031 366.417969 439.769531 C 367.699219 439.707031 368.976562 439.609375 370.253906 439.484375 C 371.527344 439.359375 372.800781 439.203125 374.070312 439.015625 C 375.339844 438.828125 376.601562 438.605469 377.859375 438.355469 C 379.117188 438.105469 380.367188 437.824219 381.609375 437.515625 C 382.855469 437.203125 384.089844 436.859375 385.316406 436.488281 C 386.542969 436.117188 387.761719 435.714844 388.96875 435.28125 C 390.175781 434.851562 391.371094 434.390625 392.554688 433.898438 C 393.742188 433.40625 394.914062 432.886719 396.070312 432.339844 C 397.230469 431.792969 398.375 431.214844 399.507812 430.609375 C 400.636719 430.007812 401.753906 429.375 402.851562 428.714844 C 403.953125 428.054688 405.035156 427.371094 406.101562 426.660156 C 407.167969 425.945312 408.214844 425.207031 409.246094 424.445312 C 410.273438 423.679688 411.285156 422.890625 412.277344 422.078125 C 413.269531 421.265625 414.238281 420.425781 415.1875 419.566406 C 416.140625 418.707031 417.066406 417.820312 417.972656 416.914062 C 418.878906 416.007812 419.765625 415.078125 420.625 414.128906 C 421.488281 413.179688 422.324219 412.210938 423.136719 411.21875 C 423.949219 410.226562 424.738281 409.214844 425.503906 408.1875 C 426.265625 407.15625 427.003906 406.109375 427.71875 405.042969 C 428.429688 403.976562 429.117188 402.894531 429.773438 401.792969 C 430.433594 400.695312 431.066406 399.578125 431.671875 398.449219 C 432.273438 397.316406 432.851562 396.171875 433.398438 395.011719 C 433.949219 393.855469 434.46875 392.683594 434.957031 391.496094 C 435.449219 390.3125 435.910156 389.117188 436.339844 387.910156 C 436.773438 386.703125 437.175781 385.484375 437.546875 384.257812 C 437.921875 383.03125 438.261719 381.796875 438.574219 380.550781 C 438.886719 379.308594 439.164062 378.058594 439.417969 376.800781 C 439.667969 375.542969 439.886719 374.277344 440.074219 373.011719 C 440.261719 371.742188 440.417969 370.46875 440.542969 369.195312 C 440.667969 367.917969 440.765625 366.640625 440.828125 365.359375 C 440.890625 364.078125 440.921875 362.796875 440.921875 361.515625 L 440.921875 79.460938 C 440.921875 78.179688 440.890625 76.898438 440.828125 75.617188 C 440.765625 74.335938 440.667969 73.058594 440.542969 71.78125 C 440.417969 70.507812 440.261719 69.234375 440.074219 67.964844 C 439.886719 66.699219 439.667969 65.433594 439.414062 64.175781 C 439.164062 62.917969 438.886719 61.667969 438.574219 60.425781 C 438.261719 59.179688 437.921875 57.945312 437.546875 56.71875 C 437.175781 55.492188 436.773438 54.273438 436.339844 53.066406 C 435.910156 51.859375 435.449219 50.664062 434.957031 49.480469 C 434.46875 48.296875 433.949219 47.125 433.398438 45.964844 C 432.851562 44.804688 432.273438 43.660156 431.671875 42.527344 C 431.066406 41.398438 430.433594 40.28125 429.773438 39.183594 C 429.117188 38.082031 428.429688 37 427.71875 35.933594 C 427.003906 34.867188 426.265625 33.820312 425.503906 32.789062 C 424.738281 31.761719 423.949219 30.75 423.136719 29.757812 C 422.324219 28.769531 421.488281 27.796875 420.625 26.847656 C 419.765625 25.898438 418.878906 24.96875 417.972656 24.0625 C 417.066406 23.15625 416.140625 22.269531 415.1875 21.410156 C 414.238281 20.550781 413.269531 19.710938 412.277344 18.898438 C 411.285156 18.085938 410.273438 17.296875 409.246094 16.53125 C 408.214844 15.769531 407.167969 15.03125 406.101562 14.316406 C 405.035156 13.605469 403.953125 12.921875 402.851562 12.261719 C 401.753906 11.601562 400.636719 10.96875 399.507812 10.367188 C 398.375 9.761719 397.230469 9.183594 396.070312 8.636719 C 394.914062 8.089844 393.742188 7.570312 392.554688 7.078125 C 391.371094 6.585938 390.175781 6.125 388.96875 5.695312 C 387.761719 5.261719 386.542969 4.859375 385.316406 4.488281 C 384.089844 4.117188 382.855469 3.773438 381.609375 3.460938 C 380.367188 3.152344 379.117188 2.871094 377.859375 2.621094 C 376.601562 2.371094 375.339844 2.152344 374.070312 1.960938 C 372.800781 1.773438 371.527344 1.617188 370.253906 1.492188 C 368.976562 1.367188 367.699219 1.273438 366.417969 1.207031 C 365.136719 1.144531 363.855469 1.113281 362.574219 1.113281 Z M 409.582031 361.515625 C 409.582031 363.054688 409.507812 364.589844 409.355469 366.121094 C 409.203125 367.65625 408.980469 369.175781 408.679688 370.6875 C 408.378906 372.195312 408.003906 373.6875 407.558594 375.160156 C 407.109375 376.632812 406.59375 378.082031 406.003906 379.503906 C 405.414062 380.925781 404.757812 382.316406 404.03125 383.675781 C 403.304688 385.03125 402.515625 386.351562 401.660156 387.632812 C 400.804688 388.910156 399.886719 390.148438 398.910156 391.335938 C 397.933594 392.527344 396.902344 393.667969 395.8125 394.753906 C 394.726562 395.84375 393.585938 396.875 392.394531 397.851562 C 391.207031 398.828125 389.96875 399.746094 388.691406 400.601562 C 387.410156 401.457031 386.089844 402.246094 384.734375 402.972656 C 383.375 403.699219 381.984375 404.355469 380.5625 404.945312 C 379.140625 405.535156 377.691406 406.050781 376.21875 406.5 C 374.746094 406.945312 373.253906 407.320312 371.746094 407.621094 C 370.234375 407.921875 368.714844 408.144531 367.179688 408.296875 C 365.648438 408.449219 364.113281 408.523438 362.574219 408.523438 L 80.519531 408.523438 C 78.980469 408.523438 77.445312 408.449219 75.914062 408.296875 C 74.382812 408.144531 72.859375 407.921875 71.351562 407.621094 C 69.839844 407.320312 68.347656 406.945312 66.875 406.5 C 65.402344 406.050781 63.953125 405.535156 62.53125 404.945312 C 61.109375 404.355469 59.71875 403.699219 58.363281 402.972656 C 57.003906 402.246094 55.683594 401.457031 54.40625 400.601562 C 53.125 399.746094 51.890625 398.828125 50.699219 397.851562 C 49.507812 396.875 48.371094 395.84375 47.28125 394.753906 C 46.191406 393.667969 45.160156 392.527344 44.183594 391.335938 C 43.207031 390.148438 42.289062 388.910156 41.433594 387.632812 C 40.578125 386.351562 39.789062 385.03125 39.0625 383.675781 C 38.335938 382.316406 37.679688 380.925781 37.089844 379.503906 C 36.5 378.082031 35.984375 376.632812 35.535156 375.160156 C 35.089844 373.6875 34.714844 372.195312 34.414062 370.6875 C 34.117188 369.175781 33.890625 367.65625 33.738281 366.121094 C 33.589844 364.589844 33.511719 363.054688 33.511719 361.515625 L 33.511719 79.460938 C 33.511719 77.921875 33.589844 76.386719 33.738281 74.855469 C 33.890625 73.324219 34.117188 71.800781 34.414062 70.292969 C 34.714844 68.78125 35.089844 67.289062 35.535156 65.816406 C 35.984375 64.34375 36.5 62.894531 37.089844 61.472656 C 37.679688 60.050781 38.335938 58.660156 39.0625 57.300781 C 39.789062 55.945312 40.578125 54.625 41.433594 53.34375 C 42.289062 52.066406 43.207031 50.832031 44.183594 49.640625 C 45.160156 48.449219 46.191406 47.3125 47.28125 46.222656 C 48.371094 45.132812 49.507812 44.101562 50.699219 43.125 C 51.890625 42.148438 53.125 41.230469 54.40625 40.375 C 55.683594 39.519531 57.003906 38.730469 58.363281 38.003906 C 59.71875 37.277344 61.109375 36.621094 62.53125 36.03125 C 63.953125 35.441406 65.402344 34.925781 66.875 34.476562 C 68.347656 34.03125 69.839844 33.65625 71.351562 33.355469 C 72.859375 33.054688 74.382812 32.832031 75.914062 32.679688 C 77.445312 32.527344 78.980469 32.453125 80.519531 32.453125 L 362.574219 32.453125 C 364.113281 32.453125 365.648438 32.527344 367.179688 32.679688 C 368.714844 32.832031 370.234375 33.054688 371.746094 33.355469 C 373.253906 33.65625 374.746094 34.03125 376.21875 34.476562 C 377.691406 34.925781 379.140625 35.441406 380.5625 36.03125 C 381.984375 36.621094 383.375 37.277344 384.734375 38.003906 C 386.089844 38.730469 387.410156 39.519531 388.691406 40.375 C 389.96875 41.230469 391.207031 42.148438 392.394531 43.125 C 393.585938 44.101562 394.726562 45.132812 395.8125 46.222656 C 396.902344 47.3125 397.933594 48.449219 398.910156 49.640625 C 399.886719 50.832031 400.804688 52.066406 401.660156 53.34375 C 402.515625 54.625 403.304688 55.945312 404.03125 57.300781 C 404.757812 58.660156 405.414062 60.050781 406.003906 61.472656 C 406.59375 62.894531 407.109375 64.34375 407.558594 65.816406 C 408.003906 67.289062 408.378906 68.78125 408.679688 70.292969 C 408.980469 71.800781 409.203125 73.324219 409.355469 74.855469 C 409.507812 76.386719 409.582031 77.921875 409.582031 79.460938 Z M 409.582031 361.515625 " fill-opacity="1" fill-rule="nonzero"/></g></g><g clip-path="url(#de558f92ae)"><g clip-path="url(#22fa15be1e)"><path fill="#ffbd59" d="M 187.699219 133.679688 L 101.203125 133.679688 C 100.175781 133.679688 99.15625 133.78125 98.148438 133.980469 C 97.140625 134.179688 96.160156 134.476562 95.207031 134.871094 C 94.257812 135.265625 93.355469 135.75 92.5 136.320312 C 91.644531 136.890625 90.851562 137.539062 90.125 138.269531 C 89.398438 138.996094 88.746094 139.789062 88.175781 140.644531 C 87.605469 141.5 87.121094 142.402344 86.726562 143.351562 C 86.335938 144.300781 86.039062 145.28125 85.835938 146.292969 C 85.636719 147.300781 85.535156 148.320312 85.535156 149.347656 C 85.535156 150.378906 85.636719 151.394531 85.835938 152.40625 C 86.039062 153.414062 86.335938 154.394531 86.726562 155.34375 C 87.121094 156.296875 87.605469 157.199219 88.175781 158.054688 C 88.746094 158.910156 89.398438 159.699219 90.125 160.429688 C 90.851562 161.15625 91.644531 161.804688 92.5 162.378906 C 93.355469 162.949219 94.257812 163.429688 95.207031 163.824219 C 96.160156 164.21875 97.140625 164.515625 98.148438 164.71875 C 99.15625 164.917969 100.175781 165.019531 101.203125 165.019531 L 187.699219 165.019531 C 188.730469 165.019531 189.75 164.917969 190.757812 164.71875 C 191.765625 164.515625 192.746094 164.21875 193.699219 163.824219 C 194.648438 163.429688 195.550781 162.949219 196.40625 162.378906 C 197.261719 161.804688 198.054688 161.15625 198.78125 160.429688 C 199.507812 159.699219 200.160156 158.910156 200.730469 158.054688 C 201.300781 157.199219 201.785156 156.296875 202.179688 155.34375 C 202.570312 154.394531 202.867188 153.414062 203.070312 152.40625 C 203.269531 151.394531 203.371094 150.378906 203.371094 149.347656 C 203.371094 148.320312 203.269531 147.300781 203.070312 146.292969 C 202.867188 145.28125 202.570312 144.300781 202.179688 143.351562 C 201.785156 142.402344 201.300781 141.5 200.730469 140.644531 C 200.160156 139.789062 199.507812 138.996094 198.78125 138.269531 C 198.054688 137.539062 197.261719 136.890625 196.40625 136.320312 C 195.550781 135.75 194.648438 135.265625 193.699219 134.871094 C 192.746094 134.476562 191.765625 134.179688 190.757812 133.980469 C 189.75 133.78125 188.730469 133.679688 187.699219 133.679688 Z M 187.699219 133.679688 " fill-opacity="1" fill-rule="nonzero"/></g></g><g clip-path="url(#719d30259a)"><g clip-path="url(#7c17c33864)"><path fill="#ffbd59" d="M 341.890625 133.679688 L 314.3125 133.679688 L 314.3125 106.101562 C 314.3125 105.070312 314.210938 104.050781 314.011719 103.042969 C 313.808594 102.035156 313.511719 101.054688 313.117188 100.105469 C 312.726562 99.152344 312.242188 98.25 311.671875 97.394531 C 311.097656 96.539062 310.449219 95.746094 309.722656 95.019531 C 308.996094 94.292969 308.203125 93.644531 307.347656 93.070312 C 306.492188 92.5 305.589844 92.015625 304.636719 91.625 C 303.6875 91.230469 302.707031 90.933594 301.699219 90.730469 C 300.691406 90.53125 299.671875 90.429688 298.640625 90.429688 C 297.613281 90.429688 296.59375 90.53125 295.585938 90.730469 C 294.574219 90.933594 293.597656 91.230469 292.644531 91.625 C 291.695312 92.015625 290.792969 92.5 289.9375 93.070312 C 289.082031 93.644531 288.289062 94.292969 287.5625 95.019531 C 286.835938 95.746094 286.183594 96.539062 285.613281 97.394531 C 285.042969 98.25 284.558594 99.152344 284.164062 100.105469 C 283.769531 101.054688 283.472656 102.035156 283.273438 103.042969 C 283.074219 104.050781 282.972656 105.070312 282.972656 106.101562 L 282.972656 133.679688 L 255.394531 133.679688 C 254.363281 133.679688 253.347656 133.78125 252.335938 133.980469 C 251.328125 134.179688 250.347656 134.476562 249.398438 134.871094 C 248.445312 135.265625 247.542969 135.75 246.6875 136.320312 C 245.832031 136.890625 245.042969 137.539062 244.3125 138.269531 C 243.585938 138.996094 242.9375 139.789062 242.363281 140.644531 C 241.792969 141.5 241.3125 142.402344 240.917969 143.351562 C 240.523438 144.300781 240.226562 145.28125 240.023438 146.292969 C 239.824219 147.300781 239.722656 148.320312 239.722656 149.347656 C 239.722656 150.378906 239.824219 151.394531 240.023438 152.40625 C 240.226562 153.414062 240.523438 154.394531 240.917969 155.34375 C 241.3125 156.296875 241.792969 157.199219 242.363281 158.054688 C 242.9375 158.910156 243.585938 159.699219 244.3125 160.429688 C 245.042969 161.15625 245.832031 161.804688 246.6875 162.378906 C 247.542969 162.949219 248.445312 163.429688 249.398438 163.824219 C 250.347656 164.21875 251.328125 164.515625 252.335938 164.71875 C 253.347656 164.917969 254.363281 165.019531 255.394531 165.019531 L 282.972656 165.019531 L 282.972656 192.441406 C 282.972656 193.46875 283.074219 194.488281 283.273438 195.496094 C 283.472656 196.507812 283.769531 197.484375 284.164062 198.4375 C 284.558594 199.386719 285.042969 200.289062 285.613281 201.144531 C 286.183594 202 286.835938 202.792969 287.5625 203.519531 C 288.289062 204.246094 289.082031 204.898438 289.9375 205.46875 C 290.792969 206.039062 291.695312 206.523438 292.644531 206.917969 C 293.597656 207.308594 294.574219 207.609375 295.585938 207.808594 C 296.59375 208.007812 297.613281 208.109375 298.640625 208.109375 C 299.671875 208.109375 300.691406 208.007812 301.699219 207.808594 C 302.707031 207.609375 303.6875 207.308594 304.636719 206.917969 C 305.589844 206.523438 306.492188 206.039062 307.347656 205.46875 C 308.203125 204.898438 308.996094 204.246094 309.722656 203.519531 C 310.449219 202.792969 311.097656 202 311.671875 201.144531 C 312.242188 200.289062 312.726562 199.386719 313.117188 198.4375 C 313.511719 197.484375 313.808594 196.507812 314.011719 195.496094 C 314.210938 194.488281 314.3125 193.46875 314.3125 192.441406 L 314.3125 165.019531 L 341.890625 165.019531 C 342.917969 165.019531 343.9375 164.917969 344.945312 164.71875 C 345.957031 164.515625 346.9375 164.21875 347.886719 163.824219 C 348.835938 163.429688 349.738281 162.949219 350.59375 162.378906 C 351.449219 161.804688 352.242188 161.15625 352.96875 160.429688 C 353.699219 159.699219 354.347656 158.910156 354.917969 158.054688 C 355.488281 157.199219 355.972656 156.296875 356.367188 155.34375 C 356.761719 154.394531 357.058594 153.414062 357.257812 152.40625 C 357.457031 151.394531 357.558594 150.378906 357.558594 149.347656 C 357.558594 148.320312 357.457031 147.300781 357.257812 146.292969 C 357.058594 145.28125 356.761719 144.300781 356.367188 143.351562 C 355.972656 142.402344 355.488281 141.5 354.917969 140.644531 C 354.347656 139.789062 353.699219 138.996094 352.96875 138.269531 C 352.242188 137.539062 351.449219 136.890625 350.59375 136.320312 C 349.738281 135.75 348.835938 135.265625 347.886719 134.871094 C 346.9375 134.476562 345.957031 134.179688 344.945312 133.980469 C 343.9375 133.78125 342.917969 133.679688 341.890625 133.679688 Z M 341.890625 133.679688 " fill-opacity="1" fill-rule="nonzero"/></g></g><g clip-path="url(#95e4332710)"><g clip-path="url(#7a90432633)"><path fill="#ffbd59" d="M 186.132812 262.640625 C 185.769531 262.273438 185.390625 261.925781 184.992188 261.597656 C 184.59375 261.269531 184.183594 260.960938 183.753906 260.671875 C 183.328125 260.382812 182.886719 260.117188 182.429688 259.875 C 181.976562 259.628906 181.511719 259.40625 181.035156 259.210938 C 180.558594 259.011719 180.074219 258.835938 179.582031 258.6875 C 179.085938 258.535156 178.585938 258.410156 178.082031 258.308594 C 177.574219 258.207031 177.066406 258.132812 176.550781 258.082031 C 176.039062 258.03125 175.523438 258.003906 175.007812 258.003906 C 174.492188 258.003906 173.976562 258.03125 173.464844 258.082031 C 172.953125 258.132812 172.441406 258.207031 171.9375 258.308594 C 171.429688 258.410156 170.929688 258.535156 170.4375 258.6875 C 169.945312 258.835938 169.457031 259.011719 168.984375 259.210938 C 168.507812 259.40625 168.042969 259.628906 167.585938 259.875 C 167.132812 260.117188 166.691406 260.382812 166.261719 260.671875 C 165.835938 260.960938 165.421875 261.269531 165.023438 261.597656 C 164.628906 261.925781 164.246094 262.273438 163.882812 262.640625 L 144.453125 282.226562 L 124.867188 262.640625 C 124.140625 261.917969 123.347656 261.273438 122.496094 260.703125 C 121.640625 260.136719 120.742188 259.65625 119.792969 259.265625 C 118.847656 258.875 117.871094 258.582031 116.863281 258.382812 C 115.859375 258.183594 114.84375 258.082031 113.820312 258.082031 C 112.792969 258.082031 111.777344 258.183594 110.773438 258.382812 C 109.769531 258.582031 108.792969 258.875 107.84375 259.265625 C 106.898438 259.65625 105.996094 260.136719 105.144531 260.703125 C 104.289062 261.273438 103.5 261.917969 102.773438 262.640625 C 102.40625 263.003906 102.058594 263.382812 101.730469 263.78125 C 101.402344 264.179688 101.09375 264.589844 100.804688 265.019531 C 100.515625 265.449219 100.25 265.890625 100.007812 266.34375 C 99.761719 266.796875 99.539062 267.261719 99.34375 267.738281 C 99.144531 268.214844 98.96875 268.699219 98.820312 269.191406 C 98.667969 269.6875 98.542969 270.1875 98.441406 270.691406 C 98.339844 271.199219 98.265625 271.707031 98.214844 272.222656 C 98.164062 272.734375 98.136719 273.25 98.136719 273.765625 C 98.136719 274.28125 98.164062 274.796875 98.214844 275.308594 C 98.265625 275.820312 98.339844 276.332031 98.441406 276.835938 C 98.542969 277.34375 98.667969 277.84375 98.820312 278.335938 C 98.96875 278.832031 99.144531 279.316406 99.34375 279.792969 C 99.539062 280.265625 99.761719 280.734375 100.007812 281.1875 C 100.25 281.640625 100.515625 282.082031 100.804688 282.511719 C 101.09375 282.9375 101.402344 283.351562 101.730469 283.75 C 102.058594 284.148438 102.40625 284.527344 102.773438 284.890625 L 122.203125 304.320312 L 102.773438 323.75 C 102.40625 324.113281 102.058594 324.496094 101.730469 324.890625 C 101.402344 325.289062 101.09375 325.703125 100.804688 326.128906 C 100.515625 326.558594 100.25 327 100.007812 327.453125 C 99.761719 327.910156 99.539062 328.375 99.34375 328.851562 C 99.144531 329.328125 98.96875 329.8125 98.820312 330.304688 C 98.667969 330.796875 98.542969 331.296875 98.441406 331.804688 C 98.339844 332.308594 98.265625 332.820312 98.214844 333.332031 C 98.164062 333.847656 98.136719 334.359375 98.136719 334.875 C 98.136719 335.390625 98.164062 335.90625 98.214844 336.421875 C 98.265625 336.933594 98.339844 337.441406 98.441406 337.949219 C 98.542969 338.453125 98.667969 338.953125 98.820312 339.449219 C 98.96875 339.941406 99.144531 340.425781 99.34375 340.902344 C 99.539062 341.378906 99.761719 341.84375 100.007812 342.296875 C 100.25 342.753906 100.515625 343.195312 100.804688 343.621094 C 101.09375 344.050781 101.402344 344.460938 101.730469 344.859375 C 102.058594 345.257812 102.40625 345.636719 102.773438 346 C 104.25 347.46875 105.953125 348.59375 107.882812 349.382812 C 109.808594 350.171875 111.816406 350.558594 113.898438 350.546875 C 115.953125 350.539062 117.929688 350.140625 119.828125 349.351562 C 121.726562 348.566406 123.40625 347.449219 124.867188 346 L 144.453125 326.570312 L 163.882812 345.84375 C 165.363281 347.3125 167.066406 348.4375 168.992188 349.226562 C 170.921875 350.011719 172.925781 350.402344 175.007812 350.390625 C 177.089844 350.402344 179.097656 350.011719 181.023438 349.226562 C 182.953125 348.4375 184.65625 347.3125 186.132812 345.84375 C 186.5 345.480469 186.847656 345.101562 187.175781 344.703125 C 187.503906 344.304688 187.8125 343.894531 188.101562 343.464844 C 188.390625 343.039062 188.65625 342.597656 188.898438 342.140625 C 189.144531 341.6875 189.367188 341.222656 189.5625 340.746094 C 189.761719 340.269531 189.9375 339.785156 190.085938 339.292969 C 190.238281 338.796875 190.363281 338.296875 190.464844 337.792969 C 190.566406 337.285156 190.640625 336.777344 190.691406 336.261719 C 190.742188 335.75 190.769531 335.234375 190.769531 334.71875 C 190.769531 334.203125 190.742188 333.6875 190.691406 333.175781 C 190.640625 332.664062 190.566406 332.152344 190.464844 331.648438 C 190.363281 331.140625 190.238281 330.640625 190.085938 330.148438 C 189.9375 329.65625 189.761719 329.167969 189.5625 328.695312 C 189.367188 328.21875 189.144531 327.753906 188.898438 327.296875 C 188.65625 326.84375 188.390625 326.402344 188.101562 325.972656 C 187.8125 325.546875 187.503906 325.132812 187.175781 324.734375 C 186.847656 324.339844 186.5 323.957031 186.132812 323.59375 L 166.546875 304.164062 L 186.132812 284.734375 C 186.855469 284.007812 187.5 283.214844 188.070312 282.363281 C 188.636719 281.507812 189.117188 280.609375 189.507812 279.660156 C 189.898438 278.714844 190.191406 277.738281 190.390625 276.730469 C 190.589844 275.726562 190.691406 274.710938 190.691406 273.6875 C 190.691406 272.660156 190.589844 271.648438 190.390625 270.640625 C 190.191406 269.636719 189.898438 268.660156 189.507812 267.710938 C 189.117188 266.765625 188.636719 265.863281 188.070312 265.011719 C 187.5 264.15625 186.855469 263.367188 186.132812 262.640625 Z M 186.132812 262.640625 " fill-opacity="1" fill-rule="nonzero"/></g></g><g clip-path="url(#4136125882)"><g clip-path="url(#bd508bd697)"><path fill="#ffbd59" d="M 341.890625 257.625 L 255.394531 257.625 C 254.363281 257.625 253.347656 257.726562 252.335938 257.925781 C 251.328125 258.128906 250.347656 258.425781 249.398438 258.816406 C 248.445312 259.210938 247.542969 259.695312 246.6875 260.265625 C 245.832031 260.835938 245.042969 261.488281 244.3125 262.214844 C 243.585938 262.941406 242.9375 263.734375 242.363281 264.589844 C 241.792969 265.445312 241.3125 266.347656 240.917969 267.296875 C 240.523438 268.25 240.226562 269.230469 240.023438 270.238281 C 239.824219 271.246094 239.722656 272.265625 239.722656 273.296875 C 239.722656 274.324219 239.824219 275.34375 240.023438 276.351562 C 240.226562 277.359375 240.523438 278.339844 240.917969 279.292969 C 241.3125 280.242188 241.792969 281.144531 242.363281 282 C 242.9375 282.855469 243.585938 283.648438 244.3125 284.375 C 245.042969 285.101562 245.832031 285.753906 246.6875 286.324219 C 247.542969 286.894531 248.445312 287.378906 249.398438 287.773438 C 250.347656 288.164062 251.328125 288.460938 252.335938 288.664062 C 253.347656 288.863281 254.363281 288.964844 255.394531 288.964844 L 341.890625 288.964844 C 342.917969 288.964844 343.9375 288.863281 344.945312 288.664062 C 345.957031 288.460938 346.9375 288.164062 347.886719 287.773438 C 348.835938 287.378906 349.738281 286.894531 350.59375 286.324219 C 351.449219 285.753906 352.242188 285.101562 352.96875 284.375 C 353.699219 283.648438 354.347656 282.855469 354.917969 282 C 355.488281 281.144531 355.972656 280.242188 356.367188 279.292969 C 356.761719 278.339844 357.058594 277.359375 357.257812 276.351562 C 357.457031 275.34375 357.558594 274.324219 357.558594 273.296875 C 357.558594 272.265625 357.457031 271.246094 357.257812 270.238281 C 357.058594 269.230469 356.761719 268.25 356.367188 267.296875 C 355.972656 266.347656 355.488281 265.445312 354.917969 264.589844 C 354.347656 263.734375 353.699219 262.941406 352.96875 262.214844 C 352.242188 261.488281 351.449219 260.835938 350.59375 260.265625 C 349.738281 259.695312 348.835938 259.210938 347.886719 258.816406 C 346.9375 258.425781 345.957031 258.128906 344.945312 257.925781 C 343.9375 257.726562 342.917969 257.625 341.890625 257.625 Z M 341.890625 257.625 " fill-opacity="1" fill-rule="nonzero"/></g></g><g clip-path="url(#5a64d28fa2)"><g clip-path="url(#ff80fc0066)"><path fill="#ffbd59" d="M 341.890625 313.566406 L 255.394531 313.566406 C 254.363281 313.566406 253.347656 313.667969 252.335938 313.867188 C 251.328125 314.066406 250.347656 314.363281 249.398438 314.757812 C 248.445312 315.152344 247.542969 315.636719 246.6875 316.207031 C 245.832031 316.777344 245.042969 317.425781 244.3125 318.15625 C 243.585938 318.882812 242.9375 319.675781 242.363281 320.53125 C 241.792969 321.386719 241.3125 322.289062 240.917969 323.238281 C 240.523438 324.1875 240.226562 325.167969 240.023438 326.179688 C 239.824219 327.1875 239.722656 328.207031 239.722656 329.234375 C 239.722656 330.265625 239.824219 331.28125 240.023438 332.292969 C 240.226562 333.300781 240.523438 334.28125 240.917969 335.230469 C 241.3125 336.183594 241.792969 337.085938 242.363281 337.941406 C 242.9375 338.796875 243.585938 339.585938 244.3125 340.316406 C 245.042969 341.042969 245.832031 341.691406 246.6875 342.265625 C 247.542969 342.835938 248.445312 343.316406 249.398438 343.710938 C 250.347656 344.105469 251.328125 344.402344 252.335938 344.605469 C 253.347656 344.804688 254.363281 344.90625 255.394531 344.90625 L 341.890625 344.90625 C 342.917969 344.90625 343.9375 344.804688 344.945312 344.605469 C 345.957031 344.402344 346.9375 344.105469 347.886719 343.710938 C 348.835938 343.316406 349.738281 342.835938 350.59375 342.265625 C 351.449219 341.691406 352.242188 341.042969 352.96875 340.316406 C 353.699219 339.585938 354.347656 338.796875 354.917969 337.941406 C 355.488281 337.085938 355.972656 336.183594 356.367188 335.230469 C 356.761719 334.28125 357.058594 333.300781 357.257812 332.292969 C 357.457031 331.28125 357.558594 330.265625 357.558594 329.234375 C 357.558594 328.207031 357.457031 327.1875 357.257812 326.179688 C 357.058594 325.167969 356.761719 324.1875 356.367188 323.238281 C 355.972656 322.289062 355.488281 321.386719 354.917969 320.53125 C 354.347656 319.675781 353.699219 318.882812 352.96875 318.15625 C 352.242188 317.425781 351.449219 316.777344 350.59375 316.207031 C 349.738281 315.636719 348.835938 315.152344 347.886719 314.757812 C 346.9375 314.363281 345.957031 314.066406 344.945312 313.867188 C 343.9375 313.667969 342.917969 313.566406 341.890625 313.566406 Z M 341.890625 313.566406 " fill-opacity="1" fill-rule="nonzero"/></g></g></g></g></svg>