<svg xmlns="http://www.w3.org/2000/svg" xmlns:xlink="http://www.w3.org/1999/xlink" width="600" zoomAndPan="magnify" viewBox="0 0 450 257.99999" height="344" preserveAspectRatio="xMidYMid meet" version="1.0"><path fill="#f895c2" d="M 321.164062 257.570312 L 128.773438 257.570312 C 57.761719 257.570312 0 199.8125 0 128.796875 C 0 57.785156 57.761719 0.0234375 128.773438 0.0234375 L 321.164062 0.0234375 C 392.179688 0.0234375 449.9375 57.785156 449.9375 128.796875 C 449.9375 199.8125 392.179688 257.570312 321.164062 257.570312 Z M 128.773438 18.515625 C 67.929688 18.515625 18.492188 67.957031 18.492188 128.796875 C 18.492188 189.640625 67.929688 239.078125 128.773438 239.078125 L 321.164062 239.078125 C 381.945312 239.078125 431.445312 189.640625 431.445312 128.796875 C 431.445312 67.957031 381.945312 18.515625 321.164062 18.515625 Z M 128.773438 18.515625 " fill-opacity="1" fill-rule="nonzero"/><path fill="#f895c2" d="M 294.101562 196.789062 C 291.761719 196.789062 289.355469 195.867188 287.570312 194.078125 C 283.929688 190.441406 283.929688 184.585938 287.570312 181.011719 L 339.535156 129.042969 L 287.570312 77.078125 C 283.929688 73.441406 283.929688 67.585938 287.570312 64.011719 C 291.207031 60.433594 297.0625 60.375 300.636719 64.011719 L 356.484375 119.859375 C 361.542969 124.914062 361.542969 133.175781 356.484375 138.230469 L 300.636719 194.078125 C 298.847656 195.867188 296.445312 196.789062 294.101562 196.789062 Z M 343.417969 132.929688 Z M 343.417969 132.929688 " fill-opacity="1" fill-rule="nonzero"/><path fill="#f895c2" d="M 351 138.230469 L 98.875 138.230469 C 93.761719 138.230469 89.628906 134.097656 89.628906 128.984375 C 89.628906 123.867188 93.761719 119.734375 98.875 119.734375 L 351 119.734375 C 356.117188 119.734375 360.246094 123.867188 360.246094 128.984375 C 360.246094 134.097656 356.117188 138.230469 351 138.230469 Z M 351 138.230469 " fill-opacity="1" fill-rule="nonzero"/></svg>