<svg xmlns="http://www.w3.org/2000/svg" xmlns:xlink="http://www.w3.org/1999/xlink" width="600" zoomAndPan="magnify" viewBox="0 0 450 449.999984" height="600" preserveAspectRatio="xMidYMid meet" version="1.0"><defs><clipPath id="23ceb6a897"><path d="M 0 0 L 450 0 L 450 437.800781 L 0 437.800781 Z M 0 0 " clip-rule="nonzero"/></clipPath><clipPath id="5694f36f4e"><path d="M 449.933594 53.441406 L 449.933594 384.558594 C 449.933594 398.679688 444.324219 412.21875 434.335938 422.207031 C 424.351562 432.191406 410.8125 437.800781 396.691406 437.800781 L 53.242188 437.800781 C 39.121094 437.800781 25.578125 432.191406 15.59375 422.207031 C 5.609375 412.21875 0 398.679688 0 384.558594 L 0 53.441406 C 0 39.320312 5.609375 25.777344 15.59375 15.792969 C 25.578125 5.808594 39.121094 0.199219 53.242188 0.199219 L 396.691406 0.199219 C 410.8125 0.199219 424.351562 5.808594 434.335938 15.792969 C 444.324219 25.777344 449.933594 39.320312 449.933594 53.441406 Z M 449.933594 53.441406 " clip-rule="nonzero"/></clipPath><clipPath id="eb662d1b9c"><path d="M 0 0 L 450 0 L 450 437.800781 L 0 437.800781 Z M 0 0 " clip-rule="nonzero"/></clipPath><clipPath id="79cf13c0cd"><path d="M 449.933594 53.441406 L 449.933594 384.558594 C 449.933594 398.679688 444.324219 412.21875 434.335938 422.207031 C 424.351562 432.191406 410.8125 437.800781 396.691406 437.800781 L 53.242188 437.800781 C 39.121094 437.800781 25.578125 432.191406 15.59375 422.207031 C 5.609375 412.21875 0 398.679688 0 384.558594 L 0 53.441406 C 0 39.320312 5.609375 25.777344 15.59375 15.792969 C 25.578125 5.808594 39.121094 0.199219 53.242188 0.199219 L 396.691406 0.199219 C 410.8125 0.199219 424.351562 5.808594 434.335938 15.792969 C 444.324219 25.777344 449.933594 39.320312 449.933594 53.441406 Z M 449.933594 53.441406 " clip-rule="nonzero"/></clipPath><clipPath id="8bd193b600"><rect x="0" width="450" y="0" height="438"/></clipPath><clipPath id="c82e4d268a"><path d="M 249 191 L 405.660156 191 L 405.660156 228 L 249 228 Z M 249 191 " clip-rule="nonzero"/></clipPath><clipPath id="cf0afc01fb"><rect x="0" width="450" y="0" height="438"/></clipPath></defs><g transform="matrix(1, 0, 0, 1, 0, 6)"><g clip-path="url(#cf0afc01fb)"><g clip-path="url(#23ceb6a897)"><g clip-path="url(#5694f36f4e)"><g transform="matrix(1, 0, 0, 1, 0, -0.000000000000001776)"><g clip-path="url(#8bd193b600)"><g clip-path="url(#eb662d1b9c)"><g clip-path="url(#79cf13c0cd)"><path fill="#ffd21f" d="M 0 0.199219 L 449.566406 0.199219 L 449.566406 437.800781 L 0 437.800781 Z M 0 0.199219 " fill-opacity="1" fill-rule="nonzero"/></g></g></g></g></g></g><g clip-path="url(#c82e4d268a)"><path fill="#ff914d" d="M 380.023438 194.011719 C 347.355469 196.164062 258.414062 182.101562 250.445312 202.617188 C 246.777344 212.101562 250.507812 222.105469 259.6875 224.921875 C 264.597656 226.4375 278.386719 226.074219 283.960938 226.132812 C 314.78125 226.46875 344.71875 227.710938 371.296875 227.285156 C 395.417969 226.890625 407.296875 223.800781 407.722656 205.800781 C 408.207031 196.195312 393.75 193.011719 380.023438 194.011719 " fill-opacity="1" fill-rule="nonzero"/></g><path fill="#ff914d" d="M 138.203125 261.132812 C 136.351562 228.4375 151.292969 139.648438 130.835938 131.464844 C 121.382812 127.707031 111.351562 131.34375 108.441406 140.464844 C 106.898438 145.375 107.109375 159.164062 106.988281 164.738281 C 106.382812 195.558594 104.835938 225.46875 104.988281 252.042969 C 105.140625 276.164062 108.109375 288.105469 126.109375 288.648438 C 135.777344 289.257812 139.078125 274.863281 138.203125 261.132812 " fill-opacity="1" fill-rule="nonzero"/><path fill="#ff914d" d="M 175.019531 187.074219 C 142.351562 189.222656 53.410156 175.164062 45.441406 195.679688 C 41.773438 205.164062 45.503906 215.164062 54.683594 217.980469 C 59.59375 219.496094 73.382812 219.132812 78.957031 219.195312 C 109.777344 219.527344 139.714844 220.769531 166.292969 220.347656 C 190.414062 219.953125 202.292969 216.859375 202.71875 198.859375 C 203.203125 189.222656 188.746094 186.074219 175.019531 187.074219 " fill-opacity="1" fill-rule="nonzero"/></g></g></svg>