<svg xmlns="http://www.w3.org/2000/svg" xmlns:xlink="http://www.w3.org/1999/xlink" width="600" zoomAndPan="magnify" viewBox="0 0 450 449.999984" height="600" preserveAspectRatio="xMidYMid meet" version="1.0"><defs><clipPath id="9d422f895e"><path d="M 43 166 L 180 166 L 180 298 L 43 298 Z M 43 166 " clip-rule="nonzero"/></clipPath><clipPath id="9da5497092"><path d="M 23.984375 215.738281 C 23.984375 240.785156 33.933594 264.804688 51.640625 282.511719 C 69.351562 300.222656 93.371094 310.171875 118.414062 310.171875 L 331.585938 310.171875 C 356.628906 310.171875 380.648438 300.222656 398.359375 282.511719 C 416.066406 264.804688 426.015625 240.785156 426.015625 215.738281 C 426.015625 190.695312 416.066406 166.675781 398.359375 148.964844 C 380.648438 131.257812 356.628906 121.308594 331.585938 121.308594 L 118.414062 121.308594 C 93.371094 121.308594 69.351562 131.257812 51.640625 148.964844 C 33.933594 166.675781 23.984375 190.695312 23.984375 215.738281 Z M 23.984375 215.738281 " clip-rule="nonzero"/></clipPath><clipPath id="99508521b5"><path d="M 50 159 L 184 159 L 184 294 L 50 294 Z M 50 159 " clip-rule="nonzero"/></clipPath><clipPath id="b637c192b2"><path d="M 23.984375 215.738281 C 23.984375 240.785156 33.933594 264.804688 51.640625 282.511719 C 69.351562 300.222656 93.371094 310.171875 118.414062 310.171875 L 331.585938 310.171875 C 356.628906 310.171875 380.648438 300.222656 398.359375 282.511719 C 416.066406 264.804688 426.015625 240.785156 426.015625 215.738281 C 426.015625 190.695312 416.066406 166.675781 398.359375 148.964844 C 380.648438 131.257812 356.628906 121.308594 331.585938 121.308594 L 118.414062 121.308594 C 93.371094 121.308594 69.351562 131.257812 51.640625 148.964844 C 33.933594 166.675781 23.984375 190.695312 23.984375 215.738281 Z M 23.984375 215.738281 " clip-rule="nonzero"/></clipPath><clipPath id="86abc99750"><path d="M 251 208 L 425.984375 208 L 425.984375 249 L 251 249 Z M 251 208 " clip-rule="nonzero"/></clipPath><clipPath id="d53cd6ea30"><path d="M 23.984375 215.738281 C 23.984375 240.785156 33.933594 264.804688 51.640625 282.511719 C 69.351562 300.222656 93.371094 310.171875 118.414062 310.171875 L 331.585938 310.171875 C 356.628906 310.171875 380.648438 300.222656 398.359375 282.511719 C 416.066406 264.804688 426.015625 240.785156 426.015625 215.738281 C 426.015625 190.695312 416.066406 166.675781 398.359375 148.964844 C 380.648438 131.257812 356.628906 121.308594 331.585938 121.308594 L 118.414062 121.308594 C 93.371094 121.308594 69.351562 131.257812 51.640625 148.964844 C 33.933594 166.675781 23.984375 190.695312 23.984375 215.738281 Z M 23.984375 215.738281 " clip-rule="nonzero"/></clipPath><clipPath id="260072bbd8"><path d="M 319 147 L 364 147 L 364 190 L 319 190 Z M 319 147 " clip-rule="nonzero"/></clipPath><clipPath id="34a75855de"><path d="M 23.984375 215.738281 C 23.984375 240.785156 33.933594 264.804688 51.640625 282.511719 C 69.351562 300.222656 93.371094 310.171875 118.414062 310.171875 L 331.585938 310.171875 C 356.628906 310.171875 380.648438 300.222656 398.359375 282.511719 C 416.066406 264.804688 426.015625 240.785156 426.015625 215.738281 C 426.015625 190.695312 416.066406 166.675781 398.359375 148.964844 C 380.648438 131.257812 356.628906 121.308594 331.585938 121.308594 L 118.414062 121.308594 C 93.371094 121.308594 69.351562 131.257812 51.640625 148.964844 C 33.933594 166.675781 23.984375 190.695312 23.984375 215.738281 Z M 23.984375 215.738281 " clip-rule="nonzero"/></clipPath><clipPath id="f9c7d598ad"><path d="M 317 267 L 361 267 L 361 309.976562 L 317 309.976562 Z M 317 267 " clip-rule="nonzero"/></clipPath><clipPath id="5d3f89c930"><path d="M 23.984375 215.738281 C 23.984375 240.785156 33.933594 264.804688 51.640625 282.511719 C 69.351562 300.222656 93.371094 310.171875 118.414062 310.171875 L 331.585938 310.171875 C 356.628906 310.171875 380.648438 300.222656 398.359375 282.511719 C 416.066406 264.804688 426.015625 240.785156 426.015625 215.738281 C 426.015625 190.695312 416.066406 166.675781 398.359375 148.964844 C 380.648438 131.257812 356.628906 121.308594 331.585938 121.308594 L 118.414062 121.308594 C 93.371094 121.308594 69.351562 131.257812 51.640625 148.964844 C 33.933594 166.675781 23.984375 190.695312 23.984375 215.738281 Z M 23.984375 215.738281 " clip-rule="nonzero"/></clipPath><clipPath id="f8dda2830d"><path d="M 77.871094 45 L 384.621094 45 L 384.621094 357.75 L 77.871094 357.75 Z M 77.871094 45 " clip-rule="nonzero"/></clipPath><clipPath id="b13cc90a41"><path d="M 77.871094 198.347656 L 77.871094 204.082031 C 77.871094 244.753906 94.027344 283.757812 122.785156 312.515625 C 151.542969 341.273438 190.546875 357.429688 231.21875 357.429688 C 271.890625 357.429688 310.894531 341.273438 339.652344 312.515625 C 368.410156 283.757812 384.566406 244.753906 384.566406 204.082031 L 384.566406 198.347656 C 384.566406 157.679688 368.410156 118.671875 339.652344 89.914062 C 310.894531 61.15625 271.890625 45 231.21875 45 C 190.546875 45 151.542969 61.15625 122.785156 89.914062 C 94.027344 118.671875 77.871094 157.679688 77.871094 198.347656 Z M 77.871094 198.347656 " clip-rule="nonzero"/></clipPath><clipPath id="547be67a3a"><path d="M 91 109 L 210 109 L 210 142 L 91 142 Z M 91 109 " clip-rule="nonzero"/></clipPath><clipPath id="8a3a72b493"><path d="M 77.871094 198.347656 L 77.871094 204.082031 C 77.871094 244.753906 94.027344 283.757812 122.785156 312.515625 C 151.542969 341.273438 190.546875 357.429688 231.21875 357.429688 C 271.890625 357.429688 310.894531 341.273438 339.652344 312.515625 C 368.410156 283.757812 384.566406 244.753906 384.566406 204.082031 L 384.566406 198.347656 C 384.566406 157.679688 368.410156 118.671875 339.652344 89.914062 C 310.894531 61.15625 271.890625 45 231.21875 45 C 190.546875 45 151.542969 61.15625 122.785156 89.914062 C 94.027344 118.671875 77.871094 157.679688 77.871094 198.347656 Z M 77.871094 198.347656 " clip-rule="nonzero"/></clipPath><clipPath id="7de678f7e6"><path d="M 245 66 L 364 66 L 364 185 L 245 185 Z M 245 66 " clip-rule="nonzero"/></clipPath><clipPath id="762280c612"><path d="M 77.871094 198.347656 L 77.871094 204.082031 C 77.871094 244.753906 94.027344 283.757812 122.785156 312.515625 C 151.542969 341.273438 190.546875 357.429688 231.21875 357.429688 C 271.890625 357.429688 310.894531 341.273438 339.652344 312.515625 C 368.410156 283.757812 384.566406 244.753906 384.566406 204.082031 L 384.566406 198.347656 C 384.566406 157.679688 368.410156 118.671875 339.652344 89.914062 C 310.894531 61.15625 271.890625 45 231.21875 45 C 190.546875 45 151.542969 61.15625 122.785156 89.914062 C 94.027344 118.671875 77.871094 157.679688 77.871094 198.347656 Z M 77.871094 198.347656 " clip-rule="nonzero"/></clipPath><clipPath id="fac2ef4fc0"><path d="M 103 234 L 197 234 L 197 327 L 103 327 Z M 103 234 " clip-rule="nonzero"/></clipPath><clipPath id="37f3053da6"><path d="M 77.871094 198.347656 L 77.871094 204.082031 C 77.871094 244.753906 94.027344 283.757812 122.785156 312.515625 C 151.542969 341.273438 190.546875 357.429688 231.21875 357.429688 C 271.890625 357.429688 310.894531 341.273438 339.652344 312.515625 C 368.410156 283.757812 384.566406 244.753906 384.566406 204.082031 L 384.566406 198.347656 C 384.566406 157.679688 368.410156 118.671875 339.652344 89.914062 C 310.894531 61.15625 271.890625 45 231.21875 45 C 190.546875 45 151.542969 61.15625 122.785156 89.914062 C 94.027344 118.671875 77.871094 157.679688 77.871094 198.347656 Z M 77.871094 198.347656 " clip-rule="nonzero"/></clipPath><clipPath id="5850fb907d"><path d="M 245 233 L 364 233 L 364 266 L 245 266 Z M 245 233 " clip-rule="nonzero"/></clipPath><clipPath id="f0a44587f9"><path d="M 77.871094 198.347656 L 77.871094 204.082031 C 77.871094 244.753906 94.027344 283.757812 122.785156 312.515625 C 151.542969 341.273438 190.546875 357.429688 231.21875 357.429688 C 271.890625 357.429688 310.894531 341.273438 339.652344 312.515625 C 368.410156 283.757812 384.566406 244.753906 384.566406 204.082031 L 384.566406 198.347656 C 384.566406 157.679688 368.410156 118.671875 339.652344 89.914062 C 310.894531 61.15625 271.890625 45 231.21875 45 C 190.546875 45 151.542969 61.15625 122.785156 89.914062 C 94.027344 118.671875 77.871094 157.679688 77.871094 198.347656 Z M 77.871094 198.347656 " clip-rule="nonzero"/></clipPath><clipPath id="28ddb61e82"><path d="M 245 289 L 364 289 L 364 322 L 245 322 Z M 245 289 " clip-rule="nonzero"/></clipPath><clipPath id="71cd349a3e"><path d="M 77.871094 198.347656 L 77.871094 204.082031 C 77.871094 244.753906 94.027344 283.757812 122.785156 312.515625 C 151.542969 341.273438 190.546875 357.429688 231.21875 357.429688 C 271.890625 357.429688 310.894531 341.273438 339.652344 312.515625 C 368.410156 283.757812 384.566406 244.753906 384.566406 204.082031 L 384.566406 198.347656 C 384.566406 157.679688 368.410156 118.671875 339.652344 89.914062 C 310.894531 61.15625 271.890625 45 231.21875 45 C 190.546875 45 151.542969 61.15625 122.785156 89.914062 C 94.027344 118.671875 77.871094 157.679688 77.871094 198.347656 Z M 77.871094 198.347656 " clip-rule="nonzero"/></clipPath><clipPath id="b3ec01dfe5"><path d="M 57.382812 198 L 393.382812 198 L 393.382812 319.160156 L 57.382812 319.160156 Z M 57.382812 198 " clip-rule="nonzero"/></clipPath><clipPath id="5659b3760f"><path d="M 57.382812 225 C 57.382812 276.964844 99.507812 319.089844 151.472656 319.089844 L 299.328125 319.089844 C 351.292969 319.089844 393.417969 276.964844 393.417969 225 C 393.417969 173.035156 351.292969 130.910156 299.328125 130.910156 L 151.472656 130.910156 C 99.507812 130.910156 57.382812 173.035156 57.382812 225 Z M 57.382812 225 " clip-rule="nonzero"/></clipPath><clipPath id="43a603b0dd"><path d="M 332 204 L 346 204 L 346 226 L 332 226 Z M 332 204 " clip-rule="nonzero"/></clipPath><clipPath id="612878e6fa"><path d="M 57.382812 225 C 57.382812 276.964844 99.507812 319.089844 151.472656 319.089844 L 299.328125 319.089844 C 351.292969 319.089844 393.417969 276.964844 393.417969 225 C 393.417969 173.035156 351.292969 130.910156 299.328125 130.910156 L 151.472656 130.910156 C 99.507812 130.910156 57.382812 173.035156 57.382812 225 Z M 57.382812 225 " clip-rule="nonzero"/></clipPath><clipPath id="32bf170bae"><path d="M 281 204 L 295 204 L 295 226 L 281 226 Z M 281 204 " clip-rule="nonzero"/></clipPath><clipPath id="48a917a00b"><path d="M 57.382812 225 C 57.382812 276.964844 99.507812 319.089844 151.472656 319.089844 L 299.328125 319.089844 C 351.292969 319.089844 393.417969 276.964844 393.417969 225 C 393.417969 173.035156 351.292969 130.910156 299.328125 130.910156 L 151.472656 130.910156 C 99.507812 130.910156 57.382812 173.035156 57.382812 225 Z M 57.382812 225 " clip-rule="nonzero"/></clipPath><clipPath id="bc9d642e74"><path d="M 230 204 L 244 204 L 244 226 L 230 226 Z M 230 204 " clip-rule="nonzero"/></clipPath><clipPath id="5b6e82a4d9"><path d="M 57.382812 225 C 57.382812 276.964844 99.507812 319.089844 151.472656 319.089844 L 299.328125 319.089844 C 351.292969 319.089844 393.417969 276.964844 393.417969 225 C 393.417969 173.035156 351.292969 130.910156 299.328125 130.910156 L 151.472656 130.910156 C 99.507812 130.910156 57.382812 173.035156 57.382812 225 Z M 57.382812 225 " clip-rule="nonzero"/></clipPath><clipPath id="4af33903bc"><path d="M 179 204 L 193 204 L 193 226 L 179 226 Z M 179 204 " clip-rule="nonzero"/></clipPath><clipPath id="35c35ec5d3"><path d="M 57.382812 225 C 57.382812 276.964844 99.507812 319.089844 151.472656 319.089844 L 299.328125 319.089844 C 351.292969 319.089844 393.417969 276.964844 393.417969 225 C 393.417969 173.035156 351.292969 130.910156 299.328125 130.910156 L 151.472656 130.910156 C 99.507812 130.910156 57.382812 173.035156 57.382812 225 Z M 57.382812 225 " clip-rule="nonzero"/></clipPath><clipPath id="76f0e00f08"><path d="M 128 204 L 142 204 L 142 226 L 128 226 Z M 128 204 " clip-rule="nonzero"/></clipPath><clipPath id="f4f60fa967"><path d="M 57.382812 225 C 57.382812 276.964844 99.507812 319.089844 151.472656 319.089844 L 299.328125 319.089844 C 351.292969 319.089844 393.417969 276.964844 393.417969 225 C 393.417969 173.035156 351.292969 130.910156 299.328125 130.910156 L 151.472656 130.910156 C 99.507812 130.910156 57.382812 173.035156 57.382812 225 Z M 57.382812 225 " clip-rule="nonzero"/></clipPath><clipPath id="0299076f57"><path d="M 77 204 L 91 204 L 91 226 L 77 226 Z M 77 204 " clip-rule="nonzero"/></clipPath><clipPath id="cb27e6fc4b"><path d="M 57.382812 225 C 57.382812 276.964844 99.507812 319.089844 151.472656 319.089844 L 299.328125 319.089844 C 351.292969 319.089844 393.417969 276.964844 393.417969 225 C 393.417969 173.035156 351.292969 130.910156 299.328125 130.910156 L 151.472656 130.910156 C 99.507812 130.910156 57.382812 173.035156 57.382812 225 Z M 57.382812 225 " clip-rule="nonzero"/></clipPath><clipPath id="9ead0dd74b"><path d="M 58 270 L 393.382812 270 L 393.382812 316 L 58 316 Z M 58 270 " clip-rule="nonzero"/></clipPath><clipPath id="f7a4bd857e"><path d="M 57.382812 225 C 57.382812 276.964844 99.507812 319.089844 151.472656 319.089844 L 299.328125 319.089844 C 351.292969 319.089844 393.417969 276.964844 393.417969 225 C 393.417969 173.035156 351.292969 130.910156 299.328125 130.910156 L 151.472656 130.910156 C 99.507812 130.910156 57.382812 173.035156 57.382812 225 Z M 57.382812 225 " clip-rule="nonzero"/></clipPath><clipPath id="01eb929cee"><path d="M 379 130.910156 L 393.382812 130.910156 L 393.382812 172 L 379 172 Z M 379 130.910156 " clip-rule="nonzero"/></clipPath><clipPath id="bb32dc5115"><path d="M 57.382812 225 C 57.382812 276.964844 99.507812 319.089844 151.472656 319.089844 L 299.328125 319.089844 C 351.292969 319.089844 393.417969 276.964844 393.417969 225 C 393.417969 173.035156 351.292969 130.910156 299.328125 130.910156 L 151.472656 130.910156 C 99.507812 130.910156 57.382812 173.035156 57.382812 225 Z M 57.382812 225 " clip-rule="nonzero"/></clipPath><clipPath id="cc57b8d4cd"><path d="M 58 130.910156 L 73 130.910156 L 73 172 L 58 172 Z M 58 130.910156 " clip-rule="nonzero"/></clipPath><clipPath id="777e907a4d"><path d="M 57.382812 225 C 57.382812 276.964844 99.507812 319.089844 151.472656 319.089844 L 299.328125 319.089844 C 351.292969 319.089844 393.417969 276.964844 393.417969 225 C 393.417969 173.035156 351.292969 130.910156 299.328125 130.910156 L 151.472656 130.910156 C 99.507812 130.910156 57.382812 173.035156 57.382812 225 Z M 57.382812 225 " clip-rule="nonzero"/></clipPath><clipPath id="1b6cce6053"><path d="M 65 144 L 388 144 L 388 158 L 65 158 Z M 65 144 " clip-rule="nonzero"/></clipPath><clipPath id="c3d5de942f"><path d="M 57.382812 225 C 57.382812 276.964844 99.507812 319.089844 151.472656 319.089844 L 299.328125 319.089844 C 351.292969 319.089844 393.417969 276.964844 393.417969 225 C 393.417969 173.035156 351.292969 130.910156 299.328125 130.910156 L 151.472656 130.910156 C 99.507812 130.910156 57.382812 173.035156 57.382812 225 Z M 57.382812 225 " clip-rule="nonzero"/></clipPath><clipPath id="71d55c2dae"><path d="M 358 204 L 373 204 L 373 246 L 358 246 Z M 358 204 " clip-rule="nonzero"/></clipPath><clipPath id="51654c9abc"><path d="M 57.382812 225 C 57.382812 276.964844 99.507812 319.089844 151.472656 319.089844 L 299.328125 319.089844 C 351.292969 319.089844 393.417969 276.964844 393.417969 225 C 393.417969 173.035156 351.292969 130.910156 299.328125 130.910156 L 151.472656 130.910156 C 99.507812 130.910156 57.382812 173.035156 57.382812 225 Z M 57.382812 225 " clip-rule="nonzero"/></clipPath><clipPath id="0cb93aefe2"><path d="M 308 204 L 322 204 L 322 246 L 308 246 Z M 308 204 " clip-rule="nonzero"/></clipPath><clipPath id="81a917a417"><path d="M 57.382812 225 C 57.382812 276.964844 99.507812 319.089844 151.472656 319.089844 L 299.328125 319.089844 C 351.292969 319.089844 393.417969 276.964844 393.417969 225 C 393.417969 173.035156 351.292969 130.910156 299.328125 130.910156 L 151.472656 130.910156 C 99.507812 130.910156 57.382812 173.035156 57.382812 225 Z M 57.382812 225 " clip-rule="nonzero"/></clipPath><clipPath id="3c3c32d668"><path d="M 257 204 L 271 204 L 271 246 L 257 246 Z M 257 204 " clip-rule="nonzero"/></clipPath><clipPath id="61b133c523"><path d="M 57.382812 225 C 57.382812 276.964844 99.507812 319.089844 151.472656 319.089844 L 299.328125 319.089844 C 351.292969 319.089844 393.417969 276.964844 393.417969 225 C 393.417969 173.035156 351.292969 130.910156 299.328125 130.910156 L 151.472656 130.910156 C 99.507812 130.910156 57.382812 173.035156 57.382812 225 Z M 57.382812 225 " clip-rule="nonzero"/></clipPath><clipPath id="c5bc9169df"><path d="M 206 204 L 220 204 L 220 246 L 206 246 Z M 206 204 " clip-rule="nonzero"/></clipPath><clipPath id="86d5cb3fbd"><path d="M 57.382812 225 C 57.382812 276.964844 99.507812 319.089844 151.472656 319.089844 L 299.328125 319.089844 C 351.292969 319.089844 393.417969 276.964844 393.417969 225 C 393.417969 173.035156 351.292969 130.910156 299.328125 130.910156 L 151.472656 130.910156 C 99.507812 130.910156 57.382812 173.035156 57.382812 225 Z M 57.382812 225 " clip-rule="nonzero"/></clipPath><clipPath id="aa162eb65e"><path d="M 155 204 L 169 204 L 169 246 L 155 246 Z M 155 204 " clip-rule="nonzero"/></clipPath><clipPath id="3a1804b926"><path d="M 57.382812 225 C 57.382812 276.964844 99.507812 319.089844 151.472656 319.089844 L 299.328125 319.089844 C 351.292969 319.089844 393.417969 276.964844 393.417969 225 C 393.417969 173.035156 351.292969 130.910156 299.328125 130.910156 L 151.472656 130.910156 C 99.507812 130.910156 57.382812 173.035156 57.382812 225 Z M 57.382812 225 " clip-rule="nonzero"/></clipPath><clipPath id="b126e1430a"><path d="M 104 204 L 118 204 L 118 246 L 104 246 Z M 104 204 " clip-rule="nonzero"/></clipPath><clipPath id="f9a55859d9"><path d="M 57.382812 225 C 57.382812 276.964844 99.507812 319.089844 151.472656 319.089844 L 299.328125 319.089844 C 351.292969 319.089844 393.417969 276.964844 393.417969 225 C 393.417969 173.035156 351.292969 130.910156 299.328125 130.910156 L 151.472656 130.910156 C 99.507812 130.910156 57.382812 173.035156 57.382812 225 Z M 57.382812 225 " clip-rule="nonzero"/></clipPath><clipPath id="bae03b0c2b"><path d="M 102 74.238281 L 348 74.238281 L 348 365.988281 L 102 365.988281 Z M 102 74.238281 " clip-rule="nonzero"/></clipPath><clipPath id="4a818b5200"><path d="M 99.867188 199.371094 L 99.867188 241.109375 C 99.867188 274.296875 113.050781 306.125 136.515625 329.59375 C 159.984375 353.0625 191.8125 366.246094 225 366.246094 C 258.1875 366.246094 290.015625 353.0625 313.484375 329.59375 C 336.949219 306.125 350.132812 274.296875 350.132812 241.109375 L 350.132812 199.371094 C 350.132812 166.183594 336.949219 134.355469 313.484375 110.886719 C 290.015625 87.421875 258.1875 74.238281 225 74.238281 C 191.8125 74.238281 159.984375 87.421875 136.515625 110.886719 C 113.050781 134.355469 99.867188 166.183594 99.867188 199.371094 Z M 99.867188 199.371094 " clip-rule="nonzero"/></clipPath><clipPath id="86e44626fc"><path d="M 172 236 L 223 236 L 223 304 L 172 304 Z M 172 236 " clip-rule="nonzero"/></clipPath><clipPath id="26bc3b996c"><path d="M 99.867188 199.371094 L 99.867188 241.109375 C 99.867188 274.296875 113.050781 306.125 136.515625 329.59375 C 159.984375 353.0625 191.8125 366.246094 225 366.246094 C 258.1875 366.246094 290.015625 353.0625 313.484375 329.59375 C 336.949219 306.125 350.132812 274.296875 350.132812 241.109375 L 350.132812 199.371094 C 350.132812 166.183594 336.949219 134.355469 313.484375 110.886719 C 290.015625 87.421875 258.1875 74.238281 225 74.238281 C 191.8125 74.238281 159.984375 87.421875 136.515625 110.886719 C 113.050781 134.355469 99.867188 166.183594 99.867188 199.371094 Z M 99.867188 199.371094 " clip-rule="nonzero"/></clipPath><clipPath id="88d316a908"><path d="M 222 236 L 281 236 L 281 304 L 222 304 Z M 222 236 " clip-rule="nonzero"/></clipPath><clipPath id="38ce0e45d4"><path d="M 99.867188 199.371094 L 99.867188 241.109375 C 99.867188 274.296875 113.050781 306.125 136.515625 329.59375 C 159.984375 353.0625 191.8125 366.246094 225 366.246094 C 258.1875 366.246094 290.015625 353.0625 313.484375 329.59375 C 336.949219 306.125 350.132812 274.296875 350.132812 241.109375 L 350.132812 199.371094 C 350.132812 166.183594 336.949219 134.355469 313.484375 110.886719 C 290.015625 87.421875 258.1875 74.238281 225 74.238281 C 191.8125 74.238281 159.984375 87.421875 136.515625 110.886719 C 113.050781 134.355469 99.867188 166.183594 99.867188 199.371094 Z M 99.867188 199.371094 " clip-rule="nonzero"/></clipPath><clipPath id="4de979b7c5"><path d="M 0 0.199219 L 450 0.199219 L 450 437.800781 L 0 437.800781 Z M 0 0.199219 " clip-rule="nonzero"/></clipPath><clipPath id="0872a9aab0"><path d="M 449.933594 56.441406 L 449.933594 381.558594 C 449.933594 412.621094 424.75 437.800781 393.691406 437.800781 L 56.242188 437.800781 C 25.179688 437.800781 0 412.621094 0 381.558594 L 0 56.441406 C 0 25.378906 25.179688 0.199219 56.242188 0.199219 L 393.691406 0.199219 C 424.75 0.199219 449.933594 25.378906 449.933594 56.441406 Z M 449.933594 56.441406 " clip-rule="nonzero"/></clipPath><clipPath id="302eac4ea0"><path d="M 0 0.199219 L 450 0.199219 L 450 437.800781 L 0 437.800781 Z M 0 0.199219 " clip-rule="nonzero"/></clipPath><clipPath id="025efba616"><path d="M 449.933594 56.441406 L 449.933594 381.558594 C 449.933594 412.621094 424.75 437.800781 393.691406 437.800781 L 56.242188 437.800781 C 25.179688 437.800781 0 412.621094 0 381.558594 L 0 56.441406 C 0 25.378906 25.179688 0.199219 56.242188 0.199219 L 393.691406 0.199219 C 424.75 0.199219 449.933594 25.378906 449.933594 56.441406 Z M 449.933594 56.441406 " clip-rule="nonzero"/></clipPath><clipPath id="0afe93015c"><rect x="0" width="450" y="0" height="438"/></clipPath><clipPath id="59ee5fe6a2"><path d="M 93.230469 87.230469 L 357 87.230469 L 357 351 L 93.230469 351 Z M 93.230469 87.230469 " clip-rule="nonzero"/></clipPath><clipPath id="e6e4a2b051"><path d="M 93.230469 143.480469 L 93.230469 294.519531 C 93.230469 309.4375 99.160156 323.742188 109.707031 334.292969 C 120.257812 344.839844 134.5625 350.769531 149.480469 350.769531 L 300.519531 350.769531 C 315.4375 350.769531 329.742188 344.839844 340.292969 334.292969 C 350.839844 323.742188 356.769531 309.4375 356.769531 294.519531 L 356.769531 143.480469 C 356.769531 128.5625 350.839844 114.257812 340.292969 103.707031 C 329.742188 93.160156 315.4375 87.230469 300.519531 87.230469 L 149.480469 87.230469 C 134.5625 87.230469 120.257812 93.160156 109.707031 103.707031 C 99.160156 114.257812 93.230469 128.5625 93.230469 143.480469 Z M 93.230469 143.480469 " clip-rule="nonzero"/></clipPath><clipPath id="63a28ad3ed"><path d="M 212 159 L 271 159 L 271 265 L 212 265 Z M 212 159 " clip-rule="nonzero"/></clipPath><clipPath id="fdc29624f0"><path d="M 93.230469 143.480469 L 93.230469 294.519531 C 93.230469 309.4375 99.160156 323.742188 109.707031 334.292969 C 120.257812 344.839844 134.5625 350.769531 149.480469 350.769531 L 300.519531 350.769531 C 315.4375 350.769531 329.742188 344.839844 340.292969 334.292969 C 350.839844 323.742188 356.769531 309.4375 356.769531 294.519531 L 356.769531 143.480469 C 356.769531 128.5625 350.839844 114.257812 340.292969 103.707031 C 329.742188 93.160156 315.4375 87.230469 300.519531 87.230469 L 149.480469 87.230469 C 134.5625 87.230469 120.257812 93.160156 109.707031 103.707031 C 99.160156 114.257812 93.230469 128.5625 93.230469 143.480469 Z M 93.230469 143.480469 " clip-rule="nonzero"/></clipPath><clipPath id="3dab71877e"><rect x="0" width="450" y="0" height="438"/></clipPath></defs><path fill="#ff914d" d="M 380.058594 200.023438 C 347.386719 202.175781 258.429688 188.113281 250.457031 208.632812 C 246.789062 218.121094 250.515625 228.121094 259.703125 230.941406 C 264.609375 232.457031 278.402344 232.089844 283.980469 232.152344 C 314.804688 232.484375 344.75 233.726562 371.332031 233.304688 C 395.457031 232.910156 407.335938 229.820312 407.761719 211.816406 C 408.246094 202.207031 393.789062 199.023438 380.058594 200.023438 " fill-opacity="1" fill-rule="nonzero"/><path fill="#ff914d" d="M 138.191406 267.160156 C 136.34375 234.457031 151.285156 145.648438 130.828125 137.464844 C 121.371094 133.707031 111.335938 137.34375 108.425781 146.46875 C 106.882812 151.378906 107.09375 165.167969 106.972656 170.746094 C 106.367188 201.570312 104.820312 231.484375 104.972656 258.066406 C 105.125 282.191406 108.09375 294.136719 126.097656 294.679688 C 135.765625 295.285156 139.070312 280.890625 138.191406 267.160156 " fill-opacity="1" fill-rule="nonzero"/><path fill="#ff914d" d="M 175.015625 193.082031 C 142.34375 195.234375 53.386719 181.171875 45.414062 201.691406 C 41.746094 211.179688 45.476562 221.179688 54.660156 224 C 59.570312 225.515625 73.359375 225.152344 78.9375 225.210938 C 109.761719 225.546875 139.707031 226.789062 166.289062 226.363281 C 190.414062 225.96875 202.296875 222.878906 202.71875 204.875 C 203.203125 195.234375 188.746094 192.082031 175.015625 193.082031 " fill-opacity="1" fill-rule="nonzero"/><g clip-path="url(#9d422f895e)"><g clip-path="url(#9da5497092)"><path fill="#ffe7c2" d="M 81.671875 283.007812 C 106.199219 256.78125 187.933594 201.304688 178.894531 178.902344 C 174.707031 168.566406 164.203125 163.347656 154.796875 167.96875 C 149.742188 170.460938 138.972656 181.097656 134.453125 185.183594 C 109.558594 208.054688 84.660156 229.492188 63.722656 249.769531 C 44.707031 268.183594 37.53125 279.582031 50.691406 294.273438 C 57.539062 302.417969 71.464844 294.109375 81.671875 283.007812 " fill-opacity="1" fill-rule="nonzero"/></g></g><g clip-path="url(#99508521b5)"><g clip-path="url(#b637c192b2)"><path fill="#ffe7c2" d="M 168.324219 256.117188 C 141.867188 231.851562 85.625 150.648438 63.289062 159.890625 C 52.984375 164.179688 47.867188 174.714844 52.585938 184.121094 C 55.113281 189.175781 65.847656 199.84375 70.003906 204.296875 C 93.105469 228.960938 114.777344 253.65625 135.285156 274.429688 C 153.898438 293.277344 165.332031 300.355469 179.890625 287.027344 C 187.96875 280.082031 179.492188 266.222656 168.324219 256.117188 " fill-opacity="1" fill-rule="nonzero"/></g></g><g clip-path="url(#86abc99750)"><g clip-path="url(#d53cd6ea30)"><path fill="#ffe7c2" d="M 395.046875 211.542969 C 359.214844 213.902344 261.65625 198.480469 252.917969 220.984375 C 248.894531 231.386719 252.984375 242.355469 263.054688 245.445312 C 268.4375 247.109375 283.5625 246.710938 289.679688 246.777344 C 323.480469 247.140625 356.320312 248.503906 385.472656 248.039062 C 411.929688 247.609375 424.960938 244.21875 425.425781 224.472656 C 425.957031 213.902344 410.101562 210.445312 395.046875 211.542969 " fill-opacity="1" fill-rule="nonzero"/></g></g><g clip-path="url(#260072bbd8)"><g clip-path="url(#34a75855de)"><path fill="#ffe7c2" d="M 359.113281 156 C 342.195312 133.996094 310.917969 157.230469 322.417969 180.53125 C 326.207031 188.210938 337.640625 189.90625 344.390625 189.109375 C 359.28125 187.414062 368.917969 169.265625 359.113281 156 Z M 359.113281 156 " fill-opacity="1" fill-rule="nonzero"/></g></g><g clip-path="url(#f9c7d598ad)"><g clip-path="url(#5d3f89c930)"><path fill="#ffe7c2" d="M 357.019531 276.257812 C 340.101562 254.253906 308.824219 277.488281 320.324219 300.789062 C 324.113281 308.46875 335.546875 310.164062 342.296875 309.363281 C 357.1875 307.667969 366.824219 289.523438 357.019531 276.257812 Z M 357.019531 276.257812 " fill-opacity="1" fill-rule="nonzero"/></g></g><g clip-path="url(#f8dda2830d)"><g clip-path="url(#b13cc90a41)"><path fill="#ffbd59" d="M 368.433594 -22.671875 L 86.347656 -22.671875 C 85.066406 -22.671875 83.785156 -22.640625 82.503906 -22.574219 C 81.222656 -22.511719 79.945312 -22.417969 78.667969 -22.292969 C 77.390625 -22.167969 76.121094 -22.011719 74.851562 -21.824219 C 73.582031 -21.632812 72.320312 -21.414062 71.0625 -21.164062 C 69.804688 -20.914062 68.554688 -20.632812 67.308594 -20.320312 C 66.066406 -20.011719 64.832031 -19.667969 63.601562 -19.296875 C 62.375 -18.925781 61.160156 -18.523438 59.949219 -18.089844 C 58.742188 -17.65625 57.546875 -17.195312 56.363281 -16.707031 C 55.179688 -16.214844 54.007812 -15.695312 52.847656 -15.148438 C 51.6875 -14.597656 50.542969 -14.023438 49.410156 -13.417969 C 48.28125 -12.8125 47.164062 -12.183594 46.066406 -11.523438 C 44.964844 -10.863281 43.882812 -10.175781 42.816406 -9.464844 C 41.75 -8.753906 40.703125 -8.015625 39.671875 -7.25 C 38.640625 -6.488281 37.632812 -5.699219 36.640625 -4.882812 C 35.648438 -4.070312 34.679688 -3.234375 33.726562 -2.371094 C 32.777344 -1.511719 31.847656 -0.628906 30.941406 0.28125 C 30.035156 1.1875 29.152344 2.113281 28.289062 3.066406 C 27.429688 4.015625 26.589844 4.984375 25.777344 5.976562 C 24.964844 6.96875 24.175781 7.980469 23.410156 9.007812 C 22.648438 10.039062 21.910156 11.085938 21.199219 12.152344 C 20.484375 13.21875 19.800781 14.304688 19.140625 15.402344 C 18.480469 16.503906 17.847656 17.617188 17.246094 18.75 C 16.640625 19.878906 16.0625 21.023438 15.515625 22.183594 C 14.96875 23.34375 14.449219 24.515625 13.957031 25.699219 C 13.464844 26.886719 13.003906 28.082031 12.574219 29.289062 C 12.140625 30.496094 11.738281 31.714844 11.367188 32.941406 C 10.992188 34.167969 10.652344 35.402344 10.339844 36.648438 C 10.027344 37.890625 9.746094 39.140625 9.496094 40.398438 C 9.246094 41.65625 9.027344 42.921875 8.839844 44.1875 C 8.652344 45.457031 8.496094 46.730469 8.371094 48.007812 C 8.242188 49.28125 8.148438 50.5625 8.085938 51.839844 C 8.023438 53.121094 7.992188 54.402344 7.992188 55.6875 L 7.992188 337.769531 C 7.992188 339.050781 8.023438 340.332031 8.085938 341.613281 C 8.148438 342.894531 8.242188 344.175781 8.371094 345.449219 C 8.496094 346.726562 8.652344 348 8.839844 349.265625 C 9.027344 350.535156 9.246094 351.796875 9.496094 353.054688 C 9.746094 354.3125 10.027344 355.566406 10.339844 356.808594 C 10.652344 358.054688 10.992188 359.289062 11.367188 360.515625 C 11.738281 361.742188 12.140625 362.960938 12.574219 364.167969 C 13.003906 365.375 13.464844 366.570312 13.957031 367.753906 C 14.449219 368.941406 14.96875 370.113281 15.515625 371.273438 C 16.0625 372.429688 16.640625 373.574219 17.246094 374.707031 C 17.847656 375.835938 18.480469 376.953125 19.140625 378.054688 C 19.800781 379.152344 20.484375 380.234375 21.199219 381.300781 C 21.910156 382.367188 22.648438 383.417969 23.410156 384.445312 C 24.175781 385.476562 24.964844 386.488281 25.777344 387.480469 C 26.589844 388.46875 27.429688 389.441406 28.289062 390.390625 C 29.152344 391.339844 30.035156 392.269531 30.941406 393.175781 C 31.847656 394.082031 32.777344 394.96875 33.726562 395.828125 C 34.679688 396.6875 35.648438 397.527344 36.640625 398.339844 C 37.632812 399.152344 38.640625 399.941406 39.671875 400.707031 C 40.703125 401.46875 41.75 402.207031 42.816406 402.921875 C 43.882812 403.632812 44.964844 404.320312 46.066406 404.976562 C 47.164062 405.636719 48.28125 406.269531 49.410156 406.875 C 50.542969 407.480469 51.6875 408.054688 52.847656 408.601562 C 54.007812 409.152344 55.179688 409.671875 56.363281 410.160156 C 57.546875 410.652344 58.742188 411.113281 59.949219 411.546875 C 61.160156 411.976562 62.375 412.378906 63.601562 412.753906 C 64.832031 413.125 66.066406 413.464844 67.308594 413.777344 C 68.554688 414.089844 69.804688 414.371094 71.0625 414.621094 C 72.320312 414.871094 73.582031 415.089844 74.851562 415.277344 C 76.121094 415.464844 77.390625 415.625 78.667969 415.75 C 79.945312 415.875 81.222656 415.96875 82.503906 416.03125 C 83.785156 416.09375 85.066406 416.125 86.347656 416.125 L 368.433594 416.125 C 369.714844 416.125 370.996094 416.09375 372.277344 416.03125 C 373.558594 415.96875 374.835938 415.875 376.113281 415.75 C 377.390625 415.625 378.660156 415.464844 379.929688 415.277344 C 381.199219 415.089844 382.460938 414.871094 383.71875 414.621094 C 384.976562 414.371094 386.226562 414.089844 387.472656 413.777344 C 388.714844 413.464844 389.949219 413.125 391.179688 412.753906 C 392.40625 412.378906 393.621094 411.976562 394.828125 411.546875 C 396.039062 411.113281 397.234375 410.652344 398.417969 410.160156 C 399.601562 409.671875 400.773438 409.152344 401.933594 408.601562 C 403.09375 408.054688 404.238281 407.480469 405.371094 406.875 C 406.5 406.269531 407.617188 405.636719 408.714844 404.976562 C 409.816406 404.320312 410.898438 403.632812 411.964844 402.921875 C 413.03125 402.207031 414.078125 401.46875 415.109375 400.707031 C 416.140625 399.941406 417.148438 399.152344 418.140625 398.339844 C 419.132812 397.527344 420.101562 396.6875 421.054688 395.828125 C 422.003906 394.96875 422.933594 394.082031 423.839844 393.175781 C 424.746094 392.269531 425.628906 391.339844 426.492188 390.390625 C 427.351562 389.441406 428.1875 388.46875 429.003906 387.480469 C 429.816406 386.488281 430.605469 385.476562 431.367188 384.445312 C 432.132812 383.417969 432.871094 382.367188 433.582031 381.300781 C 434.296875 380.234375 434.980469 379.152344 435.640625 378.054688 C 436.300781 376.953125 436.933594 375.835938 437.535156 374.707031 C 438.140625 373.574219 438.71875 372.429688 439.265625 371.273438 C 439.8125 370.113281 440.332031 368.941406 440.824219 367.753906 C 441.316406 366.570312 441.777344 365.375 442.207031 364.167969 C 442.640625 362.960938 443.042969 361.742188 443.414062 360.515625 C 443.789062 359.289062 444.128906 358.054688 444.441406 356.808594 C 444.753906 355.566406 445.03125 354.3125 445.285156 353.054688 C 445.535156 351.796875 445.753906 350.535156 445.941406 349.265625 C 446.128906 348 446.285156 346.726562 446.410156 345.449219 C 446.539062 344.175781 446.632812 342.894531 446.695312 341.613281 C 446.757812 340.332031 446.789062 339.050781 446.789062 337.769531 L 446.789062 55.6875 C 446.789062 54.402344 446.757812 53.121094 446.695312 51.839844 C 446.632812 50.5625 446.539062 49.28125 446.410156 48.007812 C 446.285156 46.730469 446.128906 45.457031 445.941406 44.1875 C 445.753906 42.921875 445.535156 41.65625 445.285156 40.398438 C 445.03125 39.140625 444.753906 37.890625 444.441406 36.648438 C 444.128906 35.402344 443.785156 34.167969 443.414062 32.941406 C 443.042969 31.714844 442.640625 30.496094 442.207031 29.289062 C 441.777344 28.082031 441.316406 26.886719 440.824219 25.699219 C 440.332031 24.515625 439.8125 23.34375 439.265625 22.183594 C 438.71875 21.023438 438.140625 19.878906 437.535156 18.75 C 436.933594 17.617188 436.300781 16.503906 435.640625 15.402344 C 434.980469 14.304688 434.296875 13.21875 433.582031 12.152344 C 432.871094 11.085938 432.132812 10.039062 431.367188 9.007812 C 430.605469 7.980469 429.816406 6.96875 429.003906 5.976562 C 428.1875 4.984375 427.351562 4.015625 426.492188 3.066406 C 425.628906 2.113281 424.746094 1.1875 423.839844 0.28125 C 422.933594 -0.628906 422.003906 -1.511719 421.054688 -2.371094 C 420.101562 -3.234375 419.132812 -4.070312 418.140625 -4.882812 C 417.148438 -5.699219 416.140625 -6.488281 415.109375 -7.25 C 414.078125 -8.015625 413.03125 -8.753906 411.964844 -9.464844 C 410.898438 -10.175781 409.816406 -10.863281 408.714844 -11.523438 C 407.617188 -12.183594 406.5 -12.8125 405.371094 -13.417969 C 404.238281 -14.023438 403.09375 -14.597656 401.933594 -15.148438 C 400.773438 -15.695312 399.601562 -16.214844 398.417969 -16.707031 C 397.234375 -17.195312 396.039062 -17.65625 394.828125 -18.089844 C 393.621094 -18.523438 392.40625 -18.925781 391.179688 -19.296875 C 389.949219 -19.667969 388.714844 -20.011719 387.472656 -20.320312 C 386.226562 -20.632812 384.976562 -20.914062 383.71875 -21.164062 C 382.460938 -21.414062 381.199219 -21.632812 379.929688 -21.824219 C 378.660156 -22.011719 377.390625 -22.167969 376.113281 -22.292969 C 374.835938 -22.417969 373.558594 -22.511719 372.277344 -22.574219 C 370.996094 -22.640625 369.714844 -22.671875 368.433594 -22.671875 Z M 415.445312 337.769531 C 415.445312 339.308594 415.371094 340.84375 415.21875 342.378906 C 415.070312 343.910156 414.84375 345.433594 414.542969 346.941406 C 414.242188 348.453125 413.867188 349.945312 413.421875 351.417969 C 412.976562 352.890625 412.457031 354.339844 411.867188 355.761719 C 411.277344 357.183594 410.621094 358.574219 409.894531 359.933594 C 409.167969 361.289062 408.378906 362.609375 407.523438 363.890625 C 406.667969 365.167969 405.75 366.40625 404.773438 367.59375 C 403.796875 368.785156 402.765625 369.925781 401.675781 371.015625 C 400.585938 372.101562 399.449219 373.136719 398.257812 374.113281 C 397.066406 375.089844 395.832031 376.003906 394.550781 376.859375 C 393.273438 377.714844 391.953125 378.507812 390.59375 379.234375 C 389.238281 379.957031 387.847656 380.617188 386.421875 381.203125 C 385 381.792969 383.554688 382.3125 382.078125 382.757812 C 380.605469 383.207031 379.113281 383.578125 377.605469 383.878906 C 376.09375 384.179688 374.574219 384.40625 373.039062 384.558594 C 371.507812 384.707031 369.972656 384.785156 368.433594 384.785156 L 86.347656 384.785156 C 84.808594 384.785156 83.273438 384.707031 81.742188 384.558594 C 80.207031 384.40625 78.6875 384.179688 77.175781 383.878906 C 75.667969 383.578125 74.175781 383.207031 72.703125 382.757812 C 71.226562 382.3125 69.78125 381.792969 68.355469 381.203125 C 66.933594 380.617188 65.542969 379.957031 64.1875 379.234375 C 62.828125 378.507812 61.507812 377.714844 60.230469 376.859375 C 58.949219 376.003906 57.714844 375.089844 56.523438 374.113281 C 55.332031 373.136719 54.195312 372.101562 53.105469 371.015625 C 52.015625 369.925781 50.984375 368.785156 50.007812 367.59375 C 49.03125 366.40625 48.113281 365.167969 47.257812 363.890625 C 46.402344 362.609375 45.613281 361.289062 44.886719 359.933594 C 44.160156 358.574219 43.503906 357.183594 42.914062 355.761719 C 42.324219 354.339844 41.804688 352.890625 41.359375 351.417969 C 40.914062 349.945312 40.539062 348.453125 40.238281 346.941406 C 39.9375 345.429688 39.710938 343.910156 39.5625 342.378906 C 39.410156 340.84375 39.335938 339.308594 39.335938 337.769531 L 39.335938 55.6875 C 39.335938 54.144531 39.410156 52.609375 39.5625 51.078125 C 39.710938 49.546875 39.9375 48.023438 40.238281 46.515625 C 40.539062 45.003906 40.914062 43.511719 41.359375 42.039062 C 41.804688 40.566406 42.324219 39.117188 42.914062 37.695312 C 43.503906 36.273438 44.160156 34.882812 44.886719 33.523438 C 45.613281 32.164062 46.402344 30.847656 47.257812 29.566406 C 48.113281 28.285156 49.03125 27.050781 50.007812 25.859375 C 50.984375 24.671875 52.015625 23.53125 53.105469 22.441406 C 54.195312 21.351562 55.332031 20.320312 56.523438 19.34375 C 57.714844 18.367188 58.949219 17.449219 60.230469 16.59375 C 61.507812 15.738281 62.828125 14.949219 64.1875 14.222656 C 65.542969 13.496094 66.933594 12.839844 68.355469 12.25 C 69.78125 11.660156 71.226562 11.144531 72.703125 10.695312 C 74.175781 10.25 75.667969 9.875 77.175781 9.574219 C 78.6875 9.273438 80.207031 9.050781 81.742188 8.898438 C 83.273438 8.746094 84.808594 8.671875 86.347656 8.671875 L 368.433594 8.671875 C 369.972656 8.671875 371.507812 8.746094 373.039062 8.898438 C 374.574219 9.050781 376.09375 9.273438 377.605469 9.574219 C 379.113281 9.875 380.605469 10.25 382.078125 10.695312 C 383.554688 11.144531 385 11.660156 386.421875 12.25 C 387.847656 12.839844 389.238281 13.496094 390.59375 14.222656 C 391.953125 14.949219 393.273438 15.738281 394.550781 16.59375 C 395.832031 17.449219 397.066406 18.367188 398.257812 19.34375 C 399.449219 20.320312 400.585938 21.351562 401.675781 22.441406 C 402.765625 23.53125 403.796875 24.671875 404.773438 25.859375 C 405.75 27.050781 406.667969 28.285156 407.523438 29.566406 C 408.378906 30.847656 409.167969 32.164062 409.894531 33.523438 C 410.621094 34.882812 411.277344 36.273438 411.867188 37.695312 C 412.457031 39.117188 412.976562 40.566406 413.421875 42.039062 C 413.867188 43.511719 414.242188 45.003906 414.542969 46.515625 C 414.84375 48.023438 415.070312 49.546875 415.21875 51.078125 C 415.371094 52.609375 415.445312 54.144531 415.445312 55.6875 Z M 415.445312 337.769531 " fill-opacity="1" fill-rule="nonzero"/></g></g><g clip-path="url(#547be67a3a)"><g clip-path="url(#8a3a72b493)"><path fill="#ffbd59" d="M 193.539062 109.910156 L 107.035156 109.910156 C 106.003906 109.910156 104.988281 110.007812 103.976562 110.210938 C 102.96875 110.410156 101.988281 110.707031 101.039062 111.101562 C 100.085938 111.496094 99.183594 111.976562 98.328125 112.550781 C 97.472656 113.121094 96.679688 113.769531 95.953125 114.5 C 95.226562 115.226562 94.578125 116.019531 94.003906 116.875 C 93.433594 117.730469 92.949219 118.632812 92.554688 119.582031 C 92.164062 120.535156 91.867188 121.515625 91.664062 122.523438 C 91.464844 123.53125 91.363281 124.550781 91.363281 125.582031 C 91.363281 126.609375 91.464844 127.628906 91.664062 128.636719 C 91.867188 129.648438 92.164062 130.625 92.554688 131.578125 C 92.949219 132.527344 93.433594 133.429688 94.003906 134.285156 C 94.578125 135.140625 95.226562 135.933594 95.953125 136.660156 C 96.679688 137.390625 97.472656 138.039062 98.328125 138.609375 C 99.183594 139.183594 100.085938 139.664062 101.039062 140.058594 C 101.988281 140.453125 102.96875 140.75 103.976562 140.949219 C 104.988281 141.152344 106.003906 141.25 107.035156 141.25 L 193.539062 141.25 C 194.570312 141.25 195.589844 141.152344 196.597656 140.949219 C 197.605469 140.75 198.585938 140.453125 199.539062 140.058594 C 200.488281 139.664062 201.390625 139.183594 202.246094 138.609375 C 203.101562 138.039062 203.894531 137.390625 204.621094 136.660156 C 205.347656 135.933594 206 135.140625 206.570312 134.285156 C 207.140625 133.429688 207.625 132.527344 208.019531 131.578125 C 208.414062 130.625 208.710938 129.648438 208.910156 128.636719 C 209.113281 127.628906 209.210938 126.609375 209.210938 125.582031 C 209.210938 124.550781 209.113281 123.53125 208.910156 122.523438 C 208.710938 121.515625 208.414062 120.535156 208.019531 119.582031 C 207.625 118.632812 207.140625 117.730469 206.570312 116.875 C 206 116.019531 205.347656 115.226562 204.621094 114.5 C 203.894531 113.769531 203.101562 113.121094 202.246094 112.550781 C 201.390625 111.976562 200.488281 111.496094 199.539062 111.101562 C 198.585938 110.707031 197.605469 110.410156 196.597656 110.210938 C 195.589844 110.007812 194.570312 109.910156 193.539062 109.910156 Z M 193.539062 109.910156 " fill-opacity="1" fill-rule="nonzero"/></g></g><g clip-path="url(#7de678f7e6)"><g clip-path="url(#762280c612)"><path fill="#ffbd59" d="M 347.746094 109.910156 L 320.164062 109.910156 L 320.164062 82.328125 C 320.164062 81.296875 320.0625 80.28125 319.863281 79.269531 C 319.664062 78.261719 319.367188 77.28125 318.972656 76.332031 C 318.578125 75.378906 318.09375 74.476562 317.523438 73.621094 C 316.953125 72.765625 316.300781 71.972656 315.574219 71.246094 C 314.847656 70.519531 314.054688 69.867188 313.199219 69.296875 C 312.34375 68.726562 311.441406 68.242188 310.492188 67.847656 C 309.539062 67.457031 308.558594 67.15625 307.550781 66.957031 C 306.542969 66.757812 305.523438 66.65625 304.492188 66.65625 C 303.464844 66.65625 302.445312 66.757812 301.4375 66.957031 C 300.425781 67.15625 299.445312 67.457031 298.496094 67.847656 C 297.546875 68.242188 296.640625 68.726562 295.785156 69.296875 C 294.929688 69.867188 294.140625 70.519531 293.410156 71.246094 C 292.683594 71.972656 292.035156 72.765625 291.464844 73.621094 C 290.890625 74.476562 290.410156 75.378906 290.015625 76.332031 C 289.621094 77.28125 289.324219 78.261719 289.125 79.269531 C 288.921875 80.28125 288.820312 81.296875 288.820312 82.328125 L 288.820312 109.910156 L 261.242188 109.910156 C 260.210938 109.910156 259.191406 110.007812 258.183594 110.210938 C 257.175781 110.410156 256.195312 110.707031 255.242188 111.101562 C 254.292969 111.496094 253.390625 111.976562 252.535156 112.550781 C 251.679688 113.121094 250.886719 113.769531 250.160156 114.5 C 249.429688 115.226562 248.78125 116.019531 248.210938 116.875 C 247.636719 117.730469 247.15625 118.632812 246.761719 119.582031 C 246.367188 120.535156 246.070312 121.515625 245.871094 122.523438 C 245.667969 123.53125 245.570312 124.550781 245.570312 125.582031 C 245.570312 126.609375 245.667969 127.628906 245.871094 128.636719 C 246.070312 129.648438 246.367188 130.625 246.761719 131.578125 C 247.15625 132.527344 247.636719 133.429688 248.210938 134.285156 C 248.78125 135.140625 249.429688 135.933594 250.160156 136.660156 C 250.886719 137.390625 251.679688 138.039062 252.535156 138.609375 C 253.390625 139.183594 254.292969 139.664062 255.242188 140.058594 C 256.195312 140.453125 257.175781 140.75 258.183594 140.949219 C 259.191406 141.152344 260.210938 141.25 261.242188 141.25 L 288.820312 141.25 L 288.820312 168.675781 C 288.820312 169.707031 288.921875 170.722656 289.125 171.734375 C 289.324219 172.742188 289.621094 173.722656 290.015625 174.671875 C 290.410156 175.625 290.890625 176.527344 291.464844 177.382812 C 292.035156 178.238281 292.683594 179.03125 293.410156 179.757812 C 294.140625 180.484375 294.929688 181.136719 295.785156 181.707031 C 296.640625 182.277344 297.546875 182.761719 298.496094 183.15625 C 299.445312 183.546875 300.425781 183.847656 301.4375 184.046875 C 302.445312 184.246094 303.464844 184.347656 304.492188 184.347656 C 305.523438 184.347656 306.542969 184.246094 307.550781 184.046875 C 308.558594 183.847656 309.539062 183.546875 310.492188 183.15625 C 311.441406 182.761719 312.34375 182.277344 313.199219 181.707031 C 314.054688 181.136719 314.847656 180.484375 315.574219 179.757812 C 316.300781 179.03125 316.953125 178.238281 317.523438 177.382812 C 318.09375 176.527344 318.578125 175.625 318.972656 174.671875 C 319.367188 173.722656 319.664062 172.742188 319.863281 171.734375 C 320.0625 170.722656 320.164062 169.707031 320.164062 168.675781 L 320.164062 141.25 L 347.746094 141.25 C 348.773438 141.25 349.792969 141.152344 350.804688 140.949219 C 351.8125 140.75 352.792969 140.453125 353.742188 140.058594 C 354.695312 139.664062 355.597656 139.183594 356.453125 138.609375 C 357.308594 138.039062 358.101562 137.390625 358.828125 136.660156 C 359.554688 135.933594 360.203125 135.140625 360.777344 134.285156 C 361.347656 133.429688 361.832031 132.527344 362.222656 131.578125 C 362.617188 130.625 362.914062 129.648438 363.117188 128.636719 C 363.316406 127.628906 363.417969 126.609375 363.417969 125.582031 C 363.417969 124.550781 363.316406 123.53125 363.117188 122.523438 C 362.914062 121.515625 362.617188 120.535156 362.222656 119.582031 C 361.832031 118.632812 361.347656 117.730469 360.777344 116.875 C 360.203125 116.019531 359.554688 115.226562 358.828125 114.5 C 358.101562 113.769531 357.308594 113.121094 356.453125 112.550781 C 355.597656 111.976562 354.695312 111.496094 353.742188 111.101562 C 352.792969 110.707031 351.8125 110.410156 350.804688 110.210938 C 349.792969 110.007812 348.773438 109.910156 347.746094 109.910156 Z M 347.746094 109.910156 " fill-opacity="1" fill-rule="nonzero"/></g></g><g clip-path="url(#fac2ef4fc0)"><g clip-path="url(#37f3053da6)"><path fill="#ffbd59" d="M 191.972656 238.882812 C 191.609375 238.515625 191.230469 238.171875 190.832031 237.839844 C 190.433594 237.511719 190.019531 237.203125 189.59375 236.917969 C 189.164062 236.628906 188.722656 236.363281 188.269531 236.117188 C 187.816406 235.875 187.351562 235.652344 186.875 235.453125 C 186.398438 235.253906 185.914062 235.082031 185.417969 234.929688 C 184.925781 234.78125 184.425781 234.652344 183.917969 234.550781 C 183.414062 234.453125 182.902344 234.375 182.390625 234.324219 C 181.878906 234.273438 181.363281 234.25 180.847656 234.25 C 180.332031 234.25 179.816406 234.273438 179.300781 234.324219 C 178.789062 234.375 178.28125 234.453125 177.773438 234.550781 C 177.269531 234.652344 176.769531 234.78125 176.273438 234.929688 C 175.78125 235.082031 175.296875 235.253906 174.820312 235.453125 C 174.34375 235.652344 173.878906 235.875 173.425781 236.117188 C 172.96875 236.363281 172.527344 236.628906 172.101562 236.917969 C 171.671875 237.203125 171.257812 237.511719 170.863281 237.839844 C 170.464844 238.171875 170.082031 238.515625 169.71875 238.882812 L 150.289062 258.472656 L 130.699219 238.882812 C 129.972656 238.160156 129.179688 237.515625 128.328125 236.949219 C 127.472656 236.382812 126.574219 235.902344 125.625 235.511719 C 124.679688 235.121094 123.703125 234.824219 122.695312 234.625 C 121.691406 234.425781 120.675781 234.328125 119.648438 234.328125 C 118.625 234.328125 117.609375 234.425781 116.605469 234.625 C 115.597656 234.824219 114.621094 235.121094 113.675781 235.511719 C 112.726562 235.902344 111.828125 236.382812 110.972656 236.949219 C 110.121094 237.515625 109.328125 238.160156 108.601562 238.882812 C 108.234375 239.246094 107.886719 239.628906 107.558594 240.023438 C 107.230469 240.421875 106.921875 240.835938 106.632812 241.265625 C 106.347656 241.691406 106.082031 242.132812 105.835938 242.585938 C 105.589844 243.042969 105.371094 243.507812 105.171875 243.984375 C 104.972656 244.460938 104.796875 244.945312 104.648438 245.4375 C 104.496094 245.933594 104.371094 246.429688 104.269531 246.9375 C 104.167969 247.441406 104.09375 247.953125 104.042969 248.464844 C 103.992188 248.980469 103.964844 249.496094 103.964844 250.011719 C 103.964844 250.527344 103.992188 251.042969 104.042969 251.554688 C 104.09375 252.066406 104.167969 252.578125 104.269531 253.082031 C 104.371094 253.589844 104.496094 254.089844 104.648438 254.582031 C 104.796875 255.074219 104.972656 255.5625 105.171875 256.039062 C 105.371094 256.511719 105.589844 256.980469 105.835938 257.433594 C 106.082031 257.886719 106.347656 258.328125 106.632812 258.757812 C 106.921875 259.183594 107.230469 259.597656 107.558594 259.996094 C 107.886719 260.394531 108.234375 260.773438 108.601562 261.136719 L 128.035156 280.570312 L 108.601562 300.003906 C 108.234375 300.367188 107.886719 300.746094 107.558594 301.144531 C 107.230469 301.542969 106.921875 301.953125 106.632812 302.382812 C 106.347656 302.808594 106.082031 303.25 105.835938 303.707031 C 105.589844 304.160156 105.371094 304.625 105.171875 305.101562 C 104.972656 305.578125 104.796875 306.0625 104.648438 306.554688 C 104.496094 307.050781 104.371094 307.550781 104.269531 308.054688 C 104.167969 308.5625 104.09375 309.070312 104.042969 309.585938 C 103.992188 310.097656 103.964844 310.613281 103.964844 311.128906 C 103.964844 311.644531 103.992188 312.160156 104.042969 312.671875 C 104.09375 313.1875 104.167969 313.695312 104.269531 314.203125 C 104.371094 314.707031 104.496094 315.207031 104.648438 315.699219 C 104.796875 316.195312 104.972656 316.679688 105.171875 317.15625 C 105.371094 317.632812 105.589844 318.097656 105.835938 318.550781 C 106.082031 319.003906 106.347656 319.445312 106.632812 319.875 C 106.921875 320.304688 107.230469 320.714844 107.558594 321.113281 C 107.886719 321.511719 108.234375 321.890625 108.601562 322.253906 C 110.082031 323.722656 111.785156 324.847656 113.710938 325.636719 C 115.640625 326.425781 117.644531 326.8125 119.730469 326.800781 C 121.785156 326.792969 123.761719 326.394531 125.660156 325.605469 C 127.558594 324.820312 129.238281 323.703125 130.699219 322.253906 L 150.289062 302.824219 L 169.71875 322.097656 C 171.199219 323.566406 172.902344 324.691406 174.832031 325.480469 C 176.757812 326.265625 178.765625 326.65625 180.847656 326.644531 C 182.929688 326.65625 184.933594 326.265625 186.863281 325.480469 C 188.792969 324.691406 190.496094 323.566406 191.972656 322.097656 C 192.339844 321.734375 192.6875 321.355469 193.015625 320.957031 C 193.34375 320.558594 193.652344 320.148438 193.941406 319.71875 C 194.230469 319.289062 194.496094 318.847656 194.738281 318.394531 C 194.984375 317.941406 195.207031 317.476562 195.402344 317 C 195.601562 316.523438 195.777344 316.039062 195.925781 315.542969 C 196.078125 315.050781 196.203125 314.550781 196.304688 314.046875 C 196.40625 313.539062 196.480469 313.03125 196.53125 312.515625 C 196.582031 312.003906 196.609375 311.488281 196.609375 310.972656 C 196.609375 310.457031 196.582031 309.941406 196.53125 309.429688 C 196.480469 308.914062 196.40625 308.40625 196.304688 307.898438 C 196.203125 307.394531 196.078125 306.894531 195.925781 306.398438 C 195.777344 305.90625 195.601562 305.421875 195.402344 304.945312 C 195.207031 304.46875 194.984375 304.003906 194.738281 303.550781 C 194.496094 303.09375 194.230469 302.652344 193.941406 302.226562 C 193.652344 301.796875 193.34375 301.382812 193.015625 300.988281 C 192.6875 300.589844 192.339844 300.207031 191.972656 299.84375 L 172.382812 280.414062 L 191.972656 260.980469 C 192.695312 260.253906 193.339844 259.464844 193.910156 258.609375 C 194.476562 257.757812 194.957031 256.855469 195.347656 255.90625 C 195.738281 254.960938 196.03125 253.984375 196.230469 252.976562 C 196.429688 251.972656 196.53125 250.957031 196.53125 249.933594 C 196.53125 248.90625 196.429688 247.890625 196.230469 246.886719 C 196.03125 245.878906 195.738281 244.902344 195.347656 243.957031 C 194.957031 243.007812 194.476562 242.109375 193.910156 241.253906 C 193.339844 240.402344 192.695312 239.609375 191.972656 238.882812 Z M 191.972656 238.882812 " fill-opacity="1" fill-rule="nonzero"/></g></g><g clip-path="url(#5850fb907d)"><g clip-path="url(#f0a44587f9)"><path fill="#ffbd59" d="M 347.746094 233.867188 L 261.242188 233.867188 C 260.210938 233.867188 259.191406 233.96875 258.183594 234.171875 C 257.175781 234.371094 256.195312 234.667969 255.242188 235.0625 C 254.292969 235.457031 253.390625 235.9375 252.535156 236.511719 C 251.679688 237.082031 250.886719 237.730469 250.160156 238.460938 C 249.429688 239.1875 248.78125 239.976562 248.210938 240.832031 C 247.636719 241.6875 247.15625 242.59375 246.761719 243.542969 C 246.367188 244.492188 246.070312 245.472656 245.871094 246.484375 C 245.667969 247.492188 245.570312 248.511719 245.570312 249.539062 C 245.570312 250.570312 245.667969 251.589844 245.871094 252.597656 C 246.070312 253.605469 246.367188 254.585938 246.761719 255.539062 C 247.15625 256.488281 247.636719 257.390625 248.210938 258.246094 C 248.78125 259.101562 249.429688 259.894531 250.160156 260.621094 C 250.886719 261.347656 251.679688 262 252.535156 262.570312 C 253.390625 263.140625 254.292969 263.625 255.242188 264.019531 C 256.195312 264.414062 257.175781 264.710938 258.183594 264.910156 C 259.191406 265.109375 260.210938 265.210938 261.242188 265.210938 L 347.746094 265.210938 C 348.773438 265.210938 349.792969 265.109375 350.804688 264.910156 C 351.8125 264.710938 352.792969 264.414062 353.742188 264.019531 C 354.695312 263.625 355.597656 263.140625 356.453125 262.570312 C 357.308594 262 358.101562 261.347656 358.828125 260.621094 C 359.554688 259.894531 360.203125 259.101562 360.777344 258.246094 C 361.347656 257.390625 361.832031 256.488281 362.222656 255.539062 C 362.617188 254.585938 362.914062 253.605469 363.117188 252.597656 C 363.316406 251.589844 363.417969 250.570312 363.417969 249.539062 C 363.417969 248.511719 363.316406 247.492188 363.117188 246.484375 C 362.914062 245.472656 362.617188 244.492188 362.222656 243.542969 C 361.832031 242.59375 361.347656 241.6875 360.777344 240.832031 C 360.203125 239.976562 359.554688 239.1875 358.828125 238.460938 C 358.101562 237.730469 357.308594 237.082031 356.453125 236.511719 C 355.597656 235.9375 354.695312 235.457031 353.742188 235.0625 C 352.792969 234.667969 351.8125 234.371094 350.804688 234.171875 C 349.792969 233.96875 348.773438 233.867188 347.746094 233.867188 Z M 347.746094 233.867188 " fill-opacity="1" fill-rule="nonzero"/></g></g><g clip-path="url(#28ddb61e82)"><g clip-path="url(#71cd349a3e)"><path fill="#ffbd59" d="M 347.746094 289.816406 L 261.242188 289.816406 C 260.210938 289.816406 259.191406 289.914062 258.183594 290.117188 C 257.175781 290.316406 256.195312 290.613281 255.242188 291.007812 C 254.292969 291.402344 253.390625 291.886719 252.535156 292.457031 C 251.679688 293.027344 250.886719 293.679688 250.160156 294.40625 C 249.429688 295.132812 248.78125 295.925781 248.210938 296.78125 C 247.636719 297.636719 247.15625 298.539062 246.761719 299.488281 C 246.367188 300.441406 246.070312 301.421875 245.871094 302.429688 C 245.667969 303.4375 245.570312 304.457031 245.570312 305.488281 C 245.570312 306.515625 245.667969 307.535156 245.871094 308.542969 C 246.070312 309.554688 246.367188 310.535156 246.761719 311.484375 C 247.15625 312.433594 247.636719 313.335938 248.210938 314.195312 C 248.78125 315.050781 249.429688 315.839844 250.160156 316.566406 C 250.886719 317.296875 251.679688 317.945312 252.535156 318.515625 C 253.390625 319.089844 254.292969 319.570312 255.242188 319.964844 C 256.195312 320.359375 257.175781 320.65625 258.183594 320.855469 C 259.191406 321.058594 260.210938 321.160156 261.242188 321.160156 L 347.746094 321.160156 C 348.773438 321.160156 349.792969 321.058594 350.804688 320.855469 C 351.8125 320.65625 352.792969 320.359375 353.742188 319.964844 C 354.695312 319.570312 355.597656 319.089844 356.453125 318.515625 C 357.308594 317.945312 358.101562 317.296875 358.828125 316.566406 C 359.554688 315.839844 360.203125 315.050781 360.777344 314.195312 C 361.347656 313.335938 361.832031 312.433594 362.222656 311.484375 C 362.617188 310.535156 362.914062 309.554688 363.117188 308.542969 C 363.316406 307.535156 363.417969 306.515625 363.417969 305.488281 C 363.417969 304.457031 363.316406 303.4375 363.117188 302.429688 C 362.914062 301.421875 362.617188 300.441406 362.222656 299.488281 C 361.832031 298.539062 361.347656 297.636719 360.777344 296.78125 C 360.203125 295.925781 359.554688 295.132812 358.828125 294.40625 C 358.101562 293.679688 357.308594 293.027344 356.453125 292.457031 C 355.597656 291.886719 354.695312 291.402344 353.742188 291.007812 C 352.792969 290.613281 351.8125 290.316406 350.804688 290.117188 C 349.792969 289.914062 348.773438 289.816406 347.746094 289.816406 Z M 347.746094 289.816406 " fill-opacity="1" fill-rule="nonzero"/></g></g><g clip-path="url(#b3ec01dfe5)"><g clip-path="url(#5659b3760f)"><path fill="#c2dcff" d="M 386.695312 198.144531 L 64.101562 198.144531 L 57.382812 204.863281 L 57.382812 312.515625 L 64.101562 319.238281 L 386.695312 319.238281 L 393.417969 312.515625 L 393.417969 204.863281 Z M 70.824219 211.585938 L 70.824219 305.796875 L 379.976562 305.796875 L 379.976562 211.585938 Z M 70.824219 211.585938 " fill-opacity="1" fill-rule="evenodd"/></g></g><g clip-path="url(#43a603b0dd)"><g clip-path="url(#612878e6fa)"><path fill="#c2dcff" d="M 332.097656 204.863281 L 345.539062 204.863281 L 345.539062 225.105469 L 332.097656 225.105469 Z M 332.097656 204.863281 " fill-opacity="1" fill-rule="evenodd"/></g></g><g clip-path="url(#32bf170bae)"><g clip-path="url(#48a917a00b)"><path fill="#c2dcff" d="M 281.179688 204.863281 L 294.621094 204.863281 L 294.621094 225.105469 L 281.179688 225.105469 Z M 281.179688 204.863281 " fill-opacity="1" fill-rule="evenodd"/></g></g><g clip-path="url(#bc9d642e74)"><g clip-path="url(#5b6e82a4d9)"><path fill="#c2dcff" d="M 230.277344 204.863281 L 243.71875 204.863281 L 243.71875 225.105469 L 230.277344 225.105469 Z M 230.277344 204.863281 " fill-opacity="1" fill-rule="evenodd"/></g></g><g clip-path="url(#4af33903bc)"><g clip-path="url(#35c35ec5d3)"><path fill="#c2dcff" d="M 179.363281 204.863281 L 192.804688 204.863281 L 192.804688 225.105469 L 179.363281 225.105469 Z M 179.363281 204.863281 " fill-opacity="1" fill-rule="evenodd"/></g></g><g clip-path="url(#76f0e00f08)"><g clip-path="url(#f4f60fa967)"><path fill="#c2dcff" d="M 128.445312 204.863281 L 141.886719 204.863281 L 141.886719 225.105469 L 128.445312 225.105469 Z M 128.445312 204.863281 " fill-opacity="1" fill-rule="evenodd"/></g></g><g clip-path="url(#0299076f57)"><g clip-path="url(#cb27e6fc4b)"><path fill="#c2dcff" d="M 77.542969 204.863281 L 90.984375 204.863281 L 90.984375 225.105469 L 77.542969 225.105469 Z M 77.542969 204.863281 " fill-opacity="1" fill-rule="evenodd"/></g></g><g clip-path="url(#9ead0dd74b)"><g clip-path="url(#f7a4bd857e)"><path fill="#c2dcff" d="M 386.695312 270.902344 L 65.527344 270.902344 L 58.804688 277.621094 L 58.804688 309.15625 L 65.527344 315.875 L 386.695312 315.875 L 393.417969 309.15625 L 393.417969 277.621094 Z M 72.246094 284.34375 L 72.246094 302.433594 L 379.976562 302.433594 L 379.976562 284.34375 Z M 72.246094 284.34375 " fill-opacity="1" fill-rule="evenodd"/></g></g><g clip-path="url(#01eb929cee)"><g clip-path="url(#bb32dc5115)"><path fill="#c2dcff" d="M 379.976562 130.9375 L 393.417969 130.9375 L 393.417969 171.261719 L 379.976562 171.261719 Z M 379.976562 130.9375 " fill-opacity="1" fill-rule="evenodd"/></g></g><g clip-path="url(#cc57b8d4cd)"><g clip-path="url(#777e907a4d)"><path fill="#c2dcff" d="M 58.804688 130.9375 L 72.246094 130.9375 L 72.246094 171.261719 L 58.804688 171.261719 Z M 58.804688 130.9375 " fill-opacity="1" fill-rule="evenodd"/></g></g><g clip-path="url(#1b6cce6053)"><g clip-path="url(#c3d5de942f)"><path fill="#c2dcff" d="M 65.527344 144.378906 L 387.476562 144.378906 L 387.476562 157.820312 L 65.527344 157.820312 Z M 65.527344 144.378906 " fill-opacity="1" fill-rule="evenodd"/></g></g><g clip-path="url(#71d55c2dae)"><g clip-path="url(#51654c9abc)"><path fill="#c2dcff" d="M 358.980469 204.863281 L 372.421875 204.863281 L 372.421875 245.1875 L 358.980469 245.1875 Z M 358.980469 204.863281 " fill-opacity="1" fill-rule="evenodd"/></g></g><g clip-path="url(#0cb93aefe2)"><g clip-path="url(#81a917a417)"><path fill="#c2dcff" d="M 308.0625 204.863281 L 321.503906 204.863281 L 321.503906 245.1875 L 308.0625 245.1875 Z M 308.0625 204.863281 " fill-opacity="1" fill-rule="evenodd"/></g></g><g clip-path="url(#3c3c32d668)"><g clip-path="url(#61b133c523)"><path fill="#c2dcff" d="M 257.160156 204.863281 L 270.601562 204.863281 L 270.601562 245.1875 L 257.160156 245.1875 Z M 257.160156 204.863281 " fill-opacity="1" fill-rule="evenodd"/></g></g><g clip-path="url(#c5bc9169df)"><g clip-path="url(#86d5cb3fbd)"><path fill="#c2dcff" d="M 206.246094 204.863281 L 219.6875 204.863281 L 219.6875 245.1875 L 206.246094 245.1875 Z M 206.246094 204.863281 " fill-opacity="1" fill-rule="evenodd"/></g></g><g clip-path="url(#aa162eb65e)"><g clip-path="url(#3a1804b926)"><path fill="#c2dcff" d="M 155.328125 204.863281 L 168.769531 204.863281 L 168.769531 245.1875 L 155.328125 245.1875 Z M 155.328125 204.863281 " fill-opacity="1" fill-rule="evenodd"/></g></g><g clip-path="url(#b126e1430a)"><g clip-path="url(#f9a55859d9)"><path fill="#c2dcff" d="M 104.425781 204.863281 L 117.867188 204.863281 L 117.867188 245.1875 L 104.425781 245.1875 Z M 104.425781 204.863281 " fill-opacity="1" fill-rule="evenodd"/></g></g><g clip-path="url(#bae03b0c2b)"><g clip-path="url(#4a818b5200)"><path fill="#1800ad" d="M 345.277344 294.230469 L 320.203125 207.917969 C 318.378906 201.660156 315.507812 195.78125 311.65625 190.449219 C 307.933594 185.308594 303.382812 180.785156 298.140625 177.023438 C 292.933594 173.289062 287.179688 170.390625 281.023438 168.40625 C 279.085938 167.777344 277.121094 167.257812 275.136719 166.816406 C 277.082031 163.847656 278.761719 160.695312 280.152344 157.394531 C 283.277344 150.007812 284.867188 142.164062 284.867188 134.085938 C 284.867188 126.007812 283.277344 118.171875 280.152344 110.777344 C 277.136719 103.648438 272.820312 97.25 267.328125 91.757812 C 261.835938 86.265625 255.433594 81.945312 248.308594 78.929688 C 240.914062 75.824219 233.078125 74.238281 225 74.238281 C 216.921875 74.238281 209.085938 75.824219 201.691406 78.949219 C 194.5625 81.964844 188.164062 86.28125 182.671875 91.773438 C 177.179688 97.269531 172.863281 103.667969 169.847656 110.792969 C 166.722656 118.179688 165.132812 126.023438 165.132812 134.101562 C 165.132812 142.179688 166.722656 150.015625 169.847656 157.410156 C 171.246094 160.714844 172.925781 163.863281 174.863281 166.835938 C 172.878906 167.265625 170.914062 167.796875 168.976562 168.425781 C 162.816406 170.40625 157.054688 173.308594 151.859375 177.039062 C 146.609375 180.808594 142.066406 185.324219 138.34375 190.46875 C 134.492188 195.800781 131.609375 201.667969 129.796875 207.933594 L 104.730469 294.230469 C 99.890625 310.882812 103.160156 328.472656 113.695312 342.5 C 119.089844 349.691406 126.253906 355.652344 134.402344 359.742188 C 142.984375 364.050781 152.308594 366.234375 162.117188 366.234375 L 287.890625 366.234375 C 297.699219 366.234375 307.027344 364.050781 315.605469 359.742188 C 323.753906 355.652344 330.917969 349.683594 336.320312 342.5 C 346.839844 328.472656 350.105469 310.882812 345.277344 294.230469 Z M 225 102.878906 C 242.214844 102.878906 256.214844 116.878906 256.214844 134.09375 C 256.214844 151.308594 242.214844 165.308594 225 165.308594 C 207.785156 165.308594 193.78125 151.308594 193.78125 134.09375 C 193.78125 116.878906 207.785156 102.878906 225 102.878906 Z M 313.40625 325.304688 C 307.535156 333.113281 298.238281 337.601562 287.890625 337.601562 L 162.117188 337.601562 C 151.769531 337.601562 142.460938 333.121094 136.601562 325.304688 C 131.457031 318.449219 129.90625 310.253906 132.238281 302.230469 L 157.316406 215.914062 C 161.058594 203.015625 173.882812 194.003906 188.488281 194.003906 L 261.527344 194.003906 C 276.132812 194.003906 288.957031 203.015625 292.699219 215.914062 L 317.777344 302.230469 C 320.101562 310.253906 318.550781 318.449219 313.40625 325.304688 Z M 313.40625 325.304688 " fill-opacity="1" fill-rule="nonzero"/></g></g><g clip-path="url(#86e44626fc)"><g clip-path="url(#26bc3b996c)"><path fill="#1800ad" d="M 200.503906 269.988281 L 204.105469 266.570312 C 211.410156 259.558594 216.804688 254.050781 220.289062 250.027344 C 222.082031 247.929688 222.980469 246.117188 222.980469 244.589844 C 222.980469 243.0625 221.777344 241.257812 219.382812 239.195312 C 216.984375 237.132812 215.011719 236.089844 213.449219 236.089844 C 211.886719 236.089844 210.066406 237.320312 207.964844 239.777344 C 202.929688 245.648438 196.339844 253.171875 188.191406 262.34375 L 188.191406 245.171875 C 188.191406 243.074219 188.039062 241.519531 187.742188 240.496094 C 186.960938 238.28125 184.476562 237.167969 180.285156 237.167969 C 176.453125 237.167969 174.109375 237.976562 173.273438 239.589844 C 172.789062 240.488281 172.511719 241.285156 172.421875 241.96875 C 172.332031 242.660156 172.285156 243.691406 172.285156 245.074219 L 172.285156 295.050781 C 172.285156 297.148438 172.464844 298.675781 172.824219 299.636719 C 173.542969 301.914062 176.003906 303.054688 180.195312 303.054688 C 184.027344 303.054688 186.371094 302.246094 187.203125 300.632812 C 187.679688 299.734375 187.96875 298.953125 188.058594 298.296875 C 188.148438 297.644531 188.191406 296.59375 188.191406 295.148438 L 188.191406 277.617188 L 207.964844 300.183594 C 210.117188 302.695312 211.96875 303.960938 213.492188 303.960938 C 215.019531 303.960938 216.984375 302.929688 219.382812 300.855469 C 221.777344 298.792969 222.980469 296.988281 222.980469 295.460938 C 222.980469 293.9375 221.992188 292.058594 220.019531 289.84375 C 216.175781 285.417969 209.679688 278.792969 200.503906 269.988281 Z M 200.503906 269.988281 " fill-opacity="1" fill-rule="nonzero"/></g></g><g clip-path="url(#88d316a908)"><g clip-path="url(#38ce0e45d4)"><path fill="#1800ad" d="M 273.582031 263.339844 L 257.757812 263.339844 C 255.964844 263.339844 254.519531 263.609375 253.441406 264.148438 C 252.722656 264.507812 252.230469 265.171875 251.960938 266.121094 C 251.691406 267.082031 251.558594 268.355469 251.558594 269.945312 C 251.558594 271.535156 251.675781 272.789062 251.917969 273.722656 C 252.160156 274.65625 252.660156 275.355469 253.441406 275.832031 C 254.222656 276.316406 255.542969 276.550781 257.402344 276.550781 L 264.5 276.550781 L 264.5 286.351562 C 261.863281 287.429688 258.898438 287.96875 255.605469 287.96875 C 251.054688 287.96875 246.980469 286.15625 243.382812 282.527344 C 239.78125 278.902344 237.988281 274.496094 237.988281 269.316406 C 237.988281 264.136719 239.753906 259.9375 243.292969 256.734375 C 246.828125 253.527344 250.875 251.921875 255.425781 251.921875 C 258.898438 251.921875 261.898438 252.75 264.410156 254.390625 C 266.921875 256.042969 268.753906 256.859375 269.894531 256.859375 C 271.816406 256.859375 273.941406 255.269531 276.277344 252.09375 C 277.65625 250.171875 278.339844 248.484375 278.339844 247.011719 C 278.339844 245.539062 277.53125 244.210938 275.917969 243.011719 C 269.625 238.332031 262.9375 236 255.875 236 C 246.765625 236 238.859375 239.195312 232.144531 245.578125 C 225.429688 251.957031 222.074219 259.910156 222.074219 269.441406 C 222.074219 278.972656 225.367188 287.105469 231.964844 293.847656 C 238.550781 300.585938 246.316406 303.960938 255.246094 303.960938 C 265.316406 303.960938 272.863281 301.359375 277.898438 296.144531 C 279.578125 294.402344 280.414062 292.582031 280.414062 290.660156 L 280.414062 270.886719 C 280.414062 268.671875 280.117188 266.992188 279.515625 265.851562 C 278.796875 264.300781 276.824219 263.457031 273.582031 263.339844 Z M 273.582031 263.339844 " fill-opacity="1" fill-rule="nonzero"/></g></g><g transform="matrix(1, 0, 0, 1, 0, 6)"><g clip-path="url(#3dab71877e)"><g clip-path="url(#4de979b7c5)"><g clip-path="url(#0872a9aab0)"><g transform="matrix(1, 0, 0, 1, 0, -0.000000000000001776)"><g clip-path="url(#0afe93015c)"><g clip-path="url(#302eac4ea0)"><g clip-path="url(#025efba616)"><path fill="#8ac3ef" d="M 0 0.199219 L 449.566406 0.199219 L 449.566406 437.800781 L 0 437.800781 Z M 0 0.199219 " fill-opacity="1" fill-rule="nonzero"/></g></g></g></g></g></g><g clip-path="url(#59ee5fe6a2)"><g clip-path="url(#e6e4a2b051)"><path fill="#437bf5" d="M 224.960938 87.230469 C 222.804688 87.230469 220.648438 87.285156 218.496094 87.390625 C 216.34375 87.496094 214.195312 87.65625 212.046875 87.867188 C 209.902344 88.078125 207.765625 88.339844 205.632812 88.65625 C 203.5 88.972656 201.375 89.34375 199.261719 89.761719 C 197.148438 90.183594 195.042969 90.65625 192.953125 91.179688 C 190.859375 91.703125 188.785156 92.277344 186.722656 92.902344 C 184.65625 93.53125 182.613281 94.207031 180.582031 94.933594 C 178.550781 95.660156 176.542969 96.433594 174.550781 97.257812 C 172.558594 98.085938 170.585938 98.957031 168.640625 99.878906 C 166.691406 100.800781 164.765625 101.769531 162.863281 102.785156 C 160.960938 103.800781 159.085938 104.863281 157.238281 105.972656 C 155.390625 107.082031 153.566406 108.234375 151.777344 109.433594 C 149.984375 110.628906 148.222656 111.871094 146.488281 113.15625 C 144.757812 114.4375 143.058594 115.765625 141.390625 117.132812 C 139.726562 118.5 138.09375 119.90625 136.496094 121.355469 C 134.898438 122.804688 133.339844 124.289062 131.8125 125.8125 C 130.289062 127.339844 128.804688 128.898438 127.355469 130.496094 C 125.90625 132.09375 124.5 133.726562 123.132812 135.390625 C 121.765625 137.058594 120.4375 138.757812 119.15625 140.488281 C 117.871094 142.222656 116.628906 143.984375 115.433594 145.777344 C 114.234375 147.566406 113.082031 149.390625 111.972656 151.238281 C 110.863281 153.085938 109.800781 154.960938 108.785156 156.863281 C 107.769531 158.765625 106.800781 160.691406 105.878906 162.640625 C 104.957031 164.585938 104.085938 166.558594 103.257812 168.550781 C 102.433594 170.542969 101.660156 172.550781 100.933594 174.582031 C 100.207031 176.613281 99.53125 178.65625 98.902344 180.722656 C 98.277344 182.785156 97.703125 184.859375 97.179688 186.953125 C 96.65625 189.042969 96.183594 191.148438 95.761719 193.261719 C 95.34375 195.375 94.972656 197.5 94.65625 199.632812 C 94.339844 201.765625 94.078125 203.902344 93.867188 206.046875 C 93.65625 208.195312 93.496094 210.34375 93.390625 212.496094 C 93.285156 214.648438 93.230469 216.804688 93.230469 218.960938 C 93.230469 221.117188 93.285156 223.269531 93.390625 225.421875 C 93.496094 227.578125 93.65625 229.726562 93.867188 231.871094 C 94.078125 234.015625 94.339844 236.15625 94.65625 238.289062 C 94.972656 240.421875 95.34375 242.542969 95.761719 244.660156 C 96.183594 246.773438 96.65625 248.875 97.179688 250.96875 C 97.703125 253.058594 98.277344 255.136719 98.902344 257.199219 C 99.53125 259.261719 100.207031 261.308594 100.933594 263.335938 C 101.660156 265.367188 102.433594 267.378906 103.257812 269.371094 C 104.085938 271.363281 104.957031 273.332031 105.878906 275.28125 C 106.800781 277.230469 107.769531 279.15625 108.785156 281.054688 C 109.800781 282.957031 110.863281 284.832031 111.972656 286.679688 C 113.082031 288.53125 114.234375 290.351562 115.433594 292.144531 C 116.628906 293.9375 117.871094 295.699219 119.15625 297.429688 C 120.4375 299.160156 121.765625 300.859375 123.132812 302.527344 C 124.5 304.195312 125.90625 305.824219 127.355469 307.421875 C 128.804688 309.019531 130.289062 310.582031 131.8125 312.105469 C 133.339844 313.628906 134.898438 315.117188 136.496094 316.5625 C 138.09375 318.011719 139.726562 319.417969 141.390625 320.785156 C 143.058594 322.15625 144.757812 323.480469 146.488281 324.765625 C 148.222656 326.046875 149.984375 327.289062 151.777344 328.488281 C 153.566406 329.683594 155.390625 330.839844 157.238281 331.945312 C 159.085938 333.054688 160.960938 334.117188 162.863281 335.132812 C 164.765625 336.148438 166.691406 337.117188 168.640625 338.039062 C 170.585938 338.960938 172.558594 339.835938 174.550781 340.660156 C 176.542969 341.484375 178.550781 342.261719 180.582031 342.988281 C 182.613281 343.714844 184.65625 344.390625 186.722656 345.015625 C 188.785156 345.640625 190.859375 346.214844 192.953125 346.738281 C 195.042969 347.265625 197.148438 347.734375 199.261719 348.15625 C 201.375 348.578125 203.5 348.945312 205.632812 349.261719 C 207.765625 349.578125 209.902344 349.84375 212.046875 350.054688 C 214.195312 350.265625 216.34375 350.421875 218.496094 350.527344 C 220.648438 350.632812 222.804688 350.6875 224.960938 350.6875 C 227.117188 350.6875 229.269531 350.632812 231.421875 350.527344 C 233.578125 350.421875 235.726562 350.265625 237.871094 350.054688 C 240.015625 349.84375 242.15625 349.578125 244.289062 349.261719 C 246.421875 348.945312 248.542969 348.578125 250.660156 348.15625 C 252.773438 347.734375 254.875 347.265625 256.96875 346.738281 C 259.058594 346.214844 261.136719 345.640625 263.199219 345.015625 C 265.261719 344.390625 267.308594 343.714844 269.335938 342.988281 C 271.367188 342.261719 273.378906 341.484375 275.371094 340.660156 C 277.363281 339.835938 279.332031 338.960938 281.28125 338.039062 C 283.230469 337.117188 285.15625 336.148438 287.054688 335.132812 C 288.957031 334.117188 290.832031 333.054688 292.679688 331.945312 C 294.53125 330.839844 296.351562 329.683594 298.144531 328.488281 C 299.9375 327.289062 301.699219 326.046875 303.429688 324.765625 C 305.160156 323.480469 306.859375 322.15625 308.527344 320.785156 C 310.195312 319.417969 311.824219 318.011719 313.421875 316.5625 C 315.019531 315.117188 316.582031 313.628906 318.105469 312.105469 C 319.628906 310.582031 321.117188 309.019531 322.5625 307.421875 C 324.011719 305.824219 325.417969 304.195312 326.785156 302.527344 C 328.15625 300.859375 329.480469 299.160156 330.765625 297.429688 C 332.046875 295.699219 333.289062 293.9375 334.488281 292.144531 C 335.683594 290.351562 336.839844 288.53125 337.945312 286.679688 C 339.054688 284.832031 340.117188 282.957031 341.132812 281.054688 C 342.148438 279.15625 343.117188 277.230469 344.039062 275.28125 C 344.960938 273.332031 345.835938 271.363281 346.660156 269.371094 C 347.484375 267.378906 348.261719 265.367188 348.988281 263.335938 C 349.714844 261.308594 350.390625 259.261719 351.015625 257.199219 C 351.640625 255.136719 352.214844 253.058594 352.738281 250.96875 C 353.265625 248.875 353.734375 246.773438 354.15625 244.660156 C 354.578125 242.542969 354.945312 240.421875 355.261719 238.289062 C 355.578125 236.15625 355.84375 234.015625 356.054688 231.871094 C 356.265625 229.726562 356.421875 227.578125 356.527344 225.421875 C 356.632812 223.269531 356.6875 221.117188 356.6875 218.960938 C 356.683594 216.804688 356.628906 214.652344 356.523438 212.5 C 356.414062 210.347656 356.253906 208.199219 356.039062 206.054688 C 355.828125 203.910156 355.5625 201.769531 355.242188 199.640625 C 354.925781 197.507812 354.554688 195.382812 354.132812 193.269531 C 353.710938 191.15625 353.234375 189.054688 352.710938 186.964844 C 352.183594 184.875 351.609375 182.800781 350.980469 180.738281 C 350.355469 178.675781 349.675781 176.628906 348.949219 174.601562 C 348.222656 172.574219 347.445312 170.5625 346.621094 168.574219 C 345.792969 166.582031 344.921875 164.613281 343.996094 162.664062 C 343.074219 160.71875 342.105469 158.792969 341.089844 156.894531 C 340.074219 154.992188 339.011719 153.117188 337.902344 151.269531 C 336.792969 149.421875 335.640625 147.601562 334.441406 145.8125 C 333.242188 144.019531 332.003906 142.257812 330.71875 140.527344 C 329.433594 138.796875 328.109375 137.097656 326.742188 135.433594 C 325.375 133.765625 323.964844 132.136719 322.519531 130.539062 C 321.070312 128.941406 319.585938 127.382812 318.0625 125.859375 C 316.539062 124.332031 314.976562 122.847656 313.378906 121.402344 C 311.785156 119.953125 310.152344 118.546875 308.488281 117.179688 C 306.820312 115.8125 305.121094 114.484375 303.390625 113.199219 C 301.660156 111.917969 299.898438 110.675781 298.109375 109.476562 C 296.316406 108.28125 294.496094 107.125 292.648438 106.019531 C 290.800781 104.910156 288.925781 103.847656 287.027344 102.832031 C 285.125 101.8125 283.203125 100.84375 281.253906 99.921875 C 279.304688 99 277.335938 98.125 275.347656 97.300781 C 273.355469 96.472656 271.347656 95.695312 269.316406 94.96875 C 267.289062 94.242188 265.242188 93.566406 263.183594 92.9375 C 261.121094 92.308594 259.042969 91.734375 256.953125 91.210938 C 254.863281 90.683594 252.761719 90.210938 250.648438 89.789062 C 248.535156 89.367188 246.414062 88.996094 244.28125 88.675781 C 242.148438 88.359375 240.011719 88.09375 237.867188 87.878906 C 235.722656 87.667969 233.574219 87.503906 231.421875 87.398438 C 229.269531 87.289062 227.113281 87.234375 224.960938 87.230469 Z M 224.960938 326.738281 C 223.195312 326.738281 221.433594 326.695312 219.671875 326.605469 C 217.910156 326.519531 216.152344 326.390625 214.394531 326.21875 C 212.640625 326.046875 210.890625 325.828125 209.144531 325.570312 C 207.402344 325.3125 205.664062 325.011719 203.933594 324.667969 C 202.203125 324.320312 200.484375 323.9375 198.773438 323.507812 C 197.0625 323.078125 195.363281 322.609375 193.671875 322.097656 C 191.984375 321.585938 190.3125 321.03125 188.652344 320.4375 C 186.988281 319.84375 185.34375 319.207031 183.714844 318.53125 C 182.085938 317.859375 180.472656 317.144531 178.878906 316.390625 C 177.285156 315.636719 175.710938 314.84375 174.152344 314.011719 C 172.597656 313.179688 171.0625 312.308594 169.550781 311.402344 C 168.039062 310.496094 166.546875 309.554688 165.082031 308.574219 C 163.617188 307.59375 162.171875 306.578125 160.757812 305.527344 C 159.339844 304.476562 157.949219 303.390625 156.585938 302.273438 C 155.222656 301.152344 153.886719 300.003906 152.582031 298.816406 C 151.273438 297.632812 149.996094 296.417969 148.75 295.167969 C 147.503906 293.921875 146.285156 292.644531 145.101562 291.339844 C 143.917969 290.03125 142.765625 288.695312 141.648438 287.332031 C 140.527344 285.96875 139.441406 284.578125 138.390625 283.164062 C 137.339844 281.746094 136.324219 280.304688 135.347656 278.835938 C 134.367188 277.371094 133.421875 275.882812 132.515625 274.367188 C 131.609375 272.855469 130.738281 271.320312 129.910156 269.765625 C 129.078125 268.210938 128.285156 266.636719 127.53125 265.039062 C 126.777344 263.445312 126.0625 261.832031 125.386719 260.203125 C 124.710938 258.574219 124.078125 256.929688 123.484375 255.269531 C 122.886719 253.609375 122.335938 251.933594 121.824219 250.246094 C 121.3125 248.558594 120.839844 246.859375 120.414062 245.148438 C 119.984375 243.4375 119.597656 241.714844 119.253906 239.984375 C 118.910156 238.257812 118.609375 236.519531 118.347656 234.773438 C 118.089844 233.027344 117.875 231.277344 117.703125 229.523438 C 117.527344 227.769531 117.398438 226.011719 117.3125 224.25 C 117.226562 222.488281 117.183594 220.722656 117.183594 218.960938 C 117.183594 217.195312 117.226562 215.433594 117.3125 213.671875 C 117.398438 211.910156 117.527344 210.152344 117.703125 208.394531 C 117.875 206.640625 118.089844 204.890625 118.347656 203.144531 C 118.609375 201.402344 118.910156 199.664062 119.253906 197.933594 C 119.597656 196.203125 119.984375 194.484375 120.414062 192.773438 C 120.839844 191.0625 121.3125 189.363281 121.824219 187.671875 C 122.335938 185.984375 122.886719 184.3125 123.484375 182.652344 C 124.078125 180.988281 124.710938 179.34375 125.386719 177.714844 C 126.0625 176.085938 126.777344 174.472656 127.53125 172.878906 C 128.285156 171.285156 129.078125 169.710938 129.910156 168.152344 C 130.738281 166.597656 131.609375 165.0625 132.515625 163.550781 C 133.421875 162.039062 134.367188 160.546875 135.347656 159.082031 C 136.324219 157.617188 137.339844 156.171875 138.390625 154.757812 C 139.441406 153.339844 140.527344 151.949219 141.648438 150.585938 C 142.765625 149.222656 143.917969 147.886719 145.101562 146.582031 C 146.285156 145.273438 147.503906 143.996094 148.75 142.75 C 149.996094 141.503906 151.273438 140.285156 152.582031 139.101562 C 153.886719 137.917969 155.222656 136.765625 156.585938 135.648438 C 157.949219 134.527344 159.339844 133.441406 160.757812 132.390625 C 162.171875 131.339844 163.617188 130.324219 165.082031 129.347656 C 166.546875 128.367188 168.039062 127.421875 169.550781 126.515625 C 171.0625 125.609375 172.597656 124.738281 174.152344 123.910156 C 175.710938 123.078125 177.285156 122.285156 178.878906 121.53125 C 180.472656 120.777344 182.085938 120.0625 183.714844 119.386719 C 185.34375 118.710938 186.988281 118.078125 188.652344 117.484375 C 190.3125 116.886719 191.984375 116.335938 193.671875 115.824219 C 195.363281 115.3125 197.0625 114.839844 198.773438 114.414062 C 200.484375 113.984375 202.203125 113.597656 203.933594 113.253906 C 205.664062 112.910156 207.402344 112.609375 209.144531 112.347656 C 210.890625 112.089844 212.640625 111.875 214.394531 111.703125 C 216.152344 111.527344 217.910156 111.398438 219.671875 111.3125 C 221.433594 111.226562 223.195312 111.183594 224.960938 111.183594 C 226.722656 111.183594 228.488281 111.226562 230.25 111.3125 C 232.011719 111.398438 233.769531 111.527344 235.523438 111.703125 C 237.277344 111.875 239.027344 112.089844 240.773438 112.347656 C 242.519531 112.609375 244.257812 112.910156 245.984375 113.253906 C 247.714844 113.597656 249.4375 113.984375 251.148438 114.414062 C 252.859375 114.839844 254.558594 115.3125 256.246094 115.824219 C 257.933594 116.335938 259.609375 116.886719 261.269531 117.484375 C 262.929688 118.078125 264.574219 118.710938 266.203125 119.386719 C 267.832031 120.0625 269.445312 120.777344 271.039062 121.53125 C 272.636719 122.285156 274.210938 123.078125 275.765625 123.910156 C 277.320312 124.738281 278.855469 125.609375 280.367188 126.515625 C 281.882812 127.421875 283.371094 128.367188 284.835938 129.347656 C 286.304688 130.324219 287.746094 131.339844 289.164062 132.390625 C 290.578125 133.441406 291.96875 134.527344 293.332031 135.648438 C 294.695312 136.765625 296.03125 137.917969 297.339844 139.101562 C 298.644531 140.285156 299.921875 141.503906 301.167969 142.75 C 302.417969 143.996094 303.632812 145.273438 304.816406 146.582031 C 306.003906 147.886719 307.152344 149.222656 308.273438 150.585938 C 309.390625 151.949219 310.476562 153.339844 311.527344 154.757812 C 312.578125 156.171875 313.59375 157.617188 314.574219 159.082031 C 315.554688 160.546875 316.496094 162.039062 317.402344 163.550781 C 318.308594 165.0625 319.179688 166.597656 320.011719 168.152344 C 320.84375 169.710938 321.636719 171.285156 322.390625 172.878906 C 323.144531 174.472656 323.859375 176.085938 324.53125 177.714844 C 325.207031 179.34375 325.84375 180.988281 326.4375 182.652344 C 327.03125 184.3125 327.585938 185.984375 328.097656 187.671875 C 328.609375 189.363281 329.078125 191.0625 329.507812 192.773438 C 329.9375 194.484375 330.320312 196.203125 330.667969 197.933594 C 331.011719 199.664062 331.3125 201.402344 331.570312 203.144531 C 331.828125 204.890625 332.046875 206.640625 332.21875 208.394531 C 332.390625 210.152344 332.519531 211.910156 332.605469 213.671875 C 332.695312 215.433594 332.738281 217.195312 332.738281 218.960938 C 332.734375 220.722656 332.691406 222.484375 332.601562 224.246094 C 332.511719 226.007812 332.382812 227.765625 332.207031 229.519531 C 332.03125 231.273438 331.816406 233.023438 331.554688 234.769531 C 331.292969 236.511719 330.992188 238.25 330.644531 239.976562 C 330.300781 241.707031 329.914062 243.425781 329.484375 245.136719 C 329.054688 246.847656 328.582031 248.546875 328.070312 250.234375 C 327.554688 251.917969 327.003906 253.59375 326.40625 255.253906 C 325.8125 256.914062 325.175781 258.558594 324.5 260.1875 C 323.824219 261.816406 323.109375 263.425781 322.355469 265.019531 C 321.601562 266.613281 320.808594 268.1875 319.976562 269.742188 C 319.144531 271.296875 318.273438 272.832031 317.367188 274.34375 C 316.460938 275.855469 315.515625 277.34375 314.535156 278.808594 C 313.554688 280.273438 312.542969 281.714844 311.492188 283.132812 C 310.441406 284.546875 309.355469 285.9375 308.234375 287.300781 C 307.117188 288.664062 305.964844 290 304.78125 291.304688 C 303.597656 292.609375 302.382812 293.886719 301.136719 295.136719 C 299.886719 296.382812 298.609375 297.597656 297.304688 298.78125 C 296 299.964844 294.664062 301.117188 293.300781 302.234375 C 291.9375 303.355469 290.546875 304.441406 289.132812 305.492188 C 287.714844 306.542969 286.273438 307.554688 284.808594 308.535156 C 283.34375 309.515625 281.855469 310.460938 280.34375 311.367188 C 278.832031 312.273438 277.296875 313.144531 275.742188 313.976562 C 274.1875 314.808594 272.613281 315.601562 271.019531 316.355469 C 269.425781 317.109375 267.816406 317.824219 266.1875 318.5 C 264.558594 319.175781 262.914062 319.8125 261.253906 320.40625 C 259.59375 321.003906 257.917969 321.554688 256.234375 322.070312 C 254.546875 322.582031 252.847656 323.054688 251.136719 323.484375 C 249.425781 323.914062 247.707031 324.300781 245.976562 324.644531 C 244.25 324.992188 242.511719 325.292969 240.769531 325.554688 C 239.023438 325.816406 237.273438 326.03125 235.519531 326.207031 C 233.765625 326.382812 232.007812 326.511719 230.246094 326.601562 C 228.484375 326.691406 226.722656 326.734375 224.960938 326.738281 Z M 224.960938 326.738281 " fill-opacity="1" fill-rule="nonzero"/></g></g><g clip-path="url(#63a28ad3ed)"><g clip-path="url(#fdc29624f0)"><path fill="#437bf5" d="M 236.933594 214.003906 L 236.933594 171.058594 C 236.933594 170.273438 236.859375 169.492188 236.703125 168.722656 C 236.550781 167.953125 236.324219 167.203125 236.023438 166.476562 C 235.722656 165.75 235.355469 165.058594 234.917969 164.40625 C 234.480469 163.75 233.984375 163.148438 233.425781 162.589844 C 232.871094 162.035156 232.265625 161.539062 231.613281 161.101562 C 230.960938 160.664062 230.269531 160.296875 229.542969 159.996094 C 228.816406 159.695312 228.066406 159.46875 227.296875 159.3125 C 226.523438 159.160156 225.746094 159.082031 224.960938 159.082031 C 224.171875 159.082031 223.394531 159.160156 222.625 159.3125 C 221.851562 159.46875 221.101562 159.695312 220.378906 159.996094 C 219.652344 160.296875 218.960938 160.664062 218.308594 161.101562 C 217.652344 161.539062 217.046875 162.035156 216.492188 162.589844 C 215.9375 163.148438 215.441406 163.75 215.003906 164.40625 C 214.566406 165.058594 214.195312 165.75 213.894531 166.476562 C 213.59375 167.203125 213.367188 167.953125 213.214844 168.722656 C 213.0625 169.492188 212.984375 170.273438 212.984375 171.058594 L 212.984375 218.960938 L 212.996094 219.015625 C 213.007812 220.59375 213.316406 222.109375 213.921875 223.566406 C 214.527344 225.023438 215.386719 226.3125 216.496094 227.429688 L 250.359375 261.300781 C 250.914062 261.871094 251.515625 262.378906 252.171875 262.828125 C 252.824219 263.277344 253.515625 263.660156 254.246094 263.972656 C 254.976562 264.285156 255.730469 264.523438 256.507812 264.683594 C 257.285156 264.847656 258.070312 264.929688 258.863281 264.9375 C 259.660156 264.941406 260.445312 264.871094 261.226562 264.71875 C 262.003906 264.570312 262.761719 264.34375 263.496094 264.042969 C 264.230469 263.742188 264.929688 263.371094 265.589844 262.933594 C 266.25 262.492188 266.863281 261.992188 267.425781 261.429688 C 267.984375 260.867188 268.484375 260.257812 268.925781 259.597656 C 269.367188 258.933594 269.738281 258.238281 270.039062 257.503906 C 270.339844 256.769531 270.5625 256.011719 270.714844 255.230469 C 270.863281 254.453125 270.9375 253.664062 270.929688 252.871094 C 270.925781 252.078125 270.839844 251.292969 270.679688 250.515625 C 270.515625 249.738281 270.28125 248.984375 269.96875 248.253906 C 269.65625 247.523438 269.273438 246.832031 268.824219 246.175781 C 268.375 245.523438 267.863281 244.917969 267.292969 244.367188 Z M 236.933594 214.003906 " fill-opacity="1" fill-rule="nonzero"/></g></g></g></g></svg>