<svg xmlns="http://www.w3.org/2000/svg" xmlns:xlink="http://www.w3.org/1999/xlink" width="300" zoomAndPan="magnify" viewBox="0 0 224.87999 363.749991" height="485" preserveAspectRatio="xMidYMid meet" version="1.0"><defs><clipPath id="59ac41d7de"><path d="M 0.691406 0 L 224.742188 0 L 224.742188 363.5 L 0.691406 363.5 Z M 0.691406 0 " clip-rule="nonzero"/></clipPath><clipPath id="d58fbc8617"><path d="M 26.558594 -1.203125 L 201.34375 -1.203125 C 208.207031 -1.203125 214.785156 1.523438 219.636719 6.371094 C 224.488281 11.222656 227.210938 17.800781 227.210938 24.660156 L 227.210938 337.867188 C 227.210938 344.726562 224.488281 351.304688 219.636719 356.15625 C 214.785156 361.003906 208.207031 363.730469 201.34375 363.730469 L 26.558594 363.730469 C 19.703125 363.730469 13.121094 361.003906 8.269531 356.15625 C 3.421875 351.304688 0.691406 344.726562 0.691406 337.867188 L 0.691406 24.660156 C 0.691406 17.800781 3.421875 11.222656 8.269531 6.371094 C 13.121094 1.523438 19.703125 -1.203125 26.558594 -1.203125 Z M 26.558594 -1.203125 " clip-rule="nonzero"/></clipPath><clipPath id="451bcac297"><path d="M 26.558594 -1.203125 L 201.34375 -1.203125 C 208.207031 -1.203125 214.785156 1.523438 219.636719 6.371094 C 224.488281 11.222656 227.210938 17.800781 227.210938 24.660156 L 227.210938 337.867188 C 227.210938 344.726562 224.488281 351.304688 219.636719 356.15625 C 214.785156 361.003906 208.207031 363.730469 201.34375 363.730469 L 26.558594 363.730469 C 19.703125 363.730469 13.121094 361.003906 8.269531 356.15625 C 3.421875 351.304688 0.691406 344.726562 0.691406 337.867188 L 0.691406 24.660156 C 0.691406 17.800781 3.421875 11.222656 8.269531 6.371094 C 13.121094 1.523438 19.703125 -1.203125 26.558594 -1.203125 Z M 26.558594 -1.203125 " clip-rule="nonzero"/></clipPath><clipPath id="b026e962a6"><path d="M 110 0 L 224 0 L 224 129.460938 L 110 129.460938 Z M 110 0 " clip-rule="nonzero"/></clipPath><clipPath id="894ff7d5f0"><path d="M 3.832031 47.410156 L 178 47.410156 L 178 221.769531 L 3.832031 221.769531 Z M 3.832031 47.410156 " clip-rule="nonzero"/></clipPath><clipPath id="3bf2634edb"><path d="M 128.191406 82.367188 L 153 82.367188 L 153 117.570312 L 128.191406 117.570312 Z M 128.191406 82.367188 " clip-rule="nonzero"/></clipPath><clipPath id="9928baa9ed"><path d="M 39.238281 130 L 65.164062 130 L 65.164062 161.570312 L 39.238281 161.570312 Z M 39.238281 130 " clip-rule="nonzero"/></clipPath><clipPath id="81ef49ff87"><path d="M 41.464844 159.191406 L 191 159.191406 L 191 311.8125 L 41.464844 311.8125 Z M 41.464844 159.191406 " clip-rule="nonzero"/></clipPath><clipPath id="789288ab9e"><path d="M 125.953125 165.234375 L 189.261719 292.421875 C 191.328125 296.578125 191.101562 301.503906 188.660156 305.445312 C 186.214844 309.390625 181.902344 311.792969 177.269531 311.792969 L 55.355469 311.792969 C 50.714844 311.792969 46.40625 309.390625 43.964844 305.445312 C 41.519531 301.503906 41.292969 296.578125 43.359375 292.421875 L 106.667969 165.234375 C 108.492188 161.574219 112.226562 159.265625 116.3125 159.265625 C 120.398438 159.265625 124.132812 161.574219 125.953125 165.234375 Z M 125.953125 165.234375 " clip-rule="nonzero"/></clipPath><clipPath id="c32d0fb062"><path d="M 125.953125 165.234375 L 189.261719 292.421875 C 191.328125 296.578125 191.101562 301.503906 188.660156 305.445312 C 186.214844 309.390625 181.902344 311.792969 177.269531 311.792969 L 55.355469 311.792969 C 50.714844 311.792969 46.40625 309.390625 43.964844 305.445312 C 41.519531 301.503906 41.292969 296.578125 43.359375 292.421875 L 106.667969 165.234375 C 108.492188 161.574219 112.226562 159.265625 116.3125 159.265625 C 120.398438 159.265625 124.132812 161.574219 125.953125 165.234375 Z M 125.953125 165.234375 " clip-rule="nonzero"/></clipPath><clipPath id="14408208cf"><path d="M 96.863281 261.792969 L 135.78125 261.792969 L 135.78125 289.621094 L 96.863281 289.621094 Z M 96.863281 261.792969 " clip-rule="nonzero"/></clipPath><clipPath id="fb7ae9bfc3"><path d="M 116.3125 261.792969 C 105.570312 261.792969 96.863281 268.019531 96.863281 275.703125 C 96.863281 283.390625 105.570312 289.621094 116.3125 289.621094 C 127.046875 289.621094 135.757812 283.390625 135.757812 275.703125 C 135.757812 268.019531 127.046875 261.792969 116.3125 261.792969 Z M 116.3125 261.792969 " clip-rule="nonzero"/></clipPath><clipPath id="8847ffd9d0"><path d="M 116.3125 261.792969 C 105.570312 261.792969 96.863281 268.019531 96.863281 275.703125 C 96.863281 283.390625 105.570312 289.621094 116.3125 289.621094 C 127.046875 289.621094 135.757812 283.390625 135.757812 275.703125 C 135.757812 268.019531 127.046875 261.792969 116.3125 261.792969 Z M 116.3125 261.792969 " clip-rule="nonzero"/></clipPath><clipPath id="d3abb8c5a4"><path d="M 84.042969 261.242188 L 151.867188 261.242188 L 151.867188 272.832031 L 84.042969 272.832031 Z M 84.042969 261.242188 " clip-rule="nonzero"/></clipPath><clipPath id="746d907685"><path d="M 89.839844 261.242188 L 146.0625 261.242188 C 149.261719 261.242188 151.855469 263.835938 151.855469 267.039062 C 151.855469 270.234375 149.261719 272.832031 146.0625 272.832031 L 89.839844 272.832031 C 86.640625 272.832031 84.042969 270.234375 84.042969 267.039062 C 84.042969 263.835938 86.640625 261.242188 89.839844 261.242188 Z M 89.839844 261.242188 " clip-rule="nonzero"/></clipPath><clipPath id="c71aba7371"><path d="M 89.839844 261.242188 L 146.0625 261.242188 C 149.261719 261.242188 151.855469 263.835938 151.855469 267.039062 C 151.855469 270.234375 149.261719 272.832031 146.0625 272.832031 L 89.839844 272.832031 C 86.640625 272.832031 84.042969 270.234375 84.042969 267.039062 C 84.042969 263.835938 86.640625 261.242188 89.839844 261.242188 Z M 89.839844 261.242188 " clip-rule="nonzero"/></clipPath><clipPath id="da32b894a4"><path d="M 135.757812 258.875 L 145.449219 258.875 L 145.449219 268.5625 L 135.757812 268.5625 Z M 135.757812 258.875 " clip-rule="nonzero"/></clipPath><clipPath id="a581a0bbe5"><path d="M 140.597656 258.875 C 137.921875 258.875 135.757812 261.042969 135.757812 263.71875 C 135.757812 266.394531 137.921875 268.5625 140.597656 268.5625 C 143.277344 268.5625 145.449219 266.394531 145.449219 263.71875 C 145.449219 261.042969 143.277344 258.875 140.597656 258.875 Z M 140.597656 258.875 " clip-rule="nonzero"/></clipPath><clipPath id="6dea5a80a6"><path d="M 140.597656 258.875 C 137.921875 258.875 135.757812 261.042969 135.757812 263.71875 C 135.757812 266.394531 137.921875 268.5625 140.597656 268.5625 C 143.277344 268.5625 145.449219 266.394531 145.449219 263.71875 C 145.449219 261.042969 143.277344 258.875 140.597656 258.875 Z M 140.597656 258.875 " clip-rule="nonzero"/></clipPath><clipPath id="1de37b0958"><path d="M 64.664062 267.039062 L 87.25 267.039062 L 87.25 289.621094 L 64.664062 289.621094 Z M 64.664062 267.039062 " clip-rule="nonzero"/></clipPath><clipPath id="4112011501"><path d="M 75.957031 267.039062 C 69.722656 267.039062 64.664062 272.09375 64.664062 278.328125 C 64.664062 284.5625 69.722656 289.621094 75.957031 289.621094 C 82.1875 289.621094 87.25 284.5625 87.25 278.328125 C 87.25 272.09375 82.1875 267.039062 75.957031 267.039062 Z M 75.957031 267.039062 " clip-rule="nonzero"/></clipPath><clipPath id="3f99463fc7"><path d="M 75.957031 267.039062 C 69.722656 267.039062 64.664062 272.09375 64.664062 278.328125 C 64.664062 284.5625 69.722656 289.621094 75.957031 289.621094 C 82.1875 289.621094 87.25 284.5625 87.25 278.328125 C 87.25 272.09375 82.1875 267.039062 75.957031 267.039062 Z M 75.957031 267.039062 " clip-rule="nonzero"/></clipPath><clipPath id="71463cfedb"><path d="M 87.179688 258.875 L 96.863281 258.875 L 96.863281 268.5625 L 87.179688 268.5625 Z M 87.179688 258.875 " clip-rule="nonzero"/></clipPath><clipPath id="06b45ff8f7"><path d="M 92.019531 258.875 C 89.34375 258.875 87.179688 261.042969 87.179688 263.71875 C 87.179688 266.394531 89.34375 268.5625 92.019531 268.5625 C 94.695312 268.5625 96.863281 266.394531 96.863281 263.71875 C 96.863281 261.042969 94.695312 258.875 92.019531 258.875 Z M 92.019531 258.875 " clip-rule="nonzero"/></clipPath><clipPath id="8c2809da08"><path d="M 92.019531 258.875 C 89.34375 258.875 87.179688 261.042969 87.179688 263.71875 C 87.179688 266.394531 89.34375 268.5625 92.019531 268.5625 C 94.695312 268.5625 96.863281 266.394531 96.863281 263.71875 C 96.863281 261.042969 94.695312 258.875 92.019531 258.875 Z M 92.019531 258.875 " clip-rule="nonzero"/></clipPath><clipPath id="b4f870e897"><path d="M 145.449219 267.039062 L 168.027344 267.039062 L 168.027344 289.621094 L 145.449219 289.621094 Z M 145.449219 267.039062 " clip-rule="nonzero"/></clipPath><clipPath id="fa840c9071"><path d="M 156.738281 267.039062 C 150.503906 267.039062 145.449219 272.09375 145.449219 278.328125 C 145.449219 284.5625 150.503906 289.621094 156.738281 289.621094 C 162.96875 289.621094 168.027344 284.5625 168.027344 278.328125 C 168.027344 272.09375 162.96875 267.039062 156.738281 267.039062 Z M 156.738281 267.039062 " clip-rule="nonzero"/></clipPath><clipPath id="bea1c5a81f"><path d="M 156.738281 267.039062 C 150.503906 267.039062 145.449219 272.09375 145.449219 278.328125 C 145.449219 284.5625 150.503906 289.621094 156.738281 289.621094 C 162.96875 289.621094 168.027344 284.5625 168.027344 278.328125 C 168.027344 272.09375 162.96875 267.039062 156.738281 267.039062 Z M 156.738281 267.039062 " clip-rule="nonzero"/></clipPath><clipPath id="d3332a8e29"><path d="M 0.691406 187 L 107.976562 187 L 107.976562 318 L 0.691406 318 Z M 0.691406 187 " clip-rule="nonzero"/></clipPath><clipPath id="74b6996433"><path d="M 124 187 L 216.53125 187 L 216.53125 322 L 124 322 Z M 124 187 " clip-rule="nonzero"/></clipPath><clipPath id="33f69bf504"><path d="M 28.300781 250 L 144.839844 250 L 144.839844 363.5 L 28.300781 363.5 Z M 28.300781 250 " clip-rule="nonzero"/></clipPath><clipPath id="b16ce71928"><path d="M 83.003906 251.949219 L 200.730469 251.949219 L 200.730469 363.5 L 83.003906 363.5 Z M 83.003906 251.949219 " clip-rule="nonzero"/></clipPath><clipPath id="9c05b6cba2"><path d="M 71.199219 346.949219 L 80.710938 346.949219 L 80.710938 356.460938 L 71.199219 356.460938 Z M 71.199219 346.949219 " clip-rule="nonzero"/></clipPath><clipPath id="b6095f03a5"><path d="M 75.957031 346.949219 C 73.332031 346.949219 71.199219 349.078125 71.199219 351.710938 C 71.199219 354.332031 73.332031 356.460938 75.957031 356.460938 C 78.578125 356.460938 80.710938 354.332031 80.710938 351.710938 C 80.710938 349.078125 78.578125 346.949219 75.957031 346.949219 Z M 75.957031 346.949219 " clip-rule="nonzero"/></clipPath><clipPath id="511b47c9d5"><path d="M 75.957031 346.949219 C 73.332031 346.949219 71.199219 349.078125 71.199219 351.710938 C 71.199219 354.332031 73.332031 356.460938 75.957031 356.460938 C 78.578125 356.460938 80.710938 354.332031 80.710938 351.710938 C 80.710938 349.078125 78.578125 346.949219 75.957031 346.949219 Z M 75.957031 346.949219 " clip-rule="nonzero"/></clipPath><clipPath id="79c376319a"><path d="M 148.109375 346.949219 L 157.625 346.949219 L 157.625 356.460938 L 148.109375 356.460938 Z M 148.109375 346.949219 " clip-rule="nonzero"/></clipPath><clipPath id="2d3234d3e2"><path d="M 152.863281 346.949219 C 150.238281 346.949219 148.109375 349.078125 148.109375 351.710938 C 148.109375 354.332031 150.238281 356.460938 152.863281 356.460938 C 155.492188 356.460938 157.625 354.332031 157.625 351.710938 C 157.625 349.078125 155.492188 346.949219 152.863281 346.949219 Z M 152.863281 346.949219 " clip-rule="nonzero"/></clipPath><clipPath id="fd19c97c08"><path d="M 152.863281 346.949219 C 150.238281 346.949219 148.109375 349.078125 148.109375 351.710938 C 148.109375 354.332031 150.238281 356.460938 152.863281 356.460938 C 155.492188 356.460938 157.625 354.332031 157.625 351.710938 C 157.625 349.078125 155.492188 346.949219 152.863281 346.949219 Z M 152.863281 346.949219 " clip-rule="nonzero"/></clipPath><clipPath id="48faa4ac62"><path d="M 201.132812 230.390625 L 210.644531 230.390625 L 210.644531 239.902344 L 201.132812 239.902344 Z M 201.132812 230.390625 " clip-rule="nonzero"/></clipPath><clipPath id="f808764e42"><path d="M 205.890625 230.390625 C 203.261719 230.390625 201.132812 232.523438 201.132812 235.144531 C 201.132812 237.769531 203.261719 239.902344 205.890625 239.902344 C 208.515625 239.902344 210.644531 237.769531 210.644531 235.144531 C 210.644531 232.523438 208.515625 230.390625 205.890625 230.390625 Z M 205.890625 230.390625 " clip-rule="nonzero"/></clipPath><clipPath id="49c26b2ed9"><path d="M 205.890625 230.390625 C 203.261719 230.390625 201.132812 232.523438 201.132812 235.144531 C 201.132812 237.769531 203.261719 239.902344 205.890625 239.902344 C 208.515625 239.902344 210.644531 237.769531 210.644531 235.144531 C 210.644531 232.523438 208.515625 230.390625 205.890625 230.390625 Z M 205.890625 230.390625 " clip-rule="nonzero"/></clipPath><clipPath id="c198e6e7bb"><path d="M 13.222656 230.390625 L 22.730469 230.390625 L 22.730469 239.902344 L 13.222656 239.902344 Z M 13.222656 230.390625 " clip-rule="nonzero"/></clipPath><clipPath id="c405feb435"><path d="M 17.972656 230.390625 C 15.347656 230.390625 13.222656 232.523438 13.222656 235.144531 C 13.222656 237.769531 15.347656 239.902344 17.972656 239.902344 C 20.601562 239.902344 22.730469 237.769531 22.730469 235.144531 C 22.730469 232.523438 20.601562 230.390625 17.972656 230.390625 Z M 17.972656 230.390625 " clip-rule="nonzero"/></clipPath><clipPath id="627de516c5"><path d="M 17.972656 230.390625 C 15.347656 230.390625 13.222656 232.523438 13.222656 235.144531 C 13.222656 237.769531 15.347656 239.902344 17.972656 239.902344 C 20.601562 239.902344 22.730469 237.769531 22.730469 235.144531 C 22.730469 232.523438 20.601562 230.390625 17.972656 230.390625 Z M 17.972656 230.390625 " clip-rule="nonzero"/></clipPath></defs><g clip-path="url(#59ac41d7de)"><g clip-path="url(#d58fbc8617)"><g clip-path="url(#451bcac297)"><path fill="#ff9999" d="M 0.691406 -1.203125 L 227.210938 -1.203125 L 227.210938 363.34375 L 0.691406 363.34375 Z M 0.691406 -1.203125 " fill-opacity="1" fill-rule="nonzero"/></g></g></g><g clip-path="url(#b026e962a6)"><path fill="#ffc2c2" d="M 223.550781 80.296875 L 195.859375 1.332031 C 195.601562 0.5625 195.085938 -0.207031 194.320312 -0.460938 C 193.550781 -0.722656 192.785156 -0.976562 191.757812 -0.722656 L 112.535156 26.96875 C 110.742188 27.480469 109.972656 29.277344 110.484375 31.070312 C 110.484375 31.070312 121.25 62.09375 121.511719 62.09375 C 122.535156 64.144531 124.585938 66.195312 128.433594 65.683594 C 131.761719 65.425781 133.816406 62.347656 134.328125 60.042969 C 135.355469 56.964844 137.664062 54.398438 140.738281 53.378906 C 146.121094 51.324219 152.277344 54.398438 154.070312 59.785156 C 155.863281 65.167969 153.042969 71.324219 147.660156 73.117188 C 144.585938 74.140625 141.25 73.886719 138.429688 72.09375 C 136.890625 71.066406 133.816406 69.527344 130.480469 71.066406 C 127.152344 72.605469 126.636719 76.195312 127.40625 78.757812 L 138.175781 109.519531 C 138.683594 111.316406 140.484375 112.085938 142.277344 111.574219 L 171.757812 101.316406 C 172.015625 101.316406 172.53125 101.578125 172.785156 101.832031 C 172.785156 102.085938 172.785156 102.34375 172.785156 102.597656 C 169.964844 106.960938 169.195312 112.34375 170.992188 117.46875 C 172.53125 121.828125 175.605469 125.160156 179.707031 127.214844 C 182.015625 128.234375 184.578125 129.007812 187.144531 129.007812 C 188.9375 129.007812 190.984375 128.75 192.785156 127.980469 C 197.140625 126.441406 200.472656 123.367188 202.523438 119.265625 C 204.578125 115.164062 204.832031 110.546875 203.296875 106.445312 C 201.496094 101.578125 197.652344 97.730469 192.785156 95.933594 C 192.527344 95.933594 192.269531 95.675781 192.269531 95.421875 C 192.011719 94.910156 192.269531 94.652344 192.527344 94.394531 L 222.011719 84.144531 C 223.289062 83.882812 224.058594 82.089844 223.550781 80.296875 Z M 189.449219 89.011719 C 186.117188 90.550781 184.578125 94.394531 185.601562 97.984375 C 186.371094 100.035156 187.910156 101.578125 190.21875 102.34375 C 193.292969 103.371094 195.859375 105.679688 196.886719 108.753906 C 197.910156 111.316406 197.652344 114.136719 196.371094 116.703125 C 195.085938 119.265625 193.039062 121.058594 190.476562 122.085938 C 187.910156 123.113281 184.835938 122.851562 182.527344 121.570312 C 179.960938 120.292969 178.167969 118.238281 177.144531 115.675781 C 176.117188 112.601562 176.375 109.265625 178.425781 106.445312 C 179.707031 104.652344 179.960938 102.34375 179.195312 100.292969 C 178.167969 97.214844 175.351562 95.421875 172.269531 95.421875 C 171.757812 95.421875 171.25 95.421875 170.476562 95.675781 C 170.476562 95.675781 143.558594 105.164062 143.558594 105.164062 L 133.816406 77.734375 C 133.5625 76.960938 135.097656 77.988281 135.097656 77.988281 C 139.457031 80.808594 144.839844 81.578125 149.96875 79.78125 C 158.683594 76.707031 163.554688 66.964844 160.21875 58.246094 C 157.144531 49.53125 147.402344 44.660156 138.683594 47.992188 C 133.816406 49.785156 129.96875 53.632812 128.175781 58.761719 C 127.917969 59.273438 127.660156 60.042969 127.40625 59.527344 L 117.921875 32.097656 L 190.984375 6.460938 L 216.628906 79.527344 C 216.367188 79.527344 189.449219 89.011719 189.449219 89.011719 Z M 189.449219 89.011719 " fill-opacity="1" fill-rule="nonzero"/></g><g clip-path="url(#894ff7d5f0)"><path fill="#ffc2c2" d="M 175.09375 131.316406 C 175.09375 131.316406 142.277344 131.316406 142.019531 131.316406 C 138.945312 132.082031 136.636719 134.902344 136.636719 138.238281 C 136.636719 140.546875 137.664062 142.59375 139.457031 143.875 C 142.019531 145.929688 143.558594 149.003906 143.558594 152.335938 C 143.558594 155.15625 142.53125 157.71875 140.484375 159.773438 C 138.429688 161.820312 135.867188 162.847656 133.046875 162.847656 C 130.226562 162.847656 127.660156 161.820312 125.613281 159.773438 C 123.558594 157.71875 122.535156 155.15625 122.535156 152.335938 C 122.535156 149.003906 124.074219 145.929688 126.636719 143.875 C 128.433594 142.59375 129.460938 140.285156 129.460938 138.238281 C 129.460938 134.902344 127.40625 132.082031 124.074219 131.316406 C 123.816406 131.316406 94.332031 131.058594 94.332031 131.058594 L 94.332031 102.859375 C 94.332031 102.597656 94.59375 102.085938 95.101562 102.085938 C 95.359375 102.085938 95.613281 102.34375 95.613281 102.34375 C 98.949219 106.445312 103.816406 109.007812 108.945312 109.007812 C 118.175781 109.007812 125.867188 101.316406 125.867188 92.089844 C 125.867188 82.859375 118.175781 75.167969 108.945312 75.167969 C 103.5625 75.167969 98.695312 77.476562 95.613281 81.835938 C 95.613281 82.089844 95.359375 82.089844 94.847656 82.089844 C 94.332031 82.089844 94.078125 81.835938 94.078125 81.320312 L 94.078125 50.558594 C 94.078125 48.761719 92.539062 47.476562 91 47.476562 L 6.910156 47.476562 C 5.117188 47.476562 3.832031 49.015625 3.832031 50.558594 L 3.832031 218.222656 C 3.832031 220.019531 5.371094 221.304688 6.910156 221.304688 L 174.835938 221.304688 C 176.632812 221.304688 177.914062 219.765625 177.914062 218.222656 L 177.914062 134.390625 C 177.914062 133.621094 177.652344 132.851562 176.886719 132.082031 C 176.117188 131.316406 175.859375 131.316406 175.09375 131.316406 Z M 94.332031 137.722656 L 122.535156 137.722656 C 122.792969 137.722656 122.792969 137.980469 122.792969 138.492188 C 122.792969 138.746094 122.535156 139.003906 122.535156 139.003906 C 118.429688 142.339844 115.867188 147.210938 115.867188 152.335938 C 115.867188 156.4375 117.410156 160.285156 119.972656 163.363281 C 116.894531 160.800781 113.308594 159.261719 108.945312 159.261719 C 103.5625 159.261719 98.695312 161.566406 95.613281 165.921875 C 95.613281 165.921875 95.359375 166.183594 94.847656 166.183594 C 94.332031 166.183594 94.078125 165.921875 94.078125 165.410156 Z M 87.925781 53.890625 C 87.925781 53.890625 87.925781 82.34375 87.925781 82.34375 C 88.4375 85.9375 91.511719 88.757812 95.101562 88.757812 C 97.410156 88.757812 99.460938 87.730469 100.742188 85.9375 C 102.796875 83.371094 105.871094 81.835938 108.945312 81.835938 C 114.84375 81.835938 119.457031 86.445312 119.457031 92.347656 C 119.457031 98.242188 114.84375 102.859375 108.945312 102.859375 C 105.617188 102.859375 102.539062 101.316406 100.488281 98.753906 C 99.203125 96.960938 96.894531 95.933594 94.847656 95.933594 C 91.257812 95.933594 87.925781 98.753906 87.667969 102.34375 C 87.667969 102.34375 87.667969 131.058594 87.667969 131.058594 L 59.464844 131.058594 C 59.210938 131.058594 58.699219 130.800781 58.699219 130.289062 C 58.699219 130.035156 58.953125 129.777344 58.953125 129.777344 C 63.054688 126.441406 65.621094 121.570312 65.621094 116.445312 C 65.621094 107.214844 57.925781 99.523438 48.695312 99.523438 C 39.472656 99.523438 31.777344 107.214844 31.777344 116.445312 C 31.777344 121.828125 34.089844 126.699219 38.445312 129.777344 C 38.699219 129.777344 38.699219 130.035156 38.699219 130.542969 C 38.699219 131.058594 38.445312 131.316406 37.929688 131.316406 L 10.242188 131.316406 L 10.242188 53.890625 Z M 10.242188 137.722656 L 38.445312 137.722656 C 38.445312 137.722656 38.699219 137.722656 38.699219 137.722656 C 42.546875 137.210938 45.109375 134.136719 45.109375 130.542969 C 45.109375 128.234375 44.085938 126.1875 42.292969 124.90625 C 39.726562 122.851562 38.191406 119.777344 38.191406 116.703125 C 38.191406 110.800781 42.800781 106.191406 48.695312 106.191406 C 54.597656 106.191406 59.210938 110.800781 59.210938 116.703125 C 59.210938 120.03125 57.671875 123.113281 55.109375 125.160156 C 53.316406 126.699219 52.289062 128.75 52.289062 130.800781 C 52.289062 134.644531 55.109375 137.722656 58.699219 137.980469 C 58.699219 137.980469 58.953125 137.980469 58.953125 137.980469 L 87.667969 137.980469 C 87.667969 137.980469 87.667969 166.4375 87.667969 166.4375 C 88.183594 170.285156 91.257812 173.105469 94.847656 173.105469 C 97.15625 173.105469 99.203125 172.078125 100.488281 170.285156 C 102.539062 167.71875 105.617188 166.183594 108.691406 166.183594 C 114.589844 166.183594 119.203125 170.796875 119.203125 176.695312 C 119.203125 179.515625 118.175781 182.078125 116.128906 184.128906 C 114.074219 186.179688 111.511719 187.203125 108.691406 187.203125 C 105.359375 187.203125 102.28125 185.664062 100.230469 183.101562 C 98.949219 181.308594 96.894531 180.28125 94.59375 180.28125 C 91 180.28125 87.667969 183.101562 87.410156 186.691406 C 87.410156 186.691406 87.410156 215.148438 87.410156 215.148438 L 10.242188 215.148438 Z M 171.757812 215.148438 L 94.332031 215.148438 L 94.332031 187.203125 C 94.332031 186.945312 94.59375 186.4375 95.101562 186.4375 C 95.359375 186.4375 95.613281 186.691406 95.875 186.691406 C 99.203125 190.792969 104.078125 193.359375 109.207031 193.359375 C 113.820312 193.359375 117.921875 191.5625 121.25 188.484375 C 124.585938 185.410156 126.125 181.050781 126.125 176.433594 C 126.125 172.332031 124.585938 168.230469 122.023438 165.410156 C 125.097656 167.976562 128.945312 169.511719 133.046875 169.511719 C 137.664062 169.511719 141.765625 167.71875 145.09375 164.644531 C 148.175781 161.566406 149.96875 157.207031 149.96875 152.59375 C 149.96875 147.210938 147.660156 142.339844 143.300781 139.261719 C 143.046875 139.261719 143.046875 139.003906 143.046875 138.492188 C 143.046875 138.238281 143.300781 137.980469 143.300781 137.722656 L 171.503906 137.722656 Z M 171.757812 215.148438 " fill-opacity="1" fill-rule="nonzero"/></g><path fill="#cc0000" d="M 90.800781 91.253906 C 91.066406 92.144531 91.355469 93.15625 91.671875 94.277344 C 91.972656 95.359375 92.304688 96.484375 92.652344 97.640625 L 93.722656 101.171875 C 94.074219 102.304688 94.417969 103.359375 94.746094 104.328125 L 90.738281 105.695312 L 86.636719 104.648438 C 86.910156 103.589844 87.183594 102.4375 87.460938 101.183594 C 87.742188 99.945312 88.007812 98.664062 88.257812 97.339844 L 89.007812 93.238281 C 89.253906 91.898438 89.484375 90.597656 89.691406 89.347656 L 90.292969 85.824219 L 104.257812 85.824219 L 103.242188 90.890625 C 102.476562 94.699219 101.59375 98.566406 100.597656 102.480469 C 99.597656 106.425781 98.507812 110.171875 97.339844 113.726562 L 96.382812 116.636719 L 85.742188 116.636719 L 84.730469 113.851562 C 83.957031 111.730469 83.203125 109.5 82.472656 107.167969 C 81.761719 104.886719 81.058594 102.601562 80.363281 100.308594 L 84.417969 99.085938 L 88.46875 100.3125 L 86.40625 107.128906 C 85.691406 109.476562 84.949219 111.714844 84.167969 113.851562 L 83.15625 116.636719 L 72.519531 116.636719 L 71.5625 113.726562 C 70.390625 110.171875 69.304688 106.425781 68.304688 102.480469 C 67.308594 98.566406 66.429688 94.699219 65.664062 90.890625 L 64.640625 85.824219 L 78.835938 85.824219 L 79.433594 89.347656 C 79.644531 90.589844 79.875 91.878906 80.128906 93.21875 C 80.382812 94.566406 80.648438 95.917969 80.921875 97.273438 C 81.195312 98.621094 81.476562 99.925781 81.757812 101.183594 C 82.035156 102.410156 82.316406 103.539062 82.597656 104.574219 L 78.515625 105.695312 L 74.542969 104.238281 C 74.90625 103.253906 75.257812 102.203125 75.601562 101.09375 C 75.960938 99.929688 76.308594 98.769531 76.644531 97.613281 C 76.976562 96.460938 77.289062 95.355469 77.566406 94.292969 C 77.867188 93.179688 78.128906 92.191406 78.371094 91.320312 L 79.226562 88.207031 L 89.910156 88.207031 Z M 82.679688 93.632812 L 86.742188 92.441406 L 86.742188 96.675781 L 82.449219 96.675781 L 82.449219 92.441406 L 86.535156 93.5625 C 86.300781 94.414062 86.042969 95.375 85.753906 96.460938 C 85.457031 97.589844 85.125 98.761719 84.773438 99.976562 C 84.425781 101.179688 84.0625 102.386719 83.691406 103.589844 C 83.300781 104.84375 82.902344 106.035156 82.492188 107.152344 L 77.933594 119.5625 L 74.4375 106.816406 C 74.117188 105.660156 73.804688 104.398438 73.5 103.042969 C 73.207031 101.726562 72.914062 100.363281 72.625 98.960938 C 72.34375 97.566406 72.074219 96.175781 71.808594 94.792969 C 71.546875 93.398438 71.304688 92.058594 71.089844 90.761719 L 75.257812 90.054688 L 75.257812 94.285156 L 69.808594 94.285156 L 69.808594 90.054688 L 73.957031 89.21875 C 74.699219 92.894531 75.546875 96.617188 76.507812 100.394531 C 77.460938 104.148438 78.492188 107.710938 79.601562 111.078125 L 75.585938 112.402344 L 75.585938 108.171875 L 80.191406 108.171875 L 80.191406 112.402344 L 76.214844 110.953125 C 76.941406 108.960938 77.636719 106.871094 78.300781 104.679688 L 84.425781 84.453125 L 88.46875 97.859375 C 89.152344 100.125 89.851562 102.386719 90.554688 104.640625 C 91.242188 106.847656 91.953125 108.953125 92.683594 110.953125 L 88.707031 112.402344 L 88.707031 108.171875 L 93.320312 108.171875 L 93.320312 112.402344 L 89.296875 111.078125 C 90.40625 107.710938 91.4375 104.148438 92.394531 100.394531 C 93.351562 96.617188 94.203125 92.894531 94.941406 89.21875 L 99.09375 90.054688 L 99.09375 94.285156 L 93.867188 94.285156 L 93.867188 90.054688 L 98.039062 90.761719 C 97.820312 92.046875 97.589844 93.382812 97.339844 94.773438 L 96.578125 98.894531 C 96.308594 100.320312 96.023438 101.707031 95.722656 103.042969 C 95.425781 104.371094 95.132812 105.605469 94.839844 106.742188 L 91.324219 120.542969 L 86.734375 107.0625 C 86.375 106.011719 86.007812 104.875 85.628906 103.636719 L 84.539062 100.074219 C 84.179688 98.871094 83.839844 97.699219 83.519531 96.570312 C 83.210938 95.476562 82.933594 94.496094 82.679688 93.632812 Z M 82.679688 93.632812 " fill-opacity="1" fill-rule="nonzero"/><path fill="#cc0000" d="M 121.023438 103.886719 C 121.023438 105.699219 120.75 107.386719 120.203125 108.945312 C 119.621094 110.613281 118.765625 112.054688 117.625 113.273438 C 116.484375 114.5 115.125 115.445312 113.542969 116.109375 C 112 116.761719 110.304688 117.085938 108.464844 117.085938 C 106.648438 117.085938 104.96875 116.761719 103.421875 116.109375 C 101.847656 115.445312 100.484375 114.5 99.34375 113.273438 C 98.222656 112.074219 97.363281 110.652344 96.753906 109.015625 C 96.175781 107.433594 95.882812 105.726562 95.882812 103.886719 C 95.882812 102.035156 96.183594 100.316406 96.792969 98.730469 C 97.414062 97.105469 98.292969 95.699219 99.429688 94.507812 C 100.574219 93.316406 101.929688 92.390625 103.488281 91.730469 C 105.035156 91.082031 106.695312 90.757812 108.464844 90.757812 C 110.265625 90.757812 111.9375 91.082031 113.484375 91.730469 C 115.046875 92.390625 116.40625 93.324219 117.542969 94.53125 C 118.667969 95.722656 119.535156 97.132812 120.144531 98.769531 C 120.730469 100.339844 121.023438 102.050781 121.023438 103.886719 Z M 112.554688 103.886719 C 112.554688 103.066406 112.441406 102.339844 112.210938 101.722656 C 112 101.160156 111.726562 100.703125 111.386719 100.34375 C 111.066406 100.003906 110.667969 99.734375 110.195312 99.535156 C 109.703125 99.328125 109.125 99.21875 108.464844 99.21875 C 107.835938 99.21875 107.269531 99.328125 106.777344 99.535156 C 106.292969 99.738281 105.878906 100.015625 105.542969 100.367188 C 105.195312 100.730469 104.914062 101.195312 104.699219 101.757812 C 104.46875 102.363281 104.351562 103.074219 104.351562 103.886719 C 104.351562 104.71875 104.46875 105.449219 104.699219 106.085938 C 104.914062 106.660156 105.191406 107.128906 105.535156 107.503906 C 105.855469 107.847656 106.246094 108.117188 106.710938 108.3125 C 107.203125 108.519531 107.792969 108.621094 108.464844 108.621094 C 109.167969 108.621094 109.761719 108.519531 110.257812 108.3125 C 110.722656 108.117188 111.113281 107.847656 111.433594 107.503906 C 111.761719 107.148438 112.019531 106.703125 112.210938 106.15625 C 112.441406 105.5 112.554688 104.742188 112.554688 103.886719 Z M 107.652344 103.886719 C 107.652344 103.5 107.625 103.183594 107.5625 102.941406 C 107.546875 102.878906 107.527344 102.828125 107.515625 102.792969 C 107.507812 102.789062 107.507812 102.78125 107.507812 102.78125 C 107.515625 102.792969 107.519531 102.800781 107.527344 102.8125 C 107.640625 102.972656 107.800781 103.109375 108.019531 103.214844 C 108.195312 103.304688 108.34375 103.347656 108.464844 103.347656 C 108.585938 103.347656 108.730469 103.308594 108.902344 103.21875 C 109.109375 103.117188 109.265625 102.992188 109.371094 102.839844 C 109.382812 102.828125 109.386719 102.820312 109.390625 102.8125 L 109.390625 102.816406 C 109.371094 102.851562 109.359375 102.898438 109.34375 102.960938 C 109.28125 103.195312 109.25 103.507812 109.25 103.886719 C 109.25 104.273438 109.285156 104.589844 109.34375 104.835938 C 109.363281 104.90625 109.382812 104.960938 109.398438 105.003906 C 109.40625 105.011719 109.40625 105.015625 109.410156 105.023438 C 109.410156 105.023438 109.40625 105.015625 109.40625 105.011719 C 109.300781 104.863281 109.144531 104.738281 108.941406 104.632812 C 108.757812 104.539062 108.601562 104.492188 108.464844 104.492188 C 108.332031 104.492188 108.167969 104.542969 107.984375 104.636719 C 107.769531 104.746094 107.605469 104.882812 107.5 105.046875 C 107.515625 105.023438 107.53125 104.957031 107.5625 104.855469 C 107.621094 104.605469 107.652344 104.285156 107.652344 103.886719 Z M 116.121094 103.886719 C 116.121094 106.238281 115.578125 108.207031 114.5 109.796875 C 113.804688 110.828125 112.925781 111.613281 111.867188 112.160156 C 110.835938 112.695312 109.703125 112.960938 108.464844 112.960938 C 107.238281 112.960938 106.109375 112.695312 105.078125 112.167969 C 104.019531 111.628906 103.144531 110.847656 102.441406 109.828125 C 101.335938 108.230469 100.785156 106.253906 100.785156 103.886719 C 100.785156 101.503906 101.34375 99.527344 102.46875 97.941406 C 103.175781 96.945312 104.058594 96.175781 105.117188 95.648438 C 106.132812 95.136719 107.253906 94.886719 108.464844 94.886719 C 109.6875 94.886719 110.808594 95.140625 111.824219 95.652344 C 112.890625 96.1875 113.769531 96.960938 114.472656 97.96875 C 115.570312 99.550781 116.121094 101.519531 116.121094 103.886719 Z M 116.121094 103.886719 " fill-opacity="1" fill-rule="nonzero"/><path fill="#cc0000" d="M 129.691406 103.804688 C 129.320312 103.710938 128.871094 103.609375 128.355469 103.507812 C 128.054688 103.441406 127.710938 103.414062 127.332031 103.414062 C 127.210938 103.414062 127.027344 103.429688 126.785156 103.460938 C 126.65625 103.476562 126.550781 103.492188 126.472656 103.507812 C 126.453125 103.511719 126.441406 103.511719 126.433594 103.515625 C 126.457031 103.511719 126.480469 103.503906 126.511719 103.492188 L 125.296875 99.4375 L 129.53125 99.4375 L 129.53125 116.636719 L 116.261719 116.636719 L 116.261719 93.339844 L 119.09375 92.351562 C 120.101562 91.996094 121.269531 91.667969 122.59375 91.363281 C 124.078125 91.019531 125.699219 90.855469 127.460938 90.855469 C 127.839844 90.855469 128.277344 90.871094 128.765625 90.917969 C 129.210938 90.957031 129.65625 91.007812 130.105469 91.078125 C 130.550781 91.140625 130.996094 91.222656 131.441406 91.308594 C 132.074219 91.4375 132.640625 91.609375 133.152344 91.824219 L 136.359375 93.164062 L 133.984375 104.878906 Z M 131.742188 95.59375 L 130.71875 99.699219 L 126.570312 98.851562 L 127.371094 94.886719 L 131.519531 95.730469 L 129.894531 99.636719 C 129.902344 99.644531 129.917969 99.648438 129.921875 99.648438 C 129.917969 99.648438 129.914062 99.648438 129.902344 99.644531 C 129.859375 99.628906 129.800781 99.613281 129.730469 99.601562 C 129.445312 99.546875 129.160156 99.492188 128.871094 99.453125 C 128.589844 99.410156 128.304688 99.375 128.023438 99.351562 C 127.78125 99.328125 127.589844 99.316406 127.460938 99.316406 C 126.335938 99.316406 125.347656 99.414062 124.488281 99.613281 C 123.464844 99.847656 122.601562 100.089844 121.890625 100.339844 L 120.492188 96.34375 L 124.722656 96.34375 L 124.722656 112.402344 L 120.492188 112.402344 L 120.492188 108.171875 L 125.296875 108.171875 L 125.296875 112.402344 L 121.0625 112.402344 L 121.0625 96.289062 L 124.082031 95.382812 C 124.519531 95.253906 125.0625 95.144531 125.710938 95.0625 C 126.308594 94.988281 126.847656 94.945312 127.332031 94.945312 C 128.277344 94.945312 129.183594 95.035156 130.042969 95.210938 C 130.683594 95.339844 131.25 95.464844 131.742188 95.59375 Z M 131.742188 95.59375 " fill-opacity="1" fill-rule="nonzero"/><g clip-path="url(#3bf2634edb)"><path fill="#cc0000" d="M 142.105469 103.789062 C 142.105469 104.148438 142.136719 104.4375 142.199219 104.660156 C 142.226562 104.757812 142.253906 104.820312 142.277344 104.859375 C 142.175781 104.722656 142.039062 104.613281 141.871094 104.539062 C 141.816406 104.511719 141.769531 104.496094 141.730469 104.488281 C 141.746094 104.492188 141.785156 104.492188 141.839844 104.492188 C 142.140625 104.492188 142.417969 104.484375 142.65625 104.460938 C 142.894531 104.441406 143.066406 104.421875 143.179688 104.398438 L 143.933594 108.566406 L 139.703125 108.566406 L 139.703125 99.824219 L 143.933594 99.824219 L 141.644531 103.386719 C 141.710938 103.429688 141.765625 103.457031 141.804688 103.476562 C 141.78125 103.464844 141.734375 103.453125 141.667969 103.433594 C 141.539062 103.402344 141.414062 103.382812 141.292969 103.382812 L 141.296875 103.378906 C 141.371094 103.363281 141.453125 103.335938 141.539062 103.292969 C 141.785156 103.183594 141.984375 103.023438 142.132812 102.820312 C 142.175781 102.765625 142.207031 102.714844 142.226562 102.671875 C 142.214844 102.691406 142.207031 102.722656 142.199219 102.769531 C 142.132812 103.019531 142.105469 103.359375 142.105469 103.789062 Z M 133.636719 103.789062 C 133.636719 101.320312 134.199219 99.320312 135.316406 97.796875 C 136.039062 96.820312 136.949219 96.078125 138.050781 95.582031 C 139.03125 95.136719 140.113281 94.914062 141.292969 94.914062 C 142.15625 94.914062 143.007812 95.03125 143.847656 95.253906 C 144.757812 95.496094 145.550781 95.832031 146.226562 96.265625 L 148.167969 97.515625 L 148.167969 112.097656 L 144.691406 112.726562 C 144.324219 112.796875 143.898438 112.847656 143.40625 112.894531 C 142.914062 112.9375 142.394531 112.960938 141.839844 112.960938 C 140.566406 112.960938 139.40625 112.71875 138.355469 112.242188 C 137.195312 111.710938 136.234375 110.925781 135.46875 109.886719 C 134.25 108.238281 133.636719 106.207031 133.636719 103.789062 Z M 149.957031 115.910156 C 149.410156 116.074219 148.804688 116.226562 148.128906 116.367188 C 147.480469 116.503906 146.796875 116.625 146.085938 116.722656 C 145.398438 116.820312 144.695312 116.898438 143.984375 116.960938 C 143.234375 117.023438 142.503906 117.054688 141.808594 117.054688 C 139.898438 117.054688 138.160156 116.761719 136.585938 116.175781 C 134.90625 115.546875 133.46875 114.632812 132.277344 113.425781 C 131.09375 112.226562 130.199219 110.796875 129.589844 109.132812 C 129.023438 107.578125 128.734375 105.871094 128.734375 104.019531 C 128.734375 102.214844 128.972656 100.554688 129.441406 99.039062 C 129.953125 97.394531 130.710938 95.96875 131.71875 94.761719 C 132.792969 93.472656 134.097656 92.492188 135.644531 91.820312 C 137.121094 91.175781 138.753906 90.855469 140.546875 90.855469 C 141.558594 90.855469 142.484375 90.957031 143.34375 91.167969 C 144.113281 91.355469 144.875 91.617188 145.640625 91.953125 L 143.933594 95.828125 L 139.703125 95.828125 L 139.703125 84.546875 L 152.96875 82.410156 L 152.96875 115.003906 Z M 147.519531 107.800781 L 148.738281 111.855469 L 144.507812 111.855469 L 144.507812 87.378906 L 148.738281 87.378906 L 149.410156 91.554688 L 144.609375 92.332031 L 143.933594 88.148438 L 148.167969 88.148438 L 148.167969 102.3125 L 142.230469 99.703125 C 141.917969 99.5625 141.617188 99.460938 141.328125 99.390625 C 141.132812 99.339844 140.875 99.316406 140.546875 99.316406 C 139.933594 99.316406 139.429688 99.40625 139.035156 99.578125 C 138.710938 99.71875 138.441406 99.921875 138.222656 100.179688 C 137.9375 100.523438 137.707031 100.980469 137.527344 101.546875 C 137.3125 102.25 137.203125 103.070312 137.203125 104.019531 C 137.203125 104.875 137.316406 105.605469 137.539062 106.226562 C 137.730469 106.734375 137.984375 107.152344 138.304688 107.480469 C 138.621094 107.800781 139.03125 108.050781 139.539062 108.242188 C 140.164062 108.472656 140.914062 108.589844 141.808594 108.589844 C 142.265625 108.589844 142.753906 108.566406 143.269531 108.523438 C 143.828125 108.476562 144.371094 108.417969 144.910156 108.339844 C 145.425781 108.269531 145.914062 108.179688 146.378906 108.082031 C 146.824219 107.988281 147.207031 107.898438 147.519531 107.800781 Z M 147.519531 107.800781 " fill-opacity="1" fill-rule="nonzero"/></g><g clip-path="url(#9928baa9ed)"><path fill="#cc0000" d="M 50.464844 130.140625 C 54.640625 130.140625 57.976562 130.957031 60.464844 132.59375 C 62.027344 133.621094 63.203125 134.976562 63.988281 136.667969 C 64.699219 138.191406 65.050781 139.933594 65.050781 141.890625 C 65.050781 143.859375 64.695312 145.609375 63.976562 147.148438 C 63.191406 148.839844 62.011719 150.203125 60.441406 151.238281 C 57.929688 152.902344 54.570312 153.734375 50.371094 153.734375 L 48.789062 153.734375 L 48.789062 149.496094 L 53.023438 149.496094 L 53.023438 161.214844 L 39.527344 161.214844 L 39.527344 131.46875 L 42.945312 130.800781 C 44.210938 130.554688 45.546875 130.378906 46.945312 130.28125 C 48.269531 130.1875 49.445312 130.140625 50.464844 130.140625 Z M 50.464844 138.609375 C 49.644531 138.609375 48.667969 138.648438 47.539062 138.726562 C 46.488281 138.800781 45.5 138.929688 44.574219 139.109375 L 43.757812 134.953125 L 47.992188 134.953125 L 47.992188 156.980469 L 43.757812 156.980469 L 43.757812 152.75 L 48.789062 152.75 L 48.789062 156.980469 L 44.554688 156.980469 L 44.554688 145.265625 L 50.371094 145.265625 C 51.722656 145.265625 52.890625 145.15625 53.867188 144.925781 C 54.660156 144.746094 55.296875 144.496094 55.773438 144.179688 C 56.011719 144.019531 56.1875 143.820312 56.304688 143.574219 C 56.488281 143.171875 56.585938 142.609375 56.585938 141.890625 C 56.585938 141.179688 56.496094 140.628906 56.3125 140.234375 C 56.203125 140.003906 56.039062 139.816406 55.820312 139.667969 C 55.351562 139.363281 54.726562 139.121094 53.941406 138.9375 C 52.972656 138.714844 51.8125 138.609375 50.464844 138.609375 Z M 50.789062 142.898438 C 50.511719 142.898438 50.234375 142.90625 49.964844 142.921875 C 49.644531 142.9375 49.367188 142.960938 49.140625 142.980469 L 48.789062 138.761719 L 53.023438 138.761719 L 53.023438 145.210938 L 48.789062 145.210938 L 48.789062 140.976562 L 50.371094 140.976562 C 50.992188 140.976562 51.5 140.941406 51.910156 140.867188 C 52.050781 140.84375 52.164062 140.816406 52.257812 140.785156 C 52.285156 140.773438 52.304688 140.769531 52.320312 140.765625 C 52.320312 140.765625 52.3125 140.765625 52.304688 140.769531 C 51.957031 140.960938 51.691406 141.234375 51.511719 141.589844 C 51.453125 141.707031 51.417969 141.808594 51.394531 141.90625 C 51.394531 141.917969 51.390625 141.925781 51.390625 141.929688 C 51.394531 141.910156 51.394531 141.890625 51.394531 141.855469 C 51.394531 141.835938 51.394531 141.828125 51.394531 141.828125 C 51.394531 141.847656 51.398438 141.875 51.410156 141.90625 C 51.441406 142.050781 51.496094 142.199219 51.585938 142.359375 C 51.730469 142.621094 51.929688 142.828125 52.171875 142.972656 C 52.214844 143 52.25 143.011719 52.273438 143.023438 C 52.238281 143.007812 52.1875 143 52.117188 142.988281 C 51.738281 142.929688 51.296875 142.898438 50.789062 142.898438 Z M 50.789062 134.433594 C 51.746094 134.433594 52.632812 134.5 53.460938 134.628906 C 54.589844 134.808594 55.59375 135.164062 56.472656 135.679688 C 57.554688 136.320312 58.394531 137.179688 58.992188 138.261719 C 59.570312 139.304688 59.859375 140.503906 59.859375 141.855469 C 59.859375 143.167969 59.601562 144.339844 59.082031 145.378906 C 58.460938 146.617188 57.535156 147.570312 56.304688 148.230469 C 54.800781 149.039062 52.820312 149.441406 50.371094 149.441406 L 44.554688 149.441406 L 44.554688 134.867188 L 48.441406 134.542969 C 48.726562 134.515625 49.066406 134.492188 49.453125 134.46875 C 49.894531 134.441406 50.339844 134.433594 50.789062 134.433594 Z M 50.789062 134.433594 " fill-opacity="1" fill-rule="nonzero"/></g><path fill="#cc0000" d="M 73.398438 148.382812 C 73.027344 148.289062 72.582031 148.1875 72.066406 148.085938 C 71.761719 148.019531 71.417969 147.992188 71.039062 147.992188 C 70.917969 147.992188 70.734375 148.007812 70.496094 148.039062 C 70.363281 148.054688 70.257812 148.070312 70.179688 148.085938 C 70.160156 148.089844 70.152344 148.089844 70.140625 148.09375 C 70.164062 148.089844 70.1875 148.082031 70.21875 148.070312 L 69.003906 144.015625 L 73.238281 144.015625 L 73.238281 161.214844 L 59.96875 161.214844 L 59.96875 137.917969 L 62.800781 136.929688 C 63.808594 136.574219 64.976562 136.246094 66.300781 135.941406 C 67.785156 135.597656 69.40625 135.433594 71.167969 135.433594 C 71.550781 135.433594 71.984375 135.449219 72.472656 135.496094 C 72.917969 135.535156 73.367188 135.585938 73.8125 135.65625 C 74.257812 135.71875 74.703125 135.800781 75.148438 135.886719 C 75.78125 136.015625 76.347656 136.1875 76.859375 136.402344 L 80.066406 137.742188 L 77.691406 149.457031 Z M 75.449219 140.171875 L 74.425781 144.277344 L 70.277344 143.429688 L 71.078125 139.464844 L 75.226562 140.308594 L 73.601562 144.214844 C 73.613281 144.222656 73.625 144.226562 73.628906 144.226562 C 73.625 144.226562 73.621094 144.226562 73.613281 144.222656 C 73.566406 144.207031 73.507812 144.191406 73.441406 144.179688 C 73.152344 144.125 72.867188 144.070312 72.582031 144.03125 C 72.296875 143.988281 72.011719 143.953125 71.730469 143.929688 C 71.488281 143.90625 71.296875 143.894531 71.167969 143.894531 C 70.042969 143.894531 69.054688 143.992188 68.195312 144.191406 C 67.171875 144.425781 66.308594 144.667969 65.597656 144.917969 L 64.199219 140.921875 L 68.433594 140.921875 L 68.433594 156.980469 L 64.199219 156.980469 L 64.199219 152.75 L 69.003906 152.75 L 69.003906 156.980469 L 64.773438 156.980469 L 64.773438 140.867188 L 67.789062 139.960938 C 68.226562 139.832031 68.769531 139.722656 69.417969 139.640625 C 70.015625 139.566406 70.554688 139.523438 71.039062 139.523438 C 71.984375 139.523438 72.890625 139.613281 73.75 139.789062 C 74.390625 139.917969 74.957031 140.042969 75.449219 140.171875 Z M 75.449219 140.171875 " fill-opacity="1" fill-rule="nonzero"/><path fill="#cc0000" d="M 97.582031 148.464844 C 97.582031 150.277344 97.308594 151.964844 96.765625 153.523438 C 96.179688 155.191406 95.324219 156.632812 94.1875 157.851562 C 93.042969 159.078125 91.683594 160.023438 90.105469 160.6875 C 88.5625 161.339844 86.867188 161.664062 85.027344 161.664062 C 83.210938 161.664062 81.53125 161.339844 79.984375 160.6875 C 78.40625 160.023438 77.046875 159.078125 75.902344 157.851562 C 74.785156 156.652344 73.925781 155.230469 73.316406 153.59375 C 72.734375 152.011719 72.441406 150.304688 72.441406 148.464844 C 72.441406 146.613281 72.746094 144.894531 73.355469 143.308594 C 73.976562 141.683594 74.855469 140.277344 75.992188 139.085938 C 77.136719 137.894531 78.492188 136.96875 80.046875 136.308594 C 81.59375 135.660156 83.257812 135.335938 85.027344 135.335938 C 86.824219 135.335938 88.496094 135.660156 90.042969 136.308594 C 91.609375 136.96875 92.964844 137.902344 94.105469 139.109375 C 95.226562 140.300781 96.097656 141.710938 96.707031 143.347656 C 97.289062 144.917969 97.582031 146.628906 97.582031 148.464844 Z M 89.113281 148.464844 C 89.113281 147.644531 89.003906 146.917969 88.769531 146.300781 C 88.5625 145.738281 88.289062 145.28125 87.949219 144.921875 C 87.628906 144.582031 87.230469 144.3125 86.753906 144.113281 C 86.261719 143.90625 85.6875 143.796875 85.027344 143.796875 C 84.394531 143.796875 83.828125 143.90625 83.335938 144.113281 C 82.851562 144.316406 82.441406 144.59375 82.105469 144.945312 C 81.757812 145.308594 81.472656 145.773438 81.261719 146.335938 C 81.027344 146.941406 80.910156 147.652344 80.910156 148.464844 C 80.910156 149.296875 81.027344 150.027344 81.261719 150.664062 C 81.472656 151.238281 81.753906 151.707031 82.097656 152.082031 C 82.417969 152.425781 82.808594 152.695312 83.269531 152.890625 C 83.765625 153.097656 84.355469 153.199219 85.027344 153.199219 C 85.730469 153.199219 86.324219 153.097656 86.820312 152.890625 C 87.285156 152.695312 87.675781 152.425781 87.996094 152.082031 C 88.320312 151.726562 88.582031 151.28125 88.769531 150.734375 C 89.003906 150.078125 89.113281 149.320312 89.113281 148.464844 Z M 84.214844 148.464844 C 84.214844 148.078125 84.1875 147.761719 84.121094 147.519531 C 84.109375 147.457031 84.089844 147.40625 84.074219 147.371094 C 84.070312 147.367188 84.070312 147.359375 84.070312 147.359375 C 84.074219 147.371094 84.078125 147.378906 84.089844 147.390625 C 84.199219 147.550781 84.363281 147.6875 84.582031 147.792969 C 84.757812 147.882812 84.90625 147.925781 85.027344 147.925781 C 85.148438 147.925781 85.292969 147.886719 85.464844 147.796875 C 85.667969 147.695312 85.828125 147.570312 85.933594 147.417969 C 85.941406 147.40625 85.945312 147.398438 85.953125 147.390625 L 85.953125 147.394531 C 85.933594 147.429688 85.917969 147.476562 85.90625 147.539062 C 85.839844 147.773438 85.8125 148.085938 85.8125 148.464844 C 85.8125 148.851562 85.84375 149.167969 85.90625 149.414062 C 85.921875 149.484375 85.941406 149.539062 85.960938 149.582031 C 85.964844 149.589844 85.964844 149.59375 85.96875 149.601562 C 85.96875 149.601562 85.964844 149.59375 85.964844 149.589844 C 85.863281 149.441406 85.707031 149.316406 85.5 149.210938 C 85.320312 149.117188 85.160156 149.070312 85.027344 149.070312 C 84.890625 149.070312 84.730469 149.121094 84.542969 149.214844 C 84.332031 149.324219 84.167969 149.460938 84.0625 149.625 C 84.074219 149.601562 84.09375 149.535156 84.121094 149.433594 C 84.183594 149.183594 84.214844 148.863281 84.214844 148.464844 Z M 92.683594 148.464844 C 92.683594 150.816406 92.140625 152.785156 91.0625 154.375 C 90.363281 155.40625 89.488281 156.191406 88.425781 156.738281 C 87.394531 157.273438 86.261719 157.539062 85.027344 157.539062 C 83.800781 157.539062 82.671875 157.273438 81.640625 156.746094 C 80.582031 156.207031 79.703125 155.425781 79.003906 154.40625 C 77.898438 152.808594 77.34375 150.832031 77.34375 148.464844 C 77.34375 146.082031 77.90625 144.105469 79.03125 142.519531 C 79.734375 141.523438 80.617188 140.753906 81.679688 140.226562 C 82.695312 139.714844 83.816406 139.464844 85.027344 139.464844 C 86.25 139.464844 87.367188 139.71875 88.386719 140.230469 C 89.449219 140.765625 90.332031 141.539062 91.035156 142.546875 C 92.128906 144.128906 92.683594 146.097656 92.683594 148.464844 Z M 92.683594 148.464844 " fill-opacity="1" fill-rule="nonzero"/><path fill="#cc0000" d="M 103.6875 148.367188 C 103.6875 147.9375 103.660156 147.597656 103.597656 147.347656 C 103.585938 147.300781 103.574219 147.269531 103.570312 147.25 C 103.585938 147.292969 103.617188 147.34375 103.660156 147.398438 C 103.808594 147.601562 104.007812 147.761719 104.253906 147.871094 C 104.34375 147.914062 104.421875 147.941406 104.5 147.957031 L 104.503906 147.960938 C 104.378906 147.960938 104.253906 147.980469 104.128906 148.011719 C 104.058594 148.03125 104.015625 148.042969 103.988281 148.054688 C 104.03125 148.035156 104.082031 148.007812 104.148438 147.964844 L 101.855469 144.402344 L 106.09375 144.402344 L 106.09375 153.144531 L 101.855469 153.144531 L 102.613281 148.976562 C 102.726562 149 102.898438 149.019531 103.132812 149.039062 C 103.375 149.0625 103.648438 149.070312 103.957031 149.070312 C 104.007812 149.070312 104.042969 149.070312 104.0625 149.066406 C 104.027344 149.074219 103.976562 149.089844 103.925781 149.117188 C 103.753906 149.191406 103.617188 149.300781 103.515625 149.4375 C 103.542969 149.398438 103.566406 149.335938 103.59375 149.238281 C 103.660156 149.015625 103.6875 148.726562 103.6875 148.367188 Z M 112.15625 148.367188 C 112.15625 150.785156 111.546875 152.816406 110.324219 154.464844 C 109.558594 155.503906 108.597656 156.289062 107.4375 156.820312 C 106.386719 157.296875 105.222656 157.539062 103.957031 157.539062 C 103.398438 157.539062 102.878906 157.515625 102.390625 157.472656 C 101.894531 157.425781 101.464844 157.375 101.097656 157.304688 L 97.625 156.675781 L 97.625 142.09375 L 99.570312 140.84375 C 100.238281 140.410156 101.035156 140.074219 101.945312 139.832031 C 102.785156 139.609375 103.640625 139.492188 104.503906 139.492188 C 105.679688 139.492188 106.761719 139.714844 107.742188 140.160156 C 108.84375 140.65625 109.753906 141.394531 110.472656 142.375 C 111.59375 143.898438 112.15625 145.898438 112.15625 148.367188 Z M 117.054688 148.5 C 117.054688 150.351562 116.773438 152.058594 116.207031 153.617188 C 115.601562 155.285156 114.710938 156.726562 113.535156 157.933594 C 112.351562 159.152344 110.917969 160.085938 109.238281 160.726562 C 107.652344 161.328125 105.90625 161.632812 103.988281 161.632812 C 103.289062 161.632812 102.5625 161.601562 101.804688 161.539062 C 101.09375 161.476562 100.394531 161.398438 99.707031 161.300781 C 98.996094 161.203125 98.316406 161.082031 97.660156 160.945312 C 96.988281 160.804688 96.378906 160.652344 95.835938 160.488281 L 92.820312 159.582031 L 92.820312 129.125 L 106.09375 126.988281 L 106.09375 140.40625 L 101.855469 140.40625 L 100.152344 136.53125 C 100.945312 136.183594 101.765625 135.914062 102.617188 135.726562 C 103.5 135.53125 104.429688 135.433594 105.40625 135.433594 C 107.222656 135.433594 108.867188 135.765625 110.347656 136.433594 C 111.882812 137.132812 113.171875 138.132812 114.21875 139.425781 C 115.1875 140.632812 115.917969 142.046875 116.394531 143.667969 C 116.835938 145.144531 117.054688 146.757812 117.054688 148.5 Z M 108.59375 148.5 C 108.59375 147.578125 108.484375 146.769531 108.28125 146.078125 C 108.117188 145.527344 107.898438 145.082031 107.625 144.738281 C 107.421875 144.484375 107.160156 144.289062 106.851562 144.144531 C 106.484375 143.980469 106 143.894531 105.40625 143.894531 C 105.046875 143.894531 104.730469 143.929688 104.453125 143.988281 C 104.140625 144.058594 103.84375 144.15625 103.5625 144.28125 L 97.625 146.890625 L 97.625 131.957031 L 101.855469 131.957031 L 102.53125 136.132812 L 97.726562 136.910156 L 97.054688 132.726562 L 101.285156 132.726562 L 101.285156 156.433594 L 97.054688 156.433594 L 98.269531 152.378906 C 98.585938 152.476562 98.96875 152.566406 99.414062 152.660156 C 99.878906 152.757812 100.367188 152.847656 100.882812 152.917969 C 101.421875 152.996094 101.964844 153.054688 102.519531 153.101562 C 103.035156 153.144531 103.523438 153.167969 103.988281 153.167969 C 104.863281 153.167969 105.605469 153.050781 106.214844 152.820312 C 106.730469 152.621094 107.148438 152.359375 107.46875 152.03125 C 107.796875 151.691406 108.058594 151.257812 108.25 150.734375 C 108.476562 150.101562 108.59375 149.359375 108.59375 148.5 Z M 108.59375 148.5 " fill-opacity="1" fill-rule="nonzero"/><path fill="#cc0000" d="M 123.234375 161.539062 C 121.417969 161.511719 119.871094 161.292969 118.601562 160.882812 C 117.085938 160.394531 115.832031 159.65625 114.839844 158.667969 C 113.785156 157.613281 113.070312 156.347656 112.699219 154.878906 C 112.429688 153.816406 112.296875 152.65625 112.296875 151.402344 L 112.296875 129.125 L 125.566406 126.988281 L 125.566406 150.4375 C 125.566406 150.601562 125.570312 150.730469 125.589844 150.816406 C 125.53125 150.492188 125.382812 150.179688 125.148438 149.878906 C 124.886719 149.542969 124.605469 149.308594 124.285156 149.167969 C 124.191406 149.125 124.117188 149.101562 124.0625 149.089844 C 124.109375 149.097656 124.1875 149.109375 124.289062 149.117188 L 128.933594 149.460938 L 126.863281 161.59375 Z M 123.363281 153.070312 L 123.300781 157.300781 L 119.128906 156.589844 L 119.800781 152.625 L 123.976562 153.339844 L 123.664062 157.558594 C 122.601562 157.476562 121.679688 157.269531 120.894531 156.925781 C 119.890625 156.484375 119.074219 155.863281 118.449219 155.054688 C 117.851562 154.28125 117.457031 153.386719 117.269531 152.378906 C 117.152344 151.773438 117.097656 151.128906 117.097656 150.4375 L 117.097656 131.957031 L 121.332031 131.957031 L 122.003906 136.132812 L 117.199219 136.910156 L 116.527344 132.726562 L 120.757812 132.726562 L 120.757812 151.402344 C 120.757812 151.949219 120.808594 152.417969 120.902344 152.796875 C 120.894531 152.761719 120.871094 152.726562 120.824219 152.683594 C 120.808594 152.664062 120.800781 152.65625 120.792969 152.652344 C 120.796875 152.65625 120.808594 152.660156 120.824219 152.671875 C 120.914062 152.722656 121.03125 152.773438 121.191406 152.824219 C 121.660156 152.972656 122.382812 153.054688 123.363281 153.070312 Z M 123.363281 153.070312 " fill-opacity="1" fill-rule="nonzero"/><path fill="#cc0000" d="M 121.675781 148.628906 C 121.675781 146.566406 122.015625 144.71875 122.683594 143.074219 C 123.359375 141.417969 124.277344 140.015625 125.433594 138.863281 C 126.597656 137.699219 127.941406 136.8125 129.464844 136.210938 C 130.941406 135.628906 132.464844 135.335938 134.035156 135.335938 C 135.769531 135.335938 137.351562 135.613281 138.796875 136.171875 C 140.339844 136.769531 141.675781 137.667969 142.816406 138.859375 C 144.984375 141.148438 146.070312 144.289062 146.070312 148.277344 C 146.070312 148.644531 146.058594 149.042969 146.03125 149.464844 C 146.007812 149.824219 145.984375 150.148438 145.960938 150.429688 L 145.640625 154.316406 L 130.84375 154.316406 L 130.84375 150.078125 L 135.046875 149.625 C 135.039062 149.511719 134.992188 149.390625 134.917969 149.261719 C 134.84375 149.136719 134.765625 149.042969 134.683594 148.980469 C 134.664062 148.972656 134.652344 148.964844 134.648438 148.964844 C 134.671875 148.972656 134.703125 148.980469 134.746094 148.996094 C 134.941406 149.046875 135.199219 149.070312 135.519531 149.070312 C 136.136719 149.070312 136.734375 149.015625 137.324219 148.902344 C 137.859375 148.800781 138.25 148.699219 138.492188 148.59375 L 143.480469 146.394531 L 145.523438 158.761719 L 142.730469 160.152344 C 142.257812 160.390625 141.6875 160.609375 141.023438 160.808594 C 140.445312 160.984375 139.816406 161.132812 139.136719 161.257812 C 138.503906 161.371094 137.835938 161.46875 137.128906 161.542969 C 136.378906 161.625 135.625 161.664062 134.871094 161.664062 C 132.804688 161.664062 130.953125 161.339844 129.320312 160.683594 C 127.617188 160.003906 126.175781 159.042969 125.011719 157.808594 C 123.835938 156.566406 122.972656 155.109375 122.421875 153.4375 C 121.925781 151.933594 121.675781 150.328125 121.675781 148.628906 Z M 130.144531 148.628906 C 130.144531 149.421875 130.25 150.140625 130.460938 150.785156 C 130.617188 151.261719 130.855469 151.667969 131.160156 151.992188 C 131.476562 152.328125 131.914062 152.605469 132.460938 152.824219 C 133.089844 153.074219 133.890625 153.199219 134.871094 153.199219 C 135.328125 153.199219 135.777344 153.175781 136.230469 153.125 C 136.726562 153.074219 137.1875 153.007812 137.609375 152.929688 C 137.984375 152.859375 138.308594 152.785156 138.59375 152.703125 C 138.789062 152.644531 138.910156 152.601562 138.945312 152.582031 L 140.839844 156.367188 L 136.664062 157.058594 L 136.019531 153.160156 L 140.195312 152.464844 L 141.902344 156.339844 C 141.070312 156.707031 140.070312 157 138.90625 157.222656 C 137.792969 157.433594 136.664062 157.539062 135.519531 157.539062 C 133.242188 157.539062 131.328125 156.984375 129.777344 155.886719 C 128.878906 155.242188 128.160156 154.46875 127.621094 153.558594 C 127.082031 152.644531 126.753906 151.632812 126.636719 150.539062 L 126.125 145.847656 L 141.742188 145.847656 L 141.742188 150.078125 L 137.523438 149.730469 C 137.542969 149.496094 137.5625 149.226562 137.585938 148.921875 C 137.597656 148.679688 137.609375 148.460938 137.609375 148.277344 C 137.609375 146.539062 137.296875 145.34375 136.675781 144.691406 C 136.410156 144.410156 136.097656 144.207031 135.742188 144.066406 C 135.28125 143.890625 134.714844 143.796875 134.035156 143.796875 C 133.542969 143.796875 133.054688 143.894531 132.578125 144.082031 C 132.140625 144.253906 131.753906 144.507812 131.417969 144.847656 C 131.066406 145.199219 130.765625 145.679688 130.519531 146.285156 C 130.269531 146.894531 130.144531 147.679688 130.144531 148.628906 Z M 132.96875 147.011719 C 132.96875 146.953125 132.953125 146.890625 132.941406 146.835938 C 132.980469 146.980469 133.0625 147.121094 133.167969 147.253906 C 133.292969 147.402344 133.421875 147.515625 133.566406 147.589844 C 133.71875 147.667969 133.867188 147.722656 134.011719 147.75 C 134.046875 147.761719 134.078125 147.765625 134.105469 147.765625 L 134.097656 147.765625 C 134.121094 147.765625 134.144531 147.761719 134.171875 147.753906 C 134.28125 147.734375 134.398438 147.691406 134.519531 147.636719 C 134.675781 147.5625 134.824219 147.445312 134.960938 147.285156 C 135.042969 147.1875 135.109375 147.085938 135.140625 146.984375 C 135.085938 147.136719 135.046875 147.296875 135.027344 147.449219 L 130.84375 146.789062 L 130.84375 142.558594 L 137.195312 142.558594 L 137.195312 146.789062 Z M 141.660156 151.019531 L 125.886719 151.019531 L 126.664062 146.128906 C 126.765625 145.46875 126.929688 144.820312 127.15625 144.179688 C 127.472656 143.28125 127.925781 142.484375 128.53125 141.777344 C 129.183594 141.019531 129.972656 140.421875 130.90625 139.980469 C 131.867188 139.527344 132.929688 139.300781 134.101562 139.300781 C 135.339844 139.300781 136.457031 139.550781 137.4375 140.058594 C 138.332031 140.519531 139.089844 141.128906 139.707031 141.878906 C 140.3125 142.613281 140.753906 143.441406 141.035156 144.359375 C 141.253906 145.082031 141.386719 145.8125 141.421875 146.566406 Z M 141.660156 151.019531 " fill-opacity="1" fill-rule="nonzero"/><path fill="#cc0000" d="M 150.628906 147.984375 C 150.628906 147.464844 150.601562 147.054688 150.550781 146.757812 C 150.539062 146.691406 150.527344 146.648438 150.523438 146.636719 C 150.550781 146.714844 150.597656 146.808594 150.664062 146.914062 C 150.90625 147.304688 151.234375 147.597656 151.648438 147.796875 C 151.878906 147.90625 152.070312 147.960938 152.21875 147.960938 C 152.0625 147.960938 151.890625 147.96875 151.703125 147.988281 C 151.441406 148.011719 151.1875 148.042969 150.945312 148.078125 L 150.347656 143.886719 L 154.582031 143.886719 L 154.582031 161.214844 L 141.3125 161.214844 L 141.3125 137.335938 L 144.464844 136.503906 C 144.933594 136.378906 145.472656 136.253906 146.085938 136.125 C 146.710938 135.988281 147.371094 135.863281 148.0625 135.757812 C 148.777344 135.644531 149.507812 135.558594 150.253906 135.492188 C 151.015625 135.433594 151.769531 135.398438 152.511719 135.398438 C 154.289062 135.398438 155.820312 135.660156 157.09375 136.179688 C 158.289062 136.667969 159.308594 137.28125 160.15625 138.019531 L 157.378906 141.210938 L 154.910156 137.773438 C 155.96875 137.015625 157.15625 136.425781 158.484375 136.011719 C 159.785156 135.605469 161.03125 135.398438 162.214844 135.398438 C 164.152344 135.398438 165.824219 135.703125 167.234375 136.308594 C 168.792969 136.984375 170.058594 137.964844 171.019531 139.25 C 171.914062 140.449219 172.523438 141.828125 172.84375 143.394531 C 173.09375 144.621094 173.21875 145.957031 173.21875 147.402344 L 173.21875 161.214844 L 159.949219 161.214844 L 159.949219 147.984375 C 159.949219 147.464844 159.925781 147.054688 159.871094 146.757812 C 159.855469 146.691406 159.851562 146.648438 159.84375 146.636719 C 159.871094 146.714844 159.917969 146.808594 159.984375 146.914062 C 160.222656 147.304688 160.550781 147.597656 160.972656 147.796875 C 161.199219 147.90625 161.390625 147.960938 161.539062 147.960938 C 161.664062 147.960938 161.753906 147.957031 161.820312 147.941406 C 161.773438 147.949219 161.699219 147.96875 161.597656 147.996094 C 161.539062 148.011719 161.5 148.023438 161.472656 148.039062 C 161.503906 148.023438 161.550781 147.996094 161.601562 147.964844 L 159.3125 144.402344 L 163.363281 143.171875 C 163.605469 143.960938 163.757812 144.78125 163.824219 145.636719 C 163.875 146.296875 163.902344 146.992188 163.902344 147.726562 L 163.902344 161.214844 L 150.628906 161.214844 Z M 159.097656 147.984375 L 159.097656 156.980469 L 154.863281 156.980469 L 154.863281 152.75 L 159.671875 152.75 L 159.671875 156.980469 L 155.4375 156.980469 L 155.4375 147.726562 C 155.4375 147.210938 155.417969 146.738281 155.382812 146.296875 C 155.363281 146.054688 155.328125 145.835938 155.265625 145.636719 L 154.332031 142.578125 L 157.027344 140.84375 C 157.683594 140.421875 158.449219 140.085938 159.320312 139.84375 C 160.152344 139.613281 160.894531 139.492188 161.539062 139.492188 C 162.65625 139.492188 163.667969 139.710938 164.585938 140.140625 C 165.679688 140.664062 166.550781 141.4375 167.191406 142.472656 C 167.667969 143.25 168.003906 144.175781 168.199219 145.246094 C 168.34375 146.042969 168.417969 146.957031 168.417969 147.984375 L 168.417969 156.980469 L 164.183594 156.980469 L 164.183594 152.75 L 168.988281 152.75 L 168.988281 156.980469 L 164.757812 156.980469 L 164.757812 147.402344 C 164.757812 146.53125 164.6875 145.757812 164.550781 145.089844 C 164.488281 144.765625 164.386719 144.511719 164.25 144.332031 C 164.179688 144.242188 164.058594 144.160156 163.875 144.082031 C 163.539062 143.9375 162.988281 143.863281 162.214844 143.863281 C 161.894531 143.863281 161.496094 143.9375 161.011719 144.089844 C 160.558594 144.234375 160.167969 144.421875 159.851562 144.648438 L 157.128906 146.605469 L 154.601562 144.40625 C 154.457031 144.28125 154.222656 144.152344 153.890625 144.015625 C 153.816406 143.984375 153.691406 143.957031 153.519531 143.929688 C 153.242188 143.886719 152.902344 143.863281 152.511719 143.863281 C 152.003906 143.863281 151.484375 143.886719 150.960938 143.929688 C 150.417969 143.972656 149.890625 144.039062 149.378906 144.117188 C 148.847656 144.203125 148.339844 144.296875 147.871094 144.398438 C 147.382812 144.503906 146.96875 144.601562 146.621094 144.691406 L 145.542969 140.597656 L 149.777344 140.597656 L 149.777344 156.980469 L 145.542969 156.980469 L 145.542969 152.75 L 150.347656 152.75 L 150.347656 156.980469 L 146.113281 156.980469 L 146.113281 140.214844 L 149.753906 139.695312 C 150.109375 139.644531 150.480469 139.601562 150.863281 139.5625 C 151.328125 139.515625 151.777344 139.492188 152.21875 139.492188 C 153.332031 139.492188 154.351562 139.710938 155.265625 140.140625 C 156.363281 140.664062 157.230469 141.4375 157.867188 142.472656 C 158.347656 143.25 158.683594 144.175781 158.878906 145.246094 C 159.023438 146.042969 159.097656 146.957031 159.097656 147.984375 Z M 159.097656 147.984375 " fill-opacity="1" fill-rule="nonzero"/><path fill="#cc0000" d="M 178.203125 149.296875 C 178.449219 149.296875 178.636719 149.289062 178.757812 149.273438 C 178.734375 149.28125 178.710938 149.285156 178.683594 149.289062 C 178.558594 149.320312 178.417969 149.371094 178.273438 149.441406 C 177.625 149.75 177.125 150.21875 176.773438 150.859375 C 176.515625 151.328125 176.390625 151.796875 176.390625 152.269531 C 176.390625 152.96875 176.585938 153.59375 176.976562 154.152344 C 177.195312 154.464844 177.4375 154.699219 177.703125 154.863281 C 177.457031 154.714844 176.972656 154.503906 176.257812 154.230469 C 175.382812 153.910156 174.582031 153.566406 173.835938 153.199219 C 172.824219 152.703125 171.9375 152.085938 171.183594 151.351562 C 170.335938 150.523438 169.679688 149.542969 169.21875 148.421875 C 168.777344 147.328125 168.554688 146.097656 168.554688 144.726562 C 168.554688 143.300781 168.835938 141.988281 169.402344 140.789062 C 169.980469 139.550781 170.832031 138.492188 171.957031 137.621094 C 173.902344 136.097656 176.390625 135.335938 179.429688 135.335938 C 180.730469 135.335938 181.988281 135.449219 183.203125 135.683594 C 184.390625 135.914062 185.378906 136.183594 186.175781 136.488281 L 189.585938 137.796875 L 186.910156 149.730469 L 182.429688 148.179688 C 182.015625 148.035156 181.554688 147.90625 181.046875 147.789062 C 180.703125 147.710938 180.28125 147.667969 179.78125 147.667969 C 179.667969 147.667969 179.597656 147.671875 179.570312 147.675781 C 179.742188 147.644531 179.9375 147.570312 180.148438 147.449219 C 180.625 147.183594 181.007812 146.808594 181.300781 146.316406 C 181.609375 145.804688 181.761719 145.265625 181.761719 144.695312 C 181.761719 144.308594 181.679688 143.921875 181.515625 143.542969 C 181.269531 142.976562 180.929688 142.53125 180.488281 142.214844 C 180.46875 142.199219 180.453125 142.191406 180.4375 142.179688 C 180.441406 142.179688 180.449219 142.179688 180.453125 142.1875 C 180.503906 142.214844 180.5625 142.246094 180.648438 142.289062 C 180.859375 142.390625 181.167969 142.515625 181.5625 142.664062 C 182.792969 143.121094 183.847656 143.585938 184.714844 144.058594 C 185.828125 144.667969 186.742188 145.367188 187.457031 146.164062 C 188.285156 147.078125 188.863281 148.105469 189.207031 149.25 C 189.488281 150.183594 189.632812 151.210938 189.632812 152.335938 C 189.632812 153.835938 189.324219 155.203125 188.714844 156.429688 C 188.074219 157.71875 187.136719 158.792969 185.902344 159.636719 C 183.921875 160.988281 181.34375 161.664062 178.171875 161.664062 C 176.308594 161.664062 174.707031 161.492188 173.359375 161.144531 C 172.132812 160.828125 171.21875 160.535156 170.617188 160.269531 L 167.5 158.886719 L 170.015625 146.714844 L 174.695312 148.558594 C 175.296875 148.796875 175.910156 148.980469 176.535156 149.117188 C 177.109375 149.238281 177.664062 149.296875 178.203125 149.296875 Z M 178.203125 157.761719 C 177.070312 157.761719 175.925781 157.640625 174.777344 157.394531 C 173.6875 157.167969 172.625 156.847656 171.589844 156.4375 L 173.140625 152.5 L 177.289062 153.351562 L 176.480469 157.253906 L 172.335938 156.402344 L 174.054688 152.53125 C 174.226562 152.609375 174.703125 152.75 175.472656 152.949219 C 176.128906 153.117188 177.023438 153.199219 178.171875 153.199219 C 178.988281 153.199219 179.675781 153.128906 180.238281 152.996094 C 180.625 152.902344 180.921875 152.785156 181.121094 152.648438 C 181.148438 152.628906 181.164062 152.621094 181.167969 152.613281 C 181.152344 152.628906 181.144531 152.648438 181.128906 152.664062 C 181.128906 152.671875 181.128906 152.675781 181.128906 152.675781 C 181.128906 152.664062 181.136719 152.652344 181.140625 152.632812 C 181.152344 152.558594 181.164062 152.457031 181.164062 152.335938 C 181.164062 152.042969 181.144531 151.824219 181.101562 151.679688 C 181.121094 151.753906 181.144531 151.804688 181.171875 151.835938 C 181.097656 151.75 180.925781 151.632812 180.65625 151.484375 C 180.15625 151.210938 179.460938 150.914062 178.589844 150.59375 C 177.953125 150.351562 177.410156 150.125 176.957031 149.90625 C 176.402344 149.636719 175.925781 149.363281 175.53125 149.074219 C 174.707031 148.480469 174.105469 147.746094 173.734375 146.878906 C 173.441406 146.195312 173.292969 145.464844 173.292969 144.695312 C 173.292969 143.707031 173.539062 142.800781 174.035156 141.972656 C 174.519531 141.164062 175.183594 140.527344 176.03125 140.054688 C 177.046875 139.488281 178.300781 139.203125 179.78125 139.203125 C 180.921875 139.203125 181.976562 139.316406 182.941406 139.539062 C 183.746094 139.71875 184.496094 139.933594 185.199219 140.179688 L 183.816406 144.179688 L 179.683594 143.253906 L 180.527344 139.511719 L 184.65625 140.441406 L 183.136719 144.386719 C 182.808594 144.261719 182.296875 144.132812 181.59375 143.996094 C 180.910156 143.867188 180.191406 143.796875 179.429688 143.796875 C 178.792969 143.796875 178.253906 143.863281 177.824219 143.984375 C 177.542969 144.0625 177.324219 144.164062 177.167969 144.289062 C 177.109375 144.335938 177.070312 144.371094 177.0625 144.394531 C 177.03125 144.449219 177.019531 144.558594 177.019531 144.726562 C 177.019531 144.898438 177.027344 145.042969 177.046875 145.160156 C 177.054688 145.1875 177.0625 145.214844 177.066406 145.234375 C 177.066406 145.238281 177.066406 145.238281 177.066406 145.238281 C 177.066406 145.238281 177.066406 145.234375 177.0625 145.222656 C 177.074219 145.261719 177.089844 145.285156 177.097656 145.292969 C 177.203125 145.394531 177.363281 145.503906 177.570312 145.605469 C 178.054688 145.84375 178.617188 146.078125 179.25 146.316406 C 180.464844 146.777344 181.425781 147.21875 182.128906 147.648438 C 182.867188 148.105469 183.460938 148.652344 183.917969 149.308594 C 184.542969 150.203125 184.855469 151.191406 184.855469 152.269531 C 184.855469 153.242188 184.636719 154.128906 184.195312 154.929688 C 183.667969 155.898438 182.890625 156.625 181.878906 157.101562 C 180.941406 157.542969 179.71875 157.761719 178.203125 157.761719 Z M 178.203125 157.761719 " fill-opacity="1" fill-rule="nonzero"/><path fill="#ff9999" d="M 86.742188 92.429688 C 87.003906 93.320312 87.285156 94.320312 87.597656 95.421875 C 87.902344 96.527344 88.238281 97.667969 88.601562 98.859375 C 88.957031 100.039062 89.316406 101.21875 89.679688 102.40625 C 90.050781 103.585938 90.402344 104.683594 90.738281 105.695312 C 91.019531 104.59375 91.304688 103.402344 91.59375 102.109375 C 91.890625 100.824219 92.160156 99.488281 92.410156 98.113281 C 92.667969 96.738281 92.921875 95.375 93.171875 94.007812 C 93.417969 92.632812 93.65625 91.3125 93.878906 90.050781 L 99.097656 90.050781 C 98.339844 93.792969 97.472656 97.589844 96.496094 101.441406 C 95.515625 105.296875 94.457031 108.945312 93.320312 112.402344 L 88.710938 112.402344 C 87.953125 110.335938 87.226562 108.167969 86.519531 105.898438 C 85.8125 103.632812 85.113281 101.363281 84.417969 99.082031 C 83.738281 101.363281 83.050781 103.632812 82.355469 105.898438 C 81.660156 108.167969 80.945312 110.335938 80.203125 112.402344 L 75.574219 112.402344 C 74.433594 108.945312 73.375 105.296875 72.398438 101.441406 C 71.417969 97.589844 70.558594 93.792969 69.816406 90.050781 L 75.257812 90.050781 C 75.46875 91.3125 75.707031 92.632812 75.964844 94.007812 C 76.226562 95.375 76.492188 96.738281 76.765625 98.113281 C 77.046875 99.488281 77.332031 100.824219 77.621094 102.109375 C 77.917969 103.402344 78.214844 104.59375 78.511719 105.695312 C 78.90625 104.644531 79.28125 103.53125 79.644531 102.351562 C 80.015625 101.160156 80.371094 99.980469 80.703125 98.800781 C 81.046875 97.613281 81.363281 96.476562 81.652344 95.382812 C 81.949219 94.28125 82.214844 93.296875 82.449219 92.429688 Z M 86.742188 92.429688 " fill-opacity="1" fill-rule="nonzero"/><path fill="#ff9999" d="M 116.800781 103.894531 C 116.800781 105.222656 116.601562 106.4375 116.207031 107.554688 C 115.820312 108.660156 115.261719 109.605469 114.53125 110.394531 C 113.800781 111.175781 112.921875 111.785156 111.894531 112.21875 C 110.878906 112.636719 109.738281 112.847656 108.476562 112.847656 C 107.222656 112.847656 106.082031 112.636719 105.058594 112.21875 C 104.039062 111.785156 103.167969 111.175781 102.4375 110.394531 C 101.703125 109.605469 101.136719 108.660156 100.726562 107.554688 C 100.320312 106.4375 100.113281 105.222656 100.113281 103.894531 C 100.113281 102.554688 100.324219 101.34375 100.746094 100.25 C 101.164062 99.148438 101.75 98.214844 102.492188 97.445312 C 103.234375 96.664062 104.113281 96.066406 105.132812 95.644531 C 106.15625 95.210938 107.273438 94.992188 108.476562 94.992188 C 109.703125 94.992188 110.820312 95.210938 111.839844 95.644531 C 112.867188 96.066406 113.742188 96.664062 114.476562 97.445312 C 115.207031 98.214844 115.777344 99.148438 116.1875 100.25 C 116.59375 101.34375 116.800781 102.554688 116.800781 103.894531 Z M 111.894531 103.894531 C 111.894531 102.40625 111.597656 101.246094 111.003906 100.398438 C 110.40625 99.546875 109.5625 99.117188 108.476562 99.117188 C 107.371094 99.117188 106.515625 99.546875 105.910156 100.398438 C 105.316406 101.246094 105.019531 102.40625 105.019531 103.894531 C 105.019531 105.371094 105.316406 106.546875 105.910156 107.421875 C 106.515625 108.292969 107.371094 108.722656 108.476562 108.722656 C 109.5625 108.722656 110.40625 108.292969 111.003906 107.421875 C 111.597656 106.546875 111.894531 105.371094 111.894531 103.894531 Z M 111.894531 103.894531 " fill-opacity="1" fill-rule="nonzero"/><path fill="#ff9999" d="M 130.722656 99.695312 C 130.285156 99.582031 129.777344 99.472656 129.199219 99.359375 C 128.613281 99.238281 127.996094 99.171875 127.339844 99.171875 C 127.027344 99.171875 126.660156 99.207031 126.242188 99.265625 C 125.835938 99.316406 125.519531 99.375 125.296875 99.433594 L 125.296875 112.402344 L 120.503906 112.402344 L 120.503906 96.332031 C 121.355469 96.035156 122.363281 95.753906 123.53125 95.496094 C 124.707031 95.226562 126.011719 95.085938 127.453125 95.085938 C 127.710938 95.085938 128.019531 95.105469 128.378906 95.140625 C 128.753906 95.167969 129.113281 95.210938 129.476562 95.273438 C 129.847656 95.324219 130.210938 95.382812 130.574219 95.457031 C 130.945312 95.53125 131.261719 95.621094 131.519531 95.71875 Z M 130.722656 99.695312 " fill-opacity="1" fill-rule="nonzero"/><path fill="#ff9999" d="M 137.871094 103.78125 C 137.871094 105.269531 138.207031 106.464844 138.875 107.367188 C 139.546875 108.273438 140.535156 108.722656 141.847656 108.722656 C 142.265625 108.722656 142.65625 108.714844 143.019531 108.6875 C 143.390625 108.648438 143.695312 108.609375 143.929688 108.558594 L 143.929688 99.824219 C 143.632812 99.628906 143.242188 99.464844 142.761719 99.339844 C 142.277344 99.21875 141.785156 99.15625 141.292969 99.15625 C 139.011719 99.15625 137.871094 100.695312 137.871094 103.78125 Z M 148.742188 111.847656 C 148.304688 111.984375 147.8125 112.113281 147.257812 112.234375 C 146.699219 112.347656 146.109375 112.445312 145.492188 112.535156 C 144.882812 112.617188 144.265625 112.6875 143.632812 112.738281 C 143 112.796875 142.394531 112.832031 141.8125 112.832031 C 140.410156 112.832031 139.160156 112.625 138.058594 112.21875 C 136.96875 111.808594 136.042969 111.222656 135.289062 110.453125 C 134.53125 109.6875 133.957031 108.761719 133.5625 107.683594 C 133.164062 106.597656 132.96875 105.375 132.96875 104.023438 C 132.96875 102.648438 133.140625 101.414062 133.488281 100.308594 C 133.832031 99.191406 134.328125 98.253906 134.972656 97.484375 C 135.617188 96.703125 136.40625 96.109375 137.335938 95.699219 C 138.273438 95.289062 139.34375 95.085938 140.546875 95.085938 C 141.21875 95.085938 141.8125 95.15625 142.332031 95.289062 C 142.863281 95.414062 143.394531 95.597656 143.929688 95.828125 L 143.929688 88.15625 L 148.742188 87.375 Z M 148.742188 111.847656 " fill-opacity="1" fill-rule="nonzero"/><path fill="#ff9999" d="M 50.46875 134.367188 C 53.800781 134.367188 56.359375 134.957031 58.144531 136.132812 C 59.925781 137.300781 60.820312 139.21875 60.820312 141.894531 C 60.820312 144.582031 59.914062 146.519531 58.105469 147.710938 C 56.308594 148.898438 53.730469 149.492188 50.378906 149.492188 L 48.796875 149.492188 L 48.796875 156.980469 L 43.761719 156.980469 L 43.761719 134.945312 C 44.847656 134.734375 46.011719 134.585938 47.238281 134.5 C 48.464844 134.414062 49.539062 134.367188 50.46875 134.367188 Z M 50.785156 138.660156 C 50.421875 138.660156 50.066406 138.675781 49.707031 138.699219 C 49.359375 138.710938 49.058594 138.730469 48.796875 138.753906 L 48.796875 145.199219 L 50.378906 145.199219 C 52.109375 145.199219 53.414062 144.96875 54.296875 144.496094 C 55.191406 144.027344 55.636719 143.148438 55.636719 141.855469 C 55.636719 141.222656 55.515625 140.714844 55.28125 140.3125 C 55.058594 139.90625 54.734375 139.582031 54.316406 139.328125 C 53.90625 139.082031 53.394531 138.910156 52.792969 138.808594 C 52.183594 138.710938 51.515625 138.660156 50.785156 138.660156 Z M 50.785156 138.660156 " fill-opacity="1" fill-rule="nonzero"/><path fill="#ff9999" d="M 74.429688 144.273438 C 73.992188 144.160156 73.484375 144.050781 72.90625 143.9375 C 72.320312 143.816406 71.703125 143.75 71.046875 143.75 C 70.734375 143.75 70.367188 143.785156 69.949219 143.84375 C 69.542969 143.894531 69.226562 143.953125 69.003906 144.011719 L 69.003906 156.980469 L 64.210938 156.980469 L 64.210938 140.910156 C 65.0625 140.613281 66.070312 140.332031 67.238281 140.074219 C 68.414062 139.804688 69.71875 139.664062 71.160156 139.664062 C 71.417969 139.664062 71.726562 139.683594 72.085938 139.71875 C 72.460938 139.746094 72.820312 139.789062 73.183594 139.847656 C 73.554688 139.902344 73.917969 139.960938 74.28125 140.035156 C 74.652344 140.109375 74.96875 140.199219 75.226562 140.296875 Z M 74.429688 144.273438 " fill-opacity="1" fill-rule="nonzero"/><path fill="#ff9999" d="M 93.359375 148.472656 C 93.359375 149.800781 93.160156 151.015625 92.765625 152.132812 C 92.378906 153.238281 91.824219 154.183594 91.09375 154.972656 C 90.359375 155.753906 89.480469 156.363281 88.457031 156.796875 C 87.4375 157.214844 86.300781 157.425781 85.035156 157.425781 C 83.78125 157.425781 82.644531 157.214844 81.617188 156.796875 C 80.601562 156.363281 79.726562 155.753906 78.996094 154.972656 C 78.265625 154.183594 77.695312 153.238281 77.289062 152.132812 C 76.878906 151.015625 76.675781 149.800781 76.675781 148.472656 C 76.675781 147.132812 76.882812 145.921875 77.308594 144.828125 C 77.726562 143.726562 78.308594 142.792969 79.054688 142.023438 C 79.796875 141.242188 80.675781 140.644531 81.691406 140.222656 C 82.71875 139.789062 83.832031 139.570312 85.035156 139.570312 C 86.261719 139.570312 87.382812 139.789062 88.398438 140.222656 C 89.425781 140.644531 90.304688 141.242188 91.039062 142.023438 C 91.765625 142.792969 92.339844 143.726562 92.746094 144.828125 C 93.15625 145.921875 93.359375 147.132812 93.359375 148.472656 Z M 88.457031 148.472656 C 88.457031 146.984375 88.15625 145.824219 87.5625 144.976562 C 86.96875 144.125 86.125 143.695312 85.035156 143.695312 C 83.929688 143.695312 83.078125 144.125 82.472656 144.976562 C 81.878906 145.824219 81.582031 146.984375 81.582031 148.472656 C 81.582031 149.949219 81.878906 151.125 82.472656 152 C 83.078125 152.871094 83.929688 153.300781 85.035156 153.300781 C 86.125 153.300781 86.96875 152.871094 87.5625 152 C 88.15625 151.125 88.457031 149.949219 88.457031 148.472656 Z M 88.457031 148.472656 " fill-opacity="1" fill-rule="nonzero"/><path fill="#ff9999" d="M 107.933594 148.359375 C 107.933594 145.273438 106.789062 143.734375 104.515625 143.734375 C 104.015625 143.734375 103.519531 143.796875 103.027344 143.917969 C 102.542969 144.042969 102.152344 144.207031 101.855469 144.402344 L 101.855469 153.136719 C 102.089844 153.1875 102.386719 153.226562 102.75 153.265625 C 103.121094 153.292969 103.519531 153.300781 103.957031 153.300781 C 105.265625 153.300781 106.261719 152.851562 106.929688 151.945312 C 107.597656 151.042969 107.933594 149.847656 107.933594 148.359375 Z M 112.820312 148.488281 C 112.820312 149.855469 112.621094 151.085938 112.226562 152.1875 C 111.824219 153.277344 111.25 154.210938 110.496094 154.992188 C 109.753906 155.765625 108.828125 156.359375 107.726562 156.777344 C 106.636719 157.195312 105.390625 157.410156 103.992188 157.410156 C 103.410156 157.410156 102.796875 157.375 102.152344 157.316406 C 101.523438 157.265625 100.898438 157.195312 100.296875 157.113281 C 99.6875 157.023438 99.097656 156.925781 98.53125 156.8125 C 97.972656 156.691406 97.480469 156.5625 97.0625 156.425781 L 97.0625 132.734375 L 101.855469 131.953125 L 101.855469 140.40625 C 102.398438 140.175781 102.957031 139.992188 103.527344 139.867188 C 104.109375 139.734375 104.738281 139.664062 105.40625 139.664062 C 106.605469 139.664062 107.671875 139.878906 108.601562 140.296875 C 109.53125 140.703125 110.300781 141.300781 110.925781 142.078125 C 111.542969 142.851562 112.011719 143.78125 112.335938 144.867188 C 112.65625 145.957031 112.820312 147.164062 112.820312 148.488281 Z M 112.820312 148.488281 " fill-opacity="1" fill-rule="nonzero"/><path fill="#ff9999" d="M 123.300781 157.296875 C 121.898438 157.285156 120.761719 157.132812 119.898438 156.851562 C 119.03125 156.566406 118.34375 156.175781 117.835938 155.679688 C 117.324219 155.175781 116.980469 154.5625 116.796875 153.839844 C 116.621094 153.125 116.535156 152.3125 116.535156 151.40625 L 116.535156 132.734375 L 121.332031 131.953125 L 121.332031 150.441406 C 121.332031 150.863281 121.359375 151.25 121.421875 151.59375 C 121.496094 151.941406 121.617188 152.234375 121.792969 152.464844 C 121.980469 152.703125 122.246094 152.894531 122.59375 153.042969 C 122.9375 153.191406 123.402344 153.292969 123.988281 153.339844 Z M 123.300781 157.296875 " fill-opacity="1" fill-rule="nonzero"/><path fill="#ff9999" d="M 125.90625 148.621094 C 125.90625 147.125 126.132812 145.808594 126.59375 144.679688 C 127.0625 143.554688 127.671875 142.613281 128.414062 141.855469 C 129.167969 141.105469 130.035156 140.53125 131.015625 140.148438 C 131.992188 139.765625 133.003906 139.570312 134.046875 139.570312 C 136.445312 139.570312 138.347656 140.308594 139.75 141.78125 C 141.148438 143.246094 141.847656 145.40625 141.847656 148.265625 C 141.847656 148.554688 141.835938 148.863281 141.8125 149.195312 C 141.785156 149.53125 141.761719 149.824219 141.738281 150.070312 L 130.847656 150.070312 C 130.945312 151.0625 131.40625 151.847656 132.222656 152.429688 C 133.042969 153.015625 134.136719 153.300781 135.511719 153.300781 C 136.40625 153.300781 137.269531 153.222656 138.113281 153.0625 C 138.96875 152.902344 139.660156 152.703125 140.195312 152.464844 L 140.847656 156.367188 C 140.585938 156.492188 140.238281 156.625 139.804688 156.757812 C 139.382812 156.882812 138.90625 156.992188 138.375 157.09375 C 137.855469 157.191406 137.289062 157.269531 136.683594 157.335938 C 136.074219 157.394531 135.476562 157.425781 134.882812 157.425781 C 133.34375 157.425781 132.011719 157.203125 130.886719 156.757812 C 129.757812 156.304688 128.824219 155.679688 128.082031 154.898438 C 127.335938 154.121094 126.785156 153.191406 126.425781 152.113281 C 126.078125 151.035156 125.90625 149.875 125.90625 148.621094 Z M 137.203125 146.78125 C 137.175781 146.371094 137.101562 145.976562 136.980469 145.589844 C 136.871094 145.210938 136.6875 144.867188 136.441406 144.570312 C 136.191406 144.261719 135.875 144.011719 135.496094 143.824219 C 135.125 143.628906 134.660156 143.527344 134.101562 143.527344 C 133.566406 143.527344 133.101562 143.621094 132.707031 143.808594 C 132.320312 143.992188 132 144.234375 131.742188 144.53125 C 131.492188 144.828125 131.296875 145.175781 131.148438 145.574219 C 131.007812 145.972656 130.910156 146.371094 130.847656 146.78125 Z M 137.203125 146.78125 " fill-opacity="1" fill-rule="nonzero"/><path fill="#ff9999" d="M 154.863281 147.988281 C 154.863281 146.441406 154.664062 145.34375 154.269531 144.699219 C 153.867188 144.058594 153.191406 143.734375 152.222656 143.734375 C 151.925781 143.734375 151.609375 143.75 151.277344 143.789062 C 150.949219 143.816406 150.644531 143.84375 150.347656 143.882812 L 150.347656 156.980469 L 145.554688 156.980469 L 145.554688 140.59375 C 145.960938 140.480469 146.4375 140.371094 146.984375 140.257812 C 147.527344 140.136719 148.101562 140.03125 148.710938 139.941406 C 149.328125 139.84375 149.960938 139.769531 150.605469 139.71875 C 151.25 139.660156 151.878906 139.625 152.503906 139.625 C 153.730469 139.625 154.722656 139.785156 155.492188 140.089844 C 156.261719 140.402344 156.890625 140.773438 157.390625 141.207031 C 158.066406 140.714844 158.855469 140.328125 159.75 140.054688 C 160.640625 139.769531 161.464844 139.625 162.21875 139.625 C 163.566406 139.625 164.675781 139.820312 165.546875 140.203125 C 166.425781 140.574219 167.117188 141.109375 167.628906 141.800781 C 168.148438 142.484375 168.503906 143.300781 168.703125 144.253906 C 168.898438 145.195312 169.003906 146.242188 169.003906 147.394531 L 169.003906 156.980469 L 164.191406 156.980469 L 164.191406 147.988281 C 164.191406 146.441406 163.988281 145.34375 163.59375 144.699219 C 163.195312 144.058594 162.519531 143.734375 161.550781 143.734375 C 161.292969 143.734375 160.925781 143.796875 160.457031 143.917969 C 159.996094 144.042969 159.617188 144.207031 159.320312 144.402344 C 159.46875 144.898438 159.5625 145.417969 159.601562 145.960938 C 159.648438 146.511719 159.675781 147.097656 159.675781 147.726562 L 159.675781 156.980469 L 154.863281 156.980469 Z M 154.863281 147.988281 " fill-opacity="1" fill-rule="nonzero"/><path fill="#ff9999" d="M 178.214844 153.523438 C 179.089844 153.523438 179.707031 153.441406 180.070312 153.265625 C 180.441406 153.09375 180.628906 152.761719 180.628906 152.28125 C 180.628906 151.886719 180.386719 151.546875 179.902344 151.257812 C 179.429688 150.960938 178.714844 150.636719 177.75 150.273438 C 177.003906 149.988281 176.324219 149.699219 175.703125 149.398438 C 175.097656 149.101562 174.574219 148.746094 174.144531 148.324219 C 173.707031 147.90625 173.371094 147.402344 173.140625 146.816406 C 172.902344 146.238281 172.789062 145.535156 172.789062 144.71875 C 172.789062 143.132812 173.371094 141.882812 174.550781 140.964844 C 175.742188 140.035156 177.367188 139.570312 179.4375 139.570312 C 180.464844 139.570312 181.449219 139.664062 182.394531 139.847656 C 183.347656 140.027344 184.101562 140.214844 184.660156 140.425781 L 183.824219 144.179688 C 183.265625 143.984375 182.660156 143.808594 182.003906 143.660156 C 181.34375 143.511719 180.609375 143.4375 179.792969 143.4375 C 178.277344 143.4375 177.527344 143.859375 177.527344 144.699219 C 177.527344 144.886719 177.554688 145.0625 177.617188 145.21875 C 177.691406 145.367188 177.824219 145.511719 178.007812 145.648438 C 178.203125 145.785156 178.472656 145.933594 178.808594 146.09375 C 179.140625 146.253906 179.558594 146.4375 180.070312 146.632812 C 181.121094 147.015625 181.996094 147.402344 182.691406 147.785156 C 183.382812 148.15625 183.925781 148.5625 184.324219 149.011719 C 184.722656 149.445312 185 149.933594 185.164062 150.476562 C 185.320312 151.011719 185.402344 151.628906 185.402344 152.335938 C 185.402344 154.007812 184.773438 155.28125 183.507812 156.144531 C 182.253906 157 180.480469 157.425781 178.175781 157.425781 C 176.660156 157.425781 175.40625 157.296875 174.402344 157.035156 C 173.410156 156.789062 172.722656 156.582031 172.339844 156.40625 L 173.140625 152.503906 C 173.957031 152.828125 174.792969 153.078125 175.648438 153.265625 C 176.511719 153.441406 177.367188 153.523438 178.214844 153.523438 Z M 178.214844 153.523438 " fill-opacity="1" fill-rule="nonzero"/><g clip-path="url(#81ef49ff87)"><g clip-path="url(#789288ab9e)"><g clip-path="url(#c32d0fb062)"><rect x="-22.487999" width="269.855988" fill="#ff5757" y="-36.374999" height="436.499989" fill-opacity="1"/></g></g></g><g clip-path="url(#14408208cf)"><g clip-path="url(#fb7ae9bfc3)"><g clip-path="url(#8847ffd9d0)"><path fill="#000000" d="M 96.863281 261.792969 L 135.78125 261.792969 L 135.78125 289.621094 L 96.863281 289.621094 Z M 96.863281 261.792969 " fill-opacity="1" fill-rule="nonzero"/></g></g></g><g clip-path="url(#d3abb8c5a4)"><g clip-path="url(#746d907685)"><g clip-path="url(#c71aba7371)"><path fill="#ff5757" d="M 84.042969 261.242188 L 151.878906 261.242188 L 151.878906 272.832031 L 84.042969 272.832031 Z M 84.042969 261.242188 " fill-opacity="1" fill-rule="nonzero"/></g></g></g><g clip-path="url(#da32b894a4)"><g clip-path="url(#a581a0bbe5)"><g clip-path="url(#6dea5a80a6)"><path fill="#000000" d="M 135.757812 258.875 L 145.449219 258.875 L 145.449219 268.5625 L 135.757812 268.5625 Z M 135.757812 258.875 " fill-opacity="1" fill-rule="nonzero"/></g></g></g><g clip-path="url(#1de37b0958)"><g clip-path="url(#4112011501)"><g clip-path="url(#3f99463fc7)"><path fill="#cc0000" d="M 64.664062 267.039062 L 87.25 267.039062 L 87.25 289.621094 L 64.664062 289.621094 Z M 64.664062 267.039062 " fill-opacity="1" fill-rule="nonzero"/></g></g></g><g clip-path="url(#71463cfedb)"><g clip-path="url(#06b45ff8f7)"><g clip-path="url(#8c2809da08)"><path fill="#000000" d="M 87.179688 258.875 L 96.863281 258.875 L 96.863281 268.5625 L 87.179688 268.5625 Z M 87.179688 258.875 " fill-opacity="1" fill-rule="nonzero"/></g></g></g><g clip-path="url(#b4f870e897)"><g clip-path="url(#fa840c9071)"><g clip-path="url(#bea1c5a81f)"><path fill="#cc0000" d="M 145.449219 267.039062 L 168.027344 267.039062 L 168.027344 289.621094 L 145.449219 289.621094 Z M 145.449219 267.039062 " fill-opacity="1" fill-rule="nonzero"/></g></g></g><g clip-path="url(#d3332a8e29)"><path stroke-linecap="butt" transform="matrix(0.468705, 0.376144, -0.376139, 0.468712, 18.848671, 231.031806)" fill="none" stroke-linejoin="miter" d="M 3.146323 6.249588 C 48.928411 29.339042 78.449882 29.341459 91.692463 6.254837 " stroke="#ff5757" stroke-width="14" stroke-opacity="1" stroke-miterlimit="4"/></g><g clip-path="url(#74b6996433)"><path stroke-linecap="butt" transform="matrix(0.395752, -0.452275, 0.452268, 0.395758, 168.064443, 272.894486)" fill="none" stroke-linejoin="miter" d="M 3.600678 6.000224 C 31.973873 23.027636 60.348403 23.030289 88.724879 5.999011 " stroke="#ff5757" stroke-width="14" stroke-opacity="1" stroke-miterlimit="4"/></g><g clip-path="url(#33f69bf504)"><path stroke-linecap="butt" transform="matrix(-0.216962, 0.560447, -0.560439, -0.216964, 100.979372, 299.435236)" fill="none" stroke-linejoin="miter" d="M 0.00326406 7.001608 C 32.427387 7.002259 64.85151 7.00291 97.281695 7.001214 " stroke="#ff5757" stroke-width="14" stroke-opacity="1" stroke-miterlimit="4"/></g><g clip-path="url(#b16ce71928)"><path stroke-linecap="butt" transform="matrix(0.235019, 0.553119, -0.55311, 0.235023, 134.575616, 297.917413)" fill="none" stroke-linejoin="miter" d="M -0.000580278 7.001054 C 31.426852 6.999854 62.860266 7.001196 94.281715 6.997454 " stroke="#ff5757" stroke-width="14" stroke-opacity="1" stroke-miterlimit="4"/></g><g clip-path="url(#9c05b6cba2)"><g clip-path="url(#b6095f03a5)"><g clip-path="url(#511b47c9d5)"><path fill="#ff5757" d="M 71.199219 346.949219 L 80.710938 346.949219 L 80.710938 356.460938 L 71.199219 356.460938 Z M 71.199219 346.949219 " fill-opacity="1" fill-rule="nonzero"/></g></g></g><g clip-path="url(#79c376319a)"><g clip-path="url(#2d3234d3e2)"><g clip-path="url(#fd19c97c08)"><path fill="#ff5757" d="M 148.109375 346.949219 L 157.625 346.949219 L 157.625 356.460938 L 148.109375 356.460938 Z M 148.109375 346.949219 " fill-opacity="1" fill-rule="nonzero"/></g></g></g><g clip-path="url(#48faa4ac62)"><g clip-path="url(#f808764e42)"><g clip-path="url(#49c26b2ed9)"><path fill="#ff5757" d="M 201.132812 230.390625 L 210.644531 230.390625 L 210.644531 239.902344 L 201.132812 239.902344 Z M 201.132812 230.390625 " fill-opacity="1" fill-rule="nonzero"/></g></g></g><g clip-path="url(#c198e6e7bb)"><g clip-path="url(#c405feb435)"><g clip-path="url(#627de516c5)"><path fill="#ff5757" d="M 13.222656 230.390625 L 22.730469 230.390625 L 22.730469 239.902344 L 13.222656 239.902344 Z M 13.222656 230.390625 " fill-opacity="1" fill-rule="nonzero"/></g></g></g></svg>