<svg xmlns="http://www.w3.org/2000/svg" xmlns:xlink="http://www.w3.org/1999/xlink" width="300" zoomAndPan="magnify" viewBox="0 0 224.87999 363.749991" height="485" preserveAspectRatio="xMidYMid meet" version="1.0"><defs><clipPath id="61681da02e"><path d="M 0.015625 0.460938 L 224.742188 0.460938 L 224.742188 363.5 L 0.015625 363.5 Z M 0.015625 0.460938 " clip-rule="nonzero"/></clipPath><clipPath id="755905583d"><path d="M 26.210938 0.460938 L 199.109375 0.460938 C 206.242188 0.460938 213.078125 3.296875 218.125 8.339844 C 223.167969 13.382812 225.996094 20.222656 225.996094 27.355469 L 225.996094 338.824219 C 225.996094 345.957031 223.167969 352.796875 218.125 357.839844 C 213.078125 362.882812 206.242188 365.71875 199.109375 365.71875 L 26.210938 365.71875 C 19.082031 365.71875 12.242188 362.882812 7.199219 357.839844 C 2.15625 352.796875 -0.675781 345.957031 -0.675781 338.824219 L -0.675781 27.355469 C -0.675781 20.222656 2.15625 13.382812 7.199219 8.339844 C 12.242188 3.296875 19.082031 0.460938 26.210938 0.460938 Z M 26.210938 0.460938 " clip-rule="nonzero"/></clipPath><clipPath id="8ef3cf8e28"><path d="M 26.210938 0.460938 L 199.109375 0.460938 C 206.242188 0.460938 213.078125 3.296875 218.125 8.339844 C 223.167969 13.382812 225.996094 20.222656 225.996094 27.355469 L 225.996094 338.824219 C 225.996094 345.957031 223.167969 352.796875 218.125 357.839844 C 213.078125 362.882812 206.242188 365.71875 199.109375 365.71875 L 26.210938 365.71875 C 19.082031 365.71875 12.242188 362.882812 7.199219 357.839844 C 2.15625 352.796875 -0.675781 345.957031 -0.675781 338.824219 L -0.675781 27.355469 C -0.675781 20.222656 2.15625 13.382812 7.199219 8.339844 C 12.242188 3.296875 19.082031 0.460938 26.210938 0.460938 Z M 26.210938 0.460938 " clip-rule="nonzero"/></clipPath><clipPath id="3932791569"><path d="M 54.710938 177.792969 L 180.277344 177.792969 L 180.277344 304.9375 L 54.710938 304.9375 Z M 54.710938 177.792969 " clip-rule="nonzero"/></clipPath><clipPath id="dee72cd020"><path d="M 80.644531 177.792969 L 154.34375 177.792969 C 161.222656 177.792969 167.820312 180.523438 172.683594 185.382812 C 177.546875 190.242188 180.277344 196.835938 180.277344 203.714844 L 180.277344 279.015625 C 180.277344 285.890625 177.546875 292.484375 172.683594 297.339844 C 167.820312 302.203125 161.222656 304.933594 154.34375 304.933594 L 80.644531 304.933594 C 73.761719 304.933594 67.167969 302.203125 62.308594 297.339844 C 57.445312 292.484375 54.710938 285.890625 54.710938 279.015625 L 54.710938 203.714844 C 54.710938 196.835938 57.445312 190.242188 62.308594 185.382812 C 67.167969 180.523438 73.761719 177.792969 80.644531 177.792969 Z M 80.644531 177.792969 " clip-rule="nonzero"/></clipPath><clipPath id="f1b57cc6ea"><path d="M 80.644531 177.792969 L 154.34375 177.792969 C 161.222656 177.792969 167.820312 180.523438 172.683594 185.382812 C 177.546875 190.242188 180.277344 196.835938 180.277344 203.714844 L 180.277344 279.015625 C 180.277344 285.890625 177.546875 292.484375 172.683594 297.339844 C 167.820312 302.203125 161.222656 304.933594 154.34375 304.933594 L 80.644531 304.933594 C 73.761719 304.933594 67.167969 302.203125 62.308594 297.339844 C 57.445312 292.484375 54.710938 285.890625 54.710938 279.015625 L 54.710938 203.714844 C 54.710938 196.835938 57.445312 190.242188 62.308594 185.382812 C 67.167969 180.523438 73.761719 177.792969 80.644531 177.792969 Z M 80.644531 177.792969 " clip-rule="nonzero"/></clipPath><clipPath id="5f90210152"><path d="M 100.871094 196.96875 L 134.113281 196.96875 L 134.113281 243.570312 L 100.871094 243.570312 Z M 100.871094 196.96875 " clip-rule="nonzero"/></clipPath><clipPath id="e169937c31"><path d="M 117.496094 196.96875 C 108.3125 196.96875 100.871094 207.378906 100.871094 220.222656 C 100.871094 233.066406 108.3125 243.472656 117.496094 243.472656 C 126.675781 243.472656 134.113281 233.066406 134.113281 220.222656 C 134.113281 207.378906 126.675781 196.96875 117.496094 196.96875 Z M 117.496094 196.96875 " clip-rule="nonzero"/></clipPath><clipPath id="0811133da5"><path d="M 117.496094 196.96875 C 108.3125 196.96875 100.871094 207.378906 100.871094 220.222656 C 100.871094 233.066406 108.3125 243.472656 117.496094 243.472656 C 126.675781 243.472656 134.113281 233.066406 134.113281 220.222656 C 134.113281 207.378906 126.675781 196.96875 117.496094 196.96875 Z M 117.496094 196.96875 " clip-rule="nonzero"/></clipPath><clipPath id="20e6db8e22"><path d="M 107.394531 203.125 L 127.59375 203.125 L 127.59375 237.332031 L 107.394531 237.332031 Z M 107.394531 203.125 " clip-rule="nonzero"/></clipPath><clipPath id="5be60c8912"><path d="M 117.496094 203.125 C 111.917969 203.125 107.394531 210.777344 107.394531 220.222656 C 107.394531 229.667969 111.917969 237.320312 117.496094 237.320312 C 123.070312 237.320312 127.59375 229.667969 127.59375 220.222656 C 127.59375 210.777344 123.070312 203.125 117.496094 203.125 Z M 117.496094 203.125 " clip-rule="nonzero"/></clipPath><clipPath id="c9675825a0"><path d="M 117.496094 203.125 C 111.917969 203.125 107.394531 210.777344 107.394531 220.222656 C 107.394531 229.667969 111.917969 237.320312 117.496094 237.320312 C 123.070312 237.320312 127.59375 229.667969 127.59375 220.222656 C 127.59375 210.777344 123.070312 203.125 117.496094 203.125 Z M 117.496094 203.125 " clip-rule="nonzero"/></clipPath><clipPath id="7dfdd7ddb3"><path d="M 136.371094 193.761719 L 145.738281 193.761719 L 145.738281 203.125 L 136.371094 203.125 Z M 136.371094 193.761719 " clip-rule="nonzero"/></clipPath><clipPath id="190da519fd"><path d="M 141.054688 193.761719 C 138.472656 193.761719 136.371094 195.859375 136.371094 198.445312 C 136.371094 201.027344 138.472656 203.125 141.054688 203.125 C 143.640625 203.125 145.738281 201.027344 145.738281 198.445312 C 145.738281 195.859375 143.640625 193.761719 141.054688 193.761719 Z M 141.054688 193.761719 " clip-rule="nonzero"/></clipPath><clipPath id="905e6ba5e3"><path d="M 141.054688 193.761719 C 138.472656 193.761719 136.371094 195.859375 136.371094 198.445312 C 136.371094 201.027344 138.472656 203.125 141.054688 203.125 C 143.640625 203.125 145.738281 201.027344 145.738281 198.445312 C 145.738281 195.859375 143.640625 193.761719 141.054688 193.761719 Z M 141.054688 193.761719 " clip-rule="nonzero"/></clipPath><clipPath id="0da6ccbeb0"><path d="M 89.429688 193.941406 L 98.617188 193.941406 L 98.617188 203.125 L 89.429688 203.125 Z M 89.429688 193.941406 " clip-rule="nonzero"/></clipPath><clipPath id="32345c2c54"><path d="M 94.023438 193.941406 C 91.488281 193.941406 89.429688 195.996094 89.429688 198.53125 C 89.429688 201.066406 91.488281 203.125 94.023438 203.125 C 96.558594 203.125 98.617188 201.066406 98.617188 198.53125 C 98.617188 195.996094 96.558594 193.941406 94.023438 193.941406 Z M 94.023438 193.941406 " clip-rule="nonzero"/></clipPath><clipPath id="68acbbb53e"><path d="M 94.023438 193.941406 C 91.488281 193.941406 89.429688 195.996094 89.429688 198.53125 C 89.429688 201.066406 91.488281 203.125 94.023438 203.125 C 96.558594 203.125 98.617188 201.066406 98.617188 198.53125 C 98.617188 195.996094 96.558594 193.941406 94.023438 193.941406 Z M 94.023438 193.941406 " clip-rule="nonzero"/></clipPath><clipPath id="b9a1995c64"><path d="M 60.253906 201.265625 L 87.171875 201.265625 L 87.171875 228.167969 L 60.253906 228.167969 Z M 60.253906 201.265625 " clip-rule="nonzero"/></clipPath><clipPath id="1b1b3222da"><path d="M 73.714844 201.265625 C 66.28125 201.265625 60.253906 207.289062 60.253906 214.714844 C 60.253906 222.148438 66.28125 228.167969 73.714844 228.167969 C 81.148438 228.167969 87.171875 222.148438 87.171875 214.714844 C 87.171875 207.289062 81.148438 201.265625 73.714844 201.265625 Z M 73.714844 201.265625 " clip-rule="nonzero"/></clipPath><clipPath id="48e5ef4593"><path d="M 73.714844 201.265625 C 66.28125 201.265625 60.253906 207.289062 60.253906 214.714844 C 60.253906 222.148438 66.28125 228.167969 73.714844 228.167969 C 81.148438 228.167969 87.171875 222.148438 87.171875 214.714844 C 87.171875 207.289062 81.148438 201.265625 73.714844 201.265625 Z M 73.714844 201.265625 " clip-rule="nonzero"/></clipPath><clipPath id="4662249c34"><path d="M 145.738281 201.265625 L 172.65625 201.265625 L 172.65625 228.167969 L 145.738281 228.167969 Z M 145.738281 201.265625 " clip-rule="nonzero"/></clipPath><clipPath id="88cd3c121e"><path d="M 159.199219 201.265625 C 151.765625 201.265625 145.738281 207.289062 145.738281 214.714844 C 145.738281 222.148438 151.765625 228.167969 159.199219 228.167969 C 166.628906 228.167969 172.65625 222.148438 172.65625 214.714844 C 172.65625 207.289062 166.628906 201.265625 159.199219 201.265625 Z M 159.199219 201.265625 " clip-rule="nonzero"/></clipPath><clipPath id="c251e50341"><path d="M 159.199219 201.265625 C 151.765625 201.265625 145.738281 207.289062 145.738281 214.714844 C 145.738281 222.148438 151.765625 228.167969 159.199219 228.167969 C 166.628906 228.167969 172.65625 222.148438 172.65625 214.714844 C 172.65625 207.289062 166.628906 201.265625 159.199219 201.265625 Z M 159.199219 201.265625 " clip-rule="nonzero"/></clipPath><clipPath id="820f08a4b2"><path d="M 0.015625 196 L 100.765625 196 L 100.765625 323 L 0.015625 323 Z M 0.015625 196 " clip-rule="nonzero"/></clipPath><clipPath id="096d76385e"><path d="M 130 199 L 224.742188 199 L 224.742188 317 L 130 317 Z M 130 199 " clip-rule="nonzero"/></clipPath><clipPath id="c58f2bd731"><path d="M 58.375 250.3125 L 152.9375 250.3125 L 152.9375 363.5 L 58.375 363.5 Z M 58.375 250.3125 " clip-rule="nonzero"/></clipPath><clipPath id="c23a896d73"><path d="M 92 249 L 187 249 L 187 363.5 L 92 363.5 Z M 92 249 " clip-rule="nonzero"/></clipPath><clipPath id="c523cb31ed"><path d="M 214.269531 267.238281 L 223.289062 267.238281 L 223.289062 276.253906 L 214.269531 276.253906 Z M 214.269531 267.238281 " clip-rule="nonzero"/></clipPath><clipPath id="f9d3a992b3"><path d="M 218.777344 267.238281 C 216.289062 267.238281 214.269531 269.257812 214.269531 271.746094 C 214.269531 274.238281 216.289062 276.253906 218.777344 276.253906 C 221.269531 276.253906 223.289062 274.238281 223.289062 271.746094 C 223.289062 269.257812 221.269531 267.238281 218.777344 267.238281 Z M 218.777344 267.238281 " clip-rule="nonzero"/></clipPath><clipPath id="e1f0312c2a"><path d="M 218.777344 267.238281 C 216.289062 267.238281 214.269531 269.257812 214.269531 271.746094 C 214.269531 274.238281 216.289062 276.253906 218.777344 276.253906 C 221.269531 276.253906 223.289062 274.238281 223.289062 271.746094 C 223.289062 269.257812 221.269531 267.238281 218.777344 267.238281 Z M 218.777344 267.238281 " clip-rule="nonzero"/></clipPath><clipPath id="891c3bc802"><path d="M 136.949219 347.027344 L 145.8125 347.027344 L 145.8125 355.886719 L 136.949219 355.886719 Z M 136.949219 347.027344 " clip-rule="nonzero"/></clipPath><clipPath id="9a975743c9"><path d="M 141.382812 347.027344 C 138.933594 347.027344 136.949219 349.007812 136.949219 351.457031 C 136.949219 353.902344 138.933594 355.886719 141.382812 355.886719 C 143.832031 355.886719 145.8125 353.902344 145.8125 351.457031 C 145.8125 349.007812 143.832031 347.027344 141.382812 347.027344 Z M 141.382812 347.027344 " clip-rule="nonzero"/></clipPath><clipPath id="56c8445c7a"><path d="M 141.382812 347.027344 C 138.933594 347.027344 136.949219 349.007812 136.949219 351.457031 C 136.949219 353.902344 138.933594 355.886719 141.382812 355.886719 C 143.832031 355.886719 145.8125 353.902344 145.8125 351.457031 C 145.8125 349.007812 143.832031 347.027344 141.382812 347.027344 Z M 141.382812 347.027344 " clip-rule="nonzero"/></clipPath><clipPath id="e9404801b5"><path d="M 102.960938 348.234375 L 111.828125 348.234375 L 111.828125 357.09375 L 102.960938 357.09375 Z M 102.960938 348.234375 " clip-rule="nonzero"/></clipPath><clipPath id="ea297d48fa"><path d="M 107.394531 348.234375 C 104.945312 348.234375 102.960938 350.214844 102.960938 352.660156 C 102.960938 355.109375 104.945312 357.09375 107.394531 357.09375 C 109.84375 357.09375 111.828125 355.109375 111.828125 352.660156 C 111.828125 350.214844 109.84375 348.234375 107.394531 348.234375 Z M 107.394531 348.234375 " clip-rule="nonzero"/></clipPath><clipPath id="50e8c4e8aa"><path d="M 107.394531 348.234375 C 104.945312 348.234375 102.960938 350.214844 102.960938 352.660156 C 102.960938 355.109375 104.945312 357.09375 107.394531 357.09375 C 109.84375 357.09375 111.828125 355.109375 111.828125 352.660156 C 111.828125 350.214844 109.84375 348.234375 107.394531 348.234375 Z M 107.394531 348.234375 " clip-rule="nonzero"/></clipPath><clipPath id="307d603945"><path d="M 1.277344 273.921875 L 10.136719 273.921875 L 10.136719 282.78125 L 1.277344 282.78125 Z M 1.277344 273.921875 " clip-rule="nonzero"/></clipPath><clipPath id="caa4feaf31"><path d="M 5.707031 273.921875 C 3.257812 273.921875 1.277344 275.902344 1.277344 278.351562 C 1.277344 280.796875 3.257812 282.78125 5.707031 282.78125 C 8.152344 282.78125 10.136719 280.796875 10.136719 278.351562 C 10.136719 275.902344 8.152344 273.921875 5.707031 273.921875 Z M 5.707031 273.921875 " clip-rule="nonzero"/></clipPath><clipPath id="280c709611"><path d="M 5.707031 273.921875 C 3.257812 273.921875 1.277344 275.902344 1.277344 278.351562 C 1.277344 280.796875 3.257812 282.78125 5.707031 282.78125 C 8.152344 282.78125 10.136719 280.796875 10.136719 278.351562 C 10.136719 275.902344 8.152344 273.921875 5.707031 273.921875 Z M 5.707031 273.921875 " clip-rule="nonzero"/></clipPath><clipPath id="ed1ad5d68d"><path d="M 64.082031 9.4375 L 139.039062 9.4375 L 139.039062 63.601562 L 64.082031 63.601562 Z M 64.082031 9.4375 " clip-rule="nonzero"/></clipPath><clipPath id="976d06728d"><path d="M 6.433594 28.996094 L 6.433594 44.5 C 6.433594 55.304688 15.1875 64.058594 25.988281 64.058594 L 119.675781 64.058594 C 130.476562 64.058594 139.230469 55.304688 139.230469 44.5 L 139.230469 28.996094 C 139.230469 18.195312 130.476562 9.4375 119.675781 9.4375 L 25.988281 9.4375 C 15.1875 9.4375 6.433594 18.195312 6.433594 28.996094 Z M 6.433594 28.996094 " clip-rule="nonzero"/></clipPath><clipPath id="46fc5c034e"><path d="M 6.433594 9.4375 L 55 9.4375 L 55 63.832031 L 6.433594 63.832031 Z M 6.433594 9.4375 " clip-rule="nonzero"/></clipPath><clipPath id="9408bc1891"><path d="M 6.433594 28.996094 L 6.433594 44.5 C 6.433594 55.304688 15.1875 64.058594 25.988281 64.058594 L 119.675781 64.058594 C 130.476562 64.058594 139.230469 55.304688 139.230469 44.5 L 139.230469 28.996094 C 139.230469 18.195312 130.476562 9.4375 119.675781 9.4375 L 25.988281 9.4375 C 15.1875 9.4375 6.433594 18.195312 6.433594 28.996094 Z M 6.433594 28.996094 " clip-rule="nonzero"/></clipPath><clipPath id="9d1c6284ee"><path d="M 177.394531 34.25 L 218.789062 34.25 L 218.789062 64.238281 L 177.394531 64.238281 Z M 177.394531 34.25 " clip-rule="nonzero"/></clipPath><clipPath id="77e06ab2de"><path d="M 147.292969 25.121094 L 174 25.121094 L 174 64.238281 L 147.292969 64.238281 Z M 147.292969 25.121094 " clip-rule="nonzero"/></clipPath><clipPath id="09f9019a35"><path d="M 170.054688 86 L 218.96875 86 L 218.96875 158.550781 L 170.054688 158.550781 Z M 170.054688 86 " clip-rule="nonzero"/></clipPath><clipPath id="c648dd2c57"><path d="M 121.242188 69.929688 L 168 69.929688 L 168 138.609375 L 121.242188 138.609375 Z M 121.242188 69.929688 " clip-rule="nonzero"/></clipPath><clipPath id="3dc97a8c09"><path d="M 90.167969 134 L 112.558594 134 L 112.558594 168.777344 L 90.167969 168.777344 Z M 90.167969 134 " clip-rule="nonzero"/></clipPath><clipPath id="f163810fcd"><path d="M 70 132.902344 L 86.90625 132.902344 L 86.90625 173.238281 L 70 173.238281 Z M 70 132.902344 " clip-rule="nonzero"/></clipPath><clipPath id="211daa6986"><path d="M 4.398438 134 L 28 134 L 28 168.777344 L 4.398438 168.777344 Z M 4.398438 134 " clip-rule="nonzero"/></clipPath><clipPath id="d35bd58520"><path d="M 73 75.832031 L 93.808594 75.832031 L 93.808594 99.257812 L 73 99.257812 Z M 73 75.832031 " clip-rule="nonzero"/></clipPath><clipPath id="1289dcdb3b"><path d="M 61 66.867188 L 68 66.867188 L 68 99.257812 L 61 99.257812 Z M 61 66.867188 " clip-rule="nonzero"/></clipPath><clipPath id="4d5dfdb8ff"><path d="M 23.535156 75.832031 L 56.746094 75.832031 L 56.746094 99.257812 L 23.535156 99.257812 Z M 23.535156 75.832031 " clip-rule="nonzero"/></clipPath></defs><g clip-path="url(#61681da02e)"><g clip-path="url(#755905583d)"><g clip-path="url(#8ef3cf8e28)"><path fill="#8ac3ef" d="M -0.675781 0.460938 L 225.996094 0.460938 L 225.996094 365.328125 L -0.675781 365.328125 Z M -0.675781 0.460938 " fill-opacity="1" fill-rule="nonzero"/></g></g></g><g clip-path="url(#3932791569)"><g clip-path="url(#dee72cd020)"><g clip-path="url(#f1b57cc6ea)"><path fill="#437bf5" d="M 54.710938 177.792969 L 180.277344 177.792969 L 180.277344 304.765625 L 54.710938 304.765625 Z M 54.710938 177.792969 " fill-opacity="1" fill-rule="nonzero"/></g></g></g><g clip-path="url(#5f90210152)"><g clip-path="url(#e169937c31)"><g clip-path="url(#0811133da5)"><path fill="#ff5757" d="M 100.871094 196.96875 L 134.113281 196.96875 L 134.113281 243.445312 L 100.871094 243.445312 Z M 100.871094 196.96875 " fill-opacity="1" fill-rule="nonzero"/></g></g></g><g clip-path="url(#20e6db8e22)"><g clip-path="url(#5be60c8912)"><g clip-path="url(#c9675825a0)"><path fill="#000000" d="M 107.394531 203.125 L 127.59375 203.125 L 127.59375 237.351562 L 107.394531 237.351562 Z M 107.394531 203.125 " fill-opacity="1" fill-rule="nonzero"/></g></g></g><g clip-path="url(#7dfdd7ddb3)"><g clip-path="url(#190da519fd)"><g clip-path="url(#905e6ba5e3)"><path fill="#000000" d="M 136.371094 193.761719 L 145.738281 193.761719 L 145.738281 203.125 L 136.371094 203.125 Z M 136.371094 193.761719 " fill-opacity="1" fill-rule="nonzero"/></g></g></g><g clip-path="url(#0da6ccbeb0)"><g clip-path="url(#32345c2c54)"><g clip-path="url(#68acbbb53e)"><path fill="#000000" d="M 89.429688 193.941406 L 98.617188 193.941406 L 98.617188 203.125 L 89.429688 203.125 Z M 89.429688 193.941406 " fill-opacity="1" fill-rule="nonzero"/></g></g></g><g clip-path="url(#b9a1995c64)"><g clip-path="url(#1b1b3222da)"><g clip-path="url(#48e5ef4593)"><path fill="#f995c2" d="M 60.253906 201.265625 L 87.171875 201.265625 L 87.171875 228.167969 L 60.253906 228.167969 Z M 60.253906 201.265625 " fill-opacity="1" fill-rule="nonzero"/></g></g></g><g clip-path="url(#4662249c34)"><g clip-path="url(#88cd3c121e)"><g clip-path="url(#c251e50341)"><path fill="#f995c2" d="M 145.738281 201.265625 L 172.65625 201.265625 L 172.65625 228.167969 L 145.738281 228.167969 Z M 145.738281 201.265625 " fill-opacity="1" fill-rule="nonzero"/></g></g></g><g clip-path="url(#820f08a4b2)"><path stroke-linecap="butt" transform="matrix(0.450565, -0.338627, 0.338803, 0.450332, -3.960495, 268.891096)" fill="none" stroke-linejoin="miter" d="M 3.619554 23.720825 C 40.495688 1.417304 77.377251 1.427806 114.25459 23.719052 " stroke="#437bf5" stroke-width="14" stroke-opacity="1" stroke-miterlimit="4"/></g><g clip-path="url(#096d76385e)"><path stroke-linecap="butt" transform="matrix(0.477978, 0.29873, -0.298885, 0.477732, 176.840501, 240.887356)" fill="none" stroke-linejoin="miter" d="M 0.00527641 7.002767 C 30.699302 7.000119 61.408753 6.996001 92.116005 7.001435 " stroke="#437bf5" stroke-width="14" stroke-opacity="1" stroke-miterlimit="4"/></g><g clip-path="url(#c58f2bd731)"><path stroke-linecap="butt" transform="matrix(-0.00562894, 0.563415, -0.563706, -0.00562603, 112.010266, 293.873884)" fill="none" stroke-linejoin="miter" d="M 2.072416 6.684566 C 36.185252 17.264954 70.296492 17.270812 104.412932 6.688213 " stroke="#437bf5" stroke-width="14" stroke-opacity="1" stroke-miterlimit="4"/></g><g clip-path="url(#c23a896d73)"><path stroke-linecap="butt" transform="matrix(-0.00562894, 0.563415, -0.563706, -0.00562603, 145.730965, 292.668033)" fill="none" stroke-linejoin="miter" d="M 2.070355 6.688045 C 36.183121 17.261504 70.294362 17.267363 104.410801 6.684764 " stroke="#437bf5" stroke-width="14" stroke-opacity="1" stroke-miterlimit="4"/></g><g clip-path="url(#c523cb31ed)"><g clip-path="url(#f9d3a992b3)"><g clip-path="url(#e1f0312c2a)"><path fill="#437bf5" d="M 214.269531 267.238281 L 223.289062 267.238281 L 223.289062 276.253906 L 214.269531 276.253906 Z M 214.269531 267.238281 " fill-opacity="1" fill-rule="nonzero"/></g></g></g><g clip-path="url(#891c3bc802)"><g clip-path="url(#9a975743c9)"><g clip-path="url(#56c8445c7a)"><path fill="#437bf5" d="M 136.949219 347.027344 L 145.8125 347.027344 L 145.8125 355.886719 L 136.949219 355.886719 Z M 136.949219 347.027344 " fill-opacity="1" fill-rule="nonzero"/></g></g></g><g clip-path="url(#e9404801b5)"><g clip-path="url(#ea297d48fa)"><g clip-path="url(#50e8c4e8aa)"><path fill="#437bf5" d="M 102.960938 348.234375 L 111.828125 348.234375 L 111.828125 357.09375 L 102.960938 357.09375 Z M 102.960938 348.234375 " fill-opacity="1" fill-rule="nonzero"/></g></g></g><g clip-path="url(#307d603945)"><g clip-path="url(#caa4feaf31)"><g clip-path="url(#280c709611)"><path fill="#437bf5" d="M 1.277344 273.921875 L 10.136719 273.921875 L 10.136719 282.78125 L 1.277344 282.78125 Z M 1.277344 273.921875 " fill-opacity="1" fill-rule="nonzero"/></g></g></g><g clip-path="url(#ed1ad5d68d)"><g clip-path="url(#976d06728d)"><path fill="#b0d3f5" d="M 64.765625 63.023438 L 64.765625 10.128906 L 76.675781 10.128906 L 76.675781 19.113281 L 77.296875 19.113281 C 78.398438 16.085938 80.222656 13.71875 82.769531 12.023438 C 85.320312 10.300781 88.359375 9.4375 91.894531 9.4375 C 95.476562 9.4375 98.492188 10.3125 100.949219 12.058594 C 103.429688 13.777344 105.171875 16.128906 106.183594 19.113281 L 106.734375 19.113281 C 107.90625 16.179688 109.878906 13.835938 112.65625 12.09375 C 115.453125 10.324219 118.773438 9.4375 122.605469 9.4375 C 127.472656 9.4375 131.445312 10.976562 134.519531 14.054688 C 137.59375 17.132812 139.132812 21.617188 139.132812 27.515625 L 139.132812 63.023438 L 126.636719 63.023438 L 126.636719 29.445312 C 126.636719 26.164062 125.761719 23.765625 124.019531 22.25 C 122.273438 20.710938 120.140625 19.941406 117.613281 19.941406 C 114.605469 19.941406 112.253906 20.882812 110.554688 22.765625 C 108.878906 24.625 108.042969 27.046875 108.042969 30.03125 L 108.042969 63.023438 L 95.820312 63.023438 L 95.820312 28.929688 C 95.820312 26.199219 94.992188 24.015625 93.339844 22.386719 C 91.710938 20.757812 89.578125 19.941406 86.9375 19.941406 C 85.148438 19.941406 83.515625 20.402344 82.046875 21.320312 C 80.578125 22.214844 79.410156 23.488281 78.535156 25.140625 C 77.664062 26.769531 77.226562 28.675781 77.226562 30.859375 L 77.226562 63.023438 Z M 64.765625 63.023438 " fill-opacity="1" fill-rule="nonzero"/></g></g><g clip-path="url(#46fc5c034e)"><g clip-path="url(#9408bc1891)"><path fill="#b0d3f5" d="M 31.875 64.054688 C 26.597656 64.054688 22.0625 62.894531 18.277344 60.574219 C 14.507812 58.257812 11.609375 55.054688 9.5625 50.96875 C 7.546875 46.859375 6.535156 42.132812 6.535156 36.78125 C 6.535156 31.410156 7.566406 26.667969 9.632812 22.558594 C 11.699219 18.425781 14.613281 15.214844 18.378906 12.917969 C 22.164062 10.597656 26.640625 9.4375 31.808594 9.4375 C 36.097656 9.4375 39.898438 10.234375 43.203125 11.816406 C 46.53125 13.375 49.179688 15.59375 51.15625 18.460938 C 53.128906 21.308594 54.253906 24.636719 54.53125 28.445312 L 42.617188 28.445312 C 42.136719 25.898438 40.988281 23.777344 39.175781 22.078125 C 37.382812 20.355469 34.984375 19.492188 31.980469 19.492188 C 29.429688 19.492188 27.191406 20.183594 25.265625 21.5625 C 23.335938 22.914062 21.832031 24.867188 20.753906 27.414062 C 19.699219 29.960938 19.171875 33.015625 19.171875 36.574219 C 19.171875 40.179688 19.699219 43.277344 20.753906 45.871094 C 21.8125 48.445312 23.292969 50.429688 25.195312 51.828125 C 27.121094 53.207031 29.382812 53.898438 31.980469 53.898438 C 33.816406 53.898438 35.457031 53.554688 36.902344 52.863281 C 38.371094 52.152344 39.597656 51.128906 40.585938 49.796875 C 41.574219 48.464844 42.25 46.847656 42.617188 44.945312 L 54.53125 44.945312 C 54.230469 48.683594 53.128906 52.003906 51.222656 54.894531 C 49.320312 57.761719 46.726562 60.015625 43.441406 61.640625 C 40.164062 63.25 36.304688 64.054688 31.875 64.054688 Z M 31.875 64.054688 " fill-opacity="1" fill-rule="nonzero"/></g></g><g clip-path="url(#9d1c6284ee)"><path fill="#b0d3f5" d="M 177.796875 64.058594 L 177.796875 34.855469 L 184.375 34.855469 L 184.375 39.816406 L 184.714844 39.816406 C 185.324219 38.144531 186.335938 36.839844 187.738281 35.902344 C 189.144531 34.949219 190.824219 34.476562 192.777344 34.476562 C 194.753906 34.476562 196.417969 34.957031 197.777344 35.921875 C 199.144531 36.871094 200.105469 38.171875 200.664062 39.816406 L 200.96875 39.816406 C 201.617188 38.195312 202.703125 36.902344 204.238281 35.941406 C 205.785156 34.964844 207.613281 34.476562 209.734375 34.476562 C 212.417969 34.476562 214.609375 35.324219 216.308594 37.023438 C 218.003906 38.722656 218.855469 41.199219 218.855469 44.457031 L 218.855469 64.058594 L 211.957031 64.058594 L 211.957031 45.519531 C 211.957031 43.707031 211.472656 42.382812 210.507812 41.550781 C 209.546875 40.699219 208.371094 40.273438 206.976562 40.273438 C 205.316406 40.273438 204.015625 40.792969 203.078125 41.832031 C 202.152344 42.859375 201.691406 44.195312 201.691406 45.84375 L 201.691406 64.058594 L 194.945312 64.058594 L 194.945312 45.238281 C 194.945312 43.726562 194.484375 42.523438 193.574219 41.621094 C 192.675781 40.722656 191.496094 40.273438 190.039062 40.273438 C 189.050781 40.273438 188.152344 40.527344 187.339844 41.035156 C 186.527344 41.53125 185.882812 42.234375 185.402344 43.144531 C 184.921875 44.046875 184.679688 45.097656 184.679688 46.300781 L 184.679688 64.058594 Z M 177.796875 64.058594 " fill-opacity="1" fill-rule="nonzero"/></g><g clip-path="url(#77e06ab2de)"><path fill="#b0d3f5" d="M 153.597656 54.894531 L 153.578125 46.585938 L 154.679688 46.585938 L 165.171875 34.855469 L 173.210938 34.855469 L 160.304688 49.226562 L 158.882812 49.226562 Z M 147.324219 64.058594 L 147.324219 25.121094 L 154.203125 25.121094 L 154.203125 64.058594 Z M 165.648438 64.058594 L 156.144531 50.769531 L 160.785156 45.921875 L 173.878906 64.058594 Z M 165.648438 64.058594 " fill-opacity="1" fill-rule="nonzero"/></g><g clip-path="url(#09f9019a35)"><path fill="#b0d3f5" d="M 194.832031 158.425781 C 190.503906 158.425781 186.785156 157.839844 183.675781 156.664062 C 180.5625 155.507812 178.066406 153.953125 176.179688 151.996094 C 174.292969 150.042969 172.980469 147.875 172.246094 145.5 L 183.109375 142.871094 C 183.597656 143.871094 184.304688 144.855469 185.238281 145.835938 C 186.171875 146.835938 187.425781 147.65625 189.007812 148.300781 C 190.605469 148.964844 192.613281 149.300781 195.035156 149.300781 C 198.453125 149.300781 201.285156 148.464844 203.53125 146.800781 C 205.769531 145.15625 206.894531 142.445312 206.894531 138.671875 L 206.894531 128.972656 L 206.292969 128.972656 C 205.671875 130.21875 204.761719 131.496094 203.5625 132.804688 C 202.386719 134.117188 200.820312 135.214844 198.863281 136.105469 C 196.933594 136.992188 194.503906 137.4375 191.570312 137.4375 C 187.636719 137.4375 184.074219 136.515625 180.875 134.671875 C 177.699219 132.804688 175.167969 130.027344 173.277344 126.339844 C 171.414062 122.632812 170.484375 117.988281 170.484375 112.414062 C 170.484375 106.792969 171.414062 102.050781 173.277344 98.1875 C 175.167969 94.300781 177.710938 91.355469 180.910156 89.355469 C 184.109375 87.335938 187.671875 86.324219 191.605469 86.324219 C 194.601562 86.324219 197.066406 86.835938 199 87.855469 C 200.953125 88.855469 202.507812 90.066406 203.664062 91.488281 C 204.816406 92.890625 205.695312 94.210938 206.292969 95.453125 L 206.960938 95.453125 L 206.960938 86.992188 L 218.851562 86.992188 L 218.851562 139.003906 C 218.851562 143.378906 217.8125 147 215.722656 149.867188 C 213.632812 152.730469 210.78125 154.875 207.160156 156.296875 C 203.539062 157.71875 199.429688 158.425781 194.832031 158.425781 Z M 194.933594 127.972656 C 197.488281 127.972656 199.664062 127.351562 201.464844 126.105469 C 203.261719 124.867188 204.628906 123.074219 205.5625 120.742188 C 206.492188 118.414062 206.960938 115.613281 206.960938 112.34375 C 206.960938 109.125 206.492188 106.304688 205.5625 103.882812 C 204.648438 101.464844 203.296875 99.582031 201.496094 98.253906 C 199.722656 96.898438 197.535156 96.21875 194.933594 96.21875 C 192.246094 96.21875 190.003906 96.921875 188.203125 98.320312 C 186.40625 99.71875 185.050781 101.640625 184.140625 104.085938 C 183.230469 106.503906 182.773438 109.257812 182.773438 112.34375 C 182.773438 115.480469 183.230469 118.222656 184.140625 120.578125 C 185.074219 122.910156 186.4375 124.730469 188.238281 126.039062 C 190.058594 127.332031 192.292969 127.972656 194.933594 127.972656 Z M 194.933594 127.972656 " fill-opacity="1" fill-rule="nonzero"/></g><g clip-path="url(#c648dd2c57)"><path fill="#b0d3f5" d="M 132.269531 122.109375 L 132.234375 107.550781 L 134.167969 107.550781 L 152.558594 86.992188 L 166.648438 86.992188 L 144.03125 112.179688 L 141.53125 112.179688 Z M 121.277344 138.171875 L 121.277344 69.929688 L 133.335938 69.929688 L 133.335938 138.171875 Z M 153.394531 138.171875 L 136.734375 114.878906 L 144.863281 106.382812 L 167.816406 138.171875 Z M 153.394531 138.171875 " fill-opacity="1" fill-rule="nonzero"/></g><g clip-path="url(#3dc97a8c09)"><path fill="#b0d3f5" d="M 96.210938 153.453125 L 96.210938 168.320312 L 90.230469 168.320312 L 90.230469 134.492188 L 96.074219 134.492188 L 96.074219 147.261719 L 96.375 147.261719 C 96.96875 145.828125 97.886719 144.699219 99.132812 143.871094 C 100.386719 143.039062 101.980469 142.617188 103.921875 142.617188 C 105.683594 142.617188 107.21875 142.988281 108.527344 143.726562 C 109.839844 144.460938 110.851562 145.542969 111.566406 146.960938 C 112.292969 148.382812 112.65625 150.117188 112.65625 152.164062 L 112.65625 168.320312 L 106.679688 168.320312 L 106.679688 153.089844 C 106.679688 151.382812 106.238281 150.058594 105.359375 149.109375 C 104.488281 148.152344 103.265625 147.671875 101.691406 147.671875 C 100.636719 147.671875 99.6875 147.90625 98.851562 148.367188 C 98.023438 148.820312 97.375 149.472656 96.902344 150.332031 C 96.441406 151.191406 96.210938 152.234375 96.210938 153.453125 Z M 96.210938 153.453125 " fill-opacity="1" fill-rule="nonzero"/></g><g clip-path="url(#f163810fcd)"><path fill="#b0d3f5" d="M 86.417969 132.90625 L 75.515625 173.40625 L 70.28125 173.40625 L 81.183594 132.90625 Z M 86.417969 132.90625 " fill-opacity="1" fill-rule="nonzero"/></g><path fill="#b0d3f5" d="M 30.875 168.320312 L 30.875 142.949219 L 36.589844 142.949219 L 36.589844 147.261719 L 36.886719 147.261719 C 37.414062 145.804688 38.289062 144.671875 39.511719 143.855469 C 40.734375 143.03125 42.195312 142.617188 43.886719 142.617188 C 45.609375 142.617188 47.054688 143.039062 48.230469 143.871094 C 49.421875 144.699219 50.257812 145.828125 50.742188 147.261719 L 51.003906 147.261719 C 51.570312 145.851562 52.515625 144.726562 53.84375 143.890625 C 55.1875 143.042969 56.78125 142.617188 58.617188 142.617188 C 60.953125 142.617188 62.855469 143.355469 64.335938 144.832031 C 65.808594 146.304688 66.542969 148.457031 66.542969 151.289062 L 66.542969 168.320312 L 60.550781 168.320312 L 60.550781 152.214844 C 60.550781 150.640625 60.132812 149.492188 59.296875 148.761719 C 58.460938 148.027344 57.433594 147.65625 56.222656 147.65625 C 54.78125 147.65625 53.652344 148.109375 52.839844 149.007812 C 52.035156 149.902344 51.632812 151.0625 51.632812 152.496094 L 51.632812 168.320312 L 45.769531 168.320312 L 45.769531 151.96875 C 45.769531 150.65625 45.375 149.613281 44.582031 148.828125 C 43.800781 148.046875 42.777344 147.65625 41.507812 147.65625 C 40.652344 147.65625 39.871094 147.875 39.164062 148.316406 C 38.460938 148.746094 37.898438 149.355469 37.480469 150.148438 C 37.0625 150.933594 36.855469 151.847656 36.855469 152.890625 L 36.855469 168.320312 Z M 30.875 168.320312 " fill-opacity="1" fill-rule="nonzero"/><g clip-path="url(#211daa6986)"><path fill="#b0d3f5" d="M 9.847656 160.355469 L 9.832031 153.140625 L 10.789062 153.140625 L 19.90625 142.949219 L 26.890625 142.949219 L 15.679688 155.4375 L 14.441406 155.4375 Z M 4.398438 168.320312 L 4.398438 134.492188 L 10.375 134.492188 L 10.375 168.320312 Z M 20.316406 168.320312 L 12.0625 156.773438 L 16.09375 152.5625 L 27.46875 168.320312 Z M 20.316406 168.320312 " fill-opacity="1" fill-rule="nonzero"/></g><g clip-path="url(#d35bd58520)"><path fill="#b0d3f5" d="M 78.542969 85.800781 L 78.542969 99.464844 L 73.046875 99.464844 L 73.046875 76.144531 L 78.300781 76.144531 L 78.300781 80.105469 L 78.570312 80.105469 C 79.109375 78.800781 79.960938 77.765625 81.136719 76.992188 C 82.324219 76.222656 83.785156 75.839844 85.527344 75.839844 C 87.132812 75.839844 88.535156 76.183594 89.730469 76.871094 C 90.9375 77.558594 91.867188 78.558594 92.523438 79.863281 C 93.191406 81.167969 93.523438 82.75 93.511719 84.613281 L 93.511719 99.464844 L 88.015625 99.464844 L 88.015625 85.464844 C 88.015625 83.90625 87.613281 82.6875 86.800781 81.804688 C 86 80.925781 84.890625 80.484375 83.476562 80.484375 C 82.511719 80.484375 81.660156 80.699219 80.910156 81.125 C 80.171875 81.539062 79.589844 82.140625 79.164062 82.929688 C 78.75 83.71875 78.542969 84.675781 78.542969 85.800781 Z M 78.542969 85.800781 " fill-opacity="1" fill-rule="nonzero"/></g><g clip-path="url(#1289dcdb3b)"><path fill="#b0d3f5" d="M 61.898438 99.464844 L 61.898438 76.144531 L 67.394531 76.144531 L 67.394531 99.464844 Z M 64.664062 72.835938 C 63.792969 72.835938 63.042969 72.542969 62.417969 71.96875 C 61.785156 71.382812 61.476562 70.679688 61.476562 69.855469 C 61.476562 69.027344 61.785156 68.324219 62.417969 67.746094 C 63.042969 67.160156 63.792969 66.867188 64.664062 66.867188 C 65.542969 66.867188 66.292969 67.160156 66.910156 67.746094 C 67.539062 68.324219 67.851562 69.027344 67.851562 69.855469 C 67.851562 70.679688 67.539062 71.382812 66.910156 71.96875 C 66.292969 72.542969 65.542969 72.835938 64.664062 72.835938 Z M 64.664062 72.835938 " fill-opacity="1" fill-rule="nonzero"/></g><g clip-path="url(#4d5dfdb8ff)"><path fill="#b0d3f5" d="M 23.535156 99.464844 L 23.535156 76.144531 L 28.785156 76.144531 L 28.785156 80.105469 L 29.058594 80.105469 C 29.546875 78.769531 30.347656 77.726562 31.472656 76.976562 C 32.597656 76.21875 33.9375 75.839844 35.496094 75.839844 C 37.074219 75.839844 38.40625 76.222656 39.488281 76.992188 C 40.582031 77.75 41.351562 78.789062 41.796875 80.105469 L 42.039062 80.105469 C 42.554688 78.808594 43.425781 77.777344 44.648438 77.007812 C 45.882812 76.230469 47.347656 75.839844 49.035156 75.839844 C 51.183594 75.839844 52.933594 76.519531 54.289062 77.871094 C 55.648438 79.230469 56.324219 81.210938 56.324219 83.8125 L 56.324219 99.464844 L 50.8125 99.464844 L 50.8125 84.664062 C 50.8125 83.214844 50.429688 82.15625 49.660156 81.488281 C 48.890625 80.808594 47.949219 80.472656 46.835938 80.472656 C 45.511719 80.472656 44.472656 80.886719 43.726562 81.714844 C 42.988281 82.535156 42.617188 83.601562 42.617188 84.921875 L 42.617188 99.464844 L 37.226562 99.464844 L 37.226562 84.433594 C 37.226562 83.230469 36.863281 82.269531 36.132812 81.546875 C 35.414062 80.832031 34.476562 80.472656 33.308594 80.472656 C 32.519531 80.472656 31.804688 80.671875 31.152344 81.078125 C 30.507812 81.472656 29.992188 82.035156 29.605469 82.765625 C 29.222656 83.480469 29.03125 84.320312 29.03125 85.285156 L 29.03125 99.464844 Z M 23.535156 99.464844 " fill-opacity="1" fill-rule="nonzero"/></g><path fill="#437bf5" d="M 18.699219 101.339844 C 19.121094 102.113281 19.597656 103.046875 20.132812 104.152344 C 20.65625 105.230469 21.199219 106.394531 21.761719 107.648438 C 22.324219 108.894531 22.878906 110.164062 23.429688 111.464844 L 24.949219 115.050781 L 21.050781 116.699219 L 17.148438 115.050781 L 18.664062 111.464844 C 19.214844 110.164062 19.773438 108.894531 20.332031 107.648438 C 20.898438 106.394531 21.441406 105.230469 21.964844 104.152344 C 22.5 103.046875 22.976562 102.113281 23.394531 101.339844 L 24.601562 99.132812 L 35.367188 99.132812 L 35.890625 102.761719 C 36.113281 104.308594 36.320312 106.035156 36.507812 107.9375 C 36.695312 109.816406 36.863281 111.773438 37.003906 113.804688 C 37.144531 115.808594 37.277344 117.824219 37.394531 119.839844 C 37.515625 121.855469 37.617188 123.753906 37.703125 125.53125 L 37.917969 129.972656 L 24.457031 129.972656 L 24.335938 125.863281 C 24.269531 123.707031 24.1875 121.359375 24.078125 118.8125 C 23.972656 116.308594 23.8125 113.785156 23.601562 111.238281 L 27.824219 110.890625 L 31.714844 112.566406 L 30.425781 115.566406 C 29.957031 116.65625 29.492188 117.742188 29.035156 118.828125 L 27.6875 121.988281 L 25.492188 127.132812 L 16.382812 127.132812 L 14.183594 122 L 12.84375 118.84375 C 12.382812 117.746094 11.917969 116.65625 11.449219 115.570312 L 10.15625 112.566406 L 14.046875 110.890625 L 18.265625 111.238281 C 18.054688 113.785156 17.898438 116.308594 17.792969 118.8125 C 17.6875 121.359375 17.601562 123.707031 17.535156 125.863281 L 17.414062 129.972656 L 3.949219 129.972656 L 4.164062 125.53125 C 4.253906 123.753906 4.355469 121.855469 4.476562 119.839844 C 4.597656 117.824219 4.726562 115.808594 4.867188 113.804688 C 5.011719 111.773438 5.175781 109.816406 5.359375 107.9375 C 5.550781 106.035156 5.757812 104.308594 5.980469 102.761719 L 6.507812 99.132812 L 17.496094 99.132812 Z M 11.265625 105.398438 L 14.984375 103.371094 L 14.984375 107.605469 L 10.171875 107.605469 L 10.171875 103.371094 L 14.367188 103.980469 C 14.160156 105.398438 13.96875 106.996094 13.792969 108.773438 C 13.609375 110.574219 13.453125 112.449219 13.316406 114.398438 C 13.175781 116.375 13.050781 118.355469 12.933594 120.339844 C 12.816406 122.328125 12.710938 124.191406 12.628906 125.945312 L 8.398438 125.738281 L 8.398438 121.5 L 13.304688 121.5 L 13.304688 125.738281 L 9.070312 125.613281 C 9.132812 123.421875 9.222656 121.035156 9.332031 118.460938 C 9.4375 115.84375 9.605469 113.203125 9.824219 110.542969 L 17.9375 109.21875 L 19.222656 112.214844 C 19.703125 113.324219 20.171875 114.425781 20.636719 115.523438 L 21.972656 118.664062 L 23.070312 121.230469 L 19.175781 122.898438 L 19.175781 118.660156 L 22.695312 118.660156 L 22.695312 122.898438 L 18.800781 121.230469 L 19.894531 118.671875 L 21.226562 115.539062 C 21.695312 114.429688 22.167969 113.324219 22.644531 112.21875 L 23.933594 109.21875 L 32.046875 110.542969 C 32.265625 113.203125 32.433594 115.84375 32.542969 118.460938 C 32.648438 121.035156 32.734375 123.421875 32.800781 125.613281 L 28.566406 125.738281 L 28.566406 121.5 L 33.472656 121.5 L 33.472656 125.738281 L 29.242188 125.945312 C 29.15625 124.191406 29.054688 122.328125 28.9375 120.339844 C 28.820312 118.355469 28.691406 116.375 28.554688 114.398438 C 28.417969 112.449219 28.257812 110.574219 28.082031 108.773438 C 27.90625 106.996094 27.710938 105.398438 27.507812 103.980469 L 31.699219 103.371094 L 31.699219 107.605469 L 27.117188 107.605469 L 27.117188 103.371094 L 30.835938 105.398438 C 30.476562 106.050781 30.0625 106.863281 29.589844 107.847656 C 29.097656 108.859375 28.589844 109.949219 28.054688 111.132812 C 27.519531 112.316406 26.992188 113.53125 26.464844 114.769531 L 21.050781 127.566406 L 15.632812 114.769531 C 15.105469 113.53125 14.574219 112.316406 14.039062 111.132812 C 13.507812 109.949219 13 108.859375 12.507812 107.847656 C 12.035156 106.863281 11.617188 106.050781 11.265625 105.398438 Z M 11.265625 105.398438 " fill-opacity="1" fill-rule="nonzero"/><path fill="#437bf5" d="M 32.617188 117.378906 C 32.617188 115.316406 32.957031 113.464844 33.628906 111.820312 C 34.308594 110.164062 35.21875 108.757812 36.375 107.601562 C 37.542969 106.4375 38.890625 105.550781 40.410156 104.949219 C 41.890625 104.363281 43.417969 104.070312 44.988281 104.070312 C 46.71875 104.070312 48.308594 104.351562 49.75 104.910156 C 51.292969 105.507812 52.636719 106.40625 53.773438 107.601562 C 55.945312 109.894531 57.03125 113.035156 57.03125 117.023438 C 57.03125 117.394531 57.015625 117.792969 56.992188 118.214844 C 56.96875 118.574219 56.945312 118.898438 56.921875 119.183594 L 56.597656 123.066406 L 41.792969 123.066406 L 41.792969 118.828125 L 46.003906 118.371094 C 45.988281 118.261719 45.945312 118.140625 45.867188 118.011719 C 45.796875 117.882812 45.714844 117.792969 45.632812 117.734375 C 45.617188 117.722656 45.605469 117.714844 45.597656 117.710938 C 45.621094 117.722656 45.65625 117.734375 45.699219 117.742188 C 45.894531 117.792969 46.148438 117.820312 46.46875 117.820312 C 47.089844 117.820312 47.691406 117.765625 48.28125 117.65625 C 48.8125 117.550781 49.199219 117.449219 49.445312 117.34375 L 54.441406 115.140625 L 56.484375 127.515625 L 53.691406 128.914062 C 53.214844 129.152344 52.644531 129.371094 51.980469 129.570312 C 51.398438 129.746094 50.773438 129.894531 50.089844 130.019531 C 49.460938 130.132812 48.792969 130.226562 48.085938 130.304688 C 47.332031 130.382812 46.578125 130.425781 45.824219 130.425781 C 43.753906 130.425781 41.902344 130.097656 40.269531 129.445312 C 38.5625 128.761719 37.125 127.800781 35.953125 126.566406 C 34.78125 125.324219 33.914062 123.863281 33.363281 122.191406 C 32.867188 120.683594 32.617188 119.082031 32.617188 117.378906 Z M 41.089844 117.378906 C 41.089844 118.171875 41.199219 118.890625 41.40625 119.535156 C 41.566406 120.015625 41.800781 120.417969 42.113281 120.746094 C 42.425781 121.078125 42.859375 121.359375 43.414062 121.578125 C 44.039062 121.828125 44.84375 121.953125 45.824219 121.953125 C 46.277344 121.953125 46.730469 121.929688 47.179688 121.878906 C 47.675781 121.828125 48.140625 121.761719 48.5625 121.683594 C 48.933594 121.617188 49.261719 121.535156 49.546875 121.453125 C 49.742188 121.394531 49.863281 121.355469 49.898438 121.335938 L 51.792969 125.121094 L 47.617188 125.8125 L 46.96875 121.910156 L 51.152344 121.21875 L 52.855469 125.097656 C 52.023438 125.464844 51.023438 125.757812 49.859375 125.980469 C 48.746094 126.191406 47.621094 126.296875 46.46875 126.296875 C 44.195312 126.296875 42.277344 125.742188 40.726562 124.640625 C 39.824219 124 39.109375 123.226562 38.570312 122.3125 C 38.027344 121.398438 37.699219 120.386719 37.582031 119.289062 L 37.070312 114.59375 L 52.699219 114.59375 L 52.699219 118.828125 L 48.476562 118.480469 C 48.5 118.246094 48.519531 117.976562 48.539062 117.671875 C 48.554688 117.429688 48.558594 117.210938 48.558594 117.023438 C 48.558594 115.289062 48.246094 114.089844 47.625 113.433594 C 47.367188 113.15625 47.054688 112.949219 46.695312 112.808594 C 46.230469 112.636719 45.664062 112.546875 44.988281 112.546875 C 44.492188 112.546875 44.007812 112.636719 43.527344 112.828125 C 43.09375 113 42.707031 113.257812 42.367188 113.597656 C 42.015625 113.949219 41.714844 114.425781 41.46875 115.03125 C 41.214844 115.644531 41.089844 116.429688 41.089844 117.378906 Z M 43.921875 115.757812 C 43.917969 115.699219 43.90625 115.636719 43.886719 115.582031 C 43.933594 115.730469 44.007812 115.867188 44.117188 116 C 44.242188 116.152344 44.375 116.261719 44.519531 116.335938 C 44.671875 116.414062 44.820312 116.46875 44.964844 116.5 C 45 116.507812 45.027344 116.511719 45.058594 116.515625 L 45.046875 116.515625 C 45.070312 116.511719 45.09375 116.507812 45.125 116.5 C 45.230469 116.480469 45.351562 116.441406 45.472656 116.382812 C 45.628906 116.308594 45.777344 116.191406 45.910156 116.035156 C 46 115.933594 46.058594 115.832031 46.09375 115.730469 C 46.039062 115.886719 46 116.042969 45.976562 116.199219 L 41.792969 115.535156 L 41.792969 111.300781 L 48.148438 111.300781 L 48.148438 115.535156 Z M 52.613281 119.777344 L 36.835938 119.777344 L 37.609375 114.878906 C 37.714844 114.214844 37.875 113.566406 38.101562 112.925781 C 38.417969 112.027344 38.875 111.222656 39.476562 110.519531 C 40.128906 109.761719 40.921875 109.164062 41.851562 108.722656 C 42.816406 108.269531 43.878906 108.042969 45.050781 108.042969 C 46.296875 108.042969 47.40625 108.292969 48.390625 108.800781 C 49.289062 109.261719 50.046875 109.867188 50.664062 110.621094 C 51.265625 111.355469 51.707031 112.183594 51.988281 113.105469 C 52.207031 113.824219 52.339844 114.5625 52.378906 115.316406 Z M 52.613281 119.777344 " fill-opacity="1" fill-rule="nonzero"/><path fill="#437bf5" d="M 62.988281 118.144531 C 63.390625 118.144531 63.773438 118.136719 64.132812 118.117188 C 64.402344 118.105469 64.582031 118.085938 64.683594 118.070312 L 65.375 122.25 L 61.140625 122.25 L 61.140625 118.605469 L 65.375 118.605469 L 64.460938 122.742188 C 64.414062 122.730469 64.273438 122.710938 64.039062 122.6875 C 63.804688 122.660156 63.609375 122.648438 63.441406 122.648438 C 63.179688 122.648438 62.941406 122.660156 62.734375 122.691406 C 62.800781 122.679688 62.890625 122.644531 63.011719 122.585938 C 63.382812 122.402344 63.6875 122.125 63.929688 121.761719 C 64.234375 121.308594 64.386719 120.847656 64.386719 120.378906 C 64.386719 120.105469 64.304688 119.8125 64.148438 119.488281 C 63.898438 118.964844 63.519531 118.558594 63.015625 118.273438 C 62.882812 118.191406 62.769531 118.144531 62.675781 118.125 C 62.738281 118.136719 62.839844 118.144531 62.988281 118.144531 Z M 62.988281 126.617188 C 61.355469 126.617188 59.957031 126.285156 58.796875 125.621094 C 57.792969 125.039062 57.035156 124.226562 56.527344 123.183594 C 56.121094 122.339844 55.914062 121.402344 55.914062 120.378906 C 55.914062 119.136719 56.238281 118.03125 56.882812 117.0625 C 57.472656 116.179688 58.253906 115.496094 59.222656 115.007812 C 59.945312 114.648438 60.738281 114.410156 61.597656 114.292969 C 62.183594 114.214844 62.800781 114.171875 63.441406 114.171875 C 63.921875 114.171875 64.429688 114.207031 64.976562 114.265625 C 65.511719 114.324219 65.953125 114.394531 66.296875 114.46875 L 69.613281 115.207031 L 69.613281 125.839844 L 66.074219 126.433594 C 65.65625 126.5 65.148438 126.550781 64.558594 126.578125 C 64.054688 126.605469 63.53125 126.617188 62.988281 126.617188 Z M 62.601562 104.070312 C 64.492188 104.070312 66.128906 104.308594 67.519531 104.78125 C 69.125 105.328125 70.453125 106.160156 71.503906 107.269531 C 72.558594 108.382812 73.296875 109.710938 73.722656 111.253906 C 74.058594 112.480469 74.226562 113.8125 74.226562 115.246094 L 74.226562 128.664062 L 70.898438 129.390625 C 70.140625 129.558594 69.109375 129.746094 67.816406 129.964844 C 66.359375 130.210938 64.644531 130.332031 62.667969 130.332031 C 61.265625 130.332031 59.972656 130.199219 58.785156 129.941406 C 57.351562 129.632812 56.085938 129.101562 54.984375 128.347656 C 53.71875 127.484375 52.75 126.359375 52.078125 124.96875 C 51.453125 123.675781 51.140625 122.191406 51.140625 120.507812 C 51.140625 118.761719 51.527344 117.214844 52.304688 115.871094 C 53.058594 114.5625 54.078125 113.515625 55.355469 112.734375 C 56.433594 112.070312 57.644531 111.597656 58.980469 111.3125 C 60.128906 111.066406 61.316406 110.945312 62.539062 110.945312 C 63.320312 110.945312 64.027344 110.980469 64.667969 111.050781 C 65.386719 111.132812 66.011719 111.25 66.542969 111.398438 L 65.375 115.472656 L 61.140625 115.472656 L 61.140625 115.019531 C 61.140625 115.128906 61.167969 115.257812 61.226562 115.414062 C 61.320312 115.652344 61.457031 115.863281 61.640625 116.050781 C 61.910156 116.316406 62.179688 116.488281 62.449219 116.570312 C 62.460938 116.570312 62.464844 116.570312 62.46875 116.570312 C 62.453125 116.570312 62.429688 116.570312 62.40625 116.566406 C 62.308594 116.550781 62.191406 116.546875 62.054688 116.546875 C 61.445312 116.546875 60.84375 116.589844 60.253906 116.679688 C 59.75 116.753906 59.34375 116.847656 59.039062 116.960938 L 54.191406 118.757812 L 52.195312 106.148438 L 55.707031 105.066406 C 56.085938 104.949219 56.535156 104.832031 57.050781 104.710938 C 57.574219 104.589844 58.136719 104.484375 58.738281 104.394531 C 59.308594 104.308594 59.902344 104.234375 60.527344 104.171875 C 61.214844 104.105469 61.90625 104.070312 62.601562 104.070312 Z M 62.601562 112.546875 C 62.183594 112.546875 61.765625 112.566406 61.355469 112.605469 C 60.878906 112.652344 60.433594 112.707031 60.015625 112.773438 C 59.621094 112.828125 59.273438 112.894531 58.957031 112.96875 C 58.636719 113.042969 58.382812 113.105469 58.199219 113.164062 L 56.953125 109.117188 L 61.136719 108.453125 L 61.753906 112.328125 L 57.566406 112.988281 L 56.097656 109.015625 C 56.953125 108.699219 57.925781 108.460938 59.011719 108.296875 C 60.015625 108.148438 61.027344 108.074219 62.054688 108.074219 C 64.449219 108.074219 66.308594 108.734375 67.628906 110.058594 C 68.308594 110.734375 68.816406 111.523438 69.15625 112.421875 C 69.460938 113.230469 69.613281 114.097656 69.613281 115.019531 L 69.613281 121.089844 L 64.214844 119.546875 C 64.140625 119.527344 63.980469 119.5 63.734375 119.472656 C 63.402344 119.4375 63.003906 119.417969 62.539062 119.417969 C 61.910156 119.417969 61.308594 119.480469 60.738281 119.601562 C 60.355469 119.683594 60.03125 119.800781 59.78125 119.957031 C 59.722656 119.992188 59.675781 120.042969 59.636719 120.109375 L 59.644531 120.113281 C 59.621094 120.210938 59.609375 120.34375 59.609375 120.507812 C 59.609375 120.75 59.625 120.949219 59.65625 121.117188 C 59.671875 121.195312 59.6875 121.246094 59.703125 121.277344 C 59.71875 121.3125 59.738281 121.335938 59.765625 121.351562 C 59.953125 121.484375 60.226562 121.585938 60.582031 121.660156 C 61.175781 121.792969 61.875 121.855469 62.667969 121.855469 C 64.175781 121.855469 65.425781 121.773438 66.421875 121.605469 C 67.578125 121.414062 68.46875 121.25 69.085938 121.117188 L 69.992188 125.253906 L 65.753906 125.253906 L 65.753906 115.246094 C 65.753906 114.574219 65.6875 113.992188 65.554688 113.5 C 65.503906 113.316406 65.4375 113.183594 65.351562 113.09375 C 65.261719 112.996094 65.070312 112.898438 64.785156 112.800781 C 64.28125 112.632812 63.554688 112.546875 62.601562 112.546875 Z M 62.601562 112.546875 " fill-opacity="1" fill-rule="nonzero"/><path fill="#437bf5" d="M 79.21875 118.046875 C 79.464844 118.046875 79.648438 118.039062 79.769531 118.023438 C 79.746094 118.027344 79.722656 118.035156 79.695312 118.039062 C 79.570312 118.070312 79.429688 118.121094 79.285156 118.191406 C 78.636719 118.5 78.136719 118.96875 77.785156 119.609375 C 77.53125 120.078125 77.402344 120.550781 77.402344 121.023438 C 77.402344 121.722656 77.597656 122.347656 77.988281 122.90625 C 78.207031 123.21875 78.449219 123.457031 78.710938 123.621094 C 78.464844 123.46875 77.984375 123.261719 77.269531 122.984375 C 76.398438 122.664062 75.589844 122.320312 74.847656 121.953125 C 73.832031 121.453125 72.949219 120.839844 72.195312 120.105469 C 71.34375 119.273438 70.6875 118.292969 70.230469 117.171875 C 69.78125 116.074219 69.558594 114.84375 69.558594 113.472656 C 69.558594 112.046875 69.84375 110.730469 70.40625 109.53125 C 70.988281 108.292969 71.839844 107.238281 72.960938 106.359375 C 74.914062 104.835938 77.40625 104.070312 80.445312 104.070312 C 81.746094 104.070312 83.003906 104.1875 84.21875 104.421875 C 85.410156 104.652344 86.398438 104.921875 87.191406 105.222656 L 90.605469 106.539062 L 87.925781 118.480469 L 83.445312 116.929688 C 83.03125 116.78125 82.566406 116.65625 82.0625 116.535156 C 81.71875 116.457031 81.296875 116.417969 80.796875 116.417969 C 80.683594 116.417969 80.609375 116.417969 80.585938 116.425781 C 80.757812 116.394531 80.949219 116.316406 81.167969 116.195312 C 81.636719 115.933594 82.019531 115.554688 82.316406 115.066406 C 82.621094 114.550781 82.773438 114.011719 82.773438 113.441406 C 82.773438 113.054688 82.691406 112.671875 82.53125 112.289062 C 82.285156 111.71875 81.945312 111.273438 81.503906 110.957031 C 81.484375 110.945312 81.464844 110.929688 81.453125 110.925781 C 81.453125 110.925781 81.460938 110.929688 81.46875 110.929688 C 81.515625 110.960938 81.582031 110.992188 81.660156 111.03125 C 81.878906 111.136719 82.183594 111.261719 82.578125 111.410156 C 83.808594 111.863281 84.863281 112.328125 85.738281 112.808594 C 86.84375 113.414062 87.757812 114.113281 88.476562 114.914062 C 89.300781 115.824219 89.886719 116.855469 90.230469 118 C 90.507812 118.933594 90.648438 119.964844 90.648438 121.089844 C 90.648438 122.589844 90.34375 123.953125 89.734375 125.183594 C 89.097656 126.476562 88.152344 127.550781 86.917969 128.398438 C 84.9375 129.75 82.359375 130.425781 79.1875 130.425781 C 77.320312 130.425781 75.714844 130.25 74.367188 129.902344 C 73.140625 129.589844 72.226562 129.296875 71.625 129.027344 L 68.507812 127.640625 L 71.023438 115.460938 L 75.707031 117.308594 C 76.304688 117.546875 76.917969 117.730469 77.550781 117.863281 C 78.121094 117.984375 78.671875 118.046875 79.21875 118.046875 Z M 79.21875 126.519531 C 78.082031 126.519531 76.9375 126.398438 75.789062 126.15625 C 74.695312 125.921875 73.632812 125.601562 72.59375 125.191406 L 74.152344 121.25 L 78.296875 122.105469 L 77.492188 126.015625 L 73.34375 125.15625 L 75.0625 121.285156 C 75.238281 121.363281 75.710938 121.5 76.484375 121.699219 C 77.136719 121.867188 78.035156 121.953125 79.1875 121.953125 C 80 121.953125 80.6875 121.882812 81.253906 121.75 C 81.636719 121.65625 81.933594 121.539062 82.136719 121.398438 C 82.160156 121.382812 82.175781 121.371094 82.183594 121.363281 C 82.171875 121.378906 82.15625 121.398438 82.148438 121.417969 C 82.144531 121.421875 82.144531 121.425781 82.144531 121.429688 C 82.148438 121.414062 82.152344 121.402344 82.152344 121.386719 C 82.171875 121.3125 82.179688 121.210938 82.179688 121.089844 C 82.179688 120.792969 82.15625 120.574219 82.117188 120.433594 C 82.136719 120.503906 82.160156 120.554688 82.1875 120.585938 C 82.113281 120.5 81.9375 120.386719 81.671875 120.242188 C 81.167969 119.964844 80.476562 119.664062 79.601562 119.34375 C 78.964844 119.105469 78.417969 118.875 77.96875 118.65625 C 77.414062 118.386719 76.9375 118.109375 76.542969 117.828125 C 75.714844 117.226562 75.117188 116.496094 74.746094 115.625 C 74.453125 114.941406 74.304688 114.214844 74.304688 113.441406 C 74.304688 112.449219 74.550781 111.542969 75.046875 110.714844 C 75.527344 109.910156 76.191406 109.269531 77.042969 108.792969 C 78.058594 108.226562 79.3125 107.945312 80.796875 107.945312 C 81.9375 107.945312 82.988281 108.054688 83.957031 108.277344 C 84.761719 108.464844 85.511719 108.675781 86.21875 108.921875 L 84.832031 112.925781 L 80.699219 112 L 81.539062 108.253906 L 85.671875 109.179688 L 84.152344 113.136719 C 83.824219 113.007812 83.308594 112.878906 82.609375 112.742188 C 81.929688 112.609375 81.207031 112.546875 80.445312 112.546875 C 79.804688 112.546875 79.269531 112.605469 78.835938 112.730469 C 78.554688 112.808594 78.335938 112.914062 78.179688 113.035156 C 78.117188 113.082031 78.082031 113.117188 78.070312 113.136719 C 78.046875 113.195312 78.03125 113.308594 78.03125 113.472656 C 78.03125 113.644531 78.039062 113.789062 78.0625 113.902344 C 78.066406 113.933594 78.070312 113.960938 78.078125 113.980469 C 78.078125 113.980469 78.078125 113.984375 78.078125 113.984375 C 78.078125 113.980469 78.074219 113.980469 78.070312 113.972656 C 78.085938 114.007812 78.101562 114.03125 78.105469 114.035156 C 78.214844 114.144531 78.375 114.246094 78.585938 114.347656 C 79.070312 114.585938 79.628906 114.828125 80.261719 115.0625 C 81.480469 115.519531 82.441406 115.964844 83.144531 116.394531 C 83.878906 116.851562 84.480469 117.402344 84.933594 118.054688 C 85.5625 118.953125 85.875 119.945312 85.875 121.023438 C 85.875 121.996094 85.652344 122.878906 85.214844 123.683594 C 84.683594 124.65625 83.910156 125.382812 82.894531 125.859375 C 81.957031 126.300781 80.730469 126.519531 79.21875 126.519531 Z M 79.21875 126.519531 " fill-opacity="1" fill-rule="nonzero"/><path fill="#437bf5" d="M 105.660156 129.226562 C 104.671875 129.511719 103.449219 129.769531 101.984375 130.003906 C 100.46875 130.242188 98.894531 130.363281 97.253906 130.363281 C 95.261719 130.363281 93.535156 130.066406 92.066406 129.46875 C 90.421875 128.808594 89.09375 127.835938 88.070312 126.558594 C 87.121094 125.375 86.457031 123.992188 86.070312 122.417969 C 85.753906 121.121094 85.597656 119.71875 85.597656 118.21875 L 85.597656 104.523438 L 98.875 104.523438 L 98.875 117.636719 C 98.875 118.15625 98.902344 118.570312 98.957031 118.878906 C 98.972656 118.949219 98.988281 119.003906 98.996094 119.035156 C 98.976562 118.980469 98.941406 118.914062 98.894531 118.828125 C 98.640625 118.410156 98.300781 118.101562 97.871094 117.90625 C 97.75 117.847656 97.636719 117.8125 97.535156 117.792969 C 97.515625 117.792969 97.503906 117.789062 97.492188 117.789062 C 97.503906 117.789062 97.523438 117.789062 97.542969 117.789062 C 97.769531 117.789062 98.019531 117.777344 98.289062 117.757812 C 98.59375 117.730469 98.855469 117.703125 99.074219 117.671875 L 99.675781 121.863281 L 95.4375 121.863281 L 95.4375 104.523438 L 108.71875 104.523438 L 108.71875 128.339844 Z M 103.304688 121.085938 L 104.484375 125.15625 L 100.246094 125.15625 L 100.246094 108.757812 L 104.484375 108.757812 L 104.484375 112.996094 L 99.675781 112.996094 L 99.675781 108.757812 L 103.910156 108.757812 L 103.910156 125.539062 L 100.273438 126.058594 C 99.890625 126.113281 99.464844 126.160156 98.992188 126.199219 C 98.488281 126.242188 98.003906 126.261719 97.542969 126.261719 C 96.378906 126.261719 95.328125 126.054688 94.390625 125.628906 C 93.199219 125.089844 92.269531 124.265625 91.613281 123.15625 C 90.804688 121.800781 90.40625 119.960938 90.40625 117.636719 L 90.40625 108.757812 L 94.640625 108.757812 L 94.640625 112.996094 L 89.832031 112.996094 L 89.832031 108.757812 L 94.066406 108.757812 L 94.066406 118.21875 C 94.066406 119.039062 94.144531 119.769531 94.300781 120.40625 C 94.386719 120.769531 94.519531 121.054688 94.6875 121.265625 C 94.785156 121.390625 94.972656 121.503906 95.242188 121.617188 C 95.691406 121.796875 96.363281 121.886719 97.253906 121.886719 C 98.453125 121.886719 99.585938 121.804688 100.65625 121.636719 C 101.773438 121.457031 102.65625 121.277344 103.304688 121.085938 Z M 103.304688 121.085938 " fill-opacity="1" fill-rule="nonzero"/><path fill="#437bf5" d="M 118.195312 117.128906 C 117.828125 117.035156 117.386719 116.9375 116.863281 116.832031 C 116.558594 116.773438 116.21875 116.742188 115.835938 116.742188 C 115.714844 116.742188 115.535156 116.757812 115.296875 116.789062 C 115.164062 116.804688 115.0625 116.820312 114.980469 116.832031 C 114.960938 116.839844 114.949219 116.839844 114.941406 116.84375 C 114.964844 116.835938 114.992188 116.828125 115.023438 116.820312 L 113.804688 112.761719 L 118.042969 112.761719 L 118.042969 129.972656 L 104.757812 129.972656 L 104.757812 106.65625 L 107.597656 105.664062 C 108.605469 105.3125 109.773438 104.980469 111.097656 104.679688 C 112.582031 104.339844 114.203125 104.167969 115.964844 104.167969 C 116.351562 104.167969 116.785156 104.1875 117.273438 104.234375 C 117.722656 104.273438 118.167969 104.324219 118.613281 104.390625 C 119.058594 104.457031 119.507812 104.535156 119.953125 104.625 C 120.582031 104.753906 121.152344 104.929688 121.660156 105.140625 L 124.878906 106.480469 L 122.496094 118.207031 Z M 120.253906 108.910156 L 119.226562 113.019531 L 115.078125 112.175781 L 115.882812 108.207031 L 120.03125 109.050781 L 118.402344 112.960938 C 118.417969 112.964844 118.425781 112.96875 118.433594 112.972656 C 118.429688 112.972656 118.421875 112.96875 118.414062 112.964844 C 118.367188 112.953125 118.3125 112.941406 118.242188 112.925781 C 117.957031 112.867188 117.667969 112.816406 117.382812 112.773438 C 117.097656 112.730469 116.816406 112.699219 116.527344 112.671875 C 116.285156 112.652344 116.101562 112.640625 115.964844 112.640625 C 114.84375 112.640625 113.855469 112.742188 112.992188 112.9375 C 111.972656 113.171875 111.109375 113.414062 110.394531 113.664062 L 108.996094 109.664062 L 113.234375 109.664062 L 113.234375 125.738281 L 108.996094 125.738281 L 108.996094 121.5 L 113.804688 121.5 L 113.804688 125.738281 L 109.566406 125.738281 L 109.566406 109.609375 L 112.585938 108.703125 C 113.027344 108.574219 113.566406 108.464844 114.214844 108.382812 C 114.816406 108.308594 115.355469 108.269531 115.835938 108.269531 C 116.789062 108.269531 117.695312 108.355469 118.554688 108.53125 C 119.195312 108.660156 119.765625 108.789062 120.253906 108.910156 Z M 120.253906 108.910156 " fill-opacity="1" fill-rule="nonzero"/><path fill="#437bf5" d="M 117.246094 117.378906 C 117.246094 115.316406 117.582031 113.464844 118.253906 111.820312 C 118.933594 110.164062 119.847656 108.757812 121.003906 107.601562 C 122.167969 106.4375 123.515625 105.550781 125.039062 104.949219 C 126.519531 104.363281 128.042969 104.070312 129.613281 104.070312 C 131.347656 104.070312 132.933594 104.351562 134.378906 104.910156 C 135.921875 105.507812 137.261719 106.40625 138.398438 107.601562 C 140.570312 109.894531 141.660156 113.035156 141.660156 117.023438 C 141.660156 117.394531 141.644531 117.792969 141.617188 118.214844 C 141.597656 118.574219 141.570312 118.898438 141.546875 119.183594 L 141.222656 123.066406 L 126.421875 123.066406 L 126.421875 118.828125 L 130.628906 118.371094 C 130.617188 118.261719 130.574219 118.140625 130.496094 118.011719 C 130.421875 117.882812 130.34375 117.792969 130.261719 117.734375 C 130.246094 117.722656 130.230469 117.714844 130.226562 117.710938 C 130.246094 117.722656 130.28125 117.734375 130.328125 117.742188 C 130.523438 117.792969 130.777344 117.820312 131.097656 117.820312 C 131.714844 117.820312 132.316406 117.765625 132.90625 117.65625 C 133.4375 117.550781 133.828125 117.449219 134.070312 117.34375 L 139.066406 115.140625 L 141.113281 127.515625 L 138.316406 128.914062 C 137.84375 129.152344 137.273438 129.371094 136.605469 129.570312 C 136.027344 129.746094 135.398438 129.894531 134.71875 130.019531 C 134.089844 130.132812 133.417969 130.226562 132.710938 130.304688 C 131.957031 130.382812 131.207031 130.425781 130.453125 130.425781 C 128.382812 130.425781 126.527344 130.097656 124.894531 129.445312 C 123.1875 128.761719 121.753906 127.800781 120.582031 126.566406 C 119.410156 125.324219 118.542969 123.863281 117.992188 122.191406 C 117.496094 120.683594 117.246094 119.082031 117.246094 117.378906 Z M 125.714844 117.378906 C 125.714844 118.171875 125.824219 118.890625 126.035156 119.535156 C 126.195312 120.015625 126.425781 120.417969 126.738281 120.746094 C 127.054688 121.078125 127.488281 121.359375 128.039062 121.578125 C 128.664062 121.828125 129.472656 121.953125 130.453125 121.953125 C 130.902344 121.953125 131.355469 121.929688 131.808594 121.878906 C 132.304688 121.828125 132.765625 121.761719 133.191406 121.683594 C 133.5625 121.617188 133.890625 121.535156 134.175781 121.453125 C 134.371094 121.394531 134.488281 121.355469 134.527344 121.335938 L 136.421875 125.121094 L 132.246094 125.8125 L 131.597656 121.910156 L 135.777344 121.21875 L 137.484375 125.097656 C 136.652344 125.464844 135.652344 125.757812 134.484375 125.980469 C 133.375 126.191406 132.246094 126.296875 131.097656 126.296875 C 128.820312 126.296875 126.902344 125.742188 125.351562 124.640625 C 124.453125 124 123.734375 123.226562 123.199219 122.3125 C 122.65625 121.398438 122.328125 120.386719 122.207031 119.289062 L 121.699219 114.59375 L 137.328125 114.59375 L 137.328125 118.828125 L 133.105469 118.480469 C 133.125 118.246094 133.144531 117.976562 133.164062 117.671875 C 133.179688 117.429688 133.1875 117.210938 133.1875 117.023438 C 133.1875 115.289062 132.875 114.089844 132.253906 113.433594 C 131.992188 113.15625 131.679688 112.949219 131.320312 112.808594 C 130.859375 112.636719 130.292969 112.546875 129.613281 112.546875 C 129.121094 112.546875 128.632812 112.636719 128.15625 112.828125 C 127.71875 113 127.335938 113.257812 126.992188 113.597656 C 126.644531 113.949219 126.34375 114.425781 126.09375 115.03125 C 125.84375 115.644531 125.714844 116.429688 125.714844 117.378906 Z M 128.546875 115.757812 C 128.542969 115.699219 128.535156 115.636719 128.515625 115.582031 C 128.558594 115.730469 128.636719 115.867188 128.746094 116 C 128.867188 116.152344 129.003906 116.261719 129.144531 116.335938 C 129.296875 116.414062 129.449219 116.46875 129.589844 116.5 C 129.625 116.507812 129.65625 116.511719 129.683594 116.515625 L 129.675781 116.515625 C 129.695312 116.511719 129.722656 116.507812 129.75 116.5 C 129.859375 116.480469 129.976562 116.441406 130.097656 116.382812 C 130.257812 116.308594 130.402344 116.191406 130.539062 116.035156 C 130.625 115.933594 130.6875 115.832031 130.722656 115.730469 C 130.667969 115.886719 130.625 116.042969 130.605469 116.199219 L 126.421875 115.535156 L 126.421875 111.300781 L 132.777344 111.300781 L 132.777344 115.535156 Z M 137.242188 119.777344 L 121.460938 119.777344 L 122.234375 114.878906 C 122.339844 114.214844 122.503906 113.566406 122.730469 112.925781 C 123.042969 112.027344 123.503906 111.222656 124.105469 110.519531 C 124.757812 109.761719 125.546875 109.164062 126.480469 108.722656 C 127.441406 108.269531 128.507812 108.042969 129.675781 108.042969 C 130.921875 108.042969 132.035156 108.292969 133.019531 108.800781 C 133.914062 109.261719 134.675781 109.867188 135.292969 110.621094 C 135.894531 111.355469 136.335938 112.183594 136.617188 113.105469 C 136.835938 113.824219 136.964844 114.5625 137.003906 115.316406 Z M 137.242188 119.777344 " fill-opacity="1" fill-rule="nonzero"/><path fill="#437bf5" d="M 146.21875 116.730469 C 146.21875 116.210938 146.195312 115.800781 146.140625 115.503906 C 146.128906 115.4375 146.117188 115.398438 146.113281 115.378906 C 146.140625 115.464844 146.1875 115.554688 146.253906 115.664062 C 146.496094 116.054688 146.820312 116.347656 147.238281 116.542969 C 147.472656 116.65625 147.660156 116.707031 147.808594 116.707031 C 147.648438 116.707031 147.476562 116.71875 147.296875 116.738281 C 147.03125 116.761719 146.78125 116.792969 146.539062 116.828125 L 145.9375 112.632812 L 150.175781 112.632812 L 150.175781 129.972656 L 136.894531 129.972656 L 136.894531 106.074219 L 140.050781 105.242188 C 140.523438 105.117188 141.0625 104.992188 141.671875 104.859375 C 142.296875 104.726562 142.957031 104.601562 143.648438 104.496094 C 144.363281 104.382812 145.097656 104.292969 145.84375 104.230469 C 146.609375 104.167969 147.359375 104.132812 148.097656 104.132812 C 149.882812 104.132812 151.410156 104.394531 152.6875 104.917969 C 153.886719 105.410156 154.90625 106.019531 155.753906 106.757812 L 152.972656 109.953125 L 150.5 106.515625 C 151.558594 105.753906 152.75 105.167969 154.078125 104.75 C 155.386719 104.339844 156.628906 104.132812 157.8125 104.132812 C 159.753906 104.132812 161.429688 104.441406 162.835938 105.046875 C 164.394531 105.722656 165.65625 106.703125 166.625 107.996094 C 167.519531 109.1875 168.132812 110.570312 168.449219 112.136719 C 168.703125 113.367188 168.824219 114.703125 168.824219 116.152344 L 168.824219 129.972656 L 155.546875 129.972656 L 155.546875 116.730469 C 155.546875 116.210938 155.519531 115.800781 155.464844 115.503906 C 155.453125 115.4375 155.445312 115.398438 155.4375 115.378906 C 155.46875 115.464844 155.515625 115.554688 155.578125 115.664062 C 155.820312 116.054688 156.148438 116.347656 156.566406 116.542969 C 156.796875 116.65625 156.988281 116.707031 157.136719 116.707031 C 157.257812 116.707031 157.351562 116.703125 157.417969 116.691406 C 157.371094 116.699219 157.296875 116.71875 157.195312 116.746094 C 157.136719 116.761719 157.09375 116.777344 157.070312 116.785156 C 157.105469 116.773438 157.144531 116.746094 157.199219 116.710938 L 154.910156 113.152344 L 158.960938 111.914062 C 159.203125 112.707031 159.355469 113.527344 159.421875 114.382812 C 159.472656 115.042969 159.503906 115.742188 159.503906 116.472656 L 159.503906 129.972656 L 146.21875 129.972656 Z M 154.691406 116.730469 L 154.691406 125.738281 L 150.457031 125.738281 L 150.457031 121.5 L 155.265625 121.5 L 155.265625 125.738281 L 151.027344 125.738281 L 151.027344 116.472656 C 151.027344 115.960938 151.011719 115.484375 150.976562 115.046875 C 150.957031 114.804688 150.917969 114.585938 150.855469 114.382812 L 149.921875 111.320312 L 152.621094 109.585938 C 153.28125 109.164062 154.042969 108.828125 154.917969 108.585938 C 155.75 108.351562 156.492188 108.238281 157.136719 108.238281 C 158.253906 108.238281 159.269531 108.449219 160.183594 108.882812 C 161.28125 109.402344 162.152344 110.179688 162.792969 111.21875 C 163.269531 111.992188 163.605469 112.917969 163.800781 113.992188 C 163.949219 114.792969 164.015625 115.703125 164.015625 116.730469 L 164.015625 125.738281 L 159.78125 125.738281 L 159.78125 121.5 L 164.589844 121.5 L 164.589844 125.738281 L 160.355469 125.738281 L 160.355469 116.152344 C 160.355469 115.277344 160.289062 114.503906 160.152344 113.835938 C 160.085938 113.511719 159.984375 113.257812 159.847656 113.078125 C 159.78125 112.988281 159.65625 112.90625 159.472656 112.828125 C 159.140625 112.683594 158.585938 112.609375 157.8125 112.609375 C 157.492188 112.609375 157.089844 112.683594 156.609375 112.835938 C 156.152344 112.980469 155.765625 113.164062 155.445312 113.394531 L 152.722656 115.351562 L 150.195312 113.152344 C 150.050781 113.027344 149.816406 112.894531 149.484375 112.761719 C 149.40625 112.730469 149.285156 112.703125 149.113281 112.675781 C 148.832031 112.632812 148.492188 112.609375 148.097656 112.609375 C 147.59375 112.609375 147.078125 112.632812 146.546875 112.675781 C 146.007812 112.722656 145.476562 112.785156 144.96875 112.863281 C 144.433594 112.945312 143.929688 113.042969 143.460938 113.144531 C 142.972656 113.25 142.554688 113.34375 142.207031 113.4375 L 141.128906 109.34375 L 145.367188 109.34375 L 145.367188 125.738281 L 141.128906 125.738281 L 141.128906 121.5 L 145.9375 121.5 L 145.9375 125.738281 L 141.703125 125.738281 L 141.703125 108.960938 L 145.339844 108.441406 C 145.699219 108.386719 146.070312 108.34375 146.453125 108.304688 C 146.914062 108.257812 147.367188 108.238281 147.808594 108.238281 C 148.925781 108.238281 149.941406 108.449219 150.855469 108.882812 C 151.957031 109.402344 152.824219 110.179688 153.464844 111.21875 C 153.941406 111.992188 154.28125 112.917969 154.472656 113.992188 C 154.621094 114.792969 154.691406 115.703125 154.691406 116.730469 Z M 154.691406 116.730469 " fill-opacity="1" fill-rule="nonzero"/><path fill="#437bf5" d="M 163.898438 117.378906 C 163.898438 115.316406 164.238281 113.464844 164.910156 111.820312 C 165.585938 110.164062 166.5 108.757812 167.65625 107.601562 C 168.820312 106.4375 170.167969 105.550781 171.691406 104.949219 C 173.171875 104.363281 174.695312 104.070312 176.265625 104.070312 C 178 104.070312 179.589844 104.351562 181.03125 104.910156 C 182.574219 105.507812 183.914062 106.40625 185.050781 107.601562 C 187.222656 109.894531 188.3125 113.035156 188.3125 117.023438 C 188.3125 117.394531 188.296875 117.792969 188.273438 118.214844 C 188.25 118.574219 188.222656 118.898438 188.203125 119.183594 L 187.875 123.066406 L 173.074219 123.066406 L 173.074219 118.828125 L 177.28125 118.371094 C 177.269531 118.261719 177.226562 118.140625 177.148438 118.011719 C 177.074219 117.882812 176.996094 117.792969 176.914062 117.734375 C 176.898438 117.722656 176.882812 117.714844 176.878906 117.710938 C 176.898438 117.722656 176.933594 117.734375 176.980469 117.742188 C 177.175781 117.792969 177.429688 117.820312 177.75 117.820312 C 178.367188 117.820312 178.96875 117.765625 179.558594 117.65625 C 180.089844 117.550781 180.480469 117.449219 180.726562 117.34375 L 185.722656 115.140625 L 187.765625 127.515625 L 184.96875 128.914062 C 184.496094 129.152344 183.925781 129.371094 183.257812 129.570312 C 182.679688 129.746094 182.050781 129.894531 181.371094 130.019531 C 180.742188 130.132812 180.070312 130.226562 179.363281 130.304688 C 178.609375 130.382812 177.859375 130.425781 177.105469 130.425781 C 175.035156 130.425781 173.179688 130.097656 171.546875 129.445312 C 169.839844 128.761719 168.40625 127.800781 167.234375 126.566406 C 166.0625 125.324219 165.195312 123.863281 164.644531 122.191406 C 164.148438 120.683594 163.898438 119.082031 163.898438 117.378906 Z M 172.367188 117.378906 C 172.367188 118.171875 172.476562 118.890625 172.6875 119.535156 C 172.847656 120.015625 173.078125 120.417969 173.390625 120.746094 C 173.707031 121.078125 174.140625 121.359375 174.695312 121.578125 C 175.316406 121.828125 176.125 121.953125 177.105469 121.953125 C 177.554688 121.953125 178.007812 121.929688 178.460938 121.878906 C 178.957031 121.828125 179.417969 121.761719 179.84375 121.683594 C 180.214844 121.617188 180.542969 121.535156 180.828125 121.453125 C 181.023438 121.394531 181.140625 121.355469 181.179688 121.335938 L 183.074219 125.121094 L 178.898438 125.8125 L 178.25 121.910156 L 182.429688 121.21875 L 184.136719 125.097656 C 183.304688 125.464844 182.304688 125.757812 181.140625 125.980469 C 180.027344 126.191406 178.898438 126.296875 177.75 126.296875 C 175.472656 126.296875 173.558594 125.742188 172.007812 124.640625 C 171.105469 124 170.386719 123.226562 169.851562 122.3125 C 169.308594 121.398438 168.980469 120.386719 168.859375 119.289062 L 168.351562 114.59375 L 183.980469 114.59375 L 183.980469 118.828125 L 179.757812 118.480469 C 179.777344 118.246094 179.796875 117.976562 179.816406 117.671875 C 179.832031 117.429688 179.839844 117.210938 179.839844 117.023438 C 179.839844 115.289062 179.527344 114.089844 178.90625 113.433594 C 178.644531 113.15625 178.332031 112.949219 177.972656 112.808594 C 177.511719 112.636719 176.945312 112.546875 176.265625 112.546875 C 175.773438 112.546875 175.285156 112.636719 174.808594 112.828125 C 174.371094 113 173.988281 113.257812 173.644531 113.597656 C 173.296875 113.949219 172.996094 114.425781 172.75 115.03125 C 172.496094 115.644531 172.367188 116.429688 172.367188 117.378906 Z M 175.199219 115.757812 C 175.195312 115.699219 175.1875 115.636719 175.167969 115.582031 C 175.210938 115.730469 175.289062 115.867188 175.398438 116 C 175.523438 116.152344 175.65625 116.261719 175.796875 116.335938 C 175.953125 116.414062 176.101562 116.46875 176.246094 116.5 C 176.28125 116.507812 176.308594 116.511719 176.335938 116.515625 L 176.328125 116.515625 C 176.347656 116.511719 176.375 116.507812 176.402344 116.5 C 176.511719 116.480469 176.628906 116.441406 176.75 116.382812 C 176.910156 116.308594 177.054688 116.191406 177.191406 116.035156 C 177.28125 115.933594 177.339844 115.832031 177.375 115.730469 C 177.320312 115.886719 177.28125 116.042969 177.257812 116.199219 L 173.074219 115.535156 L 173.074219 111.300781 L 179.429688 111.300781 L 179.429688 115.535156 Z M 183.894531 119.777344 L 168.113281 119.777344 L 168.890625 114.878906 C 168.992188 114.214844 169.15625 113.566406 169.382812 112.925781 C 169.699219 112.027344 170.15625 111.222656 170.757812 110.519531 C 171.410156 109.761719 172.199219 109.164062 173.132812 108.722656 C 174.09375 108.269531 175.160156 108.042969 176.332031 108.042969 C 177.574219 108.042969 178.6875 108.292969 179.671875 108.800781 C 180.570312 109.261719 181.328125 109.867188 181.945312 110.621094 C 182.546875 111.355469 182.988281 112.183594 183.269531 113.105469 C 183.488281 113.824219 183.621094 114.5625 183.65625 115.316406 Z M 183.894531 119.777344 " fill-opacity="1" fill-rule="nonzero"/><path fill="#437bf5" d="M 186.605469 105.273438 C 187.589844 104.984375 188.816406 104.726562 190.285156 104.496094 C 191.792969 104.253906 193.371094 104.132812 195.011719 104.132812 C 196.988281 104.132812 198.703125 104.421875 200.160156 104.996094 C 201.808594 105.644531 203.144531 106.601562 204.171875 107.863281 C 205.125 109.039062 205.796875 110.40625 206.1875 111.960938 C 206.507812 113.242188 206.671875 114.640625 206.671875 116.152344 L 206.671875 129.972656 L 193.390625 129.972656 L 193.390625 116.730469 C 193.390625 116.21875 193.363281 115.816406 193.308594 115.523438 C 193.296875 115.464844 193.289062 115.429688 193.285156 115.414062 C 193.316406 115.5 193.363281 115.597656 193.433594 115.707031 C 193.699219 116.132812 194.050781 116.433594 194.484375 116.617188 C 194.59375 116.664062 194.691406 116.691406 194.777344 116.707031 C 194.785156 116.707031 194.792969 116.710938 194.792969 116.710938 C 194.773438 116.707031 194.75 116.707031 194.71875 116.707031 C 194.492188 116.707031 194.246094 116.71875 193.976562 116.742188 C 193.671875 116.765625 193.40625 116.792969 193.191406 116.828125 L 192.589844 112.632812 L 196.828125 112.632812 L 196.828125 129.972656 L 183.546875 129.972656 L 183.546875 106.15625 Z M 188.960938 113.410156 L 187.78125 109.34375 L 192.019531 109.34375 L 192.019531 125.738281 L 187.78125 125.738281 L 187.78125 121.5 L 192.589844 121.5 L 192.589844 125.738281 L 188.355469 125.738281 L 188.355469 108.960938 L 191.992188 108.441406 C 192.375 108.382812 192.804688 108.339844 193.269531 108.296875 C 193.777344 108.257812 194.257812 108.238281 194.71875 108.238281 C 195.855469 108.238281 196.871094 108.429688 197.78125 108.808594 C 198.976562 109.316406 199.914062 110.101562 200.589844 111.171875 C 201.085938 111.957031 201.4375 112.886719 201.636719 113.972656 C 201.785156 114.773438 201.863281 115.695312 201.863281 116.730469 L 201.863281 125.738281 L 197.625 125.738281 L 197.625 121.5 L 202.433594 121.5 L 202.433594 125.738281 L 198.195312 125.738281 L 198.195312 116.152344 C 198.195312 115.335938 198.121094 114.625 197.972656 114.015625 C 197.886719 113.675781 197.761719 113.410156 197.597656 113.207031 C 197.507812 113.09375 197.328125 112.984375 197.058594 112.878906 C 196.601562 112.699219 195.917969 112.609375 195.011719 112.609375 C 193.8125 112.609375 192.679688 112.691406 191.609375 112.863281 C 190.492188 113.039062 189.609375 113.222656 188.960938 113.410156 Z M 188.960938 113.410156 " fill-opacity="1" fill-rule="nonzero"/><path fill="#437bf5" d="M 205.949219 100.347656 L 215.667969 98.785156 L 215.667969 108.757812 L 211.433594 108.757812 L 211.433594 104.523438 L 221.445312 104.523438 L 221.445312 117 L 211.433594 117 L 211.433594 112.761719 L 215.667969 112.761719 L 215.667969 118.734375 C 215.667969 118.929688 215.679688 119.085938 215.703125 119.1875 C 215.695312 119.152344 215.664062 119.089844 215.613281 119.003906 C 215.316406 118.5 214.917969 118.136719 214.410156 117.929688 C 214.285156 117.875 214.175781 117.839844 214.074219 117.824219 C 214.0625 117.820312 214.050781 117.820312 214.046875 117.820312 C 214.0625 117.820312 214.085938 117.820312 214.113281 117.820312 C 214.378906 117.820312 214.667969 117.792969 214.972656 117.742188 C 215.257812 117.691406 215.5 117.625 215.699219 117.550781 L 220.46875 115.734375 L 222.667969 127.882812 L 219.488281 129.175781 C 218.710938 129.492188 217.863281 129.761719 216.949219 129.984375 C 215.910156 130.234375 214.707031 130.363281 213.335938 130.363281 C 211.464844 130.363281 209.839844 130.078125 208.460938 129.507812 C 206.941406 128.882812 205.695312 127.96875 204.726562 126.78125 C 203.792969 125.632812 203.152344 124.285156 202.800781 122.734375 C 202.527344 121.523438 202.390625 120.210938 202.390625 118.796875 L 202.390625 100.925781 Z M 207.296875 108.714844 L 206.625 104.53125 L 210.859375 104.53125 L 210.859375 118.796875 C 210.859375 119.582031 210.925781 120.269531 211.0625 120.863281 C 211.121094 121.121094 211.199219 121.3125 211.296875 121.433594 C 211.363281 121.515625 211.492188 121.59375 211.691406 121.675781 C 212.035156 121.816406 212.582031 121.886719 213.335938 121.886719 C 214.03125 121.886719 214.570312 121.84375 214.953125 121.75 C 215.457031 121.625 215.902344 121.484375 216.289062 121.328125 L 217.886719 125.253906 L 213.71875 126.007812 L 213.042969 122.261719 L 217.210938 121.507812 L 218.714844 125.46875 C 218.015625 125.734375 217.257812 125.941406 216.445312 126.085938 C 215.652344 126.226562 214.875 126.296875 214.113281 126.296875 C 213.003906 126.296875 212.007812 126.105469 211.125 125.738281 C 209.90625 125.222656 208.96875 124.414062 208.316406 123.304688 C 207.570312 122.039062 207.199219 120.515625 207.199219 118.734375 L 207.199219 108.527344 L 217.210938 108.527344 L 217.210938 112.761719 L 212.976562 112.761719 L 212.976562 108.757812 L 217.210938 108.757812 L 217.210938 112.996094 L 207.199219 112.996094 L 207.199219 103.753906 L 211.433594 103.753906 L 212.105469 107.941406 Z M 207.296875 108.714844 " fill-opacity="1" fill-rule="nonzero"/><path fill="#b0d3f5" d="M 14.984375 103.367188 C 15.371094 104.082031 15.816406 104.960938 16.320312 106.003906 C 16.828125 107.042969 17.355469 108.171875 17.898438 109.394531 C 18.449219 110.609375 18.996094 111.851562 19.53125 113.125 C 20.070312 114.394531 20.578125 115.582031 21.046875 116.691406 C 21.519531 115.582031 22.027344 114.394531 22.5625 113.125 C 23.101562 111.851562 23.648438 110.609375 24.191406 109.394531 C 24.742188 108.171875 25.269531 107.042969 25.769531 106.003906 C 26.28125 104.960938 26.730469 104.082031 27.121094 103.367188 L 31.707031 103.367188 C 31.917969 104.855469 32.113281 106.519531 32.292969 108.359375 C 32.476562 110.195312 32.640625 112.113281 32.777344 114.105469 C 32.921875 116.09375 33.050781 118.089844 33.171875 120.09375 C 33.289062 122.089844 33.390625 123.972656 33.476562 125.738281 L 28.574219 125.738281 C 28.503906 123.566406 28.414062 121.199219 28.304688 118.640625 C 28.203125 116.078125 28.046875 113.492188 27.835938 110.882812 C 27.441406 111.792969 27.011719 112.792969 26.535156 113.890625 C 26.058594 114.984375 25.585938 116.085938 25.121094 117.191406 C 24.664062 118.285156 24.21875 119.335938 23.785156 120.335938 C 23.359375 121.328125 22.996094 122.183594 22.703125 122.898438 L 19.171875 122.898438 C 18.875 122.183594 18.511719 121.328125 18.078125 120.335938 C 17.652344 119.335938 17.207031 118.285156 16.742188 117.191406 C 16.28125 116.085938 15.8125 114.984375 15.339844 113.890625 C 14.863281 112.792969 14.429688 111.792969 14.039062 110.882812 C 13.828125 113.492188 13.664062 116.078125 13.554688 118.640625 C 13.453125 121.199219 13.367188 123.566406 13.300781 125.738281 L 8.398438 125.738281 C 8.480469 123.972656 8.582031 122.089844 8.703125 120.09375 C 8.820312 118.089844 8.949219 116.09375 9.085938 114.105469 C 9.230469 112.113281 9.390625 110.195312 9.570312 108.359375 C 9.753906 106.519531 9.953125 104.855469 10.167969 103.367188 Z M 14.984375 103.367188 " fill-opacity="1" fill-rule="nonzero"/><path fill="#b0d3f5" d="M 36.855469 117.378906 C 36.855469 115.871094 37.082031 114.550781 37.542969 113.417969 C 38.007812 112.292969 38.613281 111.351562 39.363281 110.601562 C 40.117188 109.847656 40.984375 109.277344 41.960938 108.894531 C 42.945312 108.507812 43.957031 108.308594 44.992188 108.308594 C 47.394531 108.308594 49.296875 109.050781 50.699219 110.527344 C 52.101562 112 52.800781 114.164062 52.800781 117.023438 C 52.800781 117.304688 52.789062 117.609375 52.761719 117.941406 C 52.742188 118.273438 52.726562 118.570312 52.699219 118.832031 L 41.796875 118.832031 C 41.898438 119.820312 42.355469 120.605469 43.171875 121.191406 C 43.992188 121.769531 45.09375 122.054688 46.46875 122.054688 C 47.351562 122.054688 48.21875 121.976562 49.070312 121.8125 C 49.917969 121.65625 50.613281 121.453125 51.15625 121.214844 L 51.792969 125.125 C 51.539062 125.253906 51.195312 125.382812 50.761719 125.507812 C 50.335938 125.636719 49.859375 125.742188 49.324219 125.839844 C 48.796875 125.941406 48.230469 126.019531 47.628906 126.082031 C 47.023438 126.148438 46.421875 126.183594 45.820312 126.183594 C 44.300781 126.183594 42.972656 125.957031 41.835938 125.507812 C 40.703125 125.058594 39.769531 124.445312 39.03125 123.660156 C 38.292969 122.871094 37.746094 121.941406 37.390625 120.871094 C 37.03125 119.792969 36.855469 118.628906 36.855469 117.378906 Z M 48.152344 115.535156 C 48.125 115.125 48.054688 114.730469 47.933594 114.347656 C 47.824219 113.960938 47.640625 113.617188 47.386719 113.316406 C 47.140625 113.011719 46.832031 112.761719 46.457031 112.566406 C 46.082031 112.371094 45.617188 112.273438 45.058594 112.273438 C 44.511719 112.273438 44.042969 112.367188 43.65625 112.550781 C 43.273438 112.730469 42.949219 112.972656 42.6875 113.277344 C 42.433594 113.578125 42.230469 113.925781 42.089844 114.324219 C 41.953125 114.722656 41.851562 115.125 41.796875 115.535156 Z M 48.152344 115.535156 " fill-opacity="1" fill-rule="nonzero"/><path fill="#b0d3f5" d="M 62.996094 122.375 C 63.460938 122.375 63.910156 122.367188 64.34375 122.347656 C 64.777344 122.324219 65.121094 122.292969 65.375 122.246094 L 65.375 118.605469 C 65.179688 118.5625 64.886719 118.519531 64.496094 118.476562 C 64.113281 118.433594 63.761719 118.414062 63.441406 118.414062 C 62.988281 118.414062 62.5625 118.4375 62.167969 118.488281 C 61.765625 118.539062 61.414062 118.640625 61.109375 118.792969 C 60.808594 118.949219 60.578125 119.15625 60.410156 119.417969 C 60.238281 119.671875 60.152344 119.992188 60.152344 120.375 C 60.152344 121.132812 60.402344 121.65625 60.90625 121.941406 C 61.414062 122.230469 62.109375 122.375 62.996094 122.375 Z M 62.597656 108.308594 C 64.027344 108.308594 65.210938 108.472656 66.152344 108.792969 C 67.101562 109.117188 67.863281 109.582031 68.433594 110.183594 C 69 110.789062 69.402344 111.515625 69.644531 112.375 C 69.878906 113.234375 70 114.1875 70 115.242188 L 70 125.253906 C 69.3125 125.40625 68.351562 125.585938 67.121094 125.789062 C 65.898438 125.992188 64.410156 126.09375 62.664062 126.09375 C 61.566406 126.09375 60.574219 125.996094 59.683594 125.800781 C 58.789062 125.605469 58.019531 125.289062 57.378906 124.847656 C 56.730469 124.40625 56.234375 123.832031 55.886719 123.125 C 55.546875 122.414062 55.378906 121.539062 55.378906 120.5 C 55.378906 119.519531 55.570312 118.679688 55.964844 117.992188 C 56.363281 117.304688 56.894531 116.757812 57.566406 116.347656 C 58.238281 115.933594 59 115.636719 59.859375 115.457031 C 60.71875 115.273438 61.609375 115.175781 62.535156 115.175781 C 63.164062 115.175781 63.71875 115.207031 64.203125 115.265625 C 64.6875 115.316406 65.078125 115.386719 65.375 115.46875 L 65.375 115.023438 C 65.375 114.203125 65.128906 113.542969 64.636719 113.050781 C 64.144531 112.558594 63.28125 112.308594 62.050781 112.308594 C 61.238281 112.308594 60.425781 112.371094 59.632812 112.488281 C 58.832031 112.609375 58.144531 112.773438 57.566406 112.984375 L 56.957031 109.113281 C 57.238281 109.03125 57.585938 108.941406 58 108.84375 C 58.425781 108.742188 58.882812 108.652344 59.375 108.578125 C 59.867188 108.5 60.386719 108.4375 60.929688 108.386719 C 61.480469 108.335938 62.039062 108.308594 62.597656 108.308594 Z M 62.597656 108.308594 " fill-opacity="1" fill-rule="nonzero"/><path fill="#b0d3f5" d="M 79.21875 122.285156 C 80.101562 122.285156 80.722656 122.203125 81.089844 122.03125 C 81.453125 121.851562 81.636719 121.519531 81.636719 121.023438 C 81.636719 120.636719 81.398438 120.292969 80.925781 120.003906 C 80.457031 119.71875 79.742188 119.390625 78.773438 119.023438 C 78.015625 118.742188 77.328125 118.457031 76.707031 118.15625 C 76.097656 117.851562 75.574219 117.492188 75.140625 117.074219 C 74.714844 116.652344 74.382812 116.152344 74.148438 115.570312 C 73.910156 114.984375 73.792969 114.285156 73.792969 113.46875 C 73.792969 111.882812 74.382812 110.625 75.5625 109.699219 C 76.75 108.773438 78.378906 108.308594 80.441406 108.308594 C 81.476562 108.308594 82.464844 108.40625 83.410156 108.589844 C 84.359375 108.769531 85.117188 108.964844 85.675781 109.175781 L 84.835938 112.921875 C 84.273438 112.726562 83.664062 112.558594 83 112.414062 C 82.34375 112.257812 81.613281 112.183594 80.796875 112.183594 C 79.292969 112.183594 78.542969 112.601562 78.542969 113.445312 C 78.542969 113.632812 78.570312 113.800781 78.632812 113.953125 C 78.699219 114.105469 78.828125 114.257812 79.027344 114.398438 C 79.222656 114.535156 79.484375 114.6875 79.816406 114.84375 C 80.148438 115.007812 80.570312 115.1875 81.089844 115.378906 C 82.140625 115.761719 83.015625 116.144531 83.703125 116.527344 C 84.390625 116.902344 84.929688 117.308594 85.332031 117.75 C 85.730469 118.191406 86.011719 118.679688 86.171875 119.214844 C 86.332031 119.75 86.414062 120.375 86.414062 121.085938 C 86.414062 122.769531 85.785156 124.039062 84.53125 124.898438 C 83.273438 125.753906 81.488281 126.183594 79.179688 126.183594 C 77.675781 126.183594 76.421875 126.054688 75.421875 125.800781 C 74.417969 125.546875 73.726562 125.328125 73.347656 125.152344 L 74.148438 121.253906 C 74.964844 121.578125 75.796875 121.832031 76.65625 122.019531 C 77.523438 122.195312 78.378906 122.285156 79.21875 122.285156 Z M 79.21875 122.285156 " fill-opacity="1" fill-rule="nonzero"/><path fill="#b0d3f5" d="M 104.484375 125.152344 C 103.667969 125.390625 102.613281 125.609375 101.324219 125.8125 C 100.03125 126.019531 98.675781 126.121094 97.261719 126.121094 C 95.816406 126.121094 94.613281 125.929688 93.65625 125.546875 C 92.695312 125.15625 91.9375 124.613281 91.375 123.914062 C 90.816406 123.210938 90.414062 122.375 90.179688 121.40625 C 89.949219 120.4375 89.835938 119.378906 89.835938 118.222656 L 89.835938 108.757812 L 94.636719 108.757812 L 94.636719 117.636719 C 94.636719 119.183594 94.839844 120.304688 95.246094 121 C 95.660156 121.6875 96.425781 122.03125 97.539062 122.03125 C 97.886719 122.03125 98.253906 122.015625 98.636719 121.980469 C 99.023438 121.949219 99.375 121.910156 99.679688 121.863281 L 99.679688 108.757812 L 104.484375 108.757812 Z M 104.484375 125.152344 " fill-opacity="1" fill-rule="nonzero"/><path fill="#b0d3f5" d="M 119.230469 113.023438 C 118.800781 112.914062 118.289062 112.800781 117.703125 112.679688 C 117.125 112.5625 116.507812 112.5 115.84375 112.5 C 115.539062 112.5 115.171875 112.535156 114.75 112.589844 C 114.332031 112.640625 114.015625 112.699219 113.804688 112.757812 L 113.804688 125.738281 L 108.992188 125.738281 L 108.992188 109.660156 C 109.859375 109.363281 110.875 109.082031 112.046875 108.808594 C 113.21875 108.535156 114.527344 108.398438 115.972656 108.398438 C 116.226562 108.398438 116.535156 108.417969 116.902344 108.449219 C 117.265625 108.484375 117.628906 108.53125 117.996094 108.589844 C 118.359375 108.640625 118.726562 108.703125 119.09375 108.78125 C 119.464844 108.851562 119.78125 108.941406 120.035156 109.050781 Z M 119.230469 113.023438 " fill-opacity="1" fill-rule="nonzero"/><path fill="#b0d3f5" d="M 121.480469 117.378906 C 121.480469 115.871094 121.710938 114.550781 122.167969 113.417969 C 122.632812 112.292969 123.242188 111.351562 123.992188 110.601562 C 124.746094 109.847656 125.613281 109.277344 126.589844 108.894531 C 127.574219 108.507812 128.582031 108.308594 129.621094 108.308594 C 132.019531 108.308594 133.925781 109.050781 135.328125 110.527344 C 136.726562 112 137.429688 114.164062 137.429688 117.023438 C 137.429688 117.304688 137.414062 117.609375 137.390625 117.941406 C 137.371094 118.273438 137.351562 118.570312 137.328125 118.832031 L 126.421875 118.832031 C 126.523438 119.820312 126.984375 120.605469 127.800781 121.191406 C 128.621094 121.769531 129.722656 122.054688 131.097656 122.054688 C 131.980469 122.054688 132.847656 121.976562 133.695312 121.8125 C 134.542969 121.65625 135.242188 121.453125 135.785156 121.214844 L 136.421875 125.125 C 136.167969 125.253906 135.824219 125.382812 135.390625 125.507812 C 134.964844 125.636719 134.484375 125.742188 133.949219 125.839844 C 133.421875 125.941406 132.859375 126.019531 132.257812 126.082031 C 131.652344 126.148438 131.050781 126.183594 130.449219 126.183594 C 128.925781 126.183594 127.597656 125.957031 126.460938 125.507812 C 125.332031 125.058594 124.398438 124.445312 123.660156 123.660156 C 122.921875 122.871094 122.371094 121.941406 122.015625 120.871094 C 121.660156 119.792969 121.480469 118.628906 121.480469 117.378906 Z M 132.777344 115.535156 C 132.753906 115.125 132.679688 114.730469 132.5625 114.347656 C 132.453125 113.960938 132.269531 113.617188 132.015625 113.316406 C 131.765625 113.011719 131.457031 112.761719 131.085938 112.566406 C 130.710938 112.371094 130.246094 112.273438 129.683594 112.273438 C 129.140625 112.273438 128.671875 112.367188 128.28125 112.550781 C 127.902344 112.730469 127.574219 112.972656 127.316406 113.277344 C 127.058594 113.578125 126.859375 113.925781 126.714844 114.324219 C 126.578125 114.722656 126.480469 115.125 126.421875 115.535156 Z M 132.777344 115.535156 " fill-opacity="1" fill-rule="nonzero"/><path fill="#b0d3f5" d="M 150.460938 116.730469 C 150.460938 115.1875 150.261719 114.089844 149.863281 113.445312 C 149.460938 112.800781 148.78125 112.476562 147.8125 112.476562 C 147.507812 112.476562 147.191406 112.496094 146.871094 112.527344 C 146.546875 112.550781 146.234375 112.585938 145.941406 112.628906 L 145.941406 125.738281 L 141.125 125.738281 L 141.125 109.34375 C 141.539062 109.234375 142.019531 109.117188 142.566406 108.996094 C 143.117188 108.878906 143.699219 108.773438 144.308594 108.679688 C 144.921875 108.578125 145.546875 108.5 146.195312 108.449219 C 146.839844 108.398438 147.476562 108.375 148.105469 108.375 C 149.328125 108.375 150.320312 108.53125 151.085938 108.84375 C 151.851562 109.152344 152.476562 109.519531 152.972656 109.953125 C 153.660156 109.464844 154.449219 109.074219 155.339844 108.792969 C 156.238281 108.515625 157.0625 108.375 157.8125 108.375 C 159.167969 108.375 160.28125 108.5625 161.148438 108.933594 C 162.019531 109.308594 162.71875 109.84375 163.238281 110.539062 C 163.753906 111.226562 164.109375 112.050781 164.308594 113 C 164.5 113.941406 164.601562 114.992188 164.601562 116.144531 L 164.601562 125.738281 L 159.785156 125.738281 L 159.785156 116.730469 C 159.785156 115.1875 159.585938 114.089844 159.1875 113.445312 C 158.785156 112.800781 158.105469 112.476562 157.136719 112.476562 C 156.882812 112.476562 156.519531 112.539062 156.054688 112.667969 C 155.59375 112.792969 155.210938 112.957031 154.90625 113.152344 C 155.058594 113.644531 155.15625 114.167969 155.199219 114.71875 C 155.242188 115.261719 155.265625 115.847656 155.265625 116.476562 L 155.265625 125.738281 L 150.460938 125.738281 Z M 150.460938 116.730469 " fill-opacity="1" fill-rule="nonzero"/><path fill="#b0d3f5" d="M 168.132812 117.378906 C 168.132812 115.871094 168.363281 114.550781 168.820312 113.417969 C 169.285156 112.292969 169.894531 111.351562 170.644531 110.601562 C 171.398438 109.847656 172.265625 109.277344 173.242188 108.894531 C 174.226562 108.507812 175.234375 108.308594 176.273438 108.308594 C 178.675781 108.308594 180.578125 109.050781 181.980469 110.527344 C 183.378906 112 184.082031 114.164062 184.082031 117.023438 C 184.082031 117.304688 184.066406 117.609375 184.042969 117.941406 C 184.023438 118.273438 184.003906 118.570312 183.980469 118.832031 L 173.074219 118.832031 C 173.179688 119.820312 173.636719 120.605469 174.453125 121.191406 C 175.273438 121.769531 176.375 122.054688 177.75 122.054688 C 178.632812 122.054688 179.5 121.976562 180.347656 121.8125 C 181.195312 121.65625 181.894531 121.453125 182.4375 121.214844 L 183.074219 125.125 C 182.820312 125.253906 182.476562 125.382812 182.042969 125.507812 C 181.617188 125.636719 181.140625 125.742188 180.605469 125.839844 C 180.074219 125.941406 179.511719 126.019531 178.910156 126.082031 C 178.304688 126.148438 177.703125 126.183594 177.101562 126.183594 C 175.578125 126.183594 174.25 125.957031 173.113281 125.507812 C 171.984375 125.058594 171.050781 124.445312 170.3125 123.660156 C 169.574219 122.871094 169.027344 121.941406 168.667969 120.871094 C 168.3125 119.792969 168.132812 118.628906 168.132812 117.378906 Z M 179.433594 115.535156 C 179.40625 115.125 179.332031 114.730469 179.214844 114.347656 C 179.105469 113.960938 178.921875 113.617188 178.667969 113.316406 C 178.417969 113.011719 178.109375 112.761719 177.738281 112.566406 C 177.363281 112.371094 176.898438 112.273438 176.335938 112.273438 C 175.792969 112.273438 175.324219 112.367188 174.9375 112.550781 C 174.554688 112.730469 174.230469 112.972656 173.96875 113.277344 C 173.714844 113.578125 173.511719 113.925781 173.367188 114.324219 C 173.230469 114.722656 173.132812 115.125 173.074219 115.535156 Z M 179.433594 115.535156 " fill-opacity="1" fill-rule="nonzero"/><path fill="#b0d3f5" d="M 187.777344 109.34375 C 188.601562 109.105469 189.65625 108.882812 190.949219 108.679688 C 192.238281 108.476562 193.59375 108.375 195.011719 108.375 C 196.457031 108.375 197.652344 108.5625 198.605469 108.933594 C 199.5625 109.308594 200.324219 109.84375 200.882812 110.539062 C 201.445312 111.226562 201.84375 112.050781 202.082031 113 C 202.316406 113.941406 202.4375 114.992188 202.4375 116.144531 L 202.4375 125.738281 L 197.625 125.738281 L 197.625 116.730469 C 197.625 115.1875 197.421875 114.089844 197.011719 113.445312 C 196.605469 112.800781 195.839844 112.476562 194.71875 112.476562 C 194.378906 112.476562 194.011719 112.496094 193.625 112.527344 C 193.234375 112.550781 192.890625 112.585938 192.59375 112.628906 L 192.59375 125.738281 L 187.777344 125.738281 Z M 187.777344 109.34375 " fill-opacity="1" fill-rule="nonzero"/><path fill="#b0d3f5" d="M 206.628906 104.527344 L 211.429688 103.75 L 211.429688 108.757812 L 217.214844 108.757812 L 217.214844 112.757812 L 211.429688 112.757812 L 211.429688 118.730469 C 211.429688 119.742188 211.609375 120.550781 211.964844 121.152344 C 212.320312 121.757812 213.039062 122.054688 214.117188 122.054688 C 214.628906 122.054688 215.15625 122.011719 215.710938 121.914062 C 216.261719 121.8125 216.761719 121.679688 217.214844 121.507812 L 217.886719 125.253906 C 217.308594 125.492188 216.664062 125.695312 215.953125 125.863281 C 215.238281 126.035156 214.367188 126.121094 213.339844 126.121094 C 212.023438 126.121094 210.933594 125.945312 210.066406 125.597656 C 209.207031 125.242188 208.519531 124.742188 208.003906 124.105469 C 207.496094 123.46875 207.136719 122.703125 206.933594 121.800781 C 206.730469 120.894531 206.628906 119.890625 206.628906 118.792969 Z M 206.628906 104.527344 " fill-opacity="1" fill-rule="nonzero"/></svg>