<svg xmlns="http://www.w3.org/2000/svg" xmlns:xlink="http://www.w3.org/1999/xlink" width="300" zoomAndPan="magnify" viewBox="0 0 224.87999 363.749991" height="485" preserveAspectRatio="xMidYMid meet" version="1.0"><defs><clipPath id="ee35a1be78"><path d="M 0.015625 0 L 224.742188 0 L 224.742188 363.5 L 0.015625 363.5 Z M 0.015625 0 " clip-rule="nonzero"/></clipPath><clipPath id="0df0f08545"><path d="M 26.503906 -0.574219 L 198.921875 -0.574219 C 206.035156 -0.574219 212.851562 2.253906 217.882812 7.28125 C 222.914062 12.308594 225.734375 19.128906 225.734375 26.238281 L 225.734375 336.785156 C 225.734375 343.894531 222.914062 350.714844 217.882812 355.742188 C 212.851562 360.773438 206.035156 363.597656 198.921875 363.597656 L 26.503906 363.597656 C 19.394531 363.597656 12.574219 360.773438 7.542969 355.742188 C 2.515625 350.714844 -0.3125 343.894531 -0.3125 336.785156 L -0.3125 26.238281 C -0.3125 19.128906 2.515625 12.308594 7.542969 7.28125 C 12.574219 2.253906 19.394531 -0.574219 26.503906 -0.574219 Z M 26.503906 -0.574219 " clip-rule="nonzero"/></clipPath><clipPath id="f7a1364cea"><path d="M 26.503906 -0.574219 L 198.921875 -0.574219 C 206.035156 -0.574219 212.851562 2.253906 217.882812 7.28125 C 222.914062 12.308594 225.734375 19.128906 225.734375 26.238281 L 225.734375 336.785156 C 225.734375 343.894531 222.914062 350.714844 217.882812 355.742188 C 212.851562 360.773438 206.035156 363.597656 198.921875 363.597656 L 26.503906 363.597656 C 19.394531 363.597656 12.574219 360.773438 7.542969 355.742188 C 2.515625 350.714844 -0.3125 343.894531 -0.3125 336.785156 L -0.3125 26.238281 C -0.3125 19.128906 2.515625 12.308594 7.542969 7.28125 C 12.574219 2.253906 19.394531 -0.574219 26.503906 -0.574219 Z M 26.503906 -0.574219 " clip-rule="nonzero"/></clipPath><clipPath id="490e2f9970"><path d="M 0.015625 0 L 107.355469 0 L 107.355469 107 L 0.015625 107 Z M 0.015625 0 " clip-rule="nonzero"/></clipPath><clipPath id="e7de80c7bb"><path d="M -0.3125 25.019531 L -0.3125 199.875 C -0.3125 214.011719 11.148438 225.46875 25.285156 225.46875 L 200.140625 225.46875 C 214.277344 225.46875 225.734375 214.011719 225.734375 199.875 L 225.734375 25.019531 C 225.734375 10.886719 214.277344 -0.574219 200.140625 -0.574219 L 25.285156 -0.574219 C 11.148438 -0.574219 -0.3125 10.886719 -0.3125 25.019531 Z M -0.3125 25.019531 " clip-rule="nonzero"/></clipPath><clipPath id="b6091767d6"><path d="M 0.015625 118 L 107.355469 118 L 107.355469 225.503906 L 0.015625 225.503906 Z M 0.015625 118 " clip-rule="nonzero"/></clipPath><clipPath id="26aa2ec75e"><path d="M -0.3125 25.019531 L -0.3125 199.875 C -0.3125 214.011719 11.148438 225.46875 25.285156 225.46875 L 200.140625 225.46875 C 214.277344 225.46875 225.734375 214.011719 225.734375 199.875 L 225.734375 25.019531 C 225.734375 10.886719 214.277344 -0.574219 200.140625 -0.574219 L 25.285156 -0.574219 C 11.148438 -0.574219 -0.3125 10.886719 -0.3125 25.019531 Z M -0.3125 25.019531 " clip-rule="nonzero"/></clipPath><clipPath id="738de19c71"><path d="M 118 0 L 224.742188 0 L 224.742188 107 L 118 107 Z M 118 0 " clip-rule="nonzero"/></clipPath><clipPath id="8c139c8821"><path d="M -0.3125 25.019531 L -0.3125 199.875 C -0.3125 214.011719 11.148438 225.46875 25.285156 225.46875 L 200.140625 225.46875 C 214.277344 225.46875 225.734375 214.011719 225.734375 199.875 L 225.734375 25.019531 C 225.734375 10.886719 214.277344 -0.574219 200.140625 -0.574219 L 25.285156 -0.574219 C 11.148438 -0.574219 -0.3125 10.886719 -0.3125 25.019531 Z M -0.3125 25.019531 " clip-rule="nonzero"/></clipPath><clipPath id="4048235993"><path d="M 118 118 L 224.742188 118 L 224.742188 225.503906 L 118 225.503906 Z M 118 118 " clip-rule="nonzero"/></clipPath><clipPath id="e3d410961e"><path d="M -0.3125 25.019531 L -0.3125 199.875 C -0.3125 214.011719 11.148438 225.46875 25.285156 225.46875 L 200.140625 225.46875 C 214.277344 225.46875 225.734375 214.011719 225.734375 199.875 L 225.734375 25.019531 C 225.734375 10.886719 214.277344 -0.574219 200.140625 -0.574219 L 25.285156 -0.574219 C 11.148438 -0.574219 -0.3125 10.886719 -0.3125 25.019531 Z M -0.3125 25.019531 " clip-rule="nonzero"/></clipPath><clipPath id="bcebf6b387"><path d="M 49.757812 180.273438 L 183.257812 180.273438 L 183.257812 313.816406 L 49.757812 313.816406 Z M 49.757812 180.273438 " clip-rule="nonzero"/></clipPath><clipPath id="6d643e52af"><path d="M 116.503906 180.273438 C 79.640625 180.273438 49.757812 210.167969 49.757812 247.042969 C 49.757812 283.921875 79.640625 313.816406 116.503906 313.816406 C 153.371094 313.816406 183.257812 283.921875 183.257812 247.042969 C 183.257812 210.167969 153.371094 180.273438 116.503906 180.273438 Z M 116.503906 180.273438 " clip-rule="nonzero"/></clipPath><clipPath id="61b725d0fb"><path d="M 116.503906 180.273438 C 79.640625 180.273438 49.757812 210.167969 49.757812 247.042969 C 49.757812 283.921875 79.640625 313.816406 116.503906 313.816406 C 153.371094 313.816406 183.257812 283.921875 183.257812 247.042969 C 183.257812 210.167969 153.371094 180.273438 116.503906 180.273438 Z M 116.503906 180.273438 " clip-rule="nonzero"/></clipPath><clipPath id="6dcac56360"><path d="M 86.136719 238.542969 L 148.320312 238.542969 L 148.320312 257.71875 L 86.136719 257.71875 Z M 86.136719 238.542969 " clip-rule="nonzero"/></clipPath><clipPath id="fd29be09fa"><path d="M 107.355469 248.011719 L 130.796875 248.011719 L 130.796875 264.789062 L 107.355469 264.789062 Z M 107.355469 248.011719 " clip-rule="nonzero"/></clipPath><clipPath id="5ef4c05db0"><path d="M 80.757812 252.613281 L 90.089844 252.613281 L 90.089844 261.5625 L 80.757812 261.5625 Z M 80.757812 252.613281 " clip-rule="nonzero"/></clipPath><clipPath id="f089d66ce4"><path d="M 85.417969 252.613281 C 82.84375 252.613281 80.757812 254.617188 80.757812 257.089844 C 80.757812 259.558594 82.84375 261.5625 85.417969 261.5625 C 87.992188 261.5625 90.082031 259.558594 90.082031 257.089844 C 90.082031 254.617188 87.992188 252.613281 85.417969 252.613281 Z M 85.417969 252.613281 " clip-rule="nonzero"/></clipPath><clipPath id="82083c11a2"><path d="M 85.417969 252.613281 C 82.84375 252.613281 80.757812 254.617188 80.757812 257.089844 C 80.757812 259.558594 82.84375 261.5625 85.417969 261.5625 C 87.992188 261.5625 90.082031 259.558594 90.082031 257.089844 C 90.082031 254.617188 87.992188 252.613281 85.417969 252.613281 Z M 85.417969 252.613281 " clip-rule="nonzero"/></clipPath><clipPath id="4fed837887"><path d="M 142.992188 252.613281 L 152.324219 252.613281 L 152.324219 261.5625 L 142.992188 261.5625 Z M 142.992188 252.613281 " clip-rule="nonzero"/></clipPath><clipPath id="2dafba67d6"><path d="M 147.652344 252.613281 C 145.082031 252.613281 142.992188 254.617188 142.992188 257.089844 C 142.992188 259.558594 145.082031 261.5625 147.652344 261.5625 C 150.230469 261.5625 152.320312 259.558594 152.320312 257.089844 C 152.320312 254.617188 150.230469 252.613281 147.652344 252.613281 Z M 147.652344 252.613281 " clip-rule="nonzero"/></clipPath><clipPath id="45a64e54e5"><path d="M 147.652344 252.613281 C 145.082031 252.613281 142.992188 254.617188 142.992188 257.089844 C 142.992188 259.558594 145.082031 261.5625 147.652344 261.5625 C 150.230469 261.5625 152.320312 259.558594 152.320312 257.089844 C 152.320312 254.617188 150.230469 252.613281 147.652344 252.613281 Z M 147.652344 252.613281 " clip-rule="nonzero"/></clipPath><clipPath id="28b5d22b81"><path d="M 0.015625 197 L 100 197 L 100 316.816406 L 0.015625 316.816406 Z M 0.015625 197 " clip-rule="nonzero"/></clipPath><clipPath id="8c07406bdd"><path d="M 127.675781 194.070312 L 224.742188 194.070312 L 224.742188 313.566406 L 127.675781 313.566406 Z M 127.675781 194.070312 " clip-rule="nonzero"/></clipPath><clipPath id="5b5924a283"><path d="M 6 256 L 140.683594 256 L 140.683594 363.5 L 6 363.5 Z M 6 256 " clip-rule="nonzero"/></clipPath><clipPath id="9b13b8ee8e"><path d="M 93 257.476562 L 224.742188 257.476562 L 224.742188 363.5 L 93 363.5 Z M 93 257.476562 " clip-rule="nonzero"/></clipPath><clipPath id="f9b38b6208"><path d="M 211.125 269.039062 L 218.585938 269.039062 L 218.585938 276.5 L 211.125 276.5 Z M 211.125 269.039062 " clip-rule="nonzero"/></clipPath><clipPath id="67dca7af96"><path d="M 214.855469 269.039062 C 212.796875 269.039062 211.125 270.707031 211.125 272.773438 C 211.125 274.828125 212.796875 276.5 214.855469 276.5 C 216.917969 276.5 218.585938 274.828125 218.585938 272.773438 C 218.585938 270.707031 216.917969 269.039062 214.855469 269.039062 Z M 214.855469 269.039062 " clip-rule="nonzero"/></clipPath><clipPath id="3aa25f5540"><path d="M 214.855469 269.039062 C 212.796875 269.039062 211.125 270.707031 211.125 272.773438 C 211.125 274.828125 212.796875 276.5 214.855469 276.5 C 216.917969 276.5 218.585938 274.828125 218.585938 272.773438 C 218.585938 270.707031 216.917969 269.039062 214.855469 269.039062 Z M 214.855469 269.039062 " clip-rule="nonzero"/></clipPath><clipPath id="d85bc8626a"><path d="M 180.429688 355.425781 L 187.695312 355.425781 L 187.695312 362.691406 L 180.429688 362.691406 Z M 180.429688 355.425781 " clip-rule="nonzero"/></clipPath><clipPath id="d3b5af673c"><path d="M 184.0625 355.425781 C 182.058594 355.425781 180.429688 357.054688 180.429688 359.058594 C 180.429688 361.066406 182.058594 362.691406 184.0625 362.691406 C 186.070312 362.691406 187.695312 361.066406 187.695312 359.058594 C 187.695312 357.054688 186.070312 355.425781 184.0625 355.425781 Z M 184.0625 355.425781 " clip-rule="nonzero"/></clipPath><clipPath id="dff973871e"><path d="M 184.0625 355.425781 C 182.058594 355.425781 180.429688 357.054688 180.429688 359.058594 C 180.429688 361.066406 182.058594 362.691406 184.0625 362.691406 C 186.070312 362.691406 187.695312 361.066406 187.695312 359.058594 C 187.695312 357.054688 186.070312 355.425781 184.0625 355.425781 Z M 184.0625 355.425781 " clip-rule="nonzero"/></clipPath><clipPath id="9242391ea9"><path d="M 43.53125 351.878906 L 50.792969 351.878906 L 50.792969 359.144531 L 43.53125 359.144531 Z M 43.53125 351.878906 " clip-rule="nonzero"/></clipPath><clipPath id="58feedec5a"><path d="M 47.160156 351.878906 C 45.15625 351.878906 43.53125 353.507812 43.53125 355.511719 C 43.53125 357.519531 45.15625 359.144531 47.160156 359.144531 C 49.167969 359.144531 50.792969 357.519531 50.792969 355.511719 C 50.792969 353.507812 49.167969 351.878906 47.160156 351.878906 Z M 47.160156 351.878906 " clip-rule="nonzero"/></clipPath><clipPath id="335de71214"><path d="M 47.160156 351.878906 C 45.15625 351.878906 43.53125 353.507812 43.53125 355.511719 C 43.53125 357.519531 45.15625 359.144531 47.160156 359.144531 C 49.167969 359.144531 50.792969 357.519531 50.792969 355.511719 C 50.792969 353.507812 49.167969 351.878906 47.160156 351.878906 Z M 47.160156 351.878906 " clip-rule="nonzero"/></clipPath><clipPath id="c00af86f32"><path d="M 9.859375 272.410156 L 17.070312 272.410156 L 17.070312 279.625 L 9.859375 279.625 Z M 9.859375 272.410156 " clip-rule="nonzero"/></clipPath><clipPath id="2b9a4d4733"><path d="M 13.46875 272.410156 C 11.472656 272.410156 9.859375 274.027344 9.859375 276.015625 C 9.859375 278.011719 11.472656 279.625 13.46875 279.625 C 15.457031 279.625 17.070312 278.011719 17.070312 276.015625 C 17.070312 274.027344 15.457031 272.410156 13.46875 272.410156 Z M 13.46875 272.410156 " clip-rule="nonzero"/></clipPath><clipPath id="cd829a0275"><path d="M 13.46875 272.410156 C 11.472656 272.410156 9.859375 274.027344 9.859375 276.015625 C 9.859375 278.011719 11.472656 279.625 13.46875 279.625 C 15.457031 279.625 17.070312 278.011719 17.070312 276.015625 C 17.070312 274.027344 15.457031 272.410156 13.46875 272.410156 Z M 13.46875 272.410156 " clip-rule="nonzero"/></clipPath><clipPath id="2989a1f9bd"><path d="M 128.398438 277.730469 L 130.636719 277.730469 L 130.636719 279.683594 L 128.398438 279.683594 Z M 128.398438 277.730469 " clip-rule="nonzero"/></clipPath><clipPath id="8507122fdd"><path d="M 130.628906 278.4375 C 129.609375 280.054688 128.710938 279.753906 128.472656 279.390625 C 128.289062 279.09375 128.472656 278.078125 128.773438 277.835938 C 129.070312 277.59375 130.328125 277.957031 130.328125 277.957031 " clip-rule="nonzero"/></clipPath><clipPath id="de307415ab"><path d="M 130.628906 278.4375 C 129.609375 280.054688 128.710938 279.753906 128.472656 279.390625 C 128.289062 279.09375 128.472656 278.078125 128.773438 277.835938 C 129.070312 277.59375 130.328125 277.957031 130.328125 277.957031 " clip-rule="nonzero"/></clipPath><clipPath id="0e40e3ea58"><path d="M 166.019531 279.59375 L 168.257812 279.59375 L 168.257812 281.5625 L 166.019531 281.5625 Z M 166.019531 279.59375 " clip-rule="nonzero"/></clipPath><clipPath id="c8d2601158"><path d="M 168.25 280.292969 C 167.230469 281.914062 166.332031 281.613281 166.09375 281.3125 C 165.914062 280.953125 166.09375 279.992188 166.394531 279.695312 C 166.695312 279.457031 167.953125 279.816406 167.953125 279.816406 " clip-rule="nonzero"/></clipPath><clipPath id="d72e380fa0"><path d="M 168.25 280.292969 C 167.230469 281.914062 166.332031 281.613281 166.09375 281.3125 C 165.914062 280.953125 166.09375 279.992188 166.394531 279.695312 C 166.695312 279.457031 167.953125 279.816406 167.953125 279.816406 " clip-rule="nonzero"/></clipPath></defs><g clip-path="url(#ee35a1be78)"><g clip-path="url(#0df0f08545)"><g clip-path="url(#f7a1364cea)"><path fill="#fff7ad" d="M -0.3125 -0.574219 L 225.734375 -0.574219 L 225.734375 363.210938 L -0.3125 363.210938 Z M -0.3125 -0.574219 " fill-opacity="1" fill-rule="nonzero"/></g></g></g><g clip-path="url(#490e2f9970)"><g clip-path="url(#e7de80c7bb)"><path fill="#ffe5e5" d="M 5.125 -0.574219 L 101.578125 -0.574219 C 104.535156 -0.574219 107.015625 1.863281 107.015625 4.863281 L 107.015625 101.3125 C 107.015625 104.269531 104.535156 106.75 101.578125 106.75 L 5.125 106.75 C 2.128906 106.75 -0.3125 104.269531 -0.3125 101.3125 L -0.3125 4.863281 C -0.3125 1.863281 2.128906 -0.574219 5.125 -0.574219 Z M 74.238281 32.082031 C 76.515625 34.320312 76.515625 38.039062 74.238281 40.277344 L 40.660156 73.894531 C 38.382812 76.132812 34.707031 76.132812 32.425781 73.894531 C 30.191406 71.613281 30.191406 67.9375 32.425781 65.660156 L 66.039062 32.082031 C 68.28125 29.804688 72 29.804688 74.238281 32.082031 Z M 65.28125 63.9375 C 68.878906 63.9375 71.839844 66.898438 71.839844 70.496094 C 71.839844 74.132812 68.878906 77.050781 65.28125 77.050781 C 61.644531 77.050781 58.726562 74.132812 58.726562 70.496094 C 58.726562 66.898438 61.644531 63.9375 65.28125 63.9375 Z M 41.421875 28.882812 C 45.015625 28.882812 47.976562 31.84375 47.976562 35.441406 C 47.976562 39.078125 45.015625 41.996094 41.421875 41.996094 C 37.78125 41.996094 34.863281 39.078125 34.863281 35.441406 C 34.863281 31.84375 37.78125 28.882812 41.421875 28.882812 Z M 41.421875 28.882812 " fill-opacity="1" fill-rule="evenodd"/></g></g><g clip-path="url(#b6091767d6)"><g clip-path="url(#26aa2ec75e)"><path fill="#ffe5e5" d="M 5.125 118.140625 L 101.578125 118.140625 C 104.535156 118.140625 107.015625 120.578125 107.015625 123.574219 L 107.015625 220.023438 C 107.015625 222.980469 104.535156 225.457031 101.578125 225.457031 L 5.125 225.457031 C 2.128906 225.457031 -0.3125 222.980469 -0.3125 220.023438 L -0.3125 123.574219 C -0.3125 120.578125 2.128906 118.140625 5.125 118.140625 Z M 82.910156 185.527344 C 82.910156 188.726562 80.3125 191.324219 77.113281 191.324219 L 29.589844 191.324219 C 26.390625 191.324219 23.753906 188.726562 23.753906 185.527344 C 23.753906 182.328125 26.390625 179.695312 29.589844 179.695312 L 77.113281 179.695312 C 80.3125 179.695312 82.910156 182.328125 82.910156 185.527344 Z M 82.910156 158.707031 C 82.910156 161.90625 80.3125 164.503906 77.113281 164.503906 L 29.589844 164.503906 C 26.390625 164.503906 23.753906 161.90625 23.753906 158.707031 C 23.753906 155.511719 26.390625 152.871094 29.589844 152.871094 L 77.113281 152.871094 C 80.3125 152.871094 82.910156 155.511719 82.910156 158.707031 Z M 82.910156 158.707031 " fill-opacity="1" fill-rule="evenodd"/></g></g><g clip-path="url(#738de19c71)"><g clip-path="url(#8c139c8821)"><path fill="#ffe5e5" d="M 123.839844 -0.574219 L 220.289062 -0.574219 C 223.25 -0.574219 225.726562 1.863281 225.726562 4.863281 L 225.726562 101.3125 C 225.726562 104.269531 223.25 106.75 220.289062 106.75 L 123.839844 106.75 C 120.84375 106.75 118.40625 104.269531 118.40625 101.3125 L 118.40625 4.863281 C 118.40625 1.863281 120.84375 -0.574219 123.839844 -0.574219 Z M 172.042969 23.929688 C 175.242188 23.929688 177.882812 26.527344 177.882812 29.726562 L 177.882812 47.710938 L 195.828125 47.710938 C 199.027344 47.710938 201.625 50.308594 201.625 53.507812 C 201.625 56.703125 199.027344 59.300781 195.828125 59.300781 L 177.882812 59.300781 L 177.882812 77.25 C 177.882812 80.445312 175.242188 83.085938 172.042969 83.085938 C 168.847656 83.085938 166.25 80.445312 166.25 77.25 L 166.25 59.300781 L 148.300781 59.300781 C 145.105469 59.300781 142.46875 56.703125 142.46875 53.507812 C 142.46875 50.308594 145.105469 47.710938 148.300781 47.710938 L 166.25 47.710938 L 166.25 29.726562 C 166.25 26.527344 168.847656 23.929688 172.042969 23.929688 Z M 172.042969 23.929688 " fill-opacity="1" fill-rule="evenodd"/></g></g><g clip-path="url(#4048235993)"><g clip-path="url(#e3d410961e)"><path fill="#ffe5e5" d="M 123.839844 118.140625 L 220.289062 118.140625 C 223.25 118.140625 225.726562 120.578125 225.726562 123.574219 L 225.726562 220.023438 C 225.726562 222.980469 223.25 225.457031 220.289062 225.457031 L 123.839844 225.457031 C 120.84375 225.457031 118.40625 222.980469 118.40625 220.023438 L 118.40625 123.574219 C 118.40625 120.578125 120.84375 118.140625 123.839844 118.140625 Z M 192.953125 152.832031 C 195.230469 155.109375 195.230469 158.789062 192.953125 161.066406 L 180.277344 173.738281 L 192.953125 186.449219 C 195.230469 188.726562 195.230469 192.402344 192.953125 194.683594 C 190.714844 196.921875 186.996094 196.921875 184.757812 194.683594 L 172.042969 181.972656 L 159.375 194.683594 C 157.097656 196.921875 153.421875 196.921875 151.140625 194.683594 C 148.902344 192.402344 148.902344 188.726562 151.140625 186.449219 L 163.851562 173.738281 L 151.140625 161.066406 C 148.902344 158.789062 148.902344 155.109375 151.140625 152.832031 C 153.421875 150.59375 157.097656 150.59375 159.375 152.832031 L 172.042969 165.542969 L 184.757812 152.832031 C 186.996094 150.59375 190.714844 150.59375 192.953125 152.832031 Z M 192.953125 152.832031 " fill-opacity="1" fill-rule="evenodd"/></g></g><g clip-path="url(#bcebf6b387)"><g clip-path="url(#6d643e52af)"><g clip-path="url(#61b725d0fb)"><path fill="#fde444" d="M 49.757812 180.273438 L 183.257812 180.273438 L 183.257812 313.816406 L 49.757812 313.816406 Z M 49.757812 180.273438 " fill-opacity="1" fill-rule="nonzero"/></g></g></g><g clip-path="url(#6dcac56360)"><path fill="#000000" d="M 108.449219 247.460938 C 105.917969 250.828125 102.058594 252.984375 97.867188 253.117188 C 93.738281 253.25 89.679688 251.367188 87.015625 248.199219 C 85.953125 246.851562 87.8125 244.96875 88.878906 246.3125 C 91.007812 248.875 94.203125 250.488281 97.597656 250.421875 C 100.863281 250.351562 104.121094 248.738281 106.117188 246.113281 C 106.585938 245.507812 107.253906 245.238281 107.914062 245.640625 C 108.515625 245.976562 108.847656 246.851562 108.449219 247.460938 Z M 146.589844 245.640625 C 145.921875 245.238281 145.191406 245.570312 144.792969 246.113281 C 142.796875 248.738281 139.535156 250.421875 136.273438 250.421875 C 132.878906 250.488281 129.746094 248.875 127.554688 246.3125 C 126.421875 244.96875 124.554688 246.921875 125.6875 248.199219 C 128.351562 251.367188 132.410156 253.25 136.535156 253.117188 C 140.730469 252.984375 144.59375 250.828125 147.121094 247.460938 C 147.519531 246.851562 147.191406 245.976562 146.589844 245.640625 Z M 147.855469 230.492188 C 143.925781 225.644531 137.804688 222.882812 131.542969 223.484375 C 129.816406 223.691406 129.949219 226.386719 131.679688 226.183594 C 136.875 225.644531 142.328125 227.730469 145.59375 231.902344 C 146.054688 232.445312 146.789062 232.78125 147.457031 232.308594 C 147.992188 232.039062 148.320312 231.097656 147.855469 230.492188 Z M 123.359375 259.847656 L 110.976562 259.847656 C 109.25 259.847656 109.25 262.542969 110.976562 262.542969 L 123.359375 262.542969 C 125.089844 262.542969 125.089844 259.847656 123.359375 259.847656 Z M 102.460938 225.980469 C 103.191406 226.117188 103.859375 225.777344 104.121094 225.039062 C 104.320312 224.429688 103.921875 223.484375 103.191406 223.351562 C 97.070312 222.410156 90.675781 224.632812 86.546875 229.414062 C 85.417969 230.695312 87.28125 232.644531 88.414062 231.300781 C 91.808594 227.324219 97.199219 225.171875 102.460938 225.980469 Z M 102.460938 225.980469 " fill-opacity="1" fill-rule="nonzero"/></g><g clip-path="url(#fd29be09fa)"><path fill="#000000" d="M 128.113281 255.664062 C 125.773438 258.730469 122.207031 260.695312 118.335938 260.816406 C 114.519531 260.9375 110.769531 259.222656 108.3125 256.34375 C 107.324219 255.113281 109.050781 253.398438 110.035156 254.625 C 112 256.953125 114.953125 258.425781 118.085938 258.363281 C 121.105469 258.304688 124.117188 256.832031 125.960938 254.441406 C 126.390625 253.886719 127.007812 253.640625 127.621094 254.007812 C 128.171875 254.320312 128.480469 255.113281 128.113281 255.664062 Z M 163.347656 254.007812 C 162.730469 253.640625 162.054688 253.949219 161.6875 254.441406 C 159.839844 256.832031 156.828125 258.363281 153.816406 258.363281 C 150.683594 258.425781 147.789062 256.953125 145.761719 254.625 C 144.714844 253.398438 142.992188 255.175781 144.039062 256.34375 C 146.496094 259.222656 150.25 260.9375 154.0625 260.816406 C 157.9375 260.695312 161.503906 258.730469 163.839844 255.664062 C 164.207031 255.113281 163.902344 254.320312 163.347656 254.007812 Z M 164.515625 240.214844 C 160.890625 235.796875 155.230469 233.285156 149.449219 233.835938 C 147.851562 234.019531 147.972656 236.46875 149.574219 236.285156 C 154.371094 235.796875 159.414062 237.699219 162.425781 241.5 C 162.859375 241.992188 163.53125 242.296875 164.148438 241.867188 C 164.640625 241.625 164.949219 240.765625 164.515625 240.214844 Z M 141.886719 266.949219 L 130.449219 266.949219 C 128.847656 266.949219 128.847656 269.402344 130.449219 269.402344 L 141.886719 269.402344 C 143.488281 269.402344 143.488281 266.949219 141.886719 266.949219 Z M 122.578125 236.101562 C 123.257812 236.230469 123.871094 235.917969 124.117188 235.246094 C 124.300781 234.695312 123.933594 233.835938 123.257812 233.710938 C 117.597656 232.855469 111.695312 234.875 107.882812 239.230469 C 106.835938 240.398438 108.5625 242.171875 109.605469 240.949219 C 112.738281 237.332031 117.71875 235.367188 122.578125 236.101562 Z M 122.578125 236.101562 " fill-opacity="1" fill-rule="nonzero"/></g><g clip-path="url(#5ef4c05db0)"><g clip-path="url(#f089d66ce4)"><g clip-path="url(#82083c11a2)"><path fill="#fe89a4" d="M 80.757812 252.613281 L 90.089844 252.613281 L 90.089844 261.5625 L 80.757812 261.5625 Z M 80.757812 252.613281 " fill-opacity="1" fill-rule="nonzero"/></g></g></g><g clip-path="url(#4fed837887)"><g clip-path="url(#2dafba67d6)"><g clip-path="url(#45a64e54e5)"><path fill="#fe89a4" d="M 142.992188 252.613281 L 152.324219 252.613281 L 152.324219 261.5625 L 142.992188 261.5625 Z M 142.992188 252.613281 " fill-opacity="1" fill-rule="nonzero"/></g></g></g><g clip-path="url(#28b5d22b81)"><path stroke-linecap="butt" transform="matrix(0.45957, -0.384419, 0.384301, 0.459712, 6.738079, 269.888321)" fill="none" stroke-linejoin="miter" d="M 2.059712 15.050948 C 35.143065 2.983041 68.244467 2.979219 101.33719 15.05112 " stroke="#fde444" stroke-width="12" stroke-opacity="1" stroke-miterlimit="4"/></g><g clip-path="url(#8c07406bdd)"><path stroke-linecap="butt" transform="matrix(0.467857, 0.374282, -0.374167, 0.468002, 173.078087, 227.638045)" fill="none" stroke-linejoin="miter" d="M 2.055931 15.046264 C 35.146159 2.980506 68.245934 2.984729 101.332857 15.051805 " stroke="#fde444" stroke-width="12" stroke-opacity="1" stroke-miterlimit="4"/></g><g clip-path="url(#5b5924a283)"><path stroke-linecap="butt" transform="matrix(0.398723, -0.447253, 0.447114, 0.398846, 39.796172, 350.218281)" fill="none" stroke-linejoin="miter" d="M 1.592982 15.058192 C 45.362515 2.986964 89.131635 2.981324 132.899815 15.050476 " stroke="#fde444" stroke-width="12" stroke-opacity="1" stroke-miterlimit="4"/></g><g clip-path="url(#9b13b8ee8e)"><path stroke-linecap="butt" transform="matrix(0.381401, 0.462122, -0.461979, 0.381518, 140.32516, 291.903266)" fill="none" stroke-linejoin="miter" d="M 1.595519 15.050968 C 45.359512 2.985479 89.134483 2.978111 132.903827 15.048977 " stroke="#fde444" stroke-width="12" stroke-opacity="1" stroke-miterlimit="4"/></g><g clip-path="url(#f9b38b6208)"><g clip-path="url(#67dca7af96)"><g clip-path="url(#3aa25f5540)"><path fill="#fde444" d="M 211.125 269.039062 L 218.585938 269.039062 L 218.585938 276.5 L 211.125 276.5 Z M 211.125 269.039062 " fill-opacity="1" fill-rule="nonzero"/></g></g></g><g clip-path="url(#d85bc8626a)"><g clip-path="url(#d3b5af673c)"><g clip-path="url(#dff973871e)"><path fill="#fde444" d="M 180.429688 355.425781 L 187.695312 355.425781 L 187.695312 362.691406 L 180.429688 362.691406 Z M 180.429688 355.425781 " fill-opacity="1" fill-rule="nonzero"/></g></g></g><g clip-path="url(#9242391ea9)"><g clip-path="url(#58feedec5a)"><g clip-path="url(#335de71214)"><path fill="#fde444" d="M 43.53125 351.878906 L 50.792969 351.878906 L 50.792969 359.144531 L 43.53125 359.144531 Z M 43.53125 351.878906 " fill-opacity="1" fill-rule="nonzero"/></g></g></g><g clip-path="url(#c00af86f32)"><g clip-path="url(#2b9a4d4733)"><g clip-path="url(#cd829a0275)"><path fill="#fde444" d="M 9.859375 272.410156 L 17.070312 272.410156 L 17.070312 279.625 L 9.859375 279.625 Z M 9.859375 272.410156 " fill-opacity="1" fill-rule="nonzero"/></g></g></g><g clip-path="url(#2989a1f9bd)"><g clip-path="url(#8507122fdd)"><g clip-path="url(#de307415ab)"><rect x="-22.487999" width="269.855988" fill="#fde444" y="-36.374999" height="436.499989" fill-opacity="1"/></g></g></g><g clip-path="url(#0e40e3ea58)"><g clip-path="url(#c8d2601158)"><g clip-path="url(#d72e380fa0)"><rect x="-22.487999" width="269.855988" fill="#fde444" y="-36.374999" height="436.499989" fill-opacity="1"/></g></g></g><path fill="#fe89a4" d="M 35.621094 125.566406 C 35.402344 124.851562 35.160156 124.117188 34.890625 123.363281 C 34.59375 122.535156 34.304688 121.703125 34.023438 120.871094 L 38.015625 119.503906 L 38.015625 123.726562 L 29.328125 123.726562 L 29.328125 119.503906 L 33.328125 120.871094 C 33.039062 121.703125 32.75 122.535156 32.457031 123.363281 C 32.1875 124.117188 31.945312 124.851562 31.726562 125.566406 L 30.816406 128.554688 L 16.53125 128.554688 L 18.484375 122.941406 C 19.328125 120.515625 20.132812 118.273438 20.890625 116.207031 C 21.65625 114.132812 22.402344 112.183594 23.136719 110.34375 C 23.871094 108.507812 24.589844 106.761719 25.304688 105.105469 C 26.027344 103.425781 26.777344 101.785156 27.558594 100.183594 L 28.710938 97.804688 L 38.828125 97.804688 L 39.96875 100.226562 C 40.71875 101.808594 41.453125 103.425781 42.175781 105.085938 C 42.902344 106.746094 43.632812 108.5 44.371094 110.34375 C 45.105469 112.183594 45.851562 114.132812 46.617188 116.207031 C 47.375 118.273438 48.179688 120.515625 49.023438 122.941406 L 50.976562 128.554688 L 36.535156 128.554688 Z M 43.699219 123.09375 L 39.660156 124.332031 L 39.660156 120.109375 L 45.035156 120.109375 L 45.035156 124.332031 L 41.042969 125.71875 C 40.21875 123.339844 39.429688 121.144531 38.691406 119.128906 C 37.949219 117.125 37.230469 115.238281 36.523438 113.472656 C 35.824219 111.714844 35.128906 110.042969 34.4375 108.464844 C 33.746094 106.886719 33.042969 105.34375 32.332031 103.832031 L 36.152344 102.03125 L 36.152344 106.253906 L 31.355469 106.253906 L 31.355469 102.03125 L 35.15625 103.875 C 34.433594 105.359375 33.734375 106.886719 33.0625 108.449219 C 32.378906 110.03125 31.6875 111.707031 30.984375 113.472656 C 30.277344 115.238281 29.558594 117.125 28.816406 119.128906 C 28.078125 121.144531 27.289062 123.339844 26.464844 125.71875 L 22.472656 124.332031 L 22.472656 120.109375 L 27.6875 120.109375 L 27.6875 124.332031 L 23.648438 123.09375 C 23.902344 122.261719 24.183594 121.410156 24.496094 120.535156 C 24.777344 119.734375 25.058594 118.9375 25.332031 118.136719 L 26.308594 115.28125 L 41.035156 115.28125 L 42.015625 118.136719 C 42.289062 118.9375 42.566406 119.734375 42.851562 120.535156 C 43.160156 121.410156 43.445312 122.261719 43.699219 123.09375 Z M 37.648438 108.417969 C 37.523438 108.800781 37.335938 109.296875 37.101562 109.917969 L 36.363281 111.84375 L 35.449219 114.246094 C 35.128906 115.09375 34.800781 115.988281 34.464844 116.929688 L 30.488281 115.511719 L 30.488281 111.289062 L 36.824219 111.289062 L 36.824219 115.511719 L 32.847656 116.929688 C 32.507812 115.976562 32.179688 115.066406 31.863281 114.199219 C 31.554688 113.351562 31.261719 112.585938 30.988281 111.890625 C 30.691406 111.148438 30.433594 110.488281 30.214844 109.917969 C 30.003906 109.378906 29.839844 108.957031 29.71875 108.652344 L 33.640625 107.082031 Z M 29.632812 105.746094 L 33.277344 94.804688 L 37.5625 105.511719 C 37.699219 105.851562 37.878906 106.308594 38.097656 106.886719 C 38.308594 107.429688 38.554688 108.058594 38.839844 108.773438 C 39.140625 109.539062 39.460938 110.378906 39.796875 111.296875 C 40.121094 112.183594 40.457031 113.121094 40.808594 114.101562 L 42.8125 119.734375 L 24.503906 119.734375 L 26.507812 114.101562 C 26.863281 113.105469 27.207031 112.15625 27.554688 111.246094 L 28.472656 108.820312 L 29.214844 106.886719 C 29.40625 106.386719 29.546875 106.003906 29.632812 105.746094 Z M 29.632812 105.746094 " fill-opacity="1" fill-rule="nonzero"/><path fill="#fe89a4" d="M 56.777344 115.746094 C 56.410156 115.65625 55.96875 115.558594 55.449219 115.453125 C 55.144531 115.390625 54.804688 115.359375 54.425781 115.359375 C 54.304688 115.359375 54.125 115.375 53.886719 115.40625 C 53.753906 115.421875 53.648438 115.441406 53.570312 115.453125 C 53.550781 115.457031 53.539062 115.457031 53.53125 115.460938 C 53.554688 115.457031 53.582031 115.449219 53.613281 115.441406 L 52.394531 111.394531 L 56.621094 111.394531 L 56.621094 128.554688 L 43.378906 128.554688 L 43.378906 105.308594 L 46.207031 104.316406 C 47.214844 103.96875 48.375 103.636719 49.699219 103.335938 C 51.179688 102.996094 52.796875 102.828125 54.550781 102.828125 C 54.9375 102.828125 55.371094 102.847656 55.855469 102.890625 C 56.304688 102.929688 56.75 102.984375 57.195312 103.046875 C 57.636719 103.113281 58.082031 103.191406 58.527344 103.28125 C 59.15625 103.410156 59.726562 103.582031 60.234375 103.796875 L 63.441406 105.128906 L 61.066406 116.820312 Z M 58.828125 107.554688 L 57.804688 111.652344 L 53.667969 110.808594 L 54.46875 106.851562 L 58.605469 107.691406 L 56.984375 111.589844 C 56.996094 111.597656 57.007812 111.601562 57.011719 111.605469 C 57.011719 111.605469 57.003906 111.601562 56.992188 111.597656 C 56.949219 111.585938 56.890625 111.570312 56.824219 111.554688 C 56.535156 111.5 56.25 111.449219 55.964844 111.40625 C 55.683594 111.363281 55.398438 111.332031 55.113281 111.304688 C 54.871094 111.28125 54.6875 111.273438 54.550781 111.273438 C 53.433594 111.273438 52.445312 111.371094 51.585938 111.570312 C 50.570312 111.800781 49.710938 112.042969 49 112.292969 L 47.601562 108.304688 L 51.828125 108.304688 L 51.828125 124.332031 L 47.601562 124.332031 L 47.601562 120.109375 L 52.394531 120.109375 L 52.394531 124.332031 L 48.171875 124.332031 L 48.171875 108.25 L 51.183594 107.347656 C 51.621094 107.21875 52.160156 107.109375 52.808594 107.027344 C 53.40625 106.953125 53.945312 106.914062 54.425781 106.914062 C 55.375 106.914062 56.277344 107 57.132812 107.175781 C 57.773438 107.304688 58.339844 107.429688 58.828125 107.554688 Z M 58.828125 107.554688 " fill-opacity="1" fill-rule="nonzero"/><path fill="#fe89a4" d="M 65.972656 128.554688 L 56.953125 128.554688 L 56.953125 103.179688 L 70.199219 103.179688 L 70.199219 128.554688 Z M 65.972656 120.109375 L 65.972656 124.332031 L 61.75 124.332031 L 61.75 107.402344 L 65.972656 107.402344 L 65.972656 111.625 L 61.179688 111.625 L 61.179688 107.402344 L 65.40625 107.402344 L 65.40625 124.332031 L 61.179688 124.332031 L 61.179688 120.109375 Z M 70.652344 102.511719 C 70.652344 103.507812 70.472656 104.4375 70.121094 105.292969 C 69.730469 106.246094 69.148438 107.0625 68.375 107.75 C 67.699219 108.347656 66.953125 108.800781 66.128906 109.109375 C 65.316406 109.414062 64.457031 109.566406 63.558594 109.566406 C 62.664062 109.566406 61.808594 109.414062 60.992188 109.109375 C 60.167969 108.800781 59.421875 108.347656 58.746094 107.75 C 57.972656 107.0625 57.394531 106.246094 57.003906 105.292969 C 56.648438 104.4375 56.472656 103.507812 56.472656 102.511719 C 56.472656 101.515625 56.648438 100.589844 57.003906 99.726562 C 57.394531 98.777344 57.972656 97.960938 58.746094 97.277344 C 59.421875 96.679688 60.167969 96.226562 60.992188 95.914062 C 61.808594 95.609375 62.664062 95.457031 63.558594 95.457031 C 64.457031 95.457031 65.316406 95.609375 66.128906 95.914062 C 66.953125 96.226562 67.699219 96.679688 68.375 97.277344 C 69.148438 97.960938 69.730469 98.777344 70.121094 99.726562 C 70.472656 100.589844 70.652344 101.515625 70.652344 102.511719 Z M 62.199219 102.511719 C 62.199219 102.625 62.234375 102.769531 62.304688 102.9375 C 62.410156 103.195312 62.566406 103.414062 62.769531 103.59375 C 62.875 103.691406 63.003906 103.765625 63.15625 103.824219 C 63.300781 103.878906 63.4375 103.902344 63.558594 103.902344 C 63.6875 103.902344 63.820312 103.878906 63.964844 103.824219 C 64.117188 103.765625 64.246094 103.691406 64.355469 103.59375 C 64.558594 103.414062 64.710938 103.195312 64.816406 102.9375 C 64.886719 102.769531 64.921875 102.625 64.921875 102.511719 C 64.921875 102.394531 64.886719 102.253906 64.816406 102.082031 C 64.710938 101.828125 64.558594 101.609375 64.355469 101.425781 C 64.246094 101.335938 64.117188 101.257812 63.964844 101.199219 C 63.820312 101.148438 63.6875 101.117188 63.558594 101.117188 C 63.4375 101.117188 63.300781 101.148438 63.15625 101.199219 C 63.003906 101.257812 62.875 101.335938 62.769531 101.425781 C 62.566406 101.609375 62.410156 101.828125 62.304688 102.082031 C 62.234375 102.253906 62.199219 102.394531 62.199219 102.511719 Z M 62.199219 102.511719 " fill-opacity="1" fill-rule="nonzero"/><path fill="#fe89a4" d="M 69.644531 99.015625 L 79.335938 97.457031 L 79.335938 107.402344 L 75.113281 107.402344 L 75.113281 103.179688 L 85.097656 103.179688 L 85.097656 115.617188 L 75.113281 115.617188 L 75.113281 111.394531 L 79.335938 111.394531 L 79.335938 117.347656 C 79.335938 117.546875 79.347656 117.699219 79.371094 117.800781 C 79.363281 117.765625 79.332031 117.703125 79.28125 117.617188 C 78.988281 117.113281 78.585938 116.753906 78.082031 116.542969 C 77.957031 116.492188 77.847656 116.457031 77.746094 116.441406 C 77.734375 116.4375 77.722656 116.4375 77.71875 116.4375 C 77.734375 116.4375 77.757812 116.4375 77.785156 116.4375 C 78.050781 116.4375 78.339844 116.410156 78.640625 116.355469 C 78.925781 116.304688 79.167969 116.242188 79.367188 116.167969 L 84.121094 114.355469 L 86.316406 126.46875 L 83.144531 127.761719 C 82.367188 128.074219 81.523438 128.34375 80.613281 128.5625 C 79.578125 128.8125 78.378906 128.941406 77.011719 128.941406 C 75.144531 128.941406 73.523438 128.660156 72.148438 128.089844 C 70.632812 127.464844 69.390625 126.558594 68.425781 125.371094 C 67.492188 124.226562 66.851562 122.882812 66.503906 121.335938 C 66.230469 120.128906 66.09375 118.820312 66.09375 117.410156 L 66.09375 99.589844 Z M 70.988281 107.359375 L 70.316406 103.1875 L 74.542969 103.1875 L 74.542969 117.410156 C 74.542969 118.191406 74.609375 118.878906 74.742188 119.472656 C 74.800781 119.730469 74.878906 119.921875 74.976562 120.039062 C 75.042969 120.121094 75.171875 120.199219 75.371094 120.28125 C 75.714844 120.421875 76.257812 120.492188 77.011719 120.492188 C 77.703125 120.492188 78.242188 120.445312 78.621094 120.355469 C 79.125 120.230469 79.570312 120.089844 79.957031 119.9375 L 81.550781 123.847656 L 77.394531 124.601562 L 76.714844 120.867188 L 80.875 120.113281 L 82.375 124.0625 C 81.675781 124.328125 80.921875 124.535156 80.109375 124.675781 C 79.320312 124.816406 78.546875 124.886719 77.785156 124.886719 C 76.679688 124.886719 75.683594 124.699219 74.804688 124.332031 C 73.589844 123.816406 72.65625 123.011719 72.003906 121.90625 C 71.261719 120.644531 70.890625 119.125 70.890625 117.347656 L 70.890625 107.171875 L 80.875 107.171875 L 80.875 111.394531 L 76.648438 111.394531 L 76.648438 107.402344 L 80.875 107.402344 L 80.875 111.625 L 70.890625 111.625 L 70.890625 102.414062 L 75.113281 102.414062 L 75.78125 106.585938 Z M 70.988281 107.359375 " fill-opacity="1" fill-rule="nonzero"/><path fill="#fe89a4" d="M 80.539062 124.332031 L 80.539062 96.535156 L 93.785156 94.398438 L 93.785156 107.46875 L 89.558594 107.46875 L 88.222656 103.460938 C 88.722656 103.292969 89.316406 103.144531 90 103.015625 C 90.769531 102.867188 91.523438 102.792969 92.261719 102.792969 C 94.191406 102.792969 95.871094 103.085938 97.296875 103.675781 C 98.882812 104.328125 100.179688 105.285156 101.183594 106.542969 C 102.117188 107.71875 102.773438 109.085938 103.144531 110.636719 C 103.445312 111.90625 103.597656 113.285156 103.597656 114.773438 L 103.597656 128.554688 L 90.355469 128.554688 L 90.355469 115.351562 C 90.355469 114.832031 90.328125 114.421875 90.273438 114.128906 C 90.261719 114.0625 90.253906 114.023438 90.25 114.003906 C 90.273438 114.085938 90.320312 114.179688 90.390625 114.285156 C 90.652344 114.710938 91 115.023438 91.441406 115.214844 C 91.5625 115.269531 91.675781 115.304688 91.78125 115.320312 L 91.78125 115.328125 C 91.628906 115.328125 91.503906 115.339844 91.402344 115.359375 C 91.136719 115.410156 90.910156 115.464844 90.71875 115.519531 L 89.558594 111.457031 L 93.785156 111.457031 L 93.785156 128.554688 L 80.539062 128.554688 Z M 88.988281 124.332031 L 84.761719 124.332031 L 84.761719 120.109375 L 89.558594 120.109375 L 89.558594 124.332031 L 85.332031 124.332031 L 85.332031 108.273438 L 88.398438 107.394531 C 88.808594 107.277344 89.253906 107.175781 89.746094 107.074219 C 90.390625 106.945312 91.070312 106.882812 91.78125 106.882812 C 92.902344 106.882812 93.921875 107.078125 94.828125 107.476562 C 96.003906 107.988281 96.917969 108.78125 97.578125 109.855469 C 98.058594 110.625 98.390625 111.550781 98.585938 112.621094 C 98.730469 113.417969 98.804688 114.324219 98.804688 115.351562 L 98.804688 124.332031 L 94.578125 124.332031 L 94.578125 120.109375 L 99.371094 120.109375 L 99.371094 124.332031 L 95.148438 124.332031 L 95.148438 114.773438 C 95.148438 113.945312 95.074219 113.21875 94.925781 112.601562 C 94.847656 112.265625 94.730469 112 94.574219 111.808594 C 94.480469 111.691406 94.316406 111.585938 94.082031 111.484375 C 93.683594 111.324219 93.078125 111.242188 92.261719 111.242188 C 92.054688 111.242188 91.832031 111.265625 91.59375 111.3125 C 91.273438 111.371094 91.039062 111.425781 90.894531 111.472656 L 85.332031 113.328125 L 85.332031 99.359375 L 89.558594 99.359375 L 90.230469 103.527344 L 85.433594 104.300781 L 84.761719 100.132812 L 88.988281 100.132812 Z M 88.988281 124.332031 " fill-opacity="1" fill-rule="nonzero"/><path fill="#fe89a4" d="M 108.789062 115.351562 C 108.789062 114.832031 108.765625 114.421875 108.710938 114.128906 C 108.699219 114.0625 108.6875 114.023438 108.683594 114.003906 C 108.710938 114.085938 108.757812 114.179688 108.824219 114.285156 C 109.0625 114.675781 109.390625 114.96875 109.804688 115.164062 C 110.039062 115.273438 110.226562 115.328125 110.375 115.328125 C 110.214844 115.328125 110.042969 115.339844 109.863281 115.355469 C 109.597656 115.382812 109.347656 115.410156 109.105469 115.445312 L 108.507812 111.265625 L 112.734375 111.265625 L 112.734375 128.554688 L 99.488281 128.554688 L 99.488281 104.726562 L 102.640625 103.898438 C 103.109375 103.773438 103.644531 103.644531 104.253906 103.515625 C 104.878906 103.382812 105.535156 103.257812 106.222656 103.152344 C 106.9375 103.039062 107.667969 102.949219 108.414062 102.886719 C 109.175781 102.824219 109.925781 102.792969 110.664062 102.792969 C 112.441406 102.792969 113.964844 103.050781 115.238281 103.574219 C 116.433594 104.0625 117.453125 104.671875 118.296875 105.40625 L 115.523438 108.59375 L 113.058594 105.164062 C 114.113281 104.40625 115.300781 103.820312 116.625 103.40625 C 117.929688 103 119.171875 102.792969 120.351562 102.792969 C 122.285156 102.792969 123.957031 103.097656 125.359375 103.703125 C 126.914062 104.375 128.171875 105.355469 129.136719 106.640625 C 130.03125 107.832031 130.640625 109.210938 130.957031 110.773438 C 131.207031 111.996094 131.332031 113.328125 131.332031 114.773438 L 131.332031 128.554688 L 118.089844 128.554688 L 118.089844 115.351562 C 118.089844 114.832031 118.0625 114.421875 118.007812 114.128906 C 118 114.0625 117.988281 114.023438 117.984375 114.003906 C 118.011719 114.085938 118.058594 114.179688 118.121094 114.285156 C 118.363281 114.675781 118.691406 114.96875 119.105469 115.164062 C 119.335938 115.273438 119.527344 115.328125 119.675781 115.328125 C 119.796875 115.328125 119.890625 115.320312 119.957031 115.308594 C 119.910156 115.320312 119.835938 115.339844 119.734375 115.367188 C 119.675781 115.382812 119.632812 115.394531 119.609375 115.40625 C 119.644531 115.390625 119.683594 115.367188 119.738281 115.332031 L 117.457031 111.78125 L 121.496094 110.550781 C 121.734375 111.335938 121.886719 112.15625 121.957031 113.011719 C 122.007812 113.667969 122.035156 114.363281 122.035156 115.09375 L 122.035156 128.554688 L 108.789062 128.554688 Z M 117.238281 115.351562 L 117.238281 124.332031 L 113.011719 124.332031 L 113.011719 120.109375 L 117.808594 120.109375 L 117.808594 124.332031 L 113.585938 124.332031 L 113.585938 115.09375 C 113.585938 114.582031 113.570312 114.109375 113.535156 113.671875 C 113.515625 113.429688 113.472656 113.210938 113.414062 113.011719 L 112.484375 109.957031 L 115.171875 108.226562 C 115.828125 107.804688 116.59375 107.472656 117.460938 107.226562 C 118.292969 106.996094 119.035156 106.882812 119.675781 106.882812 C 120.789062 106.882812 121.804688 107.09375 122.714844 107.527344 C 123.808594 108.042969 124.675781 108.820312 125.316406 109.855469 C 125.792969 110.625 126.128906 111.550781 126.320312 112.621094 C 126.46875 113.417969 126.539062 114.324219 126.539062 115.351562 L 126.539062 124.332031 L 122.3125 124.332031 L 122.3125 120.109375 L 127.109375 120.109375 L 127.109375 124.332031 L 122.886719 124.332031 L 122.886719 114.773438 C 122.886719 113.898438 122.820312 113.132812 122.683594 112.464844 C 122.617188 112.140625 122.515625 111.890625 122.378906 111.707031 C 122.3125 111.621094 122.191406 111.535156 122.007812 111.457031 C 121.671875 111.316406 121.121094 111.242188 120.351562 111.242188 C 120.03125 111.242188 119.632812 111.316406 119.152344 111.46875 C 118.695312 111.609375 118.308594 111.792969 117.988281 112.023438 L 115.273438 113.976562 L 112.753906 111.78125 C 112.609375 111.65625 112.375 111.527344 112.042969 111.394531 C 111.96875 111.363281 111.84375 111.332031 111.671875 111.308594 C 111.394531 111.265625 111.058594 111.242188 110.664062 111.242188 C 110.160156 111.242188 109.644531 111.265625 109.117188 111.308594 C 108.578125 111.351562 108.050781 111.417969 107.542969 111.496094 C 107.007812 111.578125 106.507812 111.671875 106.035156 111.773438 C 105.550781 111.878906 105.136719 111.976562 104.789062 112.066406 L 103.710938 107.984375 L 107.9375 107.984375 L 107.9375 124.332031 L 103.710938 124.332031 L 103.710938 120.109375 L 108.507812 120.109375 L 108.507812 124.332031 L 104.285156 124.332031 L 104.285156 107.601562 L 107.910156 107.085938 C 108.269531 107.03125 108.640625 106.988281 109.023438 106.949219 C 109.480469 106.902344 109.933594 106.882812 110.375 106.882812 C 111.488281 106.882812 112.5 107.09375 113.414062 107.527344 C 114.511719 108.042969 115.375 108.820312 116.015625 109.855469 C 116.492188 110.625 116.828125 111.550781 117.019531 112.621094 C 117.167969 113.417969 117.238281 114.324219 117.238281 115.351562 Z M 117.238281 115.351562 " fill-opacity="1" fill-rule="nonzero"/><path fill="#fe89a4" d="M 126.417969 115.996094 C 126.417969 113.941406 126.757812 112.09375 127.425781 110.453125 C 128.101562 108.804688 129.015625 107.402344 130.167969 106.25 C 131.328125 105.085938 132.671875 104.203125 134.191406 103.605469 C 135.667969 103.019531 137.1875 102.726562 138.753906 102.726562 C 140.480469 102.726562 142.066406 103.007812 143.503906 103.5625 C 145.042969 104.160156 146.378906 105.054688 147.515625 106.25 C 149.679688 108.53125 150.765625 111.664062 150.765625 115.644531 C 150.765625 116.011719 150.75 116.40625 150.722656 116.832031 C 150.703125 117.1875 150.675781 117.511719 150.65625 117.796875 L 150.332031 121.667969 L 135.566406 121.667969 L 135.566406 117.441406 L 139.765625 116.984375 C 139.753906 116.878906 139.707031 116.757812 139.632812 116.628906 C 139.558594 116.5 139.480469 116.40625 139.398438 116.351562 C 139.382812 116.339844 139.367188 116.332031 139.363281 116.328125 C 139.386719 116.339844 139.417969 116.351562 139.464844 116.359375 C 139.65625 116.410156 139.910156 116.4375 140.234375 116.4375 C 140.847656 116.4375 141.449219 116.382812 142.035156 116.273438 C 142.566406 116.171875 142.953125 116.066406 143.199219 115.960938 L 148.179688 113.765625 L 150.21875 126.101562 L 147.429688 127.496094 C 146.957031 127.734375 146.390625 127.953125 145.726562 128.152344 C 145.148438 128.324219 144.523438 128.476562 143.84375 128.597656 C 143.214844 128.710938 142.546875 128.808594 141.84375 128.882812 C 141.089844 128.964844 140.339844 129.003906 139.589844 129.003906 C 137.523438 129.003906 135.675781 128.679688 134.046875 128.027344 C 132.34375 127.347656 130.914062 126.386719 129.742188 125.15625 C 128.574219 123.917969 127.710938 122.464844 127.164062 120.796875 C 126.667969 119.292969 126.417969 117.695312 126.417969 115.996094 Z M 134.867188 115.996094 C 134.867188 116.785156 134.972656 117.503906 135.183594 118.148438 C 135.34375 118.625 135.574219 119.027344 135.886719 119.355469 C 136.199219 119.683594 136.632812 119.964844 137.183594 120.183594 C 137.804688 120.429688 138.609375 120.558594 139.589844 120.558594 C 140.039062 120.558594 140.488281 120.53125 140.941406 120.484375 C 141.4375 120.429688 141.898438 120.367188 142.320312 120.289062 C 142.691406 120.222656 143.015625 120.140625 143.300781 120.058594 C 143.496094 120 143.613281 119.960938 143.652344 119.941406 L 145.542969 123.71875 L 141.375 124.40625 L 140.730469 120.515625 L 144.902344 119.824219 L 146.597656 123.691406 C 145.769531 124.058594 144.773438 124.351562 143.613281 124.570312 C 142.503906 124.78125 141.378906 124.886719 140.234375 124.886719 C 137.960938 124.886719 136.050781 124.335938 134.503906 123.234375 C 133.605469 122.601562 132.890625 121.824219 132.355469 120.914062 C 131.816406 120.003906 131.488281 118.996094 131.367188 117.902344 L 130.859375 113.21875 L 146.445312 113.21875 L 146.445312 117.441406 L 142.234375 117.09375 C 142.253906 116.863281 142.273438 116.59375 142.292969 116.289062 C 142.308594 116.046875 142.316406 115.832031 142.316406 115.644531 C 142.316406 113.914062 142.003906 112.71875 141.386719 112.0625 C 141.125 111.789062 140.8125 111.582031 140.453125 111.441406 C 139.996094 111.265625 139.429688 111.179688 138.753906 111.179688 C 138.261719 111.179688 137.773438 111.269531 137.296875 111.460938 C 136.863281 111.632812 136.480469 111.886719 136.140625 112.226562 C 135.789062 112.574219 135.492188 113.050781 135.242188 113.65625 C 134.992188 114.269531 134.867188 115.050781 134.867188 115.996094 Z M 137.6875 114.382812 C 137.6875 114.320312 137.675781 114.261719 137.65625 114.203125 C 137.703125 114.355469 137.777344 114.488281 137.886719 114.625 C 138.011719 114.773438 138.144531 114.882812 138.285156 114.957031 C 138.4375 115.035156 138.585938 115.089844 138.730469 115.117188 C 138.765625 115.128906 138.792969 115.132812 138.824219 115.136719 L 138.8125 115.136719 C 138.835938 115.132812 138.859375 115.128906 138.890625 115.121094 C 138.996094 115.101562 139.113281 115.0625 139.234375 115.003906 C 139.394531 114.929688 139.539062 114.8125 139.671875 114.660156 C 139.761719 114.558594 139.824219 114.457031 139.859375 114.355469 C 139.804688 114.507812 139.761719 114.664062 139.742188 114.820312 L 135.566406 114.160156 L 135.566406 109.9375 L 141.90625 109.9375 L 141.90625 114.160156 Z M 146.359375 118.386719 L 130.625 118.386719 L 131.394531 113.503906 C 131.5 112.84375 131.660156 112.195312 131.886719 111.554688 C 132.203125 110.660156 132.660156 109.859375 133.257812 109.160156 C 133.910156 108.402344 134.699219 107.804688 135.628906 107.363281 C 136.585938 106.914062 137.648438 106.6875 138.816406 106.6875 C 140.058594 106.6875 141.167969 106.9375 142.148438 107.445312 C 143.042969 107.90625 143.796875 108.507812 144.414062 109.261719 C 145.015625 109.992188 145.457031 110.816406 145.734375 111.738281 C 145.953125 112.453125 146.085938 113.1875 146.125 113.941406 Z M 146.359375 118.386719 " fill-opacity="1" fill-rule="nonzero"/><path fill="#fe89a4" d="M 149.402344 99.015625 L 159.09375 97.457031 L 159.09375 107.402344 L 154.871094 107.402344 L 154.871094 103.179688 L 164.855469 103.179688 L 164.855469 115.617188 L 154.871094 115.617188 L 154.871094 111.394531 L 159.09375 111.394531 L 159.09375 117.347656 C 159.09375 117.546875 159.109375 117.699219 159.128906 117.800781 C 159.121094 117.765625 159.09375 117.703125 159.042969 117.617188 C 158.746094 117.113281 158.347656 116.753906 157.839844 116.542969 C 157.71875 116.492188 157.605469 116.457031 157.503906 116.441406 C 157.492188 116.4375 157.480469 116.4375 157.480469 116.4375 C 157.496094 116.4375 157.515625 116.4375 157.542969 116.4375 C 157.808594 116.4375 158.097656 116.410156 158.398438 116.355469 C 158.683594 116.304688 158.925781 116.242188 159.125 116.167969 L 163.878906 114.355469 L 166.074219 126.46875 L 162.902344 127.761719 C 162.128906 128.074219 161.28125 128.34375 160.371094 128.5625 C 159.335938 128.8125 158.136719 128.941406 156.769531 128.941406 C 154.902344 128.941406 153.285156 128.660156 151.910156 128.089844 C 150.390625 127.464844 149.148438 126.558594 148.183594 125.371094 C 147.25 124.226562 146.613281 122.882812 146.261719 121.335938 C 145.988281 120.128906 145.851562 118.820312 145.851562 117.410156 L 145.851562 99.589844 Z M 150.746094 107.359375 L 150.078125 103.1875 L 154.300781 103.1875 L 154.300781 117.410156 C 154.300781 118.191406 154.367188 118.878906 154.5 119.472656 C 154.5625 119.730469 154.636719 119.921875 154.734375 120.039062 C 154.800781 120.121094 154.933594 120.199219 155.128906 120.28125 C 155.472656 120.421875 156.019531 120.492188 156.769531 120.492188 C 157.464844 120.492188 158 120.445312 158.378906 120.355469 C 158.886719 120.230469 159.332031 120.089844 159.714844 119.9375 L 161.308594 123.847656 L 157.152344 124.601562 L 156.476562 120.867188 L 160.632812 120.113281 L 162.132812 124.0625 C 161.433594 124.328125 160.679688 124.535156 159.871094 124.675781 C 159.078125 124.816406 158.304688 124.886719 157.542969 124.886719 C 156.4375 124.886719 155.445312 124.699219 154.5625 124.332031 C 153.347656 123.816406 152.414062 123.011719 151.761719 121.90625 C 151.019531 120.644531 150.648438 119.125 150.648438 117.347656 L 150.648438 107.171875 L 160.632812 107.171875 L 160.632812 111.394531 L 156.410156 111.394531 L 156.410156 107.402344 L 160.632812 107.402344 L 160.632812 111.625 L 150.648438 111.625 L 150.648438 102.414062 L 154.871094 102.414062 L 155.542969 106.585938 Z M 150.746094 107.359375 " fill-opacity="1" fill-rule="nonzero"/><path fill="#fe89a4" d="M 169.316406 128.554688 L 160.296875 128.554688 L 160.296875 103.179688 L 173.542969 103.179688 L 173.542969 128.554688 Z M 169.316406 120.109375 L 169.316406 124.332031 L 165.09375 124.332031 L 165.09375 107.402344 L 169.316406 107.402344 L 169.316406 111.625 L 164.519531 111.625 L 164.519531 107.402344 L 168.746094 107.402344 L 168.746094 124.332031 L 164.519531 124.332031 L 164.519531 120.109375 Z M 173.992188 102.511719 C 173.992188 103.507812 173.816406 104.4375 173.464844 105.292969 C 173.074219 106.246094 172.492188 107.0625 171.714844 107.75 C 171.042969 108.347656 170.292969 108.800781 169.472656 109.109375 C 168.660156 109.414062 167.800781 109.566406 166.902344 109.566406 C 166.007812 109.566406 165.148438 109.414062 164.332031 109.109375 C 163.511719 108.800781 162.765625 108.347656 162.089844 107.75 C 161.316406 107.0625 160.734375 106.246094 160.34375 105.292969 C 159.992188 104.4375 159.816406 103.507812 159.816406 102.511719 C 159.816406 101.515625 159.992188 100.589844 160.34375 99.726562 C 160.734375 98.777344 161.316406 97.960938 162.089844 97.277344 C 162.765625 96.679688 163.511719 96.226562 164.332031 95.914062 C 165.148438 95.609375 166.007812 95.457031 166.902344 95.457031 C 167.800781 95.457031 168.660156 95.609375 169.472656 95.914062 C 170.292969 96.226562 171.042969 96.679688 171.714844 97.277344 C 172.492188 97.960938 173.074219 98.777344 173.464844 99.726562 C 173.816406 100.589844 173.992188 101.515625 173.992188 102.511719 Z M 165.542969 102.511719 C 165.542969 102.625 165.578125 102.769531 165.648438 102.9375 C 165.753906 103.195312 165.910156 103.414062 166.113281 103.59375 C 166.214844 103.691406 166.347656 103.765625 166.5 103.824219 C 166.640625 103.878906 166.777344 103.902344 166.902344 103.902344 C 167.03125 103.902344 167.164062 103.878906 167.308594 103.824219 C 167.460938 103.765625 167.589844 103.691406 167.695312 103.59375 C 167.898438 103.414062 168.054688 103.195312 168.160156 102.9375 C 168.230469 102.769531 168.265625 102.625 168.265625 102.511719 C 168.265625 102.394531 168.230469 102.253906 168.160156 102.082031 C 168.054688 101.828125 167.898438 101.609375 167.695312 101.425781 C 167.589844 101.335938 167.460938 101.257812 167.308594 101.199219 C 167.164062 101.148438 167.03125 101.117188 166.902344 101.117188 C 166.777344 101.117188 166.640625 101.148438 166.5 101.199219 C 166.347656 101.257812 166.214844 101.335938 166.113281 101.425781 C 165.910156 101.609375 165.753906 101.828125 165.648438 102.082031 C 165.578125 102.253906 165.542969 102.394531 165.542969 102.511719 Z M 165.542969 102.511719 " fill-opacity="1" fill-rule="nonzero"/><path fill="#fe89a4" d="M 168.792969 115.867188 C 168.792969 114.144531 169.074219 112.507812 169.648438 110.957031 C 170.238281 109.335938 171.105469 107.914062 172.242188 106.695312 C 173.390625 105.464844 174.765625 104.5 176.367188 103.796875 C 177.980469 103.085938 179.773438 102.726562 181.738281 102.726562 C 182.9375 102.726562 184.058594 102.839844 185.101562 103.066406 C 186.113281 103.28125 187.097656 103.59375 188.054688 104 L 191.410156 105.421875 L 188.304688 117.339844 L 183.902344 115.660156 C 183.621094 115.558594 183.300781 115.457031 182.9375 115.371094 C 182.726562 115.320312 182.457031 115.296875 182.121094 115.296875 C 182.019531 115.296875 181.933594 115.304688 181.867188 115.3125 C 181.859375 115.316406 181.851562 115.316406 181.851562 115.316406 C 181.863281 115.3125 181.875 115.308594 181.890625 115.304688 C 182.039062 115.242188 182.160156 115.148438 182.261719 115.015625 C 182.25 115.03125 182.234375 115.074219 182.214844 115.136719 C 182.15625 115.320312 182.132812 115.5625 182.132812 115.867188 C 182.132812 116.246094 182.160156 116.542969 182.222656 116.765625 C 182.238281 116.8125 182.246094 116.847656 182.257812 116.867188 C 182.25 116.847656 182.238281 116.832031 182.214844 116.804688 C 182.050781 116.589844 181.871094 116.449219 181.6875 116.382812 C 181.792969 116.421875 182 116.4375 182.316406 116.4375 C 182.667969 116.4375 183.070312 116.402344 183.511719 116.332031 C 183.839844 116.277344 184.125 116.199219 184.371094 116.097656 L 189.277344 114.019531 L 191.425781 126.496094 L 188.339844 127.800781 C 187.523438 128.148438 186.5625 128.433594 185.449219 128.660156 C 184.332031 128.890625 183.125 129.003906 181.832031 129.003906 C 179.730469 129.003906 177.863281 128.667969 176.230469 127.992188 C 174.527344 127.289062 173.105469 126.304688 171.960938 125.042969 C 170.820312 123.785156 169.992188 122.3125 169.476562 120.632812 C 169.019531 119.140625 168.792969 117.554688 168.792969 115.867188 Z M 177.238281 115.867188 C 177.238281 116.710938 177.34375 117.472656 177.554688 118.152344 C 177.703125 118.636719 177.925781 119.042969 178.222656 119.371094 C 178.515625 119.695312 178.929688 119.96875 179.457031 120.1875 C 180.054688 120.433594 180.847656 120.558594 181.832031 120.558594 C 182.554688 120.558594 183.195312 120.5 183.753906 120.386719 C 184.3125 120.269531 184.746094 120.148438 185.046875 120.023438 L 186.691406 123.910156 L 182.53125 124.628906 L 181.851562 120.703125 L 186.015625 119.988281 L 187.664062 123.875 C 186.789062 124.246094 185.855469 124.507812 184.855469 124.671875 C 183.96875 124.8125 183.121094 124.886719 182.316406 124.886719 C 181.003906 124.886719 179.824219 124.695312 178.785156 124.316406 C 177.457031 123.828125 176.386719 123.0625 175.5625 122.007812 C 174.308594 120.410156 173.683594 118.359375 173.683594 115.867188 C 173.683594 113.449219 174.335938 111.417969 175.640625 109.769531 C 176.445312 108.757812 177.445312 108.003906 178.644531 107.5 C 179.695312 107.066406 180.851562 106.847656 182.121094 106.847656 C 183.121094 106.847656 184.050781 106.953125 184.910156 107.15625 C 185.621094 107.328125 186.289062 107.53125 186.910156 107.769531 L 185.40625 111.714844 L 181.320312 110.652344 L 182.316406 106.820312 L 186.402344 107.886719 L 184.753906 111.773438 C 184.292969 111.578125 183.820312 111.429688 183.328125 111.324219 C 182.871094 111.226562 182.339844 111.179688 181.738281 111.179688 C 180.957031 111.179688 180.300781 111.292969 179.769531 111.527344 C 179.226562 111.765625 178.777344 112.078125 178.421875 112.457031 C 178.058594 112.84375 177.777344 113.3125 177.578125 113.863281 C 177.351562 114.472656 177.238281 115.144531 177.238281 115.867188 Z M 177.238281 115.867188 " fill-opacity="1" fill-rule="nonzero"/><path fill="#fe89a4" d="M 194.769531 116.664062 C 195.011719 116.664062 195.195312 116.65625 195.316406 116.640625 C 195.292969 116.644531 195.273438 116.648438 195.242188 116.65625 C 195.117188 116.6875 194.980469 116.738281 194.835938 116.808594 C 194.1875 117.113281 193.6875 117.582031 193.339844 118.222656 C 193.085938 118.6875 192.957031 119.15625 192.957031 119.632812 C 192.957031 120.328125 193.152344 120.949219 193.542969 121.507812 C 193.757812 121.820312 194 122.058594 194.261719 122.21875 C 194.019531 122.070312 193.539062 121.859375 192.824219 121.585938 C 191.953125 121.265625 191.152344 120.921875 190.410156 120.558594 C 189.394531 120.058594 188.515625 119.445312 187.761719 118.714844 C 186.914062 117.882812 186.261719 116.910156 185.804688 115.789062 C 185.359375 114.695312 185.136719 113.46875 185.136719 112.101562 C 185.136719 110.679688 185.417969 109.367188 185.980469 108.175781 C 186.558594 106.9375 187.410156 105.886719 188.527344 105.007812 C 190.472656 103.492188 192.960938 102.726562 195.992188 102.726562 C 197.289062 102.726562 198.542969 102.847656 199.753906 103.078125 C 200.941406 103.308594 201.929688 103.578125 202.71875 103.878906 L 206.125 105.1875 L 203.453125 117.09375 L 198.984375 115.546875 C 198.570312 115.402344 198.109375 115.273438 197.601562 115.15625 C 197.261719 115.078125 196.839844 115.039062 196.34375 115.039062 C 196.226562 115.039062 196.15625 115.039062 196.128906 115.046875 C 196.300781 115.015625 196.496094 114.9375 196.710938 114.816406 C 197.179688 114.558594 197.5625 114.179688 197.859375 113.691406 C 198.164062 113.179688 198.316406 112.640625 198.316406 112.070312 C 198.316406 111.6875 198.230469 111.300781 198.070312 110.921875 C 197.824219 110.351562 197.484375 109.910156 197.046875 109.59375 C 197.027344 109.582031 197.007812 109.566406 196.996094 109.5625 C 196.996094 109.5625 197.003906 109.566406 197.011719 109.566406 C 197.058594 109.597656 197.125 109.628906 197.203125 109.667969 C 197.417969 109.773438 197.722656 109.898438 198.117188 110.042969 C 199.347656 110.5 200.398438 110.960938 201.269531 111.4375 C 202.371094 112.042969 203.285156 112.742188 204.003906 113.539062 C 204.820312 114.445312 205.40625 115.472656 205.75 116.617188 C 206.027344 117.546875 206.167969 118.578125 206.167969 119.699219 C 206.167969 121.195312 205.863281 122.550781 205.257812 123.777344 C 204.617188 125.066406 203.679688 126.136719 202.445312 126.980469 C 200.472656 128.332031 197.902344 129.003906 194.734375 129.003906 C 192.875 129.003906 191.273438 128.832031 189.929688 128.484375 C 188.707031 128.167969 187.792969 127.878906 187.195312 127.609375 L 184.085938 126.230469 L 186.59375 114.082031 L 191.265625 115.929688 C 191.863281 116.164062 192.476562 116.347656 193.105469 116.480469 C 193.671875 116.601562 194.226562 116.664062 194.769531 116.664062 Z M 194.769531 125.113281 C 193.632812 125.113281 192.492188 124.988281 191.347656 124.746094 C 190.257812 124.515625 189.199219 124.195312 188.164062 123.789062 L 189.714844 119.855469 L 193.851562 120.710938 L 193.046875 124.605469 L 188.910156 123.753906 L 190.625 119.890625 C 190.796875 119.96875 191.269531 120.109375 192.039062 120.304688 C 192.691406 120.472656 193.589844 120.558594 194.734375 120.558594 C 195.546875 120.558594 196.234375 120.488281 196.796875 120.355469 C 197.179688 120.261719 197.476562 120.144531 197.675781 120.007812 C 197.703125 119.988281 197.71875 119.976562 197.722656 119.972656 C 197.710938 119.988281 197.699219 120.007812 197.6875 120.023438 C 197.6875 120.027344 197.6875 120.03125 197.6875 120.035156 C 197.6875 120.023438 197.691406 120.007812 197.695312 119.992188 C 197.710938 119.917969 197.722656 119.820312 197.722656 119.699219 C 197.722656 119.402344 197.699219 119.183594 197.65625 119.042969 C 197.675781 119.113281 197.703125 119.164062 197.730469 119.195312 C 197.652344 119.109375 197.480469 118.996094 197.210938 118.851562 C 196.710938 118.574219 196.023438 118.273438 195.148438 117.953125 C 194.515625 117.714844 193.96875 117.488281 193.523438 117.273438 C 192.96875 117 192.492188 116.726562 192.101562 116.441406 C 191.273438 115.847656 190.675781 115.117188 190.304688 114.25 C 190.015625 113.566406 189.867188 112.84375 189.867188 112.070312 C 189.867188 111.082031 190.113281 110.179688 190.609375 109.351562 C 191.085938 108.550781 191.75 107.910156 192.597656 107.4375 C 193.613281 106.871094 194.859375 106.589844 196.34375 106.589844 C 197.480469 106.589844 198.527344 106.699219 199.492188 106.921875 C 200.296875 107.105469 201.046875 107.320312 201.746094 107.566406 L 200.367188 111.554688 L 196.246094 110.632812 L 197.082031 106.898438 L 201.203125 107.820312 L 199.6875 111.765625 C 199.363281 111.640625 198.847656 111.507812 198.148438 111.375 C 197.46875 111.242188 196.75 111.179688 195.992188 111.179688 C 195.351562 111.179688 194.820312 111.238281 194.386719 111.363281 C 194.105469 111.441406 193.886719 111.542969 193.734375 111.664062 C 193.667969 111.710938 193.632812 111.746094 193.625 111.765625 C 193.597656 111.824219 193.582031 111.9375 193.582031 112.101562 C 193.582031 112.273438 193.59375 112.417969 193.613281 112.53125 C 193.617188 112.5625 193.625 112.589844 193.632812 112.605469 C 193.632812 112.609375 193.632812 112.613281 193.632812 112.613281 C 193.632812 112.609375 193.628906 112.605469 193.625 112.601562 C 193.640625 112.636719 193.652344 112.65625 193.660156 112.664062 C 193.765625 112.773438 193.925781 112.875 194.136719 112.976562 C 194.617188 113.214844 195.175781 113.453125 195.808594 113.6875 C 197.027344 114.144531 197.980469 114.589844 198.683594 115.015625 C 199.417969 115.472656 200.011719 116.019531 200.46875 116.671875 C 201.09375 117.566406 201.40625 118.554688 201.40625 119.632812 C 201.40625 120.601562 201.183594 121.484375 200.746094 122.28125 C 200.21875 123.253906 199.445312 123.976562 198.433594 124.453125 C 197.5 124.894531 196.277344 125.113281 194.769531 125.113281 Z M 194.769531 125.113281 " fill-opacity="1" fill-rule="nonzero"/><path fill="#fff7ad" d="M 39.65625 124.332031 C 39.425781 123.5625 39.164062 122.769531 38.867188 121.957031 C 38.578125 121.136719 38.296875 120.316406 38.015625 119.503906 L 29.328125 119.503906 C 29.050781 120.316406 28.761719 121.136719 28.476562 121.957031 C 28.1875 122.769531 27.925781 123.5625 27.691406 124.332031 L 22.46875 124.332031 C 23.308594 121.925781 24.101562 119.707031 24.859375 117.675781 C 25.609375 115.636719 26.34375 113.710938 27.054688 111.910156 C 27.773438 110.105469 28.480469 108.398438 29.175781 106.777344 C 29.878906 105.152344 30.605469 103.570312 31.359375 102.027344 L 36.148438 102.027344 C 36.875 103.570312 37.597656 105.152344 38.308594 106.777344 C 39.019531 108.398438 39.730469 110.105469 40.441406 111.910156 C 41.160156 113.710938 41.898438 115.636719 42.652344 117.675781 C 43.40625 119.707031 44.203125 121.925781 45.039062 124.332031 Z M 33.648438 107.082031 C 33.535156 107.40625 33.371094 107.84375 33.152344 108.402344 C 32.9375 108.960938 32.695312 109.605469 32.414062 110.332031 C 32.136719 111.0625 31.832031 111.867188 31.5 112.746094 C 31.171875 113.628906 30.832031 114.550781 30.484375 115.515625 L 36.835938 115.515625 C 36.484375 114.550781 36.152344 113.628906 35.832031 112.746094 C 35.507812 111.867188 35.203125 111.0625 34.917969 110.332031 C 34.628906 109.605469 34.375 108.960938 34.15625 108.402344 C 33.941406 107.84375 33.773438 107.40625 33.648438 107.082031 Z M 33.648438 107.082031 " fill-opacity="1" fill-rule="nonzero"/><path fill="#fff7ad" d="M 57.808594 111.65625 C 57.378906 111.546875 56.871094 111.433594 56.285156 111.3125 C 55.707031 111.195312 55.09375 111.132812 54.429688 111.132812 C 54.125 111.132812 53.761719 111.164062 53.339844 111.222656 C 52.921875 111.273438 52.609375 111.332031 52.398438 111.386719 L 52.398438 124.332031 L 47.597656 124.332031 L 47.597656 108.300781 C 48.460938 108.007812 49.476562 107.722656 50.644531 107.449219 C 51.816406 107.179688 53.117188 107.042969 54.558594 107.042969 C 54.8125 107.042969 55.121094 107.0625 55.484375 107.09375 C 55.847656 107.128906 56.210938 107.175781 56.578125 107.234375 C 56.941406 107.285156 57.304688 107.347656 57.671875 107.425781 C 58.042969 107.496094 58.355469 107.582031 58.609375 107.691406 Z M 57.808594 111.65625 " fill-opacity="1" fill-rule="nonzero"/><path fill="#fff7ad" d="M 65.976562 124.332031 L 61.175781 124.332031 L 61.175781 107.398438 L 65.976562 107.398438 Z M 66.421875 102.507812 C 66.421875 103.390625 66.136719 104.085938 65.570312 104.59375 C 65 105.09375 64.332031 105.34375 63.5625 105.34375 C 62.792969 105.34375 62.117188 105.09375 61.542969 104.59375 C 60.976562 104.085938 60.691406 103.390625 60.691406 102.507812 C 60.691406 101.628906 60.976562 100.941406 61.542969 100.4375 C 62.117188 99.929688 62.792969 99.675781 63.5625 99.675781 C 64.332031 99.675781 65 99.929688 65.570312 100.4375 C 66.136719 100.941406 66.421875 101.628906 66.421875 102.507812 Z M 66.421875 102.507812 " fill-opacity="1" fill-rule="nonzero"/><path fill="#fff7ad" d="M 70.320312 103.183594 L 75.109375 102.40625 L 75.109375 107.398438 L 80.875 107.398438 L 80.875 111.386719 L 75.109375 111.386719 L 75.109375 117.34375 C 75.109375 118.355469 75.289062 119.15625 75.644531 119.757812 C 76 120.363281 76.714844 120.660156 77.789062 120.660156 C 78.296875 120.660156 78.824219 120.617188 79.378906 120.519531 C 79.925781 120.417969 80.425781 120.285156 80.875 120.113281 L 81.550781 123.847656 C 80.972656 124.085938 80.332031 124.289062 79.617188 124.457031 C 78.90625 124.625 78.039062 124.710938 77.015625 124.710938 C 75.699219 124.710938 74.613281 124.539062 73.75 124.191406 C 72.894531 123.835938 72.207031 123.339844 71.691406 122.703125 C 71.183594 122.070312 70.828125 121.304688 70.625 120.40625 C 70.421875 119.5 70.320312 118.5 70.320312 117.410156 Z M 70.320312 103.183594 " fill-opacity="1" fill-rule="nonzero"/><path fill="#fff7ad" d="M 84.757812 124.332031 L 84.757812 100.121094 L 89.558594 99.359375 L 89.558594 107.464844 C 89.878906 107.363281 90.289062 107.265625 90.792969 107.171875 C 91.300781 107.070312 91.789062 107.019531 92.265625 107.019531 C 93.636719 107.019531 94.773438 107.207031 95.683594 107.578125 C 96.597656 107.953125 97.328125 108.484375 97.878906 109.179688 C 98.429688 109.863281 98.8125 110.683594 99.035156 111.628906 C 99.265625 112.570312 99.378906 113.617188 99.378906 114.765625 L 99.378906 124.332031 L 94.578125 124.332031 L 94.578125 115.351562 C 94.578125 113.8125 94.378906 112.71875 93.980469 112.074219 C 93.582031 111.433594 92.851562 111.109375 91.78125 111.109375 C 91.351562 111.109375 90.945312 111.148438 90.5625 111.222656 C 90.1875 111.292969 89.855469 111.367188 89.558594 111.453125 L 89.558594 124.332031 Z M 84.757812 124.332031 " fill-opacity="1" fill-rule="nonzero"/><path fill="#fff7ad" d="M 113.019531 115.351562 C 113.019531 113.8125 112.820312 112.71875 112.421875 112.074219 C 112.023438 111.433594 111.34375 111.109375 110.378906 111.109375 C 110.074219 111.109375 109.757812 111.128906 109.4375 111.160156 C 109.113281 111.183594 108.804688 111.21875 108.511719 111.261719 L 108.511719 124.332031 L 103.710938 124.332031 L 103.710938 107.984375 C 104.121094 107.875 104.601562 107.761719 105.144531 107.640625 C 105.695312 107.523438 106.273438 107.417969 106.882812 107.324219 C 107.496094 107.222656 108.121094 107.144531 108.765625 107.09375 C 109.40625 107.042969 110.039062 107.019531 110.667969 107.019531 C 111.890625 107.019531 112.878906 107.175781 113.640625 107.488281 C 114.402344 107.792969 115.03125 108.160156 115.523438 108.59375 C 116.207031 108.105469 116.996094 107.71875 117.882812 107.4375 C 118.78125 107.15625 119.601562 107.019531 120.347656 107.019531 C 121.703125 107.019531 122.8125 107.207031 123.675781 107.578125 C 124.546875 107.953125 125.242188 108.484375 125.757812 109.179688 C 126.273438 109.863281 126.628906 110.683594 126.828125 111.628906 C 127.019531 112.570312 127.117188 113.617188 127.117188 114.765625 L 127.117188 124.332031 L 122.316406 124.332031 L 122.316406 115.351562 C 122.316406 113.8125 122.117188 112.71875 121.71875 112.074219 C 121.320312 111.433594 120.640625 111.109375 119.675781 111.109375 C 119.421875 111.109375 119.058594 111.171875 118.59375 111.300781 C 118.136719 111.425781 117.757812 111.585938 117.453125 111.78125 C 117.605469 112.273438 117.699219 112.792969 117.746094 113.34375 C 117.785156 113.886719 117.808594 114.472656 117.808594 115.097656 L 117.808594 124.332031 L 113.019531 124.332031 Z M 113.019531 115.351562 " fill-opacity="1" fill-rule="nonzero"/><path fill="#fff7ad" d="M 130.644531 116 C 130.644531 114.492188 130.871094 113.175781 131.328125 112.046875 C 131.792969 110.925781 132.398438 109.988281 133.144531 109.242188 C 133.898438 108.488281 134.761719 107.921875 135.734375 107.539062 C 136.71875 107.152344 137.722656 106.953125 138.757812 106.953125 C 141.152344 106.953125 143.050781 107.691406 144.449219 109.164062 C 145.847656 110.632812 146.546875 112.792969 146.546875 115.644531 C 146.546875 115.921875 146.53125 116.226562 146.507812 116.558594 C 146.488281 116.886719 146.46875 117.1875 146.445312 117.445312 L 135.570312 117.445312 C 135.671875 118.429688 136.128906 119.210938 136.941406 119.796875 C 137.761719 120.375 138.859375 120.660156 140.234375 120.660156 C 141.113281 120.660156 141.976562 120.582031 142.824219 120.417969 C 143.667969 120.261719 144.363281 120.058594 144.90625 119.820312 L 145.542969 123.722656 C 145.289062 123.847656 144.945312 123.976562 144.511719 124.101562 C 144.085938 124.230469 143.613281 124.335938 143.078125 124.433594 C 142.550781 124.535156 141.988281 124.613281 141.386719 124.671875 C 140.785156 124.742188 140.183594 124.773438 139.585938 124.773438 C 138.066406 124.773438 136.742188 124.550781 135.609375 124.101562 C 134.480469 123.65625 133.550781 123.042969 132.816406 122.261719 C 132.078125 121.472656 131.53125 120.546875 131.175781 119.480469 C 130.820312 118.40625 130.644531 117.242188 130.644531 116 Z M 141.910156 114.15625 C 141.882812 113.75 141.8125 113.355469 141.695312 112.976562 C 141.582031 112.589844 141.402344 112.246094 141.148438 111.945312 C 140.898438 111.640625 140.589844 111.394531 140.21875 111.199219 C 139.84375 111.003906 139.382812 110.90625 138.824219 110.90625 C 138.28125 110.90625 137.8125 111 137.425781 111.183594 C 137.042969 111.363281 136.71875 111.605469 136.460938 111.910156 C 136.207031 112.207031 136.007812 112.554688 135.863281 112.949219 C 135.726562 113.351562 135.628906 113.75 135.570312 114.15625 Z M 141.910156 114.15625 " fill-opacity="1" fill-rule="nonzero"/><path fill="#fff7ad" d="M 150.078125 103.183594 L 154.867188 102.40625 L 154.867188 107.398438 L 160.636719 107.398438 L 160.636719 111.386719 L 154.867188 111.386719 L 154.867188 117.34375 C 154.867188 118.355469 155.046875 119.15625 155.402344 119.757812 C 155.757812 120.363281 156.472656 120.660156 157.546875 120.660156 C 158.058594 120.660156 158.582031 120.617188 159.136719 120.519531 C 159.6875 120.417969 160.183594 120.285156 160.636719 120.113281 L 161.308594 123.847656 C 160.730469 124.085938 160.089844 124.289062 159.378906 124.457031 C 158.667969 124.625 157.796875 124.710938 156.773438 124.710938 C 155.460938 124.710938 154.375 124.539062 153.507812 124.191406 C 152.652344 123.835938 151.964844 123.339844 151.453125 122.703125 C 150.945312 122.070312 150.589844 121.304688 150.386719 120.40625 C 150.179688 119.5 150.078125 118.5 150.078125 117.410156 Z M 150.078125 103.183594 " fill-opacity="1" fill-rule="nonzero"/><path fill="#fff7ad" d="M 169.320312 124.332031 L 164.519531 124.332031 L 164.519531 107.398438 L 169.320312 107.398438 Z M 169.761719 102.507812 C 169.761719 103.390625 169.476562 104.085938 168.914062 104.59375 C 168.34375 105.09375 167.675781 105.34375 166.90625 105.34375 C 166.132812 105.34375 165.460938 105.09375 164.886719 104.59375 C 164.316406 104.085938 164.035156 103.390625 164.035156 102.507812 C 164.035156 101.628906 164.316406 100.941406 164.886719 100.4375 C 165.460938 99.929688 166.132812 99.675781 166.90625 99.675781 C 167.675781 99.675781 168.34375 99.929688 168.914062 100.4375 C 169.476562 100.941406 169.761719 101.628906 169.761719 102.507812 Z M 169.761719 102.507812 " fill-opacity="1" fill-rule="nonzero"/><path fill="#fff7ad" d="M 173.015625 115.871094 C 173.015625 114.644531 173.210938 113.488281 173.613281 112.402344 C 174.007812 111.320312 174.582031 110.378906 175.328125 109.570312 C 176.078125 108.769531 176.996094 108.132812 178.070312 107.667969 C 179.144531 107.191406 180.371094 106.953125 181.742188 106.953125 C 182.636719 106.953125 183.464844 107.039062 184.21875 107.195312 C 184.972656 107.359375 185.699219 107.585938 186.402344 107.882812 L 185.414062 111.71875 C 184.957031 111.539062 184.460938 111.386719 183.925781 111.261719 C 183.394531 111.132812 182.789062 111.070312 182.121094 111.070312 C 180.707031 111.070312 179.648438 111.511719 178.949219 112.390625 C 178.253906 113.273438 177.90625 114.433594 177.90625 115.871094 C 177.90625 117.390625 178.230469 118.5625 178.882812 119.402344 C 179.542969 120.242188 180.6875 120.660156 182.3125 120.660156 C 182.898438 120.660156 183.519531 120.609375 184.179688 120.507812 C 184.847656 120.398438 185.464844 120.226562 186.023438 119.988281 L 186.695312 123.910156 C 186.136719 124.148438 185.4375 124.351562 184.601562 124.519531 C 183.761719 124.691406 182.835938 124.773438 181.832031 124.773438 C 180.289062 124.773438 178.960938 124.546875 177.84375 124.089844 C 176.726562 123.632812 175.804688 123.007812 175.085938 122.210938 C 174.375 121.414062 173.847656 120.476562 173.511719 119.390625 C 173.179688 118.308594 173.015625 117.136719 173.015625 115.871094 Z M 173.015625 115.871094 " fill-opacity="1" fill-rule="nonzero"/><path fill="#fff7ad" d="M 194.769531 120.886719 C 195.648438 120.886719 196.269531 120.804688 196.636719 120.632812 C 196.996094 120.457031 197.179688 120.125 197.179688 119.632812 C 197.179688 119.242188 196.941406 118.902344 196.46875 118.613281 C 196.003906 118.328125 195.289062 118.003906 194.324219 117.636719 C 193.566406 117.359375 192.882812 117.070312 192.265625 116.773438 C 191.65625 116.46875 191.136719 116.109375 190.703125 115.695312 C 190.277344 115.269531 189.949219 114.773438 189.710938 114.195312 C 189.472656 113.609375 189.355469 112.910156 189.355469 112.097656 C 189.355469 110.519531 189.945312 109.261719 191.121094 108.339844 C 192.308594 107.417969 193.929688 106.953125 195.988281 106.953125 C 197.019531 106.953125 198.007812 107.050781 198.945312 107.234375 C 199.894531 107.414062 200.648438 107.609375 201.207031 107.820312 L 200.371094 111.554688 C 199.808594 111.359375 199.199219 111.191406 198.539062 111.042969 C 197.886719 110.890625 197.15625 110.816406 196.34375 110.816406 C 194.84375 110.816406 194.09375 111.234375 194.09375 112.074219 C 194.09375 112.261719 194.125 112.429688 194.183594 112.582031 C 194.25 112.734375 194.378906 112.882812 194.578125 113.027344 C 194.769531 113.164062 195.035156 113.3125 195.363281 113.472656 C 195.695312 113.632812 196.117188 113.8125 196.636719 114.003906 C 197.683594 114.386719 198.554688 114.765625 199.238281 115.148438 C 199.925781 115.523438 200.464844 115.929688 200.863281 116.367188 C 201.261719 116.808594 201.539062 117.292969 201.703125 117.828125 C 201.863281 118.359375 201.945312 118.984375 201.945312 119.695312 C 201.945312 121.371094 201.316406 122.636719 200.0625 123.492188 C 198.808594 124.347656 197.03125 124.773438 194.730469 124.773438 C 193.230469 124.773438 191.980469 124.648438 190.984375 124.394531 C 189.980469 124.140625 189.292969 123.925781 188.914062 123.746094 L 189.710938 119.859375 C 190.523438 120.183594 191.355469 120.4375 192.214844 120.621094 C 193.078125 120.800781 193.929688 120.886719 194.769531 120.886719 Z M 194.769531 120.886719 " fill-opacity="1" fill-rule="nonzero"/></svg>