<svg xmlns="http://www.w3.org/2000/svg" xmlns:xlink="http://www.w3.org/1999/xlink" width="600" zoomAndPan="magnify" viewBox="0 0 450 257.99999" height="344" preserveAspectRatio="xMidYMid meet" version="1.0"><defs><clipPath id="1a183c8c16"><path d="M 0 0 L 449.761719 0 L 449.761719 258 L 0 258 Z M 0 0 " clip-rule="nonzero"/></clipPath></defs><g clip-path="url(#1a183c8c16)"><path fill="#ffd21f" d="M 321.09375 257.710938 L 128.601562 257.710938 C 57.550781 257.710938 -0.238281 199.917969 -0.238281 128.867188 C -0.238281 57.816406 57.550781 0.0273438 128.601562 0.0273438 L 321.09375 0.0273438 C 392.144531 0.0273438 449.933594 57.816406 449.933594 128.867188 C 449.933594 199.917969 392.144531 257.710938 321.09375 257.710938 Z M 128.601562 18.53125 C 67.730469 18.53125 18.265625 67.992188 18.265625 128.867188 C 18.265625 189.742188 67.730469 239.207031 128.601562 239.207031 L 321.09375 239.207031 C 381.90625 239.207031 431.433594 189.742188 431.433594 128.867188 C 431.433594 67.992188 381.90625 18.53125 321.09375 18.53125 Z M 128.601562 18.53125 " fill-opacity="1" fill-rule="nonzero"/></g><path fill="#ffd21f" d="M 294.019531 196.898438 C 291.675781 196.898438 289.269531 195.972656 287.480469 194.183594 C 283.839844 190.542969 283.839844 184.683594 287.480469 181.109375 L 339.472656 129.113281 L 287.480469 77.121094 C 283.839844 73.484375 283.839844 67.625 287.480469 64.046875 C 291.117188 60.46875 296.976562 60.40625 300.554688 64.046875 L 356.433594 119.925781 C 361.492188 124.984375 361.492188 133.246094 356.433594 138.304688 L 300.554688 194.183594 C 298.765625 195.972656 296.363281 196.898438 294.019531 196.898438 Z M 343.359375 133 Z M 343.359375 133 " fill-opacity="1" fill-rule="nonzero"/><path fill="#ffd21f" d="M 350.945312 138.304688 L 98.691406 138.304688 C 93.570312 138.304688 89.4375 134.171875 89.4375 129.054688 C 89.4375 123.933594 93.570312 119.800781 98.691406 119.800781 L 350.945312 119.800781 C 356.0625 119.800781 360.195312 123.933594 360.195312 129.054688 C 360.195312 134.171875 356.0625 138.304688 350.945312 138.304688 Z M 350.945312 138.304688 " fill-opacity="1" fill-rule="nonzero"/></svg>